G04*
G04 #@! TF.GenerationSoftware,Altium Limited,Altium Designer,21.0.8 (223)*
G04*
G04 Layer_Color=8388736*
%FSLAX25Y25*%
%MOIN*%
G70*
G04*
G04 #@! TF.SameCoordinates,D13D4976-0AF9-4397-BE84-B4B6C9367268*
G04*
G04*
G04 #@! TF.FilePolarity,Negative*
G04*
G01*
G75*
%ADD19R,0.08000X0.03900*%
%ADD20R,0.03900X0.08000*%
%ADD21R,0.08000X0.04000*%
%ADD22R,0.05910X0.03030*%
%ADD23R,0.03000X0.04000*%
%ADD24R,0.04000X0.03000*%
%ADD25R,0.08000X0.06000*%
%ADD26R,0.08000X0.15000*%
%ADD27R,0.13583X0.03543*%
G04:AMPARAMS|DCode=30|XSize=27.56mil|YSize=49.21mil|CornerRadius=6.89mil|HoleSize=0mil|Usage=FLASHONLY|Rotation=0.000|XOffset=0mil|YOffset=0mil|HoleType=Round|Shape=RoundedRectangle|*
%AMROUNDEDRECTD30*
21,1,0.02756,0.03543,0,0,0.0*
21,1,0.01378,0.04921,0,0,0.0*
1,1,0.01378,0.00689,-0.01772*
1,1,0.01378,-0.00689,-0.01772*
1,1,0.01378,-0.00689,0.01772*
1,1,0.01378,0.00689,0.01772*
%
%ADD30ROUNDEDRECTD30*%
G04:AMPARAMS|DCode=31|XSize=27.56mil|YSize=49.21mil|CornerRadius=6.89mil|HoleSize=0mil|Usage=FLASHONLY|Rotation=90.000|XOffset=0mil|YOffset=0mil|HoleType=Round|Shape=RoundedRectangle|*
%AMROUNDEDRECTD31*
21,1,0.02756,0.03543,0,0,90.0*
21,1,0.01378,0.04921,0,0,90.0*
1,1,0.01378,0.01772,0.00689*
1,1,0.01378,0.01772,-0.00689*
1,1,0.01378,-0.01772,-0.00689*
1,1,0.01378,-0.01772,0.00689*
%
%ADD31ROUNDEDRECTD31*%
%ADD32R,0.10984X0.12598*%
%ADD33R,0.04945X0.03799*%
%ADD34R,0.03799X0.04945*%
%ADD35R,0.06000X0.06000*%
%ADD36C,0.05512*%
%ADD37C,0.06000*%
%ADD38R,0.31500X0.31500*%
%ADD39C,0.05100*%
%ADD40C,0.04000*%
%ADD41R,0.06000X0.20000*%
%ADD42R,0.20000X0.06000*%
%ADD43C,0.04700*%
%ADD44R,0.06000X0.20000*%
%ADD45O,0.02000X0.90000*%
%ADD46O,0.35000X0.02000*%
%ADD47O,1.20000X0.02000*%
%ADD48O,0.02000X0.30000*%
%ADD49O,0.02000X0.20000*%
%ADD50O,0.02000X0.35000*%
%ADD51O,0.41000X0.02000*%
%ADD52C,0.02800*%
%ADD53C,0.05000*%
D19*
X264000Y295000D02*
D03*
Y300000D02*
D03*
Y305000D02*
D03*
Y310000D02*
D03*
Y315000D02*
D03*
Y320000D02*
D03*
Y325000D02*
D03*
Y330000D02*
D03*
Y335000D02*
D03*
Y340000D02*
D03*
Y345000D02*
D03*
Y350000D02*
D03*
Y355000D02*
D03*
Y360000D02*
D03*
X330929D02*
D03*
Y355000D02*
D03*
Y350000D02*
D03*
Y345000D02*
D03*
Y335000D02*
D03*
Y330000D02*
D03*
Y325000D02*
D03*
Y320000D02*
D03*
Y315000D02*
D03*
Y310000D02*
D03*
Y305079D02*
D03*
Y300000D02*
D03*
Y295000D02*
D03*
D20*
X284965Y291063D02*
D03*
X289965D02*
D03*
X294965Y291100D02*
D03*
X299965Y291063D02*
D03*
X304965D02*
D03*
X309965D02*
D03*
X314965D02*
D03*
X274965D02*
D03*
X279965D02*
D03*
X319965D02*
D03*
D21*
X330929Y340000D02*
D03*
D22*
X74000Y91000D02*
D03*
Y86000D02*
D03*
Y81000D02*
D03*
Y76000D02*
D03*
X51000D02*
D03*
Y81000D02*
D03*
Y86000D02*
D03*
Y91000D02*
D03*
D23*
X192500Y27000D02*
D03*
X196250Y35000D02*
D03*
X188750D02*
D03*
X239000Y26500D02*
D03*
X242750Y34500D02*
D03*
X235250D02*
D03*
X216500Y370000D02*
D03*
X212750Y362000D02*
D03*
X220250D02*
D03*
D24*
X156500Y154500D02*
D03*
X164500Y150750D02*
D03*
Y158250D02*
D03*
X159000Y248000D02*
D03*
X167000Y244250D02*
D03*
Y251750D02*
D03*
X156000Y204250D02*
D03*
Y196750D02*
D03*
X148000Y200500D02*
D03*
X166000Y275250D02*
D03*
Y267750D02*
D03*
X158000Y271500D02*
D03*
X222000Y296750D02*
D03*
Y289250D02*
D03*
X214000Y293000D02*
D03*
D25*
X145250Y374560D02*
D03*
Y365500D02*
D03*
Y356440D02*
D03*
D26*
X169750Y365560D02*
D03*
D27*
X125779Y329500D02*
D03*
X148221D02*
D03*
D30*
X196240Y43000D02*
D03*
X188760D02*
D03*
X210740Y35000D02*
D03*
X203260D02*
D03*
X364760Y186500D02*
D03*
X372240D02*
D03*
X192760Y20000D02*
D03*
X200240D02*
D03*
X235260Y42500D02*
D03*
X242740D02*
D03*
X257740Y34500D02*
D03*
X250260D02*
D03*
X239260Y20000D02*
D03*
X246740D02*
D03*
X220240Y354000D02*
D03*
X212760D02*
D03*
X114260Y374000D02*
D03*
X121740D02*
D03*
X232760Y267500D02*
D03*
X240240D02*
D03*
X121760Y365500D02*
D03*
X129240D02*
D03*
X169740Y196500D02*
D03*
X162260D02*
D03*
X180240Y267500D02*
D03*
X172760D02*
D03*
X184260Y298000D02*
D03*
X191740D02*
D03*
X252760Y251000D02*
D03*
X260240D02*
D03*
X94240Y81000D02*
D03*
X86760D02*
D03*
Y91000D02*
D03*
X94240D02*
D03*
D31*
X282000Y263240D02*
D03*
Y255760D02*
D03*
X292000Y266740D02*
D03*
Y259260D02*
D03*
X179000Y330760D02*
D03*
Y338240D02*
D03*
X302000Y255760D02*
D03*
Y263240D02*
D03*
X320000Y255760D02*
D03*
Y263240D02*
D03*
X196500Y330760D02*
D03*
Y338240D02*
D03*
X173000Y150760D02*
D03*
Y158240D02*
D03*
X174500Y244260D02*
D03*
Y251740D02*
D03*
X205000Y298260D02*
D03*
Y305740D02*
D03*
X188000Y338240D02*
D03*
Y330760D02*
D03*
X249500Y361240D02*
D03*
Y353760D02*
D03*
X240000Y361240D02*
D03*
Y353760D02*
D03*
X229500Y361240D02*
D03*
Y353760D02*
D03*
X122000Y356240D02*
D03*
Y348760D02*
D03*
X205000Y283260D02*
D03*
Y290740D02*
D03*
D32*
X73000Y321634D02*
D03*
Y363366D02*
D03*
D33*
X211500Y25216D02*
D03*
Y19783D02*
D03*
X257500Y20283D02*
D03*
Y25717D02*
D03*
D34*
X238216Y251000D02*
D03*
X232784D02*
D03*
X170217Y204500D02*
D03*
X164784D02*
D03*
X180217Y275500D02*
D03*
X174784D02*
D03*
D35*
X293800Y337600D02*
D03*
X301100D02*
D03*
X286500Y330400D02*
D03*
X293800D02*
D03*
X301100D02*
D03*
X286500Y323200D02*
D03*
X293800D02*
D03*
X301100D02*
D03*
X286500Y337600D02*
D03*
D36*
X20500Y93500D02*
D03*
Y73500D02*
D03*
Y113500D02*
D03*
X20800Y53700D02*
D03*
X20000Y198500D02*
D03*
Y178500D02*
D03*
Y158500D02*
D03*
X19600Y242500D02*
D03*
Y262500D02*
D03*
Y282500D02*
D03*
Y302500D02*
D03*
Y322500D02*
D03*
D37*
X146500Y30710D02*
D03*
Y119290D02*
D03*
D38*
X20000Y369000D02*
D03*
Y19600D02*
D03*
X360000Y20000D02*
D03*
Y369000D02*
D03*
D39*
X124000Y154000D02*
D03*
X75970D02*
D03*
X124000Y201240D02*
D03*
X75970D02*
D03*
X131990Y177620D02*
D03*
X124500Y242500D02*
D03*
X76470D02*
D03*
X124500Y289740D02*
D03*
X76470D02*
D03*
X132490Y266120D02*
D03*
D40*
X279996Y203209D02*
D03*
X199287D02*
D03*
X261296Y70925D02*
D03*
X237673D02*
D03*
X248500Y222500D02*
D03*
X279996Y70925D02*
D03*
Y222500D02*
D03*
D41*
X298500Y40800D02*
D03*
X308500D02*
D03*
X318500D02*
D03*
X298500Y17200D02*
D03*
X308500D02*
D03*
X318500D02*
D03*
D42*
X323700Y196500D02*
D03*
Y206500D02*
D03*
Y216500D02*
D03*
Y186500D02*
D03*
Y176500D02*
D03*
X347300D02*
D03*
Y186500D02*
D03*
Y196500D02*
D03*
Y206500D02*
D03*
Y216500D02*
D03*
D43*
X98500Y20500D02*
D03*
X83500D02*
D03*
X68500D02*
D03*
D44*
X355000Y107000D02*
D03*
X345000D02*
D03*
Y69000D02*
D03*
X355000D02*
D03*
D45*
X62500Y89000D02*
D03*
D46*
X127000Y192000D02*
D03*
X130000Y165500D02*
D03*
D47*
X186000Y136000D02*
D03*
D48*
X122000Y120000D02*
D03*
D49*
X145500Y179500D02*
D03*
D50*
X110500Y146500D02*
D03*
X91500Y289500D02*
D03*
X146500Y266000D02*
D03*
D51*
X119000Y282500D02*
D03*
X112500Y251000D02*
D03*
Y227000D02*
D03*
D52*
X249562Y281494D02*
D03*
Y299994D02*
D03*
X249500Y330000D02*
D03*
X237400Y300400D02*
D03*
X332000Y269000D02*
D03*
X36000Y120800D02*
D03*
Y114100D02*
D03*
Y99600D02*
D03*
Y92900D02*
D03*
Y106800D02*
D03*
Y128000D02*
D03*
X36500Y69800D02*
D03*
Y62500D02*
D03*
Y55300D02*
D03*
Y76500D02*
D03*
Y48600D02*
D03*
X229000Y157500D02*
D03*
X230207Y293193D02*
D03*
X34500Y176500D02*
D03*
X46500Y228500D02*
D03*
X36000Y261500D02*
D03*
X331000Y56500D02*
D03*
Y89000D02*
D03*
Y121500D02*
D03*
X303514Y231300D02*
D03*
X49300Y281500D02*
D03*
X62200Y281400D02*
D03*
X214100Y43600D02*
D03*
X371500Y57000D02*
D03*
Y116000D02*
D03*
Y83500D02*
D03*
X238900Y144500D02*
D03*
X265700Y145500D02*
D03*
X265500Y165900D02*
D03*
X265100Y184600D02*
D03*
Y203500D02*
D03*
X238600Y184400D02*
D03*
X238700Y203300D02*
D03*
X203500Y165900D02*
D03*
Y184800D02*
D03*
X348900Y307100D02*
D03*
X370800Y298100D02*
D03*
X368100Y326000D02*
D03*
X368800Y342700D02*
D03*
X351300Y327300D02*
D03*
X350700Y342200D02*
D03*
X349500Y285600D02*
D03*
X354200Y243800D02*
D03*
X343100Y243500D02*
D03*
X330700D02*
D03*
X273800Y244500D02*
D03*
X270200Y258000D02*
D03*
X232500Y280800D02*
D03*
X247300Y382000D02*
D03*
X235300Y374700D02*
D03*
X222700Y380900D02*
D03*
X196000Y376700D02*
D03*
X201600Y362400D02*
D03*
X190500Y363100D02*
D03*
X195900Y305700D02*
D03*
X197400Y290100D02*
D03*
X198300Y266400D02*
D03*
X203200Y244100D02*
D03*
X222300Y246500D02*
D03*
X222200Y269100D02*
D03*
X36000Y281600D02*
D03*
X112600Y270300D02*
D03*
X98800Y261400D02*
D03*
X77200Y261700D02*
D03*
X57300D02*
D03*
X62800Y233900D02*
D03*
X33500Y234600D02*
D03*
X92200Y204100D02*
D03*
X52200Y204500D02*
D03*
X35100Y204300D02*
D03*
X90300Y151800D02*
D03*
X57200Y152200D02*
D03*
X37100D02*
D03*
X61300Y177500D02*
D03*
X100900D02*
D03*
X81100D02*
D03*
X222000Y35000D02*
D03*
X57000Y324000D02*
D03*
X186264Y158150D02*
D03*
D53*
X240414Y314600D02*
D03*
X215014Y322400D02*
D03*
X214514Y309900D02*
D03*
X279600Y353300D02*
D03*
X361514Y264400D02*
D03*
X320100Y338800D02*
D03*
X316200Y275400D02*
D03*
X264000Y276000D02*
D03*
X307300Y309600D02*
D03*
X297514Y302900D02*
D03*
X312000Y265000D02*
D03*
X292000Y276563D02*
D03*
X301822Y147322D02*
D03*
X293000Y151500D02*
D03*
X318500Y142500D02*
D03*
X372250Y275250D02*
D03*
X362500Y196500D02*
D03*
X296514Y164000D02*
D03*
X310500D02*
D03*
X309000Y254963D02*
D03*
X210100Y345500D02*
D03*
X310100Y153500D02*
D03*
X302014Y276400D02*
D03*
X249500Y369600D02*
D03*
X214514Y159400D02*
D03*
X178014Y141400D02*
D03*
X286014Y244400D02*
D03*
X332514Y147900D02*
D03*
X196514Y323400D02*
D03*
X228014Y345400D02*
D03*
X172514Y349400D02*
D03*
X160014Y348900D02*
D03*
X187414Y243900D02*
D03*
M02*
