G04*
G04 #@! TF.GenerationSoftware,Altium Limited,Altium Designer,21.0.8 (223)*
G04*
G04 Layer_Color=255*
%FSLAX25Y25*%
%MOIN*%
G70*
G04*
G04 #@! TF.SameCoordinates,7AAE0E32-72D2-4A0B-9A69-79E54AD05685*
G04*
G04*
G04 #@! TF.FilePolarity,Positive*
G04*
G01*
G75*
%ADD19R,0.03900X0.08000*%
%ADD20R,0.08000X0.03900*%
%ADD21R,0.08000X0.04000*%
%ADD39R,0.06000X0.06000*%
%ADD42R,0.30000X0.30000*%
%ADD43R,0.27500X0.27500*%
%ADD44R,0.08000X0.08000*%
%ADD45C,0.08000*%
%ADD46C,0.06000*%
%ADD52R,0.03000X0.04000*%
%ADD53R,0.08000X0.15000*%
%ADD54R,0.08000X0.06000*%
%ADD55R,0.05910X0.03030*%
%ADD56R,0.17717X0.07480*%
G04:AMPARAMS|DCode=57|XSize=27.56mil|YSize=49.21mil|CornerRadius=6.89mil|HoleSize=0mil|Usage=FLASHONLY|Rotation=0.000|XOffset=0mil|YOffset=0mil|HoleType=Round|Shape=RoundedRectangle|*
%AMROUNDEDRECTD57*
21,1,0.02756,0.03543,0,0,0.0*
21,1,0.01378,0.04921,0,0,0.0*
1,1,0.01378,0.00689,-0.01772*
1,1,0.01378,-0.00689,-0.01772*
1,1,0.01378,-0.00689,0.01772*
1,1,0.01378,0.00689,0.01772*
%
%ADD57ROUNDEDRECTD57*%
%ADD58R,0.13583X0.03543*%
%ADD59R,0.04000X0.15000*%
%ADD60R,0.15000X0.04000*%
%ADD61R,0.06000X0.08000*%
G04:AMPARAMS|DCode=62|XSize=27.56mil|YSize=49.21mil|CornerRadius=6.89mil|HoleSize=0mil|Usage=FLASHONLY|Rotation=270.000|XOffset=0mil|YOffset=0mil|HoleType=Round|Shape=RoundedRectangle|*
%AMROUNDEDRECTD62*
21,1,0.02756,0.03543,0,0,270.0*
21,1,0.01378,0.04921,0,0,270.0*
1,1,0.01378,-0.01772,-0.00689*
1,1,0.01378,-0.01772,0.00689*
1,1,0.01378,0.01772,0.00689*
1,1,0.01378,0.01772,-0.00689*
%
%ADD62ROUNDEDRECTD62*%
%ADD63R,0.04000X0.02854*%
%ADD64R,0.04000X0.03000*%
%ADD65R,0.02854X0.04000*%
%ADD90C,0.10000*%
%ADD91R,0.09000X0.09000*%
%ADD92C,0.09000*%
%ADD93R,0.08000X0.08000*%
%ADD94R,0.10000X0.10000*%
%ADD95R,0.11811X0.11811*%
%ADD96C,0.11811*%
D19*
X319965Y275563D02*
D03*
X279965D02*
D03*
X274965D02*
D03*
X314965D02*
D03*
X309965D02*
D03*
X304965D02*
D03*
X299965D02*
D03*
X294965Y275600D02*
D03*
X289965Y275563D02*
D03*
X284965D02*
D03*
D20*
X330929Y279500D02*
D03*
Y284500D02*
D03*
Y289579D02*
D03*
Y294500D02*
D03*
Y299500D02*
D03*
Y304500D02*
D03*
Y309500D02*
D03*
Y314500D02*
D03*
Y319500D02*
D03*
Y329500D02*
D03*
Y334500D02*
D03*
Y339500D02*
D03*
Y344500D02*
D03*
X264000D02*
D03*
Y339500D02*
D03*
Y334500D02*
D03*
Y329500D02*
D03*
Y324500D02*
D03*
Y319500D02*
D03*
Y314500D02*
D03*
Y309500D02*
D03*
Y304500D02*
D03*
Y299500D02*
D03*
Y294500D02*
D03*
Y289500D02*
D03*
Y284500D02*
D03*
Y279500D02*
D03*
D21*
X330929Y324500D02*
D03*
D39*
X286500Y322100D02*
D03*
X301100Y307700D02*
D03*
X293800D02*
D03*
X286500D02*
D03*
X301100Y314900D02*
D03*
X293800D02*
D03*
X286500D02*
D03*
X301100Y322100D02*
D03*
X293800D02*
D03*
D42*
X355000Y17500D02*
D03*
X17500D02*
D03*
Y337500D02*
D03*
D43*
X355000D02*
D03*
D44*
X330000Y219500D02*
D03*
D45*
X280000Y205283D02*
D03*
X199291D02*
D03*
X261300Y73000D02*
D03*
X248504Y224575D02*
D03*
X280000Y73000D02*
D03*
Y224575D02*
D03*
X294000Y24000D02*
D03*
Y34000D02*
D03*
X304000Y24000D02*
D03*
Y34000D02*
D03*
X314000Y24000D02*
D03*
X340000Y219500D02*
D03*
X330000Y209500D02*
D03*
X340000D02*
D03*
X330000Y199500D02*
D03*
X340000D02*
D03*
X330000Y189500D02*
D03*
X340000D02*
D03*
X330000Y179500D02*
D03*
X340000D02*
D03*
D46*
X332000Y113000D02*
D03*
X322000D02*
D03*
Y83000D02*
D03*
X332000D02*
D03*
D52*
X203250Y38000D02*
D03*
X210750D02*
D03*
X207000Y30000D02*
D03*
X234750Y37500D02*
D03*
X242250D02*
D03*
X238500Y29500D02*
D03*
D53*
X202750Y322060D02*
D03*
D54*
X178250Y312940D02*
D03*
Y322000D02*
D03*
Y331060D02*
D03*
D55*
X79000Y94000D02*
D03*
Y89000D02*
D03*
Y84000D02*
D03*
Y79000D02*
D03*
X56000D02*
D03*
Y84000D02*
D03*
Y89000D02*
D03*
Y94000D02*
D03*
D56*
X190500Y286900D02*
D03*
Y299100D02*
D03*
D57*
X203260Y46000D02*
D03*
X210740D02*
D03*
X92260Y94000D02*
D03*
X99740D02*
D03*
Y84000D02*
D03*
X92260D02*
D03*
X207760Y262000D02*
D03*
X215240D02*
D03*
X256240Y244500D02*
D03*
X248760D02*
D03*
X157260Y313000D02*
D03*
X164740D02*
D03*
X220760Y317000D02*
D03*
X228240D02*
D03*
X228740Y306500D02*
D03*
X221260D02*
D03*
Y296500D02*
D03*
X228740D02*
D03*
X75240Y318000D02*
D03*
X67760D02*
D03*
X172260Y270500D02*
D03*
X179740D02*
D03*
X169760Y193500D02*
D03*
X177240D02*
D03*
X238240Y270500D02*
D03*
X230760D02*
D03*
X244240Y317000D02*
D03*
X236760D02*
D03*
X238760Y23000D02*
D03*
X246240D02*
D03*
X249760Y37500D02*
D03*
X257240D02*
D03*
X243760Y287500D02*
D03*
X251240D02*
D03*
X234760Y45500D02*
D03*
X242240D02*
D03*
X243760Y279500D02*
D03*
X251240D02*
D03*
X207260Y23000D02*
D03*
X214740D02*
D03*
X335240Y145000D02*
D03*
X327760D02*
D03*
X217760Y38000D02*
D03*
X225240D02*
D03*
D58*
X110780Y327000D02*
D03*
X133221D02*
D03*
D59*
X294000Y16000D02*
D03*
X304000D02*
D03*
X314000D02*
D03*
X294000Y42000D02*
D03*
X304000D02*
D03*
X314000D02*
D03*
D60*
X322000Y219500D02*
D03*
Y209500D02*
D03*
Y199500D02*
D03*
Y189500D02*
D03*
Y179500D02*
D03*
X348000Y219500D02*
D03*
Y209500D02*
D03*
Y199500D02*
D03*
Y189500D02*
D03*
Y179500D02*
D03*
D61*
X332000Y117500D02*
D03*
X322000D02*
D03*
Y78500D02*
D03*
X332000D02*
D03*
D62*
X168500Y215760D02*
D03*
Y223240D02*
D03*
X207500Y277260D02*
D03*
Y284740D02*
D03*
X174000Y254740D02*
D03*
Y247260D02*
D03*
X176000Y171240D02*
D03*
Y163760D02*
D03*
X162500Y330740D02*
D03*
Y323260D02*
D03*
X154000D02*
D03*
Y330740D02*
D03*
X177500Y215760D02*
D03*
Y223240D02*
D03*
X329500Y263740D02*
D03*
Y256260D02*
D03*
X160000Y223240D02*
D03*
Y215760D02*
D03*
X280000Y256260D02*
D03*
Y263740D02*
D03*
D63*
X223000Y17284D02*
D03*
Y22716D02*
D03*
X231000Y250217D02*
D03*
Y244783D02*
D03*
X262000Y28216D02*
D03*
Y22783D02*
D03*
D64*
X223500Y280750D02*
D03*
Y273250D02*
D03*
X215500Y277000D02*
D03*
X165500Y278250D02*
D03*
Y270750D02*
D03*
X157500Y274500D02*
D03*
X163500Y201250D02*
D03*
Y193750D02*
D03*
X155500Y197500D02*
D03*
X236500Y326750D02*
D03*
Y334250D02*
D03*
X244500Y330500D02*
D03*
X165500Y254750D02*
D03*
Y247250D02*
D03*
X157500Y251000D02*
D03*
X167500Y171250D02*
D03*
Y163750D02*
D03*
X159500Y167500D02*
D03*
D65*
X179783Y261500D02*
D03*
X185216D02*
D03*
X177216Y201500D02*
D03*
X171783D02*
D03*
D90*
X124000Y245500D02*
D03*
X75970D02*
D03*
X124000Y292740D02*
D03*
X75970D02*
D03*
X131990Y269120D02*
D03*
X131490Y180620D02*
D03*
X75470Y204240D02*
D03*
X123500D02*
D03*
X75470Y157000D02*
D03*
X123500D02*
D03*
X136000Y130790D02*
D03*
Y42210D02*
D03*
X20600Y302500D02*
D03*
Y282500D02*
D03*
Y262500D02*
D03*
Y242500D02*
D03*
X21000Y187000D02*
D03*
Y167000D02*
D03*
D91*
X98000Y20000D02*
D03*
D92*
X83000D02*
D03*
X68000D02*
D03*
D93*
X237677Y73000D02*
D03*
X314000Y34000D02*
D03*
D94*
X20600Y222500D02*
D03*
X21000Y147000D02*
D03*
D95*
X21300Y52200D02*
D03*
D96*
X21000Y112000D02*
D03*
Y72000D02*
D03*
Y92000D02*
D03*
M02*
