G04*
G04 #@! TF.GenerationSoftware,Altium Limited,Altium Designer,21.0.8 (223)*
G04*
G04 Layer_Color=65535*
%FSLAX25Y25*%
%MOIN*%
G70*
G04*
G04 #@! TF.SameCoordinates,7AAE0E32-72D2-4A0B-9A69-79E54AD05685*
G04*
G04*
G04 #@! TF.FilePolarity,Positive*
G04*
G01*
G75*
%ADD10C,0.00787*%
%ADD11C,0.01000*%
%ADD12C,0.00984*%
%ADD13C,0.00500*%
%ADD14C,0.00790*%
%ADD15C,0.00394*%
%ADD16C,0.00050*%
%ADD17C,0.01190*%
%ADD18C,0.00300*%
G36*
X355068Y150154D02*
X356170D01*
Y150069D01*
X356848D01*
Y149984D01*
X357356D01*
Y149899D01*
X357864D01*
Y149814D01*
X358204D01*
Y149730D01*
X358458D01*
Y149645D01*
X358797D01*
Y149560D01*
X359051D01*
Y149476D01*
X359221D01*
Y149391D01*
X359136D01*
Y149306D01*
X359051D01*
Y149221D01*
X358966D01*
Y149136D01*
X358881D01*
Y149052D01*
X358712D01*
Y149136D01*
X358373D01*
Y149221D01*
X358034D01*
Y149306D01*
X357695D01*
Y149391D01*
X357356D01*
Y149476D01*
X356932D01*
Y149560D01*
X356424D01*
Y149645D01*
X355576D01*
Y149730D01*
X353034D01*
Y149645D01*
X352271D01*
Y149560D01*
X351763D01*
Y149476D01*
X351254D01*
Y149391D01*
X350915D01*
Y149306D01*
X350576D01*
Y149221D01*
X350237D01*
Y149136D01*
X349983D01*
Y149052D01*
X349644D01*
Y148967D01*
X349390D01*
Y148882D01*
X349135D01*
Y148798D01*
X348966D01*
Y148713D01*
X348711D01*
Y148628D01*
X348542D01*
Y148543D01*
X348288D01*
Y148459D01*
X348118D01*
Y148374D01*
X347949D01*
Y148289D01*
X347779D01*
Y148204D01*
X347610D01*
Y148119D01*
X347440D01*
Y148035D01*
X347271D01*
Y147950D01*
X347101D01*
Y147865D01*
X346932D01*
Y147781D01*
X346762D01*
Y147696D01*
X346593D01*
Y147611D01*
X346508D01*
Y147526D01*
X346339D01*
Y147441D01*
X346169D01*
Y147357D01*
X346084D01*
Y147272D01*
X345915D01*
Y147187D01*
X345830D01*
Y147102D01*
X345660D01*
Y147018D01*
X345576D01*
Y146933D01*
X345406D01*
Y146848D01*
X345321D01*
Y146764D01*
X345237D01*
Y146679D01*
X345152D01*
Y146594D01*
X344983D01*
Y146509D01*
X344898D01*
Y146424D01*
X344813D01*
Y146340D01*
X344643D01*
Y146255D01*
X344559D01*
Y146170D01*
X344474D01*
Y146086D01*
X344389D01*
Y146001D01*
X344304D01*
Y145916D01*
X344220D01*
Y145831D01*
X344050D01*
Y145747D01*
X343966D01*
Y145662D01*
X343881D01*
Y145577D01*
X343796D01*
Y145492D01*
X343711D01*
Y145407D01*
X343626D01*
Y145323D01*
X343542D01*
Y145238D01*
X343457D01*
Y145153D01*
X343372D01*
Y145069D01*
X343287D01*
Y144984D01*
X343203D01*
Y144899D01*
X343118D01*
Y144814D01*
X343033D01*
Y144729D01*
Y144645D01*
X342949D01*
Y144560D01*
X342864D01*
Y144475D01*
X342779D01*
Y144390D01*
X342694D01*
Y144306D01*
X342610D01*
Y144221D01*
X342525D01*
Y144136D01*
Y144052D01*
X342440D01*
Y143967D01*
X342355D01*
Y143882D01*
X342270D01*
Y143797D01*
X342186D01*
Y143712D01*
Y143628D01*
X342101D01*
Y143543D01*
X342016D01*
Y143458D01*
X341932D01*
Y143374D01*
Y143289D01*
X341847D01*
Y143204D01*
X341762D01*
Y143119D01*
Y143035D01*
X341677D01*
Y142950D01*
X341593D01*
Y142865D01*
Y142780D01*
X341508D01*
Y142695D01*
X341423D01*
Y142611D01*
Y142526D01*
X341338D01*
Y142441D01*
Y142357D01*
X341253D01*
Y142272D01*
X341169D01*
Y142187D01*
Y142102D01*
X341084D01*
Y142017D01*
Y141933D01*
X340999D01*
Y141848D01*
X340915D01*
Y141763D01*
Y141679D01*
X340830D01*
Y141594D01*
Y141509D01*
X340745D01*
Y141424D01*
Y141340D01*
X340660D01*
Y141255D01*
Y141170D01*
X340576D01*
Y141085D01*
Y141000D01*
X340491D01*
Y140916D01*
Y140831D01*
X340406D01*
Y140746D01*
Y140662D01*
Y140577D01*
X340321D01*
Y140492D01*
Y140407D01*
X340236D01*
Y140322D01*
Y140238D01*
Y140153D01*
X340152D01*
Y140068D01*
Y139983D01*
X340067D01*
Y139899D01*
Y139814D01*
Y139729D01*
X339982D01*
Y139645D01*
Y139560D01*
Y139475D01*
X339897D01*
Y139390D01*
Y139305D01*
Y139221D01*
X339813D01*
Y139136D01*
Y139051D01*
Y138967D01*
X339728D01*
Y138882D01*
Y138797D01*
Y138712D01*
Y138628D01*
X339643D01*
Y138543D01*
Y138458D01*
Y138373D01*
X339559D01*
Y138288D01*
Y138204D01*
Y138119D01*
Y138034D01*
X339474D01*
Y137950D01*
Y137865D01*
Y137780D01*
Y137695D01*
Y137610D01*
X339389D01*
Y137526D01*
Y137441D01*
Y137356D01*
Y137271D01*
Y137187D01*
X339304D01*
Y137102D01*
Y137017D01*
Y136933D01*
Y136848D01*
Y136763D01*
Y136678D01*
X339219D01*
Y136593D01*
Y136509D01*
Y136424D01*
Y136339D01*
Y136255D01*
Y136170D01*
Y136085D01*
Y136000D01*
Y135916D01*
X339135D01*
Y135831D01*
Y135746D01*
Y135661D01*
Y135576D01*
Y135492D01*
Y135407D01*
Y135322D01*
Y135238D01*
Y135153D01*
Y135068D01*
Y134983D01*
Y134898D01*
Y134814D01*
Y134729D01*
Y134644D01*
Y134560D01*
Y134475D01*
Y134390D01*
Y134305D01*
Y134221D01*
Y134136D01*
Y134051D01*
Y133966D01*
Y133881D01*
Y133797D01*
Y133712D01*
Y133627D01*
Y133543D01*
Y133458D01*
Y133373D01*
Y133288D01*
X339219D01*
Y133203D01*
Y133119D01*
Y133034D01*
Y132949D01*
Y132864D01*
Y132780D01*
Y132695D01*
Y132610D01*
Y132526D01*
Y132441D01*
X339304D01*
Y132356D01*
Y132271D01*
Y132186D01*
Y132102D01*
Y132017D01*
Y131932D01*
X339389D01*
Y131848D01*
Y131763D01*
Y131678D01*
Y131593D01*
Y131509D01*
X339474D01*
Y131424D01*
Y131339D01*
Y131254D01*
Y131169D01*
X339559D01*
Y131085D01*
Y131000D01*
Y130915D01*
Y130831D01*
Y130746D01*
X339643D01*
Y130661D01*
Y130576D01*
Y130491D01*
X339728D01*
Y130407D01*
Y130322D01*
Y130237D01*
Y130152D01*
X339813D01*
Y130068D01*
Y129983D01*
Y129898D01*
X339897D01*
Y129814D01*
Y129729D01*
Y129644D01*
X339982D01*
Y129559D01*
Y129474D01*
Y129390D01*
X340067D01*
Y129305D01*
Y129220D01*
Y129136D01*
X340152D01*
Y129051D01*
Y128966D01*
X340236D01*
Y128881D01*
Y128797D01*
Y128712D01*
X340321D01*
Y128627D01*
Y128542D01*
X340406D01*
Y128457D01*
Y128373D01*
X340491D01*
Y128288D01*
Y128203D01*
X340576D01*
Y128119D01*
Y128034D01*
X340660D01*
Y127949D01*
Y127864D01*
X340745D01*
Y127779D01*
Y127695D01*
Y127610D01*
X340830D01*
Y127525D01*
X340915D01*
Y127441D01*
Y127356D01*
X340999D01*
Y127271D01*
Y127186D01*
X341084D01*
Y127102D01*
Y127017D01*
X341169D01*
Y126932D01*
Y126847D01*
X341253D01*
Y126762D01*
X341338D01*
Y126678D01*
Y126593D01*
X341423D01*
Y126508D01*
Y126424D01*
X341508D01*
Y126339D01*
X341593D01*
Y126254D01*
Y126169D01*
X341677D01*
Y126084D01*
X341762D01*
Y126000D01*
X341847D01*
Y125915D01*
Y125830D01*
X341932D01*
Y125745D01*
X342016D01*
Y125661D01*
Y125576D01*
X342101D01*
Y125491D01*
X342186D01*
Y125407D01*
Y125322D01*
X342270D01*
Y125237D01*
X342355D01*
Y125152D01*
X342440D01*
Y125067D01*
X342525D01*
Y124983D01*
Y124898D01*
X342610D01*
Y124813D01*
X342694D01*
Y124729D01*
X342779D01*
Y124644D01*
X342864D01*
Y124559D01*
X342949D01*
Y124474D01*
X343033D01*
Y124390D01*
X343118D01*
Y124305D01*
Y124220D01*
X343287D01*
Y124135D01*
Y124050D01*
X343372D01*
Y123966D01*
X343542D01*
Y123881D01*
Y123796D01*
X343626D01*
Y123712D01*
X343711D01*
Y123627D01*
X343796D01*
Y123542D01*
X343966D01*
Y123457D01*
X344050D01*
Y123372D01*
X344135D01*
Y123288D01*
X344220D01*
Y123203D01*
X344304D01*
Y123118D01*
X344389D01*
Y123033D01*
X344474D01*
Y122949D01*
X344559D01*
Y122864D01*
X344728D01*
Y122779D01*
X344813D01*
Y122695D01*
X344898D01*
Y122610D01*
X344983D01*
Y122525D01*
X345152D01*
Y122440D01*
X345237D01*
Y122355D01*
X345321D01*
Y122271D01*
X345491D01*
Y122186D01*
X345576D01*
Y122101D01*
X345745D01*
Y122017D01*
X345830D01*
Y121932D01*
X346000D01*
Y121847D01*
X346084D01*
Y121762D01*
X346254D01*
Y121677D01*
X346339D01*
Y121593D01*
X346508D01*
Y121508D01*
X346677D01*
Y121423D01*
X346762D01*
Y121338D01*
X346932D01*
Y121254D01*
X347101D01*
Y121169D01*
X347271D01*
Y121084D01*
X347440D01*
Y121000D01*
X347610D01*
Y120915D01*
X347779D01*
Y120830D01*
X347949D01*
Y120745D01*
X348118D01*
Y120660D01*
X348288D01*
Y120576D01*
X348542D01*
Y120491D01*
X348796D01*
Y120406D01*
X348966D01*
Y120322D01*
X349220D01*
Y120237D01*
X349474D01*
Y120152D01*
X349728D01*
Y120067D01*
X349983D01*
Y119983D01*
X350322D01*
Y119898D01*
X350576D01*
Y119813D01*
X351000D01*
Y119728D01*
X351339D01*
Y119643D01*
X351847D01*
Y119559D01*
X352356D01*
Y119474D01*
X353288D01*
Y119389D01*
X355322D01*
Y119474D01*
X356254D01*
Y119559D01*
X356763D01*
Y119643D01*
X357271D01*
Y119728D01*
X357695D01*
Y119813D01*
X358034D01*
Y119898D01*
X358288D01*
Y119983D01*
X358627D01*
Y120067D01*
X358881D01*
Y120152D01*
X359221D01*
Y120237D01*
X359390D01*
Y120322D01*
X359644D01*
Y120406D01*
X359898D01*
Y120491D01*
X360068D01*
Y120576D01*
X360322D01*
Y120660D01*
X360492D01*
Y120745D01*
X360661D01*
Y120830D01*
X360915D01*
Y120915D01*
X361000D01*
Y121000D01*
X361170D01*
Y121084D01*
X361339D01*
Y121169D01*
X361509D01*
Y121254D01*
X361678D01*
Y121338D01*
X361848D01*
Y121423D01*
X362017D01*
Y121508D01*
X362102D01*
Y121593D01*
X362271D01*
Y121677D01*
X362441D01*
Y121762D01*
X362526D01*
Y121847D01*
X362695D01*
Y121932D01*
X362780D01*
Y122017D01*
X362949D01*
Y122101D01*
X363034D01*
Y122186D01*
X363204D01*
Y122271D01*
X363288D01*
Y122355D01*
X363373D01*
Y122440D01*
X363543D01*
Y122525D01*
X363628D01*
Y122610D01*
X363712D01*
Y122695D01*
X363797D01*
Y122779D01*
X363966D01*
Y122864D01*
X364051D01*
Y122949D01*
X364136D01*
Y123033D01*
X364221D01*
Y123118D01*
X364305D01*
Y123203D01*
X364475D01*
Y123288D01*
X364560D01*
Y123372D01*
X364645D01*
Y123457D01*
X364729D01*
Y123542D01*
X364814D01*
Y123627D01*
X364899D01*
Y123712D01*
X364984D01*
Y123796D01*
X365068D01*
Y123881D01*
X365153D01*
Y123966D01*
X365238D01*
Y124050D01*
X365322D01*
Y124135D01*
X365407D01*
Y124220D01*
X365492D01*
Y124305D01*
X365577D01*
Y124390D01*
X365662D01*
Y124474D01*
X365746D01*
Y124559D01*
X365831D01*
Y124644D01*
Y124729D01*
X365916D01*
Y124813D01*
X366001D01*
Y124898D01*
X366085D01*
Y124983D01*
X366170D01*
Y125067D01*
Y125152D01*
X366255D01*
Y125237D01*
X366339D01*
Y125322D01*
X366424D01*
Y125407D01*
X366509D01*
Y125491D01*
Y125576D01*
X366594D01*
Y125661D01*
X366679D01*
Y125745D01*
X366763D01*
Y125830D01*
Y125915D01*
X366848D01*
Y126000D01*
X366933D01*
Y126084D01*
Y126169D01*
X367018D01*
Y126254D01*
X367102D01*
Y126339D01*
Y126424D01*
X367187D01*
Y126508D01*
X367272D01*
Y126593D01*
Y126678D01*
X367356D01*
Y126762D01*
Y126847D01*
X367441D01*
Y126932D01*
X367526D01*
Y127017D01*
Y127102D01*
X367611D01*
Y127186D01*
Y127271D01*
X367695D01*
Y127356D01*
Y127441D01*
X367780D01*
Y127525D01*
Y127610D01*
X367865D01*
Y127695D01*
Y127779D01*
X367950D01*
Y127864D01*
Y127949D01*
X368035D01*
Y128034D01*
Y128119D01*
X368119D01*
Y128203D01*
Y128288D01*
X368204D01*
Y128373D01*
Y128457D01*
X368289D01*
Y128542D01*
Y128627D01*
Y128712D01*
X368373D01*
Y128797D01*
Y128881D01*
X368458D01*
Y128966D01*
Y129051D01*
X368543D01*
Y129136D01*
Y129220D01*
Y129305D01*
X368628D01*
Y129390D01*
Y129474D01*
Y129559D01*
X368712D01*
Y129644D01*
Y129729D01*
Y129814D01*
X368797D01*
Y129898D01*
Y129983D01*
Y130068D01*
X368882D01*
Y130152D01*
Y130237D01*
Y130322D01*
X368967D01*
Y130407D01*
Y130491D01*
Y130576D01*
Y130661D01*
X369052D01*
Y130746D01*
Y130831D01*
Y130915D01*
Y131000D01*
X369136D01*
Y131085D01*
Y131169D01*
Y131254D01*
Y131339D01*
X369221D01*
Y131424D01*
Y131509D01*
Y131593D01*
Y131678D01*
Y131763D01*
X369306D01*
Y131848D01*
Y131932D01*
Y132017D01*
Y132102D01*
Y132186D01*
Y132271D01*
X369391D01*
Y132356D01*
Y132441D01*
Y132526D01*
Y132610D01*
Y132695D01*
Y132780D01*
Y132864D01*
Y132949D01*
Y133034D01*
X369475D01*
Y133119D01*
Y133203D01*
Y133288D01*
Y133373D01*
Y133458D01*
Y133543D01*
Y133627D01*
Y133712D01*
Y133797D01*
Y133881D01*
Y133966D01*
Y134051D01*
Y134136D01*
Y134221D01*
Y134305D01*
Y134390D01*
X369560D01*
Y134475D01*
Y134560D01*
Y134644D01*
X369475D01*
Y134729D01*
Y134814D01*
Y134898D01*
Y134983D01*
Y135068D01*
Y135153D01*
Y135238D01*
Y135322D01*
Y135407D01*
Y135492D01*
Y135576D01*
Y135661D01*
Y135746D01*
Y135831D01*
Y135916D01*
Y136000D01*
Y136085D01*
Y136170D01*
X369391D01*
Y136255D01*
Y136339D01*
Y136424D01*
Y136509D01*
Y136593D01*
Y136678D01*
Y136763D01*
Y136848D01*
X369306D01*
Y136933D01*
Y137017D01*
Y137102D01*
Y137187D01*
Y137271D01*
Y137356D01*
X369221D01*
Y137441D01*
Y137526D01*
Y137610D01*
Y137695D01*
Y137780D01*
X369136D01*
Y137865D01*
Y137950D01*
Y138034D01*
Y138119D01*
X369052D01*
Y138204D01*
Y138288D01*
Y138373D01*
Y138458D01*
X368967D01*
Y138543D01*
Y138628D01*
Y138712D01*
Y138797D01*
X368882D01*
Y138882D01*
Y138967D01*
Y139051D01*
X368797D01*
Y139136D01*
Y139221D01*
Y139305D01*
X368712D01*
Y139390D01*
Y139475D01*
Y139560D01*
X368628D01*
Y139645D01*
Y139729D01*
Y139814D01*
X368543D01*
Y139899D01*
Y139983D01*
Y140068D01*
X368458D01*
Y140153D01*
Y140238D01*
X368373D01*
Y140322D01*
Y140407D01*
Y140492D01*
X368289D01*
Y140577D01*
Y140662D01*
X368204D01*
Y140746D01*
Y140831D01*
X368119D01*
Y140916D01*
Y141000D01*
X368035D01*
Y141085D01*
Y141170D01*
Y141255D01*
X367950D01*
Y141340D01*
X367865D01*
Y141424D01*
Y141509D01*
X367780D01*
Y141594D01*
Y141679D01*
X367695D01*
Y141763D01*
Y141848D01*
X367611D01*
Y141933D01*
Y142017D01*
X367526D01*
Y142102D01*
Y142187D01*
X367441D01*
Y142272D01*
X367356D01*
Y142357D01*
Y142441D01*
X367272D01*
Y142526D01*
Y142611D01*
X367187D01*
Y142695D01*
X367102D01*
Y142780D01*
Y142865D01*
X367018D01*
Y142950D01*
X366933D01*
Y143035D01*
Y143119D01*
X366848D01*
Y143204D01*
X366763D01*
Y143289D01*
Y143374D01*
X366679D01*
Y143458D01*
X366594D01*
Y143543D01*
Y143628D01*
X366509D01*
Y143712D01*
X366424D01*
Y143797D01*
X366339D01*
Y143882D01*
X366255D01*
Y143967D01*
Y144052D01*
X366170D01*
Y144136D01*
X366085D01*
Y144221D01*
X366001D01*
Y144306D01*
X365916D01*
Y144390D01*
Y144475D01*
X365831D01*
Y144560D01*
X365746D01*
Y144645D01*
X365662D01*
Y144729D01*
X365577D01*
Y144814D01*
X365492D01*
Y144899D01*
X365407D01*
Y144984D01*
X365322D01*
Y145069D01*
X365238D01*
Y145153D01*
X365153D01*
Y145238D01*
X365068D01*
Y145323D01*
X364984D01*
Y145407D01*
X364899D01*
Y145492D01*
X364814D01*
Y145577D01*
X364729D01*
Y145662D01*
X364645D01*
Y145747D01*
X364560D01*
Y145831D01*
X364475D01*
Y145916D01*
X364390D01*
Y146001D01*
X364221D01*
Y146086D01*
X364136D01*
Y146170D01*
X364051D01*
Y146255D01*
X363966D01*
Y146340D01*
X363882D01*
Y146424D01*
X363712D01*
Y146509D01*
X363628D01*
Y146594D01*
X363543D01*
Y146679D01*
X363458D01*
Y146764D01*
X363373D01*
Y146848D01*
X363288D01*
Y146933D01*
Y147018D01*
Y147102D01*
Y147187D01*
Y147272D01*
Y147357D01*
Y147441D01*
X363373D01*
Y147357D01*
X363543D01*
Y147272D01*
X363628D01*
Y147187D01*
X363712D01*
Y147102D01*
X363882D01*
Y147018D01*
X363966D01*
Y146933D01*
X364051D01*
Y146848D01*
X364136D01*
Y146764D01*
X364305D01*
Y146679D01*
X364390D01*
Y146594D01*
X364475D01*
Y146509D01*
X364560D01*
Y146424D01*
X364645D01*
Y146340D01*
X364729D01*
Y146255D01*
X364899D01*
Y146170D01*
X364984D01*
Y146086D01*
X365068D01*
Y146001D01*
X365153D01*
Y145916D01*
X365238D01*
Y145831D01*
X365322D01*
Y145747D01*
X365407D01*
Y145662D01*
X365492D01*
Y145577D01*
X365577D01*
Y145492D01*
X365662D01*
Y145407D01*
X365746D01*
Y145323D01*
X365831D01*
Y145238D01*
X365916D01*
Y145153D01*
X366001D01*
Y145069D01*
X366085D01*
Y144984D01*
Y144899D01*
X366170D01*
Y144814D01*
X366255D01*
Y144729D01*
X366339D01*
Y144645D01*
X366424D01*
Y144560D01*
X366509D01*
Y144475D01*
X366594D01*
Y144390D01*
Y144306D01*
X366679D01*
Y144221D01*
X366763D01*
Y144136D01*
X366848D01*
Y144052D01*
X366933D01*
Y143967D01*
Y143882D01*
X367018D01*
Y143797D01*
X367102D01*
Y143712D01*
X367187D01*
Y143628D01*
Y143543D01*
X367272D01*
Y143458D01*
X367356D01*
Y143374D01*
Y143289D01*
X367441D01*
Y143204D01*
X367526D01*
Y143119D01*
Y143035D01*
X367611D01*
Y142950D01*
Y142865D01*
X367695D01*
Y142780D01*
X367780D01*
Y142695D01*
Y142611D01*
X367865D01*
Y142526D01*
X367950D01*
Y142441D01*
Y142357D01*
X368035D01*
Y142272D01*
Y142187D01*
X368119D01*
Y142102D01*
Y142017D01*
X368204D01*
Y141933D01*
Y141848D01*
X368289D01*
Y141763D01*
Y141679D01*
X368373D01*
Y141594D01*
Y141509D01*
X368458D01*
Y141424D01*
X368543D01*
Y141340D01*
Y141255D01*
Y141170D01*
X368628D01*
Y141085D01*
Y141000D01*
X368712D01*
Y140916D01*
Y140831D01*
X368797D01*
Y140746D01*
Y140662D01*
X368882D01*
Y140577D01*
Y140492D01*
Y140407D01*
X368967D01*
Y140322D01*
Y140238D01*
X369052D01*
Y140153D01*
Y140068D01*
Y139983D01*
X369136D01*
Y139899D01*
Y139814D01*
Y139729D01*
X369221D01*
Y139645D01*
Y139560D01*
Y139475D01*
X369306D01*
Y139390D01*
Y139305D01*
Y139221D01*
Y139136D01*
X369391D01*
Y139051D01*
Y138967D01*
Y138882D01*
X369475D01*
Y138797D01*
Y138712D01*
Y138628D01*
X369560D01*
Y138543D01*
Y138458D01*
Y138373D01*
Y138288D01*
Y138204D01*
X369645D01*
Y138119D01*
Y138034D01*
Y137950D01*
Y137865D01*
Y137780D01*
X369729D01*
Y137695D01*
Y137610D01*
Y137526D01*
Y137441D01*
Y137356D01*
X369814D01*
Y137271D01*
Y137187D01*
Y137102D01*
Y137017D01*
Y136933D01*
Y136848D01*
Y136763D01*
X369899D01*
Y136678D01*
Y136593D01*
Y136509D01*
Y136424D01*
Y136339D01*
Y136255D01*
Y136170D01*
Y136085D01*
Y136000D01*
Y135916D01*
X369984D01*
Y135831D01*
Y135746D01*
Y135661D01*
Y135576D01*
Y135492D01*
Y135407D01*
Y135322D01*
Y135238D01*
Y135153D01*
Y135068D01*
Y134983D01*
Y134898D01*
Y134814D01*
Y134729D01*
Y134644D01*
Y134560D01*
Y134475D01*
Y134390D01*
Y134305D01*
Y134221D01*
Y134136D01*
Y134051D01*
Y133966D01*
Y133881D01*
Y133797D01*
Y133712D01*
Y133627D01*
Y133543D01*
Y133458D01*
Y133373D01*
Y133288D01*
Y133203D01*
X369899D01*
Y133119D01*
Y133034D01*
Y132949D01*
Y132864D01*
Y132780D01*
Y132695D01*
Y132610D01*
Y132526D01*
Y132441D01*
Y132356D01*
X369814D01*
Y132271D01*
Y132186D01*
Y132102D01*
Y132017D01*
Y131932D01*
Y131848D01*
Y131763D01*
X369729D01*
Y131678D01*
Y131593D01*
Y131509D01*
Y131424D01*
Y131339D01*
X369645D01*
Y131254D01*
Y131169D01*
Y131085D01*
Y131000D01*
Y130915D01*
X369560D01*
Y130831D01*
Y130746D01*
Y130661D01*
Y130576D01*
X369475D01*
Y130491D01*
Y130407D01*
Y130322D01*
X369391D01*
Y130237D01*
Y130152D01*
Y130068D01*
Y129983D01*
Y129898D01*
X369306D01*
Y129814D01*
Y129729D01*
Y129644D01*
X369221D01*
Y129559D01*
Y129474D01*
Y129390D01*
X369136D01*
Y129305D01*
Y129220D01*
X369052D01*
Y129136D01*
Y129051D01*
Y128966D01*
X368967D01*
Y128881D01*
Y128797D01*
Y128712D01*
X368882D01*
Y128627D01*
Y128542D01*
X368797D01*
Y128457D01*
Y128373D01*
Y128288D01*
X368712D01*
Y128203D01*
Y128119D01*
X368628D01*
Y128034D01*
Y127949D01*
X368543D01*
Y127864D01*
Y127779D01*
X368458D01*
Y127695D01*
Y127610D01*
X368373D01*
Y127525D01*
Y127441D01*
X368289D01*
Y127356D01*
Y127271D01*
X368204D01*
Y127186D01*
Y127102D01*
X368119D01*
Y127017D01*
Y126932D01*
X368035D01*
Y126847D01*
Y126762D01*
X367950D01*
Y126678D01*
X367865D01*
Y126593D01*
Y126508D01*
X367780D01*
Y126424D01*
Y126339D01*
X367695D01*
Y126254D01*
X367611D01*
Y126169D01*
Y126084D01*
X367526D01*
Y126000D01*
Y125915D01*
X367441D01*
Y125830D01*
X367356D01*
Y125745D01*
X367272D01*
Y125661D01*
Y125576D01*
X367187D01*
Y125491D01*
X367102D01*
Y125407D01*
Y125322D01*
X367018D01*
Y125237D01*
X366933D01*
Y125152D01*
X366848D01*
Y125067D01*
Y124983D01*
X366763D01*
Y124898D01*
X366679D01*
Y124813D01*
X366594D01*
Y124729D01*
Y124644D01*
X366509D01*
Y124559D01*
X366424D01*
Y124474D01*
X366339D01*
Y124390D01*
X366255D01*
Y124305D01*
X366170D01*
Y124220D01*
X366085D01*
Y124135D01*
X366001D01*
Y124050D01*
X365916D01*
Y123966D01*
Y123881D01*
X365831D01*
Y123796D01*
X365746D01*
Y123712D01*
X365662D01*
Y123627D01*
X365577D01*
Y123542D01*
X365492D01*
Y123457D01*
X365407D01*
Y123372D01*
X365322D01*
Y123288D01*
X365238D01*
Y123203D01*
X365153D01*
Y123118D01*
X365068D01*
Y123033D01*
X364984D01*
Y122949D01*
X364814D01*
Y122864D01*
X364729D01*
Y122779D01*
X364645D01*
Y122695D01*
X364560D01*
Y122610D01*
X364475D01*
Y122525D01*
X364390D01*
Y122440D01*
X364221D01*
Y122355D01*
X364136D01*
Y122271D01*
X364051D01*
Y122186D01*
X363966D01*
Y122101D01*
X363797D01*
Y122017D01*
X363712D01*
Y121932D01*
X363628D01*
Y121847D01*
X363458D01*
Y121762D01*
X363373D01*
Y121677D01*
X363288D01*
Y121593D01*
X363119D01*
Y121508D01*
X363034D01*
Y121423D01*
X362865D01*
Y121338D01*
X362780D01*
Y121254D01*
X362611D01*
Y121169D01*
X362441D01*
Y121084D01*
X362356D01*
Y121000D01*
X362187D01*
Y120915D01*
X362017D01*
Y120830D01*
X361848D01*
Y120745D01*
X361678D01*
Y120660D01*
X361594D01*
Y120576D01*
X361424D01*
Y120491D01*
X361170D01*
Y120406D01*
X361000D01*
Y120322D01*
X360831D01*
Y120237D01*
X360661D01*
Y120152D01*
X360492D01*
Y120067D01*
X360238D01*
Y119983D01*
X360068D01*
Y119898D01*
X359814D01*
Y119813D01*
X359559D01*
Y119728D01*
X359305D01*
Y119643D01*
X359051D01*
Y119559D01*
X358797D01*
Y119474D01*
X358458D01*
Y119389D01*
X358119D01*
Y119305D01*
X357695D01*
Y119220D01*
X357271D01*
Y119135D01*
X356763D01*
Y119050D01*
X356000D01*
Y118965D01*
X352695D01*
Y119050D01*
X351932D01*
Y119135D01*
X351339D01*
Y119220D01*
X350915D01*
Y119305D01*
X350491D01*
Y119389D01*
X350152D01*
Y119474D01*
X349898D01*
Y119559D01*
X349644D01*
Y119643D01*
X349305D01*
Y119728D01*
X349050D01*
Y119813D01*
X348796D01*
Y119898D01*
X348627D01*
Y119983D01*
X348373D01*
Y120067D01*
X348203D01*
Y120152D01*
X347949D01*
Y120237D01*
X347779D01*
Y120322D01*
X347610D01*
Y120406D01*
X347440D01*
Y120491D01*
X347271D01*
Y120576D01*
X347101D01*
Y120660D01*
X346932D01*
Y120745D01*
X346762D01*
Y120830D01*
X346593D01*
Y120915D01*
X346423D01*
Y121000D01*
X346339D01*
Y121084D01*
X346169D01*
Y121169D01*
X346000D01*
Y121254D01*
X345915D01*
Y121338D01*
X345745D01*
Y121423D01*
X345660D01*
Y121508D01*
X345491D01*
Y121593D01*
X345406D01*
Y121677D01*
X345237D01*
Y121762D01*
X345152D01*
Y121847D01*
X345067D01*
Y121932D01*
X344898D01*
Y122017D01*
X344813D01*
Y122101D01*
X344728D01*
Y122186D01*
X344559D01*
Y122271D01*
X344474D01*
Y122355D01*
X344389D01*
Y122440D01*
X344304D01*
Y122525D01*
X344220D01*
Y122610D01*
X344050D01*
Y122695D01*
X343966D01*
Y122779D01*
X343881D01*
Y122864D01*
X343796D01*
Y122949D01*
X343711D01*
Y123033D01*
X343626D01*
Y123118D01*
X343542D01*
Y123203D01*
X343457D01*
Y123288D01*
X343372D01*
Y123372D01*
X343287D01*
Y123457D01*
X343203D01*
Y123542D01*
X343118D01*
Y123627D01*
X343033D01*
Y123712D01*
X342949D01*
Y123796D01*
X342864D01*
Y123881D01*
X342779D01*
Y123966D01*
X342694D01*
Y124050D01*
X342610D01*
Y124135D01*
X342525D01*
Y124220D01*
X342440D01*
Y124305D01*
X342355D01*
Y124390D01*
X342270D01*
Y124474D01*
X342186D01*
Y124559D01*
Y124644D01*
X342101D01*
Y124729D01*
X342016D01*
Y124813D01*
X341932D01*
Y124898D01*
X341847D01*
Y124983D01*
Y125067D01*
X341762D01*
Y125152D01*
X341677D01*
Y125237D01*
X341593D01*
Y125322D01*
Y125407D01*
X341508D01*
Y125491D01*
X341423D01*
Y125576D01*
X341338D01*
Y125661D01*
Y125745D01*
X341253D01*
Y125830D01*
Y125915D01*
X341169D01*
Y126000D01*
X341084D01*
Y126084D01*
Y126169D01*
X340999D01*
Y126254D01*
X340915D01*
Y126339D01*
Y126424D01*
X340830D01*
Y126508D01*
Y126593D01*
X340745D01*
Y126678D01*
X340660D01*
Y126762D01*
Y126847D01*
X340576D01*
Y126932D01*
Y127017D01*
X340491D01*
Y127102D01*
X340406D01*
Y127186D01*
Y127271D01*
X340321D01*
Y127356D01*
Y127441D01*
X340236D01*
Y127525D01*
Y127610D01*
X340152D01*
Y127695D01*
Y127779D01*
Y127864D01*
X340067D01*
Y127949D01*
Y128034D01*
X339982D01*
Y128119D01*
Y128203D01*
X339897D01*
Y128288D01*
Y128373D01*
X339813D01*
Y128457D01*
Y128542D01*
Y128627D01*
X339728D01*
Y128712D01*
Y128797D01*
X339643D01*
Y128881D01*
Y128966D01*
Y129051D01*
X339559D01*
Y129136D01*
Y129220D01*
Y129305D01*
X339474D01*
Y129390D01*
Y129474D01*
X339389D01*
Y129559D01*
Y129644D01*
Y129729D01*
Y129814D01*
X339304D01*
Y129898D01*
Y129983D01*
Y130068D01*
X339219D01*
Y130152D01*
Y130237D01*
Y130322D01*
X339135D01*
Y130407D01*
Y130491D01*
Y130576D01*
Y130661D01*
X339050D01*
Y130746D01*
Y130831D01*
Y130915D01*
Y131000D01*
X338965D01*
Y131085D01*
Y131169D01*
Y131254D01*
Y131339D01*
Y131424D01*
Y131509D01*
X338880D01*
Y131593D01*
Y131678D01*
Y131763D01*
Y131848D01*
Y131932D01*
X338796D01*
Y132017D01*
Y132102D01*
Y132186D01*
Y132271D01*
Y132356D01*
Y132441D01*
Y132526D01*
Y132610D01*
X338711D01*
Y132695D01*
Y132780D01*
Y132864D01*
Y132949D01*
Y133034D01*
Y133119D01*
Y133203D01*
Y133288D01*
Y133373D01*
Y133458D01*
Y133543D01*
Y133627D01*
X338626D01*
Y133712D01*
Y133797D01*
Y133881D01*
Y133966D01*
Y134051D01*
Y134136D01*
Y134221D01*
Y134305D01*
Y134390D01*
Y134475D01*
Y134560D01*
Y134644D01*
Y134729D01*
Y134814D01*
Y134898D01*
Y134983D01*
Y135068D01*
Y135153D01*
Y135238D01*
Y135322D01*
Y135407D01*
Y135492D01*
X338711D01*
Y135576D01*
Y135661D01*
Y135746D01*
Y135831D01*
Y135916D01*
Y136000D01*
Y136085D01*
Y136170D01*
Y136255D01*
Y136339D01*
Y136424D01*
Y136509D01*
Y136593D01*
X338796D01*
Y136678D01*
Y136763D01*
Y136848D01*
Y136933D01*
Y137017D01*
Y137102D01*
Y137187D01*
X338880D01*
Y137271D01*
Y137356D01*
Y137441D01*
Y137526D01*
Y137610D01*
X338965D01*
Y137695D01*
Y137780D01*
Y137865D01*
Y137950D01*
Y138034D01*
X339050D01*
Y138119D01*
Y138204D01*
Y138288D01*
Y138373D01*
Y138458D01*
X339135D01*
Y138543D01*
Y138628D01*
Y138712D01*
Y138797D01*
X339219D01*
Y138882D01*
Y138967D01*
Y139051D01*
Y139136D01*
X339304D01*
Y139221D01*
Y139305D01*
Y139390D01*
X339389D01*
Y139475D01*
Y139560D01*
Y139645D01*
X339474D01*
Y139729D01*
Y139814D01*
X339559D01*
Y139899D01*
Y139983D01*
Y140068D01*
X339643D01*
Y140153D01*
Y140238D01*
Y140322D01*
X339728D01*
Y140407D01*
Y140492D01*
X339813D01*
Y140577D01*
Y140662D01*
Y140746D01*
X339897D01*
Y140831D01*
Y140916D01*
X339982D01*
Y141000D01*
Y141085D01*
X340067D01*
Y141170D01*
Y141255D01*
Y141340D01*
X340152D01*
Y141424D01*
Y141509D01*
X340236D01*
Y141594D01*
Y141679D01*
X340321D01*
Y141763D01*
Y141848D01*
X340406D01*
Y141933D01*
Y142017D01*
X340491D01*
Y142102D01*
Y142187D01*
X340576D01*
Y142272D01*
X340660D01*
Y142357D01*
Y142441D01*
X340745D01*
Y142526D01*
Y142611D01*
X340830D01*
Y142695D01*
X340915D01*
Y142780D01*
Y142865D01*
X340999D01*
Y142950D01*
Y143035D01*
X341084D01*
Y143119D01*
X341169D01*
Y143204D01*
Y143289D01*
X341253D01*
Y143374D01*
X341338D01*
Y143458D01*
Y143543D01*
X341423D01*
Y143628D01*
X341508D01*
Y143712D01*
X341593D01*
Y143797D01*
Y143882D01*
X341677D01*
Y143967D01*
X341762D01*
Y144052D01*
X341847D01*
Y144136D01*
Y144221D01*
X341932D01*
Y144306D01*
X342016D01*
Y144390D01*
X342101D01*
Y144475D01*
X342186D01*
Y144560D01*
Y144645D01*
X342270D01*
Y144729D01*
X342355D01*
Y144814D01*
X342440D01*
Y144899D01*
X342525D01*
Y144984D01*
X342610D01*
Y145069D01*
X342694D01*
Y145153D01*
X342779D01*
Y145238D01*
X342864D01*
Y145323D01*
Y145407D01*
X343033D01*
Y145492D01*
X343118D01*
Y145577D01*
Y145662D01*
X343287D01*
Y145747D01*
X343372D01*
Y145831D01*
X343457D01*
Y145916D01*
X343542D01*
Y146001D01*
Y146086D01*
X343711D01*
Y146170D01*
X343796D01*
Y146255D01*
X343881D01*
Y146340D01*
X343966D01*
Y146424D01*
X344050D01*
Y146509D01*
X344135D01*
Y146594D01*
X344304D01*
Y146679D01*
X344389D01*
Y146764D01*
X344474D01*
Y146848D01*
X344559D01*
Y146933D01*
X344643D01*
Y147018D01*
X344813D01*
Y147102D01*
X344898D01*
Y147187D01*
X344983D01*
Y147272D01*
X345152D01*
Y147357D01*
X345237D01*
Y147441D01*
X345321D01*
Y147526D01*
X345491D01*
Y147611D01*
X345576D01*
Y147696D01*
X345745D01*
Y147781D01*
X345915D01*
Y147865D01*
X346000D01*
Y147950D01*
X346169D01*
Y148035D01*
X346339D01*
Y148119D01*
X346423D01*
Y148204D01*
X346593D01*
Y148289D01*
X346762D01*
Y148374D01*
X346932D01*
Y148459D01*
X347101D01*
Y148543D01*
X347186D01*
Y148628D01*
X347356D01*
Y148713D01*
X347610D01*
Y148798D01*
X347779D01*
Y148882D01*
X347949D01*
Y148967D01*
X348118D01*
Y149052D01*
X348288D01*
Y149136D01*
X348542D01*
Y149221D01*
X348796D01*
Y149306D01*
X349050D01*
Y149391D01*
X349305D01*
Y149476D01*
X349559D01*
Y149560D01*
X349813D01*
Y149645D01*
X350152D01*
Y149730D01*
X350491D01*
Y149814D01*
X350830D01*
Y149899D01*
X351254D01*
Y149984D01*
X351763D01*
Y150069D01*
X352525D01*
Y150154D01*
X353542D01*
Y150238D01*
X355068D01*
Y150154D01*
D02*
G37*
G36*
X363034Y151425D02*
Y151340D01*
Y151255D01*
Y151171D01*
Y151086D01*
Y151001D01*
Y150916D01*
Y150831D01*
Y150747D01*
Y150662D01*
Y150577D01*
X362949D01*
Y150493D01*
Y150408D01*
Y150323D01*
Y150238D01*
Y150154D01*
Y150069D01*
Y149984D01*
Y149899D01*
Y149814D01*
Y149730D01*
Y149645D01*
X362865D01*
Y149560D01*
Y149476D01*
Y149391D01*
Y149306D01*
Y149221D01*
Y149136D01*
Y149052D01*
Y148967D01*
X362780D01*
Y148882D01*
Y148798D01*
Y148713D01*
Y148628D01*
Y148543D01*
Y148459D01*
Y148374D01*
Y148289D01*
Y148204D01*
Y148119D01*
Y148035D01*
Y147950D01*
Y147865D01*
Y147781D01*
Y147696D01*
Y147611D01*
Y147526D01*
Y147441D01*
Y147357D01*
Y147272D01*
Y147187D01*
Y147102D01*
Y147018D01*
Y146933D01*
Y146848D01*
Y146764D01*
Y146679D01*
Y146594D01*
Y146509D01*
Y146424D01*
Y146340D01*
X362865D01*
Y146255D01*
Y146170D01*
Y146086D01*
Y146001D01*
Y145916D01*
Y145831D01*
Y145747D01*
X362949D01*
Y145662D01*
Y145577D01*
Y145492D01*
Y145407D01*
X363034D01*
Y145323D01*
Y145238D01*
Y145153D01*
Y145069D01*
X363119D01*
Y144984D01*
Y144899D01*
Y144814D01*
Y144729D01*
X363204D01*
Y144645D01*
Y144560D01*
Y144475D01*
X363288D01*
Y144390D01*
Y144306D01*
X363373D01*
Y144221D01*
Y144136D01*
Y144052D01*
X363034D01*
Y143967D01*
X362865D01*
Y143882D01*
X362695D01*
Y143797D01*
X362526D01*
Y143712D01*
X362356D01*
Y143628D01*
X362187D01*
Y143543D01*
X362017D01*
Y143458D01*
X361932D01*
Y143374D01*
X361763D01*
Y143289D01*
X361678D01*
Y143204D01*
X361509D01*
Y143119D01*
X361424D01*
Y143035D01*
X361339D01*
Y142950D01*
X361255D01*
Y142865D01*
X361085D01*
Y142780D01*
X361000D01*
Y142695D01*
X360915D01*
Y142611D01*
X360746D01*
Y142526D01*
X360661D01*
Y142441D01*
X360577D01*
Y142357D01*
X360492D01*
Y142272D01*
X360407D01*
Y142187D01*
X360238D01*
Y142102D01*
X360153D01*
Y142017D01*
X360068D01*
Y141933D01*
X359983D01*
Y141848D01*
X359898D01*
Y141763D01*
X359814D01*
Y141679D01*
X359729D01*
Y141594D01*
X359644D01*
Y141509D01*
X359559D01*
Y141424D01*
X359390D01*
Y141340D01*
X359305D01*
Y141255D01*
X359221D01*
Y141170D01*
X359136D01*
Y141085D01*
X359051D01*
Y141000D01*
X358966D01*
Y140916D01*
X358881D01*
Y140831D01*
X358797D01*
Y140746D01*
X358712D01*
Y140662D01*
X358627D01*
Y140577D01*
X358542D01*
Y140492D01*
X358458D01*
Y140407D01*
X358373D01*
Y140322D01*
X358288D01*
Y140238D01*
X358204D01*
Y140153D01*
X358119D01*
Y140068D01*
X358034D01*
Y139983D01*
Y139899D01*
X357949D01*
Y139814D01*
X357864D01*
Y139729D01*
X357780D01*
Y139645D01*
X357695D01*
Y139560D01*
X357610D01*
Y139475D01*
X357525D01*
Y139390D01*
X357441D01*
Y139305D01*
X357356D01*
Y139221D01*
X357271D01*
Y139136D01*
X357187D01*
Y139051D01*
Y138967D01*
X357102D01*
Y138882D01*
X357017D01*
Y138797D01*
X356932D01*
Y138712D01*
X356848D01*
Y138628D01*
X356763D01*
Y138543D01*
Y138458D01*
X356593D01*
Y138373D01*
Y138288D01*
X356508D01*
Y138204D01*
X356424D01*
Y138119D01*
X356339D01*
Y138034D01*
X356254D01*
Y137950D01*
X356170D01*
Y137865D01*
Y137780D01*
X356085D01*
Y137695D01*
X356000D01*
Y137610D01*
X355915D01*
Y137526D01*
X355831D01*
Y137441D01*
X355746D01*
Y137356D01*
Y137271D01*
X355661D01*
Y137187D01*
X355576D01*
Y137102D01*
X355491D01*
Y137017D01*
X355407D01*
Y136933D01*
Y136848D01*
X355322D01*
Y136763D01*
X355237D01*
Y136678D01*
X355153D01*
Y136593D01*
X355068D01*
Y136509D01*
Y136424D01*
X354983D01*
Y136339D01*
X354898D01*
Y136255D01*
X354814D01*
Y136170D01*
X354729D01*
Y136085D01*
Y136000D01*
X354644D01*
Y135916D01*
X354559D01*
Y135831D01*
X354474D01*
Y135746D01*
Y135661D01*
X354390D01*
Y135576D01*
X354305D01*
Y135492D01*
Y135407D01*
X354220D01*
Y135322D01*
X354135D01*
Y135238D01*
X354051D01*
Y135153D01*
Y135068D01*
X353966D01*
Y134983D01*
X353881D01*
Y134898D01*
X353797D01*
Y134814D01*
Y134729D01*
X353712D01*
Y134644D01*
X353627D01*
Y134560D01*
X353542D01*
Y134475D01*
Y134390D01*
X353457D01*
Y134305D01*
Y134221D01*
X353373D01*
Y134136D01*
X353288D01*
Y134051D01*
X353203D01*
Y133966D01*
Y133881D01*
X353118D01*
Y133797D01*
X353034D01*
Y133712D01*
Y133627D01*
X352949D01*
Y133543D01*
X352864D01*
Y133458D01*
Y133373D01*
X352780D01*
Y133288D01*
Y133203D01*
X352695D01*
Y133119D01*
X352610D01*
Y133034D01*
Y132949D01*
X352525D01*
Y132864D01*
X352441D01*
Y132780D01*
Y132695D01*
X352356D01*
Y132610D01*
Y132526D01*
X352271D01*
Y132441D01*
Y132356D01*
X352186D01*
Y132271D01*
X352101D01*
Y132186D01*
Y132102D01*
X351932D01*
Y132186D01*
Y132271D01*
X351847D01*
Y132356D01*
X351763D01*
Y132441D01*
X351678D01*
Y132526D01*
X351593D01*
Y132610D01*
X351508D01*
Y132695D01*
X351424D01*
Y132780D01*
Y132864D01*
X351339D01*
Y132949D01*
X351254D01*
Y133034D01*
X351169D01*
Y133119D01*
X351084D01*
Y133203D01*
X351000D01*
Y133288D01*
X350915D01*
Y133373D01*
X350830D01*
Y133458D01*
Y133543D01*
X350746D01*
Y133627D01*
X350661D01*
Y133712D01*
X350576D01*
Y133797D01*
X350491D01*
Y133881D01*
X350407D01*
Y133966D01*
X350322D01*
Y134051D01*
X350237D01*
Y134136D01*
X350152D01*
Y134221D01*
X350067D01*
Y134305D01*
X349983D01*
Y134390D01*
X349898D01*
Y134475D01*
X349813D01*
Y134560D01*
X349728D01*
Y134644D01*
X349644D01*
Y134729D01*
X349559D01*
Y134814D01*
X349474D01*
Y134898D01*
X349390D01*
Y134983D01*
X349305D01*
Y135068D01*
X349220D01*
Y135153D01*
X349135D01*
Y135238D01*
X349050D01*
Y135322D01*
X348966D01*
Y135407D01*
X348881D01*
Y135492D01*
X348796D01*
Y135576D01*
X348711D01*
Y135661D01*
X348627D01*
Y135746D01*
X348542D01*
Y135831D01*
X348373D01*
Y135916D01*
X348288D01*
Y136000D01*
X348203D01*
Y136085D01*
X348118D01*
Y136170D01*
X348033D01*
Y136255D01*
X347949D01*
Y136339D01*
X347779D01*
Y136424D01*
X347694D01*
Y136509D01*
X347610D01*
Y136593D01*
X347525D01*
Y136678D01*
X347440D01*
Y136763D01*
X347356D01*
Y136848D01*
X347186D01*
Y136933D01*
X347101D01*
Y137017D01*
X346932D01*
Y137102D01*
X346847D01*
Y137187D01*
X346762D01*
Y137271D01*
X346593D01*
Y137356D01*
X346508D01*
Y137441D01*
X346423D01*
Y137526D01*
X346254D01*
Y137610D01*
X346169D01*
Y137695D01*
X346000D01*
Y137780D01*
X345915D01*
Y137865D01*
X345830D01*
Y137950D01*
X345660D01*
Y138034D01*
X345576D01*
Y138119D01*
X345406D01*
Y138204D01*
X345237D01*
Y138288D01*
X345152D01*
Y138373D01*
X344983D01*
Y138458D01*
X344813D01*
Y138543D01*
X344728D01*
Y138628D01*
X344474D01*
Y138712D01*
X344389D01*
Y138797D01*
X344220D01*
Y138882D01*
X343966D01*
Y138967D01*
X343711D01*
Y139051D01*
X343542D01*
Y139136D01*
X343457D01*
Y139221D01*
X343542D01*
Y139305D01*
X343711D01*
Y139390D01*
X343881D01*
Y139475D01*
X343966D01*
Y139560D01*
X344135D01*
Y139645D01*
X344220D01*
Y139729D01*
X344389D01*
Y139814D01*
X344559D01*
Y139899D01*
X344728D01*
Y139983D01*
X344813D01*
Y140068D01*
X344983D01*
Y140153D01*
X345067D01*
Y140238D01*
X345237D01*
Y140322D01*
X345406D01*
Y140407D01*
X345491D01*
Y140492D01*
X345660D01*
Y140577D01*
X345830D01*
Y140662D01*
X345915D01*
Y140746D01*
X346084D01*
Y140831D01*
X346169D01*
Y140916D01*
X346339D01*
Y141000D01*
X346508D01*
Y141085D01*
X346677D01*
Y141170D01*
X346762D01*
Y141255D01*
X346932D01*
Y141340D01*
X347101D01*
Y141424D01*
X347186D01*
Y141509D01*
X347356D01*
Y141594D01*
X347525D01*
Y141679D01*
X347610D01*
Y141763D01*
X347779D01*
Y141848D01*
X347864D01*
Y141933D01*
X348033D01*
Y142017D01*
X348203D01*
Y142102D01*
X348288D01*
Y142187D01*
X348457D01*
Y142272D01*
X348627D01*
Y142357D01*
X348796D01*
Y142441D01*
X348881D01*
Y142526D01*
X348966D01*
Y142441D01*
X349050D01*
Y142357D01*
Y142272D01*
X349135D01*
Y142187D01*
Y142102D01*
X349220D01*
Y142017D01*
Y141933D01*
X349305D01*
Y141848D01*
Y141763D01*
X349390D01*
Y141679D01*
Y141594D01*
X349474D01*
Y141509D01*
Y141424D01*
X349559D01*
Y141340D01*
Y141255D01*
X349644D01*
Y141170D01*
X349728D01*
Y141085D01*
Y141000D01*
X349813D01*
Y140916D01*
Y140831D01*
X349898D01*
Y140746D01*
Y140662D01*
X349983D01*
Y140577D01*
Y140492D01*
X350067D01*
Y140407D01*
Y140322D01*
X350152D01*
Y140238D01*
Y140153D01*
X350237D01*
Y140068D01*
Y139983D01*
X350322D01*
Y139899D01*
Y139814D01*
X350407D01*
Y139729D01*
Y139645D01*
X350491D01*
Y139560D01*
Y139475D01*
X350576D01*
Y139390D01*
Y139305D01*
X350661D01*
Y139221D01*
Y139136D01*
X350746D01*
Y139051D01*
Y138967D01*
X350830D01*
Y138882D01*
Y138797D01*
X350915D01*
Y138712D01*
X351000D01*
Y138628D01*
Y138543D01*
X351084D01*
Y138458D01*
Y138373D01*
Y138288D01*
X351169D01*
Y138204D01*
X351254D01*
Y138119D01*
Y138034D01*
X351339D01*
Y137950D01*
Y137865D01*
X351424D01*
Y137780D01*
Y137695D01*
X351508D01*
Y137610D01*
Y137526D01*
X351593D01*
Y137441D01*
Y137356D01*
X351763D01*
Y137441D01*
Y137526D01*
X351847D01*
Y137610D01*
X351932D01*
Y137695D01*
Y137780D01*
Y137865D01*
X352017D01*
Y137950D01*
Y138034D01*
X352101D01*
Y138119D01*
Y138204D01*
X352186D01*
Y138288D01*
Y138373D01*
X352271D01*
Y138458D01*
Y138543D01*
Y138628D01*
X352356D01*
Y138712D01*
X352441D01*
Y138797D01*
Y138882D01*
Y138967D01*
X352525D01*
Y139051D01*
Y139136D01*
X352610D01*
Y139221D01*
Y139305D01*
X352695D01*
Y139390D01*
Y139475D01*
X352780D01*
Y139560D01*
X352864D01*
Y139645D01*
Y139729D01*
X352949D01*
Y139814D01*
Y139899D01*
X353034D01*
Y139983D01*
Y140068D01*
X353118D01*
Y140153D01*
Y140238D01*
X353203D01*
Y140322D01*
Y140407D01*
X353288D01*
Y140492D01*
Y140577D01*
X353373D01*
Y140662D01*
Y140746D01*
X353457D01*
Y140831D01*
X353542D01*
Y140916D01*
Y141000D01*
X353627D01*
Y141085D01*
Y141170D01*
X353712D01*
Y141255D01*
Y141340D01*
X353797D01*
Y141424D01*
X353881D01*
Y141509D01*
Y141594D01*
X353966D01*
Y141679D01*
Y141763D01*
X354051D01*
Y141848D01*
Y141933D01*
X354135D01*
Y142017D01*
X354220D01*
Y142102D01*
Y142187D01*
X354305D01*
Y142272D01*
Y142357D01*
X354390D01*
Y142441D01*
Y142526D01*
X354474D01*
Y142611D01*
X354559D01*
Y142695D01*
X354644D01*
Y142780D01*
Y142865D01*
X354729D01*
Y142950D01*
Y143035D01*
X354814D01*
Y143119D01*
Y143204D01*
X354898D01*
Y143289D01*
X354983D01*
Y143374D01*
Y143458D01*
X355068D01*
Y143543D01*
X355153D01*
Y143628D01*
Y143712D01*
X355237D01*
Y143797D01*
X355322D01*
Y143882D01*
Y143967D01*
X355407D01*
Y144052D01*
X355491D01*
Y144136D01*
Y144221D01*
X355576D01*
Y144306D01*
X355661D01*
Y144390D01*
X355746D01*
Y144475D01*
Y144560D01*
X355831D01*
Y144645D01*
X355915D01*
Y144729D01*
Y144814D01*
X356000D01*
Y144899D01*
X356085D01*
Y144984D01*
X356170D01*
Y145069D01*
Y145153D01*
X356254D01*
Y145238D01*
X356339D01*
Y145323D01*
Y145407D01*
X356424D01*
Y145492D01*
X356508D01*
Y145577D01*
X356593D01*
Y145662D01*
Y145747D01*
X356678D01*
Y145831D01*
X356763D01*
Y145916D01*
X356848D01*
Y146001D01*
Y146086D01*
X356932D01*
Y146170D01*
X357017D01*
Y146255D01*
X357102D01*
Y146340D01*
X357187D01*
Y146424D01*
X357271D01*
Y146509D01*
Y146594D01*
X357356D01*
Y146679D01*
X357441D01*
Y146764D01*
X357525D01*
Y146848D01*
X357610D01*
Y146933D01*
Y147018D01*
X357695D01*
Y147102D01*
X357780D01*
Y147187D01*
X357864D01*
Y147272D01*
X357949D01*
Y147357D01*
X358034D01*
Y147441D01*
X358119D01*
Y147526D01*
X358204D01*
Y147611D01*
X358288D01*
Y147696D01*
Y147781D01*
X358373D01*
Y147865D01*
X358458D01*
Y147950D01*
X358542D01*
Y148035D01*
X358627D01*
Y148119D01*
X358712D01*
Y148204D01*
X358797D01*
Y148289D01*
X358881D01*
Y148374D01*
X358966D01*
Y148459D01*
X359051D01*
Y148543D01*
X359136D01*
Y148628D01*
X359221D01*
Y148713D01*
X359305D01*
Y148798D01*
X359390D01*
Y148882D01*
X359475D01*
Y148967D01*
X359559D01*
Y149052D01*
X359729D01*
Y149136D01*
X359814D01*
Y149221D01*
X359898D01*
Y149306D01*
X359983D01*
Y149391D01*
X360068D01*
Y149476D01*
X360153D01*
Y149560D01*
X360238D01*
Y149645D01*
X360407D01*
Y149730D01*
X360492D01*
Y149814D01*
X360577D01*
Y149899D01*
X360661D01*
Y149984D01*
X360746D01*
Y150069D01*
X360915D01*
Y150154D01*
X361000D01*
Y150238D01*
X361085D01*
Y150323D01*
X361170D01*
Y150408D01*
X361339D01*
Y150493D01*
X361424D01*
Y150577D01*
X361594D01*
Y150662D01*
X361678D01*
Y150747D01*
X361848D01*
Y150831D01*
X361932D01*
Y150916D01*
X362102D01*
Y151001D01*
X362187D01*
Y151086D01*
X362356D01*
Y151171D01*
X362526D01*
Y151255D01*
X362611D01*
Y151340D01*
X362780D01*
Y151425D01*
X362949D01*
Y151509D01*
X363034D01*
Y151425D01*
D02*
G37*
G36*
X362695Y132695D02*
X363034D01*
Y132610D01*
X363288D01*
Y132526D01*
X363458D01*
Y132441D01*
X363628D01*
Y132356D01*
X363712D01*
Y132271D01*
X363797D01*
Y132186D01*
X363882D01*
Y132102D01*
Y132017D01*
X363966D01*
Y131932D01*
Y131848D01*
X364051D01*
Y131763D01*
Y131678D01*
X364136D01*
Y131593D01*
Y131509D01*
Y131424D01*
Y131339D01*
X363373D01*
Y131254D01*
X362780D01*
Y131339D01*
X362695D01*
Y131424D01*
Y131509D01*
Y131593D01*
X362611D01*
Y131678D01*
X362526D01*
Y131763D01*
X362356D01*
Y131848D01*
X362102D01*
Y131932D01*
X361848D01*
Y131848D01*
X361678D01*
Y131763D01*
X361594D01*
Y131678D01*
X361509D01*
Y131593D01*
X361424D01*
Y131509D01*
Y131424D01*
X361509D01*
Y131339D01*
X361594D01*
Y131254D01*
X361678D01*
Y131169D01*
X361932D01*
Y131085D01*
X362356D01*
Y131000D01*
X362611D01*
Y130915D01*
X362949D01*
Y130831D01*
X363204D01*
Y130746D01*
X363458D01*
Y130661D01*
X363628D01*
Y130576D01*
X363712D01*
Y130491D01*
X363882D01*
Y130407D01*
X363966D01*
Y130322D01*
X364051D01*
Y130237D01*
Y130152D01*
X364136D01*
Y130068D01*
X364221D01*
Y129983D01*
Y129898D01*
Y129814D01*
X364305D01*
Y129729D01*
Y129644D01*
Y129559D01*
Y129474D01*
Y129390D01*
Y129305D01*
Y129220D01*
Y129136D01*
Y129051D01*
Y128966D01*
X364221D01*
Y128881D01*
Y128797D01*
X364136D01*
Y128712D01*
Y128627D01*
X364051D01*
Y128542D01*
Y128457D01*
X363966D01*
Y128373D01*
X363882D01*
Y128288D01*
X363797D01*
Y128203D01*
X363712D01*
Y128119D01*
X363543D01*
Y128034D01*
X363373D01*
Y127949D01*
X363204D01*
Y127864D01*
X362865D01*
Y127779D01*
X361339D01*
Y127864D01*
X361000D01*
Y127949D01*
X360831D01*
Y128034D01*
X360661D01*
Y128119D01*
X360492D01*
Y128203D01*
X360407D01*
Y128288D01*
X360322D01*
Y128373D01*
Y128457D01*
X360238D01*
Y128542D01*
X360153D01*
Y128627D01*
Y128712D01*
X360068D01*
Y128797D01*
X359983D01*
Y128881D01*
Y128966D01*
Y129051D01*
Y129136D01*
X359898D01*
Y129220D01*
Y129305D01*
Y129390D01*
X359983D01*
Y129474D01*
X361339D01*
Y129390D01*
Y129305D01*
Y129220D01*
X361424D01*
Y129136D01*
Y129051D01*
X361509D01*
Y128966D01*
X361594D01*
Y128881D01*
X361678D01*
Y128797D01*
X361848D01*
Y128712D01*
X362526D01*
Y128797D01*
X362695D01*
Y128881D01*
X362780D01*
Y128966D01*
X362865D01*
Y129051D01*
Y129136D01*
Y129220D01*
Y129305D01*
Y129390D01*
X362780D01*
Y129474D01*
Y129559D01*
X362611D01*
Y129644D01*
X362441D01*
Y129729D01*
X362187D01*
Y129814D01*
X361848D01*
Y129898D01*
X361509D01*
Y129983D01*
X361255D01*
Y130068D01*
X361085D01*
Y130152D01*
X360831D01*
Y130237D01*
X360746D01*
Y130322D01*
X360577D01*
Y130407D01*
X360492D01*
Y130491D01*
X360407D01*
Y130576D01*
X360322D01*
Y130661D01*
X360238D01*
Y130746D01*
Y130831D01*
X360153D01*
Y130915D01*
Y131000D01*
Y131085D01*
Y131169D01*
X360068D01*
Y131254D01*
Y131339D01*
Y131424D01*
Y131509D01*
X360153D01*
Y131593D01*
Y131678D01*
Y131763D01*
Y131848D01*
X360238D01*
Y131932D01*
Y132017D01*
X360322D01*
Y132102D01*
Y132186D01*
X360407D01*
Y132271D01*
X360492D01*
Y132356D01*
X360661D01*
Y132441D01*
X360746D01*
Y132526D01*
X360915D01*
Y132610D01*
X361170D01*
Y132695D01*
X361678D01*
Y132780D01*
X362695D01*
Y132695D01*
D02*
G37*
G36*
X359136Y132610D02*
Y132526D01*
Y132441D01*
Y132356D01*
Y132271D01*
Y132186D01*
Y132102D01*
Y132017D01*
Y131932D01*
Y131848D01*
Y131763D01*
Y131678D01*
Y131593D01*
Y131509D01*
Y131424D01*
Y131339D01*
Y131254D01*
Y131169D01*
Y131085D01*
Y131000D01*
Y130915D01*
Y130831D01*
Y130746D01*
Y130661D01*
Y130576D01*
Y130491D01*
Y130407D01*
Y130322D01*
Y130237D01*
Y130152D01*
Y130068D01*
Y129983D01*
Y129898D01*
Y129814D01*
Y129729D01*
Y129644D01*
Y129559D01*
Y129474D01*
Y129390D01*
Y129305D01*
Y129220D01*
Y129136D01*
Y129051D01*
Y128966D01*
Y128881D01*
Y128797D01*
Y128712D01*
Y128627D01*
Y128542D01*
Y128457D01*
Y128373D01*
Y128288D01*
Y128203D01*
Y128119D01*
Y128034D01*
Y127949D01*
Y127864D01*
X357610D01*
Y127949D01*
Y128034D01*
Y128119D01*
Y128203D01*
Y128288D01*
Y128373D01*
Y128457D01*
Y128542D01*
Y128627D01*
Y128712D01*
Y128797D01*
Y128881D01*
Y128966D01*
Y129051D01*
Y129136D01*
Y129220D01*
Y129305D01*
Y129390D01*
Y129474D01*
Y129559D01*
Y129644D01*
Y129729D01*
Y129814D01*
X356000D01*
Y129729D01*
Y129644D01*
Y129559D01*
Y129474D01*
Y129390D01*
Y129305D01*
Y129220D01*
Y129136D01*
Y129051D01*
Y128966D01*
Y128881D01*
Y128797D01*
Y128712D01*
Y128627D01*
Y128542D01*
Y128457D01*
Y128373D01*
Y128288D01*
Y128203D01*
Y128119D01*
Y128034D01*
Y127949D01*
Y127864D01*
X354474D01*
Y127949D01*
Y128034D01*
Y128119D01*
Y128203D01*
Y128288D01*
Y128373D01*
Y128457D01*
Y128542D01*
Y128627D01*
Y128712D01*
Y128797D01*
Y128881D01*
Y128966D01*
Y129051D01*
Y129136D01*
Y129220D01*
Y129305D01*
Y129390D01*
Y129474D01*
Y129559D01*
Y129644D01*
Y129729D01*
Y129814D01*
Y129898D01*
Y129983D01*
Y130068D01*
Y130152D01*
Y130237D01*
Y130322D01*
Y130407D01*
Y130491D01*
Y130576D01*
Y130661D01*
Y130746D01*
Y130831D01*
Y130915D01*
Y131000D01*
Y131085D01*
Y131169D01*
Y131254D01*
Y131339D01*
Y131424D01*
Y131509D01*
Y131593D01*
Y131678D01*
Y131763D01*
Y131848D01*
Y131932D01*
Y132017D01*
Y132102D01*
Y132186D01*
Y132271D01*
Y132356D01*
Y132441D01*
Y132526D01*
Y132610D01*
Y132695D01*
X356000D01*
Y132610D01*
Y132526D01*
Y132441D01*
Y132356D01*
Y132271D01*
Y132186D01*
Y132102D01*
Y132017D01*
Y131932D01*
Y131848D01*
Y131763D01*
Y131678D01*
Y131593D01*
Y131509D01*
Y131424D01*
Y131339D01*
Y131254D01*
Y131169D01*
Y131085D01*
Y131000D01*
X357610D01*
Y131085D01*
Y131169D01*
Y131254D01*
Y131339D01*
Y131424D01*
Y131509D01*
Y131593D01*
Y131678D01*
Y131763D01*
Y131848D01*
Y131932D01*
Y132017D01*
Y132102D01*
Y132186D01*
Y132271D01*
Y132356D01*
Y132441D01*
X357695D01*
Y132526D01*
X357610D01*
Y132610D01*
X357695D01*
Y132695D01*
X359136D01*
Y132610D01*
D02*
G37*
G36*
X347779D02*
X348203D01*
Y132526D01*
X348373D01*
Y132441D01*
X348457D01*
Y132356D01*
X348627D01*
Y132271D01*
Y132186D01*
X348711D01*
Y132102D01*
X348796D01*
Y132017D01*
Y131932D01*
X348881D01*
Y131848D01*
Y131763D01*
X348966D01*
Y131678D01*
Y131593D01*
Y131509D01*
Y131424D01*
Y131339D01*
Y131254D01*
Y131169D01*
Y131085D01*
Y131000D01*
Y130915D01*
X348881D01*
Y130831D01*
Y130746D01*
X348796D01*
Y130661D01*
Y130576D01*
X348711D01*
Y130491D01*
X348627D01*
Y130407D01*
X348542D01*
Y130322D01*
X348457D01*
Y130237D01*
X348373D01*
Y130152D01*
X348203D01*
Y130068D01*
X347949D01*
Y129983D01*
Y129898D01*
X348033D01*
Y129814D01*
X348203D01*
Y129729D01*
X348288D01*
Y129644D01*
X348373D01*
Y129559D01*
X348457D01*
Y129474D01*
Y129390D01*
X348542D01*
Y129305D01*
X348627D01*
Y129220D01*
Y129136D01*
X348711D01*
Y129051D01*
Y128966D01*
X348796D01*
Y128881D01*
Y128797D01*
X348881D01*
Y128712D01*
Y128627D01*
X348966D01*
Y128542D01*
Y128457D01*
X349050D01*
Y128373D01*
X349135D01*
Y128288D01*
Y128203D01*
X349220D01*
Y128119D01*
Y128034D01*
X349305D01*
Y127949D01*
Y127864D01*
X347610D01*
Y127949D01*
Y128034D01*
X347525D01*
Y128119D01*
Y128203D01*
X347440D01*
Y128288D01*
X347356D01*
Y128373D01*
Y128457D01*
X347271D01*
Y128542D01*
Y128627D01*
X347186D01*
Y128712D01*
Y128797D01*
X347101D01*
Y128881D01*
Y128966D01*
X347017D01*
Y129051D01*
Y129136D01*
X346932D01*
Y129220D01*
X346847D01*
Y129305D01*
Y129390D01*
X346762D01*
Y129474D01*
Y129559D01*
X346677D01*
Y129644D01*
X346593D01*
Y129729D01*
X346423D01*
Y129814D01*
X346084D01*
Y129729D01*
Y129644D01*
Y129559D01*
Y129474D01*
Y129390D01*
Y129305D01*
Y129220D01*
Y129136D01*
Y129051D01*
Y128966D01*
Y128881D01*
Y128797D01*
Y128712D01*
Y128627D01*
Y128542D01*
Y128457D01*
Y128373D01*
Y128288D01*
Y128203D01*
Y128119D01*
Y128034D01*
Y127949D01*
Y127864D01*
X344559D01*
Y127949D01*
Y128034D01*
Y128119D01*
Y128203D01*
Y128288D01*
Y128373D01*
Y128457D01*
Y128542D01*
Y128627D01*
Y128712D01*
Y128797D01*
Y128881D01*
Y128966D01*
Y129051D01*
Y129136D01*
Y129220D01*
Y129305D01*
Y129390D01*
Y129474D01*
Y129559D01*
Y129644D01*
Y129729D01*
Y129814D01*
Y129898D01*
Y129983D01*
Y130068D01*
Y130152D01*
Y130237D01*
Y130322D01*
Y130407D01*
Y130491D01*
Y130576D01*
Y130661D01*
Y130746D01*
Y130831D01*
Y130915D01*
Y131000D01*
Y131085D01*
Y131169D01*
Y131254D01*
Y131339D01*
Y131424D01*
Y131509D01*
Y131593D01*
Y131678D01*
Y131763D01*
Y131848D01*
Y131932D01*
Y132017D01*
Y132102D01*
Y132186D01*
Y132271D01*
Y132356D01*
Y132441D01*
Y132526D01*
Y132610D01*
Y132695D01*
X347779D01*
Y132610D01*
D02*
G37*
G36*
X352186Y131339D02*
X352525D01*
Y131254D01*
X352780D01*
Y131169D01*
X352864D01*
Y131085D01*
X353034D01*
Y131000D01*
X353118D01*
Y130915D01*
X353203D01*
Y130831D01*
X353288D01*
Y130746D01*
X353373D01*
Y130661D01*
Y130576D01*
X353457D01*
Y130491D01*
X353542D01*
Y130407D01*
Y130322D01*
Y130237D01*
X353627D01*
Y130152D01*
Y130068D01*
Y129983D01*
Y129898D01*
X353712D01*
Y129814D01*
Y129729D01*
Y129644D01*
Y129559D01*
Y129474D01*
Y129390D01*
Y129305D01*
Y129220D01*
X353627D01*
Y129136D01*
Y129051D01*
Y128966D01*
Y128881D01*
X353542D01*
Y128797D01*
Y128712D01*
X353457D01*
Y128627D01*
X353373D01*
Y128542D01*
Y128457D01*
X353288D01*
Y128373D01*
X353203D01*
Y128288D01*
X353118D01*
Y128203D01*
X353034D01*
Y128119D01*
X352864D01*
Y128034D01*
X352695D01*
Y127949D01*
X352525D01*
Y127864D01*
X352271D01*
Y127779D01*
X351084D01*
Y127864D01*
X350746D01*
Y127949D01*
X350576D01*
Y128034D01*
X350407D01*
Y128119D01*
X350322D01*
Y128203D01*
X350237D01*
Y128288D01*
X350152D01*
Y128373D01*
X350067D01*
Y128457D01*
X349983D01*
Y128542D01*
X349898D01*
Y128627D01*
X349813D01*
Y128712D01*
Y128797D01*
Y128881D01*
X349728D01*
Y128966D01*
Y129051D01*
Y129136D01*
X349644D01*
Y129220D01*
Y129305D01*
Y129390D01*
Y129474D01*
Y129559D01*
Y129644D01*
Y129729D01*
Y129814D01*
Y129898D01*
Y129983D01*
Y130068D01*
X349728D01*
Y130152D01*
Y130237D01*
Y130322D01*
X349813D01*
Y130407D01*
Y130491D01*
X349898D01*
Y130576D01*
Y130661D01*
X349983D01*
Y130746D01*
X350067D01*
Y130831D01*
X350152D01*
Y130915D01*
X350237D01*
Y131000D01*
X350322D01*
Y131085D01*
X350491D01*
Y131169D01*
X350576D01*
Y131254D01*
X350830D01*
Y131339D01*
X351169D01*
Y131424D01*
X352186D01*
Y131339D01*
D02*
G37*
G36*
X364051Y126339D02*
X364136D01*
Y126254D01*
Y126169D01*
Y126084D01*
Y126000D01*
Y125915D01*
X363458D01*
Y125830D01*
Y125745D01*
Y125661D01*
Y125576D01*
Y125491D01*
Y125407D01*
Y125322D01*
Y125237D01*
Y125152D01*
Y125067D01*
Y124983D01*
Y124898D01*
Y124813D01*
Y124729D01*
Y124644D01*
Y124559D01*
Y124474D01*
Y124390D01*
Y124305D01*
X362865D01*
Y124390D01*
Y124474D01*
Y124559D01*
Y124644D01*
Y124729D01*
Y124813D01*
Y124898D01*
Y124983D01*
Y125067D01*
Y125152D01*
Y125237D01*
Y125322D01*
Y125407D01*
Y125491D01*
Y125576D01*
Y125661D01*
Y125745D01*
Y125830D01*
X362780D01*
Y125915D01*
X362187D01*
Y126000D01*
Y126084D01*
Y126169D01*
Y126254D01*
Y126339D01*
Y126424D01*
X362356D01*
Y126339D01*
X362441D01*
Y126424D01*
X364051D01*
Y126339D01*
D02*
G37*
G36*
X361848D02*
Y126254D01*
Y126169D01*
Y126084D01*
Y126000D01*
Y125915D01*
Y125830D01*
Y125745D01*
Y125661D01*
Y125576D01*
Y125491D01*
Y125407D01*
Y125322D01*
Y125237D01*
Y125152D01*
Y125067D01*
Y124983D01*
Y124898D01*
Y124813D01*
Y124729D01*
Y124644D01*
Y124559D01*
Y124474D01*
Y124390D01*
Y124305D01*
X361255D01*
Y124390D01*
X361170D01*
Y124474D01*
X361085D01*
Y124559D01*
Y124644D01*
X361000D01*
Y124729D01*
X360915D01*
Y124813D01*
Y124898D01*
X360831D01*
Y124983D01*
X360746D01*
Y125067D01*
Y125152D01*
X360661D01*
Y125237D01*
X360577D01*
Y125322D01*
X360492D01*
Y125237D01*
Y125152D01*
Y125067D01*
Y124983D01*
Y124898D01*
Y124813D01*
Y124729D01*
Y124644D01*
Y124559D01*
Y124474D01*
Y124390D01*
Y124305D01*
X359898D01*
Y124390D01*
Y124474D01*
Y124559D01*
Y124644D01*
Y124729D01*
Y124813D01*
Y124898D01*
Y124983D01*
Y125067D01*
Y125152D01*
Y125237D01*
Y125322D01*
Y125407D01*
Y125491D01*
Y125576D01*
Y125661D01*
Y125745D01*
Y125830D01*
Y125915D01*
Y126000D01*
Y126084D01*
Y126169D01*
Y126254D01*
Y126339D01*
X359983D01*
Y126424D01*
X360153D01*
Y126339D01*
X360238D01*
Y126424D01*
X360407D01*
Y126339D01*
X360492D01*
Y126254D01*
X360577D01*
Y126169D01*
X360661D01*
Y126084D01*
Y126000D01*
X360746D01*
Y125915D01*
X360831D01*
Y125830D01*
Y125745D01*
X360915D01*
Y125661D01*
X361000D01*
Y125576D01*
X361085D01*
Y125491D01*
Y125407D01*
X361170D01*
Y125322D01*
X361255D01*
Y125407D01*
Y125491D01*
Y125576D01*
Y125661D01*
Y125745D01*
Y125830D01*
Y125915D01*
Y126000D01*
Y126084D01*
Y126169D01*
Y126254D01*
Y126339D01*
X361339D01*
Y126424D01*
X361678D01*
Y126339D01*
X361763D01*
Y126424D01*
X361848D01*
Y126339D01*
D02*
G37*
G36*
X357017D02*
X357102D01*
Y126254D01*
Y126169D01*
Y126084D01*
Y126000D01*
Y125915D01*
Y125830D01*
Y125745D01*
Y125661D01*
Y125576D01*
Y125491D01*
Y125407D01*
Y125322D01*
Y125237D01*
Y125152D01*
Y125067D01*
Y124983D01*
Y124898D01*
Y124813D01*
Y124729D01*
Y124644D01*
Y124559D01*
Y124474D01*
Y124390D01*
Y124305D01*
X356508D01*
Y124390D01*
Y124474D01*
Y124559D01*
X356424D01*
Y124644D01*
X356508D01*
Y124729D01*
Y124813D01*
Y124898D01*
Y124983D01*
Y125067D01*
Y125152D01*
Y125237D01*
Y125322D01*
Y125407D01*
Y125491D01*
Y125576D01*
Y125661D01*
Y125745D01*
Y125830D01*
Y125915D01*
Y126000D01*
Y126084D01*
Y126169D01*
Y126254D01*
Y126339D01*
Y126424D01*
X356848D01*
Y126339D01*
X356932D01*
Y126424D01*
X357017D01*
Y126339D01*
D02*
G37*
G36*
X355068D02*
Y126254D01*
Y126169D01*
Y126084D01*
Y126000D01*
Y125915D01*
Y125830D01*
Y125745D01*
Y125661D01*
Y125576D01*
Y125491D01*
Y125407D01*
Y125322D01*
Y125237D01*
Y125152D01*
Y125067D01*
Y124983D01*
Y124898D01*
X355153D01*
Y124813D01*
X356085D01*
Y124729D01*
Y124644D01*
Y124559D01*
Y124474D01*
X356170D01*
Y124390D01*
X356085D01*
Y124305D01*
X354474D01*
Y124390D01*
Y124474D01*
Y124559D01*
Y124644D01*
Y124729D01*
Y124813D01*
Y124898D01*
Y124983D01*
Y125067D01*
Y125152D01*
Y125237D01*
Y125322D01*
Y125407D01*
Y125491D01*
Y125576D01*
Y125661D01*
Y125745D01*
Y125830D01*
Y125915D01*
Y126000D01*
Y126084D01*
Y126169D01*
Y126254D01*
Y126339D01*
X354559D01*
Y126424D01*
X354644D01*
Y126339D01*
X354729D01*
Y126424D01*
X354898D01*
Y126339D01*
X354983D01*
Y126424D01*
X355068D01*
Y126339D01*
D02*
G37*
G36*
X351847D02*
X351932D01*
Y126254D01*
Y126169D01*
Y126084D01*
Y126000D01*
Y125915D01*
Y125830D01*
Y125745D01*
Y125661D01*
Y125576D01*
Y125491D01*
Y125407D01*
Y125322D01*
Y125237D01*
Y125152D01*
Y125067D01*
Y124983D01*
Y124898D01*
Y124813D01*
Y124729D01*
Y124644D01*
Y124559D01*
Y124474D01*
Y124390D01*
Y124305D01*
X351424D01*
Y124390D01*
Y124474D01*
Y124559D01*
Y124644D01*
Y124729D01*
Y124813D01*
Y124898D01*
Y124983D01*
Y125067D01*
Y125152D01*
Y125237D01*
Y125322D01*
Y125407D01*
Y125491D01*
Y125576D01*
Y125661D01*
X351254D01*
Y125576D01*
Y125491D01*
Y125407D01*
Y125322D01*
Y125237D01*
X351169D01*
Y125152D01*
Y125067D01*
Y124983D01*
Y124898D01*
X351084D01*
Y124813D01*
Y124729D01*
Y124644D01*
Y124559D01*
X351000D01*
Y124474D01*
Y124390D01*
Y124305D01*
X350491D01*
Y124390D01*
Y124474D01*
Y124559D01*
X350407D01*
Y124644D01*
Y124729D01*
Y124813D01*
Y124898D01*
X350322D01*
Y124983D01*
Y125067D01*
Y125152D01*
Y125237D01*
X350237D01*
Y125322D01*
Y125407D01*
Y125491D01*
Y125576D01*
Y125661D01*
X350152D01*
Y125576D01*
X350067D01*
Y125491D01*
Y125407D01*
Y125322D01*
Y125237D01*
Y125152D01*
Y125067D01*
Y124983D01*
Y124898D01*
Y124813D01*
Y124729D01*
Y124644D01*
Y124559D01*
Y124474D01*
Y124390D01*
Y124305D01*
X349644D01*
Y124390D01*
X349559D01*
Y124474D01*
Y124559D01*
Y124644D01*
Y124729D01*
Y124813D01*
Y124898D01*
Y124983D01*
Y125067D01*
Y125152D01*
Y125237D01*
Y125322D01*
Y125407D01*
Y125491D01*
Y125576D01*
Y125661D01*
Y125745D01*
Y125830D01*
Y125915D01*
Y126000D01*
Y126084D01*
Y126169D01*
Y126254D01*
Y126339D01*
X349644D01*
Y126424D01*
X350322D01*
Y126339D01*
X350407D01*
Y126254D01*
X350491D01*
Y126169D01*
Y126084D01*
Y126000D01*
Y125915D01*
X350576D01*
Y125830D01*
Y125745D01*
Y125661D01*
Y125576D01*
X350661D01*
Y125491D01*
Y125407D01*
Y125322D01*
Y125237D01*
X350830D01*
Y125322D01*
Y125407D01*
Y125491D01*
Y125576D01*
X350915D01*
Y125661D01*
Y125745D01*
Y125830D01*
Y125915D01*
X351000D01*
Y126000D01*
Y126084D01*
Y126169D01*
Y126254D01*
X351084D01*
Y126339D01*
X351169D01*
Y126424D01*
X351254D01*
Y126339D01*
X351339D01*
Y126424D01*
X351508D01*
Y126339D01*
X351593D01*
Y126424D01*
X351678D01*
Y126339D01*
X351763D01*
Y126424D01*
X351847D01*
Y126339D01*
D02*
G37*
G36*
X346084D02*
X346339D01*
Y126254D01*
X346508D01*
Y126169D01*
X346593D01*
Y126084D01*
X346677D01*
Y126000D01*
Y125915D01*
X346762D01*
Y125830D01*
Y125745D01*
X346423D01*
Y125661D01*
X346254D01*
Y125745D01*
X346169D01*
Y125830D01*
X346084D01*
Y125915D01*
X345576D01*
Y125830D01*
X345491D01*
Y125745D01*
Y125661D01*
Y125576D01*
X345406D01*
Y125491D01*
Y125407D01*
Y125322D01*
Y125237D01*
Y125152D01*
Y125067D01*
X345491D01*
Y124983D01*
Y124898D01*
X345576D01*
Y124813D01*
X345660D01*
Y124729D01*
X345915D01*
Y124813D01*
X346084D01*
Y124898D01*
X346169D01*
Y124983D01*
Y125067D01*
X346254D01*
Y125152D01*
X346423D01*
Y125067D01*
X346677D01*
Y124983D01*
X346762D01*
Y124898D01*
Y124813D01*
X346677D01*
Y124729D01*
Y124644D01*
X346593D01*
Y124559D01*
X346508D01*
Y124474D01*
X346423D01*
Y124390D01*
X346254D01*
Y124305D01*
X345406D01*
Y124390D01*
X345237D01*
Y124474D01*
X345152D01*
Y124559D01*
X345067D01*
Y124644D01*
X344983D01*
Y124729D01*
X344898D01*
Y124813D01*
Y124898D01*
X344813D01*
Y124983D01*
Y125067D01*
Y125152D01*
Y125237D01*
Y125322D01*
Y125407D01*
Y125491D01*
Y125576D01*
Y125661D01*
Y125745D01*
Y125830D01*
X344898D01*
Y125915D01*
Y126000D01*
X344983D01*
Y126084D01*
X345067D01*
Y126169D01*
X345152D01*
Y126254D01*
X345237D01*
Y126339D01*
X345576D01*
Y126424D01*
X346084D01*
Y126339D01*
D02*
G37*
G36*
X353542D02*
X353881D01*
Y126254D01*
X353966D01*
Y126169D01*
X354051D01*
Y126084D01*
Y126000D01*
X354135D01*
Y125915D01*
Y125830D01*
Y125745D01*
Y125661D01*
Y125576D01*
Y125491D01*
X354051D01*
Y125407D01*
Y125322D01*
X353966D01*
Y125237D01*
X353797D01*
Y125152D01*
X353457D01*
Y125067D01*
X353373D01*
Y125152D01*
X353203D01*
Y125067D01*
X353034D01*
Y124983D01*
Y124898D01*
Y124813D01*
Y124729D01*
Y124644D01*
Y124559D01*
Y124474D01*
Y124390D01*
Y124305D01*
X352356D01*
Y124390D01*
Y124474D01*
Y124559D01*
Y124644D01*
Y124729D01*
Y124813D01*
Y124898D01*
Y124983D01*
Y125067D01*
Y125152D01*
Y125237D01*
Y125322D01*
Y125407D01*
Y125491D01*
Y125576D01*
Y125661D01*
Y125745D01*
Y125830D01*
Y125915D01*
Y126000D01*
Y126084D01*
Y126169D01*
Y126254D01*
Y126339D01*
X352441D01*
Y126424D01*
X353542D01*
Y126339D01*
D02*
G37*
G36*
X358627D02*
X358881D01*
Y126254D01*
X358966D01*
Y126169D01*
Y126084D01*
X359051D01*
Y126000D01*
Y125915D01*
Y125830D01*
X359136D01*
Y125745D01*
Y125661D01*
Y125576D01*
X359221D01*
Y125491D01*
Y125407D01*
Y125322D01*
X359305D01*
Y125237D01*
Y125152D01*
Y125067D01*
X359390D01*
Y124983D01*
Y124898D01*
X359475D01*
Y124813D01*
Y124729D01*
Y124644D01*
X359559D01*
Y124559D01*
Y124474D01*
X359644D01*
Y124390D01*
Y124305D01*
X358966D01*
Y124390D01*
Y124474D01*
Y124559D01*
X358881D01*
Y124644D01*
X358119D01*
Y124559D01*
X358034D01*
Y124474D01*
Y124390D01*
Y124305D01*
X357356D01*
Y124390D01*
X357441D01*
Y124474D01*
Y124559D01*
Y124644D01*
X357525D01*
Y124729D01*
Y124813D01*
Y124898D01*
X357610D01*
Y124983D01*
Y125067D01*
X357695D01*
Y125152D01*
Y125237D01*
Y125322D01*
X357780D01*
Y125407D01*
Y125491D01*
Y125576D01*
X357864D01*
Y125661D01*
Y125745D01*
X357949D01*
Y125830D01*
Y125915D01*
Y126000D01*
X358034D01*
Y126084D01*
Y126169D01*
Y126254D01*
X358119D01*
Y126339D01*
X358204D01*
Y126424D01*
X358627D01*
Y126339D01*
D02*
G37*
G36*
X348373D02*
X348711D01*
Y126254D01*
X348796D01*
Y126169D01*
X348966D01*
Y126084D01*
Y126000D01*
X349050D01*
Y125915D01*
X349135D01*
Y125830D01*
Y125745D01*
Y125661D01*
Y125576D01*
X349220D01*
Y125491D01*
Y125407D01*
Y125322D01*
Y125237D01*
Y125152D01*
X349135D01*
Y125067D01*
Y124983D01*
Y124898D01*
Y124813D01*
X349050D01*
Y124729D01*
X348966D01*
Y124644D01*
Y124559D01*
X348881D01*
Y124474D01*
X348711D01*
Y124390D01*
X348542D01*
Y124305D01*
X347694D01*
Y124390D01*
X347525D01*
Y124474D01*
X347356D01*
Y124559D01*
X347271D01*
Y124644D01*
X347186D01*
Y124729D01*
Y124813D01*
X347101D01*
Y124898D01*
Y124983D01*
Y125067D01*
Y125152D01*
X347017D01*
Y125237D01*
Y125322D01*
Y125407D01*
Y125491D01*
Y125576D01*
Y125661D01*
X347101D01*
Y125745D01*
Y125830D01*
Y125915D01*
X347186D01*
Y126000D01*
X347271D01*
Y126084D01*
Y126169D01*
X347356D01*
Y126254D01*
X347525D01*
Y126339D01*
X347779D01*
Y126424D01*
X348373D01*
Y126339D01*
D02*
G37*
G36*
X128500Y213280D02*
X108500D01*
Y224720D01*
X128500D01*
Y213280D01*
D02*
G37*
G36*
X94950Y302150D02*
X54050D01*
Y310850D01*
X94950D01*
Y302150D01*
D02*
G37*
G36*
X100809Y213280D02*
X50809D01*
Y224720D01*
X100809D01*
Y213280D01*
D02*
G37*
G36*
X243469Y245199D02*
X244776D01*
Y244318D01*
X243469D01*
Y243000D01*
X242566D01*
Y244318D01*
X241259D01*
Y245199D01*
X242566D01*
Y246520D01*
X243469D01*
Y245199D01*
D02*
G37*
G36*
X280485Y243000D02*
X279038D01*
Y245845D01*
X280485D01*
Y243000D01*
D02*
G37*
G36*
X108531Y45137D02*
X108591Y45132D01*
X108602D01*
X108635Y45126D01*
X108673Y45115D01*
X108706Y45104D01*
X108711Y45099D01*
X108728Y45093D01*
X108749Y45077D01*
X108766Y45061D01*
X108771Y45055D01*
X108777Y45044D01*
X108782Y45028D01*
Y45006D01*
Y39650D01*
X109902D01*
X109923Y39639D01*
X109951Y39628D01*
X109956Y39622D01*
X109973Y39612D01*
X109989Y39590D01*
X110005Y39562D01*
X110011Y39557D01*
X110016Y39535D01*
X110027Y39502D01*
X110038Y39464D01*
X110044Y39453D01*
X110049Y39426D01*
X110055Y39377D01*
Y39317D01*
Y39311D01*
Y39300D01*
Y39284D01*
Y39268D01*
X110049Y39213D01*
X110038Y39164D01*
Y39153D01*
X110027Y39131D01*
X110016Y39098D01*
X110000Y39066D01*
X109994Y39060D01*
X109984Y39049D01*
X109967Y39033D01*
X109945Y39016D01*
X109940D01*
X109923Y39011D01*
X109902Y39006D01*
X109880Y39000D01*
X106675D01*
X106653Y39006D01*
X106631Y39016D01*
X106626Y39022D01*
X106615Y39027D01*
X106598Y39044D01*
X106576Y39066D01*
X106571Y39071D01*
X106565Y39093D01*
X106549Y39126D01*
X106538Y39164D01*
Y39169D01*
Y39175D01*
X106533Y39208D01*
X106527Y39257D01*
Y39317D01*
Y39322D01*
Y39333D01*
Y39349D01*
Y39366D01*
X106533Y39415D01*
X106538Y39464D01*
Y39470D01*
X106544Y39475D01*
X106549Y39497D01*
X106560Y39530D01*
X106571Y39562D01*
X106576Y39568D01*
X106587Y39590D01*
X106604Y39606D01*
X106626Y39628D01*
X106631Y39633D01*
X106647Y39639D01*
X106669Y39644D01*
X106697Y39650D01*
X107969D01*
Y44291D01*
X106784Y43586D01*
X106779D01*
X106767Y43581D01*
X106735Y43559D01*
X106686Y43543D01*
X106642Y43526D01*
X106609D01*
X106582Y43532D01*
X106555Y43548D01*
X106549Y43554D01*
X106538Y43576D01*
X106522Y43608D01*
X106511Y43652D01*
Y43657D01*
Y43663D01*
X106506Y43679D01*
Y43701D01*
X106500Y43756D01*
Y43827D01*
Y43832D01*
Y43843D01*
Y43876D01*
Y43920D01*
X106506Y43963D01*
Y43969D01*
Y43974D01*
X106511Y43996D01*
X106516Y44029D01*
X106522Y44061D01*
X106527Y44067D01*
X106533Y44083D01*
X106565Y44127D01*
X106571Y44132D01*
X106587Y44143D01*
X106609Y44160D01*
X106637Y44181D01*
X108040Y45082D01*
X108045Y45088D01*
X108056Y45093D01*
X108089Y45104D01*
X108094D01*
X108111Y45110D01*
X108133Y45121D01*
X108160Y45126D01*
X108165D01*
X108187Y45132D01*
X108220Y45137D01*
X108269D01*
X108296Y45142D01*
X108466D01*
X108531Y45137D01*
D02*
G37*
%LPC*%
G36*
X347101Y131763D02*
X346084D01*
Y131678D01*
Y131593D01*
Y131509D01*
Y131424D01*
Y131339D01*
Y131254D01*
Y131169D01*
Y131085D01*
Y131000D01*
Y130915D01*
Y130831D01*
Y130746D01*
X347101D01*
Y130831D01*
X347271D01*
Y130915D01*
X347356D01*
Y131000D01*
X347440D01*
Y131085D01*
Y131169D01*
Y131254D01*
Y131339D01*
Y131424D01*
Y131509D01*
X347356D01*
Y131593D01*
X347271D01*
Y131678D01*
X347101D01*
Y131763D01*
D02*
G37*
G36*
X351932Y130491D02*
X351339D01*
Y130407D01*
X351254D01*
Y130322D01*
X351169D01*
Y130237D01*
X351084D01*
Y130152D01*
Y130068D01*
X351000D01*
Y129983D01*
Y129898D01*
Y129814D01*
Y129729D01*
Y129644D01*
Y129559D01*
Y129474D01*
Y129390D01*
Y129305D01*
Y129220D01*
Y129136D01*
X351084D01*
Y129051D01*
Y128966D01*
X351169D01*
Y128881D01*
X351254D01*
Y128797D01*
X351339D01*
Y128712D01*
X351593D01*
Y128627D01*
X351678D01*
Y128712D01*
X352017D01*
Y128797D01*
X352101D01*
Y128881D01*
X352186D01*
Y128966D01*
X352271D01*
Y129051D01*
Y129136D01*
Y129220D01*
Y129305D01*
X352356D01*
Y129390D01*
Y129474D01*
Y129559D01*
Y129644D01*
Y129729D01*
Y129814D01*
Y129898D01*
Y129983D01*
X352271D01*
Y130068D01*
Y130152D01*
Y130237D01*
X352186D01*
Y130322D01*
X352101D01*
Y130407D01*
X351932D01*
Y130491D01*
D02*
G37*
G36*
X353373Y126000D02*
X353034D01*
Y125915D01*
Y125830D01*
Y125745D01*
Y125661D01*
Y125576D01*
Y125491D01*
X353288D01*
Y125576D01*
X353457D01*
Y125661D01*
Y125745D01*
Y125830D01*
Y125915D01*
X353373D01*
Y126000D01*
D02*
G37*
G36*
X358542Y125745D02*
X358458D01*
Y125661D01*
X358373D01*
Y125576D01*
Y125491D01*
Y125407D01*
X358288D01*
Y125322D01*
Y125237D01*
Y125152D01*
Y125067D01*
X358712D01*
Y125152D01*
Y125237D01*
Y125322D01*
X358627D01*
Y125407D01*
Y125491D01*
Y125576D01*
X358542D01*
Y125661D01*
Y125745D01*
D02*
G37*
G36*
X348373Y125915D02*
X347864D01*
Y125830D01*
X347779D01*
Y125745D01*
X347694D01*
Y125661D01*
Y125576D01*
Y125491D01*
Y125407D01*
Y125322D01*
Y125237D01*
Y125152D01*
Y125067D01*
Y124983D01*
X347779D01*
Y124898D01*
X347864D01*
Y124813D01*
X347949D01*
Y124729D01*
X348203D01*
Y124813D01*
X348373D01*
Y124898D01*
X348457D01*
Y124983D01*
Y125067D01*
X348542D01*
Y125152D01*
Y125237D01*
Y125322D01*
Y125407D01*
Y125491D01*
Y125576D01*
Y125661D01*
X348457D01*
Y125745D01*
Y125830D01*
X348373D01*
Y125915D01*
D02*
G37*
G36*
X111934Y221647D02*
X111882D01*
X111757Y221644D01*
X111635Y221633D01*
X111516Y221618D01*
X111401Y221599D01*
X111294Y221577D01*
X111191Y221547D01*
X111094Y221521D01*
X111006Y221492D01*
X110928Y221462D01*
X110854Y221437D01*
X110791Y221411D01*
X110739Y221385D01*
X110695Y221366D01*
X110665Y221351D01*
X110647Y221340D01*
X110639Y221337D01*
X110536Y221274D01*
X110440Y221207D01*
X110351Y221137D01*
X110266Y221063D01*
X110188Y220989D01*
X110118Y220915D01*
X110051Y220837D01*
X109996Y220767D01*
X109944Y220700D01*
X109896Y220634D01*
X109859Y220578D01*
X109825Y220530D01*
X109803Y220486D01*
X109785Y220456D01*
X109774Y220437D01*
X109770Y220430D01*
X109718Y220315D01*
X109670Y220201D01*
X109629Y220082D01*
X109596Y219964D01*
X109566Y219845D01*
X109540Y219727D01*
X109522Y219616D01*
X109503Y219512D01*
X109492Y219413D01*
X109481Y219320D01*
X109477Y219239D01*
X109470Y219168D01*
Y219113D01*
X109467Y219091D01*
Y221647D01*
D01*
Y216353D01*
X113995D01*
D01*
X111872D01*
X112020Y216356D01*
X112160Y216371D01*
X112293Y216393D01*
X112423Y216419D01*
X112541Y216453D01*
X112652Y216490D01*
X112756Y216530D01*
X112848Y216571D01*
X112933Y216612D01*
X113007Y216652D01*
X113074Y216689D01*
X113126Y216723D01*
X113170Y216748D01*
X113200Y216771D01*
X113218Y216786D01*
X113226Y216789D01*
X113326Y216878D01*
X113418Y216971D01*
X113503Y217070D01*
X113581Y217174D01*
X113651Y217281D01*
X113714Y217385D01*
X113770Y217489D01*
X113818Y217592D01*
X113862Y217688D01*
X113899Y217777D01*
X113929Y217855D01*
X113954Y217925D01*
X113973Y217981D01*
X113980Y218007D01*
X113984Y218025D01*
X113988Y218040D01*
X113992Y218051D01*
X113995Y218058D01*
Y218062D01*
X113318Y218232D01*
X113289Y218114D01*
X113255Y218007D01*
X113218Y217903D01*
X113174Y217810D01*
X113133Y217722D01*
X113085Y217640D01*
X113041Y217570D01*
X112996Y217503D01*
X112955Y217448D01*
X112915Y217396D01*
X112878Y217355D01*
X112845Y217322D01*
X112819Y217292D01*
X112800Y217274D01*
X112785Y217263D01*
X112782Y217259D01*
X112704Y217204D01*
X112626Y217152D01*
X112545Y217108D01*
X112463Y217070D01*
X112382Y217041D01*
X112301Y217015D01*
X112223Y216993D01*
X112149Y216974D01*
X112082Y216960D01*
X112016Y216952D01*
X111960Y216945D01*
X111912Y216937D01*
X111872D01*
X111842Y216934D01*
X111816D01*
X111731Y216937D01*
X111646Y216945D01*
X111564Y216956D01*
X111483Y216971D01*
X111409Y216989D01*
X111335Y217011D01*
X111268Y217030D01*
X111205Y217056D01*
X111150Y217078D01*
X111098Y217096D01*
X111054Y217119D01*
X111017Y217137D01*
X110987Y217152D01*
X110965Y217163D01*
X110950Y217170D01*
X110947Y217174D01*
X110872Y217222D01*
X110806Y217274D01*
X110743Y217329D01*
X110684Y217389D01*
X110632Y217448D01*
X110584Y217511D01*
X110539Y217570D01*
X110499Y217625D01*
X110466Y217681D01*
X110436Y217733D01*
X110410Y217781D01*
X110391Y217822D01*
X110373Y217855D01*
X110362Y217877D01*
X110358Y217896D01*
X110354Y217899D01*
X110321Y217992D01*
X110292Y218088D01*
X110266Y218184D01*
X110247Y218284D01*
X110210Y218473D01*
X110199Y218565D01*
X110188Y218654D01*
X110180Y218732D01*
X110177Y218806D01*
X110173Y218872D01*
X110169Y218928D01*
X110166Y218976D01*
Y219009D01*
Y219031D01*
Y219039D01*
X110169Y219135D01*
X110173Y219228D01*
X110192Y219405D01*
X110203Y219490D01*
X110218Y219572D01*
X110232Y219649D01*
X110247Y219720D01*
X110262Y219786D01*
X110273Y219845D01*
X110288Y219897D01*
X110299Y219942D01*
X110310Y219975D01*
X110318Y220001D01*
X110325Y220019D01*
Y220023D01*
X110358Y220112D01*
X110395Y220193D01*
X110436Y220271D01*
X110480Y220341D01*
X110525Y220411D01*
X110569Y220474D01*
X110617Y220530D01*
X110662Y220582D01*
X110706Y220626D01*
X110747Y220667D01*
X110784Y220700D01*
X110817Y220730D01*
X110843Y220752D01*
X110861Y220770D01*
X110876Y220778D01*
X110880Y220782D01*
X110958Y220833D01*
X111039Y220874D01*
X111120Y220915D01*
X111202Y220948D01*
X111287Y220974D01*
X111368Y220996D01*
X111446Y221015D01*
X111524Y221029D01*
X111594Y221044D01*
X111661Y221052D01*
X111720Y221059D01*
X111772Y221063D01*
X111812Y221066D01*
X111868D01*
X111964Y221063D01*
X112053Y221055D01*
X112138Y221044D01*
X112219Y221026D01*
X112293Y221007D01*
X112364Y220985D01*
X112426Y220963D01*
X112486Y220941D01*
X112537Y220915D01*
X112585Y220893D01*
X112626Y220870D01*
X112660Y220852D01*
X112685Y220833D01*
X112704Y220822D01*
X112715Y220815D01*
X112719Y220811D01*
X112782Y220759D01*
X112841Y220704D01*
X112893Y220641D01*
X112944Y220578D01*
X112993Y220508D01*
X113033Y220441D01*
X113074Y220374D01*
X113107Y220308D01*
X113137Y220245D01*
X113166Y220186D01*
X113189Y220134D01*
X113207Y220090D01*
X113222Y220049D01*
X113233Y220023D01*
X113237Y220005D01*
X113241Y219997D01*
X113906Y220153D01*
X113866Y220282D01*
X113814Y220404D01*
X113762Y220519D01*
X113703Y220626D01*
X113644Y220722D01*
X113584Y220815D01*
X113522Y220896D01*
X113462Y220970D01*
X113403Y221037D01*
X113351Y221092D01*
X113303Y221144D01*
X113259Y221181D01*
X113226Y221214D01*
X113196Y221237D01*
X113181Y221252D01*
X113174Y221255D01*
X113074Y221325D01*
X112970Y221385D01*
X112859Y221437D01*
X112752Y221481D01*
X112645Y221521D01*
X112537Y221551D01*
X112434Y221577D01*
X112334Y221599D01*
X112238Y221614D01*
X112153Y221625D01*
X112079Y221636D01*
X112012Y221640D01*
X111957Y221644D01*
X111934Y221647D01*
D02*
G37*
G36*
X127533Y221559D02*
X124337D01*
Y216438D01*
X127533D01*
Y217056D01*
Y217041D01*
X125014D01*
Y221559D01*
X127533D01*
D02*
G37*
G36*
X123711D02*
X119209D01*
Y216438D01*
X123711D01*
D01*
X122827Y217829D01*
X122727Y217977D01*
X122676Y218044D01*
X122627Y218110D01*
X122579Y218169D01*
X122531Y218225D01*
X122487Y218277D01*
X122446Y218325D01*
X122409Y218369D01*
X122372Y218406D01*
X122343Y218436D01*
X122317Y218465D01*
X122294Y218484D01*
X122280Y218502D01*
X122268Y218510D01*
X122265Y218513D01*
X122205Y218562D01*
X122143Y218606D01*
X122076Y218650D01*
X122009Y218687D01*
X121950Y218721D01*
X121924Y218735D01*
X121902Y218746D01*
X121884Y218758D01*
X121869Y218761D01*
X121861Y218769D01*
X121858D01*
X121991Y218791D01*
X122117Y218817D01*
X122231Y218850D01*
X122339Y218883D01*
X122435Y218924D01*
X122527Y218961D01*
X122605Y219002D01*
X122679Y219042D01*
X122742Y219083D01*
X122794Y219120D01*
X122842Y219153D01*
X122879Y219183D01*
X122908Y219209D01*
X122931Y219228D01*
X122942Y219239D01*
X122946Y219242D01*
X123008Y219313D01*
X123064Y219390D01*
X123112Y219464D01*
X123153Y219542D01*
X123186Y219620D01*
X123216Y219697D01*
X123238Y219772D01*
X123256Y219842D01*
X123271Y219908D01*
X123282Y219968D01*
X123290Y220023D01*
X123297Y220068D01*
Y220108D01*
X123301Y220138D01*
Y220153D01*
Y220160D01*
X123297Y220238D01*
X123293Y220315D01*
X123282Y220389D01*
X123267Y220460D01*
X123253Y220526D01*
X123234Y220589D01*
X123212Y220648D01*
X123194Y220704D01*
X123175Y220752D01*
X123153Y220796D01*
X123134Y220837D01*
X123119Y220870D01*
X123105Y220896D01*
X123097Y220915D01*
X123090Y220926D01*
X123086Y220930D01*
X123046Y220992D01*
X123001Y221052D01*
X122953Y221104D01*
X122908Y221155D01*
X122860Y221200D01*
X122812Y221240D01*
X122764Y221274D01*
X122720Y221307D01*
X122679Y221333D01*
X122638Y221355D01*
X122605Y221377D01*
X122575Y221392D01*
X122550Y221403D01*
X122531Y221411D01*
X122520Y221418D01*
X122516D01*
X122446Y221444D01*
X122368Y221466D01*
X122287Y221484D01*
X122205Y221499D01*
X122032Y221525D01*
X121947Y221533D01*
X121865Y221540D01*
X121784Y221547D01*
X121713Y221551D01*
X121647Y221555D01*
X121588D01*
X121543Y221559D01*
X123711D01*
D02*
G37*
G36*
X118502D02*
X114443D01*
Y216438D01*
X116807D01*
Y220955D01*
X118502D01*
Y221559D01*
D02*
G37*
%LPD*%
G36*
X109470Y218898D02*
X109477Y218765D01*
X109492Y218636D01*
X109507Y218513D01*
X109529Y218391D01*
X109552Y218280D01*
X109577Y218173D01*
X109603Y218073D01*
X109625Y217984D01*
X109651Y217903D01*
X109674Y217833D01*
X109696Y217774D01*
X109711Y217725D01*
X109725Y217692D01*
X109733Y217670D01*
X109737Y217666D01*
Y217662D01*
X109788Y217548D01*
X109848Y217437D01*
X109910Y217337D01*
X109973Y217241D01*
X110040Y217156D01*
X110107Y217074D01*
X110169Y217004D01*
X110232Y216937D01*
X110292Y216878D01*
X110347Y216830D01*
X110395Y216786D01*
X110440Y216752D01*
X110477Y216726D01*
X110502Y216704D01*
X110517Y216693D01*
X110525Y216689D01*
X110625Y216630D01*
X110732Y216578D01*
X110843Y216534D01*
X110954Y216493D01*
X111065Y216464D01*
X111179Y216434D01*
X111287Y216412D01*
X111394Y216393D01*
X111490Y216382D01*
X111583Y216371D01*
X111664Y216364D01*
X111734Y216356D01*
X111790D01*
X111816Y216353D01*
X109467D01*
Y219035D01*
X109470Y218898D01*
D02*
G37*
G36*
X121606Y220989D02*
X121702Y220981D01*
X121791Y220970D01*
X121873Y220955D01*
X121947Y220937D01*
X122017Y220918D01*
X122080Y220896D01*
X122132Y220874D01*
X122180Y220852D01*
X122220Y220830D01*
X122257Y220811D01*
X122287Y220793D01*
X122305Y220778D01*
X122324Y220767D01*
X122331Y220759D01*
X122335Y220756D01*
X122383Y220711D01*
X122424Y220663D01*
X122457Y220615D01*
X122491Y220563D01*
X122516Y220515D01*
X122535Y220463D01*
X122553Y220415D01*
X122568Y220371D01*
X122579Y220326D01*
X122587Y220286D01*
X122594Y220252D01*
X122598Y220219D01*
X122601Y220193D01*
Y220175D01*
Y220164D01*
Y220160D01*
X122594Y220068D01*
X122579Y219982D01*
X122557Y219905D01*
X122535Y219838D01*
X122509Y219782D01*
X122498Y219757D01*
X122487Y219738D01*
X122476Y219723D01*
X122472Y219712D01*
X122465Y219705D01*
Y219701D01*
X122409Y219627D01*
X122346Y219564D01*
X122280Y219512D01*
X122213Y219468D01*
X122154Y219435D01*
X122132Y219424D01*
X122109Y219413D01*
X122091Y219405D01*
X122076Y219398D01*
X122069Y219394D01*
X122065D01*
X122013Y219379D01*
X121961Y219364D01*
X121843Y219342D01*
X121721Y219324D01*
X121606Y219313D01*
X121551Y219309D01*
X121502Y219305D01*
X121454D01*
X121417Y219302D01*
X119886D01*
Y220992D01*
X121502D01*
X121606Y220989D01*
D02*
G37*
G36*
X120840Y218709D02*
X120907Y218706D01*
X120959Y218702D01*
X120996Y218695D01*
X121025Y218691D01*
X121044Y218687D01*
X121047D01*
X121107Y218669D01*
X121162Y218650D01*
X121214Y218624D01*
X121258Y218602D01*
X121299Y218584D01*
X121329Y218565D01*
X121347Y218554D01*
X121354Y218550D01*
X121414Y218510D01*
X121473Y218458D01*
X121528Y218399D01*
X121584Y218343D01*
X121628Y218291D01*
X121665Y218247D01*
X121680Y218229D01*
X121691Y218217D01*
X121695Y218210D01*
X121699Y218206D01*
X121736Y218158D01*
X121776Y218106D01*
X121858Y217995D01*
X121939Y217877D01*
X122017Y217762D01*
X122050Y217711D01*
X122083Y217662D01*
X122113Y217618D01*
X122139Y217577D01*
X122157Y217548D01*
X122172Y217522D01*
X122183Y217507D01*
X122187Y217503D01*
X122864Y216438D01*
X119886D01*
Y218713D01*
X120763D01*
X120840Y218709D01*
D02*
G37*
G36*
X116130Y216438D02*
X114443D01*
Y220955D01*
X116130D01*
Y216438D01*
D02*
G37*
%LPC*%
G36*
X60525Y309147D02*
X55996D01*
Y303853D01*
D01*
Y306535D01*
X56000Y306398D01*
X56007Y306265D01*
X56022Y306136D01*
X56037Y306013D01*
X56059Y305891D01*
X56081Y305780D01*
X56107Y305673D01*
X56133Y305573D01*
X56155Y305484D01*
X56181Y305403D01*
X56204Y305333D01*
X56226Y305274D01*
X56240Y305225D01*
X56255Y305192D01*
X56263Y305170D01*
X56266Y305166D01*
Y305162D01*
X56318Y305048D01*
X56377Y304937D01*
X56440Y304837D01*
X56503Y304741D01*
X56570Y304656D01*
X56636Y304574D01*
X56699Y304504D01*
X56762Y304437D01*
X56821Y304378D01*
X56877Y304330D01*
X56925Y304286D01*
X56969Y304252D01*
X57006Y304226D01*
X57032Y304204D01*
X57047Y304193D01*
X57055Y304189D01*
X57154Y304130D01*
X57262Y304078D01*
X57373Y304034D01*
X57484Y303993D01*
X57595Y303964D01*
X57709Y303934D01*
X57817Y303912D01*
X57924Y303893D01*
X58020Y303882D01*
X58113Y303871D01*
X58194Y303864D01*
X58264Y303856D01*
X58320D01*
X58346Y303853D01*
X58401D01*
X58549Y303856D01*
X58690Y303871D01*
X58823Y303893D01*
X58953Y303919D01*
X59071Y303953D01*
X59182Y303990D01*
X59286Y304030D01*
X59378Y304071D01*
X59463Y304112D01*
X59537Y304152D01*
X59604Y304189D01*
X59656Y304223D01*
X59700Y304248D01*
X59730Y304271D01*
X59748Y304286D01*
X59755Y304289D01*
X59855Y304378D01*
X59948Y304471D01*
X60033Y304570D01*
X60111Y304674D01*
X60181Y304781D01*
X60244Y304885D01*
X60299Y304989D01*
X60347Y305092D01*
X60392Y305188D01*
X60429Y305277D01*
X60458Y305355D01*
X60484Y305425D01*
X60503Y305481D01*
X60510Y305507D01*
X60514Y305525D01*
X60518Y305540D01*
X60521Y305551D01*
X60525Y305558D01*
Y305562D01*
X59848Y305732D01*
X59818Y305614D01*
X59785Y305507D01*
X59748Y305403D01*
X59704Y305310D01*
X59663Y305222D01*
X59615Y305140D01*
X59570Y305070D01*
X59526Y305003D01*
X59485Y304948D01*
X59445Y304896D01*
X59408Y304855D01*
X59374Y304822D01*
X59348Y304792D01*
X59330Y304774D01*
X59315Y304763D01*
X59311Y304759D01*
X59234Y304704D01*
X59156Y304652D01*
X59075Y304608D01*
X58993Y304570D01*
X58912Y304541D01*
X58830Y304515D01*
X58753Y304493D01*
X58679Y304474D01*
X58612Y304460D01*
X58546Y304452D01*
X58490Y304445D01*
X58442Y304437D01*
X58401D01*
X58372Y304434D01*
X58346D01*
X58261Y304437D01*
X58176Y304445D01*
X58094Y304456D01*
X58013Y304471D01*
X57939Y304489D01*
X57865Y304511D01*
X57798Y304530D01*
X57735Y304556D01*
X57680Y304578D01*
X57628Y304596D01*
X57584Y304619D01*
X57547Y304637D01*
X57517Y304652D01*
X57495Y304663D01*
X57480Y304670D01*
X57476Y304674D01*
X57402Y304722D01*
X57336Y304774D01*
X57273Y304829D01*
X57214Y304889D01*
X57162Y304948D01*
X57114Y305011D01*
X57069Y305070D01*
X57029Y305125D01*
X56995Y305181D01*
X56966Y305233D01*
X56940Y305281D01*
X56921Y305322D01*
X56903Y305355D01*
X56892Y305377D01*
X56888Y305396D01*
X56884Y305399D01*
X56851Y305492D01*
X56821Y305588D01*
X56796Y305684D01*
X56777Y305784D01*
X56740Y305973D01*
X56729Y306065D01*
X56718Y306154D01*
X56710Y306232D01*
X56707Y306306D01*
X56703Y306372D01*
X56699Y306428D01*
X56696Y306476D01*
Y306509D01*
Y306531D01*
Y306539D01*
X56699Y306635D01*
X56703Y306728D01*
X56722Y306905D01*
X56733Y306990D01*
X56747Y307072D01*
X56762Y307149D01*
X56777Y307220D01*
X56792Y307286D01*
X56803Y307345D01*
X56818Y307397D01*
X56829Y307442D01*
X56840Y307475D01*
X56847Y307501D01*
X56855Y307519D01*
Y307523D01*
X56888Y307612D01*
X56925Y307693D01*
X56966Y307771D01*
X57010Y307841D01*
X57055Y307911D01*
X57099Y307974D01*
X57147Y308030D01*
X57191Y308082D01*
X57236Y308126D01*
X57276Y308167D01*
X57314Y308200D01*
X57347Y308230D01*
X57373Y308252D01*
X57391Y308270D01*
X57406Y308278D01*
X57410Y308282D01*
X57487Y308333D01*
X57569Y308374D01*
X57650Y308415D01*
X57732Y308448D01*
X57817Y308474D01*
X57898Y308496D01*
X57976Y308515D01*
X58053Y308529D01*
X58124Y308544D01*
X58190Y308552D01*
X58250Y308559D01*
X58301Y308563D01*
X58342Y308566D01*
X58398D01*
X58494Y308563D01*
X58583Y308555D01*
X58668Y308544D01*
X58749Y308526D01*
X58823Y308507D01*
X58893Y308485D01*
X58956Y308463D01*
X59016Y308441D01*
X59067Y308415D01*
X59115Y308393D01*
X59156Y308370D01*
X59189Y308352D01*
X59215Y308333D01*
X59234Y308322D01*
X59245Y308315D01*
X59249Y308311D01*
X59311Y308259D01*
X59371Y308204D01*
X59422Y308141D01*
X59474Y308078D01*
X59522Y308008D01*
X59563Y307941D01*
X59604Y307874D01*
X59637Y307808D01*
X59667Y307745D01*
X59696Y307686D01*
X59719Y307634D01*
X59737Y307590D01*
X59752Y307549D01*
X59763Y307523D01*
X59767Y307505D01*
X59770Y307497D01*
X60436Y307653D01*
X60396Y307782D01*
X60344Y307904D01*
X60292Y308019D01*
X60233Y308126D01*
X60174Y308222D01*
X60114Y308315D01*
X60052Y308396D01*
X59992Y308470D01*
X59933Y308537D01*
X59881Y308592D01*
X59833Y308644D01*
X59789Y308681D01*
X59755Y308714D01*
X59726Y308737D01*
X59711Y308752D01*
X59704Y308755D01*
X59604Y308825D01*
X59500Y308885D01*
X59389Y308937D01*
X59282Y308981D01*
X59175Y309021D01*
X59067Y309051D01*
X58964Y309077D01*
X58864Y309099D01*
X58768Y309114D01*
X58683Y309125D01*
X58609Y309136D01*
X58542Y309140D01*
X58486Y309144D01*
X58464Y309147D01*
X60525D01*
D02*
G37*
G36*
X63633D02*
X63600D01*
X63500Y309144D01*
X63404Y309140D01*
X63307Y309129D01*
X63215Y309118D01*
X63037Y309081D01*
X62867Y309036D01*
X62712Y308981D01*
X62568Y308918D01*
X62434Y308855D01*
X62312Y308788D01*
X62205Y308718D01*
X62109Y308655D01*
X62027Y308592D01*
X61961Y308541D01*
X61905Y308492D01*
X61883Y308474D01*
X61868Y308455D01*
X61853Y308444D01*
X61842Y308433D01*
X61839Y308430D01*
X61835Y308426D01*
X61772Y308355D01*
X61713Y308285D01*
X61661Y308211D01*
X61609Y308134D01*
X61517Y307974D01*
X61439Y307812D01*
X61372Y307645D01*
X61317Y307479D01*
X61273Y307316D01*
X61235Y307157D01*
X61210Y307009D01*
X61187Y306872D01*
X61180Y306809D01*
X61173Y306750D01*
X61165Y306694D01*
X61162Y306643D01*
X61158Y306594D01*
X61154Y306554D01*
Y306517D01*
X61150Y306487D01*
Y309147D01*
D01*
D01*
Y303853D01*
D01*
Y306432D01*
X61154Y306306D01*
X61162Y306184D01*
X61176Y306065D01*
X61195Y305947D01*
X61217Y305836D01*
X61243Y305732D01*
X61269Y305632D01*
X61298Y305540D01*
X61324Y305455D01*
X61350Y305381D01*
X61376Y305314D01*
X61398Y305259D01*
X61417Y305211D01*
X61432Y305177D01*
X61439Y305159D01*
X61443Y305151D01*
X61502Y305040D01*
X61565Y304937D01*
X61631Y304840D01*
X61702Y304748D01*
X61772Y304663D01*
X61842Y304585D01*
X61916Y304515D01*
X61983Y304448D01*
X62050Y304393D01*
X62109Y304341D01*
X62164Y304300D01*
X62212Y304263D01*
X62249Y304237D01*
X62279Y304215D01*
X62297Y304204D01*
X62305Y304201D01*
X62412Y304138D01*
X62523Y304086D01*
X62638Y304038D01*
X62749Y304001D01*
X62856Y303967D01*
X62963Y303938D01*
X63067Y303916D01*
X63167Y303897D01*
X63256Y303882D01*
X63341Y303871D01*
X63415Y303864D01*
X63478Y303860D01*
X63529Y303856D01*
X63566Y303853D01*
X66049D01*
X63600D01*
X63722Y303856D01*
X63844Y303868D01*
X63962Y303882D01*
X64073Y303901D01*
X64184Y303927D01*
X64284Y303953D01*
X64381Y303982D01*
X64473Y304012D01*
X64554Y304038D01*
X64625Y304067D01*
X64688Y304093D01*
X64743Y304119D01*
X64784Y304138D01*
X64817Y304152D01*
X64836Y304164D01*
X64843Y304167D01*
X64947Y304230D01*
X65047Y304297D01*
X65139Y304371D01*
X65228Y304445D01*
X65306Y304522D01*
X65380Y304600D01*
X65446Y304674D01*
X65505Y304748D01*
X65557Y304818D01*
X65605Y304885D01*
X65646Y304944D01*
X65675Y304996D01*
X65701Y305037D01*
X65720Y305070D01*
X65731Y305088D01*
X65735Y305096D01*
X65790Y305214D01*
X65838Y305333D01*
X65879Y305451D01*
X65916Y305573D01*
X65946Y305692D01*
X65971Y305806D01*
X65994Y305917D01*
X66009Y306025D01*
X66023Y306121D01*
X66034Y306213D01*
X66038Y306291D01*
X66045Y306358D01*
Y306413D01*
X66049Y306439D01*
Y306491D01*
X66045Y306631D01*
X66038Y306768D01*
X66023Y306902D01*
X66001Y307027D01*
X65979Y307149D01*
X65953Y307260D01*
X65927Y307368D01*
X65901Y307464D01*
X65872Y307553D01*
X65846Y307630D01*
X65820Y307701D01*
X65798Y307756D01*
X65779Y307804D01*
X65764Y307838D01*
X65753Y307856D01*
X65750Y307863D01*
X65690Y307974D01*
X65627Y308078D01*
X65557Y308174D01*
X65487Y308267D01*
X65417Y308352D01*
X65342Y308430D01*
X65272Y308500D01*
X65202Y308563D01*
X65135Y308618D01*
X65076Y308670D01*
X65021Y308711D01*
X64973Y308744D01*
X64935Y308774D01*
X64906Y308792D01*
X64887Y308803D01*
X64880Y308807D01*
X64773Y308866D01*
X64662Y308918D01*
X64551Y308966D01*
X64440Y309003D01*
X64332Y309036D01*
X64225Y309066D01*
X64122Y309088D01*
X64025Y309107D01*
X63937Y309118D01*
X63855Y309129D01*
X63781Y309136D01*
X63718Y309144D01*
X63670D01*
X63633Y309147D01*
D02*
G37*
G36*
X87631Y309059D02*
X86980D01*
Y305037D01*
X84294Y309059D01*
X83598D01*
Y303938D01*
X87631D01*
Y309059D01*
D02*
G37*
G36*
X77749Y309059D02*
X76835D01*
X75606Y305495D01*
X75573Y305396D01*
X75540Y305303D01*
X75514Y305218D01*
X75484Y305136D01*
X75462Y305063D01*
X75440Y304996D01*
X75418Y304937D01*
X75399Y304881D01*
X75384Y304833D01*
X75370Y304792D01*
X75358Y304755D01*
X75351Y304726D01*
X75344Y304704D01*
X75336Y304689D01*
X75332Y304678D01*
Y304674D01*
X75318Y304726D01*
X75299Y304778D01*
X75281Y304837D01*
X75262Y304900D01*
X75222Y305026D01*
X75181Y305148D01*
X75162Y305207D01*
X75144Y305259D01*
X75129Y305307D01*
X75114Y305351D01*
X75103Y305384D01*
X75096Y305410D01*
X75092Y305425D01*
X75088Y305433D01*
X73875Y309059D01*
X74830D01*
X72857D01*
Y303938D01*
X73512D01*
Y308296D01*
X74988Y303938D01*
X75603D01*
X77094Y308222D01*
Y303938D01*
X76267D01*
X77749D01*
Y309059D01*
D02*
G37*
G36*
X71792D02*
X70878D01*
X69649Y305495D01*
X69616Y305396D01*
X69583Y305303D01*
X69557Y305218D01*
X69527Y305136D01*
X69505Y305063D01*
X69483Y304996D01*
X69461Y304937D01*
X69442Y304881D01*
X69427Y304833D01*
X69412Y304792D01*
X69401Y304755D01*
X69394Y304726D01*
X69387Y304704D01*
X69379Y304689D01*
X69375Y304678D01*
Y304674D01*
X69361Y304726D01*
X69342Y304778D01*
X69324Y304837D01*
X69305Y304900D01*
X69265Y305026D01*
X69224Y305148D01*
X69205Y305207D01*
X69187Y305259D01*
X69172Y305307D01*
X69157Y305351D01*
X69146Y305384D01*
X69139Y305410D01*
X69135Y305425D01*
X69131Y305433D01*
X67918Y309059D01*
X68872D01*
X66900D01*
Y303938D01*
X67555D01*
Y308296D01*
X69031Y303938D01*
X69646D01*
X71137Y308222D01*
Y303938D01*
X70310D01*
X71792D01*
Y309059D01*
D02*
G37*
G36*
X90632Y309059D02*
X88771D01*
Y303938D01*
X93004D01*
D01*
X90617D01*
X90784Y303941D01*
X90865Y303945D01*
X90939Y303953D01*
X91013Y303956D01*
X91080Y303964D01*
X91143Y303971D01*
X91202Y303982D01*
X91254Y303990D01*
X91302Y303997D01*
X91342Y304004D01*
X91376Y304008D01*
X91402Y304015D01*
X91424Y304019D01*
X91435Y304023D01*
X91439D01*
X91568Y304060D01*
X91686Y304101D01*
X91738Y304123D01*
X91790Y304141D01*
X91834Y304164D01*
X91879Y304186D01*
X91916Y304204D01*
X91949Y304223D01*
X91979Y304238D01*
X92005Y304252D01*
X92023Y304263D01*
X92038Y304271D01*
X92045Y304278D01*
X92049D01*
X92142Y304348D01*
X92230Y304422D01*
X92308Y304500D01*
X92378Y304574D01*
X92434Y304641D01*
X92460Y304670D01*
X92478Y304696D01*
X92493Y304715D01*
X92504Y304733D01*
X92512Y304741D01*
X92515Y304744D01*
X92593Y304863D01*
X92660Y304985D01*
X92722Y305111D01*
X92771Y305229D01*
X92793Y305281D01*
X92811Y305333D01*
X92830Y305377D01*
X92841Y305414D01*
X92852Y305444D01*
X92859Y305470D01*
X92867Y305484D01*
Y305488D01*
X92911Y305662D01*
X92945Y305840D01*
X92970Y306013D01*
X92978Y306099D01*
X92985Y306176D01*
X92993Y306250D01*
X92996Y306317D01*
X93000Y306376D01*
Y306424D01*
X93004Y306469D01*
Y306524D01*
X93000Y306650D01*
X92996Y306772D01*
X92985Y306890D01*
X92970Y307001D01*
X92956Y307109D01*
X92941Y307209D01*
X92922Y307305D01*
X92904Y307390D01*
X92882Y307468D01*
X92863Y307538D01*
X92848Y307597D01*
X92834Y307649D01*
X92819Y307690D01*
X92808Y307716D01*
X92804Y307734D01*
X92800Y307741D01*
X92760Y307838D01*
X92715Y307934D01*
X92671Y308019D01*
X92623Y308104D01*
X92571Y308182D01*
X92519Y308252D01*
X92471Y308319D01*
X92423Y308382D01*
X92375Y308433D01*
X92334Y308481D01*
X92293Y308522D01*
X92260Y308555D01*
X92234Y308581D01*
X92212Y308604D01*
X92197Y308615D01*
X92193Y308618D01*
X92134Y308666D01*
X92071Y308711D01*
X91945Y308785D01*
X91820Y308851D01*
X91705Y308899D01*
X91650Y308922D01*
X91601Y308937D01*
X91557Y308951D01*
X91520Y308966D01*
X91487Y308974D01*
X91465Y308981D01*
X91450Y308985D01*
X91446D01*
X91383Y308999D01*
X91316Y309011D01*
X91246Y309018D01*
X91172Y309029D01*
X91021Y309040D01*
X90873Y309051D01*
X90802D01*
X90739Y309055D01*
X90680D01*
X90632Y309059D01*
D02*
G37*
G36*
X80971Y309059D02*
X80246D01*
X78281Y303938D01*
X78996D01*
X79554Y305488D01*
X81704D01*
X82296Y303938D01*
X81471D01*
X83065Y303938D01*
X80971Y309059D01*
D02*
G37*
%LPD*%
G36*
X58287Y309144D02*
X58165Y309133D01*
X58046Y309118D01*
X57931Y309099D01*
X57824Y309077D01*
X57721Y309047D01*
X57624Y309021D01*
X57535Y308992D01*
X57458Y308962D01*
X57384Y308937D01*
X57321Y308911D01*
X57269Y308885D01*
X57225Y308866D01*
X57195Y308851D01*
X57177Y308840D01*
X57169Y308837D01*
X57066Y308774D01*
X56969Y308707D01*
X56881Y308637D01*
X56796Y308563D01*
X56718Y308489D01*
X56647Y308415D01*
X56581Y308337D01*
X56525Y308267D01*
X56474Y308200D01*
X56425Y308134D01*
X56388Y308078D01*
X56355Y308030D01*
X56333Y307986D01*
X56314Y307956D01*
X56303Y307937D01*
X56300Y307930D01*
X56248Y307815D01*
X56200Y307701D01*
X56159Y307582D01*
X56126Y307464D01*
X56096Y307345D01*
X56070Y307227D01*
X56052Y307116D01*
X56033Y307012D01*
X56022Y306913D01*
X56011Y306820D01*
X56007Y306739D01*
X56000Y306668D01*
Y306613D01*
X55996Y306591D01*
Y309147D01*
X58412D01*
X58287Y309144D01*
D02*
G37*
G36*
X63696Y308559D02*
X63788Y308552D01*
X63877Y308541D01*
X63959Y308522D01*
X64040Y308504D01*
X64114Y308481D01*
X64184Y308459D01*
X64251Y308433D01*
X64310Y308411D01*
X64362Y308385D01*
X64406Y308363D01*
X64447Y308345D01*
X64477Y308326D01*
X64499Y308315D01*
X64514Y308308D01*
X64517Y308304D01*
X64591Y308252D01*
X64662Y308200D01*
X64725Y308141D01*
X64788Y308082D01*
X64843Y308023D01*
X64891Y307963D01*
X64939Y307904D01*
X64980Y307849D01*
X65017Y307793D01*
X65047Y307745D01*
X65072Y307697D01*
X65095Y307660D01*
X65113Y307627D01*
X65124Y307604D01*
X65132Y307586D01*
X65135Y307582D01*
X65172Y307493D01*
X65206Y307401D01*
X65235Y307308D01*
X65261Y307216D01*
X65280Y307123D01*
X65298Y307035D01*
X65313Y306946D01*
X65324Y306864D01*
X65331Y306787D01*
X65339Y306716D01*
X65342Y306653D01*
X65346Y306598D01*
X65350Y306554D01*
Y306520D01*
Y306502D01*
Y306494D01*
X65346Y306313D01*
X65328Y306147D01*
X65306Y305988D01*
X65272Y305840D01*
X65235Y305703D01*
X65194Y305577D01*
X65150Y305466D01*
X65102Y305362D01*
X65058Y305270D01*
X65009Y305192D01*
X64969Y305125D01*
X64932Y305070D01*
X64899Y305026D01*
X64876Y304996D01*
X64862Y304977D01*
X64854Y304970D01*
X64758Y304878D01*
X64658Y304792D01*
X64554Y304722D01*
X64447Y304659D01*
X64344Y304608D01*
X64240Y304563D01*
X64136Y304530D01*
X64040Y304500D01*
X63948Y304478D01*
X63863Y304463D01*
X63788Y304448D01*
X63722Y304441D01*
X63670Y304437D01*
X63648D01*
X63629Y304434D01*
X63596D01*
X63459Y304441D01*
X63326Y304456D01*
X63200Y304482D01*
X63086Y304515D01*
X62975Y304556D01*
X62871Y304600D01*
X62775Y304648D01*
X62690Y304700D01*
X62612Y304748D01*
X62542Y304796D01*
X62486Y304840D01*
X62434Y304881D01*
X62397Y304915D01*
X62368Y304941D01*
X62353Y304955D01*
X62345Y304963D01*
X62257Y305066D01*
X62183Y305177D01*
X62116Y305296D01*
X62061Y305414D01*
X62012Y305536D01*
X61972Y305658D01*
X61939Y305777D01*
X61913Y305891D01*
X61890Y305999D01*
X61876Y306099D01*
X61865Y306191D01*
X61857Y306269D01*
X61853Y306302D01*
Y306332D01*
Y306358D01*
X61850Y306380D01*
Y306398D01*
Y306409D01*
Y306417D01*
Y306420D01*
Y306528D01*
X61857Y306628D01*
X61861Y306728D01*
X61872Y306824D01*
X61883Y306913D01*
X61898Y307001D01*
X61931Y307164D01*
X61972Y307312D01*
X62012Y307449D01*
X62061Y307571D01*
X62109Y307679D01*
X62157Y307771D01*
X62205Y307849D01*
X62249Y307919D01*
X62286Y307971D01*
X62320Y308015D01*
X62345Y308045D01*
X62360Y308060D01*
X62368Y308067D01*
X62468Y308156D01*
X62571Y308230D01*
X62675Y308296D01*
X62778Y308355D01*
X62886Y308400D01*
X62986Y308441D01*
X63086Y308474D01*
X63182Y308500D01*
X63267Y308522D01*
X63348Y308537D01*
X63422Y308548D01*
X63485Y308555D01*
X63533Y308559D01*
X63570Y308563D01*
X63604D01*
X63696Y308559D01*
D02*
G37*
G36*
X86932Y303938D02*
X84250D01*
Y307956D01*
X86932Y303938D01*
D02*
G37*
G36*
X90732Y308452D02*
X90824Y308444D01*
X90913Y308441D01*
X90991Y308430D01*
X91065Y308422D01*
X91128Y308411D01*
X91187Y308404D01*
X91235Y308393D01*
X91280Y308382D01*
X91316Y308374D01*
X91346Y308367D01*
X91368Y308359D01*
X91387Y308352D01*
X91394Y308348D01*
X91398D01*
X91468Y308319D01*
X91535Y308282D01*
X91598Y308241D01*
X91657Y308196D01*
X91712Y308148D01*
X91768Y308100D01*
X91816Y308052D01*
X91860Y308004D01*
X91901Y307956D01*
X91934Y307912D01*
X91964Y307871D01*
X91990Y307838D01*
X92012Y307808D01*
X92027Y307786D01*
X92034Y307771D01*
X92038Y307767D01*
X92086Y307682D01*
X92127Y307590D01*
X92160Y307493D01*
X92193Y307394D01*
X92219Y307290D01*
X92238Y307190D01*
X92256Y307086D01*
X92271Y306990D01*
X92282Y306898D01*
X92290Y306813D01*
X92297Y306735D01*
X92301Y306668D01*
X92304Y306613D01*
Y306591D01*
Y306572D01*
Y306554D01*
Y306543D01*
Y306539D01*
Y306535D01*
Y306428D01*
X92297Y306324D01*
X92293Y306228D01*
X92282Y306136D01*
X92271Y306050D01*
X92260Y305969D01*
X92249Y305891D01*
X92238Y305825D01*
X92223Y305762D01*
X92212Y305706D01*
X92201Y305658D01*
X92190Y305621D01*
X92179Y305588D01*
X92175Y305566D01*
X92168Y305551D01*
Y305547D01*
X92142Y305473D01*
X92112Y305403D01*
X92082Y305336D01*
X92053Y305274D01*
X92023Y305218D01*
X91990Y305163D01*
X91960Y305114D01*
X91931Y305070D01*
X91901Y305033D01*
X91875Y304996D01*
X91853Y304966D01*
X91834Y304944D01*
X91816Y304926D01*
X91805Y304911D01*
X91798Y304904D01*
X91794Y304900D01*
X91724Y304841D01*
X91650Y304785D01*
X91572Y304741D01*
X91498Y304704D01*
X91431Y304674D01*
X91405Y304659D01*
X91379Y304652D01*
X91361Y304644D01*
X91342Y304637D01*
X91335Y304633D01*
X91331D01*
X91276Y304619D01*
X91217Y304604D01*
X91087Y304582D01*
X90954Y304563D01*
X90828Y304552D01*
X90769Y304548D01*
X90713Y304545D01*
X90665D01*
X90625Y304541D01*
X89448D01*
Y308455D01*
X90632D01*
X90732Y308452D01*
D02*
G37*
G36*
X80612Y308441D02*
X80638Y308355D01*
X80698Y308178D01*
X80757Y308000D01*
X80786Y307915D01*
X80816Y307834D01*
X80845Y307756D01*
X80868Y307682D01*
X80894Y307619D01*
X80912Y307564D01*
X80931Y307519D01*
X80942Y307486D01*
X80949Y307464D01*
X80953Y307460D01*
Y307456D01*
X81489Y306039D01*
X79750D01*
X80313Y307542D01*
X80376Y307723D01*
X80431Y307901D01*
X80457Y307986D01*
X80479Y308063D01*
X80498Y308141D01*
X80520Y308215D01*
X80535Y308282D01*
X80550Y308341D01*
X80561Y308393D01*
X80572Y308437D01*
X80579Y308474D01*
X80586Y308500D01*
X80590Y308515D01*
Y308522D01*
X80612Y308441D01*
D02*
G37*
%LPC*%
G36*
X79615Y221647D02*
X79581D01*
X79482Y221644D01*
X79385Y221640D01*
X79289Y221629D01*
X79197Y221618D01*
X79019Y221581D01*
X78849Y221536D01*
X78693Y221481D01*
X78549Y221418D01*
X78416Y221355D01*
X78294Y221288D01*
X78187Y221218D01*
X78090Y221155D01*
X78009Y221092D01*
X77942Y221041D01*
X77887Y220992D01*
X77865Y220974D01*
X77850Y220955D01*
X77835Y220944D01*
X77824Y220933D01*
X77820Y220930D01*
X77816Y220926D01*
X77754Y220855D01*
X77694Y220785D01*
X77643Y220711D01*
X77591Y220634D01*
X77498Y220474D01*
X77421Y220312D01*
X77354Y220145D01*
X77299Y219979D01*
X77254Y219816D01*
X77217Y219657D01*
X77191Y219509D01*
X77169Y219372D01*
X77162Y219309D01*
X77154Y219250D01*
X77147Y219194D01*
X77143Y219143D01*
X77139Y219094D01*
X77136Y219054D01*
Y219017D01*
X77132Y218987D01*
Y221647D01*
D01*
Y216353D01*
X82031Y216353D01*
D01*
X79581D01*
X79703Y216356D01*
X79826Y216368D01*
X79944Y216382D01*
X80055Y216401D01*
X80166Y216427D01*
X80266Y216453D01*
X80362Y216482D01*
X80455Y216512D01*
X80536Y216538D01*
X80606Y216567D01*
X80669Y216593D01*
X80725Y216619D01*
X80765Y216638D01*
X80799Y216652D01*
X80817Y216664D01*
X80825Y216667D01*
X80928Y216730D01*
X81028Y216797D01*
X81121Y216871D01*
X81209Y216945D01*
X81287Y217022D01*
X81361Y217100D01*
X81428Y217174D01*
X81487Y217248D01*
X81539Y217318D01*
X81587Y217385D01*
X81628Y217444D01*
X81657Y217496D01*
X81683Y217537D01*
X81701Y217570D01*
X81713Y217588D01*
X81716Y217596D01*
X81772Y217714D01*
X81820Y217833D01*
X81861Y217951D01*
X81898Y218073D01*
X81927Y218192D01*
X81953Y218306D01*
X81975Y218417D01*
X81990Y218525D01*
X82005Y218621D01*
X82016Y218713D01*
X82020Y218791D01*
X82027Y218858D01*
Y218913D01*
X82031Y218939D01*
Y218991D01*
X82027Y219131D01*
X82020Y219268D01*
X82005Y219402D01*
X81983Y219527D01*
X81961Y219649D01*
X81935Y219760D01*
X81909Y219868D01*
X81883Y219964D01*
X81853Y220053D01*
X81827Y220130D01*
X81801Y220201D01*
X81779Y220256D01*
X81761Y220304D01*
X81746Y220338D01*
X81735Y220356D01*
X81731Y220363D01*
X81672Y220475D01*
X81609Y220578D01*
X81539Y220674D01*
X81468Y220767D01*
X81398Y220852D01*
X81324Y220930D01*
X81254Y221000D01*
X81184Y221063D01*
X81117Y221118D01*
X81058Y221170D01*
X81002Y221211D01*
X80954Y221244D01*
X80917Y221274D01*
X80888Y221292D01*
X80869Y221303D01*
X80862Y221307D01*
X80754Y221366D01*
X80643Y221418D01*
X80532Y221466D01*
X80421Y221503D01*
X80314Y221536D01*
X80207Y221566D01*
X80103Y221588D01*
X80007Y221607D01*
X79918Y221618D01*
X79837Y221629D01*
X79763Y221636D01*
X79700Y221644D01*
X79652D01*
X79615Y221647D01*
D02*
G37*
G36*
X69443Y221559D02*
X68792D01*
Y217537D01*
X66106Y221559D01*
X65411D01*
Y216438D01*
X69443D01*
Y221559D01*
D02*
G37*
G36*
X57574D02*
X56660D01*
X55432Y217995D01*
X55398Y217896D01*
X55365Y217803D01*
X55339Y217718D01*
X55309Y217636D01*
X55287Y217563D01*
X55265Y217496D01*
X55243Y217437D01*
X55224Y217381D01*
X55210Y217333D01*
X55195Y217292D01*
X55184Y217255D01*
X55176Y217226D01*
X55169Y217204D01*
X55161Y217189D01*
X55158Y217178D01*
Y217174D01*
X55143Y217226D01*
X55124Y217278D01*
X55106Y217337D01*
X55088Y217400D01*
X55047Y217526D01*
X55006Y217648D01*
X54988Y217707D01*
X54969Y217759D01*
X54954Y217807D01*
X54939Y217851D01*
X54928Y217884D01*
X54921Y217910D01*
X54917Y217925D01*
X54914Y217933D01*
X53700Y221559D01*
X52682D01*
Y216438D01*
X57574D01*
Y221559D01*
D02*
G37*
G36*
X89024Y221559D02*
X88339D01*
X87537Y218266D01*
X87507Y218151D01*
X87481Y218036D01*
X87455Y217929D01*
X87433Y217825D01*
X87407Y217729D01*
X87388Y217637D01*
X87370Y217551D01*
X87351Y217474D01*
X87337Y217404D01*
X87322Y217337D01*
X87311Y217285D01*
X87300Y217237D01*
X87292Y217200D01*
X87285Y217174D01*
X87281Y217159D01*
Y217152D01*
X87229Y217474D01*
X87166Y217792D01*
X87133Y217947D01*
X87100Y218099D01*
X87067Y218240D01*
X87033Y218377D01*
X87004Y218502D01*
X86974Y218613D01*
X86948Y218717D01*
X86937Y218761D01*
X86926Y218802D01*
X86915Y218839D01*
X86907Y218869D01*
X86900Y218898D01*
X86893Y218920D01*
X86889Y218939D01*
X86885Y218954D01*
X86882Y218961D01*
Y218965D01*
X86149Y221559D01*
X85331D01*
X84362Y218099D01*
X84358Y218084D01*
X84354Y218070D01*
X84340Y218021D01*
X84329Y217966D01*
X84310Y217899D01*
X84291Y217825D01*
X84273Y217744D01*
X84232Y217577D01*
X84210Y217496D01*
X84192Y217418D01*
X84177Y217348D01*
X84158Y217281D01*
X84147Y217230D01*
X84144Y217207D01*
X84136Y217189D01*
X84132Y217174D01*
Y217163D01*
X84129Y217156D01*
Y217152D01*
X84092Y217348D01*
X84055Y217537D01*
X84036Y217625D01*
X84018Y217714D01*
X84003Y217796D01*
X83985Y217870D01*
X83970Y217940D01*
X83955Y218007D01*
X83944Y218062D01*
X83933Y218110D01*
X83922Y218147D01*
X83918Y218177D01*
X83911Y218192D01*
Y218199D01*
X83134Y221559D01*
X82442D01*
X83792Y216438D01*
X82442D01*
Y221559D01*
Y216438D01*
X89024D01*
X87618D01*
X89024Y221559D01*
D02*
G37*
G36*
X96768D02*
X94433D01*
Y216438D01*
X98936D01*
D01*
X98052Y217829D01*
X97952Y217977D01*
X97900Y218044D01*
X97852Y218110D01*
X97804Y218169D01*
X97756Y218225D01*
X97711Y218277D01*
X97671Y218325D01*
X97634Y218369D01*
X97597Y218406D01*
X97567Y218436D01*
X97541Y218465D01*
X97519Y218484D01*
X97504Y218502D01*
X97493Y218510D01*
X97489Y218513D01*
X97430Y218562D01*
X97367Y218606D01*
X97301Y218650D01*
X97234Y218687D01*
X97175Y218721D01*
X97149Y218736D01*
X97127Y218747D01*
X97108Y218758D01*
X97094Y218761D01*
X97086Y218769D01*
X97082D01*
X97216Y218791D01*
X97341Y218817D01*
X97456Y218850D01*
X97563Y218883D01*
X97660Y218924D01*
X97752Y218961D01*
X97830Y219002D01*
X97904Y219043D01*
X97967Y219083D01*
X98019Y219120D01*
X98067Y219154D01*
X98104Y219183D01*
X98133Y219209D01*
X98155Y219228D01*
X98167Y219239D01*
X98170Y219242D01*
X98233Y219313D01*
X98289Y219390D01*
X98337Y219464D01*
X98377Y219542D01*
X98411Y219620D01*
X98440Y219697D01*
X98462Y219772D01*
X98481Y219842D01*
X98496Y219908D01*
X98507Y219968D01*
X98514Y220023D01*
X98522Y220068D01*
Y220108D01*
X98526Y220138D01*
Y220153D01*
Y220160D01*
X98522Y220238D01*
X98518Y220315D01*
X98507Y220389D01*
X98492Y220460D01*
X98477Y220526D01*
X98459Y220589D01*
X98437Y220648D01*
X98418Y220704D01*
X98400Y220752D01*
X98377Y220796D01*
X98359Y220837D01*
X98344Y220870D01*
X98329Y220896D01*
X98322Y220915D01*
X98314Y220926D01*
X98311Y220930D01*
X98270Y220992D01*
X98226Y221052D01*
X98178Y221104D01*
X98133Y221155D01*
X98085Y221200D01*
X98037Y221240D01*
X97989Y221274D01*
X97945Y221307D01*
X97904Y221333D01*
X97863Y221355D01*
X97830Y221377D01*
X97800Y221392D01*
X97774Y221403D01*
X97756Y221411D01*
X97745Y221418D01*
X97741D01*
X97671Y221444D01*
X97593Y221466D01*
X97512Y221485D01*
X97430Y221499D01*
X97256Y221525D01*
X97171Y221533D01*
X97090Y221540D01*
X97009Y221548D01*
X96938Y221551D01*
X96872Y221555D01*
X96812D01*
X96768Y221559D01*
D02*
G37*
G36*
X93368D02*
X89668D01*
Y216438D01*
X93486D01*
Y217041D01*
X90345D01*
Y218784D01*
X93175D01*
Y219387D01*
X90345D01*
Y220955D01*
X93368D01*
Y221559D01*
D02*
G37*
G36*
X74624Y221559D02*
X72570D01*
Y216438D01*
X73247D01*
Y218521D01*
X74657D01*
X74753Y218525D01*
X74845Y218532D01*
X74934Y218539D01*
X75019Y218550D01*
X75101Y218562D01*
X75252Y218591D01*
X75386Y218624D01*
X75511Y218665D01*
X75619Y218706D01*
X75715Y218746D01*
X75800Y218787D01*
X75870Y218828D01*
X75929Y218869D01*
X75978Y218902D01*
X76015Y218932D01*
X76041Y218954D01*
X76055Y218969D01*
X76059Y218972D01*
X76133Y219057D01*
X76196Y219150D01*
X76251Y219242D01*
X76300Y219335D01*
X76340Y219427D01*
X76374Y219520D01*
X76403Y219609D01*
X76425Y219694D01*
X76444Y219772D01*
X76455Y219845D01*
X76466Y219908D01*
X76470Y219968D01*
X76473Y220012D01*
X76477Y220045D01*
Y220075D01*
X76470Y220216D01*
X76451Y220345D01*
X76440Y220408D01*
X76429Y220463D01*
X76414Y220519D01*
X76399Y220567D01*
X76385Y220611D01*
X76370Y220652D01*
X76359Y220689D01*
X76348Y220719D01*
X76336Y220741D01*
X76329Y220759D01*
X76326Y220770D01*
X76322Y220774D01*
X76259Y220885D01*
X76192Y220985D01*
X76122Y221070D01*
X76089Y221107D01*
X76059Y221141D01*
X76029Y221170D01*
X76000Y221196D01*
X75974Y221218D01*
X75952Y221233D01*
X75937Y221248D01*
X75922Y221259D01*
X75915Y221263D01*
X75911Y221266D01*
X75811Y221329D01*
X75704Y221377D01*
X75600Y221422D01*
X75500Y221455D01*
X75452Y221466D01*
X75411Y221477D01*
X75375Y221488D01*
X75341Y221496D01*
X75315Y221499D01*
X75297Y221503D01*
X75282Y221507D01*
X75278D01*
X75226Y221514D01*
X75167Y221525D01*
X75042Y221536D01*
X74912Y221547D01*
X74786Y221551D01*
X74727Y221555D01*
X74675D01*
X74624Y221559D01*
D02*
G37*
G36*
X64223D02*
X63546D01*
Y216438D01*
X64223D01*
Y221559D01*
D02*
G37*
G36*
X60797D02*
X60071D01*
X58107Y216438D01*
X58821D01*
X59379Y217988D01*
X61529D01*
X62121Y216438D01*
X59108D01*
X62891D01*
D01*
X60797Y221559D01*
D02*
G37*
G36*
X58107D02*
Y216438D01*
D01*
Y221559D01*
D02*
G37*
%LPD*%
G36*
X79678Y221059D02*
X79770Y221052D01*
X79859Y221041D01*
X79940Y221022D01*
X80022Y221004D01*
X80096Y220981D01*
X80166Y220959D01*
X80233Y220933D01*
X80292Y220911D01*
X80344Y220885D01*
X80388Y220863D01*
X80429Y220845D01*
X80458Y220826D01*
X80481Y220815D01*
X80495Y220808D01*
X80499Y220804D01*
X80573Y220752D01*
X80643Y220700D01*
X80706Y220641D01*
X80769Y220582D01*
X80825Y220523D01*
X80873Y220463D01*
X80921Y220404D01*
X80962Y220349D01*
X80999Y220293D01*
X81028Y220245D01*
X81054Y220197D01*
X81076Y220160D01*
X81095Y220127D01*
X81106Y220105D01*
X81113Y220086D01*
X81117Y220082D01*
X81154Y219993D01*
X81187Y219901D01*
X81217Y219809D01*
X81243Y219716D01*
X81261Y219623D01*
X81280Y219535D01*
X81295Y219446D01*
X81306Y219365D01*
X81313Y219287D01*
X81321Y219216D01*
X81324Y219154D01*
X81328Y219098D01*
X81332Y219054D01*
Y219020D01*
Y219002D01*
Y218994D01*
X81328Y218813D01*
X81309Y218647D01*
X81287Y218488D01*
X81254Y218340D01*
X81217Y218203D01*
X81176Y218077D01*
X81132Y217966D01*
X81084Y217862D01*
X81039Y217770D01*
X80991Y217692D01*
X80950Y217625D01*
X80914Y217570D01*
X80880Y217526D01*
X80858Y217496D01*
X80843Y217477D01*
X80836Y217470D01*
X80739Y217378D01*
X80640Y217292D01*
X80536Y217222D01*
X80429Y217159D01*
X80325Y217108D01*
X80222Y217063D01*
X80118Y217030D01*
X80022Y217000D01*
X79929Y216978D01*
X79844Y216963D01*
X79770Y216948D01*
X79703Y216941D01*
X79652Y216937D01*
X79629D01*
X79611Y216934D01*
X79578D01*
X79441Y216941D01*
X79308Y216956D01*
X79182Y216982D01*
X79067Y217015D01*
X78956Y217056D01*
X78852Y217100D01*
X78756Y217148D01*
X78671Y217200D01*
X78594Y217248D01*
X78523Y217296D01*
X78468Y217340D01*
X78416Y217381D01*
X78379Y217415D01*
X78349Y217441D01*
X78335Y217455D01*
X78327Y217463D01*
X78238Y217566D01*
X78164Y217677D01*
X78098Y217796D01*
X78042Y217914D01*
X77994Y218036D01*
X77953Y218158D01*
X77920Y218277D01*
X77894Y218391D01*
X77872Y218499D01*
X77857Y218599D01*
X77846Y218691D01*
X77839Y218769D01*
X77835Y218802D01*
Y218832D01*
Y218858D01*
X77831Y218880D01*
Y218898D01*
Y218909D01*
Y218917D01*
Y218920D01*
Y219028D01*
X77839Y219128D01*
X77842Y219228D01*
X77854Y219324D01*
X77865Y219413D01*
X77879Y219501D01*
X77913Y219664D01*
X77953Y219812D01*
X77994Y219949D01*
X78042Y220071D01*
X78090Y220179D01*
X78139Y220271D01*
X78187Y220349D01*
X78231Y220419D01*
X78268Y220471D01*
X78301Y220515D01*
X78327Y220545D01*
X78342Y220560D01*
X78349Y220567D01*
X78449Y220656D01*
X78553Y220730D01*
X78656Y220796D01*
X78760Y220855D01*
X78867Y220900D01*
X78967Y220941D01*
X79067Y220974D01*
X79163Y221000D01*
X79248Y221022D01*
X79330Y221037D01*
X79404Y221048D01*
X79467Y221055D01*
X79515Y221059D01*
X79552Y221063D01*
X79585D01*
X79678Y221059D01*
D02*
G37*
G36*
X77136Y218806D02*
X77143Y218684D01*
X77158Y218565D01*
X77176Y218447D01*
X77199Y218336D01*
X77224Y218232D01*
X77250Y218132D01*
X77280Y218040D01*
X77306Y217955D01*
X77332Y217881D01*
X77358Y217814D01*
X77380Y217759D01*
X77399Y217711D01*
X77413Y217677D01*
X77421Y217659D01*
X77424Y217651D01*
X77484Y217540D01*
X77547Y217437D01*
X77613Y217340D01*
X77683Y217248D01*
X77754Y217163D01*
X77824Y217085D01*
X77898Y217015D01*
X77965Y216948D01*
X78031Y216893D01*
X78090Y216841D01*
X78146Y216800D01*
X78194Y216763D01*
X78231Y216737D01*
X78261Y216715D01*
X78279Y216704D01*
X78286Y216701D01*
X78394Y216638D01*
X78505Y216586D01*
X78619Y216538D01*
X78730Y216501D01*
X78838Y216467D01*
X78945Y216438D01*
X79049Y216416D01*
X79149Y216397D01*
X79237Y216382D01*
X79322Y216371D01*
X79396Y216364D01*
X79459Y216360D01*
X79511Y216356D01*
X79548Y216353D01*
X77132Y216353D01*
Y218932D01*
X77136Y218806D01*
D02*
G37*
G36*
X68744Y216438D02*
X66062D01*
Y220456D01*
X68744Y216438D01*
D02*
G37*
G36*
X56919D02*
X55428D01*
X56919Y220722D01*
Y216438D01*
D02*
G37*
G36*
X54814D02*
X53337D01*
Y220796D01*
X54814Y216438D01*
D02*
G37*
G36*
X85731Y220911D02*
X85738Y220878D01*
X85749Y220841D01*
X85760Y220796D01*
X85775Y220748D01*
X85786Y220700D01*
X85816Y220597D01*
X85831Y220545D01*
X85846Y220497D01*
X85857Y220456D01*
X85868Y220415D01*
X85875Y220382D01*
X85883Y220360D01*
X85890Y220345D01*
Y220338D01*
X86959Y216438D01*
X84495D01*
X85572Y220338D01*
X85598Y220434D01*
X85624Y220537D01*
X85650Y220637D01*
X85672Y220730D01*
X85683Y220774D01*
X85694Y220811D01*
X85701Y220848D01*
X85709Y220878D01*
X85716Y220904D01*
X85720Y220922D01*
X85724Y220933D01*
Y220937D01*
X85731Y220911D01*
D02*
G37*
G36*
X96831Y220989D02*
X96927Y220981D01*
X97016Y220970D01*
X97097Y220955D01*
X97171Y220937D01*
X97241Y220918D01*
X97304Y220896D01*
X97356Y220874D01*
X97404Y220852D01*
X97445Y220830D01*
X97482Y220811D01*
X97512Y220793D01*
X97530Y220778D01*
X97549Y220767D01*
X97556Y220759D01*
X97560Y220756D01*
X97608Y220711D01*
X97649Y220663D01*
X97682Y220615D01*
X97715Y220563D01*
X97741Y220515D01*
X97760Y220463D01*
X97778Y220415D01*
X97793Y220371D01*
X97804Y220326D01*
X97811Y220286D01*
X97819Y220252D01*
X97822Y220219D01*
X97826Y220193D01*
Y220175D01*
Y220164D01*
Y220160D01*
X97819Y220068D01*
X97804Y219982D01*
X97782Y219905D01*
X97760Y219838D01*
X97734Y219783D01*
X97723Y219757D01*
X97711Y219738D01*
X97700Y219723D01*
X97697Y219712D01*
X97689Y219705D01*
Y219701D01*
X97634Y219627D01*
X97571Y219564D01*
X97504Y219513D01*
X97438Y219468D01*
X97378Y219435D01*
X97356Y219424D01*
X97334Y219413D01*
X97316Y219405D01*
X97301Y219398D01*
X97293Y219394D01*
X97290D01*
X97238Y219379D01*
X97186Y219365D01*
X97068Y219342D01*
X96946Y219324D01*
X96831Y219313D01*
X96775Y219309D01*
X96727Y219305D01*
X96679D01*
X96642Y219302D01*
X95110D01*
Y220992D01*
X96727D01*
X96831Y220989D01*
D02*
G37*
G36*
X96065Y218710D02*
X96132Y218706D01*
X96183Y218702D01*
X96220Y218695D01*
X96250Y218691D01*
X96268Y218687D01*
X96272D01*
X96331Y218669D01*
X96387Y218650D01*
X96439Y218624D01*
X96483Y218602D01*
X96524Y218584D01*
X96553Y218565D01*
X96572Y218554D01*
X96579Y218550D01*
X96639Y218510D01*
X96698Y218458D01*
X96753Y218399D01*
X96809Y218343D01*
X96853Y218291D01*
X96890Y218247D01*
X96905Y218229D01*
X96916Y218217D01*
X96920Y218210D01*
X96923Y218206D01*
X96960Y218158D01*
X97001Y218107D01*
X97082Y217996D01*
X97164Y217877D01*
X97241Y217762D01*
X97275Y217711D01*
X97308Y217663D01*
X97338Y217618D01*
X97364Y217577D01*
X97382Y217548D01*
X97397Y217522D01*
X97408Y217507D01*
X97412Y217503D01*
X98089Y216438D01*
X95110D01*
Y218713D01*
X95987D01*
X96065Y218710D01*
D02*
G37*
G36*
X74712Y220952D02*
X74783D01*
X74845Y220948D01*
X74905Y220944D01*
X74956Y220941D01*
X75001Y220937D01*
X75042Y220933D01*
X75078Y220926D01*
X75108Y220922D01*
X75134Y220918D01*
X75152Y220915D01*
X75167Y220911D01*
X75178D01*
X75182Y220907D01*
X75186D01*
X75282Y220874D01*
X75367Y220830D01*
X75437Y220778D01*
X75500Y220730D01*
X75548Y220682D01*
X75586Y220641D01*
X75597Y220626D01*
X75608Y220615D01*
X75615Y220608D01*
Y220604D01*
X75645Y220560D01*
X75671Y220515D01*
X75708Y220423D01*
X75737Y220330D01*
X75759Y220245D01*
X75763Y220208D01*
X75770Y220171D01*
X75774Y220138D01*
Y220112D01*
X75778Y220086D01*
Y220071D01*
Y220060D01*
Y220056D01*
X75774Y219975D01*
X75767Y219901D01*
X75752Y219827D01*
X75734Y219760D01*
X75715Y219701D01*
X75689Y219642D01*
X75667Y219594D01*
X75641Y219546D01*
X75615Y219505D01*
X75589Y219468D01*
X75563Y219439D01*
X75545Y219413D01*
X75526Y219394D01*
X75511Y219379D01*
X75504Y219372D01*
X75500Y219368D01*
X75445Y219324D01*
X75382Y219287D01*
X75312Y219253D01*
X75238Y219228D01*
X75160Y219202D01*
X75082Y219183D01*
X74931Y219153D01*
X74857Y219146D01*
X74790Y219139D01*
X74727Y219131D01*
X74675Y219128D01*
X74631Y219124D01*
X73247D01*
Y220955D01*
X74638D01*
X74712Y220952D01*
D02*
G37*
G36*
X60438Y220941D02*
X60464Y220855D01*
X60523Y220678D01*
X60582Y220500D01*
X60611Y220415D01*
X60641Y220334D01*
X60671Y220256D01*
X60693Y220182D01*
X60719Y220119D01*
X60737Y220064D01*
X60756Y220019D01*
X60767Y219986D01*
X60774Y219964D01*
X60778Y219960D01*
Y219956D01*
X61314Y218539D01*
X59575D01*
X60138Y220042D01*
X60201Y220223D01*
X60256Y220401D01*
X60282Y220486D01*
X60304Y220563D01*
X60323Y220641D01*
X60345Y220715D01*
X60360Y220782D01*
X60375Y220841D01*
X60386Y220893D01*
X60397Y220937D01*
X60404Y220974D01*
X60412Y221000D01*
X60415Y221015D01*
Y221022D01*
X60438Y220941D01*
D02*
G37*
D10*
X318587Y342300D02*
X318043Y343049D01*
X317163Y342763D01*
Y341837D01*
X318043Y341551D01*
X318587Y342300D01*
X187855Y281500D02*
X200800D01*
Y304500D01*
X180200D02*
X200800D01*
X180200Y281500D02*
Y304500D01*
Y281500D02*
X187855D01*
D11*
X321637Y342500D02*
X321513Y343479D01*
X321150Y344397D01*
X320570Y345195D01*
X319810Y345824D01*
X318917Y346244D01*
X317947Y346429D01*
X316962Y346367D01*
X316024Y346062D01*
X315191Y345533D01*
X314515Y344814D01*
X314039Y343949D01*
X313794Y342993D01*
Y342007D01*
X314039Y341051D01*
X314515Y340186D01*
X315191Y339467D01*
X316024Y338938D01*
X316962Y338633D01*
X317947Y338571D01*
X318917Y338756D01*
X319810Y339176D01*
X320570Y339805D01*
X321150Y340603D01*
X321513Y341521D01*
X321637Y342500D01*
X340500Y101500D02*
X339543Y101310D01*
X338732Y100768D01*
X338190Y99957D01*
X338000Y99000D01*
X338190Y98043D01*
X338732Y97232D01*
X339543Y96690D01*
X340500Y96500D01*
X57100Y2000D02*
X109000D01*
Y32900D01*
X57100Y2000D02*
Y32900D01*
X109000D01*
X57700Y3300D02*
X108500D01*
X312400Y337000D02*
X323100D01*
X312400D02*
Y348437D01*
X323055Y283476D02*
Y373200D01*
X271874Y283476D02*
Y373200D01*
Y373240D02*
X322574D01*
X271875Y283476D02*
X323055D01*
X271874Y348437D02*
X323055D01*
X320600Y350700D02*
Y370200D01*
X311300D02*
X320600D01*
X311300Y361100D02*
Y370200D01*
X303400Y361100D02*
X311300D01*
X303400D02*
Y370100D01*
X294100D02*
X303400D01*
X294100Y361100D02*
Y370100D01*
X285100Y361100D02*
X294100D01*
X285100D02*
Y370000D01*
X276400D02*
X285100D01*
X276400D02*
X276500Y369900D01*
X276400Y361100D02*
Y370000D01*
X316236Y350652D02*
Y370151D01*
X212500Y33000D02*
Y35000D01*
X201500Y33000D02*
X212500D01*
X201500D02*
Y35000D01*
X212500D01*
X106449Y330051D02*
Y339992D01*
Y314008D02*
Y323949D01*
X137551Y317551D02*
Y323949D01*
X134008Y314008D02*
X137551Y317551D01*
X106449Y314008D02*
X134008D01*
X137551Y330051D02*
Y336350D01*
X133909Y339992D02*
X137551Y336350D01*
X106449Y339992D02*
X133909D01*
X301400Y51000D02*
Y52000D01*
X308900Y51000D02*
Y52000D01*
X301400Y51000D02*
X308900D01*
Y52000D02*
X334500D01*
Y6000D02*
Y52000D01*
X274500Y6000D02*
X334500D01*
X274500D02*
Y52000D01*
X301400D01*
X311000Y159000D02*
Y195200D01*
Y202700D02*
Y239000D01*
X358500D01*
X311000Y159000D02*
X358500D01*
Y239000D01*
X312500Y195200D02*
Y202500D01*
X311000Y195200D02*
X312500D01*
X311000Y202500D02*
X312500D01*
X340500Y101500D02*
Y105500D01*
Y92500D02*
Y96500D01*
X313500Y92500D02*
Y105500D01*
Y102000D02*
Y121500D01*
Y122500D01*
X340500D01*
Y104500D02*
Y122500D01*
Y73500D02*
Y92500D01*
X313500Y73500D02*
X340500D01*
X313500D02*
Y93000D01*
X36248Y206752D02*
Y318248D01*
X4852Y206752D02*
Y318248D01*
X2390Y206752D02*
Y318248D01*
Y206752D02*
X36248D01*
X2390Y318248D02*
X36248D01*
X36748Y36252D02*
Y127748D01*
X5252Y36252D02*
Y127748D01*
X2890Y36252D02*
Y127748D01*
X36748D01*
X2890Y36252D02*
X36748D01*
X2890Y131252D02*
X36748D01*
X2890Y202748D02*
X36748D01*
Y131252D02*
Y202748D01*
X2890Y131252D02*
Y202748D01*
X5252Y131252D02*
Y202748D01*
X218500Y271500D02*
X220500D01*
X218500D02*
Y282500D01*
X220500D01*
Y271500D02*
Y282500D01*
X160500Y269000D02*
X162500D01*
X160500D02*
Y280000D01*
X162500D01*
Y269000D02*
Y280000D01*
X158500Y192000D02*
X160500D01*
X158500D02*
Y203000D01*
X160500D01*
Y192000D02*
Y203000D01*
X239500Y336000D02*
X241500D01*
Y325000D02*
Y336000D01*
X239500Y325000D02*
X241500D01*
X239500D02*
Y336000D01*
X160500Y245500D02*
X162500D01*
X160500D02*
Y256500D01*
X162500D01*
Y245500D02*
Y256500D01*
Y162000D02*
X164500D01*
X162500D02*
Y173000D01*
X164500D01*
Y162000D02*
Y173000D01*
X244000Y32500D02*
Y34500D01*
X233000Y32500D02*
X244000D01*
X233000D02*
Y34500D01*
X244000D01*
X240000Y54000D02*
X239334Y53334D01*
X238001D01*
X237334Y52667D01*
X267500Y54000D02*
X266834Y53334D01*
X265501D01*
X264834Y52667D01*
X311000Y57500D02*
Y55501D01*
Y56500D01*
X316998D01*
X315998Y57500D01*
X305500Y217000D02*
X307499D01*
X306500D01*
Y222998D01*
X305500Y221998D01*
X41586Y210800D02*
Y209467D01*
Y210134D01*
X45585D01*
X44918Y210800D01*
X41700Y35400D02*
Y34067D01*
Y34734D01*
X45699D01*
X45032Y35400D01*
X41200Y137200D02*
Y135867D01*
Y136533D01*
X45199D01*
X44532Y137200D01*
X42000Y346999D02*
Y343000D01*
X43999D01*
X44666Y343666D01*
Y344333D01*
X43999Y344999D01*
X42000D01*
X43999D01*
X44666Y345666D01*
Y346332D01*
X43999Y346999D01*
X42000D01*
X45999Y343000D02*
Y346999D01*
X47998D01*
X48665Y346332D01*
Y344999D01*
X47998Y344333D01*
X45999D01*
X47332D02*
X48665Y343000D01*
X49997D02*
Y345666D01*
X51330Y346999D01*
X52663Y345666D01*
Y343000D01*
Y344999D01*
X49997D01*
X60661Y343000D02*
X57995D01*
X60661Y345666D01*
Y346332D01*
X59994Y346999D01*
X58661D01*
X57995Y346332D01*
X61994D02*
X62660Y346999D01*
X63993D01*
X64659Y346332D01*
Y343666D01*
X63993Y343000D01*
X62660D01*
X61994Y343666D01*
Y346332D01*
X68658Y343000D02*
X65992D01*
X68658Y345666D01*
Y346332D01*
X67992Y346999D01*
X66659D01*
X65992Y346332D01*
X69991Y343000D02*
X71324D01*
X70657D01*
Y346999D01*
X69991Y346332D01*
X77322D02*
X77988Y346999D01*
X79321D01*
X79988Y346332D01*
Y343666D01*
X79321Y343000D01*
X77988D01*
X77322Y343666D01*
Y346332D01*
X81321D02*
X81987Y346999D01*
X83320D01*
X83987Y346332D01*
Y345666D01*
X83320Y344999D01*
X82653D01*
X83320D01*
X83987Y344333D01*
Y343666D01*
X83320Y343000D01*
X81987D01*
X81321Y343666D01*
X89318Y346332D02*
X89985Y346999D01*
X91317D01*
X91984Y346332D01*
Y343666D01*
X91317Y343000D01*
X89985D01*
X89318Y343666D01*
Y346332D01*
X95316Y343000D02*
Y346999D01*
X93317Y344999D01*
X95983D01*
X130500Y17500D02*
X132499D01*
X131500D01*
Y23498D01*
X130500Y22498D01*
X135498Y17500D02*
Y21499D01*
X137498Y23498D01*
X139497Y21499D01*
Y17500D01*
Y20499D01*
X135498D01*
X96900Y51634D02*
Y54300D01*
X99566Y51634D01*
X100232D01*
X100899Y52301D01*
Y53634D01*
X100232Y54300D01*
X96900Y48302D02*
X100899D01*
X98899Y50301D01*
Y47635D01*
X100232Y46303D02*
X100899Y45636D01*
Y44303D01*
X100232Y43637D01*
X97566D01*
X96900Y44303D01*
Y45636D01*
X97566Y46303D01*
X100232D01*
X100899Y42304D02*
X98233D01*
X96900Y40971D01*
X98233Y39638D01*
X100899D01*
X45032Y304534D02*
X45699Y305201D01*
Y306534D01*
X45032Y307200D01*
X42366D01*
X41700Y306534D01*
Y305201D01*
X42366Y304534D01*
X43699D01*
Y305867D01*
X41700Y303201D02*
X45699D01*
X41700Y300535D01*
X45699D01*
Y299203D02*
X41700D01*
Y297203D01*
X42366Y296537D01*
X45032D01*
X45699Y297203D01*
Y299203D01*
Y290700D02*
X41700D01*
Y288034D01*
X45699Y284035D02*
Y286701D01*
X41700D01*
Y284035D01*
X43699Y286701D02*
Y285368D01*
X45699Y282703D02*
X43033D01*
X41700Y281370D01*
X43033Y280037D01*
X45699D01*
Y276038D02*
Y278704D01*
X41700D01*
Y276038D01*
X43699Y278704D02*
Y277371D01*
X45699Y274705D02*
X41700D01*
Y272039D01*
X45032Y244034D02*
X45699Y244701D01*
Y246034D01*
X45032Y246700D01*
X42366D01*
X41700Y246034D01*
Y244701D01*
X42366Y244034D01*
X45699Y240702D02*
Y242035D01*
X45032Y242701D01*
X42366D01*
X41700Y242035D01*
Y240702D01*
X42366Y240036D01*
X45032D01*
X45699Y240702D01*
X41700Y238703D02*
X45699D01*
X44366Y237370D01*
X45699Y236037D01*
X41700D01*
X41700Y224200D02*
X45699D01*
X41700Y221534D01*
X45699D01*
X45032Y217535D02*
X45699Y218202D01*
Y219535D01*
X45032Y220201D01*
X42366D01*
X41700Y219535D01*
Y218202D01*
X42366Y217535D01*
X42000Y264000D02*
X45999D01*
X42000Y261334D01*
X45999D01*
Y258002D02*
Y259335D01*
X45332Y260001D01*
X42666D01*
X42000Y259335D01*
Y258002D01*
X42666Y257335D01*
X45332D01*
X45999Y258002D01*
X43332Y167834D02*
X43999Y168501D01*
Y169834D01*
X43332Y170500D01*
X40666D01*
X40000Y169834D01*
Y168501D01*
X40666Y167834D01*
X43999Y164502D02*
Y165835D01*
X43332Y166501D01*
X40666D01*
X40000Y165835D01*
Y164502D01*
X40666Y163836D01*
X43332D01*
X43999Y164502D01*
X40000Y162503D02*
X43999D01*
X42666Y161170D01*
X43999Y159837D01*
X40000D01*
X41400Y150000D02*
X45399D01*
X41400Y147334D01*
X45399D01*
X44732Y143335D02*
X45399Y144002D01*
Y145335D01*
X44732Y146001D01*
X42066D01*
X41400Y145335D01*
Y144002D01*
X42066Y143335D01*
X40000Y198000D02*
X43999D01*
X40000Y195334D01*
X43999D01*
Y192002D02*
Y193335D01*
X43332Y194001D01*
X40666D01*
X40000Y193335D01*
Y192002D01*
X40666Y191335D01*
X43332D01*
X43999Y192002D01*
X45299Y113500D02*
X41300D01*
Y111501D01*
X41966Y110834D01*
X42633D01*
X43299Y111501D01*
Y113500D01*
Y111501D01*
X43966Y110834D01*
X44632D01*
X45299Y111501D01*
Y113500D01*
Y109501D02*
X41966D01*
X41300Y108835D01*
Y107502D01*
X41966Y106835D01*
X45299D01*
X44632Y102837D02*
X45299Y103503D01*
Y104836D01*
X44632Y105503D01*
X43966D01*
X43299Y104836D01*
Y103503D01*
X42633Y102837D01*
X41966D01*
X41300Y103503D01*
Y104836D01*
X41966Y105503D01*
X45299Y101504D02*
X44632D01*
X43299Y100171D01*
X44632Y98838D01*
X45299D01*
X43299Y100171D02*
X41300D01*
X45299Y93506D02*
Y92173D01*
Y92840D01*
X41300D01*
Y93506D01*
Y92173D01*
Y90174D02*
X43966Y87508D01*
X45299Y84176D02*
Y85509D01*
X44632Y86176D01*
X41966D01*
X41300Y85509D01*
Y84176D01*
X41966Y83510D01*
X44632D01*
X45299Y84176D01*
Y73200D02*
X41300D01*
Y71201D01*
X41966Y70534D01*
X42633D01*
X43299Y71201D01*
Y73200D01*
Y71201D01*
X43966Y70534D01*
X44632D01*
X45299Y71201D01*
Y73200D01*
Y69201D02*
X41966D01*
X41300Y68535D01*
Y67202D01*
X41966Y66536D01*
X45299D01*
X44632Y62537D02*
X45299Y63203D01*
Y64536D01*
X44632Y65203D01*
X43966D01*
X43299Y64536D01*
Y63203D01*
X42633Y62537D01*
X41966D01*
X41300Y63203D01*
Y64536D01*
X41966Y65203D01*
X45299Y61204D02*
X44632D01*
X43299Y59871D01*
X44632Y58538D01*
X45299D01*
X43299Y59871D02*
X41300D01*
X45299Y53206D02*
Y51873D01*
Y52540D01*
X41300D01*
Y53206D01*
Y51873D01*
Y49874D02*
X43966Y47208D01*
X45299Y43876D02*
Y45209D01*
X44632Y45875D01*
X41966D01*
X41300Y45209D01*
Y43876D01*
X41966Y43210D01*
X44632D01*
X45299Y43876D01*
X66400Y51634D02*
Y54300D01*
X69066Y51634D01*
X69732D01*
X70399Y52301D01*
Y53634D01*
X69732Y54300D01*
X66400Y48302D02*
X70399D01*
X68399Y50301D01*
Y47635D01*
X69732Y46303D02*
X70399Y45636D01*
Y44303D01*
X69732Y43637D01*
X67066D01*
X66400Y44303D01*
Y45636D01*
X67066Y46303D01*
X69732D01*
X70399Y42304D02*
X67733D01*
X66400Y40971D01*
X67733Y39638D01*
X70399D01*
X56729Y324500D02*
X54063D01*
X56729Y327166D01*
Y327832D01*
X56062Y328499D01*
X54729D01*
X54063Y327832D01*
X58062D02*
X58728Y328499D01*
X60061D01*
X60728Y327832D01*
Y325166D01*
X60061Y324500D01*
X58728D01*
X58062Y325166D01*
Y327832D01*
X64726Y324500D02*
X62060D01*
X64726Y327166D01*
Y327832D01*
X64060Y328499D01*
X62727D01*
X62060Y327832D01*
X66059Y324500D02*
X67392D01*
X66726D01*
Y328499D01*
X66059Y327832D01*
X73390D02*
X74057Y328499D01*
X75389D01*
X76056Y327832D01*
Y325166D01*
X75389Y324500D01*
X74057D01*
X73390Y325166D01*
Y327832D01*
X77389Y325166D02*
X78055Y324500D01*
X79388D01*
X80055Y325166D01*
Y327832D01*
X79388Y328499D01*
X78055D01*
X77389Y327832D01*
Y327166D01*
X78055Y326499D01*
X80055D01*
X275000Y61500D02*
Y67498D01*
X277999D01*
X278999Y66498D01*
Y64499D01*
X277999Y63499D01*
X275000D01*
X284997Y67498D02*
X280998D01*
Y64499D01*
X282997Y65499D01*
X283997D01*
X284997Y64499D01*
Y62500D01*
X283997Y61500D01*
X281998D01*
X280998Y62500D01*
X305500Y243400D02*
Y249398D01*
X308499D01*
X309499Y248398D01*
Y246399D01*
X308499Y245399D01*
X305500D01*
X315497Y249398D02*
X313497Y248398D01*
X311498Y246399D01*
Y244400D01*
X312498Y243400D01*
X314497D01*
X315497Y244400D01*
Y245399D01*
X314497Y246399D01*
X311498D01*
X231999Y21165D02*
X227001D01*
Y18666D01*
X227834Y17833D01*
X231166D01*
X231999Y18666D01*
Y21165D01*
X227834Y16167D02*
X227001Y15334D01*
Y13668D01*
X227834Y12835D01*
X231166D01*
X231999Y13668D01*
Y15334D01*
X231166Y16167D01*
X230333D01*
X229500Y15334D01*
Y12835D01*
X248335Y351999D02*
Y347834D01*
X249168Y347001D01*
X250834D01*
X251667Y347834D01*
Y351999D01*
X253333Y351166D02*
X254166Y351999D01*
X255832D01*
X256665Y351166D01*
Y350333D01*
X255832Y349500D01*
X254999D01*
X255832D01*
X256665Y348667D01*
Y347834D01*
X255832Y347001D01*
X254166D01*
X253333Y347834D01*
X112001Y23498D02*
X117999D01*
Y20499D01*
X116999Y19500D01*
X115000D01*
X114000Y20499D01*
Y23498D01*
X112001Y14501D02*
X117999D01*
X115000Y17500D01*
Y13502D01*
X193002Y241501D02*
Y247499D01*
X196001D01*
X197001Y246499D01*
Y244500D01*
X196001Y243500D01*
X193002D01*
X199000Y247499D02*
Y242501D01*
X200000Y241501D01*
X201999D01*
X202999Y242501D01*
Y247499D01*
X204998Y241501D02*
X206998D01*
X205998D01*
Y247499D01*
X204998Y246499D01*
X46001Y181665D02*
X50999D01*
Y179166D01*
X50166Y178333D01*
X48500D01*
X47667Y179166D01*
Y181665D01*
X46001Y173335D02*
Y176667D01*
X49333Y173335D01*
X50166D01*
X50999Y174168D01*
Y175834D01*
X50166Y176667D01*
X47501Y272166D02*
X51499D01*
Y270166D01*
X50833Y269500D01*
X49500D01*
X48834Y270166D01*
Y272166D01*
X47501Y268167D02*
Y266834D01*
Y267501D01*
X51499D01*
X50833Y268167D01*
X187335Y342999D02*
Y338834D01*
X188168Y338001D01*
X189834D01*
X190667Y338834D01*
Y342999D01*
X195665Y338001D02*
X192333D01*
X195665Y341333D01*
Y342166D01*
X194832Y342999D01*
X193166D01*
X192333Y342166D01*
X50001Y63332D02*
X53999D01*
Y61333D01*
X53333Y60666D01*
X52000D01*
X51334Y61333D01*
Y63332D01*
X53333Y59333D02*
X53999Y58667D01*
Y57334D01*
X53333Y56668D01*
X52666D01*
X52000Y57334D01*
Y58001D01*
Y57334D01*
X51334Y56668D01*
X50667D01*
X50001Y57334D01*
Y58667D01*
X50667Y59333D01*
X73354Y105099D02*
Y100934D01*
X74187Y100101D01*
X75853D01*
X76686Y100934D01*
Y105099D01*
X78352Y100101D02*
X80018D01*
X79185D01*
Y105099D01*
X78352Y104266D01*
X346000Y93166D02*
X345167Y93999D01*
X343501D01*
X342668Y93166D01*
Y92333D01*
X343501Y91500D01*
X345167D01*
X346000Y90667D01*
Y89834D01*
X345167Y89001D01*
X343501D01*
X342668Y89834D01*
X347666Y89001D02*
X349332D01*
X348499D01*
Y93999D01*
X347666Y93166D01*
X193501Y51165D02*
X198499D01*
Y48665D01*
X197666Y47832D01*
X196000D01*
X195167Y48665D01*
Y51165D01*
Y49498D02*
X193501Y47832D01*
Y42834D02*
Y46166D01*
X196833Y42834D01*
X197666D01*
X198499Y43667D01*
Y45333D01*
X197666Y46166D01*
Y41168D02*
X198499Y40335D01*
Y38669D01*
X197666Y37835D01*
X196833D01*
X196000Y38669D01*
Y39502D01*
Y38669D01*
X195167Y37835D01*
X194334D01*
X193501Y38669D01*
Y40335D01*
X194334Y41168D01*
X216336Y43001D02*
Y47999D01*
X218835D01*
X219668Y47166D01*
Y45500D01*
X218835Y44667D01*
X216336D01*
X218002D02*
X219668Y43001D01*
X224666D02*
X221334D01*
X224666Y46333D01*
Y47166D01*
X223833Y47999D01*
X222167D01*
X221334Y47166D01*
X229664Y43001D02*
X226332D01*
X229664Y46333D01*
Y47166D01*
X228831Y47999D01*
X227165D01*
X226332Y47166D01*
X310232Y142501D02*
Y147499D01*
X312731D01*
X313564Y146666D01*
Y145000D01*
X312731Y144167D01*
X310232D01*
X311898D02*
X313564Y142501D01*
X318562D02*
X315230D01*
X318562Y145833D01*
Y146666D01*
X317729Y147499D01*
X316063D01*
X315230Y146666D01*
X320228Y142501D02*
X321894D01*
X321061D01*
Y147499D01*
X320228Y146666D01*
X285001Y266665D02*
X289999D01*
Y264165D01*
X289166Y263332D01*
X287500D01*
X286667Y264165D01*
Y266665D01*
Y264998D02*
X285001Y263332D01*
Y258334D02*
Y261666D01*
X288333Y258334D01*
X289166D01*
X289999Y259167D01*
Y260833D01*
X289166Y261666D01*
Y256668D02*
X289999Y255835D01*
Y254169D01*
X289166Y253335D01*
X285834D01*
X285001Y254169D01*
Y255835D01*
X285834Y256668D01*
X289166D01*
X204252Y13001D02*
Y17999D01*
X206751D01*
X207584Y17166D01*
Y15500D01*
X206751Y14667D01*
X204252D01*
X205918D02*
X207584Y13001D01*
X209250D02*
X210916D01*
X210084D01*
Y17999D01*
X209250Y17166D01*
X213416Y13834D02*
X214249Y13001D01*
X215915D01*
X216748Y13834D01*
Y17166D01*
X215915Y17999D01*
X214249D01*
X213416Y17166D01*
Y16333D01*
X214249Y15500D01*
X216748D01*
X243315Y269501D02*
Y274499D01*
X245814D01*
X246647Y273666D01*
Y272000D01*
X245814Y271167D01*
X243315D01*
X244981D02*
X246647Y269501D01*
X248313D02*
X249979D01*
X249147D01*
Y274499D01*
X248313Y273666D01*
X252479D02*
X253312Y274499D01*
X254978D01*
X255811Y273666D01*
Y272833D01*
X254978Y272000D01*
X255811Y271167D01*
Y270334D01*
X254978Y269501D01*
X253312D01*
X252479Y270334D01*
Y271167D01*
X253312Y272000D01*
X252479Y272833D01*
Y273666D01*
X253312Y272000D02*
X254978D01*
X246252Y43001D02*
Y47999D01*
X248751D01*
X249584Y47166D01*
Y45500D01*
X248751Y44667D01*
X246252D01*
X247918D02*
X249584Y43001D01*
X251250D02*
X252917D01*
X252083D01*
Y47999D01*
X251250Y47166D01*
X255416Y47999D02*
X258748D01*
Y47166D01*
X255416Y43834D01*
Y43001D01*
X149001Y225748D02*
X153999D01*
Y223249D01*
X153166Y222416D01*
X151500D01*
X150667Y223249D01*
Y225748D01*
Y224082D02*
X149001Y222416D01*
Y220750D02*
Y219083D01*
Y219917D01*
X153999D01*
X153166Y220750D01*
X153999Y213252D02*
X153166Y214918D01*
X151500Y216584D01*
X149834D01*
X149001Y215751D01*
Y214085D01*
X149834Y213252D01*
X150667D01*
X151500Y214085D01*
Y216584D01*
X226752Y285501D02*
Y290499D01*
X229251D01*
X230084Y289666D01*
Y288000D01*
X229251Y287167D01*
X226752D01*
X228418D02*
X230084Y285501D01*
X231750D02*
X233417D01*
X232583D01*
Y290499D01*
X231750Y289666D01*
X239248Y290499D02*
X235916D01*
Y288000D01*
X237582Y288833D01*
X238415D01*
X239248Y288000D01*
Y286334D01*
X238415Y285501D01*
X236749D01*
X235916Y286334D01*
X261501Y43248D02*
X266499D01*
Y40749D01*
X265666Y39916D01*
X264000D01*
X263167Y40749D01*
Y43248D01*
Y41582D02*
X261501Y39916D01*
Y38250D02*
Y36584D01*
Y37416D01*
X266499D01*
X265666Y38250D01*
X261501Y31585D02*
X266499D01*
X264000Y34084D01*
Y30752D01*
X236752Y13001D02*
Y17999D01*
X239251D01*
X240084Y17166D01*
Y15500D01*
X239251Y14667D01*
X236752D01*
X238418D02*
X240084Y13001D01*
X241750D02*
X243417D01*
X242583D01*
Y17999D01*
X241750Y17166D01*
X245916D02*
X246749Y17999D01*
X248415D01*
X249248Y17166D01*
Y16333D01*
X248415Y15500D01*
X247582D01*
X248415D01*
X249248Y14667D01*
Y13834D01*
X248415Y13001D01*
X246749D01*
X245916Y13834D01*
X335001Y265248D02*
X339999D01*
Y262749D01*
X339166Y261916D01*
X337500D01*
X336667Y262749D01*
Y265248D01*
Y263582D02*
X335001Y261916D01*
Y260250D02*
Y258583D01*
Y259417D01*
X339999D01*
X339166Y260250D01*
X335001Y252752D02*
Y256084D01*
X338333Y252752D01*
X339166D01*
X339999Y253585D01*
Y255251D01*
X339166Y256084D01*
X183087Y224515D02*
X188085D01*
Y222016D01*
X187252Y221183D01*
X185586D01*
X184753Y222016D01*
Y224515D01*
Y222849D02*
X183087Y221183D01*
Y219516D02*
Y217850D01*
Y218684D01*
X188085D01*
X187252Y219516D01*
X183087Y215351D02*
Y213685D01*
Y214518D01*
X188085D01*
X187252Y215351D01*
X248458Y322149D02*
X253456D01*
Y319649D01*
X252623Y318816D01*
X250957D01*
X250124Y319649D01*
Y322149D01*
Y320482D02*
X248458Y318816D01*
Y317150D02*
Y315484D01*
Y316317D01*
X253456D01*
X252623Y317150D01*
Y312985D02*
X253456Y312152D01*
Y310486D01*
X252623Y309653D01*
X249291D01*
X248458Y310486D01*
Y312152D01*
X249291Y312985D01*
X252623D01*
X151501Y343165D02*
X156499D01*
Y340666D01*
X155666Y339833D01*
X154000D01*
X153167Y340666D01*
Y343165D01*
Y341499D02*
X151501Y339833D01*
X152334Y338167D02*
X151501Y337334D01*
Y335668D01*
X152334Y334835D01*
X155666D01*
X156499Y335668D01*
Y337334D01*
X155666Y338167D01*
X154833D01*
X154000Y337334D01*
Y334835D01*
X229835Y276001D02*
Y280999D01*
X232334D01*
X233167Y280166D01*
Y278500D01*
X232334Y277667D01*
X229835D01*
X231501D02*
X233167Y276001D01*
X234833Y280166D02*
X235666Y280999D01*
X237332D01*
X238165Y280166D01*
Y279333D01*
X237332Y278500D01*
X238165Y277667D01*
Y276834D01*
X237332Y276001D01*
X235666D01*
X234833Y276834D01*
Y277667D01*
X235666Y278500D01*
X234833Y279333D01*
Y280166D01*
X235666Y278500D02*
X237332D01*
X159501Y343165D02*
X164499D01*
Y340666D01*
X163666Y339833D01*
X162000D01*
X161167Y340666D01*
Y343165D01*
Y341499D02*
X159501Y339833D01*
X164499Y338167D02*
Y334835D01*
X163666D01*
X160334Y338167D01*
X159501D01*
X182001Y172665D02*
X186999D01*
Y170166D01*
X186166Y169333D01*
X184500D01*
X183667Y170166D01*
Y172665D01*
Y170999D02*
X182001Y169333D01*
X186999Y164335D02*
X186166Y166001D01*
X184500Y167667D01*
X182834D01*
X182001Y166834D01*
Y165168D01*
X182834Y164335D01*
X183667D01*
X184500Y165168D01*
Y167667D01*
X181835Y190501D02*
Y195499D01*
X184334D01*
X185167Y194666D01*
Y193000D01*
X184334Y192167D01*
X181835D01*
X183501D02*
X185167Y190501D01*
X190165Y195499D02*
X186833D01*
Y193000D01*
X188499Y193833D01*
X189332D01*
X190165Y193000D01*
Y191334D01*
X189332Y190501D01*
X187666D01*
X186833Y191334D01*
X179501Y254665D02*
X184499D01*
Y252166D01*
X183666Y251333D01*
X182000D01*
X181167Y252166D01*
Y254665D01*
Y252999D02*
X179501Y251333D01*
Y247168D02*
X184499D01*
X182000Y249667D01*
Y246335D01*
X184835Y268001D02*
Y272999D01*
X187334D01*
X188167Y272166D01*
Y270500D01*
X187334Y269667D01*
X184835D01*
X186501D02*
X188167Y268001D01*
X189833Y272166D02*
X190666Y272999D01*
X192332D01*
X193165Y272166D01*
Y271333D01*
X192332Y270500D01*
X191499D01*
X192332D01*
X193165Y269667D01*
Y268834D01*
X192332Y268001D01*
X190666D01*
X189833Y268834D01*
X80835Y315501D02*
Y320499D01*
X83334D01*
X84167Y319666D01*
Y318000D01*
X83334Y317167D01*
X80835D01*
X82501D02*
X84167Y315501D01*
X89165D02*
X85833D01*
X89165Y318833D01*
Y319666D01*
X88332Y320499D01*
X86666D01*
X85833Y319666D01*
X204668Y268001D02*
Y272999D01*
X207167D01*
X208000Y272166D01*
Y270500D01*
X207167Y269667D01*
X204668D01*
X206334D02*
X208000Y268001D01*
X209666D02*
X211332D01*
X210499D01*
Y272999D01*
X209666Y272166D01*
X197667Y25834D02*
Y29166D01*
X196834Y29999D01*
X195168D01*
X194335Y29166D01*
Y25834D01*
X195168Y25001D01*
X196834D01*
X196001Y26667D02*
X197667Y25001D01*
X196834D02*
X197667Y25834D01*
X201832Y25001D02*
Y29999D01*
X199333Y27500D01*
X202665D01*
X229667Y25834D02*
Y29166D01*
X228834Y29999D01*
X227168D01*
X226335Y29166D01*
Y25834D01*
X227168Y25001D01*
X228834D01*
X228001Y26667D02*
X229667Y25001D01*
X228834D02*
X229667Y25834D01*
X231333Y29166D02*
X232166Y29999D01*
X233832D01*
X234665Y29166D01*
Y28333D01*
X233832Y27500D01*
X232999D01*
X233832D01*
X234665Y26667D01*
Y25834D01*
X233832Y25001D01*
X232166D01*
X231333Y25834D01*
X163567Y175834D02*
Y179166D01*
X162734Y179999D01*
X161068D01*
X160235Y179166D01*
Y175834D01*
X161068Y175001D01*
X162734D01*
X161901Y176667D02*
X163567Y175001D01*
X162734D02*
X163567Y175834D01*
X168565Y175001D02*
X165233D01*
X168565Y178333D01*
Y179166D01*
X167732Y179999D01*
X166066D01*
X165233Y179166D01*
X154000Y255334D02*
Y258666D01*
X153167Y259499D01*
X151501D01*
X150668Y258666D01*
Y255334D01*
X151501Y254501D01*
X153167D01*
X152334Y256167D02*
X154000Y254501D01*
X153167D02*
X154000Y255334D01*
X155666Y254501D02*
X157332D01*
X156499D01*
Y259499D01*
X155666Y258666D01*
X171168Y301499D02*
Y296501D01*
X174500D01*
X176166D02*
X177832D01*
X176999D01*
Y301499D01*
X176166Y300666D01*
X148499Y158165D02*
X143501D01*
X145167D01*
X148499Y154833D01*
X146000Y157332D01*
X143501Y154833D01*
Y149835D02*
Y153167D01*
X146833Y149835D01*
X147666D01*
X148499Y150668D01*
Y152334D01*
X147666Y153167D01*
X148999Y245332D02*
X144001D01*
X145667D01*
X148999Y242000D01*
X146500Y244499D01*
X144001Y242000D01*
Y240334D02*
Y238668D01*
Y239501D01*
X148999D01*
X148166Y240334D01*
X134500Y31789D02*
X131168D01*
Y29290D01*
X132834D01*
X131168D01*
Y26791D01*
X136166D02*
X137832D01*
X136999D01*
Y31789D01*
X136166Y30956D01*
X264499Y19665D02*
X259501D01*
Y17166D01*
X260334Y16333D01*
X263666D01*
X264499Y17166D01*
Y19665D01*
X263666Y14667D02*
X264499Y13834D01*
Y12168D01*
X263666Y11335D01*
X262833D01*
X262000Y12168D01*
X261167Y11335D01*
X260334D01*
X259501Y12168D01*
Y13834D01*
X260334Y14667D01*
X261167D01*
X262000Y13834D01*
X262833Y14667D01*
X263666D01*
X262000Y13834D02*
Y12168D01*
X236335Y342999D02*
Y338001D01*
X238834D01*
X239667Y338834D01*
Y342166D01*
X238834Y342999D01*
X236335D01*
X241333D02*
X244665D01*
Y342166D01*
X241333Y338834D01*
Y338001D01*
X233499Y261665D02*
X228501D01*
Y259166D01*
X229334Y258333D01*
X232666D01*
X233499Y259166D01*
Y261665D01*
Y253335D02*
X232666Y255001D01*
X231000Y256667D01*
X229334D01*
X228501Y255834D01*
Y254168D01*
X229334Y253335D01*
X230167D01*
X231000Y254168D01*
Y256667D01*
X155335Y209999D02*
Y205001D01*
X157834D01*
X158667Y205834D01*
Y209166D01*
X157834Y209999D01*
X155335D01*
X163665D02*
X160333D01*
Y207500D01*
X161999Y208333D01*
X162832D01*
X163665Y207500D01*
Y205834D01*
X162832Y205001D01*
X161166D01*
X160333Y205834D01*
X181835Y203499D02*
Y198501D01*
X184334D01*
X185167Y199334D01*
Y202666D01*
X184334Y203499D01*
X181835D01*
X189332Y198501D02*
Y203499D01*
X186833Y201000D01*
X190165D01*
X161835Y287499D02*
Y282501D01*
X164334D01*
X165167Y283334D01*
Y286666D01*
X164334Y287499D01*
X161835D01*
X166833Y286666D02*
X167666Y287499D01*
X169332D01*
X170165Y286666D01*
Y285833D01*
X169332Y285000D01*
X168499D01*
X169332D01*
X170165Y284167D01*
Y283334D01*
X169332Y282501D01*
X167666D01*
X166833Y283334D01*
X189361Y263999D02*
Y259001D01*
X191860D01*
X192693Y259834D01*
Y263166D01*
X191860Y263999D01*
X189361D01*
X197691Y259001D02*
X194359D01*
X197691Y262333D01*
Y263166D01*
X196858Y263999D01*
X195192D01*
X194359Y263166D01*
X215668Y289499D02*
Y284501D01*
X218167D01*
X219000Y285334D01*
Y288666D01*
X218167Y289499D01*
X215668D01*
X220666Y284501D02*
X222332D01*
X221499D01*
Y289499D01*
X220666Y288666D01*
X170052Y238116D02*
X170885Y238949D01*
Y240615D01*
X170052Y241448D01*
X166720D01*
X165887Y240615D01*
Y238949D01*
X166720Y238116D01*
X165887Y236450D02*
Y234784D01*
Y235616D01*
X170885D01*
X170052Y236450D01*
Y232284D02*
X170885Y231451D01*
Y229785D01*
X170052Y228952D01*
X166720D01*
X165887Y229785D01*
Y231451D01*
X166720Y232284D01*
X170052D01*
X237104Y298752D02*
X236271Y299585D01*
X234605D01*
X233772Y298752D01*
Y295420D01*
X234605Y294587D01*
X236271D01*
X237104Y295420D01*
X238770D02*
X239603Y294587D01*
X241269D01*
X242102Y295420D01*
Y298752D01*
X241269Y299585D01*
X239603D01*
X238770Y298752D01*
Y297919D01*
X239603Y297086D01*
X242102D01*
X236767Y308052D02*
X235934Y308885D01*
X234268D01*
X233435Y308052D01*
Y304720D01*
X234268Y303887D01*
X235934D01*
X236767Y304720D01*
X238433Y308052D02*
X239266Y308885D01*
X240932D01*
X241765Y308052D01*
Y307219D01*
X240932Y306386D01*
X241765Y305553D01*
Y304720D01*
X240932Y303887D01*
X239266D01*
X238433Y304720D01*
Y305553D01*
X239266Y306386D01*
X238433Y307219D01*
Y308052D01*
X239266Y306386D02*
X240932D01*
X224730Y326166D02*
X223897Y326999D01*
X222231D01*
X221398Y326166D01*
Y322834D01*
X222231Y322001D01*
X223897D01*
X224730Y322834D01*
X226396Y326999D02*
X229728D01*
Y326166D01*
X226396Y322834D01*
Y322001D01*
X160167Y306666D02*
X159334Y307499D01*
X157668D01*
X156835Y306666D01*
Y303334D01*
X157668Y302501D01*
X159334D01*
X160167Y303334D01*
X165165Y307499D02*
X163499Y306666D01*
X161833Y305000D01*
Y303334D01*
X162666Y302501D01*
X164332D01*
X165165Y303334D01*
Y304167D01*
X164332Y305000D01*
X161833D01*
X250953Y254666D02*
X250120Y255499D01*
X248454D01*
X247621Y254666D01*
Y251334D01*
X248454Y250501D01*
X250120D01*
X250953Y251334D01*
X255951Y255499D02*
X252619D01*
Y253000D01*
X254285Y253833D01*
X255118D01*
X255951Y253000D01*
Y251334D01*
X255118Y250501D01*
X253452D01*
X252619Y251334D01*
X121667Y346666D02*
X120834Y347499D01*
X119168D01*
X118335Y346666D01*
Y343334D01*
X119168Y342501D01*
X120834D01*
X121667Y343334D01*
X125832Y342501D02*
Y347499D01*
X123333Y345000D01*
X126665D01*
X210167Y256166D02*
X209334Y256999D01*
X207668D01*
X206835Y256166D01*
Y252834D01*
X207668Y252001D01*
X209334D01*
X210167Y252834D01*
X215165Y252001D02*
X211833D01*
X215165Y255333D01*
Y256166D01*
X214332Y256999D01*
X212666D01*
X211833Y256166D01*
X94953Y77666D02*
X94120Y78499D01*
X92454D01*
X91621Y77666D01*
Y74334D01*
X92454Y73501D01*
X94120D01*
X94953Y74334D01*
X96619Y77666D02*
X97452Y78499D01*
X99118D01*
X99951Y77666D01*
Y76833D01*
X99118Y76000D01*
X98285D01*
X99118D01*
X99951Y75167D01*
Y74334D01*
X99118Y73501D01*
X97452D01*
X96619Y74334D01*
X94686Y104366D02*
X93853Y105199D01*
X92187D01*
X91354Y104366D01*
Y101034D01*
X92187Y100201D01*
X93853D01*
X94686Y101034D01*
X96352Y100201D02*
X98018D01*
X97185D01*
Y105199D01*
X96352Y104366D01*
D12*
X140602Y323358D02*
X139864Y323784D01*
Y322932D01*
X140602Y323358D01*
D13*
X54000Y237500D02*
Y300500D01*
X141000Y237500D02*
Y300538D01*
X54000Y237500D02*
X84000D01*
X54000Y300500D02*
X84000D01*
X121000Y300509D02*
X141000Y300538D01*
X121000Y237500D02*
X141000D01*
X120500Y149000D02*
X140500D01*
X120500Y212009D02*
X140500Y212038D01*
X53500Y212000D02*
X83500D01*
X53500Y149000D02*
X83500D01*
X140500D02*
Y212038D01*
X53500Y149000D02*
Y212000D01*
X74500Y76000D02*
Y97000D01*
X60500Y76000D02*
X74500D01*
X60500D02*
Y97000D01*
X74500D01*
X65495D02*
Y98500D01*
X69495D01*
Y97000D02*
Y98500D01*
X61000D02*
X62250D01*
X61625D01*
Y102249D01*
X61000Y101624D01*
D14*
X183250Y308800D02*
Y335200D01*
X197750D01*
Y331060D02*
X208250D01*
Y313060D02*
Y331060D01*
X197750Y313060D02*
X208250D01*
X197750Y331060D02*
Y335200D01*
Y308800D02*
Y313060D01*
X183250Y308800D02*
X197750D01*
D15*
X201000Y42700D02*
Y49300D01*
X213000Y42700D02*
Y49300D01*
X201000D02*
X213000D01*
X201000Y42700D02*
X213000D01*
X171700Y221468D02*
Y225700D01*
X165300Y221468D02*
Y225700D01*
X171700Y213400D02*
Y217531D01*
X165200Y213400D02*
Y217531D01*
Y213400D02*
X171700D01*
X165300Y225700D02*
X171700D01*
X97969Y90800D02*
X102200D01*
X97969Y97200D02*
X102200D01*
X89900Y90800D02*
X94032D01*
X89900Y97300D02*
X94032D01*
X89900Y90800D02*
Y97300D01*
X102200Y90800D02*
Y97200D01*
X89800Y87200D02*
X94032D01*
X89800Y80800D02*
X94032D01*
X97969Y87200D02*
X102100D01*
X97969Y80700D02*
X102100D01*
Y87200D01*
X89800Y80800D02*
Y87200D01*
X213469Y258800D02*
X217700D01*
X213469Y265200D02*
X217700D01*
X205400Y258800D02*
X209531D01*
X205400Y265300D02*
X209531D01*
X205400Y258800D02*
Y265300D01*
X217700Y258800D02*
Y265200D01*
X246300Y247700D02*
X250532D01*
X246300Y241300D02*
X250532D01*
X254468Y247700D02*
X258600D01*
X254468Y241200D02*
X258600D01*
Y247700D01*
X246300Y241300D02*
Y247700D01*
X162969Y309800D02*
X167200D01*
X162969Y316200D02*
X167200D01*
X154900Y309800D02*
X159031D01*
X154900Y316300D02*
X159031D01*
X154900Y309800D02*
Y316300D01*
X167200Y309800D02*
Y316200D01*
X226468Y313800D02*
X230700D01*
X226468Y320200D02*
X230700D01*
X218400Y313800D02*
X222532D01*
X218400Y320300D02*
X222532D01*
X218400Y313800D02*
Y320300D01*
X230700Y313800D02*
Y320200D01*
X218800Y309700D02*
X223031D01*
X218800Y303300D02*
X223031D01*
X226969Y309700D02*
X231100D01*
X226969Y303200D02*
X231100D01*
Y309700D01*
X218800Y303300D02*
Y309700D01*
X226969Y293300D02*
X231200D01*
X226969Y299700D02*
X231200D01*
X218900Y293300D02*
X223031D01*
X218900Y299800D02*
X223031D01*
X218900Y293300D02*
Y299800D01*
X231200Y293300D02*
Y299700D01*
X204200Y275000D02*
X210800D01*
X204200Y287000D02*
X210800D01*
X204200Y275000D02*
Y287000D01*
X210800Y275000D02*
Y287000D01*
X77500Y314700D02*
Y321300D01*
X65500Y314700D02*
Y321300D01*
Y314700D02*
X77500D01*
X65500Y321300D02*
X77500D01*
X170000Y267200D02*
Y273800D01*
X182000Y267200D02*
Y273800D01*
X170000D02*
X182000D01*
X170000Y267200D02*
X182000D01*
X170700Y257000D02*
X177300D01*
X170700Y245000D02*
X177300D01*
Y257000D01*
X170700Y245000D02*
Y257000D01*
X167500Y190200D02*
Y196800D01*
X179500Y190200D02*
Y196800D01*
X167500D02*
X179500D01*
X167500Y190200D02*
X179500D01*
X172700Y173500D02*
X179300D01*
X172700Y161500D02*
X179300D01*
Y173500D01*
X172700Y161500D02*
Y173500D01*
X159200Y333000D02*
X165800D01*
X159200Y321000D02*
X165800D01*
Y333000D01*
X159200Y321000D02*
Y333000D01*
X240500Y267200D02*
Y273800D01*
X228500Y267200D02*
Y273800D01*
Y267200D02*
X240500D01*
X228500Y273800D02*
X240500D01*
X150700Y321000D02*
X157300D01*
X150700Y333000D02*
X157300D01*
X150700Y321000D02*
Y333000D01*
X157300Y321000D02*
Y333000D01*
X246500Y313700D02*
Y320300D01*
X234500Y313700D02*
Y320300D01*
Y313700D02*
X246500D01*
X234500Y320300D02*
X246500D01*
X174200Y213500D02*
X180800D01*
X174200Y225500D02*
X180800D01*
X174200Y213500D02*
Y225500D01*
X180800Y213500D02*
Y225500D01*
X326200Y266000D02*
X332800D01*
X326200Y254000D02*
X332800D01*
Y266000D01*
X326200Y254000D02*
Y266000D01*
X236500Y19700D02*
Y26300D01*
X248500Y19700D02*
Y26300D01*
X236500D02*
X248500D01*
X236500Y19700D02*
X248500D01*
X247500Y34200D02*
Y40800D01*
X259500Y34200D02*
Y40800D01*
X247500D02*
X259500D01*
X247500Y34200D02*
X259500D01*
X241500Y284200D02*
Y290800D01*
X253500Y284200D02*
Y290800D01*
X241500D02*
X253500D01*
X241500Y284200D02*
X253500D01*
X156700Y225500D02*
X163300D01*
X156700Y213500D02*
X163300D01*
Y225500D01*
X156700Y213500D02*
Y225500D01*
X232500Y42200D02*
Y48800D01*
X244500Y42200D02*
Y48800D01*
X232500D02*
X244500D01*
X232500Y42200D02*
X244500D01*
X241500Y276200D02*
Y282800D01*
X253500Y276200D02*
Y282800D01*
X241500D02*
X253500D01*
X241500Y276200D02*
X253500D01*
X205000Y19700D02*
Y26300D01*
X217000Y19700D02*
Y26300D01*
X205000D02*
X217000D01*
X205000Y19700D02*
X217000D01*
X276700Y254000D02*
X283300D01*
X276700Y266000D02*
X283300D01*
X276700Y254000D02*
Y266000D01*
X283300Y254000D02*
Y266000D01*
X337500Y141700D02*
Y148300D01*
X325500Y141700D02*
Y148300D01*
Y141700D02*
X337500D01*
X325500Y148300D02*
X337500D01*
X215500Y34700D02*
Y41300D01*
X227500Y34700D02*
Y41300D01*
X215500D02*
X227500D01*
X215500Y34700D02*
X227500D01*
D16*
X106449Y330551D02*
Y340492D01*
X134008Y314508D02*
X137551Y318051D01*
X106449Y314508D02*
X134008D01*
X133909Y340492D02*
X137551Y336850D01*
X106449Y340492D02*
X133909D01*
D17*
X116000Y138500D02*
X156000D01*
Y34500D02*
Y138500D01*
X116000Y34500D02*
X156000D01*
X116000D02*
Y138500D01*
X79900Y38800D02*
X82900Y41800D01*
Y38800D02*
X85900Y41800D01*
Y38800D02*
X88900Y41800D01*
X84900Y42300D02*
Y46300D01*
X80900Y41800D02*
X89400D01*
D18*
X222100Y20500D02*
X223000Y19600D01*
X221420Y19500D02*
X224580D01*
X223000Y19600D02*
X223900Y20500D01*
X222100D02*
X223900D01*
X182100Y261500D02*
X183000Y262400D01*
X182000Y259920D02*
Y263080D01*
X182100Y261500D02*
X183000Y260600D01*
Y262400D01*
X174000Y200600D02*
X174900Y201500D01*
X175000Y199920D02*
Y203080D01*
X174000Y202400D02*
X174900Y201500D01*
X174000Y200600D02*
Y202400D01*
X231000Y247900D02*
X231900Y247000D01*
X229420Y248000D02*
X232580D01*
X230100Y247000D02*
X231000Y247900D01*
X230100Y247000D02*
X231900D01*
X261100Y26000D02*
X262000Y25100D01*
X260420Y25000D02*
X263580D01*
X262000Y25100D02*
X262900Y26000D01*
X261100D02*
X262900D01*
M02*
