G04*
G04 #@! TF.GenerationSoftware,Altium Limited,Altium Designer,21.0.8 (223)*
G04*
G04 Layer_Color=16711935*
%FSLAX25Y25*%
%MOIN*%
G70*
G04*
G04 #@! TF.SameCoordinates,7AAE0E32-72D2-4A0B-9A69-79E54AD05685*
G04*
G04*
G04 #@! TF.FilePolarity,Positive*
G04*
G01*
G75*
%ADD107C,0.00100*%
D107*
X292000Y62517D02*
Y137000D01*
Y62517D02*
X296000D01*
Y137000D01*
X292000D02*
X296000D01*
X182000Y9242D02*
Y55500D01*
Y9242D02*
X186000D01*
Y55500D01*
X182000D02*
X186000D01*
X116000Y141000D02*
Y146000D01*
Y141000D02*
X285500D01*
Y146000D01*
X116000D02*
X285500D01*
X88000Y133000D02*
Y167000D01*
Y133000D02*
X92000D01*
Y167000D01*
X88000D02*
X92000D01*
X277500Y304500D02*
Y324500D01*
Y304500D02*
X279500D01*
Y324500D01*
X277500D02*
X279500D01*
X281000Y298500D02*
Y300500D01*
Y298500D02*
X306000D01*
Y300500D01*
X281000D02*
X306000D01*
X307000Y305000D02*
Y325000D01*
Y305000D02*
X309000D01*
Y325000D01*
X307000D02*
X309000D01*
X281000Y329000D02*
Y331000D01*
Y329000D02*
X306000D01*
Y331000D01*
X281000D02*
X306000D01*
X69000Y61000D02*
Y65000D01*
Y61000D02*
X108000D01*
Y65000D01*
X69000D02*
X108000D01*
Y70000D02*
Y130000D01*
Y70000D02*
X112000D01*
Y130000D01*
X65500Y70000D02*
Y130000D01*
Y70000D02*
X69500D01*
Y130000D01*
X65500D02*
X69500D01*
X189000Y56000D02*
Y60000D01*
Y56000D02*
X285500D01*
Y60000D01*
X189000D02*
X285500D01*
X95000Y168500D02*
Y172500D01*
Y168500D02*
X140500D01*
Y172500D01*
X95000D02*
X140500D01*
X143500Y174000D02*
Y189500D01*
Y174000D02*
X147500D01*
Y189500D01*
X143500D02*
X147500D01*
X111000Y191500D02*
Y195500D01*
Y191500D02*
X140500D01*
Y195500D01*
X111000D02*
X140500D01*
X102500Y193000D02*
Y254500D01*
Y193000D02*
X106500D01*
Y254500D01*
X102500D02*
X106500D01*
X111000Y258000D02*
X140500D01*
X111000Y254000D02*
Y258000D01*
Y254000D02*
X140500D01*
Y258000D01*
X143500Y259500D02*
Y278500D01*
Y259500D02*
X147500D01*
Y278500D01*
X143500D02*
X147500D01*
X111000Y280500D02*
Y284500D01*
Y280500D02*
X140500D01*
Y284500D01*
X111000D02*
X140500D01*
X102500Y281000D02*
Y306000D01*
Y281000D02*
X106500D01*
Y306000D01*
X102500D02*
X106500D01*
X108000Y137000D02*
X112000D01*
Y70000D02*
Y137000D01*
X109000Y70000D02*
X111000D01*
X108000D02*
Y137000D01*
Y70000D02*
X109000D01*
X111000D02*
X112000D01*
X69000Y61000D02*
X108000D01*
X69000D02*
Y65000D01*
X108000Y61000D02*
Y65000D01*
X69000D02*
X108000D01*
X68500Y70000D02*
X69500D01*
X65500D02*
X66500D01*
X65500D02*
Y130000D01*
X66500Y70000D02*
X68500D01*
X69500D02*
Y130000D01*
X65500D02*
X69500D01*
X260000Y349000D02*
Y355000D01*
Y349000D02*
X335000Y349000D01*
Y355000D01*
X372500D01*
Y0D02*
Y355000D01*
X0Y0D02*
Y355000D01*
Y0D02*
Y500D01*
Y0D02*
X372500D01*
X0Y355000D02*
X260000D01*
M02*
