G04*
G04 #@! TF.GenerationSoftware,Altium Limited,Altium Designer,21.0.8 (223)*
G04*
G04 Layer_Physical_Order=1*
G04 Layer_Color=255*
%FSLAX25Y25*%
%MOIN*%
G70*
G04*
G04 #@! TF.SameCoordinates,7AAE0E32-72D2-4A0B-9A69-79E54AD05685*
G04*
G04*
G04 #@! TF.FilePolarity,Positive*
G04*
G01*
G75*
%ADD11C,0.01000*%
%ADD19R,0.03900X0.08000*%
%ADD20R,0.08000X0.03900*%
%ADD21R,0.08000X0.04000*%
%ADD39R,0.06000X0.06000*%
%ADD42R,0.30000X0.30000*%
%ADD43R,0.27500X0.27500*%
%ADD44R,0.08000X0.08000*%
%ADD45C,0.08000*%
%ADD46C,0.06000*%
%ADD52R,0.03000X0.04000*%
%ADD53R,0.08000X0.15000*%
%ADD54R,0.08000X0.06000*%
%ADD55R,0.05910X0.03030*%
%ADD56R,0.17717X0.07480*%
G04:AMPARAMS|DCode=57|XSize=27.56mil|YSize=49.21mil|CornerRadius=6.89mil|HoleSize=0mil|Usage=FLASHONLY|Rotation=0.000|XOffset=0mil|YOffset=0mil|HoleType=Round|Shape=RoundedRectangle|*
%AMROUNDEDRECTD57*
21,1,0.02756,0.03543,0,0,0.0*
21,1,0.01378,0.04921,0,0,0.0*
1,1,0.01378,0.00689,-0.01772*
1,1,0.01378,-0.00689,-0.01772*
1,1,0.01378,-0.00689,0.01772*
1,1,0.01378,0.00689,0.01772*
%
%ADD57ROUNDEDRECTD57*%
%ADD58R,0.13583X0.03543*%
%ADD59R,0.04000X0.15000*%
%ADD60R,0.15000X0.04000*%
%ADD61R,0.06000X0.08000*%
G04:AMPARAMS|DCode=62|XSize=27.56mil|YSize=49.21mil|CornerRadius=6.89mil|HoleSize=0mil|Usage=FLASHONLY|Rotation=270.000|XOffset=0mil|YOffset=0mil|HoleType=Round|Shape=RoundedRectangle|*
%AMROUNDEDRECTD62*
21,1,0.02756,0.03543,0,0,270.0*
21,1,0.01378,0.04921,0,0,270.0*
1,1,0.01378,-0.01772,-0.00689*
1,1,0.01378,-0.01772,0.00689*
1,1,0.01378,0.01772,0.00689*
1,1,0.01378,0.01772,-0.00689*
%
%ADD62ROUNDEDRECTD62*%
%ADD63R,0.04000X0.02854*%
%ADD64R,0.04000X0.03000*%
%ADD65R,0.02854X0.04000*%
%ADD66C,0.02000*%
%ADD67C,0.05000*%
%ADD68R,0.89500X0.15500*%
%ADD69R,0.92000X0.19000*%
%ADD70R,0.17500X0.34000*%
%ADD71R,0.27000X0.22000*%
%ADD72R,0.50000X0.38500*%
%ADD73R,0.24500X0.15500*%
%ADD74R,0.11000X0.26000*%
%ADD75R,0.44500X0.27500*%
%ADD76R,0.59500X0.22000*%
%ADD77R,0.53500X0.17000*%
%ADD78R,0.31500X0.24000*%
%ADD79R,0.87500X0.15500*%
%ADD80R,0.34500X0.21500*%
%ADD81R,0.14000X0.47000*%
%ADD82R,0.59000X0.18000*%
%ADD83R,0.30000X0.38000*%
%ADD84R,0.15500X0.43000*%
%ADD85R,0.66000X0.25500*%
%ADD86R,0.61000X0.20000*%
%ADD87R,0.13500X0.31500*%
%ADD88R,0.59000X0.42500*%
%ADD89R,0.25000X0.23500*%
%ADD90C,0.10000*%
%ADD91R,0.09000X0.09000*%
%ADD92C,0.09000*%
%ADD93R,0.08000X0.08000*%
%ADD94R,0.10000X0.10000*%
%ADD95R,0.11811X0.11811*%
%ADD96C,0.11811*%
%ADD97C,0.05000*%
G36*
X370920Y33500D02*
X355500D01*
Y17500D01*
X355000D01*
Y17000D01*
X339000D01*
Y1580D01*
X33500D01*
Y17000D01*
X17500D01*
Y17500D01*
X17000D01*
Y33500D01*
X1580D01*
Y37500D01*
X44500D01*
Y7000D01*
X189000D01*
Y54000D01*
X223932D01*
X224139Y53500D01*
X223995Y53356D01*
X223553Y52695D01*
X223398Y51914D01*
Y41634D01*
X222973Y41350D01*
X222489Y40626D01*
X222319Y39772D01*
Y36228D01*
X222489Y35374D01*
X222973Y34650D01*
X223697Y34166D01*
X224551Y33996D01*
X224738D01*
X224930Y33535D01*
X221198Y29802D01*
X220645Y28975D01*
X220451Y28000D01*
Y25644D01*
X219500D01*
Y19039D01*
X217931D01*
X217132Y19837D01*
X217491Y20374D01*
X217661Y21228D01*
Y24772D01*
X217491Y25626D01*
X217007Y26350D01*
X216283Y26834D01*
X215429Y27003D01*
X214051D01*
X213197Y26834D01*
X212473Y26350D01*
X211989Y25626D01*
X211819Y24772D01*
Y21228D01*
X211989Y20374D01*
X212473Y19650D01*
X212701Y19498D01*
Y19346D01*
X212856Y18565D01*
X213298Y17904D01*
X215644Y15558D01*
X216305Y15116D01*
X217086Y14961D01*
X219500D01*
Y14356D01*
X226500D01*
Y19789D01*
Y25644D01*
X225549D01*
Y26944D01*
X229556Y30951D01*
X235500D01*
Y26000D01*
X235703D01*
X235984Y25500D01*
X235839Y24772D01*
Y21228D01*
X236009Y20374D01*
X236493Y19650D01*
X237217Y19166D01*
X238071Y18996D01*
X239449D01*
X240303Y19166D01*
X241027Y19650D01*
X241511Y20374D01*
X241681Y21228D01*
Y24772D01*
X241533Y25514D01*
X241500Y26000D01*
X241500Y26000D01*
X241500Y26000D01*
Y30951D01*
X244444D01*
X248317Y27079D01*
X247998Y26690D01*
X247783Y26834D01*
X246929Y27003D01*
X245551D01*
X244697Y26834D01*
X243973Y26350D01*
X243489Y25626D01*
X243319Y24772D01*
Y21228D01*
X243489Y20374D01*
X243973Y19650D01*
X244697Y19166D01*
X245551Y18996D01*
X246929D01*
X247783Y19166D01*
X248507Y19650D01*
X248991Y20374D01*
X249108Y20961D01*
X258500D01*
Y19856D01*
X265500D01*
Y25884D01*
X266383D01*
X288369Y3898D01*
X289196Y3345D01*
X290172Y3151D01*
X312471D01*
X313446Y3345D01*
X314273Y3898D01*
X315445Y5069D01*
X315997Y5896D01*
X316191Y6872D01*
Y7000D01*
X317500D01*
Y19722D01*
X318401Y20623D01*
X319125Y21877D01*
X319500Y23276D01*
Y24724D01*
X319125Y26123D01*
X318401Y27377D01*
X317778Y28000D01*
X317985Y28500D01*
X319500D01*
Y39500D01*
X317500D01*
Y51000D01*
X316539D01*
Y53461D01*
X365414D01*
X366195Y53616D01*
X366856Y54058D01*
X367442Y54644D01*
X367884Y55305D01*
X368039Y56086D01*
Y319414D01*
X367884Y320195D01*
X367442Y320856D01*
X366856Y321442D01*
X366195Y321884D01*
X365414Y322039D01*
X339791D01*
Y322651D01*
X340250Y322750D01*
X340291Y322750D01*
X354500D01*
Y337000D01*
X340250D01*
Y329170D01*
X339750Y329121D01*
X339636Y329695D01*
X339194Y330356D01*
X338608Y330942D01*
X337947Y331384D01*
X337166Y331539D01*
X336429D01*
Y336050D01*
Y342950D01*
X335929D01*
Y344000D01*
X325929D01*
Y342950D01*
X325429D01*
Y336050D01*
Y331050D01*
Y326050D01*
Y321000D01*
Y316050D01*
Y311050D01*
Y306050D01*
Y301539D01*
X314863D01*
X314727Y302044D01*
X314201Y302956D01*
X313456Y303701D01*
X312544Y304227D01*
X311527Y304500D01*
X310875D01*
X310558Y304887D01*
X310580Y305000D01*
Y325000D01*
X310460Y325605D01*
X310118Y326117D01*
X309605Y326460D01*
X309000Y326580D01*
X307000D01*
X306395Y326460D01*
X305883Y326117D01*
X305600Y325695D01*
X305165Y325752D01*
X305100Y325778D01*
Y326100D01*
X301600D01*
Y322100D01*
X300600D01*
Y326100D01*
X294300D01*
Y322100D01*
X293300D01*
Y326100D01*
X287000D01*
Y322100D01*
X286500D01*
Y321600D01*
X282500D01*
Y318100D01*
Y315400D01*
X286500D01*
Y314400D01*
X282500D01*
Y310900D01*
Y308200D01*
X286500D01*
Y307700D01*
X287000D01*
Y303700D01*
X293300D01*
Y307700D01*
X294300D01*
Y303700D01*
X300600D01*
Y307700D01*
X301600D01*
Y303700D01*
X305100D01*
Y304222D01*
X305165Y304248D01*
X305600Y304305D01*
X305883Y303883D01*
X306395Y303540D01*
X307000Y303420D01*
X307610D01*
X307708Y303181D01*
X307778Y302920D01*
X307302Y302095D01*
X307230Y302032D01*
X306713Y301888D01*
X306605Y301960D01*
X306000Y302080D01*
X281000D01*
X280395Y301960D01*
X279883Y301618D01*
X279540Y301105D01*
X279420Y300500D01*
Y298500D01*
X279540Y297895D01*
X279883Y297382D01*
X280395Y297040D01*
X281000Y296920D01*
X306000D01*
X306605Y297040D01*
X307118Y297382D01*
X307383Y297781D01*
X307429Y297810D01*
X307801Y297883D01*
X307966Y297877D01*
X308544Y297299D01*
X309456Y296773D01*
X310473Y296500D01*
X311527D01*
X312544Y296773D01*
X313456Y297299D01*
X313618Y297461D01*
X325429D01*
Y296050D01*
Y291050D01*
Y286129D01*
Y281050D01*
Y276050D01*
X327461D01*
Y266608D01*
X326874Y266491D01*
X326490Y266234D01*
X325836Y266368D01*
X325785Y266456D01*
X325040Y267201D01*
X324128Y267727D01*
X323111Y268000D01*
X322057D01*
X322039Y268014D01*
Y270063D01*
X323415D01*
Y281063D01*
X298415D01*
Y281100D01*
X291515D01*
Y281063D01*
X276515D01*
Y280563D01*
X275465D01*
Y275563D01*
Y270563D01*
X276515D01*
Y270063D01*
X277943D01*
Y266604D01*
X277374Y266491D01*
X276650Y266007D01*
X276166Y265283D01*
X275996Y264429D01*
Y263051D01*
X276098Y262539D01*
X275716Y262039D01*
X264845D01*
X251841Y275043D01*
X252067Y275524D01*
X252783Y275666D01*
X253507Y276150D01*
X253991Y276874D01*
X254008Y276961D01*
X258500D01*
Y276050D01*
X269500D01*
Y281050D01*
Y286050D01*
Y291050D01*
Y296050D01*
Y301050D01*
Y306050D01*
Y311050D01*
Y316050D01*
Y321050D01*
Y326050D01*
Y331050D01*
Y336050D01*
Y342950D01*
X269000D01*
Y344000D01*
X259000D01*
Y342950D01*
X258500D01*
Y342049D01*
X254056D01*
X250302Y345802D01*
X249476Y346355D01*
X248500Y346549D01*
X205679D01*
X204703Y346355D01*
X203876Y345802D01*
X200948Y342874D01*
X200395Y342046D01*
X200201Y341071D01*
Y331060D01*
X197250D01*
Y324549D01*
X183750D01*
Y326500D01*
X183750D01*
Y326560D01*
X183750D01*
Y335560D01*
X172750D01*
Y332779D01*
X166002D01*
X165850Y333007D01*
X165126Y333491D01*
X164272Y333661D01*
X160728D01*
X159874Y333491D01*
X159150Y333007D01*
X158998Y332779D01*
X157502D01*
X157350Y333007D01*
X156626Y333491D01*
X155772Y333661D01*
X152228D01*
X151374Y333491D01*
X150650Y333007D01*
X150166Y332283D01*
X149996Y331429D01*
Y330051D01*
X150020Y329936D01*
X149702Y329549D01*
X141512D01*
Y330272D01*
X124929D01*
Y323728D01*
X141512D01*
Y324451D01*
X150212D01*
X150529Y324064D01*
X150506Y323949D01*
Y323760D01*
X154000D01*
X157494D01*
Y323949D01*
X157484Y323995D01*
X157809Y324390D01*
X158182D01*
X158506Y323995D01*
X158496Y323949D01*
Y322571D01*
X158666Y321717D01*
X159150Y320993D01*
X159874Y320509D01*
X160728Y320339D01*
X164272D01*
X165126Y320509D01*
X165133Y320514D01*
X167944D01*
X168261Y320198D01*
X169088Y319645D01*
X170063Y319451D01*
X172750D01*
Y317500D01*
X172750D01*
Y317440D01*
X172750D01*
Y315549D01*
X167506D01*
X167491Y315626D01*
X167007Y316350D01*
X166283Y316834D01*
X165429Y317003D01*
X164051D01*
X163197Y316834D01*
X162473Y316350D01*
X161989Y315626D01*
X161819Y314772D01*
Y311228D01*
X161989Y310374D01*
X162473Y309650D01*
X163197Y309166D01*
X164051Y308997D01*
X165429D01*
X166283Y309166D01*
X167007Y309650D01*
X167491Y310374D01*
X167506Y310451D01*
X172750D01*
Y308440D01*
X174215D01*
Y302029D01*
X174215Y302029D01*
X174353Y300985D01*
X174756Y300012D01*
X175397Y299176D01*
X177086Y297487D01*
X177086Y297487D01*
X177853Y296899D01*
X177829Y296645D01*
X177715Y296399D01*
X165935D01*
X146769Y315565D01*
X146918Y316123D01*
X147351Y316238D01*
X148149Y316699D01*
X148801Y317351D01*
X149261Y318149D01*
X149489Y319000D01*
X142470D01*
X142291Y318767D01*
X78161D01*
Y319772D01*
X77991Y320626D01*
X77507Y321350D01*
X76783Y321834D01*
X75929Y322004D01*
X74551D01*
X73697Y321834D01*
X72973Y321350D01*
X72489Y320626D01*
X72319Y319772D01*
Y316228D01*
X72489Y315374D01*
X72973Y314650D01*
X73697Y314166D01*
X74551Y313997D01*
X75929D01*
X76783Y314166D01*
X77507Y314650D01*
X77533Y314689D01*
X141877D01*
X147604Y308962D01*
X147413Y308500D01*
X21652D01*
X21461Y308962D01*
X27188Y314689D01*
X65467D01*
X65493Y314650D01*
X66217Y314166D01*
X67071Y313997D01*
X68449D01*
X69303Y314166D01*
X70027Y314650D01*
X70511Y315374D01*
X70681Y316228D01*
Y319772D01*
X70511Y320626D01*
X70027Y321350D01*
X69303Y321834D01*
X68449Y322004D01*
X67071D01*
X66217Y321834D01*
X65493Y321350D01*
X65009Y320626D01*
X64839Y319772D01*
Y318767D01*
X26343D01*
X25563Y318612D01*
X24901Y318170D01*
X15231Y308500D01*
X1580D01*
Y321500D01*
X17000D01*
Y337500D01*
X17500D01*
Y338000D01*
X33500D01*
Y353420D01*
X258420D01*
Y349000D01*
X258540Y348395D01*
X258873Y347897D01*
X259000Y347450D01*
X259000Y347450D01*
X259000D01*
X259000Y347450D01*
Y345000D01*
X269000D01*
Y347420D01*
X325929Y347420D01*
Y345000D01*
X335929D01*
Y347450D01*
X335929Y347450D01*
X335929D01*
X336114Y347880D01*
X336118Y347883D01*
X336460Y348395D01*
X336580Y349000D01*
Y353420D01*
X370920D01*
Y33500D01*
D02*
G37*
G36*
X224540Y329910D02*
X224734Y328935D01*
X225287Y328108D01*
X228448Y324948D01*
X229275Y324395D01*
X230250Y324201D01*
X233000D01*
Y323750D01*
X234081D01*
Y319734D01*
X234009Y319626D01*
X233994Y319549D01*
X231006D01*
X230991Y319626D01*
X230507Y320350D01*
X229783Y320834D01*
X228929Y321004D01*
X227551D01*
X226697Y320834D01*
X225973Y320350D01*
X225489Y319626D01*
X225319Y318772D01*
Y315228D01*
X225489Y314374D01*
X225973Y313650D01*
X226160Y313526D01*
Y309381D01*
X225989Y309126D01*
X225952Y308940D01*
X225524Y308855D01*
X224698Y308302D01*
X224133Y307738D01*
X223671Y307929D01*
Y308272D01*
X223540Y308931D01*
X223166Y309489D01*
X222608Y309863D01*
X221949Y309994D01*
X221760D01*
Y306500D01*
Y303006D01*
X221949D01*
X222064Y303029D01*
X222451Y302712D01*
Y300288D01*
X222064Y299971D01*
X221949Y299994D01*
X221760D01*
Y296500D01*
Y293006D01*
X221949D01*
X222064Y293029D01*
X222451Y292712D01*
Y287556D01*
X222121Y287226D01*
X210522D01*
X210126Y287491D01*
X209272Y287661D01*
X205728D01*
X204874Y287491D01*
X204573Y287290D01*
X204074Y287557D01*
Y289378D01*
X203918Y290159D01*
X203476Y290820D01*
X200735Y293562D01*
X200858Y293860D01*
X200858D01*
Y304340D01*
X189522D01*
X189260Y304375D01*
X189260Y304375D01*
X182284D01*
Y308440D01*
X183750D01*
Y317440D01*
X183750D01*
Y317500D01*
X183750D01*
Y319451D01*
X197250D01*
Y313060D01*
X208250D01*
Y331060D01*
X205299D01*
Y340015D01*
X206735Y341451D01*
X224540D01*
Y329910D01*
D02*
G37*
G36*
X336838Y316461D02*
X361961D01*
Y286824D01*
X361574Y286507D01*
X361414Y286539D01*
X336429D01*
Y291050D01*
Y296050D01*
Y301050D01*
Y306050D01*
Y311050D01*
Y316032D01*
X336438Y316155D01*
X336816Y316465D01*
X336838Y316461D01*
D02*
G37*
G36*
X220000Y277750D02*
X227000D01*
Y277951D01*
X231951D01*
Y274798D01*
X231564Y274481D01*
X231449Y274503D01*
X230071D01*
X229217Y274334D01*
X228493Y273850D01*
X228009Y273126D01*
X227839Y272272D01*
Y268728D01*
X228009Y267874D01*
X228493Y267150D01*
X228841Y266918D01*
Y253144D01*
X227500D01*
Y249101D01*
X194535D01*
Y261500D01*
Y278000D01*
Y281660D01*
X199995D01*
Y281643D01*
X200150Y280862D01*
X200592Y280201D01*
X203497Y277297D01*
Y276571D01*
X203666Y275717D01*
X204150Y274993D01*
X204874Y274509D01*
X205559Y274373D01*
Y269000D01*
Y265394D01*
X205493Y265350D01*
X205009Y264626D01*
X204839Y263772D01*
Y260228D01*
X205009Y259374D01*
X205493Y258650D01*
X206217Y258166D01*
X207071Y257997D01*
X208449D01*
X209303Y258166D01*
X210027Y258650D01*
X210511Y259374D01*
X210681Y260228D01*
Y263772D01*
X210511Y264626D01*
X210027Y265350D01*
X209638Y265610D01*
Y266961D01*
X211559D01*
X211799Y266544D01*
X212544Y265799D01*
X213135Y265458D01*
X213180Y265351D01*
X213231Y264836D01*
X212960Y264431D01*
X212829Y263772D01*
Y262500D01*
X215240D01*
X217651D01*
Y263772D01*
X217520Y264431D01*
X217147Y264989D01*
X217034Y265065D01*
X217050Y265565D01*
X217456Y265799D01*
X218201Y266544D01*
X218727Y267456D01*
X219000Y268473D01*
Y269527D01*
X218727Y270544D01*
X218201Y271456D01*
X217456Y272201D01*
X216544Y272727D01*
X215527Y273000D01*
X214473D01*
X213456Y272727D01*
X212544Y272201D01*
X211799Y271456D01*
X211559Y271039D01*
X209638D01*
Y274412D01*
X210126Y274509D01*
X210802Y274961D01*
X212000D01*
Y274000D01*
X219000D01*
Y280000D01*
X212000D01*
Y279039D01*
X211176D01*
X210850Y279527D01*
X210126Y280011D01*
X209272Y280181D01*
X206380D01*
X205133Y281428D01*
X205379Y281889D01*
X205728Y281819D01*
X209272D01*
X210126Y281989D01*
X210334Y282128D01*
X220000D01*
Y277750D01*
D02*
G37*
G36*
X164647Y284147D02*
X164647Y284147D01*
X165483Y283506D01*
X166456Y283103D01*
X167500Y282965D01*
X180142D01*
Y281660D01*
X186466D01*
Y280799D01*
X169000D01*
Y281250D01*
X162000D01*
Y275250D01*
X169000D01*
Y275701D01*
X186466D01*
Y265000D01*
X181901D01*
Y267079D01*
X182007Y267150D01*
X182491Y267874D01*
X182661Y268728D01*
Y272272D01*
X182491Y273126D01*
X182007Y273850D01*
X181283Y274334D01*
X180429Y274503D01*
X179051D01*
X178197Y274334D01*
X177473Y273850D01*
X176989Y273126D01*
X176819Y272272D01*
Y268728D01*
X176989Y267874D01*
X177473Y267150D01*
X177823Y266917D01*
Y265000D01*
X176856D01*
Y258000D01*
X186466D01*
Y247429D01*
X186466Y247429D01*
X186603Y246385D01*
X187006Y245412D01*
X187647Y244576D01*
X190009Y242214D01*
X190845Y241573D01*
X191818Y241170D01*
X192810Y241039D01*
X192777Y240539D01*
X176039D01*
Y244392D01*
X176626Y244509D01*
X177350Y244993D01*
X177834Y245717D01*
X178004Y246571D01*
Y247949D01*
X177834Y248803D01*
X177350Y249527D01*
X176626Y250011D01*
X175772Y250181D01*
X172228D01*
X171374Y250011D01*
X170650Y249527D01*
X170498Y249299D01*
X169000D01*
Y250250D01*
X162000D01*
Y244250D01*
X169000D01*
Y245221D01*
X170498D01*
X170650Y244993D01*
X171374Y244509D01*
X171961Y244392D01*
Y239086D01*
X172116Y238305D01*
X172558Y237644D01*
X173144Y237058D01*
X173805Y236616D01*
X174586Y236461D01*
X217559D01*
X217799Y236044D01*
X218309Y235535D01*
X218102Y235034D01*
X141929D01*
X141929Y235034D01*
X140885Y234897D01*
X139912Y234494D01*
X139076Y233853D01*
X139076Y233853D01*
X136147Y230924D01*
X135506Y230088D01*
X135103Y229115D01*
X134966Y228071D01*
X134966Y228071D01*
Y212000D01*
X110500D01*
Y249500D01*
X118325D01*
X118561Y249059D01*
X118240Y248579D01*
X117750Y247396D01*
X117500Y246140D01*
Y244860D01*
X117750Y243604D01*
X118240Y242421D01*
X118951Y241356D01*
X119857Y240451D01*
X120921Y239740D01*
X122104Y239250D01*
X123360Y239000D01*
X124640D01*
X125896Y239250D01*
X127079Y239740D01*
X128144Y240451D01*
X129049Y241356D01*
X129760Y242421D01*
X130250Y243604D01*
X130321Y243961D01*
X157014D01*
X157795Y244116D01*
X158456Y244558D01*
X159042Y245144D01*
X159484Y245805D01*
X159639Y246586D01*
Y248000D01*
X161000D01*
Y254000D01*
X159639D01*
Y268461D01*
X162000D01*
Y267750D01*
X169000D01*
Y267870D01*
X169500Y267919D01*
X169509Y267874D01*
X169993Y267150D01*
X170717Y266666D01*
X171571Y266496D01*
X172949D01*
X173803Y266666D01*
X174527Y267150D01*
X175011Y267874D01*
X175181Y268728D01*
Y272272D01*
X175011Y273126D01*
X174527Y273850D01*
X173803Y274334D01*
X172949Y274503D01*
X171571D01*
X170717Y274334D01*
X169993Y273850D01*
X169509Y273126D01*
X169500Y273081D01*
X169000Y273130D01*
Y273750D01*
X162000D01*
Y272539D01*
X161000D01*
Y277500D01*
X154000D01*
Y271500D01*
X155561D01*
Y270000D01*
Y254000D01*
X154000D01*
Y248039D01*
X129984D01*
X129760Y248579D01*
X129439Y249059D01*
X129675Y249500D01*
X151500D01*
Y288465D01*
X160329D01*
X164647Y284147D01*
D02*
G37*
G36*
X241659Y290961D02*
X241493Y290850D01*
X241009Y290126D01*
X240839Y289272D01*
Y285728D01*
X241009Y284874D01*
X241493Y284150D01*
X242050Y283778D01*
X242057Y283758D01*
Y283242D01*
X242050Y283222D01*
X241493Y282850D01*
X241009Y282126D01*
X240839Y281272D01*
Y277728D01*
X241009Y276874D01*
X241493Y276150D01*
X241787Y275954D01*
X241908Y275345D01*
X242350Y274683D01*
X266975Y250058D01*
X266975Y250058D01*
X267637Y249616D01*
X268417Y249461D01*
X268417Y249461D01*
X279655D01*
X295308Y233808D01*
X295049Y233360D01*
X294527Y233500D01*
X293473D01*
X292456Y233227D01*
X291544Y232701D01*
X290799Y231956D01*
X290273Y231044D01*
X290000Y230027D01*
Y228973D01*
X290273Y227956D01*
X290799Y227044D01*
X291544Y226299D01*
X291961Y226059D01*
Y220015D01*
X292116Y219234D01*
X292558Y218573D01*
X296961Y214170D01*
Y138778D01*
X296461Y138489D01*
X296000Y138580D01*
X295000D01*
Y147515D01*
X285835Y147514D01*
X285500Y147580D01*
X148000D01*
Y154961D01*
X158914D01*
X159695Y155116D01*
X160356Y155558D01*
X160942Y156144D01*
X161384Y156805D01*
X161539Y157586D01*
Y164500D01*
X163000D01*
Y170500D01*
X161539D01*
Y186961D01*
X162000D01*
X162780Y187116D01*
X163442Y187558D01*
X164942Y189058D01*
X165384Y189720D01*
X165539Y190500D01*
Y190750D01*
X167000D01*
X167334Y190388D01*
X167493Y190150D01*
X168217Y189666D01*
X169071Y189497D01*
X170449D01*
X171303Y189666D01*
X172027Y190150D01*
X172511Y190874D01*
X172681Y191728D01*
Y195272D01*
X172511Y196126D01*
X172027Y196850D01*
X171303Y197334D01*
X170449Y197503D01*
X170457Y198000D01*
X175189D01*
Y196994D01*
X174973Y196850D01*
X174489Y196126D01*
X174319Y195272D01*
Y191728D01*
X174489Y190874D01*
X174973Y190150D01*
X175697Y189666D01*
X176551Y189497D01*
X177929D01*
X178783Y189666D01*
X179507Y190150D01*
X179991Y190874D01*
X180161Y191728D01*
Y195272D01*
X179991Y196126D01*
X179507Y196850D01*
X179268Y197010D01*
Y198000D01*
X180144D01*
Y204965D01*
X193092D01*
X193899Y204159D01*
X194166Y203161D01*
X194890Y201906D01*
X195914Y200882D01*
X197168Y200158D01*
X198567Y199784D01*
X200015D01*
X201414Y200158D01*
X202668Y200882D01*
X203692Y201906D01*
X204416Y203161D01*
X204791Y204559D01*
Y206008D01*
X204416Y207406D01*
X203692Y208661D01*
X202668Y209685D01*
X201414Y210409D01*
X200015Y210784D01*
X198685D01*
X197616Y211853D01*
X196780Y212494D01*
X195807Y212897D01*
X195323Y212961D01*
X195356Y213461D01*
X199655D01*
X207558Y205558D01*
X207558Y205558D01*
X208220Y205116D01*
X209000Y204961D01*
X209000Y204961D01*
X227558D01*
X227799Y204544D01*
X228544Y203799D01*
X229456Y203273D01*
X230473Y203000D01*
X231527D01*
X232544Y203273D01*
X233456Y203799D01*
X234201Y204544D01*
X234727Y205456D01*
X235000Y206473D01*
Y207527D01*
X234727Y208544D01*
X234201Y209456D01*
X233456Y210201D01*
X232544Y210727D01*
X231527Y211000D01*
X230473D01*
X229456Y210727D01*
X228544Y210201D01*
X227799Y209456D01*
X227558Y209039D01*
X209845D01*
X201942Y216942D01*
X201280Y217384D01*
X200500Y217539D01*
X181176D01*
X180850Y218027D01*
X180126Y218511D01*
X179272Y218681D01*
X175728D01*
X174874Y218511D01*
X174150Y218027D01*
X173998Y217799D01*
X172002D01*
X171850Y218027D01*
X171126Y218511D01*
X170272Y218681D01*
X166728D01*
X165874Y218511D01*
X165150Y218027D01*
X164998Y217799D01*
X163502D01*
X163350Y218027D01*
X162626Y218511D01*
X161772Y218681D01*
X158228D01*
X157374Y218511D01*
X156650Y218027D01*
X156498Y217799D01*
X154586D01*
X153805Y217644D01*
X153144Y217202D01*
X151058Y215116D01*
X150616Y214454D01*
X150461Y213674D01*
Y207046D01*
X149961Y206663D01*
X149328Y206789D01*
X148000D01*
Y212000D01*
X143035D01*
Y226400D01*
X143600Y226965D01*
X240408D01*
X243004Y224369D01*
Y223851D01*
X243379Y222452D01*
X244103Y221198D01*
X244469Y220831D01*
Y190996D01*
X244469Y190996D01*
X244607Y189952D01*
X245010Y188979D01*
X245651Y188143D01*
X252147Y181647D01*
X252357Y181486D01*
X252544Y181299D01*
X252773Y181167D01*
X252983Y181006D01*
X253227Y180905D01*
X253456Y180773D01*
X253712Y180704D01*
X253956Y180603D01*
X254218Y180568D01*
X254473Y180500D01*
X254738D01*
X255000Y180465D01*
X255262Y180500D01*
X255527D01*
X255782Y180568D01*
X256044Y180603D01*
X256289Y180704D01*
X256544Y180773D01*
X256773Y180905D01*
X257017Y181006D01*
X257227Y181167D01*
X257456Y181299D01*
X257643Y181486D01*
X257853Y181647D01*
X258014Y181857D01*
X258201Y182044D01*
X258333Y182273D01*
X258494Y182483D01*
X258595Y182727D01*
X258727Y182956D01*
X258796Y183211D01*
X258897Y183456D01*
X258932Y183718D01*
X259000Y183973D01*
Y184238D01*
X259034Y184500D01*
X259000Y184762D01*
Y185027D01*
X258932Y185282D01*
X258897Y185544D01*
X258796Y185789D01*
X258727Y186044D01*
X258595Y186273D01*
X258494Y186517D01*
X258333Y186727D01*
X258201Y186956D01*
X258014Y187143D01*
X257853Y187353D01*
X252538Y192667D01*
Y220831D01*
X252905Y221198D01*
X253629Y222452D01*
X254004Y223851D01*
Y225299D01*
X253629Y226698D01*
X252905Y227952D01*
X252597Y228259D01*
Y244500D01*
X252529Y245023D01*
X252535Y245067D01*
X252397Y246111D01*
X251994Y247084D01*
X251353Y247920D01*
X250517Y248561D01*
X249544Y248964D01*
X248500Y249101D01*
X234500D01*
Y253144D01*
X232919D01*
Y260101D01*
X233381Y260292D01*
X234137Y259537D01*
X234000Y259027D01*
Y257973D01*
X234273Y256956D01*
X234799Y256044D01*
X235544Y255299D01*
X236456Y254773D01*
X237473Y254500D01*
X238527D01*
X239544Y254773D01*
X240456Y255299D01*
X241201Y256044D01*
X241727Y256956D01*
X242000Y257973D01*
Y259027D01*
X241727Y260044D01*
X241201Y260956D01*
X240456Y261701D01*
X239544Y262227D01*
X238527Y262500D01*
X238383D01*
X237049Y263834D01*
Y266712D01*
X237436Y267029D01*
X237551Y267006D01*
X237740D01*
Y270500D01*
Y273994D01*
X237551D01*
X237436Y273971D01*
X237049Y274288D01*
Y279328D01*
X236855Y280304D01*
X236302Y281131D01*
X235131Y282302D01*
X234304Y282855D01*
X233399Y283035D01*
X233283Y283235D01*
X233206Y283549D01*
X233701Y284044D01*
X234227Y284956D01*
X234500Y285973D01*
Y287027D01*
X234227Y288044D01*
X233701Y288956D01*
X232956Y289701D01*
X232539Y289942D01*
Y291155D01*
X232845Y291461D01*
X241507D01*
X241659Y290961D01*
D02*
G37*
G36*
X359961Y190973D02*
X359461Y190706D01*
X359195Y190884D01*
X358414Y191039D01*
X357000D01*
Y193000D01*
X344278D01*
X343377Y193901D01*
X342773Y194250D01*
Y194750D01*
X343377Y195099D01*
X344278Y196000D01*
X357000D01*
Y203000D01*
X344278D01*
X343377Y203901D01*
X342773Y204250D01*
Y204750D01*
X343377Y205099D01*
X344278Y206000D01*
X357000D01*
Y213000D01*
X344278D01*
X343377Y213901D01*
X342773Y214250D01*
Y214750D01*
X343377Y215099D01*
X344278Y216000D01*
X357000D01*
Y223000D01*
X344278D01*
X343377Y223901D01*
X342123Y224625D01*
X342039Y224648D01*
Y259414D01*
X341884Y260195D01*
X341442Y260856D01*
X340856Y261442D01*
X340195Y261884D01*
X339414Y262039D01*
X333784D01*
X333402Y262539D01*
X333504Y263051D01*
Y264429D01*
X333334Y265283D01*
X332850Y266007D01*
X332126Y266491D01*
X331539Y266608D01*
Y276050D01*
X336429D01*
Y281050D01*
Y282461D01*
X359961D01*
Y190973D01*
D02*
G37*
G36*
X313000Y216000D02*
X324500D01*
Y214000D01*
X326828D01*
X326929Y213626D01*
X326929Y213500D01*
X325999Y212570D01*
X325959Y212500D01*
X322500D01*
Y209500D01*
Y206500D01*
X325959D01*
X325999Y206430D01*
X326930Y205499D01*
X328070Y204841D01*
X328409Y204750D01*
Y204250D01*
X328070Y204159D01*
X326930Y203501D01*
X325999Y202570D01*
X325959Y202500D01*
X322500D01*
Y199500D01*
Y196500D01*
X325959D01*
X325999Y196430D01*
X326930Y195499D01*
X328070Y194841D01*
X328409Y194750D01*
Y194250D01*
X328070Y194159D01*
X326930Y193501D01*
X325999Y192570D01*
X325959Y192500D01*
X322500D01*
Y189500D01*
Y186500D01*
X325959D01*
X325999Y186430D01*
X326930Y185499D01*
X328070Y184841D01*
X328409Y184750D01*
Y184250D01*
X328070Y184159D01*
X326930Y183501D01*
X325999Y182570D01*
X325959Y182500D01*
X322500D01*
Y179500D01*
Y176500D01*
X325959D01*
X325999Y176430D01*
X326930Y175499D01*
X328070Y174841D01*
X329342Y174500D01*
X329500D01*
Y179500D01*
X330500D01*
Y174500D01*
X330658D01*
X331930Y174841D01*
X333070Y175499D01*
X334001Y176430D01*
X334435Y177181D01*
X335000Y177160D01*
X335599Y176123D01*
X336623Y175099D01*
X337877Y174375D01*
X339276Y174000D01*
X340724D01*
X342123Y174375D01*
X343377Y175099D01*
X344278Y176000D01*
X356961D01*
Y146539D01*
X338161D01*
Y146772D01*
X337991Y147626D01*
X337507Y148350D01*
X336783Y148834D01*
X335929Y149004D01*
X334551D01*
X333697Y148834D01*
X332973Y148350D01*
X332489Y147626D01*
X332319Y146772D01*
Y143228D01*
X332459Y142524D01*
X332256Y142071D01*
X332167Y141956D01*
X331805Y141884D01*
X331144Y141442D01*
X330558Y140856D01*
X330116Y140195D01*
X329961Y139414D01*
Y132196D01*
X329461Y131989D01*
X329149Y132301D01*
X328351Y132762D01*
X327500Y132990D01*
Y129500D01*
Y126011D01*
X328351Y126239D01*
X329149Y126699D01*
X329461Y127011D01*
X329961Y126804D01*
Y123000D01*
X327500D01*
Y113592D01*
Y112000D01*
X327609D01*
X327807Y111263D01*
X328399Y110237D01*
X329237Y109399D01*
X330263Y108807D01*
X331408Y108500D01*
X332592D01*
X333737Y108807D01*
X334763Y109399D01*
X335601Y110237D01*
X336193Y111263D01*
X336391Y112000D01*
X336500D01*
Y123000D01*
X334039D01*
Y137961D01*
X361414D01*
X361574Y137993D01*
X361961Y137675D01*
Y60039D01*
X311500D01*
X310720Y59884D01*
X310058Y59442D01*
X306368Y55752D01*
X305907Y55944D01*
Y143115D01*
X306406Y143383D01*
X306805Y143116D01*
X307586Y142961D01*
X324892D01*
X325009Y142374D01*
X325493Y141650D01*
X326217Y141166D01*
X327071Y140997D01*
X328449D01*
X329303Y141166D01*
X330027Y141650D01*
X330511Y142374D01*
X330681Y143228D01*
Y146772D01*
X330511Y147626D01*
X330027Y148350D01*
X329303Y148834D01*
X328449Y149004D01*
X327071D01*
X326217Y148834D01*
X325493Y148350D01*
X325009Y147626D01*
X324892Y147039D01*
X309039D01*
Y220655D01*
X311345Y222961D01*
X313000D01*
Y216000D01*
D02*
G37*
G36*
X285500Y137000D02*
X285500Y62500D01*
X254500Y62500D01*
X254500Y94000D01*
X116000D01*
X116000Y137000D01*
X285500Y137000D01*
D02*
G37*
G36*
X287994Y49961D02*
X287616Y49395D01*
X287461Y48614D01*
Y39539D01*
X260108D01*
X259991Y40126D01*
X259507Y40850D01*
X258783Y41334D01*
X257929Y41504D01*
X256551D01*
X255697Y41334D01*
X254973Y40850D01*
X254489Y40126D01*
X254319Y39272D01*
Y35728D01*
X254489Y34874D01*
X254973Y34150D01*
X255697Y33666D01*
X256551Y33496D01*
X257929D01*
X258783Y33666D01*
X259507Y34150D01*
X259991Y34874D01*
X260108Y35461D01*
X288287D01*
X288591Y35064D01*
X288500Y34724D01*
Y33276D01*
X288875Y31877D01*
X289599Y30623D01*
X290623Y29599D01*
X291660Y29000D01*
X291681Y28435D01*
X290930Y28001D01*
X289999Y27070D01*
X289341Y25930D01*
X289000Y24658D01*
Y24500D01*
X294000D01*
Y23500D01*
X289000D01*
Y23342D01*
X289341Y22070D01*
X289999Y20930D01*
X290930Y19999D01*
X291000Y19959D01*
Y16500D01*
X294000D01*
X297000D01*
Y19959D01*
X297070Y19999D01*
X298001Y20930D01*
X298659Y22070D01*
X298750Y22409D01*
X299250D01*
X299341Y22070D01*
X299999Y20930D01*
X300930Y19999D01*
X301000Y19959D01*
Y16500D01*
X304000D01*
X307000D01*
Y19959D01*
X307070Y19999D01*
X308001Y20930D01*
X308435Y21681D01*
X309000Y21660D01*
X309599Y20623D01*
X310500Y19722D01*
Y8249D01*
X307000D01*
Y15500D01*
X304000D01*
X301000D01*
Y8249D01*
X297000D01*
Y15500D01*
X294000D01*
X291000D01*
Y9130D01*
X290538Y8938D01*
X269241Y30236D01*
X268414Y30788D01*
X267438Y30982D01*
X265500D01*
Y31144D01*
X258500D01*
Y30982D01*
X251623D01*
X249570Y33035D01*
X249762Y33496D01*
X250449D01*
X251303Y33666D01*
X252027Y34150D01*
X252511Y34874D01*
X252681Y35728D01*
Y39272D01*
X252511Y40126D01*
X252027Y40850D01*
X251303Y41334D01*
X250449Y41504D01*
X249071D01*
X248217Y41334D01*
X247493Y40850D01*
X247009Y40126D01*
X246892Y39539D01*
X245250D01*
Y41000D01*
X244279D01*
Y41998D01*
X244507Y42150D01*
X244991Y42874D01*
X245161Y43728D01*
Y47272D01*
X244991Y48126D01*
X244507Y48850D01*
X243783Y49334D01*
X242929Y49503D01*
X241551D01*
X240697Y49334D01*
X239973Y48850D01*
X239489Y48126D01*
X239319Y47272D01*
Y43728D01*
X239489Y42874D01*
X239973Y42150D01*
X240201Y41998D01*
Y41000D01*
X239250D01*
Y36049D01*
X237250D01*
Y37000D01*
X232250D01*
Y36049D01*
X228635D01*
X228445Y36121D01*
X228161Y36491D01*
Y39772D01*
X227991Y40626D01*
X227507Y41350D01*
X227476Y41371D01*
Y50461D01*
X287832D01*
X287994Y49961D01*
D02*
G37*
G36*
X245500Y62500D02*
X179500D01*
Y9000D01*
X91000D01*
Y29500D01*
X160500D01*
Y89500D01*
X245500D01*
Y62500D01*
D02*
G37*
G36*
X155000Y34000D02*
X74500D01*
Y9000D01*
X58000D01*
Y58000D01*
X116500D01*
Y78500D01*
X155000D01*
Y34000D01*
D02*
G37*
%LPC*%
G36*
X169500Y343989D02*
Y341000D01*
X172490D01*
X172262Y341851D01*
X171801Y342649D01*
X171149Y343301D01*
X170351Y343761D01*
X169500Y343989D01*
D02*
G37*
G36*
X168500D02*
X167649Y343761D01*
X166851Y343301D01*
X166199Y342649D01*
X165738Y341851D01*
X165510Y341000D01*
X168500D01*
Y343989D01*
D02*
G37*
G36*
X146500D02*
Y341000D01*
X149489D01*
X149261Y341851D01*
X148801Y342649D01*
X148149Y343301D01*
X147351Y343761D01*
X146500Y343989D01*
D02*
G37*
G36*
X145500D02*
X144649Y343761D01*
X143851Y343301D01*
X143199Y342649D01*
X142738Y341851D01*
X142510Y341000D01*
X145500D01*
Y343989D01*
D02*
G37*
G36*
X295500Y343490D02*
Y340500D01*
X298489D01*
X298261Y341351D01*
X297801Y342149D01*
X297149Y342801D01*
X296351Y343262D01*
X295500Y343490D01*
D02*
G37*
G36*
X294500D02*
X293649Y343262D01*
X292851Y342801D01*
X292199Y342149D01*
X291739Y341351D01*
X291511Y340500D01*
X294500D01*
Y343490D01*
D02*
G37*
G36*
X280000D02*
Y340500D01*
X282990D01*
X282762Y341351D01*
X282301Y342149D01*
X281649Y342801D01*
X280851Y343262D01*
X280000Y343490D01*
D02*
G37*
G36*
X279000D02*
X278149Y343262D01*
X277351Y342801D01*
X276699Y342149D01*
X276238Y341351D01*
X276010Y340500D01*
X279000D01*
Y343490D01*
D02*
G37*
G36*
X309445Y342926D02*
Y339936D01*
X312435D01*
X312207Y340787D01*
X311746Y341585D01*
X311094Y342237D01*
X310296Y342698D01*
X309445Y342926D01*
D02*
G37*
G36*
X308445D02*
X307594Y342698D01*
X306796Y342237D01*
X306144Y341585D01*
X305683Y340787D01*
X305455Y339936D01*
X308445D01*
Y342926D01*
D02*
G37*
G36*
X369750Y352250D02*
X355500D01*
Y338000D01*
X369750D01*
Y352250D01*
D02*
G37*
G36*
X354500D02*
X340250D01*
Y338000D01*
X354500D01*
Y352250D01*
D02*
G37*
G36*
X172490Y340000D02*
X169500D01*
Y337011D01*
X170351Y337239D01*
X171149Y337699D01*
X171801Y338351D01*
X172262Y339149D01*
X172490Y340000D01*
D02*
G37*
G36*
X168500D02*
X165510D01*
X165738Y339149D01*
X166199Y338351D01*
X166851Y337699D01*
X167649Y337239D01*
X168500Y337011D01*
Y340000D01*
D02*
G37*
G36*
X149489D02*
X146500D01*
Y337011D01*
X147351Y337239D01*
X148149Y337699D01*
X148801Y338351D01*
X149261Y339149D01*
X149489Y340000D01*
D02*
G37*
G36*
X145500D02*
X142510D01*
X142738Y339149D01*
X143199Y338351D01*
X143851Y337699D01*
X144649Y337239D01*
X145500Y337011D01*
Y340000D01*
D02*
G37*
G36*
X298489Y339500D02*
X295500D01*
Y336510D01*
X296351Y336738D01*
X297149Y337199D01*
X297801Y337851D01*
X298261Y338649D01*
X298489Y339500D01*
D02*
G37*
G36*
X294500D02*
X291511D01*
X291739Y338649D01*
X292199Y337851D01*
X292851Y337199D01*
X293649Y336738D01*
X294500Y336510D01*
Y339500D01*
D02*
G37*
G36*
X282990D02*
X280000D01*
Y336510D01*
X280851Y336738D01*
X281649Y337199D01*
X282301Y337851D01*
X282762Y338649D01*
X282990Y339500D01*
D02*
G37*
G36*
X279000D02*
X276010D01*
X276238Y338649D01*
X276699Y337851D01*
X277351Y337199D01*
X278149Y336738D01*
X279000Y336510D01*
Y339500D01*
D02*
G37*
G36*
X312435Y338936D02*
X309445D01*
Y335947D01*
X310296Y336175D01*
X311094Y336635D01*
X311746Y337287D01*
X312207Y338085D01*
X312435Y338936D01*
D02*
G37*
G36*
X308445D02*
X305455D01*
X305683Y338085D01*
X306144Y337287D01*
X306796Y336635D01*
X307594Y336175D01*
X308445Y335947D01*
Y338936D01*
D02*
G37*
G36*
X93000Y337490D02*
Y334500D01*
X95990D01*
X95762Y335351D01*
X95301Y336149D01*
X94649Y336801D01*
X93851Y337262D01*
X93000Y337490D01*
D02*
G37*
G36*
X92000D02*
X91149Y337262D01*
X90351Y336801D01*
X89699Y336149D01*
X89239Y335351D01*
X89011Y334500D01*
X92000D01*
Y337490D01*
D02*
G37*
G36*
X71500D02*
Y334500D01*
X74489D01*
X74261Y335351D01*
X73801Y336149D01*
X73149Y336801D01*
X72351Y337262D01*
X71500Y337490D01*
D02*
G37*
G36*
X70500D02*
X69649Y337262D01*
X68851Y336801D01*
X68199Y336149D01*
X67738Y335351D01*
X67510Y334500D01*
X70500D01*
Y337490D01*
D02*
G37*
G36*
X50000D02*
Y334500D01*
X52990D01*
X52762Y335351D01*
X52301Y336149D01*
X51649Y336801D01*
X50851Y337262D01*
X50000Y337490D01*
D02*
G37*
G36*
X49000D02*
X48149Y337262D01*
X47351Y336801D01*
X46699Y336149D01*
X46238Y335351D01*
X46011Y334500D01*
X49000D01*
Y337490D01*
D02*
G37*
G36*
X318500Y334489D02*
Y331500D01*
X321490D01*
X321262Y332351D01*
X320801Y333149D01*
X320149Y333801D01*
X319351Y334261D01*
X318500Y334489D01*
D02*
G37*
G36*
X317500D02*
X316649Y334261D01*
X315851Y333801D01*
X315199Y333149D01*
X314738Y332351D01*
X314510Y331500D01*
X317500D01*
Y334489D01*
D02*
G37*
G36*
X95990Y333500D02*
X93000D01*
Y330510D01*
X93851Y330738D01*
X94649Y331199D01*
X95301Y331851D01*
X95762Y332649D01*
X95990Y333500D01*
D02*
G37*
G36*
X92000D02*
X89011D01*
X89239Y332649D01*
X89699Y331851D01*
X90351Y331199D01*
X91149Y330738D01*
X92000Y330510D01*
Y333500D01*
D02*
G37*
G36*
X74489D02*
X71500D01*
Y330510D01*
X72351Y330738D01*
X73149Y331199D01*
X73801Y331851D01*
X74261Y332649D01*
X74489Y333500D01*
D02*
G37*
G36*
X70500D02*
X67510D01*
X67738Y332649D01*
X68199Y331851D01*
X68851Y331199D01*
X69649Y330738D01*
X70500Y330510D01*
Y333500D01*
D02*
G37*
G36*
X52990D02*
X50000D01*
Y330510D01*
X50851Y330738D01*
X51649Y331199D01*
X52301Y331851D01*
X52762Y332649D01*
X52990Y333500D01*
D02*
G37*
G36*
X49000D02*
X46011D01*
X46238Y332649D01*
X46699Y331851D01*
X47351Y331199D01*
X48149Y330738D01*
X49000Y330510D01*
Y333500D01*
D02*
G37*
G36*
X321490Y330500D02*
X318500D01*
Y327510D01*
X319351Y327738D01*
X320149Y328199D01*
X320801Y328851D01*
X321262Y329649D01*
X321490Y330500D01*
D02*
G37*
G36*
X317500D02*
X314510D01*
X314738Y329649D01*
X315199Y328851D01*
X315851Y328199D01*
X316649Y327738D01*
X317500Y327510D01*
Y330500D01*
D02*
G37*
G36*
X118571Y329772D02*
X111279D01*
Y327500D01*
X118571D01*
Y329772D01*
D02*
G37*
G36*
X110280D02*
X102988D01*
Y327500D01*
X110280D01*
Y329772D01*
D02*
G37*
G36*
X306000Y332580D02*
X281000D01*
X280395Y332460D01*
X279883Y332118D01*
X279540Y331605D01*
X279420Y331000D01*
Y329000D01*
X279540Y328395D01*
X279883Y327883D01*
X280395Y327540D01*
X281000Y327420D01*
X306000D01*
X306605Y327540D01*
X307118Y327883D01*
X307460Y328395D01*
X307580Y329000D01*
Y331000D01*
X307460Y331605D01*
X307118Y332118D01*
X306605Y332460D01*
X306000Y332580D01*
D02*
G37*
G36*
X118571Y326500D02*
X111279D01*
Y324228D01*
X118571D01*
Y326500D01*
D02*
G37*
G36*
X110280D02*
X102988D01*
Y324228D01*
X110280D01*
Y326500D01*
D02*
G37*
G36*
X369750Y337000D02*
X355500D01*
Y322750D01*
X369750D01*
Y337000D01*
D02*
G37*
G36*
X286000Y326100D02*
X282500D01*
Y322600D01*
X286000D01*
Y326100D01*
D02*
G37*
G36*
X33500Y337000D02*
X18000D01*
Y321500D01*
X33500D01*
Y337000D01*
D02*
G37*
G36*
X157494Y322760D02*
X154500D01*
Y320849D01*
X155772D01*
X156431Y320980D01*
X156989Y321353D01*
X157363Y321912D01*
X157494Y322571D01*
Y322760D01*
D02*
G37*
G36*
X153500D02*
X150506D01*
Y322571D01*
X150637Y321912D01*
X151011Y321353D01*
X151569Y320980D01*
X152228Y320849D01*
X153500D01*
Y322760D01*
D02*
G37*
G36*
X146500Y322990D02*
Y320000D01*
X149489D01*
X149261Y320851D01*
X148801Y321649D01*
X148149Y322301D01*
X147351Y322762D01*
X146500Y322990D01*
D02*
G37*
G36*
X145500D02*
X144649Y322762D01*
X143851Y322301D01*
X143199Y321649D01*
X142738Y320851D01*
X142510Y320000D01*
X145500D01*
Y322990D01*
D02*
G37*
G36*
X157949Y316494D02*
X157760D01*
Y313500D01*
X159671D01*
Y314772D01*
X159540Y315431D01*
X159167Y315989D01*
X158608Y316363D01*
X157949Y316494D01*
D02*
G37*
G36*
X156760D02*
X156571D01*
X155912Y316363D01*
X155353Y315989D01*
X154980Y315431D01*
X154849Y314772D01*
Y313500D01*
X156760D01*
Y316494D01*
D02*
G37*
G36*
X319000Y314989D02*
Y312000D01*
X321989D01*
X321761Y312851D01*
X321301Y313649D01*
X320649Y314301D01*
X319851Y314761D01*
X319000Y314989D01*
D02*
G37*
G36*
X318000D02*
X317149Y314761D01*
X316351Y314301D01*
X315699Y313649D01*
X315238Y312851D01*
X315010Y312000D01*
X318000D01*
Y314989D01*
D02*
G37*
G36*
X159671Y312500D02*
X157760D01*
Y309506D01*
X157949D01*
X158608Y309637D01*
X159167Y310011D01*
X159540Y310569D01*
X159671Y311228D01*
Y312500D01*
D02*
G37*
G36*
X156760D02*
X154849D01*
Y311228D01*
X154980Y310569D01*
X155353Y310011D01*
X155912Y309637D01*
X156571Y309506D01*
X156760D01*
Y312500D01*
D02*
G37*
G36*
X321989Y311000D02*
X319000D01*
Y308011D01*
X319851Y308239D01*
X320649Y308699D01*
X321301Y309351D01*
X321761Y310149D01*
X321989Y311000D01*
D02*
G37*
G36*
X318000D02*
X315010D01*
X315238Y310149D01*
X315699Y309351D01*
X316351Y308699D01*
X317149Y308239D01*
X318000Y308011D01*
Y311000D01*
D02*
G37*
G36*
X286000Y307200D02*
X282500D01*
Y303700D01*
X286000D01*
Y307200D01*
D02*
G37*
G36*
X279500Y326080D02*
X277500D01*
X276895Y325960D01*
X276382Y325618D01*
X276040Y325105D01*
X275920Y324500D01*
Y304500D01*
X276040Y303895D01*
X276382Y303382D01*
X276895Y303040D01*
X277500Y302920D01*
X279500D01*
X280105Y303040D01*
X280617Y303382D01*
X280960Y303895D01*
X281080Y304500D01*
Y324500D01*
X280960Y325105D01*
X280617Y325618D01*
X280105Y325960D01*
X279500Y326080D01*
D02*
G37*
G36*
X295148Y292545D02*
Y289556D01*
X298137D01*
X297909Y290407D01*
X297449Y291205D01*
X296797Y291857D01*
X295999Y292317D01*
X295148Y292545D01*
D02*
G37*
G36*
X294148D02*
X293297Y292317D01*
X292499Y291857D01*
X291847Y291205D01*
X291386Y290407D01*
X291158Y289556D01*
X294148D01*
Y292545D01*
D02*
G37*
G36*
X279830Y291865D02*
Y288875D01*
X282819D01*
X282591Y289726D01*
X282130Y290524D01*
X281479Y291176D01*
X280680Y291637D01*
X279830Y291865D01*
D02*
G37*
G36*
X278830D02*
X277979Y291637D01*
X277181Y291176D01*
X276529Y290524D01*
X276068Y289726D01*
X275840Y288875D01*
X278830D01*
Y291865D01*
D02*
G37*
G36*
X298137Y288556D02*
X295148D01*
Y285566D01*
X295999Y285794D01*
X296797Y286255D01*
X297449Y286907D01*
X297909Y287705D01*
X298137Y288556D01*
D02*
G37*
G36*
X294148D02*
X291158D01*
X291386Y287705D01*
X291847Y286907D01*
X292499Y286255D01*
X293297Y285794D01*
X294148Y285566D01*
Y288556D01*
D02*
G37*
G36*
X282819Y287875D02*
X279830D01*
Y284886D01*
X280680Y285114D01*
X281479Y285574D01*
X282130Y286226D01*
X282591Y287024D01*
X282819Y287875D01*
D02*
G37*
G36*
X278830D02*
X275840D01*
X276068Y287024D01*
X276529Y286226D01*
X277181Y285574D01*
X277979Y285114D01*
X278830Y284886D01*
Y287875D01*
D02*
G37*
G36*
X274465Y280563D02*
X272015D01*
Y276063D01*
X274465D01*
Y280563D01*
D02*
G37*
G36*
Y275063D02*
X272015D01*
Y270563D01*
X274465D01*
Y275063D01*
D02*
G37*
G36*
X267500Y270490D02*
Y267500D01*
X270490D01*
X270262Y268351D01*
X269801Y269149D01*
X269149Y269801D01*
X268351Y270262D01*
X267500Y270490D01*
D02*
G37*
G36*
X266500D02*
X265649Y270262D01*
X264851Y269801D01*
X264199Y269149D01*
X263738Y268351D01*
X263510Y267500D01*
X266500D01*
Y270490D01*
D02*
G37*
G36*
X270490Y266500D02*
X267500D01*
Y263510D01*
X268351Y263738D01*
X269149Y264199D01*
X269801Y264851D01*
X270262Y265649D01*
X270490Y266500D01*
D02*
G37*
G36*
X266500D02*
X263510D01*
X263738Y265649D01*
X264199Y264851D01*
X264851Y264199D01*
X265649Y263738D01*
X266500Y263510D01*
Y266500D01*
D02*
G37*
G36*
X203949Y49494D02*
X203760D01*
Y46500D01*
X205671D01*
Y47772D01*
X205540Y48431D01*
X205167Y48989D01*
X204608Y49363D01*
X203949Y49494D01*
D02*
G37*
G36*
X202760D02*
X202571D01*
X201912Y49363D01*
X201353Y48989D01*
X200980Y48431D01*
X200849Y47772D01*
Y46500D01*
X202760D01*
Y49494D01*
D02*
G37*
G36*
X353000Y48989D02*
Y46000D01*
X355990D01*
X355762Y46851D01*
X355301Y47649D01*
X354649Y48301D01*
X353851Y48761D01*
X353000Y48989D01*
D02*
G37*
G36*
X352000D02*
X351149Y48761D01*
X350351Y48301D01*
X349699Y47649D01*
X349238Y46851D01*
X349010Y46000D01*
X352000D01*
Y48989D01*
D02*
G37*
G36*
X205671Y45500D02*
X203760D01*
Y42506D01*
X203949D01*
X204608Y42637D01*
X205167Y43011D01*
X205540Y43569D01*
X205671Y44228D01*
Y45500D01*
D02*
G37*
G36*
X202760D02*
X200849D01*
Y44228D01*
X200980Y43569D01*
X201353Y43011D01*
X201912Y42637D01*
X202571Y42506D01*
X202760D01*
Y45500D01*
D02*
G37*
G36*
X355990Y45000D02*
X353000D01*
Y42011D01*
X353851Y42239D01*
X354649Y42699D01*
X355301Y43351D01*
X355762Y44149D01*
X355990Y45000D01*
D02*
G37*
G36*
X352000D02*
X349010D01*
X349238Y44149D01*
X349699Y43351D01*
X350351Y42699D01*
X351149Y42239D01*
X352000Y42011D01*
Y45000D01*
D02*
G37*
G36*
X205750Y41000D02*
X203750D01*
Y38500D01*
X205750D01*
Y41000D01*
D02*
G37*
G36*
X202750D02*
X200750D01*
Y38500D01*
X202750D01*
Y41000D01*
D02*
G37*
G36*
X205750Y37500D02*
X203750D01*
Y35000D01*
X205750D01*
Y37500D01*
D02*
G37*
G36*
X202750D02*
X200750D01*
Y35000D01*
X202750D01*
Y37500D01*
D02*
G37*
G36*
X211429Y50003D02*
X210051D01*
X209197Y49834D01*
X208473Y49350D01*
X207989Y48626D01*
X207819Y47772D01*
Y44228D01*
X207989Y43374D01*
X208473Y42650D01*
X208801Y42431D01*
Y41500D01*
X207750D01*
Y34500D01*
X213750D01*
Y35961D01*
X214892D01*
X215009Y35374D01*
X215493Y34650D01*
X216217Y34166D01*
X217071Y33996D01*
X218449D01*
X219303Y34166D01*
X220027Y34650D01*
X220511Y35374D01*
X220681Y36228D01*
Y39772D01*
X220511Y40626D01*
X220027Y41350D01*
X219303Y41834D01*
X218449Y42004D01*
X217071D01*
X216217Y41834D01*
X215493Y41350D01*
X215009Y40626D01*
X214892Y40039D01*
X213750D01*
Y41500D01*
X212879D01*
Y42565D01*
X213007Y42650D01*
X213491Y43374D01*
X213661Y44228D01*
Y47772D01*
X213491Y48626D01*
X213007Y49350D01*
X212283Y49834D01*
X211429Y50003D01*
D02*
G37*
G36*
X210000Y33500D02*
X204000D01*
Y26500D01*
X204492D01*
X204759Y26000D01*
X204509Y25626D01*
X204339Y24772D01*
Y21228D01*
X204509Y20374D01*
X204993Y19650D01*
X205717Y19166D01*
X206571Y18996D01*
X207949D01*
X208803Y19166D01*
X209527Y19650D01*
X210011Y20374D01*
X210181Y21228D01*
Y24772D01*
X210011Y25626D01*
X209761Y26000D01*
X210000Y26500D01*
X210000D01*
Y33500D01*
D02*
G37*
G36*
X354500D02*
X339000D01*
Y18000D01*
X354500D01*
Y33500D01*
D02*
G37*
G36*
X33500D02*
X18000D01*
Y18000D01*
X33500D01*
Y33500D01*
D02*
G37*
G36*
X198500Y20490D02*
Y17500D01*
X201489D01*
X201261Y18351D01*
X200801Y19149D01*
X200149Y19801D01*
X199351Y20261D01*
X198500Y20490D01*
D02*
G37*
G36*
X197500D02*
X196649Y20261D01*
X195851Y19801D01*
X195199Y19149D01*
X194738Y18351D01*
X194510Y17500D01*
X197500D01*
Y20490D01*
D02*
G37*
G36*
X255476Y19335D02*
Y16346D01*
X258465D01*
X258237Y17197D01*
X257776Y17995D01*
X257125Y18646D01*
X256327Y19107D01*
X255476Y19335D01*
D02*
G37*
G36*
X254476D02*
X253625Y19107D01*
X252827Y18646D01*
X252175Y17995D01*
X251714Y17197D01*
X251486Y16346D01*
X254476D01*
Y19335D01*
D02*
G37*
G36*
X201489Y16500D02*
X198500D01*
Y13510D01*
X199351Y13738D01*
X200149Y14199D01*
X200801Y14851D01*
X201261Y15649D01*
X201489Y16500D01*
D02*
G37*
G36*
X197500D02*
X194510D01*
X194738Y15649D01*
X195199Y14851D01*
X195851Y14199D01*
X196649Y13738D01*
X197500Y13510D01*
Y16500D01*
D02*
G37*
G36*
X258465Y15346D02*
X255476D01*
Y12356D01*
X256327Y12584D01*
X257125Y13045D01*
X257776Y13697D01*
X258237Y14495D01*
X258465Y15346D01*
D02*
G37*
G36*
X254476D02*
X251486D01*
X251714Y14495D01*
X252175Y13697D01*
X252827Y13045D01*
X253625Y12584D01*
X254476Y12356D01*
Y15346D01*
D02*
G37*
G36*
X216500Y339490D02*
Y336500D01*
X219490D01*
X219262Y337351D01*
X218801Y338149D01*
X218149Y338801D01*
X217351Y339262D01*
X216500Y339490D01*
D02*
G37*
G36*
X215500D02*
X214649Y339262D01*
X213851Y338801D01*
X213199Y338149D01*
X212738Y337351D01*
X212510Y336500D01*
X215500D01*
Y339490D01*
D02*
G37*
G36*
X219490Y335500D02*
X216500D01*
Y332510D01*
X217351Y332738D01*
X218149Y333199D01*
X218801Y333851D01*
X219262Y334649D01*
X219490Y335500D01*
D02*
G37*
G36*
X215500D02*
X212510D01*
X212738Y334649D01*
X213199Y333851D01*
X213851Y333199D01*
X214649Y332738D01*
X215500Y332510D01*
Y335500D01*
D02*
G37*
G36*
X215000Y327489D02*
Y324500D01*
X217989D01*
X217761Y325351D01*
X217301Y326149D01*
X216649Y326801D01*
X215851Y327261D01*
X215000Y327489D01*
D02*
G37*
G36*
X214000D02*
X213149Y327261D01*
X212351Y326801D01*
X211699Y326149D01*
X211239Y325351D01*
X211011Y324500D01*
X214000D01*
Y327489D01*
D02*
G37*
G36*
X217989Y323500D02*
X215000D01*
Y320511D01*
X215851Y320739D01*
X216649Y321199D01*
X217301Y321851D01*
X217761Y322649D01*
X217989Y323500D01*
D02*
G37*
G36*
X214000D02*
X211011D01*
X211239Y322649D01*
X211699Y321851D01*
X212351Y321199D01*
X213149Y320739D01*
X214000Y320511D01*
Y323500D01*
D02*
G37*
G36*
X221449Y320494D02*
X221260D01*
Y317500D01*
X223171D01*
Y318772D01*
X223040Y319431D01*
X222667Y319989D01*
X222108Y320363D01*
X221449Y320494D01*
D02*
G37*
G36*
X220260D02*
X220071D01*
X219412Y320363D01*
X218853Y319989D01*
X218480Y319431D01*
X218349Y318772D01*
Y317500D01*
X220260D01*
Y320494D01*
D02*
G37*
G36*
X223171Y316500D02*
X221260D01*
Y313506D01*
X221449D01*
X222108Y313637D01*
X222667Y314011D01*
X223040Y314569D01*
X223171Y315228D01*
Y316500D01*
D02*
G37*
G36*
X220260D02*
X218349D01*
Y315228D01*
X218480Y314569D01*
X218853Y314011D01*
X219412Y313637D01*
X220071Y313506D01*
X220260D01*
Y316500D01*
D02*
G37*
G36*
X204000Y311989D02*
Y309000D01*
X206990D01*
X206762Y309851D01*
X206301Y310649D01*
X205649Y311301D01*
X204851Y311761D01*
X204000Y311989D01*
D02*
G37*
G36*
X203000D02*
X202149Y311761D01*
X201351Y311301D01*
X200699Y310649D01*
X200238Y309851D01*
X200010Y309000D01*
X203000D01*
Y311989D01*
D02*
G37*
G36*
X220760Y309994D02*
X220571D01*
X219912Y309863D01*
X219353Y309489D01*
X218980Y308931D01*
X218849Y308272D01*
Y307000D01*
X220760D01*
Y309994D01*
D02*
G37*
G36*
X206990Y308000D02*
X204000D01*
Y305011D01*
X204851Y305239D01*
X205649Y305699D01*
X206301Y306351D01*
X206762Y307149D01*
X206990Y308000D01*
D02*
G37*
G36*
X203000D02*
X200010D01*
X200238Y307149D01*
X200699Y306351D01*
X201351Y305699D01*
X202149Y305239D01*
X203000Y305011D01*
Y308000D01*
D02*
G37*
G36*
X220760Y306000D02*
X218849D01*
Y304728D01*
X218980Y304069D01*
X219353Y303511D01*
X219912Y303137D01*
X220571Y303006D01*
X220760D01*
Y306000D01*
D02*
G37*
G36*
Y299994D02*
X220571D01*
X219912Y299863D01*
X219353Y299489D01*
X218980Y298931D01*
X218849Y298272D01*
Y297000D01*
X220760D01*
Y299994D01*
D02*
G37*
G36*
Y296000D02*
X218849D01*
Y294728D01*
X218980Y294069D01*
X219353Y293511D01*
X219912Y293137D01*
X220571Y293006D01*
X220760D01*
Y296000D01*
D02*
G37*
G36*
X349000Y301990D02*
Y299000D01*
X351990D01*
X351762Y299851D01*
X351301Y300649D01*
X350649Y301301D01*
X349851Y301762D01*
X349000Y301990D01*
D02*
G37*
G36*
X348000D02*
X347149Y301762D01*
X346351Y301301D01*
X345699Y300649D01*
X345238Y299851D01*
X345010Y299000D01*
X348000D01*
Y301990D01*
D02*
G37*
G36*
X351990Y298000D02*
X349000D01*
Y295010D01*
X349851Y295238D01*
X350649Y295699D01*
X351301Y296351D01*
X351762Y297149D01*
X351990Y298000D01*
D02*
G37*
G36*
X348000D02*
X345010D01*
X345238Y297149D01*
X345699Y296351D01*
X346351Y295699D01*
X347149Y295238D01*
X348000Y295010D01*
Y298000D01*
D02*
G37*
G36*
X226500Y275750D02*
X224000D01*
Y273750D01*
X226500D01*
Y275750D01*
D02*
G37*
G36*
X223000D02*
X220500D01*
Y273750D01*
X223000D01*
Y275750D01*
D02*
G37*
G36*
X200500Y273990D02*
Y271000D01*
X203489D01*
X203261Y271851D01*
X202801Y272649D01*
X202149Y273301D01*
X201351Y273762D01*
X200500Y273990D01*
D02*
G37*
G36*
X199500D02*
X198649Y273762D01*
X197851Y273301D01*
X197199Y272649D01*
X196739Y271851D01*
X196511Y271000D01*
X199500D01*
Y273990D01*
D02*
G37*
G36*
X226500Y272750D02*
X224000D01*
Y270750D01*
X226500D01*
Y272750D01*
D02*
G37*
G36*
X223000D02*
X220500D01*
Y270750D01*
X223000D01*
Y272750D01*
D02*
G37*
G36*
X203489Y270000D02*
X200500D01*
Y267010D01*
X201351Y267238D01*
X202149Y267699D01*
X202801Y268351D01*
X203261Y269149D01*
X203489Y270000D01*
D02*
G37*
G36*
X199500D02*
X196511D01*
X196739Y269149D01*
X197199Y268351D01*
X197851Y267699D01*
X198649Y267238D01*
X199500Y267010D01*
Y270000D01*
D02*
G37*
G36*
X200603Y261877D02*
Y258887D01*
X203592D01*
X203364Y259738D01*
X202904Y260536D01*
X202252Y261188D01*
X201454Y261649D01*
X200603Y261877D01*
D02*
G37*
G36*
X199603D02*
X198752Y261649D01*
X197954Y261188D01*
X197302Y260536D01*
X196841Y259738D01*
X196613Y258887D01*
X199603D01*
Y261877D01*
D02*
G37*
G36*
X217651Y261500D02*
X215740D01*
Y258506D01*
X215929D01*
X216588Y258637D01*
X217147Y259011D01*
X217520Y259569D01*
X217651Y260228D01*
Y261500D01*
D02*
G37*
G36*
X214740D02*
X212829D01*
Y260228D01*
X212960Y259569D01*
X213334Y259011D01*
X213892Y258637D01*
X214551Y258506D01*
X214740D01*
Y261500D01*
D02*
G37*
G36*
X203592Y257887D02*
X200603D01*
Y254898D01*
X201454Y255126D01*
X202252Y255587D01*
X202904Y256238D01*
X203364Y257036D01*
X203592Y257887D01*
D02*
G37*
G36*
X199603D02*
X196613D01*
X196841Y257036D01*
X197302Y256238D01*
X197954Y255587D01*
X198752Y255126D01*
X199603Y254898D01*
Y257887D01*
D02*
G37*
G36*
X168500Y265989D02*
Y263000D01*
X171490D01*
X171262Y263851D01*
X170801Y264649D01*
X170149Y265301D01*
X169351Y265761D01*
X168500Y265989D01*
D02*
G37*
G36*
X167500D02*
X166649Y265761D01*
X165851Y265301D01*
X165199Y264649D01*
X164739Y263851D01*
X164511Y263000D01*
X167500D01*
Y265989D01*
D02*
G37*
G36*
X171490Y262000D02*
X168500D01*
Y259011D01*
X169351Y259239D01*
X170149Y259699D01*
X170801Y260351D01*
X171262Y261149D01*
X171490Y262000D01*
D02*
G37*
G36*
X167500D02*
X164511D01*
X164739Y261149D01*
X165199Y260351D01*
X165851Y259699D01*
X166649Y259239D01*
X167500Y259011D01*
Y262000D01*
D02*
G37*
G36*
X168500Y257250D02*
X166000D01*
Y255250D01*
X168500D01*
Y257250D01*
D02*
G37*
G36*
X165000D02*
X162500D01*
Y255250D01*
X165000D01*
Y257250D01*
D02*
G37*
G36*
X175772Y257151D02*
X174500D01*
Y255240D01*
X177494D01*
Y255429D01*
X177363Y256088D01*
X176989Y256647D01*
X176431Y257020D01*
X175772Y257151D01*
D02*
G37*
G36*
X173500D02*
X172228D01*
X171569Y257020D01*
X171011Y256647D01*
X170637Y256088D01*
X170506Y255429D01*
Y255240D01*
X173500D01*
Y257151D01*
D02*
G37*
G36*
X177494Y254240D02*
X174500D01*
Y252329D01*
X175772D01*
X176431Y252460D01*
X176989Y252834D01*
X177363Y253392D01*
X177494Y254051D01*
Y254240D01*
D02*
G37*
G36*
X173500D02*
X170506D01*
Y254051D01*
X170637Y253392D01*
X171011Y252834D01*
X171569Y252460D01*
X172228Y252329D01*
X173500D01*
Y254240D01*
D02*
G37*
G36*
X168500Y254250D02*
X166000D01*
Y252250D01*
X168500D01*
Y254250D01*
D02*
G37*
G36*
X165000D02*
X162500D01*
Y252250D01*
X165000D01*
Y254250D01*
D02*
G37*
G36*
X166500Y242989D02*
Y240000D01*
X169490D01*
X169262Y240851D01*
X168801Y241649D01*
X168149Y242301D01*
X167351Y242761D01*
X166500Y242989D01*
D02*
G37*
G36*
X165500D02*
X164649Y242761D01*
X163851Y242301D01*
X163199Y241649D01*
X162739Y240851D01*
X162511Y240000D01*
X165500D01*
Y242989D01*
D02*
G37*
G36*
X155000D02*
Y240000D01*
X157990D01*
X157762Y240851D01*
X157301Y241649D01*
X156649Y242301D01*
X155851Y242761D01*
X155000Y242989D01*
D02*
G37*
G36*
X154000D02*
X153149Y242761D01*
X152351Y242301D01*
X151699Y241649D01*
X151239Y240851D01*
X151011Y240000D01*
X154000D01*
Y242989D01*
D02*
G37*
G36*
X169490Y239000D02*
X166500D01*
Y236011D01*
X167351Y236239D01*
X168149Y236699D01*
X168801Y237351D01*
X169262Y238149D01*
X169490Y239000D01*
D02*
G37*
G36*
X165500D02*
X162511D01*
X162739Y238149D01*
X163199Y237351D01*
X163851Y236699D01*
X164649Y236239D01*
X165500Y236011D01*
Y239000D01*
D02*
G37*
G36*
X157990D02*
X155000D01*
Y236011D01*
X155851Y236239D01*
X156649Y236699D01*
X157301Y237351D01*
X157762Y238149D01*
X157990Y239000D01*
D02*
G37*
G36*
X154000D02*
X151011D01*
X151239Y238149D01*
X151699Y237351D01*
X152351Y236699D01*
X153149Y236239D01*
X154000Y236011D01*
Y239000D01*
D02*
G37*
G36*
X122000Y232990D02*
Y230000D01*
X124989D01*
X124761Y230851D01*
X124301Y231649D01*
X123649Y232301D01*
X122851Y232762D01*
X122000Y232990D01*
D02*
G37*
G36*
X121000D02*
X120149Y232762D01*
X119351Y232301D01*
X118699Y231649D01*
X118238Y230851D01*
X118010Y230000D01*
X121000D01*
Y232990D01*
D02*
G37*
G36*
X124989Y229000D02*
X122000D01*
Y226010D01*
X122851Y226238D01*
X123649Y226699D01*
X124301Y227351D01*
X124761Y228149D01*
X124989Y229000D01*
D02*
G37*
G36*
X121000D02*
X118010D01*
X118238Y228149D01*
X118699Y227351D01*
X119351Y226699D01*
X120149Y226238D01*
X121000Y226010D01*
Y229000D01*
D02*
G37*
G36*
X238929Y273994D02*
X238740D01*
Y271000D01*
X240651D01*
Y272272D01*
X240520Y272931D01*
X240147Y273489D01*
X239588Y273863D01*
X238929Y273994D01*
D02*
G37*
G36*
X240651Y270000D02*
X238740D01*
Y267006D01*
X238929D01*
X239588Y267137D01*
X240147Y267511D01*
X240520Y268069D01*
X240651Y268728D01*
Y270000D01*
D02*
G37*
G36*
X256929Y247994D02*
X256740D01*
Y245000D01*
X258651D01*
Y246272D01*
X258520Y246931D01*
X258147Y247489D01*
X257588Y247863D01*
X256929Y247994D01*
D02*
G37*
G36*
X255740D02*
X255551D01*
X254892Y247863D01*
X254333Y247489D01*
X253960Y246931D01*
X253829Y246272D01*
Y245000D01*
X255740D01*
Y247994D01*
D02*
G37*
G36*
X258651Y244000D02*
X256740D01*
Y241006D01*
X256929D01*
X257588Y241137D01*
X258147Y241511D01*
X258520Y242069D01*
X258651Y242728D01*
Y244000D01*
D02*
G37*
G36*
X255740D02*
X253829D01*
Y242728D01*
X253960Y242069D01*
X254333Y241511D01*
X254892Y241137D01*
X255551Y241006D01*
X255740D01*
Y244000D01*
D02*
G37*
G36*
X264000Y234990D02*
Y232000D01*
X266989D01*
X266761Y232851D01*
X266301Y233649D01*
X265649Y234301D01*
X264851Y234762D01*
X264000Y234990D01*
D02*
G37*
G36*
X263000D02*
X262149Y234762D01*
X261351Y234301D01*
X260699Y233649D01*
X260239Y232851D01*
X260011Y232000D01*
X263000D01*
Y234990D01*
D02*
G37*
G36*
X266989Y231000D02*
X264000D01*
Y228011D01*
X264851Y228239D01*
X265649Y228699D01*
X266301Y229351D01*
X266761Y230149D01*
X266989Y231000D01*
D02*
G37*
G36*
X263000D02*
X260011D01*
X260239Y230149D01*
X260699Y229351D01*
X261351Y228699D01*
X262149Y228239D01*
X263000Y228011D01*
Y231000D01*
D02*
G37*
G36*
X280658Y229575D02*
X280500D01*
Y225075D01*
X285000D01*
Y225233D01*
X284659Y226505D01*
X284001Y227645D01*
X283070Y228576D01*
X281930Y229234D01*
X280658Y229575D01*
D02*
G37*
G36*
X279500D02*
X279342D01*
X278070Y229234D01*
X276930Y228576D01*
X275999Y227645D01*
X275341Y226505D01*
X275000Y225233D01*
Y225075D01*
X279500D01*
Y229575D01*
D02*
G37*
G36*
X170272Y225651D02*
X169000D01*
Y223740D01*
X171994D01*
Y223929D01*
X171863Y224588D01*
X171489Y225147D01*
X170931Y225520D01*
X170272Y225651D01*
D02*
G37*
G36*
X161772D02*
X160500D01*
Y223740D01*
X163494D01*
Y223929D01*
X163363Y224588D01*
X162989Y225147D01*
X162431Y225520D01*
X161772Y225651D01*
D02*
G37*
G36*
X168000D02*
X166728D01*
X166069Y225520D01*
X165511Y225147D01*
X165137Y224588D01*
X165006Y223929D01*
Y223740D01*
X168000D01*
Y225651D01*
D02*
G37*
G36*
X159500D02*
X158228D01*
X157569Y225520D01*
X157011Y225147D01*
X156637Y224588D01*
X156506Y223929D01*
Y223740D01*
X159500D01*
Y225651D01*
D02*
G37*
G36*
X221500Y225990D02*
Y223000D01*
X224489D01*
X224261Y223851D01*
X223801Y224649D01*
X223149Y225301D01*
X222351Y225762D01*
X221500Y225990D01*
D02*
G37*
G36*
X220500D02*
X219649Y225762D01*
X218851Y225301D01*
X218199Y224649D01*
X217739Y223851D01*
X217511Y223000D01*
X220500D01*
Y225990D01*
D02*
G37*
G36*
X149500Y224990D02*
Y222000D01*
X152489D01*
X152261Y222851D01*
X151801Y223649D01*
X151149Y224301D01*
X150351Y224762D01*
X149500Y224990D01*
D02*
G37*
G36*
X148500D02*
X147649Y224762D01*
X146851Y224301D01*
X146199Y223649D01*
X145738Y222851D01*
X145510Y222000D01*
X148500D01*
Y224990D01*
D02*
G37*
G36*
X171994Y222740D02*
X169000D01*
Y220829D01*
X170272D01*
X170931Y220960D01*
X171489Y221334D01*
X171863Y221892D01*
X171994Y222551D01*
Y222740D01*
D02*
G37*
G36*
X168000D02*
X165006D01*
Y222551D01*
X165137Y221892D01*
X165511Y221334D01*
X166069Y220960D01*
X166728Y220829D01*
X168000D01*
Y222740D01*
D02*
G37*
G36*
X163494D02*
X160500D01*
Y220829D01*
X161772D01*
X162431Y220960D01*
X162989Y221334D01*
X163363Y221892D01*
X163494Y222551D01*
Y222740D01*
D02*
G37*
G36*
X159500D02*
X156506D01*
Y222551D01*
X156637Y221892D01*
X157011Y221334D01*
X157569Y220960D01*
X158228Y220829D01*
X159500D01*
Y222740D01*
D02*
G37*
G36*
X285000Y224075D02*
X280500D01*
Y219575D01*
X280658D01*
X281930Y219916D01*
X283070Y220574D01*
X284001Y221505D01*
X284659Y222645D01*
X285000Y223917D01*
Y224075D01*
D02*
G37*
G36*
X279500D02*
X275000D01*
Y223917D01*
X275341Y222645D01*
X275999Y221505D01*
X276930Y220574D01*
X278070Y219916D01*
X279342Y219575D01*
X279500D01*
Y224075D01*
D02*
G37*
G36*
X224489Y222000D02*
X221500D01*
Y219010D01*
X222351Y219238D01*
X223149Y219699D01*
X223801Y220351D01*
X224261Y221149D01*
X224489Y222000D01*
D02*
G37*
G36*
X220500D02*
X217511D01*
X217739Y221149D01*
X218199Y220351D01*
X218851Y219699D01*
X219649Y219238D01*
X220500Y219010D01*
Y222000D01*
D02*
G37*
G36*
X152489Y221000D02*
X149500D01*
Y218010D01*
X150351Y218238D01*
X151149Y218699D01*
X151801Y219351D01*
X152261Y220149D01*
X152489Y221000D01*
D02*
G37*
G36*
X148500D02*
X145510D01*
X145738Y220149D01*
X146199Y219351D01*
X146851Y218699D01*
X147649Y218238D01*
X148500Y218010D01*
Y221000D01*
D02*
G37*
G36*
X263468Y218358D02*
Y215369D01*
X266457D01*
X266229Y216220D01*
X265768Y217018D01*
X265117Y217669D01*
X264318Y218130D01*
X263468Y218358D01*
D02*
G37*
G36*
X262468D02*
X261616Y218130D01*
X260818Y217669D01*
X260167Y217018D01*
X259706Y216220D01*
X259478Y215369D01*
X262468D01*
Y218358D01*
D02*
G37*
G36*
X179272Y226161D02*
X175728D01*
X174874Y225991D01*
X174150Y225507D01*
X173666Y224783D01*
X173496Y223929D01*
Y222551D01*
X173666Y221697D01*
X174150Y220973D01*
X174874Y220489D01*
X175728Y220319D01*
X179272D01*
X180126Y220489D01*
X180428Y220691D01*
X201704D01*
X208698Y213698D01*
X209525Y213145D01*
X210500Y212951D01*
X235688D01*
X236664Y213145D01*
X236740Y213196D01*
X237473Y213000D01*
X238527D01*
X239544Y213273D01*
X240456Y213799D01*
X241201Y214544D01*
X241727Y215456D01*
X242000Y216473D01*
Y217527D01*
X241727Y218544D01*
X241201Y219456D01*
X240456Y220201D01*
X239544Y220727D01*
X238527Y221000D01*
X237473D01*
X236456Y220727D01*
X235544Y220201D01*
X234799Y219456D01*
X234273Y218544D01*
X234140Y218049D01*
X211556D01*
X204562Y225043D01*
X203735Y225595D01*
X202760Y225789D01*
X180428D01*
X180126Y225991D01*
X179272Y226161D01*
D02*
G37*
G36*
X266457Y214369D02*
X263468D01*
Y211379D01*
X264318Y211607D01*
X265117Y212068D01*
X265768Y212720D01*
X266229Y213518D01*
X266457Y214369D01*
D02*
G37*
G36*
X262468D02*
X259478D01*
X259706Y213518D01*
X260167Y212720D01*
X260818Y212068D01*
X261616Y211607D01*
X262468Y211379D01*
Y214369D01*
D02*
G37*
G36*
X280658Y210283D02*
X280500D01*
Y205784D01*
X285000D01*
Y205942D01*
X284659Y207213D01*
X284001Y208353D01*
X283070Y209284D01*
X281930Y209943D01*
X280658Y210283D01*
D02*
G37*
G36*
X279500D02*
X279342D01*
X278070Y209943D01*
X276930Y209284D01*
X275999Y208353D01*
X275341Y207213D01*
X275000Y205942D01*
Y205784D01*
X279500D01*
Y210283D01*
D02*
G37*
G36*
X285000Y204784D02*
X280500D01*
Y200284D01*
X280658D01*
X281930Y200624D01*
X283070Y201283D01*
X284001Y202213D01*
X284659Y203354D01*
X285000Y204625D01*
Y204784D01*
D02*
G37*
G36*
X279500D02*
X275000D01*
Y204625D01*
X275341Y203354D01*
X275999Y202213D01*
X276930Y201283D01*
X278070Y200624D01*
X279342Y200284D01*
X279500D01*
Y204784D01*
D02*
G37*
G36*
X221500Y202489D02*
Y199500D01*
X224489D01*
X224261Y200351D01*
X223801Y201149D01*
X223149Y201801D01*
X222351Y202261D01*
X221500Y202489D01*
D02*
G37*
G36*
X220500D02*
X219649Y202261D01*
X218851Y201801D01*
X218199Y201149D01*
X217739Y200351D01*
X217511Y199500D01*
X220500D01*
Y202489D01*
D02*
G37*
G36*
X224489Y198500D02*
X221500D01*
Y195510D01*
X222351Y195738D01*
X223149Y196199D01*
X223801Y196851D01*
X224261Y197649D01*
X224489Y198500D01*
D02*
G37*
G36*
X220500D02*
X217511D01*
X217739Y197649D01*
X218199Y196851D01*
X218851Y196199D01*
X219649Y195738D01*
X220500Y195510D01*
Y198500D01*
D02*
G37*
G36*
X200714Y193075D02*
Y190086D01*
X203703D01*
X203475Y190937D01*
X203015Y191735D01*
X202363Y192386D01*
X201565Y192847D01*
X200714Y193075D01*
D02*
G37*
G36*
X199714D02*
X198863Y192847D01*
X198065Y192386D01*
X197413Y191735D01*
X196952Y190937D01*
X196724Y190086D01*
X199714D01*
Y193075D01*
D02*
G37*
G36*
X186500Y189489D02*
Y186500D01*
X189489D01*
X189261Y187351D01*
X188801Y188149D01*
X188149Y188801D01*
X187351Y189261D01*
X186500Y189489D01*
D02*
G37*
G36*
X185500D02*
X184649Y189261D01*
X183851Y188801D01*
X183199Y188149D01*
X182738Y187351D01*
X182510Y186500D01*
X185500D01*
Y189489D01*
D02*
G37*
G36*
X203703Y189086D02*
X200714D01*
Y186096D01*
X201565Y186324D01*
X202363Y186785D01*
X203015Y187437D01*
X203475Y188235D01*
X203703Y189086D01*
D02*
G37*
G36*
X199714D02*
X196724D01*
X196952Y188235D01*
X197413Y187437D01*
X198065Y186785D01*
X198863Y186324D01*
X199714Y186096D01*
Y189086D01*
D02*
G37*
G36*
X169500Y187989D02*
Y185000D01*
X172490D01*
X172262Y185851D01*
X171801Y186649D01*
X171149Y187301D01*
X170351Y187761D01*
X169500Y187989D01*
D02*
G37*
G36*
X168500D02*
X167649Y187761D01*
X166851Y187301D01*
X166199Y186649D01*
X165738Y185851D01*
X165510Y185000D01*
X168500D01*
Y187989D01*
D02*
G37*
G36*
X189489Y185500D02*
X186500D01*
Y182510D01*
X187351Y182738D01*
X188149Y183199D01*
X188801Y183851D01*
X189261Y184649D01*
X189489Y185500D01*
D02*
G37*
G36*
X185500D02*
X182510D01*
X182738Y184649D01*
X183199Y183851D01*
X183851Y183199D01*
X184649Y182738D01*
X185500Y182510D01*
Y185500D01*
D02*
G37*
G36*
X223212Y184810D02*
Y181821D01*
X226201D01*
X225973Y182672D01*
X225513Y183470D01*
X224861Y184122D01*
X224063Y184582D01*
X223212Y184810D01*
D02*
G37*
G36*
X222212D02*
X221361Y184582D01*
X220563Y184122D01*
X219911Y183470D01*
X219450Y182672D01*
X219222Y181821D01*
X222212D01*
Y184810D01*
D02*
G37*
G36*
X239500Y184490D02*
Y181500D01*
X242490D01*
X242262Y182351D01*
X241801Y183149D01*
X241149Y183801D01*
X240351Y184262D01*
X239500Y184490D01*
D02*
G37*
G36*
X238500D02*
X237649Y184262D01*
X236851Y183801D01*
X236199Y183149D01*
X235738Y182351D01*
X235510Y181500D01*
X238500D01*
Y184490D01*
D02*
G37*
G36*
X172490Y184000D02*
X169500D01*
Y181010D01*
X170351Y181238D01*
X171149Y181699D01*
X171801Y182351D01*
X172262Y183149D01*
X172490Y184000D01*
D02*
G37*
G36*
X168500D02*
X165510D01*
X165738Y183149D01*
X166199Y182351D01*
X166851Y181699D01*
X167649Y181238D01*
X168500Y181010D01*
Y184000D01*
D02*
G37*
G36*
X226201Y180821D02*
X223212D01*
Y177831D01*
X224063Y178059D01*
X224861Y178520D01*
X225513Y179172D01*
X225973Y179970D01*
X226201Y180821D01*
D02*
G37*
G36*
X222212D02*
X219222D01*
X219450Y179970D01*
X219911Y179172D01*
X220563Y178520D01*
X221361Y178059D01*
X222212Y177831D01*
Y180821D01*
D02*
G37*
G36*
X242490Y180500D02*
X239500D01*
Y177510D01*
X240351Y177738D01*
X241149Y178199D01*
X241801Y178851D01*
X242262Y179649D01*
X242490Y180500D01*
D02*
G37*
G36*
X238500D02*
X235510D01*
X235738Y179649D01*
X236199Y178851D01*
X236851Y178199D01*
X237649Y177738D01*
X238500Y177510D01*
Y180500D01*
D02*
G37*
G36*
X209527Y183500D02*
X208473D01*
X207456Y183227D01*
X206544Y182701D01*
X205799Y181956D01*
X205558Y181539D01*
X172586D01*
X171805Y181384D01*
X171144Y180942D01*
X170558Y180356D01*
X170116Y179695D01*
X169961Y178914D01*
Y173750D01*
X168000D01*
Y171250D01*
Y168750D01*
X169961D01*
Y166750D01*
X164000D01*
Y160750D01*
X171000D01*
Y161721D01*
X172498D01*
X172650Y161493D01*
X173374Y161009D01*
X174228Y160839D01*
X177772D01*
X178626Y161009D01*
X179350Y161493D01*
X179834Y162217D01*
X180003Y163071D01*
Y164449D01*
X179834Y165303D01*
X179350Y166027D01*
X178626Y166511D01*
X177772Y166681D01*
X174228D01*
X174039Y166836D01*
Y168674D01*
X174228Y168829D01*
X175500D01*
Y171240D01*
Y173651D01*
X174228D01*
X174039Y173806D01*
Y177461D01*
X205558D01*
X205799Y177044D01*
X206544Y176299D01*
X207456Y175773D01*
X208473Y175500D01*
X209527D01*
X210544Y175773D01*
X211456Y176299D01*
X212201Y177044D01*
X212727Y177956D01*
X213000Y178973D01*
Y180027D01*
X212727Y181044D01*
X212201Y181956D01*
X211456Y182701D01*
X210544Y183227D01*
X209527Y183500D01*
D02*
G37*
G36*
X167000Y173750D02*
X164500D01*
Y171750D01*
X167000D01*
Y173750D01*
D02*
G37*
G36*
X177772Y173651D02*
X176500D01*
Y171740D01*
X179494D01*
Y171929D01*
X179363Y172588D01*
X178989Y173147D01*
X178431Y173520D01*
X177772Y173651D01*
D02*
G37*
G36*
X249500Y172123D02*
Y169133D01*
X252489D01*
X252261Y169984D01*
X251801Y170782D01*
X251149Y171434D01*
X250351Y171894D01*
X249500Y172123D01*
D02*
G37*
G36*
X248500D02*
X247649Y171894D01*
X246851Y171434D01*
X246199Y170782D01*
X245739Y169984D01*
X245511Y169133D01*
X248500D01*
Y172123D01*
D02*
G37*
G36*
X233835D02*
Y169133D01*
X236825D01*
X236597Y169984D01*
X236136Y170782D01*
X235484Y171434D01*
X234686Y171894D01*
X233835Y172123D01*
D02*
G37*
G36*
X232835D02*
X231984Y171894D01*
X231186Y171434D01*
X230534Y170782D01*
X230074Y169984D01*
X229846Y169133D01*
X232835D01*
Y172123D01*
D02*
G37*
G36*
X218170D02*
Y169133D01*
X221160D01*
X220932Y169984D01*
X220471Y170782D01*
X219819Y171434D01*
X219021Y171894D01*
X218170Y172123D01*
D02*
G37*
G36*
X217170D02*
X216319Y171894D01*
X215521Y171434D01*
X214870Y170782D01*
X214409Y169984D01*
X214181Y169133D01*
X217170D01*
Y172123D01*
D02*
G37*
G36*
X202505D02*
Y169133D01*
X205495D01*
X205267Y169984D01*
X204806Y170782D01*
X204154Y171434D01*
X203356Y171894D01*
X202505Y172123D01*
D02*
G37*
G36*
X201505D02*
X200655Y171894D01*
X199856Y171434D01*
X199205Y170782D01*
X198744Y169984D01*
X198516Y169133D01*
X201505D01*
Y172123D01*
D02*
G37*
G36*
X179494Y170740D02*
X176500D01*
Y168829D01*
X177772D01*
X178431Y168960D01*
X178989Y169334D01*
X179363Y169892D01*
X179494Y170551D01*
Y170740D01*
D02*
G37*
G36*
X167000Y170750D02*
X164500D01*
Y168750D01*
X167000D01*
Y170750D01*
D02*
G37*
G36*
X252489Y168133D02*
X249500D01*
Y165144D01*
X250351Y165372D01*
X251149Y165832D01*
X251801Y166484D01*
X252261Y167282D01*
X252489Y168133D01*
D02*
G37*
G36*
X248500D02*
X245511D01*
X245739Y167282D01*
X246199Y166484D01*
X246851Y165832D01*
X247649Y165372D01*
X248500Y165144D01*
Y168133D01*
D02*
G37*
G36*
X236825D02*
X233835D01*
Y165144D01*
X234686Y165372D01*
X235484Y165832D01*
X236136Y166484D01*
X236597Y167282D01*
X236825Y168133D01*
D02*
G37*
G36*
X232835D02*
X229846D01*
X230074Y167282D01*
X230534Y166484D01*
X231186Y165832D01*
X231984Y165372D01*
X232835Y165144D01*
Y168133D01*
D02*
G37*
G36*
X221160D02*
X218170D01*
Y165144D01*
X219021Y165372D01*
X219819Y165832D01*
X220471Y166484D01*
X220932Y167282D01*
X221160Y168133D01*
D02*
G37*
G36*
X217170D02*
X214181D01*
X214409Y167282D01*
X214870Y166484D01*
X215521Y165832D01*
X216319Y165372D01*
X217170Y165144D01*
Y168133D01*
D02*
G37*
G36*
X205495D02*
X202505D01*
Y165144D01*
X203356Y165372D01*
X204154Y165832D01*
X204806Y166484D01*
X205267Y167282D01*
X205495Y168133D01*
D02*
G37*
G36*
X201505D02*
X198516D01*
X198744Y167282D01*
X199205Y166484D01*
X199856Y165832D01*
X200655Y165372D01*
X201505Y165144D01*
Y168133D01*
D02*
G37*
G36*
X259500Y159990D02*
Y157000D01*
X262490D01*
X262262Y157851D01*
X261801Y158649D01*
X261149Y159301D01*
X260351Y159762D01*
X259500Y159990D01*
D02*
G37*
G36*
X258500D02*
X257649Y159762D01*
X256851Y159301D01*
X256199Y158649D01*
X255738Y157851D01*
X255510Y157000D01*
X258500D01*
Y159990D01*
D02*
G37*
G36*
X242750D02*
Y157000D01*
X245740D01*
X245512Y157851D01*
X245051Y158649D01*
X244399Y159301D01*
X243601Y159762D01*
X242750Y159990D01*
D02*
G37*
G36*
X241750D02*
X240899Y159762D01*
X240101Y159301D01*
X239449Y158649D01*
X238988Y157851D01*
X238760Y157000D01*
X241750D01*
Y159990D01*
D02*
G37*
G36*
X226000D02*
Y157000D01*
X228990D01*
X228762Y157851D01*
X228301Y158649D01*
X227649Y159301D01*
X226851Y159762D01*
X226000Y159990D01*
D02*
G37*
G36*
X225000D02*
X224149Y159762D01*
X223351Y159301D01*
X222699Y158649D01*
X222238Y157851D01*
X222010Y157000D01*
X225000D01*
Y159990D01*
D02*
G37*
G36*
X209250D02*
Y157000D01*
X212240D01*
X212012Y157851D01*
X211551Y158649D01*
X210899Y159301D01*
X210101Y159762D01*
X209250Y159990D01*
D02*
G37*
G36*
X208250D02*
X207399Y159762D01*
X206601Y159301D01*
X205949Y158649D01*
X205488Y157851D01*
X205260Y157000D01*
X208250D01*
Y159990D01*
D02*
G37*
G36*
X192500D02*
Y157000D01*
X195490D01*
X195262Y157851D01*
X194801Y158649D01*
X194149Y159301D01*
X193351Y159762D01*
X192500Y159990D01*
D02*
G37*
G36*
X191500D02*
X190649Y159762D01*
X189851Y159301D01*
X189199Y158649D01*
X188739Y157851D01*
X188511Y157000D01*
X191500D01*
Y159990D01*
D02*
G37*
G36*
X262490Y156000D02*
X259500D01*
Y153010D01*
X260351Y153238D01*
X261149Y153699D01*
X261801Y154351D01*
X262262Y155149D01*
X262490Y156000D01*
D02*
G37*
G36*
X258500D02*
X255510D01*
X255738Y155149D01*
X256199Y154351D01*
X256851Y153699D01*
X257649Y153238D01*
X258500Y153010D01*
Y156000D01*
D02*
G37*
G36*
X245740D02*
X242750D01*
Y153010D01*
X243601Y153238D01*
X244399Y153699D01*
X245051Y154351D01*
X245512Y155149D01*
X245740Y156000D01*
D02*
G37*
G36*
X241750D02*
X238760D01*
X238988Y155149D01*
X239449Y154351D01*
X240101Y153699D01*
X240899Y153238D01*
X241750Y153010D01*
Y156000D01*
D02*
G37*
G36*
X228990D02*
X226000D01*
Y153010D01*
X226851Y153238D01*
X227649Y153699D01*
X228301Y154351D01*
X228762Y155149D01*
X228990Y156000D01*
D02*
G37*
G36*
X225000D02*
X222010D01*
X222238Y155149D01*
X222699Y154351D01*
X223351Y153699D01*
X224149Y153238D01*
X225000Y153010D01*
Y156000D01*
D02*
G37*
G36*
X212240D02*
X209250D01*
Y153010D01*
X210101Y153238D01*
X210899Y153699D01*
X211551Y154351D01*
X212012Y155149D01*
X212240Y156000D01*
D02*
G37*
G36*
X208250D02*
X205260D01*
X205488Y155149D01*
X205949Y154351D01*
X206601Y153699D01*
X207399Y153238D01*
X208250Y153010D01*
Y156000D01*
D02*
G37*
G36*
X195490D02*
X192500D01*
Y153010D01*
X193351Y153238D01*
X194149Y153699D01*
X194801Y154351D01*
X195262Y155149D01*
X195490Y156000D01*
D02*
G37*
G36*
X191500D02*
X188511D01*
X188739Y155149D01*
X189199Y154351D01*
X189851Y153699D01*
X190649Y153238D01*
X191500Y153010D01*
Y156000D01*
D02*
G37*
G36*
X350500Y279489D02*
Y276500D01*
X353489D01*
X353261Y277351D01*
X352801Y278149D01*
X352149Y278801D01*
X351351Y279261D01*
X350500Y279489D01*
D02*
G37*
G36*
X349500D02*
X348649Y279261D01*
X347851Y278801D01*
X347199Y278149D01*
X346739Y277351D01*
X346511Y276500D01*
X349500D01*
Y279489D01*
D02*
G37*
G36*
X353489Y275500D02*
X350500D01*
Y272511D01*
X351351Y272739D01*
X352149Y273199D01*
X352801Y273851D01*
X353261Y274649D01*
X353489Y275500D01*
D02*
G37*
G36*
X349500D02*
X346511D01*
X346739Y274649D01*
X347199Y273851D01*
X347851Y273199D01*
X348649Y272739D01*
X349500Y272511D01*
Y275500D01*
D02*
G37*
G36*
X350500Y264739D02*
Y261750D01*
X353489D01*
X353261Y262601D01*
X352801Y263399D01*
X352149Y264051D01*
X351351Y264511D01*
X350500Y264739D01*
D02*
G37*
G36*
X349500D02*
X348649Y264511D01*
X347851Y264051D01*
X347199Y263399D01*
X346739Y262601D01*
X346511Y261750D01*
X349500D01*
Y264739D01*
D02*
G37*
G36*
X353489Y260750D02*
X350500D01*
Y257761D01*
X351351Y257989D01*
X352149Y258449D01*
X352801Y259101D01*
X353261Y259899D01*
X353489Y260750D01*
D02*
G37*
G36*
X349500D02*
X346511D01*
X346739Y259899D01*
X347199Y259101D01*
X347851Y258449D01*
X348649Y257989D01*
X349500Y257761D01*
Y260750D01*
D02*
G37*
G36*
X350500Y249990D02*
Y247000D01*
X353489D01*
X353261Y247851D01*
X352801Y248649D01*
X352149Y249301D01*
X351351Y249762D01*
X350500Y249990D01*
D02*
G37*
G36*
X349500D02*
X348649Y249762D01*
X347851Y249301D01*
X347199Y248649D01*
X346739Y247851D01*
X346511Y247000D01*
X349500D01*
Y249990D01*
D02*
G37*
G36*
X353489Y246000D02*
X350500D01*
Y243010D01*
X351351Y243238D01*
X352149Y243699D01*
X352801Y244351D01*
X353261Y245149D01*
X353489Y246000D01*
D02*
G37*
G36*
X349500D02*
X346511D01*
X346739Y245149D01*
X347199Y244351D01*
X347851Y243699D01*
X348649Y243238D01*
X349500Y243010D01*
Y246000D01*
D02*
G37*
G36*
X321500Y212500D02*
X313500D01*
Y210000D01*
X321500D01*
Y212500D01*
D02*
G37*
G36*
Y209000D02*
X313500D01*
Y206500D01*
X321500D01*
Y209000D01*
D02*
G37*
G36*
Y202500D02*
X313500D01*
Y200000D01*
X321500D01*
Y202500D01*
D02*
G37*
G36*
Y199000D02*
X313500D01*
Y196500D01*
X321500D01*
Y199000D01*
D02*
G37*
G36*
Y192500D02*
X313500D01*
Y190000D01*
X321500D01*
Y192500D01*
D02*
G37*
G36*
Y189000D02*
X313500D01*
Y186500D01*
X321500D01*
Y189000D01*
D02*
G37*
G36*
Y182500D02*
X313500D01*
Y180000D01*
X321500D01*
Y182500D01*
D02*
G37*
G36*
Y179000D02*
X313500D01*
Y176500D01*
X321500D01*
Y179000D01*
D02*
G37*
G36*
X320000Y155990D02*
Y153000D01*
X322990D01*
X322762Y153851D01*
X322301Y154649D01*
X321649Y155301D01*
X320851Y155762D01*
X320000Y155990D01*
D02*
G37*
G36*
X319000D02*
X318149Y155762D01*
X317351Y155301D01*
X316699Y154649D01*
X316238Y153851D01*
X316010Y153000D01*
X319000D01*
Y155990D01*
D02*
G37*
G36*
X346500Y155490D02*
Y152500D01*
X349489D01*
X349261Y153351D01*
X348801Y154149D01*
X348149Y154801D01*
X347351Y155262D01*
X346500Y155490D01*
D02*
G37*
G36*
X345500D02*
X344649Y155262D01*
X343851Y154801D01*
X343199Y154149D01*
X342739Y153351D01*
X342511Y152500D01*
X345500D01*
Y155490D01*
D02*
G37*
G36*
X322990Y152000D02*
X320000D01*
Y149011D01*
X320851Y149239D01*
X321649Y149699D01*
X322301Y150351D01*
X322762Y151149D01*
X322990Y152000D01*
D02*
G37*
G36*
X319000D02*
X316010D01*
X316238Y151149D01*
X316699Y150351D01*
X317351Y149699D01*
X318149Y149239D01*
X319000Y149011D01*
Y152000D01*
D02*
G37*
G36*
X349489Y151500D02*
X346500D01*
Y148511D01*
X347351Y148739D01*
X348149Y149199D01*
X348801Y149851D01*
X349261Y150649D01*
X349489Y151500D01*
D02*
G37*
G36*
X345500D02*
X342511D01*
X342739Y150649D01*
X343199Y149851D01*
X343851Y149199D01*
X344649Y148739D01*
X345500Y148511D01*
Y151500D01*
D02*
G37*
G36*
X353107Y133490D02*
Y130500D01*
X356096D01*
X355868Y131351D01*
X355407Y132149D01*
X354756Y132801D01*
X353958Y133262D01*
X353107Y133490D01*
D02*
G37*
G36*
X352107D02*
X351256Y133262D01*
X350458Y132801D01*
X349806Y132149D01*
X349345Y131351D01*
X349117Y130500D01*
X352107D01*
Y133490D01*
D02*
G37*
G36*
X339500D02*
Y130500D01*
X342490D01*
X342262Y131351D01*
X341801Y132149D01*
X341149Y132801D01*
X340351Y133262D01*
X339500Y133490D01*
D02*
G37*
G36*
X338500D02*
X337649Y133262D01*
X336851Y132801D01*
X336199Y132149D01*
X335738Y131351D01*
X335510Y130500D01*
X338500D01*
Y133490D01*
D02*
G37*
G36*
X315000D02*
Y130500D01*
X317989D01*
X317761Y131351D01*
X317301Y132149D01*
X316649Y132801D01*
X315851Y133262D01*
X315000Y133490D01*
D02*
G37*
G36*
X314000D02*
X313149Y133262D01*
X312351Y132801D01*
X311699Y132149D01*
X311239Y131351D01*
X311011Y130500D01*
X314000D01*
Y133490D01*
D02*
G37*
G36*
X356096Y129500D02*
X353107D01*
Y126511D01*
X353958Y126739D01*
X354756Y127199D01*
X355407Y127851D01*
X355868Y128649D01*
X356096Y129500D01*
D02*
G37*
G36*
X352107D02*
X349117D01*
X349345Y128649D01*
X349806Y127851D01*
X350458Y127199D01*
X351256Y126739D01*
X352107Y126511D01*
Y129500D01*
D02*
G37*
G36*
X342490D02*
X339500D01*
Y126511D01*
X340351Y126739D01*
X341149Y127199D01*
X341801Y127851D01*
X342262Y128649D01*
X342490Y129500D01*
D02*
G37*
G36*
X338500D02*
X335510D01*
X335738Y128649D01*
X336199Y127851D01*
X336851Y127199D01*
X337649Y126739D01*
X338500Y126511D01*
Y129500D01*
D02*
G37*
G36*
X317989D02*
X315000D01*
Y126511D01*
X315851Y126739D01*
X316649Y127199D01*
X317301Y127851D01*
X317761Y128649D01*
X317989Y129500D01*
D02*
G37*
G36*
X314000D02*
X311011D01*
X311239Y128649D01*
X311699Y127851D01*
X312351Y127199D01*
X313149Y126739D01*
X314000Y126511D01*
Y129500D01*
D02*
G37*
G36*
X322567Y139840D02*
X321514D01*
X320497Y139567D01*
X319585Y139041D01*
X318840Y138296D01*
X318313Y137384D01*
X318041Y136366D01*
Y135313D01*
X318313Y134296D01*
X318840Y133384D01*
X319585Y132639D01*
X320002Y132398D01*
Y123000D01*
X317500D01*
Y113592D01*
Y112000D01*
X317609D01*
X317807Y111263D01*
X318399Y110237D01*
X319237Y109399D01*
X320263Y108807D01*
X321408Y108500D01*
X322592D01*
X323737Y108807D01*
X324763Y109399D01*
X325601Y110237D01*
X326193Y111263D01*
X326391Y112000D01*
X326500D01*
Y123000D01*
X324080D01*
Y126763D01*
X324580Y126970D01*
X324851Y126699D01*
X325649Y126239D01*
X326500Y126011D01*
Y129500D01*
Y132990D01*
X325649Y132762D01*
X324851Y132301D01*
X324522Y132665D01*
X325242Y133384D01*
X325768Y134296D01*
X326041Y135313D01*
Y136366D01*
X325768Y137384D01*
X325242Y138296D01*
X324497Y139041D01*
X323585Y139567D01*
X322567Y139840D01*
D02*
G37*
G36*
X353107Y117532D02*
Y114542D01*
X356096D01*
X355868Y115393D01*
X355407Y116192D01*
X354756Y116843D01*
X353958Y117304D01*
X353107Y117532D01*
D02*
G37*
G36*
X352107D02*
X351256Y117304D01*
X350458Y116843D01*
X349806Y116192D01*
X349345Y115393D01*
X349117Y114542D01*
X352107D01*
Y117532D01*
D02*
G37*
G36*
X356096Y113542D02*
X353107D01*
Y110553D01*
X353958Y110781D01*
X354756Y111242D01*
X355407Y111893D01*
X355868Y112692D01*
X356096Y113542D01*
D02*
G37*
G36*
X352107D02*
X349117D01*
X349345Y112692D01*
X349806Y111893D01*
X350458Y111242D01*
X351256Y110781D01*
X352107Y110553D01*
Y113542D01*
D02*
G37*
G36*
X353107Y104490D02*
Y101500D01*
X356096D01*
X355868Y102351D01*
X355407Y103149D01*
X354756Y103801D01*
X353958Y104262D01*
X353107Y104490D01*
D02*
G37*
G36*
X352107D02*
X351256Y104262D01*
X350458Y103801D01*
X349806Y103149D01*
X349345Y102351D01*
X349117Y101500D01*
X352107D01*
Y104490D01*
D02*
G37*
G36*
X336500Y102489D02*
Y99500D01*
X339490D01*
X339262Y100351D01*
X338801Y101149D01*
X338149Y101801D01*
X337351Y102261D01*
X336500Y102489D01*
D02*
G37*
G36*
X335500D02*
X334649Y102261D01*
X333851Y101801D01*
X333199Y101149D01*
X332738Y100351D01*
X332510Y99500D01*
X335500D01*
Y102489D01*
D02*
G37*
G36*
X319500D02*
Y99500D01*
X322490D01*
X322262Y100351D01*
X321801Y101149D01*
X321149Y101801D01*
X320351Y102261D01*
X319500Y102489D01*
D02*
G37*
G36*
X318500D02*
X317649Y102261D01*
X316851Y101801D01*
X316199Y101149D01*
X315739Y100351D01*
X315511Y99500D01*
X318500D01*
Y102489D01*
D02*
G37*
G36*
X356096Y100500D02*
X353107D01*
Y97510D01*
X353958Y97738D01*
X354756Y98199D01*
X355407Y98851D01*
X355868Y99649D01*
X356096Y100500D01*
D02*
G37*
G36*
X352107D02*
X349117D01*
X349345Y99649D01*
X349806Y98851D01*
X350458Y98199D01*
X351256Y97738D01*
X352107Y97510D01*
Y100500D01*
D02*
G37*
G36*
X339490Y98500D02*
X336500D01*
Y95511D01*
X337351Y95739D01*
X338149Y96199D01*
X338801Y96851D01*
X339262Y97649D01*
X339490Y98500D01*
D02*
G37*
G36*
X335500D02*
X332510D01*
X332738Y97649D01*
X333199Y96851D01*
X333851Y96199D01*
X334649Y95739D01*
X335500Y95511D01*
Y98500D01*
D02*
G37*
G36*
X322490D02*
X319500D01*
Y95511D01*
X320351Y95739D01*
X321149Y96199D01*
X321801Y96851D01*
X322262Y97649D01*
X322490Y98500D01*
D02*
G37*
G36*
X318500D02*
X315511D01*
X315739Y97649D01*
X316199Y96851D01*
X316851Y96199D01*
X317649Y95739D01*
X318500Y95511D01*
Y98500D01*
D02*
G37*
G36*
X353107Y86989D02*
Y84000D01*
X356096D01*
X355868Y84851D01*
X355407Y85649D01*
X354756Y86301D01*
X353958Y86761D01*
X353107Y86989D01*
D02*
G37*
G36*
X352107D02*
X351256Y86761D01*
X350458Y86301D01*
X349806Y85649D01*
X349345Y84851D01*
X349117Y84000D01*
X352107D01*
Y86989D01*
D02*
G37*
G36*
X332527Y87000D02*
X332500D01*
Y83500D01*
X336000D01*
Y83527D01*
X335727Y84544D01*
X335201Y85456D01*
X334456Y86201D01*
X333544Y86727D01*
X332527Y87000D01*
D02*
G37*
G36*
X322527D02*
X322500D01*
Y83500D01*
X326000D01*
Y83527D01*
X325727Y84544D01*
X325201Y85456D01*
X324456Y86201D01*
X323544Y86727D01*
X322527Y87000D01*
D02*
G37*
G36*
X331500D02*
X331473D01*
X330456Y86727D01*
X329544Y86201D01*
X328799Y85456D01*
X328273Y84544D01*
X328000Y83527D01*
Y83500D01*
X331500D01*
Y87000D01*
D02*
G37*
G36*
X321500D02*
X321473D01*
X320456Y86727D01*
X319544Y86201D01*
X318799Y85456D01*
X318273Y84544D01*
X318000Y83527D01*
Y83500D01*
X321500D01*
Y87000D01*
D02*
G37*
G36*
X356096Y83000D02*
X353107D01*
Y80010D01*
X353958Y80238D01*
X354756Y80699D01*
X355407Y81351D01*
X355868Y82149D01*
X356096Y83000D01*
D02*
G37*
G36*
X352107D02*
X349117D01*
X349345Y82149D01*
X349806Y81351D01*
X350458Y80699D01*
X351256Y80238D01*
X352107Y80010D01*
Y83000D01*
D02*
G37*
G36*
X336000Y82500D02*
X332000D01*
X328000D01*
Y82473D01*
Y79000D01*
X332000D01*
X336000D01*
Y82500D01*
D02*
G37*
G36*
X326000D02*
X322000D01*
X318000D01*
Y82473D01*
Y79000D01*
X322000D01*
X326000D01*
Y82500D01*
D02*
G37*
G36*
X336000Y78000D02*
X332500D01*
Y73500D01*
X336000D01*
Y78000D01*
D02*
G37*
G36*
X331500D02*
X328000D01*
Y73500D01*
X331500D01*
Y78000D01*
D02*
G37*
G36*
X326000D02*
X322500D01*
Y73500D01*
X326000D01*
Y78000D01*
D02*
G37*
G36*
X321500D02*
X318000D01*
Y73500D01*
X321500D01*
Y78000D01*
D02*
G37*
G36*
X353107Y69990D02*
Y67000D01*
X356096D01*
X355868Y67851D01*
X355407Y68649D01*
X354756Y69301D01*
X353958Y69762D01*
X353107Y69990D01*
D02*
G37*
G36*
X352107D02*
X351256Y69762D01*
X350458Y69301D01*
X349806Y68649D01*
X349345Y67851D01*
X349117Y67000D01*
X352107D01*
Y69990D01*
D02*
G37*
G36*
X356096Y66000D02*
X353107D01*
Y63011D01*
X353958Y63239D01*
X354756Y63699D01*
X355407Y64351D01*
X355868Y65149D01*
X356096Y66000D01*
D02*
G37*
G36*
X352107D02*
X349117D01*
X349345Y65149D01*
X349806Y64351D01*
X350458Y63699D01*
X351256Y63239D01*
X352107Y63011D01*
Y66000D01*
D02*
G37*
G36*
X235449Y48994D02*
X235260D01*
Y46000D01*
X237171D01*
Y47272D01*
X237040Y47931D01*
X236666Y48489D01*
X236108Y48863D01*
X235449Y48994D01*
D02*
G37*
G36*
X234260D02*
X234071D01*
X233412Y48863D01*
X232853Y48489D01*
X232480Y47931D01*
X232349Y47272D01*
Y46000D01*
X234260D01*
Y48994D01*
D02*
G37*
G36*
X281000Y47490D02*
Y44500D01*
X283990D01*
X283762Y45351D01*
X283301Y46149D01*
X282649Y46801D01*
X281851Y47262D01*
X281000Y47490D01*
D02*
G37*
G36*
X280000D02*
X279149Y47262D01*
X278351Y46801D01*
X277699Y46149D01*
X277238Y45351D01*
X277010Y44500D01*
X280000D01*
Y47490D01*
D02*
G37*
G36*
X265000D02*
Y44500D01*
X267989D01*
X267761Y45351D01*
X267301Y46149D01*
X266649Y46801D01*
X265851Y47262D01*
X265000Y47490D01*
D02*
G37*
G36*
X264000D02*
X263149Y47262D01*
X262351Y46801D01*
X261699Y46149D01*
X261239Y45351D01*
X261011Y44500D01*
X264000D01*
Y47490D01*
D02*
G37*
G36*
X237171Y45000D02*
X235260D01*
Y42006D01*
X235449D01*
X236108Y42137D01*
X236666Y42511D01*
X237040Y43069D01*
X237171Y43728D01*
Y45000D01*
D02*
G37*
G36*
X234260D02*
X232349D01*
Y43728D01*
X232480Y43069D01*
X232853Y42511D01*
X233412Y42137D01*
X234071Y42006D01*
X234260D01*
Y45000D01*
D02*
G37*
G36*
X283990Y43500D02*
X281000D01*
Y40510D01*
X281851Y40738D01*
X282649Y41199D01*
X283301Y41851D01*
X283762Y42649D01*
X283990Y43500D01*
D02*
G37*
G36*
X280000D02*
X277010D01*
X277238Y42649D01*
X277699Y41851D01*
X278351Y41199D01*
X279149Y40738D01*
X280000Y40510D01*
Y43500D01*
D02*
G37*
G36*
X267989D02*
X265000D01*
Y40510D01*
X265851Y40738D01*
X266649Y41199D01*
X267301Y41851D01*
X267761Y42649D01*
X267989Y43500D01*
D02*
G37*
G36*
X264000D02*
X261011D01*
X261239Y42649D01*
X261699Y41851D01*
X262351Y41199D01*
X263149Y40738D01*
X264000Y40510D01*
Y43500D01*
D02*
G37*
G36*
X237250Y40500D02*
X235250D01*
Y38000D01*
X237250D01*
Y40500D01*
D02*
G37*
G36*
X234250D02*
X232250D01*
Y38000D01*
X234250D01*
Y40500D01*
D02*
G37*
%LPD*%
D11*
X268417Y251500D02*
X280500D01*
X298000Y234000D02*
X317414D01*
X243792Y276125D02*
X268417Y251500D01*
X280500D02*
X298000Y234000D01*
X243563Y279500D02*
X243792Y279271D01*
Y276125D02*
Y279271D01*
X319414Y232000D02*
X320000D01*
X317414Y234000D02*
X319414Y232000D01*
X251437Y279500D02*
Y279500D01*
Y279500D02*
X251937Y279000D01*
X264000D02*
Y279500D01*
X251937Y279000D02*
X264000D01*
X294000Y220015D02*
Y229500D01*
Y220015D02*
X299000Y215015D01*
X322000Y117500D02*
X322041Y117541D01*
Y135840D01*
X75500Y317395D02*
Y318000D01*
Y317395D02*
X76167Y316728D01*
X142721D01*
X165090Y294360D01*
X197053D01*
X202034Y289378D01*
Y281643D02*
Y289378D01*
Y281643D02*
X206677Y277000D01*
X207598D01*
X67626Y317395D02*
Y318000D01*
X66959Y316728D02*
X67626Y317395D01*
X26343Y316728D02*
X66959D01*
X14600Y304985D02*
X26343Y316728D01*
X14600Y288500D02*
Y304985D01*
Y288500D02*
X20600Y282500D01*
X322000Y113000D02*
Y117500D01*
X72192Y268500D02*
X72692D01*
X56000Y269000D02*
X71692D01*
X72192Y268500D01*
X72692D02*
X86250D01*
X74625Y180500D02*
X95750D01*
X59250Y181750D02*
X89500D01*
X91940D01*
X74500Y180625D02*
X74625Y180500D01*
X57750Y167750D02*
X58000Y167500D01*
X95750Y180500D02*
X97000Y181750D01*
X57750Y167750D02*
Y173750D01*
X58000Y180500D02*
X59250Y181750D01*
X91940D02*
X97000D01*
X123600Y157000D02*
X158914D01*
X159500Y157586D01*
Y167500D01*
X100000Y102500D02*
Y161000D01*
X96000Y89763D02*
Y98500D01*
X100000Y102500D01*
X168500Y215760D02*
X177303D01*
X160197D02*
X168500D01*
X79177Y89177D02*
X95414D01*
X96000Y89763D01*
X102500Y163500D02*
X154914D01*
X100000Y161000D02*
X102500Y163500D01*
X79000Y89000D02*
X79177Y89177D01*
X173903Y247260D02*
X174100Y247063D01*
X167500Y163760D02*
X172000D01*
X207598Y276500D02*
X208098Y277000D01*
X179862Y270325D02*
X180037Y270500D01*
X172063D02*
X172163D01*
X158100D02*
X172063D01*
X157600Y270000D02*
Y274500D01*
Y246586D02*
Y270000D01*
X246437Y23000D02*
X262000D01*
X86250Y269000D02*
X86875Y268375D01*
X72192Y268500D02*
X72692Y269000D01*
X55692Y252000D02*
X72192Y268500D01*
X32000Y243000D02*
X37000D01*
X44250D01*
X314500Y42195D02*
Y54914D01*
X314062Y41757D02*
X314500Y42195D01*
X304000Y34695D02*
Y50500D01*
X293800Y34700D02*
Y50300D01*
X340000Y219500D02*
Y259414D01*
X340500Y189000D02*
X358414D01*
X217563Y38000D02*
X217663D01*
X210850D02*
X217563D01*
X210840Y45803D02*
X211037Y46000D01*
X279982Y263455D02*
Y275045D01*
X32000Y108750D02*
X50250D01*
X54000Y105000D01*
X43500Y67000D02*
X49000Y72500D01*
Y73750D01*
X43500Y79250D02*
Y80625D01*
Y79250D02*
X49000Y73750D01*
X50750D02*
X55500Y69000D01*
X49000Y73750D02*
X50750D01*
X87000Y268500D02*
X95500D01*
X86875Y268375D02*
X87000Y268500D01*
X72692Y269000D02*
X86250D01*
X95500Y268500D02*
X96000Y269000D01*
X56000Y256250D02*
Y258500D01*
Y256250D02*
X56750Y255500D01*
X44250Y243000D02*
X53250Y252000D01*
X55692D01*
X53250D02*
X56750Y255500D01*
X314062Y34195D02*
Y41757D01*
X315086Y55500D02*
X365414D01*
X314500Y54914D02*
X315086Y55500D01*
X362000Y140586D02*
Y283914D01*
X332000Y117500D02*
Y139414D01*
Y113000D02*
Y117500D01*
X332586Y140000D02*
X361414D01*
X362000Y140586D01*
X332000Y139414D02*
X332586Y140000D01*
X332000Y113000D02*
X333750Y114750D01*
X358414Y144500D02*
X359000Y145086D01*
X335937Y144500D02*
X358414D01*
X335437Y145000D02*
X335937Y144500D01*
X359000Y145086D02*
Y188414D01*
X358414Y189000D02*
X359000Y188414D01*
X340000Y189500D02*
X340500Y189000D01*
X124500Y246000D02*
X157014D01*
X124000Y245500D02*
X124500Y246000D01*
X157014D02*
X157600Y246586D01*
X209000Y207000D02*
X231000D01*
X200500Y215500D02*
X209000Y207000D01*
X301000Y53586D02*
Y223500D01*
X300500Y224000D02*
X301000Y223500D01*
X225437Y38000D02*
Y51914D01*
X226023Y52500D01*
X291000D02*
X293000Y54500D01*
X226023Y52500D02*
X291000D01*
X302000Y51500D02*
X303867Y53367D01*
Y220489D02*
X306500Y223121D01*
Y229500D01*
X303867Y53367D02*
Y220489D01*
X365414Y320000D02*
X366000Y319414D01*
X330929Y329500D02*
X337166D01*
X337752Y320586D02*
X338338Y320000D01*
X337166Y329500D02*
X337752Y328914D01*
Y320586D02*
Y328914D01*
X338338Y320000D02*
X365414D01*
X366000Y56086D02*
Y319414D01*
X365414Y55500D02*
X366000Y56086D01*
X336252Y319086D02*
Y323914D01*
X363414Y318500D02*
X364000Y317914D01*
X336252Y319086D02*
X336838Y318500D01*
X364000Y58586D02*
Y317914D01*
X336838Y318500D02*
X363414D01*
X217086Y17000D02*
X222716D01*
X223000Y17284D01*
X207360Y23197D02*
Y29740D01*
X214740Y19346D02*
X217086Y17000D01*
X214740Y19346D02*
Y22803D01*
X214937Y23000D01*
X207100Y30000D02*
X207360Y29740D01*
X312082Y300500D02*
X313082Y299500D01*
X330929D01*
X311000Y300500D02*
X312082D01*
X335666Y324500D02*
X336252Y323914D01*
X330929Y324500D02*
X335666D01*
X299000Y55086D02*
Y215015D01*
X293000Y54500D02*
X298414D01*
X299000Y55086D01*
X289500Y48614D02*
X293886Y53000D01*
X300414D01*
X289500Y38086D02*
Y48614D01*
X257437Y37500D02*
X288914D01*
X289500Y38086D01*
X300414Y53000D02*
X301000Y53586D01*
X293800Y50300D02*
X295000Y51500D01*
X302000D01*
X311500Y58000D02*
X363414D01*
X304000Y50500D02*
X311500Y58000D01*
X155500Y164086D02*
Y192000D01*
X152500Y195000D02*
Y213674D01*
Y195000D02*
X155500Y192000D01*
X154914Y163500D02*
X155500Y164086D01*
X159500Y167500D02*
Y189000D01*
X162000D01*
X163500Y190500D01*
Y193750D01*
X163850Y193500D02*
X169663D01*
X163500Y193750D02*
X163600D01*
X163000D02*
X163500D01*
X155500Y197500D02*
X159250D01*
X163000Y193750D01*
X172000Y178914D02*
X172586Y179500D01*
X172000Y163760D02*
X173903D01*
X172000D02*
Y178914D01*
X152500Y213674D02*
X154586Y215760D01*
X159803D01*
X363414Y58000D02*
X364000Y58586D01*
X252000Y315000D02*
X257500Y309500D01*
X254000Y296000D02*
X257500Y299500D01*
X253000Y296000D02*
X254000D01*
X257500Y299500D02*
X264000D01*
X299532Y269531D02*
X314006D01*
X295553Y265553D02*
X299532Y269531D01*
X322373Y252541D02*
X325500Y249414D01*
X295500Y252541D02*
X322373D01*
X298843Y238500D02*
X312000D01*
X324914Y225000D02*
X325500Y225586D01*
Y249414D01*
X310500Y225000D02*
X324914D01*
X307000Y145586D02*
Y221500D01*
X310500Y225000D01*
X307586Y145000D02*
X327563D01*
X307000Y145586D02*
X307586Y145000D01*
X253582Y306000D02*
X255082Y304500D01*
X264000D01*
X252500Y306000D02*
X253582D01*
X255500Y287500D02*
X258500Y284500D01*
X264000D01*
X251874Y287500D02*
X255500D01*
X238760Y23197D02*
Y29240D01*
X238500Y29500D02*
X238760Y29240D01*
X238563Y23000D02*
X238760Y23197D01*
X242250Y37500D02*
X249563D01*
X242240Y45303D02*
X242437Y45500D01*
X242240Y37510D02*
Y45303D01*
Y37510D02*
X242250Y37500D01*
X208098Y277000D02*
X215500D01*
X207598Y269000D02*
Y276500D01*
X163600Y193750D02*
X163850Y193500D01*
X174000Y239086D02*
Y247063D01*
X165600Y247250D02*
X165610Y247260D01*
X173903D01*
X179862Y261522D02*
Y270325D01*
Y261522D02*
X179883Y261500D01*
X157600Y270000D02*
X158100Y270500D01*
X314006Y269531D02*
X314965Y270490D01*
Y275563D01*
X232000Y293500D02*
X246914D01*
X247500Y294086D01*
Y318914D01*
X248086Y319500D01*
X264000D01*
X210840Y38010D02*
Y45803D01*
Y38010D02*
X210850Y38000D01*
X173903Y163760D02*
X174100Y163563D01*
X264000Y260000D02*
X339414D01*
X305029Y264971D02*
X317898D01*
X330929Y284500D02*
X361414D01*
X319965Y275563D02*
X320000Y275528D01*
Y267073D02*
Y275528D01*
X317898Y264971D02*
X320000Y267073D01*
X247557Y276443D02*
X264000Y260000D01*
X247557Y276443D02*
Y286943D01*
X247000Y287500D02*
X247557Y286943D01*
X79000Y84000D02*
X92063D01*
X178190Y313000D02*
X178250Y312940D01*
X244370Y317067D02*
Y330370D01*
Y317067D02*
X244437Y317000D01*
X244240Y316803D02*
X244437Y317000D01*
X244240Y297672D02*
Y316803D01*
X243069Y296500D02*
X244240Y297672D01*
X230500Y286500D02*
Y292000D01*
X232000Y293500D01*
X244000Y287500D02*
X247000D01*
X228937Y296500D02*
X243069D01*
X230880Y250620D02*
Y270183D01*
X230563Y270500D02*
X230880Y270183D01*
Y250620D02*
X231000Y250500D01*
X177930Y330740D02*
X178250Y331060D01*
X257500Y309500D02*
X264000D01*
X207598Y269000D02*
X215000D01*
X207598Y263500D02*
Y269000D01*
X281279Y256063D02*
X298843Y238500D01*
X305000Y265000D02*
X305029Y264971D01*
X174586Y238500D02*
X221000D01*
X177228Y193709D02*
Y201488D01*
X177303Y215760D02*
X177563Y215500D01*
X177217Y201500D02*
X177228Y201488D01*
Y193709D02*
X177437Y193500D01*
X160000Y215563D02*
X160197Y215760D01*
X177563Y215500D02*
X200500D01*
X174000Y239086D02*
X174586Y238500D01*
X159803Y215760D02*
X160000Y215563D01*
X172586Y179500D02*
X209000D01*
X329500Y278071D02*
X330929Y279500D01*
X329500Y263937D02*
Y278071D01*
X322584Y264000D02*
X322714Y263870D01*
X329433D01*
X329500Y263937D01*
X339414Y260000D02*
X340000Y259414D01*
X361414Y284500D02*
X362000Y283914D01*
X162303Y330740D02*
X162500Y330937D01*
X154197Y330740D02*
X162303D01*
X154000Y330937D02*
X154197Y330740D01*
X162500Y330937D02*
X162697Y330740D01*
X243914Y334250D02*
X244500Y333664D01*
Y330500D02*
Y333664D01*
X236500Y334250D02*
X243914D01*
X244500Y330500D02*
X248000D01*
X252000Y334500D01*
X244370Y330370D02*
X244500Y330500D01*
X236490Y334240D02*
X236500Y334250D01*
X252000Y334500D02*
X264000D01*
X162697Y330740D02*
X177930D01*
X279982Y263455D02*
X280000Y263437D01*
Y256063D02*
X281279D01*
X279965Y275063D02*
X279982Y275045D01*
D19*
X319965Y275563D02*
D03*
X279965D02*
D03*
X274965D02*
D03*
X314965D02*
D03*
X309965D02*
D03*
X304965D02*
D03*
X299965D02*
D03*
X294965Y275600D02*
D03*
X289965Y275563D02*
D03*
X284965D02*
D03*
D20*
X330929Y279500D02*
D03*
Y284500D02*
D03*
Y289579D02*
D03*
Y294500D02*
D03*
Y299500D02*
D03*
Y304500D02*
D03*
Y309500D02*
D03*
Y314500D02*
D03*
Y319500D02*
D03*
Y329500D02*
D03*
Y334500D02*
D03*
Y339500D02*
D03*
Y344500D02*
D03*
X264000D02*
D03*
Y339500D02*
D03*
Y334500D02*
D03*
Y329500D02*
D03*
Y324500D02*
D03*
Y319500D02*
D03*
Y314500D02*
D03*
Y309500D02*
D03*
Y304500D02*
D03*
Y299500D02*
D03*
Y294500D02*
D03*
Y289500D02*
D03*
Y284500D02*
D03*
Y279500D02*
D03*
D21*
X330929Y324500D02*
D03*
D39*
X286500Y322100D02*
D03*
X301100Y307700D02*
D03*
X293800D02*
D03*
X286500D02*
D03*
X301100Y314900D02*
D03*
X293800D02*
D03*
X286500D02*
D03*
X301100Y322100D02*
D03*
X293800D02*
D03*
D42*
X355000Y17500D02*
D03*
X17500D02*
D03*
Y337500D02*
D03*
D43*
X355000D02*
D03*
D44*
X330000Y219500D02*
D03*
D45*
X280000Y205283D02*
D03*
X199291D02*
D03*
X261300Y73000D02*
D03*
X248504Y224575D02*
D03*
X280000Y73000D02*
D03*
Y224575D02*
D03*
X294000Y24000D02*
D03*
Y34000D02*
D03*
X304000Y24000D02*
D03*
Y34000D02*
D03*
X314000Y24000D02*
D03*
X340000Y219500D02*
D03*
X330000Y209500D02*
D03*
X340000D02*
D03*
X330000Y199500D02*
D03*
X340000D02*
D03*
X330000Y189500D02*
D03*
X340000D02*
D03*
X330000Y179500D02*
D03*
X340000D02*
D03*
D46*
X332000Y113000D02*
D03*
X322000D02*
D03*
Y83000D02*
D03*
X332000D02*
D03*
D52*
X203250Y38000D02*
D03*
X210750D02*
D03*
X207000Y30000D02*
D03*
X234750Y37500D02*
D03*
X242250D02*
D03*
X238500Y29500D02*
D03*
D53*
X202750Y322060D02*
D03*
D54*
X178250Y312940D02*
D03*
Y322000D02*
D03*
Y331060D02*
D03*
D55*
X79000Y94000D02*
D03*
Y89000D02*
D03*
Y84000D02*
D03*
Y79000D02*
D03*
X56000D02*
D03*
Y84000D02*
D03*
Y89000D02*
D03*
Y94000D02*
D03*
D56*
X190500Y286900D02*
D03*
Y299100D02*
D03*
D57*
X203260Y46000D02*
D03*
X210740D02*
D03*
X92260Y94000D02*
D03*
X99740D02*
D03*
Y84000D02*
D03*
X92260D02*
D03*
X207760Y262000D02*
D03*
X215240D02*
D03*
X256240Y244500D02*
D03*
X248760D02*
D03*
X157260Y313000D02*
D03*
X164740D02*
D03*
X220760Y317000D02*
D03*
X228240D02*
D03*
X228740Y306500D02*
D03*
X221260D02*
D03*
Y296500D02*
D03*
X228740D02*
D03*
X75240Y318000D02*
D03*
X67760D02*
D03*
X172260Y270500D02*
D03*
X179740D02*
D03*
X169760Y193500D02*
D03*
X177240D02*
D03*
X238240Y270500D02*
D03*
X230760D02*
D03*
X244240Y317000D02*
D03*
X236760D02*
D03*
X238760Y23000D02*
D03*
X246240D02*
D03*
X249760Y37500D02*
D03*
X257240D02*
D03*
X243760Y287500D02*
D03*
X251240D02*
D03*
X234760Y45500D02*
D03*
X242240D02*
D03*
X243760Y279500D02*
D03*
X251240D02*
D03*
X207260Y23000D02*
D03*
X214740D02*
D03*
X335240Y145000D02*
D03*
X327760D02*
D03*
X217760Y38000D02*
D03*
X225240D02*
D03*
D58*
X110780Y327000D02*
D03*
X133221D02*
D03*
D59*
X294000Y16000D02*
D03*
X304000D02*
D03*
X314000D02*
D03*
X294000Y42000D02*
D03*
X304000D02*
D03*
X314000D02*
D03*
D60*
X322000Y219500D02*
D03*
Y209500D02*
D03*
Y199500D02*
D03*
Y189500D02*
D03*
Y179500D02*
D03*
X348000Y219500D02*
D03*
Y209500D02*
D03*
Y199500D02*
D03*
Y189500D02*
D03*
Y179500D02*
D03*
D61*
X332000Y117500D02*
D03*
X322000D02*
D03*
Y78500D02*
D03*
X332000D02*
D03*
D62*
X168500Y215760D02*
D03*
Y223240D02*
D03*
X207500Y277260D02*
D03*
Y284740D02*
D03*
X174000Y254740D02*
D03*
Y247260D02*
D03*
X176000Y171240D02*
D03*
Y163760D02*
D03*
X162500Y330740D02*
D03*
Y323260D02*
D03*
X154000D02*
D03*
Y330740D02*
D03*
X177500Y215760D02*
D03*
Y223240D02*
D03*
X329500Y263740D02*
D03*
Y256260D02*
D03*
X160000Y223240D02*
D03*
Y215760D02*
D03*
X280000Y256260D02*
D03*
Y263740D02*
D03*
D63*
X223000Y17284D02*
D03*
Y22716D02*
D03*
X231000Y250217D02*
D03*
Y244783D02*
D03*
X262000Y28216D02*
D03*
Y22783D02*
D03*
D64*
X223500Y280750D02*
D03*
Y273250D02*
D03*
X215500Y277000D02*
D03*
X165500Y278250D02*
D03*
Y270750D02*
D03*
X157500Y274500D02*
D03*
X163500Y201250D02*
D03*
Y193750D02*
D03*
X155500Y197500D02*
D03*
X236500Y326750D02*
D03*
Y334250D02*
D03*
X244500Y330500D02*
D03*
X165500Y254750D02*
D03*
Y247250D02*
D03*
X157500Y251000D02*
D03*
X167500Y171250D02*
D03*
Y163750D02*
D03*
X159500Y167500D02*
D03*
D65*
X179783Y261500D02*
D03*
X185216D02*
D03*
X177216Y201500D02*
D03*
X171783D02*
D03*
D66*
X330000Y219500D02*
Y255882D01*
X103172Y149000D02*
X190828D01*
X97000Y161328D02*
X101172Y165500D01*
X92500Y100000D02*
X97000Y104500D01*
Y161328D01*
X79000Y94000D02*
X92063D01*
X92500Y94437D02*
Y100000D01*
X92063Y94000D02*
X92500Y94437D01*
X101172Y165500D02*
X151828D01*
X99740Y80412D02*
Y84000D01*
Y95083D02*
X100118Y95461D01*
X100828D02*
X102000Y96632D01*
Y147828D02*
X103172Y149000D01*
X99740Y84000D02*
Y95083D01*
X100118Y95461D02*
X100828D01*
X102000Y96632D02*
Y147828D01*
X314000Y16195D02*
Y24500D01*
X250567Y28433D02*
X267438D01*
X228480Y306500D02*
X228709Y306728D01*
X290172Y5700D02*
X312471D01*
X313642Y6872D01*
Y15776D02*
X314062Y16195D01*
X313642Y6872D02*
Y15776D01*
X210500Y215500D02*
X235688D01*
X177697Y223240D02*
X202760D01*
X210500Y215500D01*
X235688D02*
X237188Y217000D01*
X238000D01*
X267438Y28433D02*
X290172Y5700D01*
X223000Y28000D02*
X228500Y33500D01*
X223000Y22716D02*
Y28000D01*
X228500Y33500D02*
X245500D01*
X246497Y32503D02*
X250567Y28433D01*
X245500Y33500D02*
X246497Y32503D01*
X293800Y314900D02*
Y322100D01*
Y307700D02*
Y314900D01*
X301100D01*
X286500D02*
X293800D01*
X151828Y165500D02*
X153000Y166672D01*
Y191500D01*
X150500Y194000D02*
X153000Y191500D01*
X150500Y194000D02*
Y203068D01*
X138500Y204240D02*
X149328D01*
X150500Y203068D01*
X329500Y256063D02*
X329819D01*
X330000Y255882D01*
X98328Y79000D02*
X99740Y80412D01*
X79000Y79000D02*
X98328D01*
X161328Y327000D02*
X162500Y325828D01*
X169000Y323063D02*
X170063Y322000D01*
X178250D01*
X164937Y313000D02*
Y313886D01*
X190500Y299100D02*
X190600Y299000D01*
X162500Y323063D02*
X169000D01*
X162500D02*
Y325828D01*
X223500Y280750D02*
Y285000D01*
X223177Y284677D02*
X223500Y285000D01*
X225000Y286500D01*
X223750Y280500D02*
X233328D01*
X165500Y278250D02*
X190250D01*
X233328Y280500D02*
X234500Y279328D01*
Y262778D02*
X238000Y259278D01*
Y258500D02*
Y259278D01*
X234500Y262778D02*
Y279328D01*
X178250Y322000D02*
X202690D01*
X202750Y322060D01*
X164937Y313000D02*
X178190D01*
X202750Y322060D02*
Y341071D01*
X207697Y284677D02*
X223177D01*
X185217Y261500D02*
X190500D01*
X190250Y278250D02*
X190500Y278000D01*
X223500Y280750D02*
X223750Y280500D01*
X236630Y317067D02*
Y326620D01*
X236500Y326750D02*
X236630Y326620D01*
X230250Y326750D02*
X236500D01*
X227090Y329910D02*
X230250Y326750D01*
X236563Y317000D02*
X236630Y317067D01*
X228874Y317000D02*
X236563D01*
X228709Y306728D02*
Y316835D01*
X225000Y305000D02*
X226500Y306500D01*
X225000Y286500D02*
Y305000D01*
X226500Y306500D02*
X228480D01*
X228709Y316835D02*
X228874Y317000D01*
X171658Y201375D02*
X171783Y201500D01*
X163625Y201375D02*
X171658D01*
X163500Y201250D02*
X163625Y201375D01*
X202750Y341071D02*
X205679Y344000D01*
X248500D02*
X253000Y339500D01*
X227090Y329910D02*
Y344000D01*
X205679D02*
X227090D01*
X248500D01*
X133220Y327000D02*
X161328D01*
X253000Y339500D02*
X264000D01*
D67*
X192862Y245067D02*
X248500D01*
X123500Y204240D02*
X138500D01*
X248504Y224575D02*
X248504Y224575D01*
X248504Y224575D02*
X248563Y224634D01*
Y244500D01*
X190500Y247429D02*
Y261500D01*
Y247429D02*
X192862Y245067D01*
X141929Y231000D02*
X242079D01*
X248504Y224575D01*
X139000Y228071D02*
X141929Y231000D01*
X139000Y204740D02*
Y228071D01*
X248504Y190996D02*
Y224575D01*
Y190996D02*
X255000Y184500D01*
X198480Y205283D02*
X199291D01*
X194763Y209000D02*
X198480Y205283D01*
X189260Y300340D02*
X190500Y299100D01*
X178250Y302029D02*
Y312940D01*
X179939Y300340D02*
X189260D01*
X178250Y302029D02*
X179939Y300340D01*
X190400Y287000D02*
X190500Y286900D01*
Y278000D02*
Y286900D01*
X167500Y287000D02*
X190400D01*
X190500Y261500D02*
Y278000D01*
X124000Y292740D02*
X124240Y292500D01*
X163500Y201250D02*
Y205071D01*
X167429Y209000D01*
X194763D01*
X138500Y204240D02*
X139000Y204740D01*
X162000Y292500D02*
X167500Y287000D01*
X124240Y292500D02*
X162000D01*
D68*
X95750Y181750D02*
D03*
D69*
X95000Y269000D02*
D03*
D70*
X76250Y150000D02*
D03*
D71*
X71500Y144000D02*
D03*
D72*
X27500Y60250D02*
D03*
D73*
X14750Y92750D02*
D03*
D74*
X83000Y16500D02*
D03*
D75*
X24750Y191750D02*
D03*
D76*
X32250Y144000D02*
D03*
D77*
X29250Y166500D02*
D03*
D78*
X18250Y220000D02*
D03*
D79*
X46250Y224250D02*
D03*
D80*
X19750Y264250D02*
D03*
D81*
X38500Y277000D02*
D03*
D82*
X32000Y243000D02*
D03*
D83*
X82500Y235500D02*
D03*
D84*
X56750Y255500D02*
D03*
D85*
X64500Y293750D02*
D03*
D86*
X67000Y203000D02*
D03*
D87*
X57750Y173750D02*
D03*
D88*
X32000Y108750D02*
D03*
D89*
X49000Y73750D02*
D03*
D90*
X124000Y245500D02*
D03*
X75970D02*
D03*
X124000Y292740D02*
D03*
X75970D02*
D03*
X131990Y269120D02*
D03*
X131490Y180620D02*
D03*
X75470Y204240D02*
D03*
X123500D02*
D03*
X75470Y157000D02*
D03*
X123500D02*
D03*
X136000Y130790D02*
D03*
Y42210D02*
D03*
X20600Y302500D02*
D03*
Y282500D02*
D03*
Y262500D02*
D03*
Y242500D02*
D03*
X21000Y187000D02*
D03*
Y167000D02*
D03*
D91*
X98000Y20000D02*
D03*
D92*
X83000D02*
D03*
X68000D02*
D03*
D93*
X237677Y73000D02*
D03*
X314000Y34000D02*
D03*
D94*
X20600Y222500D02*
D03*
X21000Y147000D02*
D03*
D95*
X21300Y52200D02*
D03*
D96*
X21000Y112000D02*
D03*
Y72000D02*
D03*
Y92000D02*
D03*
D97*
X294000Y229500D02*
D03*
X322041Y135840D02*
D03*
X118000Y269000D02*
D03*
X71500D02*
D03*
X56000D02*
D03*
X58000Y180500D02*
D03*
Y167500D02*
D03*
X119500Y180625D02*
D03*
X56000Y204000D02*
D03*
X90500D02*
D03*
Y223500D02*
D03*
Y245500D02*
D03*
X104125Y180625D02*
D03*
X88750D02*
D03*
X73375D02*
D03*
X40500Y187875D02*
D03*
Y204000D02*
D03*
X77035Y143000D02*
D03*
X56518D02*
D03*
X36000D02*
D03*
X54000Y105000D02*
D03*
X43500Y67000D02*
D03*
Y80625D02*
D03*
X55500Y69000D02*
D03*
X45000Y54875D02*
D03*
X34000Y70500D02*
D03*
Y54375D02*
D03*
X53500Y116000D02*
D03*
X45000D02*
D03*
Y99875D02*
D03*
X36500Y116000D02*
D03*
Y99875D02*
D03*
X76535Y223500D02*
D03*
X35500D02*
D03*
X56018D02*
D03*
X37000Y242500D02*
D03*
X38500Y292000D02*
D03*
Y275875D02*
D03*
X87000Y269000D02*
D03*
X56000Y255750D02*
D03*
Y242500D02*
D03*
X102500Y269000D02*
D03*
X121500Y229500D02*
D03*
X352607Y114042D02*
D03*
X314500Y130000D02*
D03*
X231000Y207000D02*
D03*
X300500Y224000D02*
D03*
X198000Y17000D02*
D03*
X264500Y44000D02*
D03*
X280500D02*
D03*
X306500Y229500D02*
D03*
X149000Y221500D02*
D03*
X200214Y189586D02*
D03*
X221000Y199000D02*
D03*
X262967Y214869D02*
D03*
X203500Y308500D02*
D03*
X214500Y324000D02*
D03*
X135500Y104000D02*
D03*
X270000Y103000D02*
D03*
X244000Y103500D02*
D03*
X213000Y104500D02*
D03*
X177500Y104000D02*
D03*
X129000Y21500D02*
D03*
X157000Y20500D02*
D03*
X170500Y47000D02*
D03*
X178000Y74000D02*
D03*
X213000Y74500D02*
D03*
X221000Y222500D02*
D03*
X327000Y129500D02*
D03*
X319000Y99000D02*
D03*
X336000D02*
D03*
X352500Y45500D02*
D03*
X254976Y15846D02*
D03*
X352607Y66500D02*
D03*
X252000Y315000D02*
D03*
X253000Y296000D02*
D03*
X295553Y265553D02*
D03*
X295500Y252541D02*
D03*
X320000Y232000D02*
D03*
X312000Y238500D02*
D03*
X252500Y306000D02*
D03*
X192000Y156500D02*
D03*
X319500Y152500D02*
D03*
X346000Y152000D02*
D03*
X339000Y130000D02*
D03*
X352607Y101000D02*
D03*
Y83500D02*
D03*
X305000Y265000D02*
D03*
X186000Y186000D02*
D03*
X217670Y168633D02*
D03*
X233335D02*
D03*
X249000D02*
D03*
X239000Y181000D02*
D03*
X208750Y156500D02*
D03*
X225500D02*
D03*
X242250D02*
D03*
X259000D02*
D03*
X255000Y184500D02*
D03*
X322584Y264000D02*
D03*
X350000Y276000D02*
D03*
Y261250D02*
D03*
Y246500D02*
D03*
X348500Y298500D02*
D03*
X318000Y331000D02*
D03*
X215000Y269000D02*
D03*
X221000Y238500D02*
D03*
X209000Y179500D02*
D03*
X202005Y168633D02*
D03*
X222712Y181321D02*
D03*
X216000Y336000D02*
D03*
X311000Y300500D02*
D03*
X318500Y311500D02*
D03*
X169000Y184500D02*
D03*
X352607Y130000D02*
D03*
X230500Y286500D02*
D03*
X200000Y270500D02*
D03*
X200103Y258387D02*
D03*
X267000Y267000D02*
D03*
X263500Y231500D02*
D03*
X238000Y258500D02*
D03*
Y217000D02*
D03*
X154500Y239500D02*
D03*
X166000D02*
D03*
X168000Y262500D02*
D03*
X146000Y319500D02*
D03*
X71000Y334000D02*
D03*
X92500D02*
D03*
X169000Y340500D02*
D03*
X146000D02*
D03*
X279329Y288375D02*
D03*
X294648Y289056D02*
D03*
X279500Y340000D02*
D03*
X308945Y339436D02*
D03*
X49500Y334000D02*
D03*
X295000Y340000D02*
D03*
M02*
