G04*
G04 #@! TF.GenerationSoftware,Altium Limited,Altium Designer,21.0.8 (223)*
G04*
G04 Layer_Physical_Order=2*
G04 Layer_Color=16711680*
%FSLAX25Y25*%
%MOIN*%
G70*
G04*
G04 #@! TF.SameCoordinates,7AAE0E32-72D2-4A0B-9A69-79E54AD05685*
G04*
G04*
G04 #@! TF.FilePolarity,Positive*
G04*
G01*
G75*
%ADD11C,0.01000*%
%ADD39R,0.06000X0.06000*%
%ADD42R,0.30000X0.30000*%
%ADD43R,0.27500X0.27500*%
%ADD44R,0.08000X0.08000*%
%ADD45C,0.08000*%
%ADD46C,0.06000*%
%ADD66C,0.02000*%
%ADD67C,0.05000*%
%ADD89R,0.25000X0.23500*%
%ADD90C,0.10000*%
%ADD91R,0.09000X0.09000*%
%ADD92C,0.09000*%
%ADD93R,0.08000X0.08000*%
%ADD94R,0.10000X0.10000*%
%ADD95R,0.11811X0.11811*%
%ADD96C,0.11811*%
%ADD97C,0.05000*%
%ADD98R,0.97000X0.24000*%
%ADD99R,0.16500X0.32500*%
%ADD100R,0.88500X0.20500*%
%ADD101R,0.11000X0.25000*%
%ADD102R,0.31000X0.73500*%
%ADD103R,0.38500X0.44500*%
%ADD104R,0.19000X0.74000*%
%ADD105R,0.85000X0.27000*%
%ADD106R,1.67000X0.43000*%
G36*
X370920Y33500D02*
X355500D01*
Y17500D01*
X355000D01*
Y17000D01*
X339000D01*
Y1580D01*
X33500D01*
Y17000D01*
X17500D01*
Y17500D01*
X17000D01*
Y33500D01*
X1580D01*
Y37500D01*
X44500D01*
Y7000D01*
X189000D01*
Y54000D01*
X295000D01*
Y60936D01*
X296000D01*
X296605Y61057D01*
X297117Y61399D01*
X297460Y61912D01*
X297580Y62517D01*
Y135561D01*
X298042Y135752D01*
X301536Y132258D01*
Y63929D01*
X301536Y63929D01*
X301674Y62885D01*
X302077Y61912D01*
X302718Y61076D01*
X305647Y58147D01*
X305647Y58147D01*
X306483Y57506D01*
X307456Y57103D01*
X308500Y56966D01*
X308500Y56966D01*
X321900D01*
X322465Y56400D01*
Y29100D01*
X321900Y28534D01*
X319500D01*
Y39500D01*
X308500D01*
Y37985D01*
X308000Y37778D01*
X307377Y38401D01*
X306123Y39125D01*
X304724Y39500D01*
X303276D01*
X301877Y39125D01*
X300623Y38401D01*
X299599Y37377D01*
X299250Y36773D01*
X298750D01*
X298401Y37377D01*
X297377Y38401D01*
X296123Y39125D01*
X294724Y39500D01*
X293276D01*
X291877Y39125D01*
X290623Y38401D01*
X289599Y37377D01*
X288875Y36123D01*
X288500Y34724D01*
Y33276D01*
X288875Y31877D01*
X289599Y30623D01*
X290623Y29599D01*
X291660Y29000D01*
X291681Y28435D01*
X290930Y28001D01*
X289999Y27070D01*
X289341Y25930D01*
X289000Y24658D01*
Y24500D01*
X294000D01*
Y24000D01*
X294500D01*
Y19000D01*
X294658D01*
X295930Y19341D01*
X297070Y19999D01*
X298001Y20930D01*
X298659Y22070D01*
X298750Y22409D01*
X299250D01*
X299341Y22070D01*
X299999Y20930D01*
X300930Y19999D01*
X302070Y19341D01*
X303342Y19000D01*
X303500D01*
Y24000D01*
X304500D01*
Y19000D01*
X304658D01*
X305930Y19341D01*
X307070Y19999D01*
X308001Y20930D01*
X308435Y21681D01*
X309000Y21660D01*
X309599Y20623D01*
X310623Y19599D01*
X311877Y18875D01*
X313276Y18500D01*
X314724D01*
X316123Y18875D01*
X317377Y19599D01*
X318244Y20466D01*
X323571D01*
X323571Y20466D01*
X324615Y20603D01*
X325588Y21006D01*
X326424Y21647D01*
X329353Y24576D01*
X329353Y24576D01*
X329994Y25412D01*
X330397Y26385D01*
X330535Y27429D01*
X330535Y27429D01*
Y58071D01*
X330535Y58071D01*
X330397Y59115D01*
X329994Y60088D01*
X329353Y60924D01*
X329353Y60924D01*
X326424Y63853D01*
X325588Y64494D01*
X324615Y64897D01*
X323571Y65035D01*
X323571Y65035D01*
X310171D01*
X309606Y65600D01*
Y133929D01*
X309468Y134973D01*
X309065Y135946D01*
X308424Y136782D01*
X308424Y136782D01*
X307707Y137499D01*
X307898Y137961D01*
X316655D01*
X318085Y136531D01*
X318041Y136366D01*
Y135313D01*
X318313Y134296D01*
X318840Y133384D01*
X319585Y132639D01*
X320497Y132112D01*
X321514Y131840D01*
X322567D01*
X323585Y132112D01*
X324119Y132421D01*
X324497Y132639D01*
X324825Y132275D01*
X324199Y131649D01*
X323739Y130851D01*
X323511Y130000D01*
X326500D01*
Y132990D01*
X325649Y132762D01*
X325229Y132519D01*
X324851Y132301D01*
X324522Y132665D01*
X325242Y133384D01*
X325768Y134296D01*
X326041Y135313D01*
Y136366D01*
X325768Y137384D01*
X325242Y138296D01*
X324497Y139041D01*
X323585Y139567D01*
X322567Y139840D01*
X321514D01*
X320749Y139635D01*
X318942Y141442D01*
X318280Y141884D01*
X317500Y142039D01*
X307345D01*
X255442Y193942D01*
X254780Y194384D01*
X254000Y194539D01*
X213539D01*
Y264655D01*
X214008Y265125D01*
X214473Y265000D01*
X215527D01*
X216544Y265273D01*
X217456Y265799D01*
X218201Y266544D01*
X218461Y266994D01*
X218961Y266860D01*
Y241941D01*
X218544Y241701D01*
X217799Y240956D01*
X217273Y240044D01*
X217000Y239027D01*
Y237973D01*
X217273Y236956D01*
X217799Y236044D01*
X218544Y235299D01*
X219456Y234773D01*
X220473Y234500D01*
X221527D01*
X222544Y234773D01*
X223456Y235299D01*
X224201Y236044D01*
X224727Y236956D01*
X225000Y237973D01*
Y239027D01*
X224727Y240044D01*
X224201Y240956D01*
X223456Y241701D01*
X223039Y241941D01*
Y298461D01*
X235502D01*
X235502Y298461D01*
X247655D01*
X249125Y296992D01*
X249000Y296527D01*
Y295473D01*
X249273Y294456D01*
X249799Y293544D01*
X250544Y292799D01*
X251456Y292273D01*
X252473Y292000D01*
X253527D01*
X254544Y292273D01*
X255456Y292799D01*
X256201Y293544D01*
X256727Y294456D01*
X257000Y295473D01*
Y296527D01*
X256727Y297544D01*
X256201Y298456D01*
X255456Y299201D01*
X254544Y299727D01*
X253527Y300000D01*
X252473D01*
X252008Y299875D01*
X249942Y301942D01*
X249280Y302384D01*
X248500Y302539D01*
X235502D01*
X235502Y302539D01*
X221586D01*
X220805Y302384D01*
X220144Y301942D01*
X219558Y301356D01*
X219116Y300695D01*
X218961Y299914D01*
Y271140D01*
X218461Y271006D01*
X218201Y271456D01*
X217456Y272201D01*
X217039Y272442D01*
Y304961D01*
X232157D01*
X232560Y304558D01*
X233221Y304116D01*
X234002Y303961D01*
X249059D01*
X249299Y303544D01*
X250044Y302799D01*
X250956Y302273D01*
X251973Y302000D01*
X253027D01*
X254044Y302273D01*
X254956Y302799D01*
X255701Y303544D01*
X256227Y304456D01*
X256500Y305473D01*
Y306527D01*
X256227Y307544D01*
X255701Y308456D01*
X254956Y309201D01*
X254044Y309727D01*
X253027Y310000D01*
X251973D01*
X250956Y309727D01*
X250044Y309201D01*
X249299Y308456D01*
X249059Y308039D01*
X234846D01*
X234444Y308442D01*
X233782Y308884D01*
X233002Y309039D01*
X215586D01*
X214805Y308884D01*
X214144Y308442D01*
X213558Y307856D01*
X213116Y307195D01*
X212961Y306414D01*
Y272442D01*
X212544Y272201D01*
X211799Y271456D01*
X211539Y271006D01*
X211039Y271140D01*
Y312070D01*
X211930Y312961D01*
X248558D01*
X248799Y312544D01*
X249544Y311799D01*
X250456Y311273D01*
X251473Y311000D01*
X252527D01*
X253544Y311273D01*
X254456Y311799D01*
X255201Y312544D01*
X255727Y313456D01*
X256000Y314473D01*
Y315527D01*
X255727Y316544D01*
X255201Y317456D01*
X254456Y318201D01*
X253544Y318727D01*
X252527Y319000D01*
X251473D01*
X250456Y318727D01*
X249544Y318201D01*
X248799Y317456D01*
X248558Y317039D01*
X211086D01*
X210305Y316884D01*
X209644Y316442D01*
X207558Y314356D01*
X207116Y313695D01*
X206961Y312914D01*
Y310506D01*
X206461Y310372D01*
X206301Y310649D01*
X205649Y311301D01*
X204851Y311761D01*
X204000Y311989D01*
Y308500D01*
Y305011D01*
X204851Y305239D01*
X205649Y305699D01*
X206301Y306351D01*
X206461Y306628D01*
X206961Y306494D01*
Y182941D01*
X206544Y182701D01*
X205799Y181956D01*
X205273Y181044D01*
X205000Y180027D01*
Y178973D01*
X205273Y177956D01*
X205799Y177044D01*
X206544Y176299D01*
X207456Y175773D01*
X208473Y175500D01*
X209527D01*
X210544Y175773D01*
X211456Y176299D01*
X212201Y177044D01*
X212727Y177956D01*
X213000Y178973D01*
Y180027D01*
X212727Y181044D01*
X212201Y181956D01*
X211456Y182701D01*
X211039Y182941D01*
Y190238D01*
X211539Y190569D01*
X212086Y190461D01*
X253155D01*
X254616Y189000D01*
X254518Y188656D01*
X254423Y188486D01*
X254218Y188432D01*
X253956Y188397D01*
X253712Y188296D01*
X253456Y188227D01*
X253227Y188095D01*
X252983Y187994D01*
X252773Y187833D01*
X252544Y187701D01*
X252357Y187514D01*
X252147Y187353D01*
X251986Y187143D01*
X251799Y186956D01*
X251667Y186727D01*
X251506Y186517D01*
X251405Y186273D01*
X251273Y186044D01*
X251204Y185789D01*
X251103Y185544D01*
X251068Y185282D01*
X251000Y185027D01*
Y184762D01*
X250965Y184500D01*
X251000Y184238D01*
Y183973D01*
X251068Y183718D01*
X251103Y183456D01*
X251204Y183211D01*
X251273Y182956D01*
X251405Y182727D01*
X251506Y182483D01*
X251667Y182273D01*
X251799Y182044D01*
X251986Y181857D01*
X252147Y181647D01*
X252147Y181647D01*
X285332Y148462D01*
X285141Y148000D01*
X147500D01*
Y172420D01*
X148105Y172540D01*
X148617Y172882D01*
X148960Y173395D01*
X149080Y174000D01*
Y189500D01*
X148960Y190105D01*
X148617Y190618D01*
X148105Y190960D01*
X147500Y191080D01*
Y200727D01*
X196183D01*
X197168Y200158D01*
X198567Y199784D01*
X200015D01*
X201414Y200158D01*
X202668Y200882D01*
X203692Y201906D01*
X204416Y203161D01*
X204791Y204559D01*
Y206008D01*
X204416Y207406D01*
X203692Y208661D01*
X202668Y209685D01*
X201414Y210409D01*
X200015Y210784D01*
X198567D01*
X197168Y210409D01*
X195914Y209685D01*
X195026Y208796D01*
X147500D01*
Y212500D01*
X110500D01*
Y249500D01*
X118325D01*
X118561Y249059D01*
X118240Y248579D01*
X117750Y247396D01*
X117500Y246140D01*
Y244860D01*
X117750Y243604D01*
X118240Y242421D01*
X118951Y241356D01*
X119857Y240451D01*
X120921Y239740D01*
X122104Y239250D01*
X123360Y239000D01*
X124640D01*
X125896Y239250D01*
X127079Y239740D01*
X128144Y240451D01*
X129049Y241356D01*
X129760Y242421D01*
X130250Y243604D01*
X130500Y244860D01*
Y246140D01*
X130250Y247396D01*
X129760Y248579D01*
X129439Y249059D01*
X129675Y249500D01*
X151500D01*
Y309000D01*
X1580D01*
Y321500D01*
X17000D01*
Y337500D01*
X17500D01*
Y338000D01*
X33500D01*
Y353420D01*
X258420D01*
Y349000D01*
X258540Y348395D01*
X258882Y347883D01*
X259395Y347540D01*
X260000Y347420D01*
X335000Y347420D01*
X335605Y347540D01*
X336118Y347883D01*
X336460Y348395D01*
X336580Y349000D01*
Y353420D01*
X370920D01*
Y33500D01*
D02*
G37*
G36*
X141000Y278500D02*
X141000Y259500D01*
X64500Y259500D01*
X64500Y234000D01*
X2500D01*
Y252000D01*
X49000D01*
Y278500D01*
X141000Y278500D01*
D02*
G37*
G36*
X97500Y281000D02*
X45500D01*
Y253500D01*
X2500D01*
Y275000D01*
X31500D01*
Y306500D01*
X97500D01*
Y281000D01*
D02*
G37*
G36*
X97500Y254500D02*
Y216500D01*
X34000Y216500D01*
Y208000D01*
X2500D01*
Y232000D01*
X67500D01*
Y254500D01*
X97500Y254500D01*
D02*
G37*
G36*
X97500Y193000D02*
X47000D01*
Y178000D01*
X2500D01*
Y205500D01*
X36500D01*
Y213000D01*
X97500D01*
Y193000D01*
D02*
G37*
G36*
X140500Y189500D02*
X140500Y174000D01*
X64500Y174000D01*
X64500Y158000D01*
X2500D01*
Y175000D01*
X51000D01*
Y189500D01*
X140500Y189500D01*
D02*
G37*
G36*
X85000Y167000D02*
Y133000D01*
X2500Y133000D01*
Y155000D01*
X67500D01*
Y167000D01*
X85000Y167000D01*
D02*
G37*
G36*
X61500Y87500D02*
X27000D01*
Y85000D01*
X2500D01*
Y130000D01*
X61500D01*
Y87500D01*
D02*
G37*
G36*
Y62000D02*
X52500D01*
Y41000D01*
X2500D01*
X2500Y79500D01*
X36500Y79500D01*
X36500Y85500D01*
X61500D01*
Y62000D01*
D02*
G37*
%LPC*%
G36*
X169500Y343989D02*
Y341000D01*
X172490D01*
X172262Y341851D01*
X171801Y342649D01*
X171149Y343301D01*
X170351Y343761D01*
X169500Y343989D01*
D02*
G37*
G36*
X168500D02*
X167649Y343761D01*
X166851Y343301D01*
X166199Y342649D01*
X165738Y341851D01*
X165510Y341000D01*
X168500D01*
Y343989D01*
D02*
G37*
G36*
X146500D02*
Y341000D01*
X149489D01*
X149261Y341851D01*
X148801Y342649D01*
X148149Y343301D01*
X147351Y343761D01*
X146500Y343989D01*
D02*
G37*
G36*
X145500D02*
X144649Y343761D01*
X143851Y343301D01*
X143199Y342649D01*
X142738Y341851D01*
X142510Y341000D01*
X145500D01*
Y343989D01*
D02*
G37*
G36*
X295500Y343490D02*
Y340500D01*
X298489D01*
X298261Y341351D01*
X297801Y342149D01*
X297149Y342801D01*
X296351Y343262D01*
X295500Y343490D01*
D02*
G37*
G36*
X294500D02*
X293649Y343262D01*
X292851Y342801D01*
X292199Y342149D01*
X291739Y341351D01*
X291511Y340500D01*
X294500D01*
Y343490D01*
D02*
G37*
G36*
X280000D02*
Y340500D01*
X282990D01*
X282762Y341351D01*
X282301Y342149D01*
X281649Y342801D01*
X280851Y343262D01*
X280000Y343490D01*
D02*
G37*
G36*
X279000D02*
X278149Y343262D01*
X277351Y342801D01*
X276699Y342149D01*
X276238Y341351D01*
X276010Y340500D01*
X279000D01*
Y343490D01*
D02*
G37*
G36*
X309445Y342926D02*
Y339936D01*
X312435D01*
X312207Y340787D01*
X311746Y341585D01*
X311094Y342237D01*
X310296Y342698D01*
X309445Y342926D01*
D02*
G37*
G36*
X308445D02*
X307594Y342698D01*
X306796Y342237D01*
X306144Y341585D01*
X305683Y340787D01*
X305455Y339936D01*
X308445D01*
Y342926D01*
D02*
G37*
G36*
X369750Y352250D02*
X355500D01*
Y338000D01*
X369750D01*
Y352250D01*
D02*
G37*
G36*
X354500D02*
X340250D01*
Y338000D01*
X354500D01*
Y352250D01*
D02*
G37*
G36*
X172490Y340000D02*
X169500D01*
Y337011D01*
X170351Y337239D01*
X171149Y337699D01*
X171801Y338351D01*
X172262Y339149D01*
X172490Y340000D01*
D02*
G37*
G36*
X168500D02*
X165510D01*
X165738Y339149D01*
X166199Y338351D01*
X166851Y337699D01*
X167649Y337239D01*
X168500Y337011D01*
Y340000D01*
D02*
G37*
G36*
X149489D02*
X146500D01*
Y337011D01*
X147351Y337239D01*
X148149Y337699D01*
X148801Y338351D01*
X149261Y339149D01*
X149489Y340000D01*
D02*
G37*
G36*
X145500D02*
X142510D01*
X142738Y339149D01*
X143199Y338351D01*
X143851Y337699D01*
X144649Y337239D01*
X145500Y337011D01*
Y340000D01*
D02*
G37*
G36*
X298489Y339500D02*
X295500D01*
Y336510D01*
X296351Y336738D01*
X297149Y337199D01*
X297801Y337851D01*
X298261Y338649D01*
X298489Y339500D01*
D02*
G37*
G36*
X294500D02*
X291511D01*
X291739Y338649D01*
X292199Y337851D01*
X292851Y337199D01*
X293649Y336738D01*
X294500Y336510D01*
Y339500D01*
D02*
G37*
G36*
X282990D02*
X280000D01*
Y336510D01*
X280851Y336738D01*
X281649Y337199D01*
X282301Y337851D01*
X282762Y338649D01*
X282990Y339500D01*
D02*
G37*
G36*
X279000D02*
X276010D01*
X276238Y338649D01*
X276699Y337851D01*
X277351Y337199D01*
X278149Y336738D01*
X279000Y336510D01*
Y339500D01*
D02*
G37*
G36*
X216500Y339490D02*
Y336500D01*
X219490D01*
X219262Y337351D01*
X218801Y338149D01*
X218149Y338801D01*
X217351Y339262D01*
X216500Y339490D01*
D02*
G37*
G36*
X215500D02*
X214649Y339262D01*
X213851Y338801D01*
X213199Y338149D01*
X212738Y337351D01*
X212510Y336500D01*
X215500D01*
Y339490D01*
D02*
G37*
G36*
X312435Y338936D02*
X309445D01*
Y335947D01*
X310296Y336175D01*
X311094Y336635D01*
X311746Y337287D01*
X312207Y338085D01*
X312435Y338936D01*
D02*
G37*
G36*
X308445D02*
X305455D01*
X305683Y338085D01*
X306144Y337287D01*
X306796Y336635D01*
X307594Y336175D01*
X308445Y335947D01*
Y338936D01*
D02*
G37*
G36*
X93000Y337490D02*
Y334500D01*
X95990D01*
X95762Y335351D01*
X95301Y336149D01*
X94649Y336801D01*
X93851Y337262D01*
X93000Y337490D01*
D02*
G37*
G36*
X92000D02*
X91149Y337262D01*
X90351Y336801D01*
X89699Y336149D01*
X89239Y335351D01*
X89011Y334500D01*
X92000D01*
Y337490D01*
D02*
G37*
G36*
X71500D02*
Y334500D01*
X74489D01*
X74261Y335351D01*
X73801Y336149D01*
X73149Y336801D01*
X72351Y337262D01*
X71500Y337490D01*
D02*
G37*
G36*
X70500D02*
X69649Y337262D01*
X68851Y336801D01*
X68199Y336149D01*
X67738Y335351D01*
X67510Y334500D01*
X70500D01*
Y337490D01*
D02*
G37*
G36*
X50000D02*
Y334500D01*
X52990D01*
X52762Y335351D01*
X52301Y336149D01*
X51649Y336801D01*
X50851Y337262D01*
X50000Y337490D01*
D02*
G37*
G36*
X49000D02*
X48149Y337262D01*
X47351Y336801D01*
X46699Y336149D01*
X46238Y335351D01*
X46011Y334500D01*
X49000D01*
Y337490D01*
D02*
G37*
G36*
X219490Y335500D02*
X216500D01*
Y332510D01*
X217351Y332738D01*
X218149Y333199D01*
X218801Y333851D01*
X219262Y334649D01*
X219490Y335500D01*
D02*
G37*
G36*
X215500D02*
X212510D01*
X212738Y334649D01*
X213199Y333851D01*
X213851Y333199D01*
X214649Y332738D01*
X215500Y332510D01*
Y335500D01*
D02*
G37*
G36*
X318500Y334489D02*
Y331500D01*
X321490D01*
X321262Y332351D01*
X320801Y333149D01*
X320149Y333801D01*
X319351Y334261D01*
X318500Y334489D01*
D02*
G37*
G36*
X317500D02*
X316649Y334261D01*
X315851Y333801D01*
X315199Y333149D01*
X314738Y332351D01*
X314510Y331500D01*
X317500D01*
Y334489D01*
D02*
G37*
G36*
X95990Y333500D02*
X93000D01*
Y330510D01*
X93851Y330738D01*
X94649Y331199D01*
X95301Y331851D01*
X95762Y332649D01*
X95990Y333500D01*
D02*
G37*
G36*
X92000D02*
X89011D01*
X89239Y332649D01*
X89699Y331851D01*
X90351Y331199D01*
X91149Y330738D01*
X92000Y330510D01*
Y333500D01*
D02*
G37*
G36*
X74489D02*
X71500D01*
Y330510D01*
X72351Y330738D01*
X73149Y331199D01*
X73801Y331851D01*
X74261Y332649D01*
X74489Y333500D01*
D02*
G37*
G36*
X70500D02*
X67510D01*
X67738Y332649D01*
X68199Y331851D01*
X68851Y331199D01*
X69649Y330738D01*
X70500Y330510D01*
Y333500D01*
D02*
G37*
G36*
X52990D02*
X50000D01*
Y330510D01*
X50851Y330738D01*
X51649Y331199D01*
X52301Y331851D01*
X52762Y332649D01*
X52990Y333500D01*
D02*
G37*
G36*
X49000D02*
X46011D01*
X46238Y332649D01*
X46699Y331851D01*
X47351Y331199D01*
X48149Y330738D01*
X49000Y330510D01*
Y333500D01*
D02*
G37*
G36*
X321490Y330500D02*
X318500D01*
Y327510D01*
X319351Y327738D01*
X320149Y328199D01*
X320801Y328851D01*
X321262Y329649D01*
X321490Y330500D01*
D02*
G37*
G36*
X317500D02*
X314510D01*
X314738Y329649D01*
X315199Y328851D01*
X315851Y328199D01*
X316649Y327738D01*
X317500Y327510D01*
Y330500D01*
D02*
G37*
G36*
X306000Y332580D02*
X281000D01*
X280395Y332460D01*
X279883Y332118D01*
X279540Y331605D01*
X279420Y331000D01*
Y329000D01*
X279540Y328395D01*
X279883Y327883D01*
X280395Y327540D01*
X281000Y327420D01*
X306000D01*
X306605Y327540D01*
X307118Y327883D01*
X307460Y328395D01*
X307580Y329000D01*
Y331000D01*
X307460Y331605D01*
X307118Y332118D01*
X306605Y332460D01*
X306000Y332580D01*
D02*
G37*
G36*
X309000Y326580D02*
X307000D01*
X306395Y326460D01*
X305883Y326117D01*
X305600Y325695D01*
X305165Y325752D01*
X305100Y325778D01*
Y326100D01*
X301600D01*
Y322100D01*
X300600D01*
Y326100D01*
X294300D01*
Y322100D01*
X293300D01*
Y326100D01*
X287000D01*
Y322100D01*
X286500D01*
Y321600D01*
X282500D01*
Y318100D01*
Y315400D01*
X286500D01*
Y314400D01*
X282500D01*
Y310900D01*
Y308200D01*
X286500D01*
Y307700D01*
X287000D01*
Y303700D01*
X293300D01*
Y307700D01*
X294300D01*
Y303700D01*
X300600D01*
Y307700D01*
X301600D01*
Y303700D01*
X305100D01*
Y304222D01*
X305165Y304248D01*
X305600Y304305D01*
X305883Y303883D01*
X306395Y303540D01*
X307000Y303420D01*
X307610D01*
X307708Y303181D01*
X307778Y302920D01*
X307302Y302095D01*
X307230Y302032D01*
X306713Y301888D01*
X306605Y301960D01*
X306000Y302080D01*
X281000D01*
X280395Y301960D01*
X279883Y301618D01*
X279540Y301105D01*
X279420Y300500D01*
Y298500D01*
X279540Y297895D01*
X279883Y297382D01*
X280395Y297040D01*
X281000Y296920D01*
X306000D01*
X306605Y297040D01*
X307118Y297382D01*
X307383Y297781D01*
X307429Y297810D01*
X307801Y297883D01*
X307966Y297877D01*
X308544Y297299D01*
X308961Y297059D01*
Y267140D01*
X308461Y267006D01*
X308201Y267456D01*
X307456Y268201D01*
X306544Y268727D01*
X305527Y269000D01*
X304473D01*
X303456Y268727D01*
X302544Y268201D01*
X301799Y267456D01*
X301273Y266544D01*
X301000Y265527D01*
Y264473D01*
X301273Y263456D01*
X301799Y262544D01*
X302544Y261799D01*
X302961Y261559D01*
Y252895D01*
X292558Y242492D01*
X292116Y241831D01*
X291961Y241050D01*
Y235821D01*
X291461Y235772D01*
X291355Y236304D01*
X290802Y237131D01*
X289631Y238302D01*
X288804Y238855D01*
X287828Y239049D01*
X280056D01*
X258802Y260302D01*
X257976Y260855D01*
X257000Y261049D01*
X241108D01*
X240456Y261701D01*
X239544Y262227D01*
X238527Y262500D01*
X237473D01*
X236456Y262227D01*
X235544Y261701D01*
X234799Y260956D01*
X234273Y260044D01*
X234000Y259027D01*
Y257973D01*
X234273Y256956D01*
X234799Y256044D01*
X235451Y255392D01*
Y220108D01*
X234799Y219456D01*
X234273Y218544D01*
X234000Y217527D01*
Y216473D01*
X234273Y215456D01*
X234799Y214544D01*
X235544Y213799D01*
X236456Y213273D01*
X237473Y213000D01*
X238527D01*
X239544Y213273D01*
X240456Y213799D01*
X241201Y214544D01*
X241727Y215456D01*
X242000Y216473D01*
Y217527D01*
X241727Y218544D01*
X241201Y219456D01*
X240549Y220108D01*
Y255392D01*
X241108Y255951D01*
X255944D01*
X277198Y234698D01*
X278025Y234145D01*
X279000Y233951D01*
X286451D01*
Y217172D01*
X286645Y216196D01*
X287198Y215369D01*
X288369Y214198D01*
X289196Y213645D01*
X290172Y213451D01*
X308336D01*
X309311Y213645D01*
X310138Y214198D01*
X312892Y216951D01*
X324500D01*
Y214000D01*
X326828D01*
X326929Y213626D01*
X326929Y213500D01*
X325999Y212570D01*
X325341Y211430D01*
X325000Y210158D01*
Y210000D01*
X330000D01*
Y209000D01*
X325000D01*
Y208842D01*
X325341Y207570D01*
X325999Y206430D01*
X326930Y205499D01*
X328070Y204841D01*
X328409Y204750D01*
Y204250D01*
X328070Y204159D01*
X326930Y203501D01*
X325999Y202570D01*
X325341Y201430D01*
X325000Y200158D01*
Y200000D01*
X330000D01*
Y199000D01*
X325000D01*
Y198842D01*
X325341Y197570D01*
X325999Y196430D01*
X326930Y195499D01*
X328070Y194841D01*
X328409Y194750D01*
Y194250D01*
X328070Y194159D01*
X326930Y193501D01*
X325999Y192570D01*
X325341Y191430D01*
X325000Y190158D01*
Y190000D01*
X330000D01*
Y189000D01*
X325000D01*
Y188842D01*
X325341Y187570D01*
X325999Y186430D01*
X326930Y185499D01*
X328070Y184841D01*
X328409Y184750D01*
Y184250D01*
X328070Y184159D01*
X326930Y183501D01*
X325999Y182570D01*
X325341Y181430D01*
X325000Y180158D01*
Y180000D01*
X330000D01*
Y179500D01*
X330500D01*
Y174500D01*
X330658D01*
X331930Y174841D01*
X333070Y175499D01*
X334001Y176430D01*
X334435Y177181D01*
X335000Y177160D01*
X335599Y176123D01*
X336623Y175099D01*
X337877Y174375D01*
X339276Y174000D01*
X340724D01*
X342123Y174375D01*
X343377Y175099D01*
X344401Y176123D01*
X345125Y177377D01*
X345500Y178776D01*
Y180224D01*
X345125Y181623D01*
X344401Y182877D01*
X343377Y183901D01*
X342773Y184250D01*
Y184750D01*
X343377Y185099D01*
X344401Y186123D01*
X345125Y187377D01*
X345500Y188776D01*
Y190224D01*
X345125Y191623D01*
X344401Y192877D01*
X343377Y193901D01*
X342773Y194250D01*
Y194750D01*
X343377Y195099D01*
X344401Y196123D01*
X345125Y197377D01*
X345148Y197461D01*
X357914D01*
X358695Y197616D01*
X359356Y198058D01*
X361942Y200644D01*
X362384Y201305D01*
X362539Y202086D01*
Y237914D01*
X362384Y238695D01*
X361942Y239356D01*
X361356Y239942D01*
X360695Y240384D01*
X359914Y240539D01*
X315441D01*
X315201Y240956D01*
X314456Y241701D01*
X313544Y242227D01*
X312527Y242500D01*
X311473D01*
X310456Y242227D01*
X309544Y241701D01*
X309039Y241196D01*
X308539Y241403D01*
Y242155D01*
X324026Y257642D01*
X324468Y258304D01*
X324623Y259084D01*
Y260559D01*
X325040Y260799D01*
X325785Y261544D01*
X326311Y262456D01*
X326584Y263473D01*
Y264527D01*
X326311Y265544D01*
X325785Y266456D01*
X325040Y267201D01*
X324128Y267727D01*
X323111Y268000D01*
X322057D01*
X321040Y267727D01*
X320128Y267201D01*
X319383Y266456D01*
X318857Y265544D01*
X318584Y264527D01*
Y263473D01*
X318857Y262456D01*
X319383Y261544D01*
X320128Y260799D01*
X320545Y260559D01*
Y259929D01*
X313408Y252792D01*
X312947Y253038D01*
X313039Y253500D01*
Y297059D01*
X313456Y297299D01*
X314201Y298044D01*
X314727Y298956D01*
X315000Y299973D01*
Y301027D01*
X314727Y302044D01*
X314201Y302956D01*
X313456Y303701D01*
X312544Y304227D01*
X311527Y304500D01*
X310875D01*
X310558Y304887D01*
X310580Y305000D01*
Y325000D01*
X310460Y325605D01*
X310118Y326117D01*
X309605Y326460D01*
X309000Y326580D01*
D02*
G37*
G36*
X215000Y327489D02*
Y324500D01*
X217989D01*
X217761Y325351D01*
X217301Y326149D01*
X216649Y326801D01*
X215851Y327261D01*
X215000Y327489D01*
D02*
G37*
G36*
X214000D02*
X213149Y327261D01*
X212351Y326801D01*
X211699Y326149D01*
X211239Y325351D01*
X211011Y324500D01*
X214000D01*
Y327489D01*
D02*
G37*
G36*
X369750Y337000D02*
X355500D01*
Y322750D01*
X369750D01*
Y337000D01*
D02*
G37*
G36*
X354500D02*
X340250D01*
Y322750D01*
X354500D01*
Y337000D01*
D02*
G37*
G36*
X286000Y326100D02*
X282500D01*
Y322600D01*
X286000D01*
Y326100D01*
D02*
G37*
G36*
X33500Y337000D02*
X18000D01*
Y321500D01*
X33500D01*
Y337000D01*
D02*
G37*
G36*
X217989Y323500D02*
X215000D01*
Y320511D01*
X215851Y320739D01*
X216649Y321199D01*
X217301Y321851D01*
X217761Y322649D01*
X217989Y323500D01*
D02*
G37*
G36*
X214000D02*
X211011D01*
X211239Y322649D01*
X211699Y321851D01*
X212351Y321199D01*
X213149Y320739D01*
X214000Y320511D01*
Y323500D01*
D02*
G37*
G36*
X146500Y322990D02*
Y320000D01*
X149489D01*
X149261Y320851D01*
X148801Y321649D01*
X148149Y322301D01*
X147351Y322762D01*
X146500Y322990D01*
D02*
G37*
G36*
X145500D02*
X144649Y322762D01*
X143851Y322301D01*
X143199Y321649D01*
X142738Y320851D01*
X142510Y320000D01*
X145500D01*
Y322990D01*
D02*
G37*
G36*
X149489Y319000D02*
X146500D01*
Y316010D01*
X147351Y316238D01*
X148149Y316699D01*
X148801Y317351D01*
X149261Y318149D01*
X149489Y319000D01*
D02*
G37*
G36*
X145500D02*
X142510D01*
X142738Y318149D01*
X143199Y317351D01*
X143851Y316699D01*
X144649Y316238D01*
X145500Y316010D01*
Y319000D01*
D02*
G37*
G36*
X319000Y314989D02*
Y312000D01*
X321989D01*
X321761Y312851D01*
X321301Y313649D01*
X320649Y314301D01*
X319851Y314761D01*
X319000Y314989D01*
D02*
G37*
G36*
X318000D02*
X317149Y314761D01*
X316351Y314301D01*
X315699Y313649D01*
X315238Y312851D01*
X315010Y312000D01*
X318000D01*
Y314989D01*
D02*
G37*
G36*
X203000Y311989D02*
X202149Y311761D01*
X201351Y311301D01*
X200699Y310649D01*
X200238Y309851D01*
X200010Y309000D01*
X203000D01*
Y311989D01*
D02*
G37*
G36*
X321989Y311000D02*
X319000D01*
Y308011D01*
X319851Y308239D01*
X320649Y308699D01*
X321301Y309351D01*
X321761Y310149D01*
X321989Y311000D01*
D02*
G37*
G36*
X318000D02*
X315010D01*
X315238Y310149D01*
X315699Y309351D01*
X316351Y308699D01*
X317149Y308239D01*
X318000Y308011D01*
Y311000D01*
D02*
G37*
G36*
X203000Y308000D02*
X200010D01*
X200238Y307149D01*
X200699Y306351D01*
X201351Y305699D01*
X202149Y305239D01*
X203000Y305011D01*
Y308000D01*
D02*
G37*
G36*
X286000Y307200D02*
X282500D01*
Y303700D01*
X286000D01*
Y307200D01*
D02*
G37*
G36*
X279500Y326080D02*
X277500D01*
X276895Y325960D01*
X276382Y325618D01*
X276040Y325105D01*
X275920Y324500D01*
Y304500D01*
X276040Y303895D01*
X276382Y303382D01*
X276895Y303040D01*
X277500Y302920D01*
X279500D01*
X280105Y303040D01*
X280617Y303382D01*
X280960Y303895D01*
X281080Y304500D01*
Y324500D01*
X280960Y325105D01*
X280617Y325618D01*
X280105Y325960D01*
X279500Y326080D01*
D02*
G37*
G36*
X349000Y301990D02*
Y299000D01*
X351990D01*
X351762Y299851D01*
X351301Y300649D01*
X350649Y301301D01*
X349851Y301762D01*
X349000Y301990D01*
D02*
G37*
G36*
X348000D02*
X347149Y301762D01*
X346351Y301301D01*
X345699Y300649D01*
X345238Y299851D01*
X345010Y299000D01*
X348000D01*
Y301990D01*
D02*
G37*
G36*
X351990Y298000D02*
X349000D01*
Y295010D01*
X349851Y295238D01*
X350649Y295699D01*
X351301Y296351D01*
X351762Y297149D01*
X351990Y298000D01*
D02*
G37*
G36*
X348000D02*
X345010D01*
X345238Y297149D01*
X345699Y296351D01*
X346351Y295699D01*
X347149Y295238D01*
X348000Y295010D01*
Y298000D01*
D02*
G37*
G36*
X295148Y292545D02*
Y289556D01*
X298137D01*
X297909Y290407D01*
X297449Y291205D01*
X296797Y291857D01*
X295999Y292317D01*
X295148Y292545D01*
D02*
G37*
G36*
X294148D02*
X293297Y292317D01*
X292499Y291857D01*
X291847Y291205D01*
X291386Y290407D01*
X291158Y289556D01*
X294148D01*
Y292545D01*
D02*
G37*
G36*
X279830Y291865D02*
Y288875D01*
X282819D01*
X282591Y289726D01*
X282130Y290524D01*
X281479Y291176D01*
X280680Y291637D01*
X279830Y291865D01*
D02*
G37*
G36*
X278830D02*
X277979Y291637D01*
X277181Y291176D01*
X276529Y290524D01*
X276068Y289726D01*
X275840Y288875D01*
X278830D01*
Y291865D01*
D02*
G37*
G36*
X298137Y288556D02*
X295148D01*
Y285566D01*
X295999Y285794D01*
X296797Y286255D01*
X297449Y286907D01*
X297909Y287705D01*
X298137Y288556D01*
D02*
G37*
G36*
X294148D02*
X291158D01*
X291386Y287705D01*
X291847Y286907D01*
X292499Y286255D01*
X293297Y285794D01*
X294148Y285566D01*
Y288556D01*
D02*
G37*
G36*
X282819Y287875D02*
X279830D01*
Y284886D01*
X280680Y285114D01*
X281479Y285574D01*
X282130Y286226D01*
X282591Y287024D01*
X282819Y287875D01*
D02*
G37*
G36*
X278830D02*
X275840D01*
X276068Y287024D01*
X276529Y286226D01*
X277181Y285574D01*
X277979Y285114D01*
X278830Y284886D01*
Y287875D01*
D02*
G37*
G36*
X350500Y279489D02*
Y276500D01*
X353489D01*
X353261Y277351D01*
X352801Y278149D01*
X352149Y278801D01*
X351351Y279261D01*
X350500Y279489D01*
D02*
G37*
G36*
X349500D02*
X348649Y279261D01*
X347851Y278801D01*
X347199Y278149D01*
X346739Y277351D01*
X346511Y276500D01*
X349500D01*
Y279489D01*
D02*
G37*
G36*
X353489Y275500D02*
X350500D01*
Y272511D01*
X351351Y272739D01*
X352149Y273199D01*
X352801Y273851D01*
X353261Y274649D01*
X353489Y275500D01*
D02*
G37*
G36*
X349500D02*
X346511D01*
X346739Y274649D01*
X347199Y273851D01*
X347851Y273199D01*
X348649Y272739D01*
X349500Y272511D01*
Y275500D01*
D02*
G37*
G36*
X200500Y273990D02*
Y271000D01*
X203489D01*
X203261Y271851D01*
X202801Y272649D01*
X202149Y273301D01*
X201351Y273762D01*
X200500Y273990D01*
D02*
G37*
G36*
X199500D02*
X198649Y273762D01*
X197851Y273301D01*
X197199Y272649D01*
X196739Y271851D01*
X196511Y271000D01*
X199500D01*
Y273990D01*
D02*
G37*
G36*
X267500Y270490D02*
Y267500D01*
X270490D01*
X270262Y268351D01*
X269801Y269149D01*
X269149Y269801D01*
X268351Y270262D01*
X267500Y270490D01*
D02*
G37*
G36*
X266500D02*
X265649Y270262D01*
X264851Y269801D01*
X264199Y269149D01*
X263738Y268351D01*
X263510Y267500D01*
X266500D01*
Y270490D01*
D02*
G37*
G36*
X203489Y270000D02*
X200500D01*
Y267010D01*
X201351Y267238D01*
X202149Y267699D01*
X202801Y268351D01*
X203261Y269149D01*
X203489Y270000D01*
D02*
G37*
G36*
X199500D02*
X196511D01*
X196739Y269149D01*
X197199Y268351D01*
X197851Y267699D01*
X198649Y267238D01*
X199500Y267010D01*
Y270000D01*
D02*
G37*
G36*
X270490Y266500D02*
X267500D01*
Y263510D01*
X268351Y263738D01*
X269149Y264199D01*
X269801Y264851D01*
X270262Y265649D01*
X270490Y266500D01*
D02*
G37*
G36*
X266500D02*
X263510D01*
X263738Y265649D01*
X264199Y264851D01*
X264851Y264199D01*
X265649Y263738D01*
X266500Y263510D01*
Y266500D01*
D02*
G37*
G36*
X168500Y265989D02*
Y263000D01*
X171490D01*
X171262Y263851D01*
X170801Y264649D01*
X170149Y265301D01*
X169351Y265761D01*
X168500Y265989D01*
D02*
G37*
G36*
X167500D02*
X166649Y265761D01*
X165851Y265301D01*
X165199Y264649D01*
X164739Y263851D01*
X164511Y263000D01*
X167500D01*
Y265989D01*
D02*
G37*
G36*
X350500Y264739D02*
Y261750D01*
X353489D01*
X353261Y262601D01*
X352801Y263399D01*
X352149Y264051D01*
X351351Y264511D01*
X350500Y264739D01*
D02*
G37*
G36*
X349500D02*
X348649Y264511D01*
X347851Y264051D01*
X347199Y263399D01*
X346739Y262601D01*
X346511Y261750D01*
X349500D01*
Y264739D01*
D02*
G37*
G36*
X171490Y262000D02*
X168500D01*
Y259011D01*
X169351Y259239D01*
X170149Y259699D01*
X170801Y260351D01*
X171262Y261149D01*
X171490Y262000D01*
D02*
G37*
G36*
X167500D02*
X164511D01*
X164739Y261149D01*
X165199Y260351D01*
X165851Y259699D01*
X166649Y259239D01*
X167500Y259011D01*
Y262000D01*
D02*
G37*
G36*
X200603Y261877D02*
Y258887D01*
X203592D01*
X203364Y259738D01*
X202904Y260536D01*
X202252Y261188D01*
X201454Y261649D01*
X200603Y261877D01*
D02*
G37*
G36*
X199603D02*
X198752Y261649D01*
X197954Y261188D01*
X197302Y260536D01*
X196841Y259738D01*
X196613Y258887D01*
X199603D01*
Y261877D01*
D02*
G37*
G36*
X353489Y260750D02*
X350500D01*
Y257761D01*
X351351Y257989D01*
X352149Y258449D01*
X352801Y259101D01*
X353261Y259899D01*
X353489Y260750D01*
D02*
G37*
G36*
X349500D02*
X346511D01*
X346739Y259899D01*
X347199Y259101D01*
X347851Y258449D01*
X348649Y257989D01*
X349500Y257761D01*
Y260750D01*
D02*
G37*
G36*
X203592Y257887D02*
X200603D01*
Y254898D01*
X201454Y255126D01*
X202252Y255587D01*
X202904Y256238D01*
X203364Y257036D01*
X203592Y257887D01*
D02*
G37*
G36*
X199603D02*
X196613D01*
X196841Y257036D01*
X197302Y256238D01*
X197954Y255587D01*
X198752Y255126D01*
X199603Y254898D01*
Y257887D01*
D02*
G37*
G36*
X296079Y269553D02*
X295026D01*
X294009Y269280D01*
X293097Y268754D01*
X292352Y268009D01*
X291825Y267097D01*
X291553Y266079D01*
Y265026D01*
X291825Y264009D01*
X292352Y263097D01*
X293097Y262352D01*
X293487Y262126D01*
Y255998D01*
X293044Y255742D01*
X292299Y254997D01*
X291773Y254085D01*
X291500Y253068D01*
Y252015D01*
X291773Y250997D01*
X292299Y250085D01*
X293044Y249340D01*
X293956Y248814D01*
X294973Y248541D01*
X296027D01*
X297044Y248814D01*
X297956Y249340D01*
X298701Y250085D01*
X299227Y250997D01*
X299500Y252015D01*
Y253068D01*
X299227Y254085D01*
X298701Y254997D01*
X297956Y255742D01*
X297566Y255967D01*
Y262096D01*
X298009Y262352D01*
X298753Y263097D01*
X299280Y264009D01*
X299553Y265026D01*
Y266079D01*
X299280Y267097D01*
X298753Y268009D01*
X298009Y268754D01*
X297097Y269280D01*
X296079Y269553D01*
D02*
G37*
G36*
X350500Y249990D02*
Y247000D01*
X353489D01*
X353261Y247851D01*
X352801Y248649D01*
X352149Y249301D01*
X351351Y249762D01*
X350500Y249990D01*
D02*
G37*
G36*
X349500D02*
X348649Y249762D01*
X347851Y249301D01*
X347199Y248649D01*
X346739Y247851D01*
X346511Y247000D01*
X349500D01*
Y249990D01*
D02*
G37*
G36*
X353489Y246000D02*
X350500D01*
Y243010D01*
X351351Y243238D01*
X352149Y243699D01*
X352801Y244351D01*
X353261Y245149D01*
X353489Y246000D01*
D02*
G37*
G36*
X349500D02*
X346511D01*
X346739Y245149D01*
X347199Y244351D01*
X347851Y243699D01*
X348649Y243238D01*
X349500Y243010D01*
Y246000D01*
D02*
G37*
G36*
X166500Y242989D02*
Y240000D01*
X169490D01*
X169262Y240851D01*
X168801Y241649D01*
X168149Y242301D01*
X167351Y242761D01*
X166500Y242989D01*
D02*
G37*
G36*
X165500D02*
X164649Y242761D01*
X163851Y242301D01*
X163199Y241649D01*
X162739Y240851D01*
X162511Y240000D01*
X165500D01*
Y242989D01*
D02*
G37*
G36*
X155000D02*
Y240000D01*
X157990D01*
X157762Y240851D01*
X157301Y241649D01*
X156649Y242301D01*
X155851Y242761D01*
X155000Y242989D01*
D02*
G37*
G36*
X154000D02*
X153149Y242761D01*
X152351Y242301D01*
X151699Y241649D01*
X151239Y240851D01*
X151011Y240000D01*
X154000D01*
Y242989D01*
D02*
G37*
G36*
X169490Y239000D02*
X166500D01*
Y236011D01*
X167351Y236239D01*
X168149Y236699D01*
X168801Y237351D01*
X169262Y238149D01*
X169490Y239000D01*
D02*
G37*
G36*
X165500D02*
X162511D01*
X162739Y238149D01*
X163199Y237351D01*
X163851Y236699D01*
X164649Y236239D01*
X165500Y236011D01*
Y239000D01*
D02*
G37*
G36*
X157990D02*
X155000D01*
Y236011D01*
X155851Y236239D01*
X156649Y236699D01*
X157301Y237351D01*
X157762Y238149D01*
X157990Y239000D01*
D02*
G37*
G36*
X154000D02*
X151011D01*
X151239Y238149D01*
X151699Y237351D01*
X152351Y236699D01*
X153149Y236239D01*
X154000Y236011D01*
Y239000D01*
D02*
G37*
G36*
X264000Y234990D02*
Y232000D01*
X266989D01*
X266761Y232851D01*
X266301Y233649D01*
X265649Y234301D01*
X264851Y234762D01*
X264000Y234990D01*
D02*
G37*
G36*
X263000D02*
X262149Y234762D01*
X261351Y234301D01*
X260699Y233649D01*
X260239Y232851D01*
X260011Y232000D01*
X263000D01*
Y234990D01*
D02*
G37*
G36*
X122000Y232990D02*
Y230000D01*
X124989D01*
X124761Y230851D01*
X124301Y231649D01*
X123649Y232301D01*
X122851Y232762D01*
X122000Y232990D01*
D02*
G37*
G36*
X121000D02*
X120149Y232762D01*
X119351Y232301D01*
X118699Y231649D01*
X118238Y230851D01*
X118010Y230000D01*
X121000D01*
Y232990D01*
D02*
G37*
G36*
X266989Y231000D02*
X264000D01*
Y228011D01*
X264851Y228239D01*
X265649Y228699D01*
X266301Y229351D01*
X266761Y230149D01*
X266989Y231000D01*
D02*
G37*
G36*
X263000D02*
X260011D01*
X260239Y230149D01*
X260699Y229351D01*
X261351Y228699D01*
X262149Y228239D01*
X263000Y228011D01*
Y231000D01*
D02*
G37*
G36*
X124989Y229000D02*
X122000D01*
Y226010D01*
X122851Y226238D01*
X123649Y226699D01*
X124301Y227351D01*
X124761Y228149D01*
X124989Y229000D01*
D02*
G37*
G36*
X121000D02*
X118010D01*
X118238Y228149D01*
X118699Y227351D01*
X119351Y226699D01*
X120149Y226238D01*
X121000Y226010D01*
Y229000D01*
D02*
G37*
G36*
X280658Y229575D02*
X280500D01*
Y225075D01*
X285000D01*
Y225233D01*
X284659Y226505D01*
X284001Y227645D01*
X283070Y228576D01*
X281930Y229234D01*
X280658Y229575D01*
D02*
G37*
G36*
X279500D02*
X279342D01*
X278070Y229234D01*
X276930Y228576D01*
X275999Y227645D01*
X275341Y226505D01*
X275000Y225233D01*
Y225075D01*
X279500D01*
Y229575D01*
D02*
G37*
G36*
X221500Y225990D02*
Y223000D01*
X224489D01*
X224261Y223851D01*
X223801Y224649D01*
X223149Y225301D01*
X222351Y225762D01*
X221500Y225990D01*
D02*
G37*
G36*
X220500D02*
X219649Y225762D01*
X218851Y225301D01*
X218199Y224649D01*
X217739Y223851D01*
X217511Y223000D01*
X220500D01*
Y225990D01*
D02*
G37*
G36*
X149500Y224990D02*
Y222000D01*
X152489D01*
X152261Y222851D01*
X151801Y223649D01*
X151149Y224301D01*
X150351Y224762D01*
X149500Y224990D01*
D02*
G37*
G36*
X148500D02*
X147649Y224762D01*
X146851Y224301D01*
X146199Y223649D01*
X145738Y222851D01*
X145510Y222000D01*
X148500D01*
Y224990D01*
D02*
G37*
G36*
X285000Y224075D02*
X280500D01*
Y219575D01*
X280658D01*
X281930Y219916D01*
X283070Y220574D01*
X284001Y221505D01*
X284659Y222645D01*
X285000Y223917D01*
Y224075D01*
D02*
G37*
G36*
X279500D02*
X275000D01*
Y223917D01*
X275341Y222645D01*
X275999Y221505D01*
X276930Y220574D01*
X278070Y219916D01*
X279342Y219575D01*
X279500D01*
Y224075D01*
D02*
G37*
G36*
X249228Y230075D02*
X247780D01*
X246381Y229700D01*
X245127Y228976D01*
X244103Y227952D01*
X243379Y226698D01*
X243004Y225299D01*
Y223851D01*
X243379Y222452D01*
X244103Y221198D01*
X245127Y220174D01*
X246381Y219450D01*
X247780Y219075D01*
X249228D01*
X250627Y219450D01*
X251881Y220174D01*
X252905Y221198D01*
X253629Y222452D01*
X254004Y223851D01*
Y225299D01*
X253629Y226698D01*
X252905Y227952D01*
X251881Y228976D01*
X250627Y229700D01*
X249228Y230075D01*
D02*
G37*
G36*
X224489Y222000D02*
X221500D01*
Y219010D01*
X222351Y219238D01*
X223149Y219699D01*
X223801Y220351D01*
X224261Y221149D01*
X224489Y222000D01*
D02*
G37*
G36*
X220500D02*
X217511D01*
X217739Y221149D01*
X218199Y220351D01*
X218851Y219699D01*
X219649Y219238D01*
X220500Y219010D01*
Y222000D01*
D02*
G37*
G36*
X152489Y221000D02*
X149500D01*
Y218010D01*
X150351Y218238D01*
X151149Y218699D01*
X151801Y219351D01*
X152261Y220149D01*
X152489Y221000D01*
D02*
G37*
G36*
X148500D02*
X145510D01*
X145738Y220149D01*
X146199Y219351D01*
X146851Y218699D01*
X147649Y218238D01*
X148500Y218010D01*
Y221000D01*
D02*
G37*
G36*
X263468Y218358D02*
Y215369D01*
X266457D01*
X266229Y216220D01*
X265768Y217018D01*
X265117Y217669D01*
X264318Y218130D01*
X263468Y218358D01*
D02*
G37*
G36*
X262468D02*
X261616Y218130D01*
X260818Y217669D01*
X260167Y217018D01*
X259706Y216220D01*
X259478Y215369D01*
X262468D01*
Y218358D01*
D02*
G37*
G36*
X266457Y214369D02*
X263468D01*
Y211379D01*
X264318Y211607D01*
X265117Y212068D01*
X265768Y212720D01*
X266229Y213518D01*
X266457Y214369D01*
D02*
G37*
G36*
X262468D02*
X259478D01*
X259706Y213518D01*
X260167Y212720D01*
X260818Y212068D01*
X261616Y211607D01*
X262468Y211379D01*
Y214369D01*
D02*
G37*
G36*
X280658Y210283D02*
X280500D01*
Y205784D01*
X285000D01*
Y205942D01*
X284659Y207213D01*
X284001Y208353D01*
X283070Y209284D01*
X281930Y209943D01*
X280658Y210283D01*
D02*
G37*
G36*
X279500D02*
X279342D01*
X278070Y209943D01*
X276930Y209284D01*
X275999Y208353D01*
X275341Y207213D01*
X275000Y205942D01*
Y205784D01*
X279500D01*
Y210283D01*
D02*
G37*
G36*
X231027Y290500D02*
X229973D01*
X228956Y290227D01*
X228044Y289701D01*
X227299Y288956D01*
X226773Y288044D01*
X226500Y287027D01*
Y285973D01*
X226773Y284956D01*
X227299Y284044D01*
X228044Y283299D01*
X228711Y282914D01*
Y210297D01*
X228544Y210201D01*
X227799Y209456D01*
X227273Y208544D01*
X227000Y207527D01*
Y206473D01*
X227273Y205456D01*
X227799Y204544D01*
X228544Y203799D01*
X229456Y203273D01*
X230473Y203000D01*
X231527D01*
X232544Y203273D01*
X233456Y203799D01*
X234201Y204544D01*
X234727Y205456D01*
X235000Y206473D01*
Y207527D01*
X234727Y208544D01*
X234201Y209456D01*
X233456Y210201D01*
X232789Y210586D01*
Y283203D01*
X232956Y283299D01*
X233701Y284044D01*
X234227Y284956D01*
X234500Y285973D01*
Y287027D01*
X234227Y288044D01*
X233701Y288956D01*
X232956Y289701D01*
X232044Y290227D01*
X231027Y290500D01*
D02*
G37*
G36*
X285000Y204784D02*
X280500D01*
Y200284D01*
X280658D01*
X281930Y200624D01*
X283070Y201283D01*
X284001Y202213D01*
X284659Y203354D01*
X285000Y204625D01*
Y204784D01*
D02*
G37*
G36*
X279500D02*
X275000D01*
Y204625D01*
X275341Y203354D01*
X275999Y202213D01*
X276930Y201283D01*
X278070Y200624D01*
X279342Y200284D01*
X279500D01*
Y204784D01*
D02*
G37*
G36*
X221500Y202489D02*
Y199500D01*
X224489D01*
X224261Y200351D01*
X223801Y201149D01*
X223149Y201801D01*
X222351Y202261D01*
X221500Y202489D01*
D02*
G37*
G36*
X220500D02*
X219649Y202261D01*
X218851Y201801D01*
X218199Y201149D01*
X217739Y200351D01*
X217511Y199500D01*
X220500D01*
Y202489D01*
D02*
G37*
G36*
X224489Y198500D02*
X221500D01*
Y195510D01*
X222351Y195738D01*
X223149Y196199D01*
X223801Y196851D01*
X224261Y197649D01*
X224489Y198500D01*
D02*
G37*
G36*
X220500D02*
X217511D01*
X217739Y197649D01*
X218199Y196851D01*
X218851Y196199D01*
X219649Y195738D01*
X220500Y195510D01*
Y198500D01*
D02*
G37*
G36*
X200714Y193075D02*
Y190086D01*
X203703D01*
X203475Y190937D01*
X203015Y191735D01*
X202363Y192386D01*
X201565Y192847D01*
X200714Y193075D01*
D02*
G37*
G36*
X199714D02*
X198863Y192847D01*
X198065Y192386D01*
X197413Y191735D01*
X196952Y190937D01*
X196724Y190086D01*
X199714D01*
Y193075D01*
D02*
G37*
G36*
X186500Y189489D02*
Y186500D01*
X189489D01*
X189261Y187351D01*
X188801Y188149D01*
X188149Y188801D01*
X187351Y189261D01*
X186500Y189489D01*
D02*
G37*
G36*
X185500D02*
X184649Y189261D01*
X183851Y188801D01*
X183199Y188149D01*
X182738Y187351D01*
X182510Y186500D01*
X185500D01*
Y189489D01*
D02*
G37*
G36*
X203703Y189086D02*
X200714D01*
Y186096D01*
X201565Y186324D01*
X202363Y186785D01*
X203015Y187437D01*
X203475Y188235D01*
X203703Y189086D01*
D02*
G37*
G36*
X199714D02*
X196724D01*
X196952Y188235D01*
X197413Y187437D01*
X198065Y186785D01*
X198863Y186324D01*
X199714Y186096D01*
Y189086D01*
D02*
G37*
G36*
X169500Y187989D02*
Y185000D01*
X172490D01*
X172262Y185851D01*
X171801Y186649D01*
X171149Y187301D01*
X170351Y187761D01*
X169500Y187989D01*
D02*
G37*
G36*
X168500D02*
X167649Y187761D01*
X166851Y187301D01*
X166199Y186649D01*
X165738Y185851D01*
X165510Y185000D01*
X168500D01*
Y187989D01*
D02*
G37*
G36*
X189489Y185500D02*
X186500D01*
Y182510D01*
X187351Y182738D01*
X188149Y183199D01*
X188801Y183851D01*
X189261Y184649D01*
X189489Y185500D01*
D02*
G37*
G36*
X185500D02*
X182510D01*
X182738Y184649D01*
X183199Y183851D01*
X183851Y183199D01*
X184649Y182738D01*
X185500Y182510D01*
Y185500D01*
D02*
G37*
G36*
X223212Y184810D02*
Y181821D01*
X226201D01*
X225973Y182672D01*
X225513Y183470D01*
X224861Y184122D01*
X224063Y184582D01*
X223212Y184810D01*
D02*
G37*
G36*
X222212D02*
X221361Y184582D01*
X220563Y184122D01*
X219911Y183470D01*
X219450Y182672D01*
X219222Y181821D01*
X222212D01*
Y184810D01*
D02*
G37*
G36*
X239500Y184490D02*
Y181500D01*
X242490D01*
X242262Y182351D01*
X241801Y183149D01*
X241149Y183801D01*
X240351Y184262D01*
X239500Y184490D01*
D02*
G37*
G36*
X238500D02*
X237649Y184262D01*
X236851Y183801D01*
X236199Y183149D01*
X235738Y182351D01*
X235510Y181500D01*
X238500D01*
Y184490D01*
D02*
G37*
G36*
X172490Y184000D02*
X169500D01*
Y181010D01*
X170351Y181238D01*
X171149Y181699D01*
X171801Y182351D01*
X172262Y183149D01*
X172490Y184000D01*
D02*
G37*
G36*
X168500D02*
X165510D01*
X165738Y183149D01*
X166199Y182351D01*
X166851Y181699D01*
X167649Y181238D01*
X168500Y181010D01*
Y184000D01*
D02*
G37*
G36*
X226201Y180821D02*
X223212D01*
Y177831D01*
X224063Y178059D01*
X224861Y178520D01*
X225513Y179172D01*
X225973Y179970D01*
X226201Y180821D01*
D02*
G37*
G36*
X222212D02*
X219222D01*
X219450Y179970D01*
X219911Y179172D01*
X220563Y178520D01*
X221361Y178059D01*
X222212Y177831D01*
Y180821D01*
D02*
G37*
G36*
X242490Y180500D02*
X239500D01*
Y177510D01*
X240351Y177738D01*
X241149Y178199D01*
X241801Y178851D01*
X242262Y179649D01*
X242490Y180500D01*
D02*
G37*
G36*
X238500D02*
X235510D01*
X235738Y179649D01*
X236199Y178851D01*
X236851Y178199D01*
X237649Y177738D01*
X238500Y177510D01*
Y180500D01*
D02*
G37*
G36*
X329500Y179000D02*
X325000D01*
Y178842D01*
X325341Y177570D01*
X325999Y176430D01*
X326930Y175499D01*
X328070Y174841D01*
X329342Y174500D01*
X329500D01*
Y179000D01*
D02*
G37*
G36*
X249500Y172123D02*
Y169133D01*
X252489D01*
X252261Y169984D01*
X251801Y170782D01*
X251149Y171434D01*
X250351Y171894D01*
X249500Y172123D01*
D02*
G37*
G36*
X248500D02*
X247649Y171894D01*
X246851Y171434D01*
X246199Y170782D01*
X245739Y169984D01*
X245511Y169133D01*
X248500D01*
Y172123D01*
D02*
G37*
G36*
X233835D02*
Y169133D01*
X236825D01*
X236597Y169984D01*
X236136Y170782D01*
X235484Y171434D01*
X234686Y171894D01*
X233835Y172123D01*
D02*
G37*
G36*
X232835D02*
X231984Y171894D01*
X231186Y171434D01*
X230534Y170782D01*
X230074Y169984D01*
X229846Y169133D01*
X232835D01*
Y172123D01*
D02*
G37*
G36*
X218170D02*
Y169133D01*
X221160D01*
X220932Y169984D01*
X220471Y170782D01*
X219819Y171434D01*
X219021Y171894D01*
X218170Y172123D01*
D02*
G37*
G36*
X217170D02*
X216319Y171894D01*
X215521Y171434D01*
X214870Y170782D01*
X214409Y169984D01*
X214181Y169133D01*
X217170D01*
Y172123D01*
D02*
G37*
G36*
X202505D02*
Y169133D01*
X205495D01*
X205267Y169984D01*
X204806Y170782D01*
X204154Y171434D01*
X203356Y171894D01*
X202505Y172123D01*
D02*
G37*
G36*
X201505D02*
X200655Y171894D01*
X199856Y171434D01*
X199205Y170782D01*
X198744Y169984D01*
X198516Y169133D01*
X201505D01*
Y172123D01*
D02*
G37*
G36*
X252489Y168133D02*
X249500D01*
Y165144D01*
X250351Y165372D01*
X251149Y165832D01*
X251801Y166484D01*
X252261Y167282D01*
X252489Y168133D01*
D02*
G37*
G36*
X248500D02*
X245511D01*
X245739Y167282D01*
X246199Y166484D01*
X246851Y165832D01*
X247649Y165372D01*
X248500Y165144D01*
Y168133D01*
D02*
G37*
G36*
X236825D02*
X233835D01*
Y165144D01*
X234686Y165372D01*
X235484Y165832D01*
X236136Y166484D01*
X236597Y167282D01*
X236825Y168133D01*
D02*
G37*
G36*
X232835D02*
X229846D01*
X230074Y167282D01*
X230534Y166484D01*
X231186Y165832D01*
X231984Y165372D01*
X232835Y165144D01*
Y168133D01*
D02*
G37*
G36*
X221160D02*
X218170D01*
Y165144D01*
X219021Y165372D01*
X219819Y165832D01*
X220471Y166484D01*
X220932Y167282D01*
X221160Y168133D01*
D02*
G37*
G36*
X217170D02*
X214181D01*
X214409Y167282D01*
X214870Y166484D01*
X215521Y165832D01*
X216319Y165372D01*
X217170Y165144D01*
Y168133D01*
D02*
G37*
G36*
X205495D02*
X202505D01*
Y165144D01*
X203356Y165372D01*
X204154Y165832D01*
X204806Y166484D01*
X205267Y167282D01*
X205495Y168133D01*
D02*
G37*
G36*
X201505D02*
X198516D01*
X198744Y167282D01*
X199205Y166484D01*
X199856Y165832D01*
X200655Y165372D01*
X201505Y165144D01*
Y168133D01*
D02*
G37*
G36*
X259500Y159990D02*
Y157000D01*
X262490D01*
X262262Y157851D01*
X261801Y158649D01*
X261149Y159301D01*
X260351Y159762D01*
X259500Y159990D01*
D02*
G37*
G36*
X258500D02*
X257649Y159762D01*
X256851Y159301D01*
X256199Y158649D01*
X255738Y157851D01*
X255510Y157000D01*
X258500D01*
Y159990D01*
D02*
G37*
G36*
X242750D02*
Y157000D01*
X245740D01*
X245512Y157851D01*
X245051Y158649D01*
X244399Y159301D01*
X243601Y159762D01*
X242750Y159990D01*
D02*
G37*
G36*
X241750D02*
X240899Y159762D01*
X240101Y159301D01*
X239449Y158649D01*
X238988Y157851D01*
X238760Y157000D01*
X241750D01*
Y159990D01*
D02*
G37*
G36*
X226000D02*
Y157000D01*
X228990D01*
X228762Y157851D01*
X228301Y158649D01*
X227649Y159301D01*
X226851Y159762D01*
X226000Y159990D01*
D02*
G37*
G36*
X225000D02*
X224149Y159762D01*
X223351Y159301D01*
X222699Y158649D01*
X222238Y157851D01*
X222010Y157000D01*
X225000D01*
Y159990D01*
D02*
G37*
G36*
X209250D02*
Y157000D01*
X212240D01*
X212012Y157851D01*
X211551Y158649D01*
X210899Y159301D01*
X210101Y159762D01*
X209250Y159990D01*
D02*
G37*
G36*
X208250D02*
X207399Y159762D01*
X206601Y159301D01*
X205949Y158649D01*
X205488Y157851D01*
X205260Y157000D01*
X208250D01*
Y159990D01*
D02*
G37*
G36*
X192500D02*
Y157000D01*
X195490D01*
X195262Y157851D01*
X194801Y158649D01*
X194149Y159301D01*
X193351Y159762D01*
X192500Y159990D01*
D02*
G37*
G36*
X191500D02*
X190649Y159762D01*
X189851Y159301D01*
X189199Y158649D01*
X188739Y157851D01*
X188511Y157000D01*
X191500D01*
Y159990D01*
D02*
G37*
G36*
X262490Y156000D02*
X259500D01*
Y153010D01*
X260351Y153238D01*
X261149Y153699D01*
X261801Y154351D01*
X262262Y155149D01*
X262490Y156000D01*
D02*
G37*
G36*
X258500D02*
X255510D01*
X255738Y155149D01*
X256199Y154351D01*
X256851Y153699D01*
X257649Y153238D01*
X258500Y153010D01*
Y156000D01*
D02*
G37*
G36*
X245740D02*
X242750D01*
Y153010D01*
X243601Y153238D01*
X244399Y153699D01*
X245051Y154351D01*
X245512Y155149D01*
X245740Y156000D01*
D02*
G37*
G36*
X241750D02*
X238760D01*
X238988Y155149D01*
X239449Y154351D01*
X240101Y153699D01*
X240899Y153238D01*
X241750Y153010D01*
Y156000D01*
D02*
G37*
G36*
X228990D02*
X226000D01*
Y153010D01*
X226851Y153238D01*
X227649Y153699D01*
X228301Y154351D01*
X228762Y155149D01*
X228990Y156000D01*
D02*
G37*
G36*
X225000D02*
X222010D01*
X222238Y155149D01*
X222699Y154351D01*
X223351Y153699D01*
X224149Y153238D01*
X225000Y153010D01*
Y156000D01*
D02*
G37*
G36*
X212240D02*
X209250D01*
Y153010D01*
X210101Y153238D01*
X210899Y153699D01*
X211551Y154351D01*
X212012Y155149D01*
X212240Y156000D01*
D02*
G37*
G36*
X208250D02*
X205260D01*
X205488Y155149D01*
X205949Y154351D01*
X206601Y153699D01*
X207399Y153238D01*
X208250Y153010D01*
Y156000D01*
D02*
G37*
G36*
X195490D02*
X192500D01*
Y153010D01*
X193351Y153238D01*
X194149Y153699D01*
X194801Y154351D01*
X195262Y155149D01*
X195490Y156000D01*
D02*
G37*
G36*
X191500D02*
X188511D01*
X188739Y155149D01*
X189199Y154351D01*
X189851Y153699D01*
X190649Y153238D01*
X191500Y153010D01*
Y156000D01*
D02*
G37*
G36*
X320000Y155990D02*
Y153000D01*
X322990D01*
X322762Y153851D01*
X322301Y154649D01*
X321649Y155301D01*
X320851Y155762D01*
X320000Y155990D01*
D02*
G37*
G36*
X319000D02*
X318149Y155762D01*
X317351Y155301D01*
X316699Y154649D01*
X316238Y153851D01*
X316010Y153000D01*
X319000D01*
Y155990D01*
D02*
G37*
G36*
X346500Y155490D02*
Y152500D01*
X349489D01*
X349261Y153351D01*
X348801Y154149D01*
X348149Y154801D01*
X347351Y155262D01*
X346500Y155490D01*
D02*
G37*
G36*
X345500D02*
X344649Y155262D01*
X343851Y154801D01*
X343199Y154149D01*
X342739Y153351D01*
X342511Y152500D01*
X345500D01*
Y155490D01*
D02*
G37*
G36*
X322990Y152000D02*
X320000D01*
Y149011D01*
X320851Y149239D01*
X321649Y149699D01*
X322301Y150351D01*
X322762Y151149D01*
X322990Y152000D01*
D02*
G37*
G36*
X319000D02*
X316010D01*
X316238Y151149D01*
X316699Y150351D01*
X317351Y149699D01*
X318149Y149239D01*
X319000Y149011D01*
Y152000D01*
D02*
G37*
G36*
X349489Y151500D02*
X346500D01*
Y148511D01*
X347351Y148739D01*
X348149Y149199D01*
X348801Y149851D01*
X349261Y150649D01*
X349489Y151500D01*
D02*
G37*
G36*
X345500D02*
X342511D01*
X342739Y150649D01*
X343199Y149851D01*
X343851Y149199D01*
X344649Y148739D01*
X345500Y148511D01*
Y151500D01*
D02*
G37*
G36*
X353107Y133490D02*
Y130500D01*
X356096D01*
X355868Y131351D01*
X355407Y132149D01*
X354756Y132801D01*
X353958Y133262D01*
X353107Y133490D01*
D02*
G37*
G36*
X352107D02*
X351256Y133262D01*
X350458Y132801D01*
X349806Y132149D01*
X349345Y131351D01*
X349117Y130500D01*
X352107D01*
Y133490D01*
D02*
G37*
G36*
X339500D02*
Y130500D01*
X342490D01*
X342262Y131351D01*
X341801Y132149D01*
X341149Y132801D01*
X340351Y133262D01*
X339500Y133490D01*
D02*
G37*
G36*
X338500D02*
X337649Y133262D01*
X336851Y132801D01*
X336199Y132149D01*
X335738Y131351D01*
X335510Y130500D01*
X338500D01*
Y133490D01*
D02*
G37*
G36*
X315000D02*
Y130500D01*
X317989D01*
X317761Y131351D01*
X317301Y132149D01*
X316649Y132801D01*
X315851Y133262D01*
X315000Y133490D01*
D02*
G37*
G36*
X314000D02*
X313149Y133262D01*
X312351Y132801D01*
X311699Y132149D01*
X311239Y131351D01*
X311011Y130500D01*
X314000D01*
Y133490D01*
D02*
G37*
G36*
X327500Y132990D02*
Y130000D01*
X330489D01*
X330261Y130851D01*
X329801Y131649D01*
X329149Y132301D01*
X328351Y132762D01*
X327500Y132990D01*
D02*
G37*
G36*
X356096Y129500D02*
X353107D01*
Y126511D01*
X353958Y126739D01*
X354756Y127199D01*
X355407Y127851D01*
X355868Y128649D01*
X356096Y129500D01*
D02*
G37*
G36*
X352107D02*
X349117D01*
X349345Y128649D01*
X349806Y127851D01*
X350458Y127199D01*
X351256Y126739D01*
X352107Y126511D01*
Y129500D01*
D02*
G37*
G36*
X342490D02*
X339500D01*
Y126511D01*
X340351Y126739D01*
X341149Y127199D01*
X341801Y127851D01*
X342262Y128649D01*
X342490Y129500D01*
D02*
G37*
G36*
X338500D02*
X335510D01*
X335738Y128649D01*
X336199Y127851D01*
X336851Y127199D01*
X337649Y126739D01*
X338500Y126511D01*
Y129500D01*
D02*
G37*
G36*
X317989D02*
X315000D01*
Y126511D01*
X315851Y126739D01*
X316649Y127199D01*
X317301Y127851D01*
X317761Y128649D01*
X317989Y129500D01*
D02*
G37*
G36*
X314000D02*
X311011D01*
X311239Y128649D01*
X311699Y127851D01*
X312351Y127199D01*
X313149Y126739D01*
X314000Y126511D01*
Y129500D01*
D02*
G37*
G36*
X330489Y129000D02*
X327500D01*
Y126011D01*
X328351Y126239D01*
X329149Y126699D01*
X329801Y127351D01*
X330261Y128149D01*
X330489Y129000D01*
D02*
G37*
G36*
X326500D02*
X323511D01*
X323739Y128149D01*
X324199Y127351D01*
X324851Y126699D01*
X325649Y126239D01*
X326500Y126011D01*
Y129000D01*
D02*
G37*
G36*
X353107Y117532D02*
Y114542D01*
X356096D01*
X355868Y115393D01*
X355407Y116192D01*
X354756Y116843D01*
X353958Y117304D01*
X353107Y117532D01*
D02*
G37*
G36*
X352107D02*
X351256Y117304D01*
X350458Y116843D01*
X349806Y116192D01*
X349345Y115393D01*
X349117Y114542D01*
X352107D01*
Y117532D01*
D02*
G37*
G36*
X356096Y113542D02*
X353107D01*
Y110553D01*
X353958Y110781D01*
X354756Y111242D01*
X355407Y111893D01*
X355868Y112692D01*
X356096Y113542D01*
D02*
G37*
G36*
X352107D02*
X349117D01*
X349345Y112692D01*
X349806Y111893D01*
X350458Y111242D01*
X351256Y110781D01*
X352107Y110553D01*
Y113542D01*
D02*
G37*
G36*
X332592Y117500D02*
X331408D01*
X330263Y117193D01*
X329237Y116601D01*
X328399Y115763D01*
X327807Y114737D01*
X327500Y113592D01*
Y112408D01*
X327807Y111263D01*
X328399Y110237D01*
X329237Y109399D01*
X330263Y108807D01*
X331408Y108500D01*
X332592D01*
X333737Y108807D01*
X334763Y109399D01*
X335601Y110237D01*
X336193Y111263D01*
X336500Y112408D01*
Y113592D01*
X336193Y114737D01*
X335601Y115763D01*
X334763Y116601D01*
X333737Y117193D01*
X332592Y117500D01*
D02*
G37*
G36*
X322592D02*
X321408D01*
X320263Y117193D01*
X319237Y116601D01*
X318399Y115763D01*
X317807Y114737D01*
X317500Y113592D01*
Y112408D01*
X317807Y111263D01*
X318399Y110237D01*
X319237Y109399D01*
X320263Y108807D01*
X321408Y108500D01*
X322592D01*
X323737Y108807D01*
X324763Y109399D01*
X325601Y110237D01*
X326193Y111263D01*
X326500Y112408D01*
Y113592D01*
X326193Y114737D01*
X325601Y115763D01*
X324763Y116601D01*
X323737Y117193D01*
X322592Y117500D01*
D02*
G37*
G36*
X353107Y104490D02*
Y101500D01*
X356096D01*
X355868Y102351D01*
X355407Y103149D01*
X354756Y103801D01*
X353958Y104262D01*
X353107Y104490D01*
D02*
G37*
G36*
X352107D02*
X351256Y104262D01*
X350458Y103801D01*
X349806Y103149D01*
X349345Y102351D01*
X349117Y101500D01*
X352107D01*
Y104490D01*
D02*
G37*
G36*
X336500Y102489D02*
Y99500D01*
X339490D01*
X339262Y100351D01*
X338801Y101149D01*
X338149Y101801D01*
X337351Y102261D01*
X336500Y102489D01*
D02*
G37*
G36*
X335500D02*
X334649Y102261D01*
X333851Y101801D01*
X333199Y101149D01*
X332738Y100351D01*
X332510Y99500D01*
X335500D01*
Y102489D01*
D02*
G37*
G36*
X319500D02*
Y99500D01*
X322490D01*
X322262Y100351D01*
X321801Y101149D01*
X321149Y101801D01*
X320351Y102261D01*
X319500Y102489D01*
D02*
G37*
G36*
X318500D02*
X317649Y102261D01*
X316851Y101801D01*
X316199Y101149D01*
X315739Y100351D01*
X315511Y99500D01*
X318500D01*
Y102489D01*
D02*
G37*
G36*
X356096Y100500D02*
X353107D01*
Y97510D01*
X353958Y97738D01*
X354756Y98199D01*
X355407Y98851D01*
X355868Y99649D01*
X356096Y100500D01*
D02*
G37*
G36*
X352107D02*
X349117D01*
X349345Y99649D01*
X349806Y98851D01*
X350458Y98199D01*
X351256Y97738D01*
X352107Y97510D01*
Y100500D01*
D02*
G37*
G36*
X339490Y98500D02*
X336500D01*
Y95511D01*
X337351Y95739D01*
X338149Y96199D01*
X338801Y96851D01*
X339262Y97649D01*
X339490Y98500D01*
D02*
G37*
G36*
X335500D02*
X332510D01*
X332738Y97649D01*
X333199Y96851D01*
X333851Y96199D01*
X334649Y95739D01*
X335500Y95511D01*
Y98500D01*
D02*
G37*
G36*
X322490D02*
X319500D01*
Y95511D01*
X320351Y95739D01*
X321149Y96199D01*
X321801Y96851D01*
X322262Y97649D01*
X322490Y98500D01*
D02*
G37*
G36*
X318500D02*
X315511D01*
X315739Y97649D01*
X316199Y96851D01*
X316851Y96199D01*
X317649Y95739D01*
X318500Y95511D01*
Y98500D01*
D02*
G37*
G36*
X353107Y86989D02*
Y84000D01*
X356096D01*
X355868Y84851D01*
X355407Y85649D01*
X354756Y86301D01*
X353958Y86761D01*
X353107Y86989D01*
D02*
G37*
G36*
X352107D02*
X351256Y86761D01*
X350458Y86301D01*
X349806Y85649D01*
X349345Y84851D01*
X349117Y84000D01*
X352107D01*
Y86989D01*
D02*
G37*
G36*
X332527Y87000D02*
X332500D01*
Y83500D01*
X336000D01*
Y83527D01*
X335727Y84544D01*
X335201Y85456D01*
X334456Y86201D01*
X333544Y86727D01*
X332527Y87000D01*
D02*
G37*
G36*
X322527D02*
X322500D01*
Y83500D01*
X326000D01*
Y83527D01*
X325727Y84544D01*
X325201Y85456D01*
X324456Y86201D01*
X323544Y86727D01*
X322527Y87000D01*
D02*
G37*
G36*
X331500D02*
X331473D01*
X330456Y86727D01*
X329544Y86201D01*
X328799Y85456D01*
X328273Y84544D01*
X328000Y83527D01*
Y83500D01*
X331500D01*
Y87000D01*
D02*
G37*
G36*
X321500D02*
X321473D01*
X320456Y86727D01*
X319544Y86201D01*
X318799Y85456D01*
X318273Y84544D01*
X318000Y83527D01*
Y83500D01*
X321500D01*
Y87000D01*
D02*
G37*
G36*
X356096Y83000D02*
X353107D01*
Y80010D01*
X353958Y80238D01*
X354756Y80699D01*
X355407Y81351D01*
X355868Y82149D01*
X356096Y83000D01*
D02*
G37*
G36*
X352107D02*
X349117D01*
X349345Y82149D01*
X349806Y81351D01*
X350458Y80699D01*
X351256Y80238D01*
X352107Y80010D01*
Y83000D01*
D02*
G37*
G36*
X336000Y82500D02*
X332500D01*
Y79000D01*
X332527D01*
X333544Y79273D01*
X334456Y79799D01*
X335201Y80544D01*
X335727Y81456D01*
X336000Y82473D01*
Y82500D01*
D02*
G37*
G36*
X331500D02*
X328000D01*
Y82473D01*
X328273Y81456D01*
X328799Y80544D01*
X329544Y79799D01*
X330456Y79273D01*
X331473Y79000D01*
X331500D01*
Y82500D01*
D02*
G37*
G36*
X326000D02*
X322500D01*
Y79000D01*
X322527D01*
X323544Y79273D01*
X324456Y79799D01*
X325201Y80544D01*
X325727Y81456D01*
X326000Y82473D01*
Y82500D01*
D02*
G37*
G36*
X321500D02*
X318000D01*
Y82473D01*
X318273Y81456D01*
X318799Y80544D01*
X319544Y79799D01*
X320456Y79273D01*
X321473Y79000D01*
X321500D01*
Y82500D01*
D02*
G37*
G36*
X353107Y69990D02*
Y67000D01*
X356096D01*
X355868Y67851D01*
X355407Y68649D01*
X354756Y69301D01*
X353958Y69762D01*
X353107Y69990D01*
D02*
G37*
G36*
X352107D02*
X351256Y69762D01*
X350458Y69301D01*
X349806Y68649D01*
X349345Y67851D01*
X349117Y67000D01*
X352107D01*
Y69990D01*
D02*
G37*
G36*
X356096Y66000D02*
X353107D01*
Y63011D01*
X353958Y63239D01*
X354756Y63699D01*
X355407Y64351D01*
X355868Y65149D01*
X356096Y66000D01*
D02*
G37*
G36*
X352107D02*
X349117D01*
X349345Y65149D01*
X349806Y64351D01*
X350458Y63699D01*
X351256Y63239D01*
X352107Y63011D01*
Y66000D01*
D02*
G37*
G36*
X353000Y48989D02*
Y46000D01*
X355990D01*
X355762Y46851D01*
X355301Y47649D01*
X354649Y48301D01*
X353851Y48761D01*
X353000Y48989D01*
D02*
G37*
G36*
X352000D02*
X351149Y48761D01*
X350351Y48301D01*
X349699Y47649D01*
X349238Y46851D01*
X349010Y46000D01*
X352000D01*
Y48989D01*
D02*
G37*
G36*
X281000Y47490D02*
Y44500D01*
X283990D01*
X283762Y45351D01*
X283301Y46149D01*
X282649Y46801D01*
X281851Y47262D01*
X281000Y47490D01*
D02*
G37*
G36*
X280000D02*
X279149Y47262D01*
X278351Y46801D01*
X277699Y46149D01*
X277238Y45351D01*
X277010Y44500D01*
X280000D01*
Y47490D01*
D02*
G37*
G36*
X265000D02*
Y44500D01*
X267989D01*
X267761Y45351D01*
X267301Y46149D01*
X266649Y46801D01*
X265851Y47262D01*
X265000Y47490D01*
D02*
G37*
G36*
X264000D02*
X263149Y47262D01*
X262351Y46801D01*
X261699Y46149D01*
X261239Y45351D01*
X261011Y44500D01*
X264000D01*
Y47490D01*
D02*
G37*
G36*
X355990Y45000D02*
X353000D01*
Y42011D01*
X353851Y42239D01*
X354649Y42699D01*
X355301Y43351D01*
X355762Y44149D01*
X355990Y45000D01*
D02*
G37*
G36*
X352000D02*
X349010D01*
X349238Y44149D01*
X349699Y43351D01*
X350351Y42699D01*
X351149Y42239D01*
X352000Y42011D01*
Y45000D01*
D02*
G37*
G36*
X283990Y43500D02*
X281000D01*
Y40510D01*
X281851Y40738D01*
X282649Y41199D01*
X283301Y41851D01*
X283762Y42649D01*
X283990Y43500D01*
D02*
G37*
G36*
X280000D02*
X277010D01*
X277238Y42649D01*
X277699Y41851D01*
X278351Y41199D01*
X279149Y40738D01*
X280000Y40510D01*
Y43500D01*
D02*
G37*
G36*
X267989D02*
X265000D01*
Y40510D01*
X265851Y40738D01*
X266649Y41199D01*
X267301Y41851D01*
X267761Y42649D01*
X267989Y43500D01*
D02*
G37*
G36*
X264000D02*
X261011D01*
X261239Y42649D01*
X261699Y41851D01*
X262351Y41199D01*
X263149Y40738D01*
X264000Y40510D01*
Y43500D01*
D02*
G37*
G36*
X293500Y23500D02*
X289000D01*
Y23342D01*
X289341Y22070D01*
X289999Y20930D01*
X290930Y19999D01*
X292070Y19341D01*
X293342Y19000D01*
X293500D01*
Y23500D01*
D02*
G37*
G36*
X354500Y33500D02*
X339000D01*
Y18000D01*
X354500D01*
Y33500D01*
D02*
G37*
G36*
X33500D02*
X18000D01*
Y18000D01*
X33500D01*
Y33500D01*
D02*
G37*
G36*
X198500Y20490D02*
Y17500D01*
X201489D01*
X201261Y18351D01*
X200801Y19149D01*
X200149Y19801D01*
X199351Y20261D01*
X198500Y20490D01*
D02*
G37*
G36*
X197500D02*
X196649Y20261D01*
X195851Y19801D01*
X195199Y19149D01*
X194738Y18351D01*
X194510Y17500D01*
X197500D01*
Y20490D01*
D02*
G37*
G36*
X255476Y19335D02*
Y16346D01*
X258465D01*
X258237Y17197D01*
X257776Y17995D01*
X257125Y18646D01*
X256327Y19107D01*
X255476Y19335D01*
D02*
G37*
G36*
X254476D02*
X253625Y19107D01*
X252827Y18646D01*
X252175Y17995D01*
X251714Y17197D01*
X251486Y16346D01*
X254476D01*
Y19335D01*
D02*
G37*
G36*
X201489Y16500D02*
X198500D01*
Y13510D01*
X199351Y13738D01*
X200149Y14199D01*
X200801Y14851D01*
X201261Y15649D01*
X201489Y16500D01*
D02*
G37*
G36*
X197500D02*
X194510D01*
X194738Y15649D01*
X195199Y14851D01*
X195851Y14199D01*
X196649Y13738D01*
X197500Y13510D01*
Y16500D01*
D02*
G37*
G36*
X258465Y15346D02*
X255476D01*
Y12356D01*
X256327Y12584D01*
X257125Y13045D01*
X257776Y13697D01*
X258237Y14495D01*
X258465Y15346D01*
D02*
G37*
G36*
X254476D02*
X251486D01*
X251714Y14495D01*
X252175Y13697D01*
X252827Y13045D01*
X253625Y12584D01*
X254476Y12356D01*
Y15346D01*
D02*
G37*
%LPD*%
G36*
X319327Y235961D02*
X318456Y235727D01*
X317544Y235201D01*
X316799Y234456D01*
X316273Y233544D01*
X316000Y232527D01*
Y231473D01*
X316273Y230456D01*
X316799Y229544D01*
X317544Y228799D01*
X318456Y228273D01*
X319473Y228000D01*
X320527D01*
X321544Y228273D01*
X322456Y228799D01*
X323201Y229544D01*
X323442Y229961D01*
X356461D01*
Y211539D01*
X345148D01*
X345125Y211623D01*
X344401Y212877D01*
X343377Y213901D01*
X342773Y214250D01*
Y214750D01*
X343377Y215099D01*
X344401Y216123D01*
X345125Y217377D01*
X345500Y218776D01*
Y220224D01*
X345125Y221623D01*
X344401Y222877D01*
X343377Y223901D01*
X342123Y224625D01*
X340724Y225000D01*
X339276D01*
X337877Y224625D01*
X336623Y223901D01*
X336000Y223278D01*
X335500Y223485D01*
Y225000D01*
X324500D01*
Y222049D01*
X311836D01*
X310860Y221855D01*
X310033Y221302D01*
X307280Y218549D01*
X291549D01*
Y225796D01*
X291982Y226046D01*
X292456Y225773D01*
X293473Y225500D01*
X294527D01*
X295544Y225773D01*
X296456Y226299D01*
X296931Y226774D01*
X297299Y226456D01*
X296773Y225544D01*
X296500Y224527D01*
Y223473D01*
X296773Y222456D01*
X297299Y221544D01*
X298044Y220799D01*
X298956Y220273D01*
X299973Y220000D01*
X301027D01*
X302044Y220273D01*
X302956Y220799D01*
X303701Y221544D01*
X304227Y222456D01*
X304500Y223473D01*
Y224527D01*
X304227Y225544D01*
X304165Y225652D01*
X304531Y226018D01*
X304956Y225773D01*
X305973Y225500D01*
X307027D01*
X308044Y225773D01*
X308956Y226299D01*
X309701Y227044D01*
X310227Y227956D01*
X310500Y228973D01*
Y230027D01*
X310227Y231044D01*
X309701Y231956D01*
X308956Y232701D01*
X308539Y232942D01*
Y235597D01*
X309039Y235804D01*
X309544Y235299D01*
X310456Y234773D01*
X311473Y234500D01*
X312527D01*
X313544Y234773D01*
X314456Y235299D01*
X315201Y236044D01*
X315441Y236461D01*
X319261D01*
X319327Y235961D01*
D02*
G37*
G36*
X358461Y234325D02*
X358074Y234007D01*
X357914Y234039D01*
X323442D01*
X323201Y234456D01*
X322456Y235201D01*
X321544Y235727D01*
X320673Y235961D01*
X320739Y236461D01*
X358461D01*
Y234325D01*
D02*
G37*
G36*
Y207175D02*
Y202930D01*
X357069Y201539D01*
X345148D01*
X345125Y201623D01*
X344401Y202877D01*
X343377Y203901D01*
X342773Y204250D01*
Y204750D01*
X343377Y205099D01*
X344401Y206123D01*
X345125Y207377D01*
X345148Y207461D01*
X357914D01*
X358074Y207493D01*
X358461Y207175D01*
D02*
G37*
D11*
X294000Y229500D02*
Y241050D01*
X305000Y252050D01*
X306500Y140000D02*
X317500D01*
X321660Y135840D02*
X322041D01*
X317500Y140000D02*
X321660Y135840D01*
X254000Y192500D02*
X306500Y140000D01*
X212086Y192500D02*
X254000D01*
X211500Y193086D02*
X212086Y192500D01*
X211500Y193086D02*
Y265500D01*
X230750Y207250D02*
Y286250D01*
Y207250D02*
X231000Y207000D01*
X230500Y286500D02*
X230750Y286250D01*
X300500Y224000D02*
Y243000D01*
X311000Y253500D01*
X306500Y229500D02*
Y243000D01*
X322584Y259084D01*
Y264000D01*
X211500Y265500D02*
X215000Y269000D01*
Y306414D01*
X209000Y312914D02*
X211086Y315000D01*
X252000D01*
X235502Y300500D02*
X248500D01*
X253000Y296000D01*
X295500Y252541D02*
X295526Y252568D01*
Y265526D02*
X295553Y265553D01*
X295526Y252568D02*
Y265526D01*
X305000Y252050D02*
Y265000D01*
X340000Y199500D02*
X357914D01*
X312000Y238500D02*
X359914D01*
X320000Y232000D02*
X357914D01*
Y199500D02*
X360500Y202086D01*
X359914Y238500D02*
X360500Y237914D01*
X357914Y232000D02*
X358500Y231414D01*
X360500Y202086D02*
Y237914D01*
X311000Y253500D02*
Y300500D01*
X340000Y209500D02*
X357914D01*
X233002Y307000D02*
X234002Y306000D01*
X252500D01*
X215586Y307000D02*
X233002D01*
X235502Y300500D02*
X235502Y300500D01*
X221586Y300500D02*
X235502D01*
X221000Y299914D02*
X221586Y300500D01*
X221000Y238500D02*
Y299914D01*
X358500Y210086D02*
Y231414D01*
X357914Y209500D02*
X358500Y210086D01*
X209000Y179500D02*
Y312914D01*
X215000Y306414D02*
X215586Y307000D01*
D39*
X286500Y322100D02*
D03*
X301100Y307700D02*
D03*
X293800D02*
D03*
X286500D02*
D03*
X301100Y314900D02*
D03*
X293800D02*
D03*
X286500D02*
D03*
X301100Y322100D02*
D03*
X293800D02*
D03*
D42*
X355000Y17500D02*
D03*
X17500D02*
D03*
Y337500D02*
D03*
D43*
X355000D02*
D03*
D44*
X330000Y219500D02*
D03*
D45*
X280000Y205283D02*
D03*
X199291D02*
D03*
X261300Y73000D02*
D03*
X248504Y224575D02*
D03*
X280000Y73000D02*
D03*
Y224575D02*
D03*
X294000Y24000D02*
D03*
Y34000D02*
D03*
X304000Y24000D02*
D03*
Y34000D02*
D03*
X314000Y24000D02*
D03*
X340000Y219500D02*
D03*
X330000Y209500D02*
D03*
X340000D02*
D03*
X330000Y199500D02*
D03*
X340000D02*
D03*
X330000Y189500D02*
D03*
X340000D02*
D03*
X330000Y179500D02*
D03*
X340000D02*
D03*
D46*
X332000Y113000D02*
D03*
X322000D02*
D03*
Y83000D02*
D03*
X332000D02*
D03*
D66*
X290172Y216000D02*
X308336D01*
X311836Y219500D02*
X330000D01*
X308336Y216000D02*
X311836Y219500D01*
X287828Y236500D02*
X289000Y235328D01*
X279000Y236500D02*
X287828D01*
X289000Y217172D02*
Y235328D01*
Y217172D02*
X290172Y216000D01*
X257000Y258500D02*
X279000Y236500D01*
X238000Y258500D02*
X257000D01*
X238000Y217000D02*
Y258500D01*
X293800Y314900D02*
Y322100D01*
Y307700D02*
Y314900D01*
X301100D01*
X286500D02*
X293800D01*
D67*
X198770Y204762D02*
X199291Y205283D01*
X123500Y204240D02*
X124022Y204762D01*
X198770D01*
X314000Y24500D02*
X323571D01*
X255000Y184500D02*
X305571Y133929D01*
X255000Y184500D02*
X255000D01*
X305571Y63929D02*
Y133929D01*
X280000Y205283D02*
Y224575D01*
X305571Y63929D02*
X308500Y61000D01*
X323571D02*
X326500Y58071D01*
Y27429D02*
Y58071D01*
X323571Y24500D02*
X326500Y27429D01*
X308500Y61000D02*
X323571D01*
D89*
X14000Y307750D02*
D03*
D90*
X124000Y245500D02*
D03*
X75970D02*
D03*
X124000Y292740D02*
D03*
X75970D02*
D03*
X131990Y269120D02*
D03*
X131490Y180620D02*
D03*
X75470Y204240D02*
D03*
X123500D02*
D03*
X75470Y157000D02*
D03*
X123500D02*
D03*
X136000Y130790D02*
D03*
Y42210D02*
D03*
X20600Y302500D02*
D03*
Y282500D02*
D03*
Y262500D02*
D03*
Y242500D02*
D03*
X21000Y187000D02*
D03*
Y167000D02*
D03*
D91*
X98000Y20000D02*
D03*
D92*
X83000D02*
D03*
X68000D02*
D03*
D93*
X237677Y73000D02*
D03*
X314000Y34000D02*
D03*
D94*
X20600Y222500D02*
D03*
X21000Y147000D02*
D03*
D95*
X21300Y52200D02*
D03*
D96*
X21000Y112000D02*
D03*
Y72000D02*
D03*
Y92000D02*
D03*
D97*
X294000Y229500D02*
D03*
X322041Y135840D02*
D03*
X118000Y269000D02*
D03*
X71500D02*
D03*
X56000D02*
D03*
X58000Y180500D02*
D03*
Y167500D02*
D03*
X119500Y180625D02*
D03*
X56000Y204000D02*
D03*
X90500D02*
D03*
Y223500D02*
D03*
Y245500D02*
D03*
X104125Y180625D02*
D03*
X88750D02*
D03*
X73375D02*
D03*
X40500Y187875D02*
D03*
Y204000D02*
D03*
X77035Y143000D02*
D03*
X56518D02*
D03*
X36000D02*
D03*
X54000Y105000D02*
D03*
X43500Y67000D02*
D03*
Y80625D02*
D03*
X55500Y69000D02*
D03*
X45000Y54875D02*
D03*
X34000Y70500D02*
D03*
Y54375D02*
D03*
X53500Y116000D02*
D03*
X45000D02*
D03*
Y99875D02*
D03*
X36500Y116000D02*
D03*
Y99875D02*
D03*
X76535Y223500D02*
D03*
X35500D02*
D03*
X56018D02*
D03*
X37000Y242500D02*
D03*
X38500Y292000D02*
D03*
Y275875D02*
D03*
X87000Y269000D02*
D03*
X56000Y255750D02*
D03*
Y242500D02*
D03*
X102500Y269000D02*
D03*
X121500Y229500D02*
D03*
X352607Y114042D02*
D03*
X314500Y130000D02*
D03*
X231000Y207000D02*
D03*
X300500Y224000D02*
D03*
X198000Y17000D02*
D03*
X264500Y44000D02*
D03*
X280500D02*
D03*
X306500Y229500D02*
D03*
X149000Y221500D02*
D03*
X200214Y189586D02*
D03*
X221000Y199000D02*
D03*
X262967Y214869D02*
D03*
X203500Y308500D02*
D03*
X214500Y324000D02*
D03*
X135500Y104000D02*
D03*
X270000Y103000D02*
D03*
X244000Y103500D02*
D03*
X213000Y104500D02*
D03*
X177500Y104000D02*
D03*
X129000Y21500D02*
D03*
X157000Y20500D02*
D03*
X170500Y47000D02*
D03*
X178000Y74000D02*
D03*
X213000Y74500D02*
D03*
X221000Y222500D02*
D03*
X327000Y129500D02*
D03*
X319000Y99000D02*
D03*
X336000D02*
D03*
X352500Y45500D02*
D03*
X254976Y15846D02*
D03*
X352607Y66500D02*
D03*
X252000Y315000D02*
D03*
X253000Y296000D02*
D03*
X295553Y265553D02*
D03*
X295500Y252541D02*
D03*
X320000Y232000D02*
D03*
X312000Y238500D02*
D03*
X252500Y306000D02*
D03*
X192000Y156500D02*
D03*
X319500Y152500D02*
D03*
X346000Y152000D02*
D03*
X339000Y130000D02*
D03*
X352607Y101000D02*
D03*
Y83500D02*
D03*
X305000Y265000D02*
D03*
X186000Y186000D02*
D03*
X217670Y168633D02*
D03*
X233335D02*
D03*
X249000D02*
D03*
X239000Y181000D02*
D03*
X208750Y156500D02*
D03*
X225500D02*
D03*
X242250D02*
D03*
X259000D02*
D03*
X255000Y184500D02*
D03*
X322584Y264000D02*
D03*
X350000Y276000D02*
D03*
Y261250D02*
D03*
Y246500D02*
D03*
X348500Y298500D02*
D03*
X318000Y331000D02*
D03*
X215000Y269000D02*
D03*
X221000Y238500D02*
D03*
X209000Y179500D02*
D03*
X202005Y168633D02*
D03*
X222712Y181321D02*
D03*
X216000Y336000D02*
D03*
X311000Y300500D02*
D03*
X318500Y311500D02*
D03*
X169000Y184500D02*
D03*
X352607Y130000D02*
D03*
X230500Y286500D02*
D03*
X200000Y270500D02*
D03*
X200103Y258387D02*
D03*
X267000Y267000D02*
D03*
X263500Y231500D02*
D03*
X238000Y258500D02*
D03*
Y217000D02*
D03*
X154500Y239500D02*
D03*
X166000D02*
D03*
X168000Y262500D02*
D03*
X146000Y319500D02*
D03*
X71000Y334000D02*
D03*
X92500D02*
D03*
X169000Y340500D02*
D03*
X146000D02*
D03*
X279329Y288375D02*
D03*
X294648Y289056D02*
D03*
X279500Y340000D02*
D03*
X308945Y339436D02*
D03*
X49500Y334000D02*
D03*
X295000Y340000D02*
D03*
D98*
X106500Y46000D02*
D03*
D99*
X66250Y25250D02*
D03*
D100*
X135250Y19250D02*
D03*
D101*
X83000Y17000D02*
D03*
D102*
X270000Y99250D02*
D03*
D103*
X135750Y56250D02*
D03*
D104*
X170000Y46000D02*
D03*
D105*
X203000Y76000D02*
D03*
D106*
X199500Y115500D02*
D03*
M02*
