G04*
G04 #@! TF.GenerationSoftware,Altium Limited,Altium Designer,21.0.8 (223)*
G04*
G04 Layer_Color=16711935*
%FSLAX25Y25*%
%MOIN*%
G70*
G04*
G04 #@! TF.SameCoordinates,790BC176-E466-43CB-AF78-98272D84D4DC*
G04*
G04*
G04 #@! TF.FilePolarity,Negative*
G04*
G01*
G75*
%ADD34O,0.35000X0.02000*%
%ADD35O,1.20000X0.02000*%
%ADD36O,0.02000X0.30000*%
%ADD37O,0.02000X0.20000*%
%ADD38O,0.02000X0.35000*%
%ADD39O,0.02000X0.90000*%
%ADD40O,0.41000X0.02000*%
%ADD41C,0.05512*%
%ADD42R,0.06000X0.20000*%
%ADD43C,0.05100*%
%ADD44R,0.06000X0.20000*%
%ADD45R,0.20000X0.06000*%
%ADD46C,0.01000*%
%ADD47R,0.31500X0.31500*%
%ADD48C,0.04000*%
%ADD49C,0.06000*%
%ADD50C,0.04700*%
%ADD51C,0.02800*%
%ADD52C,0.05000*%
D34*
X127000Y192000D02*
D03*
X130000Y165500D02*
D03*
D35*
X186000Y136000D02*
D03*
D36*
X122000Y120000D02*
D03*
D37*
X145500Y179500D02*
D03*
D38*
X110500Y146500D02*
D03*
X91500Y289500D02*
D03*
X146500Y266000D02*
D03*
D39*
X62500Y89000D02*
D03*
D40*
X119000Y282500D02*
D03*
X112500Y251000D02*
D03*
Y227000D02*
D03*
D41*
X20500Y93500D02*
D03*
Y73500D02*
D03*
Y113500D02*
D03*
X20800Y53700D02*
D03*
X19600Y242500D02*
D03*
Y262500D02*
D03*
Y282500D02*
D03*
Y302500D02*
D03*
Y322500D02*
D03*
X20000Y198500D02*
D03*
Y178500D02*
D03*
Y158500D02*
D03*
D42*
X298500Y40800D02*
D03*
X308500D02*
D03*
X318500D02*
D03*
X298500Y17200D02*
D03*
X308500D02*
D03*
X318500D02*
D03*
D43*
X124500Y242500D02*
D03*
X76470D02*
D03*
X124500Y289740D02*
D03*
X76470D02*
D03*
X132490Y266120D02*
D03*
X124000Y154000D02*
D03*
X75970D02*
D03*
X124000Y201240D02*
D03*
X75970D02*
D03*
X131990Y177620D02*
D03*
D44*
X355000Y107000D02*
D03*
X345000D02*
D03*
Y69000D02*
D03*
X355000D02*
D03*
D45*
X323700Y196500D02*
D03*
Y206500D02*
D03*
Y216500D02*
D03*
Y186500D02*
D03*
Y176500D02*
D03*
X347300D02*
D03*
Y186500D02*
D03*
Y196500D02*
D03*
Y206500D02*
D03*
Y216500D02*
D03*
D46*
X301100Y323300D02*
D03*
X293600D02*
D03*
X286500Y323200D02*
D03*
X301100Y330400D02*
D03*
X293600D02*
D03*
X286500D02*
D03*
X301100Y337700D02*
D03*
X293600Y337600D02*
D03*
X286500D02*
D03*
D47*
X360000Y369000D02*
D03*
Y20000D02*
D03*
X20000Y19600D02*
D03*
Y369000D02*
D03*
D48*
X237677Y70000D02*
D03*
X248504Y221575D02*
D03*
X280000Y70000D02*
D03*
Y221575D02*
D03*
D49*
X146500Y30710D02*
D03*
Y119290D02*
D03*
D50*
X98500Y20500D02*
D03*
X83500D02*
D03*
X68500D02*
D03*
D51*
X36000Y120800D02*
D03*
Y114100D02*
D03*
Y99600D02*
D03*
Y92900D02*
D03*
Y106800D02*
D03*
Y128000D02*
D03*
X36500Y69800D02*
D03*
Y62500D02*
D03*
Y55300D02*
D03*
Y76500D02*
D03*
Y48600D02*
D03*
X229000Y157500D02*
D03*
X230207Y293193D02*
D03*
X34500Y176500D02*
D03*
X46500Y228500D02*
D03*
X36000Y261500D02*
D03*
X331000Y56500D02*
D03*
Y89000D02*
D03*
Y121500D02*
D03*
X303514Y231300D02*
D03*
X49300Y281500D02*
D03*
X62200Y281400D02*
D03*
X214100Y43600D02*
D03*
X371500Y57000D02*
D03*
Y116000D02*
D03*
Y83500D02*
D03*
X238900Y144500D02*
D03*
X265700Y145500D02*
D03*
X265500Y165900D02*
D03*
X265100Y184600D02*
D03*
Y203500D02*
D03*
X238600Y184400D02*
D03*
X238700Y203300D02*
D03*
X203500Y165900D02*
D03*
Y184800D02*
D03*
X203300Y203900D02*
D03*
X348900Y307100D02*
D03*
X370800Y298100D02*
D03*
X368100Y326000D02*
D03*
X368800Y342700D02*
D03*
X351300Y327300D02*
D03*
X350700Y342200D02*
D03*
X349500Y285600D02*
D03*
X354200Y243800D02*
D03*
X343100Y243500D02*
D03*
X330700D02*
D03*
X273800Y244500D02*
D03*
X270200Y258000D02*
D03*
X232500Y280800D02*
D03*
X247300Y382000D02*
D03*
X235300Y374700D02*
D03*
X222700Y380900D02*
D03*
X196000Y376700D02*
D03*
X201600Y362400D02*
D03*
X190500Y363100D02*
D03*
X195900Y305700D02*
D03*
X237400Y300400D02*
D03*
X197400Y290100D02*
D03*
X198300Y266400D02*
D03*
X203200Y244100D02*
D03*
X222300Y246500D02*
D03*
X222200Y269100D02*
D03*
X36000Y281600D02*
D03*
X112600Y270300D02*
D03*
X98800Y261400D02*
D03*
X77200Y261700D02*
D03*
X57300D02*
D03*
X62800Y233900D02*
D03*
X33500Y234600D02*
D03*
X92200Y204100D02*
D03*
X52200Y204500D02*
D03*
X35100Y204300D02*
D03*
X90300Y151800D02*
D03*
X57200Y152200D02*
D03*
X37100D02*
D03*
X61300Y177500D02*
D03*
X100900D02*
D03*
X81100D02*
D03*
X222000Y35000D02*
D03*
X332000Y269000D02*
D03*
X57000Y324000D02*
D03*
X186264Y158150D02*
D03*
X237100Y329300D02*
D03*
D52*
X301822Y147322D02*
D03*
X293000Y151500D02*
D03*
X318500Y142500D02*
D03*
X372250Y275250D02*
D03*
X362500Y196500D02*
D03*
X296514Y164000D02*
D03*
X310500D02*
D03*
X309000Y254963D02*
D03*
X279600Y353300D02*
D03*
X210100Y345500D02*
D03*
X320100Y338800D02*
D03*
X316200Y275400D02*
D03*
X307300Y309600D02*
D03*
X310100Y153500D02*
D03*
X302014Y276400D02*
D03*
X297514Y302900D02*
D03*
X215014Y322400D02*
D03*
X214514Y309900D02*
D03*
X361514Y264400D02*
D03*
X264000Y272000D02*
D03*
X240414Y314600D02*
D03*
X292000Y272000D02*
D03*
X249500Y369600D02*
D03*
X312735Y263400D02*
D03*
X214514Y159400D02*
D03*
X178014Y141400D02*
D03*
X286014Y244400D02*
D03*
X332514Y147900D02*
D03*
X196514Y323400D02*
D03*
X228014Y345400D02*
D03*
X172514Y349400D02*
D03*
X160014Y348900D02*
D03*
X187414Y243900D02*
D03*
M02*
