G04*
G04 #@! TF.GenerationSoftware,Altium Limited,Altium Designer,21.0.8 (223)*
G04*
G04 Layer_Color=65535*
%FSLAX25Y25*%
%MOIN*%
G70*
G04*
G04 #@! TF.SameCoordinates,790BC176-E466-43CB-AF78-98272D84D4DC*
G04*
G04*
G04 #@! TF.FilePolarity,Positive*
G04*
G01*
G75*
%ADD10C,0.01000*%
%ADD11C,0.00787*%
%ADD12C,0.00984*%
%ADD13C,0.01190*%
%ADD14C,0.00500*%
%ADD15C,0.00394*%
%ADD16C,0.00300*%
%ADD17C,0.00790*%
%ADD18C,0.00050*%
G36*
X352503Y272294D02*
X353605D01*
Y272209D01*
X354283D01*
Y272124D01*
X354792D01*
Y272040D01*
X355300D01*
Y271955D01*
X355639D01*
Y271870D01*
X355893D01*
Y271785D01*
X356233D01*
Y271701D01*
X356487D01*
Y271616D01*
X356656D01*
Y271531D01*
X356572D01*
Y271446D01*
X356487D01*
Y271361D01*
X356402D01*
Y271277D01*
X356317D01*
Y271192D01*
X356148D01*
Y271277D01*
X355809D01*
Y271361D01*
X355470D01*
Y271446D01*
X355131D01*
Y271531D01*
X354792D01*
Y271616D01*
X354368D01*
Y271701D01*
X353859D01*
Y271785D01*
X353012D01*
Y271870D01*
X350469D01*
Y271785D01*
X349707D01*
Y271701D01*
X349198D01*
Y271616D01*
X348690D01*
Y271531D01*
X348351D01*
Y271446D01*
X348012D01*
Y271361D01*
X347673D01*
Y271277D01*
X347418D01*
Y271192D01*
X347079D01*
Y271107D01*
X346825D01*
Y271023D01*
X346571D01*
Y270938D01*
X346402D01*
Y270853D01*
X346147D01*
Y270768D01*
X345978D01*
Y270684D01*
X345724D01*
Y270599D01*
X345554D01*
Y270514D01*
X345385D01*
Y270429D01*
X345215D01*
Y270344D01*
X345045D01*
Y270260D01*
X344876D01*
Y270175D01*
X344707D01*
Y270090D01*
X344537D01*
Y270005D01*
X344368D01*
Y269921D01*
X344198D01*
Y269836D01*
X344028D01*
Y269751D01*
X343944D01*
Y269667D01*
X343774D01*
Y269582D01*
X343605D01*
Y269497D01*
X343520D01*
Y269412D01*
X343351D01*
Y269327D01*
X343266D01*
Y269243D01*
X343096D01*
Y269158D01*
X343011D01*
Y269073D01*
X342842D01*
Y268988D01*
X342757D01*
Y268904D01*
X342672D01*
Y268819D01*
X342588D01*
Y268734D01*
X342418D01*
Y268650D01*
X342334D01*
Y268565D01*
X342249D01*
Y268480D01*
X342079D01*
Y268395D01*
X341995D01*
Y268310D01*
X341910D01*
Y268226D01*
X341825D01*
Y268141D01*
X341740D01*
Y268056D01*
X341655D01*
Y267971D01*
X341486D01*
Y267887D01*
X341401D01*
Y267802D01*
X341317D01*
Y267717D01*
X341232D01*
Y267633D01*
X341147D01*
Y267548D01*
X341062D01*
Y267463D01*
X340978D01*
Y267378D01*
X340893D01*
Y267294D01*
X340808D01*
Y267209D01*
X340723D01*
Y267124D01*
X340638D01*
Y267039D01*
X340554D01*
Y266954D01*
X340469D01*
Y266870D01*
Y266785D01*
X340384D01*
Y266700D01*
X340300D01*
Y266616D01*
X340215D01*
Y266531D01*
X340130D01*
Y266446D01*
X340045D01*
Y266361D01*
X339961D01*
Y266277D01*
Y266192D01*
X339876D01*
Y266107D01*
X339791D01*
Y266022D01*
X339706D01*
Y265937D01*
X339621D01*
Y265853D01*
Y265768D01*
X339537D01*
Y265683D01*
X339452D01*
Y265599D01*
X339367D01*
Y265514D01*
Y265429D01*
X339282D01*
Y265344D01*
X339198D01*
Y265260D01*
Y265175D01*
X339113D01*
Y265090D01*
X339028D01*
Y265005D01*
Y264920D01*
X338944D01*
Y264836D01*
X338859D01*
Y264751D01*
Y264666D01*
X338774D01*
Y264581D01*
Y264497D01*
X338689D01*
Y264412D01*
X338604D01*
Y264327D01*
Y264243D01*
X338520D01*
Y264158D01*
Y264073D01*
X338435D01*
Y263988D01*
X338350D01*
Y263903D01*
Y263819D01*
X338265D01*
Y263734D01*
Y263649D01*
X338181D01*
Y263564D01*
Y263480D01*
X338096D01*
Y263395D01*
Y263310D01*
X338011D01*
Y263226D01*
Y263141D01*
X337927D01*
Y263056D01*
Y262971D01*
X337842D01*
Y262887D01*
Y262802D01*
Y262717D01*
X337757D01*
Y262632D01*
Y262547D01*
X337672D01*
Y262463D01*
Y262378D01*
Y262293D01*
X337587D01*
Y262209D01*
Y262124D01*
X337503D01*
Y262039D01*
Y261954D01*
Y261870D01*
X337418D01*
Y261785D01*
Y261700D01*
Y261615D01*
X337333D01*
Y261530D01*
Y261446D01*
Y261361D01*
X337248D01*
Y261276D01*
Y261192D01*
Y261107D01*
X337164D01*
Y261022D01*
Y260937D01*
Y260853D01*
Y260768D01*
X337079D01*
Y260683D01*
Y260598D01*
Y260513D01*
X336994D01*
Y260429D01*
Y260344D01*
Y260259D01*
Y260174D01*
X336910D01*
Y260090D01*
Y260005D01*
Y259920D01*
Y259836D01*
Y259751D01*
X336825D01*
Y259666D01*
Y259581D01*
Y259496D01*
Y259412D01*
Y259327D01*
X336740D01*
Y259242D01*
Y259157D01*
Y259073D01*
Y258988D01*
Y258903D01*
Y258819D01*
X336655D01*
Y258734D01*
Y258649D01*
Y258564D01*
Y258479D01*
Y258395D01*
Y258310D01*
Y258225D01*
Y258140D01*
Y258056D01*
X336571D01*
Y257971D01*
Y257886D01*
Y257802D01*
Y257717D01*
Y257632D01*
Y257547D01*
Y257463D01*
Y257378D01*
Y257293D01*
Y257208D01*
Y257123D01*
Y257039D01*
Y256954D01*
Y256869D01*
Y256785D01*
Y256700D01*
Y256615D01*
Y256530D01*
Y256446D01*
Y256361D01*
Y256276D01*
Y256191D01*
Y256106D01*
Y256022D01*
Y255937D01*
Y255852D01*
Y255767D01*
Y255683D01*
Y255598D01*
Y255513D01*
Y255429D01*
X336655D01*
Y255344D01*
Y255259D01*
Y255174D01*
Y255089D01*
Y255005D01*
Y254920D01*
Y254835D01*
Y254750D01*
Y254666D01*
Y254581D01*
X336740D01*
Y254496D01*
Y254412D01*
Y254327D01*
Y254242D01*
Y254157D01*
Y254072D01*
X336825D01*
Y253988D01*
Y253903D01*
Y253818D01*
Y253733D01*
Y253649D01*
X336910D01*
Y253564D01*
Y253479D01*
Y253395D01*
Y253310D01*
X336994D01*
Y253225D01*
Y253140D01*
Y253056D01*
Y252971D01*
Y252886D01*
X337079D01*
Y252801D01*
Y252716D01*
Y252632D01*
X337164D01*
Y252547D01*
Y252462D01*
Y252378D01*
Y252293D01*
X337248D01*
Y252208D01*
Y252123D01*
Y252039D01*
X337333D01*
Y251954D01*
Y251869D01*
Y251784D01*
X337418D01*
Y251699D01*
Y251615D01*
Y251530D01*
X337503D01*
Y251445D01*
Y251361D01*
Y251276D01*
X337587D01*
Y251191D01*
Y251106D01*
X337672D01*
Y251022D01*
Y250937D01*
Y250852D01*
X337757D01*
Y250767D01*
Y250682D01*
X337842D01*
Y250598D01*
Y250513D01*
X337927D01*
Y250428D01*
Y250343D01*
X338011D01*
Y250259D01*
Y250174D01*
X338096D01*
Y250089D01*
Y250005D01*
X338181D01*
Y249920D01*
Y249835D01*
Y249750D01*
X338265D01*
Y249665D01*
X338350D01*
Y249581D01*
Y249496D01*
X338435D01*
Y249411D01*
Y249326D01*
X338520D01*
Y249242D01*
Y249157D01*
X338604D01*
Y249072D01*
Y248988D01*
X338689D01*
Y248903D01*
X338774D01*
Y248818D01*
Y248733D01*
X338859D01*
Y248649D01*
Y248564D01*
X338944D01*
Y248479D01*
X339028D01*
Y248394D01*
Y248309D01*
X339113D01*
Y248225D01*
X339198D01*
Y248140D01*
X339282D01*
Y248055D01*
Y247971D01*
X339367D01*
Y247886D01*
X339452D01*
Y247801D01*
Y247716D01*
X339537D01*
Y247632D01*
X339621D01*
Y247547D01*
Y247462D01*
X339706D01*
Y247377D01*
X339791D01*
Y247292D01*
X339876D01*
Y247208D01*
X339961D01*
Y247123D01*
Y247038D01*
X340045D01*
Y246954D01*
X340130D01*
Y246869D01*
X340215D01*
Y246784D01*
X340300D01*
Y246699D01*
X340384D01*
Y246615D01*
X340469D01*
Y246530D01*
X340554D01*
Y246445D01*
Y246360D01*
X340723D01*
Y246275D01*
Y246191D01*
X340808D01*
Y246106D01*
X340978D01*
Y246021D01*
Y245936D01*
X341062D01*
Y245852D01*
X341147D01*
Y245767D01*
X341232D01*
Y245682D01*
X341401D01*
Y245598D01*
X341486D01*
Y245513D01*
X341571D01*
Y245428D01*
X341655D01*
Y245343D01*
X341740D01*
Y245258D01*
X341825D01*
Y245174D01*
X341910D01*
Y245089D01*
X341995D01*
Y245004D01*
X342164D01*
Y244919D01*
X342249D01*
Y244835D01*
X342334D01*
Y244750D01*
X342418D01*
Y244665D01*
X342588D01*
Y244581D01*
X342672D01*
Y244496D01*
X342757D01*
Y244411D01*
X342927D01*
Y244326D01*
X343011D01*
Y244241D01*
X343181D01*
Y244157D01*
X343266D01*
Y244072D01*
X343435D01*
Y243987D01*
X343520D01*
Y243902D01*
X343689D01*
Y243818D01*
X343774D01*
Y243733D01*
X343944D01*
Y243648D01*
X344113D01*
Y243564D01*
X344198D01*
Y243479D01*
X344368D01*
Y243394D01*
X344537D01*
Y243309D01*
X344707D01*
Y243225D01*
X344876D01*
Y243140D01*
X345045D01*
Y243055D01*
X345215D01*
Y242970D01*
X345385D01*
Y242885D01*
X345554D01*
Y242801D01*
X345724D01*
Y242716D01*
X345978D01*
Y242631D01*
X346232D01*
Y242547D01*
X346402D01*
Y242462D01*
X346656D01*
Y242377D01*
X346910D01*
Y242292D01*
X347164D01*
Y242208D01*
X347418D01*
Y242123D01*
X347758D01*
Y242038D01*
X348012D01*
Y241953D01*
X348435D01*
Y241868D01*
X348775D01*
Y241784D01*
X349283D01*
Y241699D01*
X349792D01*
Y241614D01*
X350724D01*
Y241529D01*
X352758D01*
Y241614D01*
X353690D01*
Y241699D01*
X354199D01*
Y241784D01*
X354707D01*
Y241868D01*
X355131D01*
Y241953D01*
X355470D01*
Y242038D01*
X355724D01*
Y242123D01*
X356063D01*
Y242208D01*
X356317D01*
Y242292D01*
X356656D01*
Y242377D01*
X356826D01*
Y242462D01*
X357080D01*
Y242547D01*
X357334D01*
Y242631D01*
X357504D01*
Y242716D01*
X357758D01*
Y242801D01*
X357927D01*
Y242885D01*
X358097D01*
Y242970D01*
X358351D01*
Y243055D01*
X358436D01*
Y243140D01*
X358606D01*
Y243225D01*
X358775D01*
Y243309D01*
X358945D01*
Y243394D01*
X359114D01*
Y243479D01*
X359283D01*
Y243564D01*
X359453D01*
Y243648D01*
X359538D01*
Y243733D01*
X359707D01*
Y243818D01*
X359877D01*
Y243902D01*
X359962D01*
Y243987D01*
X360131D01*
Y244072D01*
X360216D01*
Y244157D01*
X360385D01*
Y244241D01*
X360470D01*
Y244326D01*
X360640D01*
Y244411D01*
X360724D01*
Y244496D01*
X360809D01*
Y244581D01*
X360979D01*
Y244665D01*
X361063D01*
Y244750D01*
X361148D01*
Y244835D01*
X361233D01*
Y244919D01*
X361402D01*
Y245004D01*
X361487D01*
Y245089D01*
X361572D01*
Y245174D01*
X361656D01*
Y245258D01*
X361741D01*
Y245343D01*
X361911D01*
Y245428D01*
X361996D01*
Y245513D01*
X362080D01*
Y245598D01*
X362165D01*
Y245682D01*
X362250D01*
Y245767D01*
X362334D01*
Y245852D01*
X362419D01*
Y245936D01*
X362504D01*
Y246021D01*
X362589D01*
Y246106D01*
X362673D01*
Y246191D01*
X362758D01*
Y246275D01*
X362843D01*
Y246360D01*
X362928D01*
Y246445D01*
X363013D01*
Y246530D01*
X363097D01*
Y246615D01*
X363182D01*
Y246699D01*
X363267D01*
Y246784D01*
Y246869D01*
X363351D01*
Y246954D01*
X363436D01*
Y247038D01*
X363521D01*
Y247123D01*
X363606D01*
Y247208D01*
Y247292D01*
X363690D01*
Y247377D01*
X363775D01*
Y247462D01*
X363860D01*
Y247547D01*
X363945D01*
Y247632D01*
Y247716D01*
X364030D01*
Y247801D01*
X364114D01*
Y247886D01*
X364199D01*
Y247971D01*
Y248055D01*
X364284D01*
Y248140D01*
X364369D01*
Y248225D01*
Y248309D01*
X364453D01*
Y248394D01*
X364538D01*
Y248479D01*
Y248564D01*
X364623D01*
Y248649D01*
X364707D01*
Y248733D01*
Y248818D01*
X364792D01*
Y248903D01*
Y248988D01*
X364877D01*
Y249072D01*
X364962D01*
Y249157D01*
Y249242D01*
X365047D01*
Y249326D01*
Y249411D01*
X365131D01*
Y249496D01*
Y249581D01*
X365216D01*
Y249665D01*
Y249750D01*
X365301D01*
Y249835D01*
Y249920D01*
X365386D01*
Y250005D01*
Y250089D01*
X365470D01*
Y250174D01*
Y250259D01*
X365555D01*
Y250343D01*
Y250428D01*
X365640D01*
Y250513D01*
Y250598D01*
X365724D01*
Y250682D01*
Y250767D01*
Y250852D01*
X365809D01*
Y250937D01*
Y251022D01*
X365894D01*
Y251106D01*
Y251191D01*
X365979D01*
Y251276D01*
Y251361D01*
Y251445D01*
X366063D01*
Y251530D01*
Y251615D01*
Y251699D01*
X366148D01*
Y251784D01*
Y251869D01*
Y251954D01*
X366233D01*
Y252039D01*
Y252123D01*
Y252208D01*
X366318D01*
Y252293D01*
Y252378D01*
Y252462D01*
X366403D01*
Y252547D01*
Y252632D01*
Y252716D01*
Y252801D01*
X366487D01*
Y252886D01*
Y252971D01*
Y253056D01*
Y253140D01*
X366572D01*
Y253225D01*
Y253310D01*
Y253395D01*
Y253479D01*
X366657D01*
Y253564D01*
Y253649D01*
Y253733D01*
Y253818D01*
Y253903D01*
X366741D01*
Y253988D01*
Y254072D01*
Y254157D01*
Y254242D01*
Y254327D01*
Y254412D01*
X366826D01*
Y254496D01*
Y254581D01*
Y254666D01*
Y254750D01*
Y254835D01*
Y254920D01*
Y255005D01*
Y255089D01*
Y255174D01*
X366911D01*
Y255259D01*
Y255344D01*
Y255429D01*
Y255513D01*
Y255598D01*
Y255683D01*
Y255767D01*
Y255852D01*
Y255937D01*
Y256022D01*
Y256106D01*
Y256191D01*
Y256276D01*
Y256361D01*
Y256446D01*
Y256530D01*
X366996D01*
Y256615D01*
Y256700D01*
Y256785D01*
X366911D01*
Y256869D01*
Y256954D01*
Y257039D01*
Y257123D01*
Y257208D01*
Y257293D01*
Y257378D01*
Y257463D01*
Y257547D01*
Y257632D01*
Y257717D01*
Y257802D01*
Y257886D01*
Y257971D01*
Y258056D01*
Y258140D01*
Y258225D01*
Y258310D01*
X366826D01*
Y258395D01*
Y258479D01*
Y258564D01*
Y258649D01*
Y258734D01*
Y258819D01*
Y258903D01*
Y258988D01*
X366741D01*
Y259073D01*
Y259157D01*
Y259242D01*
Y259327D01*
Y259412D01*
Y259496D01*
X366657D01*
Y259581D01*
Y259666D01*
Y259751D01*
Y259836D01*
Y259920D01*
X366572D01*
Y260005D01*
Y260090D01*
Y260174D01*
Y260259D01*
X366487D01*
Y260344D01*
Y260429D01*
Y260513D01*
Y260598D01*
X366403D01*
Y260683D01*
Y260768D01*
Y260853D01*
Y260937D01*
X366318D01*
Y261022D01*
Y261107D01*
Y261192D01*
X366233D01*
Y261276D01*
Y261361D01*
Y261446D01*
X366148D01*
Y261530D01*
Y261615D01*
Y261700D01*
X366063D01*
Y261785D01*
Y261870D01*
Y261954D01*
X365979D01*
Y262039D01*
Y262124D01*
Y262209D01*
X365894D01*
Y262293D01*
Y262378D01*
X365809D01*
Y262463D01*
Y262547D01*
Y262632D01*
X365724D01*
Y262717D01*
Y262802D01*
X365640D01*
Y262887D01*
Y262971D01*
X365555D01*
Y263056D01*
Y263141D01*
X365470D01*
Y263226D01*
Y263310D01*
Y263395D01*
X365386D01*
Y263480D01*
X365301D01*
Y263564D01*
Y263649D01*
X365216D01*
Y263734D01*
Y263819D01*
X365131D01*
Y263903D01*
Y263988D01*
X365047D01*
Y264073D01*
Y264158D01*
X364962D01*
Y264243D01*
Y264327D01*
X364877D01*
Y264412D01*
X364792D01*
Y264497D01*
Y264581D01*
X364707D01*
Y264666D01*
Y264751D01*
X364623D01*
Y264836D01*
X364538D01*
Y264920D01*
Y265005D01*
X364453D01*
Y265090D01*
X364369D01*
Y265175D01*
Y265260D01*
X364284D01*
Y265344D01*
X364199D01*
Y265429D01*
Y265514D01*
X364114D01*
Y265599D01*
X364030D01*
Y265683D01*
Y265768D01*
X363945D01*
Y265853D01*
X363860D01*
Y265937D01*
X363775D01*
Y266022D01*
X363690D01*
Y266107D01*
Y266192D01*
X363606D01*
Y266277D01*
X363521D01*
Y266361D01*
X363436D01*
Y266446D01*
X363351D01*
Y266531D01*
Y266616D01*
X363267D01*
Y266700D01*
X363182D01*
Y266785D01*
X363097D01*
Y266870D01*
X363013D01*
Y266954D01*
X362928D01*
Y267039D01*
X362843D01*
Y267124D01*
X362758D01*
Y267209D01*
X362673D01*
Y267294D01*
X362589D01*
Y267378D01*
X362504D01*
Y267463D01*
X362419D01*
Y267548D01*
X362334D01*
Y267633D01*
X362250D01*
Y267717D01*
X362165D01*
Y267802D01*
X362080D01*
Y267887D01*
X361996D01*
Y267971D01*
X361911D01*
Y268056D01*
X361826D01*
Y268141D01*
X361656D01*
Y268226D01*
X361572D01*
Y268310D01*
X361487D01*
Y268395D01*
X361402D01*
Y268480D01*
X361317D01*
Y268565D01*
X361148D01*
Y268650D01*
X361063D01*
Y268734D01*
X360979D01*
Y268819D01*
X360894D01*
Y268904D01*
X360809D01*
Y268988D01*
X360724D01*
Y269073D01*
Y269158D01*
Y269243D01*
Y269327D01*
Y269412D01*
Y269497D01*
Y269582D01*
X360809D01*
Y269497D01*
X360979D01*
Y269412D01*
X361063D01*
Y269327D01*
X361148D01*
Y269243D01*
X361317D01*
Y269158D01*
X361402D01*
Y269073D01*
X361487D01*
Y268988D01*
X361572D01*
Y268904D01*
X361741D01*
Y268819D01*
X361826D01*
Y268734D01*
X361911D01*
Y268650D01*
X361996D01*
Y268565D01*
X362080D01*
Y268480D01*
X362165D01*
Y268395D01*
X362334D01*
Y268310D01*
X362419D01*
Y268226D01*
X362504D01*
Y268141D01*
X362589D01*
Y268056D01*
X362673D01*
Y267971D01*
X362758D01*
Y267887D01*
X362843D01*
Y267802D01*
X362928D01*
Y267717D01*
X363013D01*
Y267633D01*
X363097D01*
Y267548D01*
X363182D01*
Y267463D01*
X363267D01*
Y267378D01*
X363351D01*
Y267294D01*
X363436D01*
Y267209D01*
X363521D01*
Y267124D01*
Y267039D01*
X363606D01*
Y266954D01*
X363690D01*
Y266870D01*
X363775D01*
Y266785D01*
X363860D01*
Y266700D01*
X363945D01*
Y266616D01*
X364030D01*
Y266531D01*
Y266446D01*
X364114D01*
Y266361D01*
X364199D01*
Y266277D01*
X364284D01*
Y266192D01*
X364369D01*
Y266107D01*
Y266022D01*
X364453D01*
Y265937D01*
X364538D01*
Y265853D01*
X364623D01*
Y265768D01*
Y265683D01*
X364707D01*
Y265599D01*
X364792D01*
Y265514D01*
Y265429D01*
X364877D01*
Y265344D01*
X364962D01*
Y265260D01*
Y265175D01*
X365047D01*
Y265090D01*
Y265005D01*
X365131D01*
Y264920D01*
X365216D01*
Y264836D01*
Y264751D01*
X365301D01*
Y264666D01*
X365386D01*
Y264581D01*
Y264497D01*
X365470D01*
Y264412D01*
Y264327D01*
X365555D01*
Y264243D01*
Y264158D01*
X365640D01*
Y264073D01*
Y263988D01*
X365724D01*
Y263903D01*
Y263819D01*
X365809D01*
Y263734D01*
Y263649D01*
X365894D01*
Y263564D01*
X365979D01*
Y263480D01*
Y263395D01*
Y263310D01*
X366063D01*
Y263226D01*
Y263141D01*
X366148D01*
Y263056D01*
Y262971D01*
X366233D01*
Y262887D01*
Y262802D01*
X366318D01*
Y262717D01*
Y262632D01*
Y262547D01*
X366403D01*
Y262463D01*
Y262378D01*
X366487D01*
Y262293D01*
Y262209D01*
Y262124D01*
X366572D01*
Y262039D01*
Y261954D01*
Y261870D01*
X366657D01*
Y261785D01*
Y261700D01*
Y261615D01*
X366741D01*
Y261530D01*
Y261446D01*
Y261361D01*
Y261276D01*
X366826D01*
Y261192D01*
Y261107D01*
Y261022D01*
X366911D01*
Y260937D01*
Y260853D01*
Y260768D01*
X366996D01*
Y260683D01*
Y260598D01*
Y260513D01*
Y260429D01*
Y260344D01*
X367080D01*
Y260259D01*
Y260174D01*
Y260090D01*
Y260005D01*
Y259920D01*
X367165D01*
Y259836D01*
Y259751D01*
Y259666D01*
Y259581D01*
Y259496D01*
X367250D01*
Y259412D01*
Y259327D01*
Y259242D01*
Y259157D01*
Y259073D01*
Y258988D01*
Y258903D01*
X367335D01*
Y258819D01*
Y258734D01*
Y258649D01*
Y258564D01*
Y258479D01*
Y258395D01*
Y258310D01*
Y258225D01*
Y258140D01*
Y258056D01*
X367420D01*
Y257971D01*
Y257886D01*
Y257802D01*
Y257717D01*
Y257632D01*
Y257547D01*
Y257463D01*
Y257378D01*
Y257293D01*
Y257208D01*
Y257123D01*
Y257039D01*
Y256954D01*
Y256869D01*
Y256785D01*
Y256700D01*
Y256615D01*
Y256530D01*
Y256446D01*
Y256361D01*
Y256276D01*
Y256191D01*
Y256106D01*
Y256022D01*
Y255937D01*
Y255852D01*
Y255767D01*
Y255683D01*
Y255598D01*
Y255513D01*
Y255429D01*
Y255344D01*
X367335D01*
Y255259D01*
Y255174D01*
Y255089D01*
Y255005D01*
Y254920D01*
Y254835D01*
Y254750D01*
Y254666D01*
Y254581D01*
Y254496D01*
X367250D01*
Y254412D01*
Y254327D01*
Y254242D01*
Y254157D01*
Y254072D01*
Y253988D01*
Y253903D01*
X367165D01*
Y253818D01*
Y253733D01*
Y253649D01*
Y253564D01*
Y253479D01*
X367080D01*
Y253395D01*
Y253310D01*
Y253225D01*
Y253140D01*
Y253056D01*
X366996D01*
Y252971D01*
Y252886D01*
Y252801D01*
Y252716D01*
X366911D01*
Y252632D01*
Y252547D01*
Y252462D01*
X366826D01*
Y252378D01*
Y252293D01*
Y252208D01*
Y252123D01*
Y252039D01*
X366741D01*
Y251954D01*
Y251869D01*
Y251784D01*
X366657D01*
Y251699D01*
Y251615D01*
Y251530D01*
X366572D01*
Y251445D01*
Y251361D01*
X366487D01*
Y251276D01*
Y251191D01*
Y251106D01*
X366403D01*
Y251022D01*
Y250937D01*
Y250852D01*
X366318D01*
Y250767D01*
Y250682D01*
X366233D01*
Y250598D01*
Y250513D01*
Y250428D01*
X366148D01*
Y250343D01*
Y250259D01*
X366063D01*
Y250174D01*
Y250089D01*
X365979D01*
Y250005D01*
Y249920D01*
X365894D01*
Y249835D01*
Y249750D01*
X365809D01*
Y249665D01*
Y249581D01*
X365724D01*
Y249496D01*
Y249411D01*
X365640D01*
Y249326D01*
Y249242D01*
X365555D01*
Y249157D01*
Y249072D01*
X365470D01*
Y248988D01*
Y248903D01*
X365386D01*
Y248818D01*
X365301D01*
Y248733D01*
Y248649D01*
X365216D01*
Y248564D01*
Y248479D01*
X365131D01*
Y248394D01*
X365047D01*
Y248309D01*
Y248225D01*
X364962D01*
Y248140D01*
Y248055D01*
X364877D01*
Y247971D01*
X364792D01*
Y247886D01*
X364707D01*
Y247801D01*
Y247716D01*
X364623D01*
Y247632D01*
X364538D01*
Y247547D01*
Y247462D01*
X364453D01*
Y247377D01*
X364369D01*
Y247292D01*
X364284D01*
Y247208D01*
Y247123D01*
X364199D01*
Y247038D01*
X364114D01*
Y246954D01*
X364030D01*
Y246869D01*
Y246784D01*
X363945D01*
Y246699D01*
X363860D01*
Y246615D01*
X363775D01*
Y246530D01*
X363690D01*
Y246445D01*
X363606D01*
Y246360D01*
X363521D01*
Y246275D01*
X363436D01*
Y246191D01*
X363351D01*
Y246106D01*
Y246021D01*
X363267D01*
Y245936D01*
X363182D01*
Y245852D01*
X363097D01*
Y245767D01*
X363013D01*
Y245682D01*
X362928D01*
Y245598D01*
X362843D01*
Y245513D01*
X362758D01*
Y245428D01*
X362673D01*
Y245343D01*
X362589D01*
Y245258D01*
X362504D01*
Y245174D01*
X362419D01*
Y245089D01*
X362250D01*
Y245004D01*
X362165D01*
Y244919D01*
X362080D01*
Y244835D01*
X361996D01*
Y244750D01*
X361911D01*
Y244665D01*
X361826D01*
Y244581D01*
X361656D01*
Y244496D01*
X361572D01*
Y244411D01*
X361487D01*
Y244326D01*
X361402D01*
Y244241D01*
X361233D01*
Y244157D01*
X361148D01*
Y244072D01*
X361063D01*
Y243987D01*
X360894D01*
Y243902D01*
X360809D01*
Y243818D01*
X360724D01*
Y243733D01*
X360555D01*
Y243648D01*
X360470D01*
Y243564D01*
X360300D01*
Y243479D01*
X360216D01*
Y243394D01*
X360046D01*
Y243309D01*
X359877D01*
Y243225D01*
X359792D01*
Y243140D01*
X359623D01*
Y243055D01*
X359453D01*
Y242970D01*
X359283D01*
Y242885D01*
X359114D01*
Y242801D01*
X359029D01*
Y242716D01*
X358860D01*
Y242631D01*
X358606D01*
Y242547D01*
X358436D01*
Y242462D01*
X358266D01*
Y242377D01*
X358097D01*
Y242292D01*
X357927D01*
Y242208D01*
X357673D01*
Y242123D01*
X357504D01*
Y242038D01*
X357249D01*
Y241953D01*
X356995D01*
Y241868D01*
X356741D01*
Y241784D01*
X356487D01*
Y241699D01*
X356233D01*
Y241614D01*
X355893D01*
Y241529D01*
X355555D01*
Y241445D01*
X355131D01*
Y241360D01*
X354707D01*
Y241275D01*
X354199D01*
Y241191D01*
X353436D01*
Y241106D01*
X350131D01*
Y241191D01*
X349368D01*
Y241275D01*
X348775D01*
Y241360D01*
X348351D01*
Y241445D01*
X347927D01*
Y241529D01*
X347588D01*
Y241614D01*
X347334D01*
Y241699D01*
X347079D01*
Y241784D01*
X346741D01*
Y241868D01*
X346486D01*
Y241953D01*
X346232D01*
Y242038D01*
X346062D01*
Y242123D01*
X345808D01*
Y242208D01*
X345639D01*
Y242292D01*
X345385D01*
Y242377D01*
X345215D01*
Y242462D01*
X345045D01*
Y242547D01*
X344876D01*
Y242631D01*
X344707D01*
Y242716D01*
X344537D01*
Y242801D01*
X344368D01*
Y242885D01*
X344198D01*
Y242970D01*
X344028D01*
Y243055D01*
X343859D01*
Y243140D01*
X343774D01*
Y243225D01*
X343605D01*
Y243309D01*
X343435D01*
Y243394D01*
X343351D01*
Y243479D01*
X343181D01*
Y243564D01*
X343096D01*
Y243648D01*
X342927D01*
Y243733D01*
X342842D01*
Y243818D01*
X342672D01*
Y243902D01*
X342588D01*
Y243987D01*
X342503D01*
Y244072D01*
X342334D01*
Y244157D01*
X342249D01*
Y244241D01*
X342164D01*
Y244326D01*
X341995D01*
Y244411D01*
X341910D01*
Y244496D01*
X341825D01*
Y244581D01*
X341740D01*
Y244665D01*
X341655D01*
Y244750D01*
X341486D01*
Y244835D01*
X341401D01*
Y244919D01*
X341317D01*
Y245004D01*
X341232D01*
Y245089D01*
X341147D01*
Y245174D01*
X341062D01*
Y245258D01*
X340978D01*
Y245343D01*
X340893D01*
Y245428D01*
X340808D01*
Y245513D01*
X340723D01*
Y245598D01*
X340638D01*
Y245682D01*
X340554D01*
Y245767D01*
X340469D01*
Y245852D01*
X340384D01*
Y245936D01*
X340300D01*
Y246021D01*
X340215D01*
Y246106D01*
X340130D01*
Y246191D01*
X340045D01*
Y246275D01*
X339961D01*
Y246360D01*
X339876D01*
Y246445D01*
X339791D01*
Y246530D01*
X339706D01*
Y246615D01*
X339621D01*
Y246699D01*
Y246784D01*
X339537D01*
Y246869D01*
X339452D01*
Y246954D01*
X339367D01*
Y247038D01*
X339282D01*
Y247123D01*
Y247208D01*
X339198D01*
Y247292D01*
X339113D01*
Y247377D01*
X339028D01*
Y247462D01*
Y247547D01*
X338944D01*
Y247632D01*
X338859D01*
Y247716D01*
X338774D01*
Y247801D01*
Y247886D01*
X338689D01*
Y247971D01*
Y248055D01*
X338604D01*
Y248140D01*
X338520D01*
Y248225D01*
Y248309D01*
X338435D01*
Y248394D01*
X338350D01*
Y248479D01*
Y248564D01*
X338265D01*
Y248649D01*
Y248733D01*
X338181D01*
Y248818D01*
X338096D01*
Y248903D01*
Y248988D01*
X338011D01*
Y249072D01*
Y249157D01*
X337927D01*
Y249242D01*
X337842D01*
Y249326D01*
Y249411D01*
X337757D01*
Y249496D01*
Y249581D01*
X337672D01*
Y249665D01*
Y249750D01*
X337587D01*
Y249835D01*
Y249920D01*
Y250005D01*
X337503D01*
Y250089D01*
Y250174D01*
X337418D01*
Y250259D01*
Y250343D01*
X337333D01*
Y250428D01*
Y250513D01*
X337248D01*
Y250598D01*
Y250682D01*
Y250767D01*
X337164D01*
Y250852D01*
Y250937D01*
X337079D01*
Y251022D01*
Y251106D01*
Y251191D01*
X336994D01*
Y251276D01*
Y251361D01*
Y251445D01*
X336910D01*
Y251530D01*
Y251615D01*
X336825D01*
Y251699D01*
Y251784D01*
Y251869D01*
Y251954D01*
X336740D01*
Y252039D01*
Y252123D01*
Y252208D01*
X336655D01*
Y252293D01*
Y252378D01*
Y252462D01*
X336571D01*
Y252547D01*
Y252632D01*
Y252716D01*
Y252801D01*
X336486D01*
Y252886D01*
Y252971D01*
Y253056D01*
Y253140D01*
X336401D01*
Y253225D01*
Y253310D01*
Y253395D01*
Y253479D01*
Y253564D01*
Y253649D01*
X336316D01*
Y253733D01*
Y253818D01*
Y253903D01*
Y253988D01*
Y254072D01*
X336231D01*
Y254157D01*
Y254242D01*
Y254327D01*
Y254412D01*
Y254496D01*
Y254581D01*
Y254666D01*
Y254750D01*
X336147D01*
Y254835D01*
Y254920D01*
Y255005D01*
Y255089D01*
Y255174D01*
Y255259D01*
Y255344D01*
Y255429D01*
Y255513D01*
Y255598D01*
Y255683D01*
Y255767D01*
X336062D01*
Y255852D01*
Y255937D01*
Y256022D01*
Y256106D01*
Y256191D01*
Y256276D01*
Y256361D01*
Y256446D01*
Y256530D01*
Y256615D01*
Y256700D01*
Y256785D01*
Y256869D01*
Y256954D01*
Y257039D01*
Y257123D01*
Y257208D01*
Y257293D01*
Y257378D01*
Y257463D01*
Y257547D01*
Y257632D01*
X336147D01*
Y257717D01*
Y257802D01*
Y257886D01*
Y257971D01*
Y258056D01*
Y258140D01*
Y258225D01*
Y258310D01*
Y258395D01*
Y258479D01*
Y258564D01*
Y258649D01*
Y258734D01*
X336231D01*
Y258819D01*
Y258903D01*
Y258988D01*
Y259073D01*
Y259157D01*
Y259242D01*
Y259327D01*
X336316D01*
Y259412D01*
Y259496D01*
Y259581D01*
Y259666D01*
Y259751D01*
X336401D01*
Y259836D01*
Y259920D01*
Y260005D01*
Y260090D01*
Y260174D01*
X336486D01*
Y260259D01*
Y260344D01*
Y260429D01*
Y260513D01*
Y260598D01*
X336571D01*
Y260683D01*
Y260768D01*
Y260853D01*
Y260937D01*
X336655D01*
Y261022D01*
Y261107D01*
Y261192D01*
Y261276D01*
X336740D01*
Y261361D01*
Y261446D01*
Y261530D01*
X336825D01*
Y261615D01*
Y261700D01*
Y261785D01*
X336910D01*
Y261870D01*
Y261954D01*
X336994D01*
Y262039D01*
Y262124D01*
Y262209D01*
X337079D01*
Y262293D01*
Y262378D01*
Y262463D01*
X337164D01*
Y262547D01*
Y262632D01*
X337248D01*
Y262717D01*
Y262802D01*
Y262887D01*
X337333D01*
Y262971D01*
Y263056D01*
X337418D01*
Y263141D01*
Y263226D01*
X337503D01*
Y263310D01*
Y263395D01*
Y263480D01*
X337587D01*
Y263564D01*
Y263649D01*
X337672D01*
Y263734D01*
Y263819D01*
X337757D01*
Y263903D01*
Y263988D01*
X337842D01*
Y264073D01*
Y264158D01*
X337927D01*
Y264243D01*
Y264327D01*
X338011D01*
Y264412D01*
X338096D01*
Y264497D01*
Y264581D01*
X338181D01*
Y264666D01*
Y264751D01*
X338265D01*
Y264836D01*
X338350D01*
Y264920D01*
Y265005D01*
X338435D01*
Y265090D01*
Y265175D01*
X338520D01*
Y265260D01*
X338604D01*
Y265344D01*
Y265429D01*
X338689D01*
Y265514D01*
X338774D01*
Y265599D01*
Y265683D01*
X338859D01*
Y265768D01*
X338944D01*
Y265853D01*
X339028D01*
Y265937D01*
Y266022D01*
X339113D01*
Y266107D01*
X339198D01*
Y266192D01*
X339282D01*
Y266277D01*
Y266361D01*
X339367D01*
Y266446D01*
X339452D01*
Y266531D01*
X339537D01*
Y266616D01*
X339621D01*
Y266700D01*
Y266785D01*
X339706D01*
Y266870D01*
X339791D01*
Y266954D01*
X339876D01*
Y267039D01*
X339961D01*
Y267124D01*
X340045D01*
Y267209D01*
X340130D01*
Y267294D01*
X340215D01*
Y267378D01*
X340300D01*
Y267463D01*
Y267548D01*
X340469D01*
Y267633D01*
X340554D01*
Y267717D01*
Y267802D01*
X340723D01*
Y267887D01*
X340808D01*
Y267971D01*
X340893D01*
Y268056D01*
X340978D01*
Y268141D01*
Y268226D01*
X341147D01*
Y268310D01*
X341232D01*
Y268395D01*
X341317D01*
Y268480D01*
X341401D01*
Y268565D01*
X341486D01*
Y268650D01*
X341571D01*
Y268734D01*
X341740D01*
Y268819D01*
X341825D01*
Y268904D01*
X341910D01*
Y268988D01*
X341995D01*
Y269073D01*
X342079D01*
Y269158D01*
X342249D01*
Y269243D01*
X342334D01*
Y269327D01*
X342418D01*
Y269412D01*
X342588D01*
Y269497D01*
X342672D01*
Y269582D01*
X342757D01*
Y269667D01*
X342927D01*
Y269751D01*
X343011D01*
Y269836D01*
X343181D01*
Y269921D01*
X343351D01*
Y270005D01*
X343435D01*
Y270090D01*
X343605D01*
Y270175D01*
X343774D01*
Y270260D01*
X343859D01*
Y270344D01*
X344028D01*
Y270429D01*
X344198D01*
Y270514D01*
X344368D01*
Y270599D01*
X344537D01*
Y270684D01*
X344622D01*
Y270768D01*
X344791D01*
Y270853D01*
X345045D01*
Y270938D01*
X345215D01*
Y271023D01*
X345385D01*
Y271107D01*
X345554D01*
Y271192D01*
X345724D01*
Y271277D01*
X345978D01*
Y271361D01*
X346232D01*
Y271446D01*
X346486D01*
Y271531D01*
X346741D01*
Y271616D01*
X346995D01*
Y271701D01*
X347249D01*
Y271785D01*
X347588D01*
Y271870D01*
X347927D01*
Y271955D01*
X348266D01*
Y272040D01*
X348690D01*
Y272124D01*
X349198D01*
Y272209D01*
X349961D01*
Y272294D01*
X350978D01*
Y272378D01*
X352503D01*
Y272294D01*
D02*
G37*
G36*
X360470Y273565D02*
Y273480D01*
Y273395D01*
Y273311D01*
Y273226D01*
Y273141D01*
Y273057D01*
Y272972D01*
Y272887D01*
Y272802D01*
Y272717D01*
X360385D01*
Y272633D01*
Y272548D01*
Y272463D01*
Y272378D01*
Y272294D01*
Y272209D01*
Y272124D01*
Y272040D01*
Y271955D01*
Y271870D01*
Y271785D01*
X360300D01*
Y271701D01*
Y271616D01*
Y271531D01*
Y271446D01*
Y271361D01*
Y271277D01*
Y271192D01*
Y271107D01*
X360216D01*
Y271023D01*
Y270938D01*
Y270853D01*
Y270768D01*
Y270684D01*
Y270599D01*
Y270514D01*
Y270429D01*
Y270344D01*
Y270260D01*
Y270175D01*
Y270090D01*
Y270005D01*
Y269921D01*
Y269836D01*
Y269751D01*
Y269667D01*
Y269582D01*
Y269497D01*
Y269412D01*
Y269327D01*
Y269243D01*
Y269158D01*
Y269073D01*
Y268988D01*
Y268904D01*
Y268819D01*
Y268734D01*
Y268650D01*
Y268565D01*
Y268480D01*
X360300D01*
Y268395D01*
Y268310D01*
Y268226D01*
Y268141D01*
Y268056D01*
Y267971D01*
Y267887D01*
X360385D01*
Y267802D01*
Y267717D01*
Y267633D01*
Y267548D01*
X360470D01*
Y267463D01*
Y267378D01*
Y267294D01*
Y267209D01*
X360555D01*
Y267124D01*
Y267039D01*
Y266954D01*
Y266870D01*
X360640D01*
Y266785D01*
Y266700D01*
Y266616D01*
X360724D01*
Y266531D01*
Y266446D01*
X360809D01*
Y266361D01*
Y266277D01*
Y266192D01*
X360470D01*
Y266107D01*
X360300D01*
Y266022D01*
X360131D01*
Y265937D01*
X359962D01*
Y265853D01*
X359792D01*
Y265768D01*
X359623D01*
Y265683D01*
X359453D01*
Y265599D01*
X359368D01*
Y265514D01*
X359199D01*
Y265429D01*
X359114D01*
Y265344D01*
X358945D01*
Y265260D01*
X358860D01*
Y265175D01*
X358775D01*
Y265090D01*
X358690D01*
Y265005D01*
X358521D01*
Y264920D01*
X358436D01*
Y264836D01*
X358351D01*
Y264751D01*
X358182D01*
Y264666D01*
X358097D01*
Y264581D01*
X358012D01*
Y264497D01*
X357927D01*
Y264412D01*
X357843D01*
Y264327D01*
X357673D01*
Y264243D01*
X357589D01*
Y264158D01*
X357504D01*
Y264073D01*
X357419D01*
Y263988D01*
X357334D01*
Y263903D01*
X357249D01*
Y263819D01*
X357165D01*
Y263734D01*
X357080D01*
Y263649D01*
X356995D01*
Y263564D01*
X356826D01*
Y263480D01*
X356741D01*
Y263395D01*
X356656D01*
Y263310D01*
X356572D01*
Y263226D01*
X356487D01*
Y263141D01*
X356402D01*
Y263056D01*
X356317D01*
Y262971D01*
X356233D01*
Y262887D01*
X356148D01*
Y262802D01*
X356063D01*
Y262717D01*
X355978D01*
Y262632D01*
X355893D01*
Y262547D01*
X355809D01*
Y262463D01*
X355724D01*
Y262378D01*
X355639D01*
Y262293D01*
X355555D01*
Y262209D01*
X355470D01*
Y262124D01*
Y262039D01*
X355385D01*
Y261954D01*
X355300D01*
Y261870D01*
X355216D01*
Y261785D01*
X355131D01*
Y261700D01*
X355046D01*
Y261615D01*
X354961D01*
Y261530D01*
X354876D01*
Y261446D01*
X354792D01*
Y261361D01*
X354707D01*
Y261276D01*
X354622D01*
Y261192D01*
Y261107D01*
X354538D01*
Y261022D01*
X354453D01*
Y260937D01*
X354368D01*
Y260853D01*
X354283D01*
Y260768D01*
X354199D01*
Y260683D01*
Y260598D01*
X354029D01*
Y260513D01*
Y260429D01*
X353944D01*
Y260344D01*
X353859D01*
Y260259D01*
X353775D01*
Y260174D01*
X353690D01*
Y260090D01*
X353605D01*
Y260005D01*
Y259920D01*
X353520D01*
Y259836D01*
X353436D01*
Y259751D01*
X353351D01*
Y259666D01*
X353266D01*
Y259581D01*
X353182D01*
Y259496D01*
Y259412D01*
X353097D01*
Y259327D01*
X353012D01*
Y259242D01*
X352927D01*
Y259157D01*
X352842D01*
Y259073D01*
Y258988D01*
X352758D01*
Y258903D01*
X352673D01*
Y258819D01*
X352588D01*
Y258734D01*
X352503D01*
Y258649D01*
Y258564D01*
X352419D01*
Y258479D01*
X352334D01*
Y258395D01*
X352249D01*
Y258310D01*
X352165D01*
Y258225D01*
Y258140D01*
X352080D01*
Y258056D01*
X351995D01*
Y257971D01*
X351910D01*
Y257886D01*
Y257802D01*
X351825D01*
Y257717D01*
X351741D01*
Y257632D01*
Y257547D01*
X351656D01*
Y257463D01*
X351571D01*
Y257378D01*
X351486D01*
Y257293D01*
Y257208D01*
X351402D01*
Y257123D01*
X351317D01*
Y257039D01*
X351232D01*
Y256954D01*
Y256869D01*
X351148D01*
Y256785D01*
X351063D01*
Y256700D01*
X350978D01*
Y256615D01*
Y256530D01*
X350893D01*
Y256446D01*
Y256361D01*
X350809D01*
Y256276D01*
X350724D01*
Y256191D01*
X350639D01*
Y256106D01*
Y256022D01*
X350554D01*
Y255937D01*
X350469D01*
Y255852D01*
Y255767D01*
X350385D01*
Y255683D01*
X350300D01*
Y255598D01*
Y255513D01*
X350215D01*
Y255429D01*
Y255344D01*
X350131D01*
Y255259D01*
X350046D01*
Y255174D01*
Y255089D01*
X349961D01*
Y255005D01*
X349876D01*
Y254920D01*
Y254835D01*
X349792D01*
Y254750D01*
Y254666D01*
X349707D01*
Y254581D01*
Y254496D01*
X349622D01*
Y254412D01*
X349537D01*
Y254327D01*
Y254242D01*
X349368D01*
Y254327D01*
Y254412D01*
X349283D01*
Y254496D01*
X349198D01*
Y254581D01*
X349113D01*
Y254666D01*
X349029D01*
Y254750D01*
X348944D01*
Y254835D01*
X348859D01*
Y254920D01*
Y255005D01*
X348775D01*
Y255089D01*
X348690D01*
Y255174D01*
X348605D01*
Y255259D01*
X348520D01*
Y255344D01*
X348435D01*
Y255429D01*
X348351D01*
Y255513D01*
X348266D01*
Y255598D01*
Y255683D01*
X348181D01*
Y255767D01*
X348096D01*
Y255852D01*
X348012D01*
Y255937D01*
X347927D01*
Y256022D01*
X347842D01*
Y256106D01*
X347758D01*
Y256191D01*
X347673D01*
Y256276D01*
X347588D01*
Y256361D01*
X347503D01*
Y256446D01*
X347418D01*
Y256530D01*
X347334D01*
Y256615D01*
X347249D01*
Y256700D01*
X347164D01*
Y256785D01*
X347079D01*
Y256869D01*
X346995D01*
Y256954D01*
X346910D01*
Y257039D01*
X346825D01*
Y257123D01*
X346741D01*
Y257208D01*
X346656D01*
Y257293D01*
X346571D01*
Y257378D01*
X346486D01*
Y257463D01*
X346402D01*
Y257547D01*
X346317D01*
Y257632D01*
X346232D01*
Y257717D01*
X346147D01*
Y257802D01*
X346062D01*
Y257886D01*
X345978D01*
Y257971D01*
X345808D01*
Y258056D01*
X345724D01*
Y258140D01*
X345639D01*
Y258225D01*
X345554D01*
Y258310D01*
X345469D01*
Y258395D01*
X345385D01*
Y258479D01*
X345215D01*
Y258564D01*
X345130D01*
Y258649D01*
X345045D01*
Y258734D01*
X344961D01*
Y258819D01*
X344876D01*
Y258903D01*
X344791D01*
Y258988D01*
X344622D01*
Y259073D01*
X344537D01*
Y259157D01*
X344368D01*
Y259242D01*
X344283D01*
Y259327D01*
X344198D01*
Y259412D01*
X344028D01*
Y259496D01*
X343944D01*
Y259581D01*
X343859D01*
Y259666D01*
X343689D01*
Y259751D01*
X343605D01*
Y259836D01*
X343435D01*
Y259920D01*
X343351D01*
Y260005D01*
X343266D01*
Y260090D01*
X343096D01*
Y260174D01*
X343011D01*
Y260259D01*
X342842D01*
Y260344D01*
X342672D01*
Y260429D01*
X342588D01*
Y260513D01*
X342418D01*
Y260598D01*
X342249D01*
Y260683D01*
X342164D01*
Y260768D01*
X341910D01*
Y260853D01*
X341825D01*
Y260937D01*
X341655D01*
Y261022D01*
X341401D01*
Y261107D01*
X341147D01*
Y261192D01*
X340978D01*
Y261276D01*
X340893D01*
Y261361D01*
X340978D01*
Y261446D01*
X341147D01*
Y261530D01*
X341317D01*
Y261615D01*
X341401D01*
Y261700D01*
X341571D01*
Y261785D01*
X341655D01*
Y261870D01*
X341825D01*
Y261954D01*
X341995D01*
Y262039D01*
X342164D01*
Y262124D01*
X342249D01*
Y262209D01*
X342418D01*
Y262293D01*
X342503D01*
Y262378D01*
X342672D01*
Y262463D01*
X342842D01*
Y262547D01*
X342927D01*
Y262632D01*
X343096D01*
Y262717D01*
X343266D01*
Y262802D01*
X343351D01*
Y262887D01*
X343520D01*
Y262971D01*
X343605D01*
Y263056D01*
X343774D01*
Y263141D01*
X343944D01*
Y263226D01*
X344113D01*
Y263310D01*
X344198D01*
Y263395D01*
X344368D01*
Y263480D01*
X344537D01*
Y263564D01*
X344622D01*
Y263649D01*
X344791D01*
Y263734D01*
X344961D01*
Y263819D01*
X345045D01*
Y263903D01*
X345215D01*
Y263988D01*
X345300D01*
Y264073D01*
X345469D01*
Y264158D01*
X345639D01*
Y264243D01*
X345724D01*
Y264327D01*
X345893D01*
Y264412D01*
X346062D01*
Y264497D01*
X346232D01*
Y264581D01*
X346317D01*
Y264666D01*
X346402D01*
Y264581D01*
X346486D01*
Y264497D01*
Y264412D01*
X346571D01*
Y264327D01*
Y264243D01*
X346656D01*
Y264158D01*
Y264073D01*
X346741D01*
Y263988D01*
Y263903D01*
X346825D01*
Y263819D01*
Y263734D01*
X346910D01*
Y263649D01*
Y263564D01*
X346995D01*
Y263480D01*
Y263395D01*
X347079D01*
Y263310D01*
X347164D01*
Y263226D01*
Y263141D01*
X347249D01*
Y263056D01*
Y262971D01*
X347334D01*
Y262887D01*
Y262802D01*
X347418D01*
Y262717D01*
Y262632D01*
X347503D01*
Y262547D01*
Y262463D01*
X347588D01*
Y262378D01*
Y262293D01*
X347673D01*
Y262209D01*
Y262124D01*
X347758D01*
Y262039D01*
Y261954D01*
X347842D01*
Y261870D01*
Y261785D01*
X347927D01*
Y261700D01*
Y261615D01*
X348012D01*
Y261530D01*
Y261446D01*
X348096D01*
Y261361D01*
Y261276D01*
X348181D01*
Y261192D01*
Y261107D01*
X348266D01*
Y261022D01*
Y260937D01*
X348351D01*
Y260853D01*
X348435D01*
Y260768D01*
Y260683D01*
X348520D01*
Y260598D01*
Y260513D01*
Y260429D01*
X348605D01*
Y260344D01*
X348690D01*
Y260259D01*
Y260174D01*
X348775D01*
Y260090D01*
Y260005D01*
X348859D01*
Y259920D01*
Y259836D01*
X348944D01*
Y259751D01*
Y259666D01*
X349029D01*
Y259581D01*
Y259496D01*
X349198D01*
Y259581D01*
Y259666D01*
X349283D01*
Y259751D01*
X349368D01*
Y259836D01*
Y259920D01*
Y260005D01*
X349452D01*
Y260090D01*
Y260174D01*
X349537D01*
Y260259D01*
Y260344D01*
X349622D01*
Y260429D01*
Y260513D01*
X349707D01*
Y260598D01*
Y260683D01*
Y260768D01*
X349792D01*
Y260853D01*
X349876D01*
Y260937D01*
Y261022D01*
Y261107D01*
X349961D01*
Y261192D01*
Y261276D01*
X350046D01*
Y261361D01*
Y261446D01*
X350131D01*
Y261530D01*
Y261615D01*
X350215D01*
Y261700D01*
X350300D01*
Y261785D01*
Y261870D01*
X350385D01*
Y261954D01*
Y262039D01*
X350469D01*
Y262124D01*
Y262209D01*
X350554D01*
Y262293D01*
Y262378D01*
X350639D01*
Y262463D01*
Y262547D01*
X350724D01*
Y262632D01*
Y262717D01*
X350809D01*
Y262802D01*
Y262887D01*
X350893D01*
Y262971D01*
X350978D01*
Y263056D01*
Y263141D01*
X351063D01*
Y263226D01*
Y263310D01*
X351148D01*
Y263395D01*
Y263480D01*
X351232D01*
Y263564D01*
X351317D01*
Y263649D01*
Y263734D01*
X351402D01*
Y263819D01*
Y263903D01*
X351486D01*
Y263988D01*
Y264073D01*
X351571D01*
Y264158D01*
X351656D01*
Y264243D01*
Y264327D01*
X351741D01*
Y264412D01*
Y264497D01*
X351825D01*
Y264581D01*
Y264666D01*
X351910D01*
Y264751D01*
X351995D01*
Y264836D01*
X352080D01*
Y264920D01*
Y265005D01*
X352165D01*
Y265090D01*
Y265175D01*
X352249D01*
Y265260D01*
Y265344D01*
X352334D01*
Y265429D01*
X352419D01*
Y265514D01*
Y265599D01*
X352503D01*
Y265683D01*
X352588D01*
Y265768D01*
Y265853D01*
X352673D01*
Y265937D01*
X352758D01*
Y266022D01*
Y266107D01*
X352842D01*
Y266192D01*
X352927D01*
Y266277D01*
Y266361D01*
X353012D01*
Y266446D01*
X353097D01*
Y266531D01*
X353182D01*
Y266616D01*
Y266700D01*
X353266D01*
Y266785D01*
X353351D01*
Y266870D01*
Y266954D01*
X353436D01*
Y267039D01*
X353520D01*
Y267124D01*
X353605D01*
Y267209D01*
Y267294D01*
X353690D01*
Y267378D01*
X353775D01*
Y267463D01*
Y267548D01*
X353859D01*
Y267633D01*
X353944D01*
Y267717D01*
X354029D01*
Y267802D01*
Y267887D01*
X354114D01*
Y267971D01*
X354199D01*
Y268056D01*
X354283D01*
Y268141D01*
Y268226D01*
X354368D01*
Y268310D01*
X354453D01*
Y268395D01*
X354538D01*
Y268480D01*
X354622D01*
Y268565D01*
X354707D01*
Y268650D01*
Y268734D01*
X354792D01*
Y268819D01*
X354876D01*
Y268904D01*
X354961D01*
Y268988D01*
X355046D01*
Y269073D01*
Y269158D01*
X355131D01*
Y269243D01*
X355216D01*
Y269327D01*
X355300D01*
Y269412D01*
X355385D01*
Y269497D01*
X355470D01*
Y269582D01*
X355555D01*
Y269667D01*
X355639D01*
Y269751D01*
X355724D01*
Y269836D01*
Y269921D01*
X355809D01*
Y270005D01*
X355893D01*
Y270090D01*
X355978D01*
Y270175D01*
X356063D01*
Y270260D01*
X356148D01*
Y270344D01*
X356233D01*
Y270429D01*
X356317D01*
Y270514D01*
X356402D01*
Y270599D01*
X356487D01*
Y270684D01*
X356572D01*
Y270768D01*
X356656D01*
Y270853D01*
X356741D01*
Y270938D01*
X356826D01*
Y271023D01*
X356910D01*
Y271107D01*
X356995D01*
Y271192D01*
X357165D01*
Y271277D01*
X357249D01*
Y271361D01*
X357334D01*
Y271446D01*
X357419D01*
Y271531D01*
X357504D01*
Y271616D01*
X357589D01*
Y271701D01*
X357673D01*
Y271785D01*
X357843D01*
Y271870D01*
X357927D01*
Y271955D01*
X358012D01*
Y272040D01*
X358097D01*
Y272124D01*
X358182D01*
Y272209D01*
X358351D01*
Y272294D01*
X358436D01*
Y272378D01*
X358521D01*
Y272463D01*
X358606D01*
Y272548D01*
X358775D01*
Y272633D01*
X358860D01*
Y272717D01*
X359029D01*
Y272802D01*
X359114D01*
Y272887D01*
X359283D01*
Y272972D01*
X359368D01*
Y273057D01*
X359538D01*
Y273141D01*
X359623D01*
Y273226D01*
X359792D01*
Y273311D01*
X359962D01*
Y273395D01*
X360046D01*
Y273480D01*
X360216D01*
Y273565D01*
X360385D01*
Y273650D01*
X360470D01*
Y273565D01*
D02*
G37*
G36*
X360131Y254835D02*
X360470D01*
Y254750D01*
X360724D01*
Y254666D01*
X360894D01*
Y254581D01*
X361063D01*
Y254496D01*
X361148D01*
Y254412D01*
X361233D01*
Y254327D01*
X361317D01*
Y254242D01*
Y254157D01*
X361402D01*
Y254072D01*
Y253988D01*
X361487D01*
Y253903D01*
Y253818D01*
X361572D01*
Y253733D01*
Y253649D01*
Y253564D01*
Y253479D01*
X360809D01*
Y253395D01*
X360216D01*
Y253479D01*
X360131D01*
Y253564D01*
Y253649D01*
Y253733D01*
X360046D01*
Y253818D01*
X359962D01*
Y253903D01*
X359792D01*
Y253988D01*
X359538D01*
Y254072D01*
X359283D01*
Y253988D01*
X359114D01*
Y253903D01*
X359029D01*
Y253818D01*
X358945D01*
Y253733D01*
X358860D01*
Y253649D01*
Y253564D01*
X358945D01*
Y253479D01*
X359029D01*
Y253395D01*
X359114D01*
Y253310D01*
X359368D01*
Y253225D01*
X359792D01*
Y253140D01*
X360046D01*
Y253056D01*
X360385D01*
Y252971D01*
X360640D01*
Y252886D01*
X360894D01*
Y252801D01*
X361063D01*
Y252716D01*
X361148D01*
Y252632D01*
X361317D01*
Y252547D01*
X361402D01*
Y252462D01*
X361487D01*
Y252378D01*
Y252293D01*
X361572D01*
Y252208D01*
X361656D01*
Y252123D01*
Y252039D01*
Y251954D01*
X361741D01*
Y251869D01*
Y251784D01*
Y251699D01*
Y251615D01*
Y251530D01*
Y251445D01*
Y251361D01*
Y251276D01*
Y251191D01*
Y251106D01*
X361656D01*
Y251022D01*
Y250937D01*
X361572D01*
Y250852D01*
Y250767D01*
X361487D01*
Y250682D01*
Y250598D01*
X361402D01*
Y250513D01*
X361317D01*
Y250428D01*
X361233D01*
Y250343D01*
X361148D01*
Y250259D01*
X360979D01*
Y250174D01*
X360809D01*
Y250089D01*
X360640D01*
Y250005D01*
X360300D01*
Y249920D01*
X358775D01*
Y250005D01*
X358436D01*
Y250089D01*
X358266D01*
Y250174D01*
X358097D01*
Y250259D01*
X357927D01*
Y250343D01*
X357843D01*
Y250428D01*
X357758D01*
Y250513D01*
Y250598D01*
X357673D01*
Y250682D01*
X357589D01*
Y250767D01*
Y250852D01*
X357504D01*
Y250937D01*
X357419D01*
Y251022D01*
Y251106D01*
Y251191D01*
Y251276D01*
X357334D01*
Y251361D01*
Y251445D01*
Y251530D01*
X357419D01*
Y251615D01*
X358775D01*
Y251530D01*
Y251445D01*
Y251361D01*
X358860D01*
Y251276D01*
Y251191D01*
X358945D01*
Y251106D01*
X359029D01*
Y251022D01*
X359114D01*
Y250937D01*
X359283D01*
Y250852D01*
X359962D01*
Y250937D01*
X360131D01*
Y251022D01*
X360216D01*
Y251106D01*
X360300D01*
Y251191D01*
Y251276D01*
Y251361D01*
Y251445D01*
Y251530D01*
X360216D01*
Y251615D01*
Y251699D01*
X360046D01*
Y251784D01*
X359877D01*
Y251869D01*
X359623D01*
Y251954D01*
X359283D01*
Y252039D01*
X358945D01*
Y252123D01*
X358690D01*
Y252208D01*
X358521D01*
Y252293D01*
X358266D01*
Y252378D01*
X358182D01*
Y252462D01*
X358012D01*
Y252547D01*
X357927D01*
Y252632D01*
X357843D01*
Y252716D01*
X357758D01*
Y252801D01*
X357673D01*
Y252886D01*
Y252971D01*
X357589D01*
Y253056D01*
Y253140D01*
Y253225D01*
Y253310D01*
X357504D01*
Y253395D01*
Y253479D01*
Y253564D01*
Y253649D01*
X357589D01*
Y253733D01*
Y253818D01*
Y253903D01*
Y253988D01*
X357673D01*
Y254072D01*
Y254157D01*
X357758D01*
Y254242D01*
Y254327D01*
X357843D01*
Y254412D01*
X357927D01*
Y254496D01*
X358097D01*
Y254581D01*
X358182D01*
Y254666D01*
X358351D01*
Y254750D01*
X358606D01*
Y254835D01*
X359114D01*
Y254920D01*
X360131D01*
Y254835D01*
D02*
G37*
G36*
X356572Y254750D02*
Y254666D01*
Y254581D01*
Y254496D01*
Y254412D01*
Y254327D01*
Y254242D01*
Y254157D01*
Y254072D01*
Y253988D01*
Y253903D01*
Y253818D01*
Y253733D01*
Y253649D01*
Y253564D01*
Y253479D01*
Y253395D01*
Y253310D01*
Y253225D01*
Y253140D01*
Y253056D01*
Y252971D01*
Y252886D01*
Y252801D01*
Y252716D01*
Y252632D01*
Y252547D01*
Y252462D01*
Y252378D01*
Y252293D01*
Y252208D01*
Y252123D01*
Y252039D01*
Y251954D01*
Y251869D01*
Y251784D01*
Y251699D01*
Y251615D01*
Y251530D01*
Y251445D01*
Y251361D01*
Y251276D01*
Y251191D01*
Y251106D01*
Y251022D01*
Y250937D01*
Y250852D01*
Y250767D01*
Y250682D01*
Y250598D01*
Y250513D01*
Y250428D01*
Y250343D01*
Y250259D01*
Y250174D01*
Y250089D01*
Y250005D01*
X355046D01*
Y250089D01*
Y250174D01*
Y250259D01*
Y250343D01*
Y250428D01*
Y250513D01*
Y250598D01*
Y250682D01*
Y250767D01*
Y250852D01*
Y250937D01*
Y251022D01*
Y251106D01*
Y251191D01*
Y251276D01*
Y251361D01*
Y251445D01*
Y251530D01*
Y251615D01*
Y251699D01*
Y251784D01*
Y251869D01*
Y251954D01*
X353436D01*
Y251869D01*
Y251784D01*
Y251699D01*
Y251615D01*
Y251530D01*
Y251445D01*
Y251361D01*
Y251276D01*
Y251191D01*
Y251106D01*
Y251022D01*
Y250937D01*
Y250852D01*
Y250767D01*
Y250682D01*
Y250598D01*
Y250513D01*
Y250428D01*
Y250343D01*
Y250259D01*
Y250174D01*
Y250089D01*
Y250005D01*
X351910D01*
Y250089D01*
Y250174D01*
Y250259D01*
Y250343D01*
Y250428D01*
Y250513D01*
Y250598D01*
Y250682D01*
Y250767D01*
Y250852D01*
Y250937D01*
Y251022D01*
Y251106D01*
Y251191D01*
Y251276D01*
Y251361D01*
Y251445D01*
Y251530D01*
Y251615D01*
Y251699D01*
Y251784D01*
Y251869D01*
Y251954D01*
Y252039D01*
Y252123D01*
Y252208D01*
Y252293D01*
Y252378D01*
Y252462D01*
Y252547D01*
Y252632D01*
Y252716D01*
Y252801D01*
Y252886D01*
Y252971D01*
Y253056D01*
Y253140D01*
Y253225D01*
Y253310D01*
Y253395D01*
Y253479D01*
Y253564D01*
Y253649D01*
Y253733D01*
Y253818D01*
Y253903D01*
Y253988D01*
Y254072D01*
Y254157D01*
Y254242D01*
Y254327D01*
Y254412D01*
Y254496D01*
Y254581D01*
Y254666D01*
Y254750D01*
Y254835D01*
X353436D01*
Y254750D01*
Y254666D01*
Y254581D01*
Y254496D01*
Y254412D01*
Y254327D01*
Y254242D01*
Y254157D01*
Y254072D01*
Y253988D01*
Y253903D01*
Y253818D01*
Y253733D01*
Y253649D01*
Y253564D01*
Y253479D01*
Y253395D01*
Y253310D01*
Y253225D01*
Y253140D01*
X355046D01*
Y253225D01*
Y253310D01*
Y253395D01*
Y253479D01*
Y253564D01*
Y253649D01*
Y253733D01*
Y253818D01*
Y253903D01*
Y253988D01*
Y254072D01*
Y254157D01*
Y254242D01*
Y254327D01*
Y254412D01*
Y254496D01*
Y254581D01*
X355131D01*
Y254666D01*
X355046D01*
Y254750D01*
X355131D01*
Y254835D01*
X356572D01*
Y254750D01*
D02*
G37*
G36*
X345215D02*
X345639D01*
Y254666D01*
X345808D01*
Y254581D01*
X345893D01*
Y254496D01*
X346062D01*
Y254412D01*
Y254327D01*
X346147D01*
Y254242D01*
X346232D01*
Y254157D01*
Y254072D01*
X346317D01*
Y253988D01*
Y253903D01*
X346402D01*
Y253818D01*
Y253733D01*
Y253649D01*
Y253564D01*
Y253479D01*
Y253395D01*
Y253310D01*
Y253225D01*
Y253140D01*
Y253056D01*
X346317D01*
Y252971D01*
Y252886D01*
X346232D01*
Y252801D01*
Y252716D01*
X346147D01*
Y252632D01*
X346062D01*
Y252547D01*
X345978D01*
Y252462D01*
X345893D01*
Y252378D01*
X345808D01*
Y252293D01*
X345639D01*
Y252208D01*
X345385D01*
Y252123D01*
Y252039D01*
X345469D01*
Y251954D01*
X345639D01*
Y251869D01*
X345724D01*
Y251784D01*
X345808D01*
Y251699D01*
X345893D01*
Y251615D01*
Y251530D01*
X345978D01*
Y251445D01*
X346062D01*
Y251361D01*
Y251276D01*
X346147D01*
Y251191D01*
Y251106D01*
X346232D01*
Y251022D01*
Y250937D01*
X346317D01*
Y250852D01*
Y250767D01*
X346402D01*
Y250682D01*
Y250598D01*
X346486D01*
Y250513D01*
X346571D01*
Y250428D01*
Y250343D01*
X346656D01*
Y250259D01*
Y250174D01*
X346741D01*
Y250089D01*
Y250005D01*
X345045D01*
Y250089D01*
Y250174D01*
X344961D01*
Y250259D01*
Y250343D01*
X344876D01*
Y250428D01*
X344791D01*
Y250513D01*
Y250598D01*
X344707D01*
Y250682D01*
Y250767D01*
X344622D01*
Y250852D01*
Y250937D01*
X344537D01*
Y251022D01*
Y251106D01*
X344452D01*
Y251191D01*
Y251276D01*
X344368D01*
Y251361D01*
X344283D01*
Y251445D01*
Y251530D01*
X344198D01*
Y251615D01*
Y251699D01*
X344113D01*
Y251784D01*
X344028D01*
Y251869D01*
X343859D01*
Y251954D01*
X343520D01*
Y251869D01*
Y251784D01*
Y251699D01*
Y251615D01*
Y251530D01*
Y251445D01*
Y251361D01*
Y251276D01*
Y251191D01*
Y251106D01*
Y251022D01*
Y250937D01*
Y250852D01*
Y250767D01*
Y250682D01*
Y250598D01*
Y250513D01*
Y250428D01*
Y250343D01*
Y250259D01*
Y250174D01*
Y250089D01*
Y250005D01*
X341995D01*
Y250089D01*
Y250174D01*
Y250259D01*
Y250343D01*
Y250428D01*
Y250513D01*
Y250598D01*
Y250682D01*
Y250767D01*
Y250852D01*
Y250937D01*
Y251022D01*
Y251106D01*
Y251191D01*
Y251276D01*
Y251361D01*
Y251445D01*
Y251530D01*
Y251615D01*
Y251699D01*
Y251784D01*
Y251869D01*
Y251954D01*
Y252039D01*
Y252123D01*
Y252208D01*
Y252293D01*
Y252378D01*
Y252462D01*
Y252547D01*
Y252632D01*
Y252716D01*
Y252801D01*
Y252886D01*
Y252971D01*
Y253056D01*
Y253140D01*
Y253225D01*
Y253310D01*
Y253395D01*
Y253479D01*
Y253564D01*
Y253649D01*
Y253733D01*
Y253818D01*
Y253903D01*
Y253988D01*
Y254072D01*
Y254157D01*
Y254242D01*
Y254327D01*
Y254412D01*
Y254496D01*
Y254581D01*
Y254666D01*
Y254750D01*
Y254835D01*
X345215D01*
Y254750D01*
D02*
G37*
G36*
X349622Y253479D02*
X349961D01*
Y253395D01*
X350215D01*
Y253310D01*
X350300D01*
Y253225D01*
X350469D01*
Y253140D01*
X350554D01*
Y253056D01*
X350639D01*
Y252971D01*
X350724D01*
Y252886D01*
X350809D01*
Y252801D01*
Y252716D01*
X350893D01*
Y252632D01*
X350978D01*
Y252547D01*
Y252462D01*
Y252378D01*
X351063D01*
Y252293D01*
Y252208D01*
Y252123D01*
Y252039D01*
X351148D01*
Y251954D01*
Y251869D01*
Y251784D01*
Y251699D01*
Y251615D01*
Y251530D01*
Y251445D01*
Y251361D01*
X351063D01*
Y251276D01*
Y251191D01*
Y251106D01*
Y251022D01*
X350978D01*
Y250937D01*
Y250852D01*
X350893D01*
Y250767D01*
X350809D01*
Y250682D01*
Y250598D01*
X350724D01*
Y250513D01*
X350639D01*
Y250428D01*
X350554D01*
Y250343D01*
X350469D01*
Y250259D01*
X350300D01*
Y250174D01*
X350131D01*
Y250089D01*
X349961D01*
Y250005D01*
X349707D01*
Y249920D01*
X348520D01*
Y250005D01*
X348181D01*
Y250089D01*
X348012D01*
Y250174D01*
X347842D01*
Y250259D01*
X347758D01*
Y250343D01*
X347673D01*
Y250428D01*
X347588D01*
Y250513D01*
X347503D01*
Y250598D01*
X347418D01*
Y250682D01*
X347334D01*
Y250767D01*
X347249D01*
Y250852D01*
Y250937D01*
Y251022D01*
X347164D01*
Y251106D01*
Y251191D01*
Y251276D01*
X347079D01*
Y251361D01*
Y251445D01*
Y251530D01*
Y251615D01*
Y251699D01*
Y251784D01*
Y251869D01*
Y251954D01*
Y252039D01*
Y252123D01*
Y252208D01*
X347164D01*
Y252293D01*
Y252378D01*
Y252462D01*
X347249D01*
Y252547D01*
Y252632D01*
X347334D01*
Y252716D01*
Y252801D01*
X347418D01*
Y252886D01*
X347503D01*
Y252971D01*
X347588D01*
Y253056D01*
X347673D01*
Y253140D01*
X347758D01*
Y253225D01*
X347927D01*
Y253310D01*
X348012D01*
Y253395D01*
X348266D01*
Y253479D01*
X348605D01*
Y253564D01*
X349622D01*
Y253479D01*
D02*
G37*
G36*
X361487Y248479D02*
X361572D01*
Y248394D01*
Y248309D01*
Y248225D01*
Y248140D01*
Y248055D01*
X360894D01*
Y247971D01*
Y247886D01*
Y247801D01*
Y247716D01*
Y247632D01*
Y247547D01*
Y247462D01*
Y247377D01*
Y247292D01*
Y247208D01*
Y247123D01*
Y247038D01*
Y246954D01*
Y246869D01*
Y246784D01*
Y246699D01*
Y246615D01*
Y246530D01*
Y246445D01*
X360300D01*
Y246530D01*
Y246615D01*
Y246699D01*
Y246784D01*
Y246869D01*
Y246954D01*
Y247038D01*
Y247123D01*
Y247208D01*
Y247292D01*
Y247377D01*
Y247462D01*
Y247547D01*
Y247632D01*
Y247716D01*
Y247801D01*
Y247886D01*
Y247971D01*
X360216D01*
Y248055D01*
X359623D01*
Y248140D01*
Y248225D01*
Y248309D01*
Y248394D01*
Y248479D01*
Y248564D01*
X359792D01*
Y248479D01*
X359877D01*
Y248564D01*
X361487D01*
Y248479D01*
D02*
G37*
G36*
X359283D02*
Y248394D01*
Y248309D01*
Y248225D01*
Y248140D01*
Y248055D01*
Y247971D01*
Y247886D01*
Y247801D01*
Y247716D01*
Y247632D01*
Y247547D01*
Y247462D01*
Y247377D01*
Y247292D01*
Y247208D01*
Y247123D01*
Y247038D01*
Y246954D01*
Y246869D01*
Y246784D01*
Y246699D01*
Y246615D01*
Y246530D01*
Y246445D01*
X358690D01*
Y246530D01*
X358606D01*
Y246615D01*
X358521D01*
Y246699D01*
Y246784D01*
X358436D01*
Y246869D01*
X358351D01*
Y246954D01*
Y247038D01*
X358266D01*
Y247123D01*
X358182D01*
Y247208D01*
Y247292D01*
X358097D01*
Y247377D01*
X358012D01*
Y247462D01*
X357927D01*
Y247377D01*
Y247292D01*
Y247208D01*
Y247123D01*
Y247038D01*
Y246954D01*
Y246869D01*
Y246784D01*
Y246699D01*
Y246615D01*
Y246530D01*
Y246445D01*
X357334D01*
Y246530D01*
Y246615D01*
Y246699D01*
Y246784D01*
Y246869D01*
Y246954D01*
Y247038D01*
Y247123D01*
Y247208D01*
Y247292D01*
Y247377D01*
Y247462D01*
Y247547D01*
Y247632D01*
Y247716D01*
Y247801D01*
Y247886D01*
Y247971D01*
Y248055D01*
Y248140D01*
Y248225D01*
Y248309D01*
Y248394D01*
Y248479D01*
X357419D01*
Y248564D01*
X357589D01*
Y248479D01*
X357673D01*
Y248564D01*
X357843D01*
Y248479D01*
X357927D01*
Y248394D01*
X358012D01*
Y248309D01*
X358097D01*
Y248225D01*
Y248140D01*
X358182D01*
Y248055D01*
X358266D01*
Y247971D01*
Y247886D01*
X358351D01*
Y247801D01*
X358436D01*
Y247716D01*
X358521D01*
Y247632D01*
Y247547D01*
X358606D01*
Y247462D01*
X358690D01*
Y247547D01*
Y247632D01*
Y247716D01*
Y247801D01*
Y247886D01*
Y247971D01*
Y248055D01*
Y248140D01*
Y248225D01*
Y248309D01*
Y248394D01*
Y248479D01*
X358775D01*
Y248564D01*
X359114D01*
Y248479D01*
X359199D01*
Y248564D01*
X359283D01*
Y248479D01*
D02*
G37*
G36*
X354453D02*
X354538D01*
Y248394D01*
Y248309D01*
Y248225D01*
Y248140D01*
Y248055D01*
Y247971D01*
Y247886D01*
Y247801D01*
Y247716D01*
Y247632D01*
Y247547D01*
Y247462D01*
Y247377D01*
Y247292D01*
Y247208D01*
Y247123D01*
Y247038D01*
Y246954D01*
Y246869D01*
Y246784D01*
Y246699D01*
Y246615D01*
Y246530D01*
Y246445D01*
X353944D01*
Y246530D01*
Y246615D01*
Y246699D01*
X353859D01*
Y246784D01*
X353944D01*
Y246869D01*
Y246954D01*
Y247038D01*
Y247123D01*
Y247208D01*
Y247292D01*
Y247377D01*
Y247462D01*
Y247547D01*
Y247632D01*
Y247716D01*
Y247801D01*
Y247886D01*
Y247971D01*
Y248055D01*
Y248140D01*
Y248225D01*
Y248309D01*
Y248394D01*
Y248479D01*
Y248564D01*
X354283D01*
Y248479D01*
X354368D01*
Y248564D01*
X354453D01*
Y248479D01*
D02*
G37*
G36*
X352503D02*
Y248394D01*
Y248309D01*
Y248225D01*
Y248140D01*
Y248055D01*
Y247971D01*
Y247886D01*
Y247801D01*
Y247716D01*
Y247632D01*
Y247547D01*
Y247462D01*
Y247377D01*
Y247292D01*
Y247208D01*
Y247123D01*
Y247038D01*
X352588D01*
Y246954D01*
X353520D01*
Y246869D01*
Y246784D01*
Y246699D01*
Y246615D01*
X353605D01*
Y246530D01*
X353520D01*
Y246445D01*
X351910D01*
Y246530D01*
Y246615D01*
Y246699D01*
Y246784D01*
Y246869D01*
Y246954D01*
Y247038D01*
Y247123D01*
Y247208D01*
Y247292D01*
Y247377D01*
Y247462D01*
Y247547D01*
Y247632D01*
Y247716D01*
Y247801D01*
Y247886D01*
Y247971D01*
Y248055D01*
Y248140D01*
Y248225D01*
Y248309D01*
Y248394D01*
Y248479D01*
X351995D01*
Y248564D01*
X352080D01*
Y248479D01*
X352165D01*
Y248564D01*
X352334D01*
Y248479D01*
X352419D01*
Y248564D01*
X352503D01*
Y248479D01*
D02*
G37*
G36*
X349283D02*
X349368D01*
Y248394D01*
Y248309D01*
Y248225D01*
Y248140D01*
Y248055D01*
Y247971D01*
Y247886D01*
Y247801D01*
Y247716D01*
Y247632D01*
Y247547D01*
Y247462D01*
Y247377D01*
Y247292D01*
Y247208D01*
Y247123D01*
Y247038D01*
Y246954D01*
Y246869D01*
Y246784D01*
Y246699D01*
Y246615D01*
Y246530D01*
Y246445D01*
X348859D01*
Y246530D01*
Y246615D01*
Y246699D01*
Y246784D01*
Y246869D01*
Y246954D01*
Y247038D01*
Y247123D01*
Y247208D01*
Y247292D01*
Y247377D01*
Y247462D01*
Y247547D01*
Y247632D01*
Y247716D01*
Y247801D01*
X348690D01*
Y247716D01*
Y247632D01*
Y247547D01*
Y247462D01*
Y247377D01*
X348605D01*
Y247292D01*
Y247208D01*
Y247123D01*
Y247038D01*
X348520D01*
Y246954D01*
Y246869D01*
Y246784D01*
Y246699D01*
X348435D01*
Y246615D01*
Y246530D01*
Y246445D01*
X347927D01*
Y246530D01*
Y246615D01*
Y246699D01*
X347842D01*
Y246784D01*
Y246869D01*
Y246954D01*
Y247038D01*
X347758D01*
Y247123D01*
Y247208D01*
Y247292D01*
Y247377D01*
X347673D01*
Y247462D01*
Y247547D01*
Y247632D01*
Y247716D01*
Y247801D01*
X347588D01*
Y247716D01*
X347503D01*
Y247632D01*
Y247547D01*
Y247462D01*
Y247377D01*
Y247292D01*
Y247208D01*
Y247123D01*
Y247038D01*
Y246954D01*
Y246869D01*
Y246784D01*
Y246699D01*
Y246615D01*
Y246530D01*
Y246445D01*
X347079D01*
Y246530D01*
X346995D01*
Y246615D01*
Y246699D01*
Y246784D01*
Y246869D01*
Y246954D01*
Y247038D01*
Y247123D01*
Y247208D01*
Y247292D01*
Y247377D01*
Y247462D01*
Y247547D01*
Y247632D01*
Y247716D01*
Y247801D01*
Y247886D01*
Y247971D01*
Y248055D01*
Y248140D01*
Y248225D01*
Y248309D01*
Y248394D01*
Y248479D01*
X347079D01*
Y248564D01*
X347758D01*
Y248479D01*
X347842D01*
Y248394D01*
X347927D01*
Y248309D01*
Y248225D01*
Y248140D01*
Y248055D01*
X348012D01*
Y247971D01*
Y247886D01*
Y247801D01*
Y247716D01*
X348096D01*
Y247632D01*
Y247547D01*
Y247462D01*
Y247377D01*
X348266D01*
Y247462D01*
Y247547D01*
Y247632D01*
Y247716D01*
X348351D01*
Y247801D01*
Y247886D01*
Y247971D01*
Y248055D01*
X348435D01*
Y248140D01*
Y248225D01*
Y248309D01*
Y248394D01*
X348520D01*
Y248479D01*
X348605D01*
Y248564D01*
X348690D01*
Y248479D01*
X348775D01*
Y248564D01*
X348944D01*
Y248479D01*
X349029D01*
Y248564D01*
X349113D01*
Y248479D01*
X349198D01*
Y248564D01*
X349283D01*
Y248479D01*
D02*
G37*
G36*
X343520D02*
X343774D01*
Y248394D01*
X343944D01*
Y248309D01*
X344028D01*
Y248225D01*
X344113D01*
Y248140D01*
Y248055D01*
X344198D01*
Y247971D01*
Y247886D01*
X343859D01*
Y247801D01*
X343689D01*
Y247886D01*
X343605D01*
Y247971D01*
X343520D01*
Y248055D01*
X343011D01*
Y247971D01*
X342927D01*
Y247886D01*
Y247801D01*
Y247716D01*
X342842D01*
Y247632D01*
Y247547D01*
Y247462D01*
Y247377D01*
Y247292D01*
Y247208D01*
X342927D01*
Y247123D01*
Y247038D01*
X343011D01*
Y246954D01*
X343096D01*
Y246869D01*
X343351D01*
Y246954D01*
X343520D01*
Y247038D01*
X343605D01*
Y247123D01*
Y247208D01*
X343689D01*
Y247292D01*
X343859D01*
Y247208D01*
X344113D01*
Y247123D01*
X344198D01*
Y247038D01*
Y246954D01*
X344113D01*
Y246869D01*
Y246784D01*
X344028D01*
Y246699D01*
X343944D01*
Y246615D01*
X343859D01*
Y246530D01*
X343689D01*
Y246445D01*
X342842D01*
Y246530D01*
X342672D01*
Y246615D01*
X342588D01*
Y246699D01*
X342503D01*
Y246784D01*
X342418D01*
Y246869D01*
X342334D01*
Y246954D01*
Y247038D01*
X342249D01*
Y247123D01*
Y247208D01*
Y247292D01*
Y247377D01*
Y247462D01*
Y247547D01*
Y247632D01*
Y247716D01*
Y247801D01*
Y247886D01*
Y247971D01*
X342334D01*
Y248055D01*
Y248140D01*
X342418D01*
Y248225D01*
X342503D01*
Y248309D01*
X342588D01*
Y248394D01*
X342672D01*
Y248479D01*
X343011D01*
Y248564D01*
X343520D01*
Y248479D01*
D02*
G37*
G36*
X350978D02*
X351317D01*
Y248394D01*
X351402D01*
Y248309D01*
X351486D01*
Y248225D01*
Y248140D01*
X351571D01*
Y248055D01*
Y247971D01*
Y247886D01*
Y247801D01*
Y247716D01*
Y247632D01*
X351486D01*
Y247547D01*
Y247462D01*
X351402D01*
Y247377D01*
X351232D01*
Y247292D01*
X350893D01*
Y247208D01*
X350809D01*
Y247292D01*
X350639D01*
Y247208D01*
X350469D01*
Y247123D01*
Y247038D01*
Y246954D01*
Y246869D01*
Y246784D01*
Y246699D01*
Y246615D01*
Y246530D01*
Y246445D01*
X349792D01*
Y246530D01*
Y246615D01*
Y246699D01*
Y246784D01*
Y246869D01*
Y246954D01*
Y247038D01*
Y247123D01*
Y247208D01*
Y247292D01*
Y247377D01*
Y247462D01*
Y247547D01*
Y247632D01*
Y247716D01*
Y247801D01*
Y247886D01*
Y247971D01*
Y248055D01*
Y248140D01*
Y248225D01*
Y248309D01*
Y248394D01*
Y248479D01*
X349876D01*
Y248564D01*
X350978D01*
Y248479D01*
D02*
G37*
G36*
X356063D02*
X356317D01*
Y248394D01*
X356402D01*
Y248309D01*
Y248225D01*
X356487D01*
Y248140D01*
Y248055D01*
Y247971D01*
X356572D01*
Y247886D01*
Y247801D01*
Y247716D01*
X356656D01*
Y247632D01*
Y247547D01*
Y247462D01*
X356741D01*
Y247377D01*
Y247292D01*
Y247208D01*
X356826D01*
Y247123D01*
Y247038D01*
X356910D01*
Y246954D01*
Y246869D01*
Y246784D01*
X356995D01*
Y246699D01*
Y246615D01*
X357080D01*
Y246530D01*
Y246445D01*
X356402D01*
Y246530D01*
Y246615D01*
Y246699D01*
X356317D01*
Y246784D01*
X355555D01*
Y246699D01*
X355470D01*
Y246615D01*
Y246530D01*
Y246445D01*
X354792D01*
Y246530D01*
X354876D01*
Y246615D01*
Y246699D01*
Y246784D01*
X354961D01*
Y246869D01*
Y246954D01*
Y247038D01*
X355046D01*
Y247123D01*
Y247208D01*
X355131D01*
Y247292D01*
Y247377D01*
Y247462D01*
X355216D01*
Y247547D01*
Y247632D01*
Y247716D01*
X355300D01*
Y247801D01*
Y247886D01*
X355385D01*
Y247971D01*
Y248055D01*
Y248140D01*
X355470D01*
Y248225D01*
Y248309D01*
Y248394D01*
X355555D01*
Y248479D01*
X355639D01*
Y248564D01*
X356063D01*
Y248479D01*
D02*
G37*
G36*
X345808D02*
X346147D01*
Y248394D01*
X346232D01*
Y248309D01*
X346402D01*
Y248225D01*
Y248140D01*
X346486D01*
Y248055D01*
X346571D01*
Y247971D01*
Y247886D01*
Y247801D01*
Y247716D01*
X346656D01*
Y247632D01*
Y247547D01*
Y247462D01*
Y247377D01*
Y247292D01*
X346571D01*
Y247208D01*
Y247123D01*
Y247038D01*
Y246954D01*
X346486D01*
Y246869D01*
X346402D01*
Y246784D01*
Y246699D01*
X346317D01*
Y246615D01*
X346147D01*
Y246530D01*
X345978D01*
Y246445D01*
X345130D01*
Y246530D01*
X344961D01*
Y246615D01*
X344791D01*
Y246699D01*
X344707D01*
Y246784D01*
X344622D01*
Y246869D01*
Y246954D01*
X344537D01*
Y247038D01*
Y247123D01*
Y247208D01*
Y247292D01*
X344452D01*
Y247377D01*
Y247462D01*
Y247547D01*
Y247632D01*
Y247716D01*
Y247801D01*
X344537D01*
Y247886D01*
Y247971D01*
Y248055D01*
X344622D01*
Y248140D01*
X344707D01*
Y248225D01*
Y248309D01*
X344791D01*
Y248394D01*
X344961D01*
Y248479D01*
X345215D01*
Y248564D01*
X345808D01*
Y248479D01*
D02*
G37*
G36*
X94400Y299500D02*
X53500D01*
Y308200D01*
X94400D01*
Y299500D01*
D02*
G37*
G36*
X127491Y211000D02*
X54109D01*
Y220000D01*
X127491D01*
Y211000D01*
D02*
G37*
G36*
X247969Y242199D02*
X249276D01*
Y241318D01*
X247969D01*
Y240000D01*
X247066D01*
Y241318D01*
X245759D01*
Y242199D01*
X247066D01*
Y243520D01*
X247969D01*
Y242199D01*
D02*
G37*
G36*
X114031Y25137D02*
X114091Y25132D01*
X114102D01*
X114135Y25126D01*
X114173Y25115D01*
X114206Y25104D01*
X114211Y25099D01*
X114228Y25093D01*
X114250Y25077D01*
X114266Y25061D01*
X114271Y25055D01*
X114277Y25044D01*
X114282Y25028D01*
Y25006D01*
Y19650D01*
X115402D01*
X115423Y19639D01*
X115451Y19628D01*
X115456Y19622D01*
X115473Y19612D01*
X115489Y19590D01*
X115505Y19562D01*
X115511Y19557D01*
X115516Y19535D01*
X115527Y19502D01*
X115538Y19464D01*
X115543Y19453D01*
X115549Y19426D01*
X115554Y19377D01*
Y19317D01*
Y19311D01*
Y19300D01*
Y19284D01*
Y19267D01*
X115549Y19213D01*
X115538Y19164D01*
Y19153D01*
X115527Y19131D01*
X115516Y19098D01*
X115500Y19065D01*
X115494Y19060D01*
X115483Y19049D01*
X115467Y19033D01*
X115445Y19016D01*
X115440D01*
X115423Y19011D01*
X115402Y19005D01*
X115380Y19000D01*
X112175D01*
X112153Y19005D01*
X112131Y19016D01*
X112126Y19022D01*
X112115Y19027D01*
X112098Y19044D01*
X112076Y19065D01*
X112071Y19071D01*
X112065Y19093D01*
X112049Y19126D01*
X112038Y19164D01*
Y19169D01*
Y19175D01*
X112033Y19207D01*
X112027Y19257D01*
Y19317D01*
Y19322D01*
Y19333D01*
Y19349D01*
Y19366D01*
X112033Y19415D01*
X112038Y19464D01*
Y19470D01*
X112044Y19475D01*
X112049Y19497D01*
X112060Y19530D01*
X112071Y19562D01*
X112076Y19568D01*
X112087Y19590D01*
X112104Y19606D01*
X112126Y19628D01*
X112131Y19633D01*
X112147Y19639D01*
X112169Y19644D01*
X112197Y19650D01*
X113469D01*
Y24291D01*
X112284Y23586D01*
X112278D01*
X112267Y23581D01*
X112235Y23559D01*
X112186Y23543D01*
X112142Y23526D01*
X112109D01*
X112082Y23532D01*
X112055Y23548D01*
X112049Y23554D01*
X112038Y23575D01*
X112022Y23608D01*
X112011Y23652D01*
Y23657D01*
Y23663D01*
X112005Y23679D01*
Y23701D01*
X112000Y23756D01*
Y23827D01*
Y23832D01*
Y23843D01*
Y23876D01*
Y23920D01*
X112005Y23963D01*
Y23969D01*
Y23974D01*
X112011Y23996D01*
X112016Y24029D01*
X112022Y24061D01*
X112027Y24067D01*
X112033Y24083D01*
X112065Y24127D01*
X112071Y24132D01*
X112087Y24143D01*
X112109Y24160D01*
X112136Y24182D01*
X113540Y25082D01*
X113545Y25088D01*
X113556Y25093D01*
X113589Y25104D01*
X113594D01*
X113611Y25110D01*
X113633Y25121D01*
X113660Y25126D01*
X113665D01*
X113687Y25132D01*
X113720Y25137D01*
X113769D01*
X113796Y25142D01*
X113966D01*
X114031Y25137D01*
D02*
G37*
G36*
X30636Y140496D02*
X30641D01*
X30645D01*
X30663Y140491D01*
X30691Y140486D01*
X30718Y140482D01*
X30722Y140477D01*
X30736Y140473D01*
X30772Y140445D01*
X30777Y140441D01*
X30786Y140427D01*
X30800Y140409D01*
X30818Y140386D01*
X31569Y139217D01*
X31573Y139212D01*
X31578Y139203D01*
X31587Y139176D01*
Y139171D01*
X31591Y139158D01*
X31600Y139140D01*
X31605Y139117D01*
Y139112D01*
X31610Y139094D01*
X31614Y139067D01*
Y139026D01*
X31619Y139003D01*
Y138862D01*
X31614Y138807D01*
X31610Y138757D01*
Y138748D01*
X31605Y138721D01*
X31596Y138689D01*
X31587Y138662D01*
X31582Y138657D01*
X31578Y138644D01*
X31564Y138625D01*
X31550Y138612D01*
X31546Y138607D01*
X31537Y138603D01*
X31523Y138598D01*
X31505D01*
X27041D01*
Y137665D01*
X27032Y137647D01*
X27023Y137624D01*
X27019Y137620D01*
X27010Y137606D01*
X26991Y137593D01*
X26969Y137579D01*
X26964Y137574D01*
X26946Y137570D01*
X26919Y137561D01*
X26887Y137552D01*
X26878Y137547D01*
X26855Y137542D01*
X26814Y137538D01*
X26764D01*
X26759D01*
X26750D01*
X26737D01*
X26723D01*
X26677Y137542D01*
X26636Y137552D01*
X26627D01*
X26609Y137561D01*
X26582Y137570D01*
X26555Y137583D01*
X26550Y137588D01*
X26541Y137597D01*
X26527Y137611D01*
X26514Y137629D01*
Y137634D01*
X26509Y137647D01*
X26505Y137665D01*
X26500Y137683D01*
Y140354D01*
X26505Y140373D01*
X26514Y140391D01*
X26518Y140395D01*
X26523Y140404D01*
X26536Y140418D01*
X26555Y140436D01*
X26559Y140441D01*
X26577Y140445D01*
X26605Y140459D01*
X26636Y140468D01*
X26641D01*
X26646D01*
X26673Y140473D01*
X26714Y140477D01*
X26764D01*
X26768D01*
X26778D01*
X26791D01*
X26805D01*
X26846Y140473D01*
X26887Y140468D01*
X26891D01*
X26896Y140464D01*
X26914Y140459D01*
X26941Y140450D01*
X26969Y140441D01*
X26973Y140436D01*
X26991Y140427D01*
X27005Y140414D01*
X27023Y140395D01*
X27028Y140391D01*
X27032Y140377D01*
X27037Y140359D01*
X27041Y140336D01*
Y139276D01*
X30909D01*
X30322Y140263D01*
Y140268D01*
X30318Y140277D01*
X30299Y140304D01*
X30286Y140345D01*
X30272Y140382D01*
Y140409D01*
X30277Y140432D01*
X30290Y140454D01*
X30295Y140459D01*
X30313Y140468D01*
X30340Y140482D01*
X30377Y140491D01*
X30381D01*
X30386D01*
X30399Y140496D01*
X30417D01*
X30463Y140500D01*
X30522D01*
X30527D01*
X30536D01*
X30563D01*
X30599D01*
X30636Y140496D01*
D02*
G37*
%LPC*%
G36*
X344537Y253903D02*
X343520D01*
Y253818D01*
Y253733D01*
Y253649D01*
Y253564D01*
Y253479D01*
Y253395D01*
Y253310D01*
Y253225D01*
Y253140D01*
Y253056D01*
Y252971D01*
Y252886D01*
X344537D01*
Y252971D01*
X344707D01*
Y253056D01*
X344791D01*
Y253140D01*
X344876D01*
Y253225D01*
Y253310D01*
Y253395D01*
Y253479D01*
Y253564D01*
Y253649D01*
X344791D01*
Y253733D01*
X344707D01*
Y253818D01*
X344537D01*
Y253903D01*
D02*
G37*
G36*
X349368Y252632D02*
X348775D01*
Y252547D01*
X348690D01*
Y252462D01*
X348605D01*
Y252378D01*
X348520D01*
Y252293D01*
Y252208D01*
X348435D01*
Y252123D01*
Y252039D01*
Y251954D01*
Y251869D01*
Y251784D01*
Y251699D01*
Y251615D01*
Y251530D01*
Y251445D01*
Y251361D01*
Y251276D01*
X348520D01*
Y251191D01*
Y251106D01*
X348605D01*
Y251022D01*
X348690D01*
Y250937D01*
X348775D01*
Y250852D01*
X349029D01*
Y250767D01*
X349113D01*
Y250852D01*
X349452D01*
Y250937D01*
X349537D01*
Y251022D01*
X349622D01*
Y251106D01*
X349707D01*
Y251191D01*
Y251276D01*
Y251361D01*
Y251445D01*
X349792D01*
Y251530D01*
Y251615D01*
Y251699D01*
Y251784D01*
Y251869D01*
Y251954D01*
Y252039D01*
Y252123D01*
X349707D01*
Y252208D01*
Y252293D01*
Y252378D01*
X349622D01*
Y252462D01*
X349537D01*
Y252547D01*
X349368D01*
Y252632D01*
D02*
G37*
G36*
X350809Y248140D02*
X350469D01*
Y248055D01*
Y247971D01*
Y247886D01*
Y247801D01*
Y247716D01*
Y247632D01*
X350724D01*
Y247716D01*
X350893D01*
Y247801D01*
Y247886D01*
Y247971D01*
Y248055D01*
X350809D01*
Y248140D01*
D02*
G37*
G36*
X355978Y247886D02*
X355893D01*
Y247801D01*
X355809D01*
Y247716D01*
Y247632D01*
Y247547D01*
X355724D01*
Y247462D01*
Y247377D01*
Y247292D01*
Y247208D01*
X356148D01*
Y247292D01*
Y247377D01*
Y247462D01*
X356063D01*
Y247547D01*
Y247632D01*
Y247716D01*
X355978D01*
Y247801D01*
Y247886D01*
D02*
G37*
G36*
X345808Y248055D02*
X345300D01*
Y247971D01*
X345215D01*
Y247886D01*
X345130D01*
Y247801D01*
Y247716D01*
Y247632D01*
Y247547D01*
Y247462D01*
Y247377D01*
Y247292D01*
Y247208D01*
Y247123D01*
X345215D01*
Y247038D01*
X345300D01*
Y246954D01*
X345385D01*
Y246869D01*
X345639D01*
Y246954D01*
X345808D01*
Y247038D01*
X345893D01*
Y247123D01*
Y247208D01*
X345978D01*
Y247292D01*
Y247377D01*
Y247462D01*
Y247547D01*
Y247632D01*
Y247716D01*
Y247801D01*
X345893D01*
Y247886D01*
Y247971D01*
X345808D01*
Y248055D01*
D02*
G37*
G36*
X59975Y306497D02*
X55446D01*
D01*
X57862D01*
X57737Y306494D01*
X57614Y306483D01*
X57496Y306468D01*
X57381Y306449D01*
X57274Y306427D01*
X57170Y306397D01*
X57074Y306371D01*
X56985Y306342D01*
X56908Y306312D01*
X56834Y306287D01*
X56771Y306261D01*
X56719Y306235D01*
X56675Y306216D01*
X56645Y306201D01*
X56627Y306190D01*
X56619Y306187D01*
X56516Y306124D01*
X56419Y306057D01*
X56331Y305987D01*
X56245Y305913D01*
X56168Y305839D01*
X56098Y305765D01*
X56031Y305687D01*
X55975Y305617D01*
X55924Y305550D01*
X55875Y305484D01*
X55839Y305428D01*
X55805Y305380D01*
X55783Y305336D01*
X55765Y305306D01*
X55753Y305287D01*
X55750Y305280D01*
X55698Y305165D01*
X55650Y305051D01*
X55609Y304932D01*
X55576Y304814D01*
X55546Y304695D01*
X55520Y304577D01*
X55502Y304466D01*
X55483Y304362D01*
X55472Y304263D01*
X55461Y304170D01*
X55457Y304089D01*
X55450Y304018D01*
Y303963D01*
X55446Y303941D01*
Y303944D01*
Y301203D01*
Y303885D01*
X55450Y303748D01*
X55457Y303615D01*
X55472Y303486D01*
X55487Y303363D01*
X55509Y303241D01*
X55531Y303130D01*
X55557Y303023D01*
X55583Y302923D01*
X55605Y302834D01*
X55631Y302753D01*
X55654Y302683D01*
X55676Y302624D01*
X55690Y302575D01*
X55705Y302542D01*
X55713Y302520D01*
X55716Y302516D01*
Y302512D01*
X55768Y302398D01*
X55827Y302287D01*
X55890Y302187D01*
X55953Y302091D01*
X56020Y302006D01*
X56086Y301924D01*
X56149Y301854D01*
X56212Y301787D01*
X56271Y301728D01*
X56327Y301680D01*
X56375Y301636D01*
X56419Y301602D01*
X56456Y301576D01*
X56482Y301554D01*
X56497Y301543D01*
X56504Y301539D01*
X56604Y301480D01*
X56712Y301428D01*
X56823Y301384D01*
X56934Y301343D01*
X57045Y301314D01*
X57159Y301284D01*
X57267Y301262D01*
X57374Y301243D01*
X57470Y301232D01*
X57563Y301221D01*
X57644Y301214D01*
X57714Y301206D01*
X57770D01*
X57796Y301203D01*
X57851D01*
X57999Y301206D01*
X58140Y301221D01*
X58273Y301243D01*
X58403Y301269D01*
X58521Y301303D01*
X58632Y301340D01*
X58736Y301380D01*
X58828Y301421D01*
X58913Y301462D01*
X58987Y301502D01*
X59054Y301539D01*
X59106Y301573D01*
X59150Y301599D01*
X59180Y301621D01*
X59198Y301636D01*
X59206Y301639D01*
X59305Y301728D01*
X59398Y301821D01*
X59483Y301920D01*
X59561Y302024D01*
X59631Y302131D01*
X59694Y302235D01*
X59749Y302339D01*
X59798Y302442D01*
X59842Y302538D01*
X59879Y302627D01*
X59908Y302705D01*
X59934Y302775D01*
X59953Y302831D01*
X59960Y302857D01*
X59964Y302875D01*
X59968Y302890D01*
X59971Y302901D01*
X59975Y302908D01*
Y302912D01*
X59298Y303082D01*
X59268Y302964D01*
X59235Y302857D01*
X59198Y302753D01*
X59154Y302660D01*
X59113Y302572D01*
X59065Y302490D01*
X59021Y302420D01*
X58976Y302353D01*
X58935Y302298D01*
X58895Y302246D01*
X58858Y302205D01*
X58824Y302172D01*
X58798Y302143D01*
X58780Y302124D01*
X58765Y302113D01*
X58762Y302109D01*
X58684Y302054D01*
X58606Y302002D01*
X58525Y301958D01*
X58443Y301920D01*
X58362Y301891D01*
X58280Y301865D01*
X58203Y301843D01*
X58129Y301824D01*
X58062Y301810D01*
X57996Y301802D01*
X57940Y301795D01*
X57892Y301787D01*
X57851D01*
X57822Y301784D01*
X57796D01*
X57711Y301787D01*
X57626Y301795D01*
X57544Y301806D01*
X57463Y301821D01*
X57389Y301839D01*
X57315Y301861D01*
X57248Y301880D01*
X57185Y301906D01*
X57130Y301928D01*
X57078Y301946D01*
X57034Y301969D01*
X56997Y301987D01*
X56967Y302002D01*
X56945Y302013D01*
X56930Y302020D01*
X56926Y302024D01*
X56852Y302072D01*
X56786Y302124D01*
X56723Y302179D01*
X56664Y302239D01*
X56612Y302298D01*
X56564Y302361D01*
X56519Y302420D01*
X56479Y302476D01*
X56445Y302531D01*
X56416Y302583D01*
X56390Y302631D01*
X56371Y302672D01*
X56353Y302705D01*
X56342Y302727D01*
X56338Y302746D01*
X56334Y302749D01*
X56301Y302842D01*
X56271Y302938D01*
X56245Y303034D01*
X56227Y303134D01*
X56190Y303323D01*
X56179Y303415D01*
X56168Y303504D01*
X56160Y303582D01*
X56157Y303656D01*
X56153Y303722D01*
X56149Y303778D01*
X56146Y303826D01*
Y303859D01*
Y303881D01*
Y303889D01*
X56149Y303985D01*
X56153Y304078D01*
X56172Y304255D01*
X56183Y304340D01*
X56197Y304422D01*
X56212Y304499D01*
X56227Y304570D01*
X56242Y304636D01*
X56253Y304695D01*
X56268Y304747D01*
X56279Y304792D01*
X56290Y304825D01*
X56297Y304851D01*
X56305Y304869D01*
Y304873D01*
X56338Y304962D01*
X56375Y305043D01*
X56416Y305121D01*
X56460Y305191D01*
X56504Y305261D01*
X56549Y305324D01*
X56597Y305380D01*
X56641Y305432D01*
X56686Y305476D01*
X56726Y305517D01*
X56763Y305550D01*
X56797Y305580D01*
X56823Y305602D01*
X56841Y305620D01*
X56856Y305628D01*
X56860Y305632D01*
X56937Y305683D01*
X57019Y305724D01*
X57100Y305765D01*
X57182Y305798D01*
X57267Y305824D01*
X57348Y305846D01*
X57426Y305865D01*
X57503Y305879D01*
X57574Y305894D01*
X57640Y305902D01*
X57700Y305909D01*
X57751Y305913D01*
X57792Y305916D01*
X57848D01*
X57944Y305913D01*
X58033Y305905D01*
X58118Y305894D01*
X58199Y305876D01*
X58273Y305857D01*
X58343Y305835D01*
X58406Y305813D01*
X58465Y305791D01*
X58517Y305765D01*
X58565Y305743D01*
X58606Y305720D01*
X58639Y305702D01*
X58665Y305683D01*
X58684Y305672D01*
X58695Y305665D01*
X58699Y305661D01*
X58762Y305609D01*
X58821Y305554D01*
X58872Y305491D01*
X58924Y305428D01*
X58972Y305358D01*
X59013Y305291D01*
X59054Y305224D01*
X59087Y305158D01*
X59117Y305095D01*
X59146Y305036D01*
X59168Y304984D01*
X59187Y304940D01*
X59202Y304899D01*
X59213Y304873D01*
X59217Y304855D01*
X59220Y304847D01*
X59886Y305003D01*
X59846Y305132D01*
X59794Y305254D01*
X59742Y305369D01*
X59683Y305476D01*
X59624Y305572D01*
X59564Y305665D01*
X59501Y305746D01*
X59442Y305820D01*
X59383Y305887D01*
X59331Y305942D01*
X59283Y305994D01*
X59239Y306031D01*
X59206Y306064D01*
X59176Y306087D01*
X59161Y306101D01*
X59154Y306105D01*
X59054Y306175D01*
X58950Y306235D01*
X58839Y306287D01*
X58732Y306331D01*
X58625Y306371D01*
X58517Y306401D01*
X58414Y306427D01*
X58314Y306449D01*
X58218Y306464D01*
X58132Y306475D01*
X58059Y306486D01*
X57992Y306490D01*
X57936Y306494D01*
X57914Y306497D01*
X59975D01*
D02*
G37*
G36*
X92454Y306409D02*
Y303874D01*
X92450Y304000D01*
X92446Y304122D01*
X92435Y304240D01*
X92420Y304351D01*
X92406Y304459D01*
X92391Y304559D01*
X92372Y304655D01*
X92354Y304740D01*
X92332Y304818D01*
X92313Y304888D01*
X92298Y304947D01*
X92283Y304999D01*
X92269Y305040D01*
X92258Y305065D01*
X92254Y305084D01*
X92250Y305091D01*
X92210Y305188D01*
X92165Y305284D01*
X92121Y305369D01*
X92073Y305454D01*
X92021Y305532D01*
X91969Y305602D01*
X91921Y305669D01*
X91873Y305732D01*
X91825Y305783D01*
X91784Y305831D01*
X91743Y305872D01*
X91710Y305905D01*
X91684Y305931D01*
X91662Y305954D01*
X91647Y305965D01*
X91643Y305968D01*
X91584Y306016D01*
X91521Y306061D01*
X91395Y306135D01*
X91270Y306201D01*
X91155Y306249D01*
X91100Y306272D01*
X91051Y306287D01*
X91007Y306301D01*
X90970Y306316D01*
X90937Y306324D01*
X90914Y306331D01*
X90900Y306335D01*
X90896D01*
X90833Y306349D01*
X90767Y306361D01*
X90696Y306368D01*
X90622Y306379D01*
X90470Y306390D01*
X90323Y306401D01*
X90252D01*
X90189Y306405D01*
X90130D01*
X90082Y306409D01*
X92454D01*
X88221D01*
Y301288D01*
X90067D01*
X90234Y301291D01*
X90315Y301295D01*
X90389Y301303D01*
X90463Y301306D01*
X90530Y301314D01*
X90593Y301321D01*
X90652Y301332D01*
X90704Y301340D01*
X90752Y301347D01*
X90792Y301354D01*
X90826Y301358D01*
X90852Y301365D01*
X90874Y301369D01*
X90885Y301373D01*
X90889D01*
X91018Y301410D01*
X91136Y301451D01*
X91188Y301473D01*
X91240Y301491D01*
X91285Y301514D01*
X91329Y301536D01*
X91366Y301554D01*
X91399Y301573D01*
X91429Y301588D01*
X91455Y301602D01*
X91473Y301613D01*
X91488Y301621D01*
X91495Y301628D01*
X91499D01*
X91592Y301698D01*
X91680Y301772D01*
X91758Y301850D01*
X91828Y301924D01*
X91884Y301991D01*
X91910Y302020D01*
X91928Y302046D01*
X91943Y302065D01*
X91954Y302083D01*
X91962Y302091D01*
X91965Y302094D01*
X92043Y302213D01*
X92110Y302335D01*
X92172Y302461D01*
X92221Y302579D01*
X92243Y302631D01*
X92261Y302683D01*
X92280Y302727D01*
X92291Y302764D01*
X92302Y302794D01*
X92309Y302820D01*
X92317Y302834D01*
Y302838D01*
X92361Y303012D01*
X92395Y303190D01*
X92420Y303363D01*
X92428Y303449D01*
X92435Y303526D01*
X92443Y303600D01*
X92446Y303667D01*
X92450Y303726D01*
Y303774D01*
X92454Y303819D01*
Y301462D01*
Y306409D01*
D02*
G37*
G36*
X87081D02*
X84237D01*
X86430D01*
Y302387D01*
X83744Y306409D01*
X83048D01*
Y301288D01*
X83700D01*
Y305306D01*
X86382Y301288D01*
X87081D01*
Y306409D01*
D02*
G37*
G36*
X77199Y306409D02*
X76285D01*
X75056Y302845D01*
X75023Y302746D01*
X74990Y302653D01*
X74964Y302568D01*
X74934Y302486D01*
X74912Y302413D01*
X74890Y302346D01*
X74868Y302287D01*
X74849Y302231D01*
X74834Y302183D01*
X74819Y302143D01*
X74808Y302105D01*
X74801Y302076D01*
X74794Y302054D01*
X74786Y302039D01*
X74783Y302028D01*
Y302024D01*
X74768Y302076D01*
X74749Y302128D01*
X74731Y302187D01*
X74712Y302250D01*
X74672Y302376D01*
X74631Y302498D01*
X74612Y302557D01*
X74594Y302609D01*
X74579Y302657D01*
X74564Y302701D01*
X74553Y302734D01*
X74546Y302760D01*
X74542Y302775D01*
X74538Y302783D01*
X73325Y306409D01*
X72307D01*
Y301288D01*
X73951D01*
X72962D01*
Y305646D01*
X74438Y301288D01*
X75938D01*
X75053D01*
X76544Y305572D01*
Y301288D01*
X77199D01*
Y306409D01*
D02*
G37*
G36*
X82516Y306409D02*
X79696Y306409D01*
X77731Y301288D01*
X78446D01*
X79004Y302838D01*
X81154D01*
X81746Y301288D01*
X80921D01*
X82516Y301288D01*
X80421Y306409D01*
X82516Y306409D01*
D02*
G37*
G36*
X71242Y306409D02*
X66350D01*
Y301288D01*
X67005D01*
Y305646D01*
X68481Y301288D01*
X69096D01*
X70587Y305572D01*
Y301288D01*
X71242D01*
Y306409D01*
D02*
G37*
G36*
X65499Y306497D02*
X60600D01*
Y303782D01*
X60604Y303656D01*
X60611Y303534D01*
X60626Y303415D01*
X60645Y303297D01*
X60667Y303186D01*
X60693Y303082D01*
X60719Y302982D01*
X60748Y302890D01*
X60774Y302805D01*
X60800Y302731D01*
X60826Y302664D01*
X60848Y302609D01*
X60867Y302561D01*
X60882Y302527D01*
X60889Y302509D01*
X60893Y302501D01*
X60952Y302390D01*
X61015Y302287D01*
X61081Y302190D01*
X61152Y302098D01*
X61222Y302013D01*
X61292Y301935D01*
X61366Y301865D01*
X61433Y301798D01*
X61500Y301743D01*
X61559Y301691D01*
X61614Y301650D01*
X61662Y301613D01*
X61699Y301587D01*
X61729Y301565D01*
X61747Y301554D01*
X61755Y301551D01*
X61862Y301488D01*
X61973Y301436D01*
X62088Y301388D01*
X62199Y301351D01*
X62306Y301317D01*
X62413Y301288D01*
X62517Y301266D01*
X62617Y301247D01*
X62706Y301232D01*
X62791Y301221D01*
X62865Y301214D01*
X62928Y301210D01*
X62980Y301206D01*
X63016Y301203D01*
X63050D01*
X63172Y301206D01*
X63294Y301218D01*
X63412Y301232D01*
X63523Y301251D01*
X63634Y301277D01*
X63734Y301303D01*
X63831Y301332D01*
X63923Y301362D01*
X64004Y301388D01*
X64075Y301417D01*
X64138Y301443D01*
X64193Y301469D01*
X64234Y301488D01*
X64267Y301502D01*
X64286Y301514D01*
X64293Y301517D01*
X64397Y301580D01*
X64496Y301647D01*
X64589Y301721D01*
X64678Y301795D01*
X64755Y301872D01*
X64829Y301950D01*
X64896Y302024D01*
X64955Y302098D01*
X65007Y302168D01*
X65055Y302235D01*
X65096Y302294D01*
X65126Y302346D01*
X65151Y302387D01*
X65170Y302420D01*
X65181Y302438D01*
X65185Y302446D01*
X65240Y302564D01*
X65288Y302683D01*
X65329Y302801D01*
X65366Y302923D01*
X65396Y303042D01*
X65421Y303156D01*
X65444Y303267D01*
X65459Y303375D01*
X65473Y303471D01*
X65484Y303563D01*
X65488Y303641D01*
X65496Y303708D01*
Y303763D01*
X65499Y303789D01*
Y303841D01*
X65496Y303981D01*
X65488Y304118D01*
X65473Y304252D01*
X65451Y304377D01*
X65429Y304499D01*
X65403Y304610D01*
X65377Y304718D01*
X65351Y304814D01*
X65322Y304903D01*
X65296Y304980D01*
X65270Y305051D01*
X65248Y305106D01*
X65229Y305154D01*
X65214Y305188D01*
X65203Y305206D01*
X65200Y305213D01*
X65140Y305324D01*
X65077Y305428D01*
X65007Y305524D01*
X64937Y305617D01*
X64867Y305702D01*
X64793Y305780D01*
X64722Y305850D01*
X64652Y305913D01*
X64585Y305968D01*
X64526Y306020D01*
X64471Y306061D01*
X64423Y306094D01*
X64385Y306124D01*
X64356Y306142D01*
X64337Y306153D01*
X64330Y306157D01*
X64223Y306216D01*
X64112Y306268D01*
X64001Y306316D01*
X63890Y306353D01*
X63782Y306386D01*
X63675Y306416D01*
X63572Y306438D01*
X63475Y306457D01*
X63386Y306468D01*
X63305Y306479D01*
X63231Y306486D01*
X63168Y306494D01*
X63120D01*
X63083Y306497D01*
X65499D01*
D02*
G37*
G36*
X63016Y301203D02*
D01*
X60600D01*
X63016D01*
D02*
G37*
%LPD*%
G36*
X90182Y305802D02*
X90274Y305794D01*
X90363Y305791D01*
X90441Y305780D01*
X90515Y305772D01*
X90578Y305761D01*
X90637Y305754D01*
X90685Y305743D01*
X90729Y305732D01*
X90767Y305724D01*
X90796Y305717D01*
X90818Y305709D01*
X90837Y305702D01*
X90844Y305698D01*
X90848D01*
X90918Y305669D01*
X90985Y305632D01*
X91048Y305591D01*
X91107Y305546D01*
X91162Y305498D01*
X91218Y305450D01*
X91266Y305402D01*
X91310Y305354D01*
X91351Y305306D01*
X91384Y305262D01*
X91414Y305221D01*
X91440Y305188D01*
X91462Y305158D01*
X91477Y305136D01*
X91484Y305121D01*
X91488Y305117D01*
X91536Y305032D01*
X91577Y304940D01*
X91610Y304843D01*
X91643Y304744D01*
X91669Y304640D01*
X91688Y304540D01*
X91706Y304436D01*
X91721Y304340D01*
X91732Y304248D01*
X91740Y304163D01*
X91747Y304085D01*
X91751Y304018D01*
X91754Y303963D01*
Y303941D01*
Y303922D01*
Y303904D01*
Y303893D01*
Y303889D01*
Y303885D01*
Y303778D01*
X91747Y303674D01*
X91743Y303578D01*
X91732Y303486D01*
X91721Y303400D01*
X91710Y303319D01*
X91699Y303241D01*
X91688Y303175D01*
X91673Y303112D01*
X91662Y303056D01*
X91651Y303008D01*
X91640Y302971D01*
X91629Y302938D01*
X91625Y302916D01*
X91618Y302901D01*
Y302897D01*
X91592Y302823D01*
X91562Y302753D01*
X91532Y302686D01*
X91503Y302624D01*
X91473Y302568D01*
X91440Y302513D01*
X91410Y302464D01*
X91381Y302420D01*
X91351Y302383D01*
X91325Y302346D01*
X91303Y302316D01*
X91285Y302294D01*
X91266Y302276D01*
X91255Y302261D01*
X91247Y302254D01*
X91244Y302250D01*
X91173Y302191D01*
X91100Y302135D01*
X91022Y302091D01*
X90948Y302054D01*
X90881Y302024D01*
X90855Y302009D01*
X90829Y302002D01*
X90811Y301994D01*
X90792Y301987D01*
X90785Y301983D01*
X90781D01*
X90726Y301969D01*
X90667Y301954D01*
X90537Y301932D01*
X90404Y301913D01*
X90278Y301902D01*
X90219Y301898D01*
X90163Y301895D01*
X90115D01*
X90075Y301891D01*
X88898D01*
Y305805D01*
X90082D01*
X90182Y305802D01*
D02*
G37*
G36*
X80062Y305791D02*
X80088Y305705D01*
X80147Y305528D01*
X80207Y305350D01*
X80236Y305265D01*
X80266Y305184D01*
X80295Y305106D01*
X80318Y305032D01*
X80344Y304969D01*
X80362Y304914D01*
X80381Y304869D01*
X80392Y304836D01*
X80399Y304814D01*
X80403Y304810D01*
Y304806D01*
X80939Y303389D01*
X79200D01*
X79763Y304892D01*
X79826Y305073D01*
X79881Y305251D01*
X79907Y305336D01*
X79929Y305413D01*
X79948Y305491D01*
X79970Y305565D01*
X79985Y305632D01*
X80000Y305691D01*
X80011Y305743D01*
X80022Y305787D01*
X80029Y305824D01*
X80036Y305850D01*
X80040Y305865D01*
Y305872D01*
X80062Y305791D01*
D02*
G37*
G36*
X69099Y302845D02*
X69066Y302746D01*
X69033Y302653D01*
X69007Y302568D01*
X68977Y302486D01*
X68955Y302413D01*
X68933Y302346D01*
X68911Y302287D01*
X68892Y302231D01*
X68877Y302183D01*
X68862Y302143D01*
X68851Y302105D01*
X68844Y302076D01*
X68837Y302054D01*
X68829Y302039D01*
X68826Y302028D01*
Y302024D01*
X68811Y302076D01*
X68792Y302128D01*
X68774Y302187D01*
X68755Y302250D01*
X68714Y302376D01*
X68674Y302498D01*
X68655Y302557D01*
X68637Y302609D01*
X68622Y302657D01*
X68607Y302701D01*
X68596Y302734D01*
X68589Y302760D01*
X68585Y302775D01*
X68581Y302783D01*
X67368Y306409D01*
X70328D01*
X69099Y302845D01*
D02*
G37*
G36*
X62950Y306494D02*
X62854Y306490D01*
X62757Y306479D01*
X62665Y306468D01*
X62487Y306431D01*
X62317Y306386D01*
X62162Y306331D01*
X62018Y306268D01*
X61884Y306205D01*
X61762Y306138D01*
X61655Y306068D01*
X61559Y306005D01*
X61477Y305942D01*
X61411Y305890D01*
X61355Y305842D01*
X61333Y305824D01*
X61318Y305805D01*
X61303Y305794D01*
X61292Y305783D01*
X61289Y305780D01*
X61285Y305776D01*
X61222Y305705D01*
X61163Y305635D01*
X61111Y305561D01*
X61059Y305484D01*
X60967Y305324D01*
X60889Y305162D01*
X60822Y304995D01*
X60767Y304829D01*
X60723Y304666D01*
X60685Y304507D01*
X60660Y304359D01*
X60637Y304222D01*
X60630Y304159D01*
X60623Y304100D01*
X60615Y304044D01*
X60611Y303993D01*
X60608Y303944D01*
X60604Y303904D01*
Y303867D01*
X60600Y303837D01*
Y306497D01*
X63050D01*
X62950Y306494D01*
D02*
G37*
G36*
X63146Y305909D02*
X63239Y305902D01*
X63327Y305890D01*
X63409Y305872D01*
X63490Y305854D01*
X63564Y305831D01*
X63634Y305809D01*
X63701Y305783D01*
X63760Y305761D01*
X63812Y305735D01*
X63856Y305713D01*
X63897Y305695D01*
X63927Y305676D01*
X63949Y305665D01*
X63964Y305658D01*
X63967Y305654D01*
X64041Y305602D01*
X64112Y305550D01*
X64175Y305491D01*
X64237Y305432D01*
X64293Y305373D01*
X64341Y305313D01*
X64389Y305254D01*
X64430Y305199D01*
X64467Y305143D01*
X64496Y305095D01*
X64522Y305047D01*
X64545Y305010D01*
X64563Y304977D01*
X64574Y304954D01*
X64582Y304936D01*
X64585Y304932D01*
X64622Y304843D01*
X64656Y304751D01*
X64685Y304658D01*
X64711Y304566D01*
X64730Y304473D01*
X64748Y304385D01*
X64763Y304296D01*
X64774Y304214D01*
X64781Y304137D01*
X64789Y304066D01*
X64793Y304004D01*
X64796Y303948D01*
X64800Y303904D01*
Y303870D01*
Y303852D01*
Y303844D01*
X64796Y303663D01*
X64778Y303497D01*
X64755Y303338D01*
X64722Y303190D01*
X64685Y303053D01*
X64644Y302927D01*
X64600Y302816D01*
X64552Y302712D01*
X64508Y302620D01*
X64460Y302542D01*
X64419Y302476D01*
X64382Y302420D01*
X64349Y302376D01*
X64326Y302346D01*
X64311Y302327D01*
X64304Y302320D01*
X64208Y302228D01*
X64108Y302143D01*
X64004Y302072D01*
X63897Y302009D01*
X63793Y301958D01*
X63690Y301913D01*
X63586Y301880D01*
X63490Y301850D01*
X63398Y301828D01*
X63313Y301813D01*
X63239Y301798D01*
X63172Y301791D01*
X63120Y301787D01*
X63098D01*
X63079Y301784D01*
X63046D01*
X62909Y301791D01*
X62776Y301806D01*
X62650Y301832D01*
X62536Y301865D01*
X62424Y301906D01*
X62321Y301950D01*
X62225Y301998D01*
X62140Y302050D01*
X62062Y302098D01*
X61992Y302146D01*
X61936Y302190D01*
X61884Y302231D01*
X61847Y302265D01*
X61818Y302291D01*
X61803Y302305D01*
X61796Y302313D01*
X61707Y302416D01*
X61633Y302527D01*
X61566Y302646D01*
X61511Y302764D01*
X61462Y302886D01*
X61422Y303008D01*
X61388Y303127D01*
X61363Y303241D01*
X61340Y303349D01*
X61326Y303449D01*
X61314Y303541D01*
X61307Y303619D01*
X61303Y303652D01*
Y303682D01*
Y303708D01*
X61300Y303730D01*
Y303748D01*
Y303759D01*
Y303767D01*
Y303770D01*
Y303878D01*
X61307Y303978D01*
X61311Y304078D01*
X61322Y304174D01*
X61333Y304263D01*
X61348Y304351D01*
X61381Y304514D01*
X61422Y304662D01*
X61462Y304799D01*
X61511Y304921D01*
X61559Y305029D01*
X61607Y305121D01*
X61655Y305199D01*
X61699Y305269D01*
X61736Y305321D01*
X61770Y305365D01*
X61796Y305395D01*
X61810Y305410D01*
X61818Y305417D01*
X61918Y305506D01*
X62021Y305580D01*
X62125Y305646D01*
X62228Y305705D01*
X62336Y305750D01*
X62436Y305791D01*
X62536Y305824D01*
X62632Y305850D01*
X62717Y305872D01*
X62798Y305887D01*
X62872Y305898D01*
X62935Y305905D01*
X62983Y305909D01*
X63020Y305913D01*
X63054D01*
X63146Y305909D01*
D02*
G37*
%LPC*%
G36*
X110643Y218147D02*
Y214562D01*
X109966Y214732D01*
X109936Y214614D01*
X109903Y214507D01*
X109866Y214403D01*
X109822Y214311D01*
X109781Y214222D01*
X109733Y214140D01*
X109688Y214070D01*
X109644Y214003D01*
X109603Y213948D01*
X109563Y213896D01*
X109526Y213855D01*
X109492Y213822D01*
X109467Y213792D01*
X109448Y213774D01*
X109433Y213763D01*
X109430Y213759D01*
X109352Y213704D01*
X109274Y213652D01*
X109193Y213608D01*
X109111Y213570D01*
X109030Y213541D01*
X108949Y213515D01*
X108871Y213493D01*
X108797Y213474D01*
X108730Y213459D01*
X108664Y213452D01*
X108608Y213445D01*
X108560Y213437D01*
X108519D01*
X108490Y213434D01*
X108464D01*
X108379Y213437D01*
X108294Y213445D01*
X108212Y213456D01*
X108131Y213471D01*
X108057Y213489D01*
X107983Y213511D01*
X107916Y213530D01*
X107853Y213556D01*
X107798Y213578D01*
X107746Y213596D01*
X107702Y213619D01*
X107665Y213637D01*
X107635Y213652D01*
X107613Y213663D01*
X107598Y213670D01*
X107594Y213674D01*
X107520Y213722D01*
X107454Y213774D01*
X107391Y213829D01*
X107332Y213889D01*
X107280Y213948D01*
X107232Y214011D01*
X107187Y214070D01*
X107147Y214125D01*
X107113Y214181D01*
X107084Y214233D01*
X107058Y214281D01*
X107039Y214322D01*
X107021Y214355D01*
X107010Y214377D01*
X107006Y214396D01*
X107002Y214399D01*
X106969Y214492D01*
X106939Y214588D01*
X106913Y214684D01*
X106895Y214784D01*
X106858Y214973D01*
X106847Y215065D01*
X106836Y215154D01*
X106828Y215232D01*
X106825Y215306D01*
X106821Y215372D01*
X106817Y215428D01*
X106814Y215476D01*
Y215509D01*
Y215531D01*
Y215539D01*
X106817Y215635D01*
X106821Y215728D01*
X106840Y215905D01*
X106851Y215990D01*
X106865Y216072D01*
X106880Y216149D01*
X106895Y216220D01*
X106910Y216286D01*
X106921Y216346D01*
X106936Y216397D01*
X106947Y216442D01*
X106958Y216475D01*
X106965Y216501D01*
X106973Y216519D01*
Y216523D01*
X107006Y216612D01*
X107043Y216693D01*
X107084Y216771D01*
X107128Y216841D01*
X107173Y216912D01*
X107217Y216974D01*
X107265Y217030D01*
X107309Y217082D01*
X107354Y217126D01*
X107395Y217167D01*
X107431Y217200D01*
X107465Y217230D01*
X107491Y217252D01*
X107509Y217270D01*
X107524Y217278D01*
X107528Y217282D01*
X107605Y217333D01*
X107687Y217374D01*
X107768Y217415D01*
X107850Y217448D01*
X107935Y217474D01*
X108016Y217496D01*
X108094Y217515D01*
X108171Y217530D01*
X108242Y217544D01*
X108308Y217552D01*
X108368Y217559D01*
X108419Y217563D01*
X108460Y217566D01*
X108516D01*
X108612Y217563D01*
X108701Y217555D01*
X108786Y217544D01*
X108867Y217526D01*
X108941Y217507D01*
X109011Y217485D01*
X109074Y217463D01*
X109134Y217441D01*
X109185Y217415D01*
X109233Y217393D01*
X109274Y217370D01*
X109307Y217352D01*
X109333Y217333D01*
X109352Y217322D01*
X109363Y217315D01*
X109367Y217311D01*
X109430Y217259D01*
X109489Y217204D01*
X109540Y217141D01*
X109592Y217078D01*
X109640Y217008D01*
X109681Y216941D01*
X109722Y216875D01*
X109755Y216808D01*
X109785Y216745D01*
X109814Y216686D01*
X109836Y216634D01*
X109855Y216590D01*
X109870Y216549D01*
X109881Y216523D01*
X109885Y216505D01*
X109888Y216497D01*
X110554Y216653D01*
X110514Y216782D01*
X110462Y216904D01*
X110410Y217019D01*
X110351Y217126D01*
X110292Y217222D01*
X110232Y217315D01*
X110169Y217396D01*
X110110Y217470D01*
X110051Y217537D01*
X109999Y217592D01*
X109951Y217644D01*
X109907Y217681D01*
X109873Y217715D01*
X109844Y217737D01*
X109829Y217752D01*
X109822Y217755D01*
X109722Y217826D01*
X109618Y217885D01*
X109507Y217936D01*
X109400Y217981D01*
X109293Y218022D01*
X109185Y218051D01*
X109082Y218077D01*
X108982Y218099D01*
X108886Y218114D01*
X108800Y218125D01*
X108727Y218136D01*
X108660Y218140D01*
X108604Y218144D01*
X108582Y218147D01*
X110643D01*
X106114D01*
X108530D01*
X108405Y218144D01*
X108282Y218133D01*
X108164Y218118D01*
X108049Y218099D01*
X107942Y218077D01*
X107838Y218047D01*
X107742Y218022D01*
X107653Y217992D01*
X107576Y217962D01*
X107502Y217936D01*
X107439Y217911D01*
X107387Y217885D01*
X107343Y217866D01*
X107313Y217851D01*
X107295Y217840D01*
X107287Y217837D01*
X107184Y217774D01*
X107087Y217707D01*
X106999Y217637D01*
X106913Y217563D01*
X106836Y217489D01*
X106765Y217415D01*
X106699Y217337D01*
X106643Y217267D01*
X106592Y217200D01*
X106544Y217134D01*
X106507Y217078D01*
X106473Y217030D01*
X106451Y216986D01*
X106432Y216956D01*
X106421Y216937D01*
X106418Y216930D01*
X106366Y216815D01*
X106318Y216701D01*
X106277Y216582D01*
X106244Y216464D01*
X106214Y216346D01*
X106188Y216227D01*
X106170Y216116D01*
X106151Y216013D01*
X106140Y215913D01*
X106129Y215820D01*
X106125Y215739D01*
X106118Y215668D01*
Y215613D01*
X106114Y215591D01*
Y215594D01*
Y215591D01*
Y215535D01*
X106118Y215398D01*
X106125Y215265D01*
X106140Y215136D01*
X106155Y215014D01*
X106177Y214891D01*
X106199Y214780D01*
X106225Y214673D01*
X106251Y214573D01*
X106273Y214484D01*
X106299Y214403D01*
X106322Y214333D01*
X106344Y214274D01*
X106359Y214225D01*
X106373Y214192D01*
X106381Y214170D01*
X106384Y214166D01*
Y214162D01*
X106436Y214048D01*
X106495Y213937D01*
X106558Y213837D01*
X106621Y213741D01*
X106688Y213656D01*
X106754Y213574D01*
X106817Y213504D01*
X106880Y213437D01*
X106939Y213378D01*
X106995Y213330D01*
X107043Y213286D01*
X107087Y213252D01*
X107124Y213226D01*
X107150Y213204D01*
X107165Y213193D01*
X107173Y213189D01*
X107272Y213130D01*
X107380Y213078D01*
X107491Y213034D01*
X107602Y212993D01*
X107713Y212964D01*
X107827Y212934D01*
X107935Y212912D01*
X108042Y212893D01*
X108138Y212882D01*
X108231Y212871D01*
X108312Y212864D01*
X108382Y212856D01*
X108438D01*
X108464Y212853D01*
X106114D01*
X110643D01*
Y218147D01*
D02*
G37*
G36*
X74180Y218059D02*
X71336D01*
X73528D01*
Y214037D01*
X70842Y218059D01*
X70147D01*
Y212938D01*
X70798D01*
Y216956D01*
X73480Y212938D01*
X74180D01*
Y218059D01*
D02*
G37*
G36*
X62310D02*
X61396D01*
X60168Y214495D01*
X60134Y214396D01*
X60101Y214303D01*
X60075Y214218D01*
X60046Y214137D01*
X60023Y214063D01*
X60001Y213996D01*
X59979Y213937D01*
X59961Y213881D01*
X59946Y213833D01*
X59931Y213792D01*
X59920Y213755D01*
X59912Y213726D01*
X59905Y213704D01*
X59898Y213689D01*
X59894Y213678D01*
Y213674D01*
X59879Y213726D01*
X59861Y213778D01*
X59842Y213837D01*
X59824Y213900D01*
X59783Y214026D01*
X59742Y214148D01*
X59724Y214207D01*
X59705Y214259D01*
X59690Y214307D01*
X59676Y214351D01*
X59664Y214385D01*
X59657Y214410D01*
X59653Y214425D01*
X59650Y214433D01*
X58436Y218059D01*
X57419D01*
Y212938D01*
X59062D01*
X58074D01*
Y217296D01*
X59550Y212938D01*
X61049D01*
X60164D01*
X61655Y217222D01*
Y212938D01*
X62310D01*
Y218059D01*
D02*
G37*
G36*
X124181Y218059D02*
D01*
Y213541D01*
X121662D01*
Y218059D01*
X120985D01*
Y212938D01*
X124181D01*
Y218059D01*
D02*
G37*
G36*
X115150D02*
X111091D01*
Y217456D01*
X112778D01*
Y212938D01*
X113455D01*
Y217456D01*
X115150D01*
Y213434D01*
Y218059D01*
D02*
G37*
G36*
X120359D02*
D01*
Y212938D01*
X119475Y214329D01*
X119375Y214477D01*
X119323Y214544D01*
X119275Y214610D01*
X119227Y214669D01*
X119179Y214725D01*
X119135Y214777D01*
X119094Y214825D01*
X119057Y214869D01*
X119020Y214906D01*
X118990Y214936D01*
X118964Y214965D01*
X118942Y214984D01*
X118927Y215002D01*
X118916Y215010D01*
X118913Y215014D01*
X118853Y215062D01*
X118790Y215106D01*
X118724Y215150D01*
X118657Y215187D01*
X118598Y215221D01*
X118572Y215235D01*
X118550Y215247D01*
X118532Y215258D01*
X118517Y215261D01*
X118509Y215269D01*
X118506D01*
X118639Y215291D01*
X118765Y215317D01*
X118879Y215350D01*
X118987Y215384D01*
X119083Y215424D01*
X119175Y215461D01*
X119253Y215502D01*
X119327Y215543D01*
X119390Y215583D01*
X119442Y215620D01*
X119490Y215654D01*
X119527Y215683D01*
X119556Y215709D01*
X119579Y215728D01*
X119590Y215739D01*
X119593Y215742D01*
X119656Y215813D01*
X119712Y215890D01*
X119760Y215964D01*
X119801Y216042D01*
X119834Y216120D01*
X119863Y216197D01*
X119886Y216271D01*
X119904Y216342D01*
X119919Y216408D01*
X119930Y216468D01*
X119938Y216523D01*
X119945Y216567D01*
Y216608D01*
X119949Y216638D01*
Y216653D01*
Y216660D01*
X119945Y216738D01*
X119941Y216815D01*
X119930Y216889D01*
X119915Y216960D01*
X119901Y217026D01*
X119882Y217089D01*
X119860Y217148D01*
X119841Y217204D01*
X119823Y217252D01*
X119801Y217296D01*
X119782Y217337D01*
X119767Y217370D01*
X119753Y217396D01*
X119745Y217415D01*
X119738Y217426D01*
X119734Y217430D01*
X119693Y217493D01*
X119649Y217552D01*
X119601Y217603D01*
X119556Y217655D01*
X119508Y217700D01*
X119460Y217740D01*
X119412Y217774D01*
X119368Y217807D01*
X119327Y217833D01*
X119286Y217855D01*
X119253Y217877D01*
X119223Y217892D01*
X119197Y217903D01*
X119179Y217911D01*
X119168Y217918D01*
X119164D01*
X119094Y217944D01*
X119016Y217966D01*
X118935Y217985D01*
X118853Y217999D01*
X118679Y218025D01*
X118594Y218033D01*
X118513Y218040D01*
X118432Y218047D01*
X118361Y218051D01*
X118295Y218055D01*
X118236D01*
X118191Y218059D01*
X120359D01*
X115856D01*
Y212938D01*
X120359D01*
Y218059D01*
D02*
G37*
G36*
X103672D02*
D01*
Y212938D01*
X102788Y214329D01*
X102688Y214477D01*
X102636Y214544D01*
X102588Y214610D01*
X102540Y214669D01*
X102492Y214725D01*
X102448Y214777D01*
X102407Y214825D01*
X102370Y214869D01*
X102333Y214906D01*
X102303Y214936D01*
X102277Y214965D01*
X102255Y214984D01*
X102240Y215002D01*
X102229Y215010D01*
X102226Y215014D01*
X102166Y215062D01*
X102103Y215106D01*
X102037Y215150D01*
X101970Y215187D01*
X101911Y215221D01*
X101885Y215235D01*
X101863Y215247D01*
X101845Y215258D01*
X101830Y215261D01*
X101822Y215269D01*
X101819D01*
X101952Y215291D01*
X102078Y215317D01*
X102192Y215350D01*
X102300Y215384D01*
X102396Y215424D01*
X102488Y215461D01*
X102566Y215502D01*
X102640Y215543D01*
X102703Y215583D01*
X102755Y215620D01*
X102803Y215654D01*
X102840Y215683D01*
X102869Y215709D01*
X102892Y215728D01*
X102903Y215739D01*
X102906Y215742D01*
X102969Y215813D01*
X103025Y215890D01*
X103073Y215964D01*
X103114Y216042D01*
X103147Y216120D01*
X103176Y216197D01*
X103199Y216271D01*
X103217Y216342D01*
X103232Y216408D01*
X103243Y216468D01*
X103251Y216523D01*
X103258Y216567D01*
Y216608D01*
X103262Y216638D01*
Y216653D01*
Y216660D01*
X103258Y216738D01*
X103254Y216815D01*
X103243Y216889D01*
X103228Y216960D01*
X103214Y217026D01*
X103195Y217089D01*
X103173Y217148D01*
X103154Y217204D01*
X103136Y217252D01*
X103114Y217296D01*
X103095Y217337D01*
X103080Y217370D01*
X103066Y217396D01*
X103058Y217415D01*
X103051Y217426D01*
X103047Y217430D01*
X103006Y217493D01*
X102962Y217552D01*
X102914Y217603D01*
X102869Y217655D01*
X102821Y217700D01*
X102773Y217740D01*
X102725Y217774D01*
X102681Y217807D01*
X102640Y217833D01*
X102599Y217855D01*
X102566Y217877D01*
X102536Y217892D01*
X102510Y217903D01*
X102492Y217911D01*
X102481Y217918D01*
X102477D01*
X102407Y217944D01*
X102329Y217966D01*
X102248Y217985D01*
X102166Y217999D01*
X101992Y218025D01*
X101907Y218033D01*
X101826Y218040D01*
X101745Y218047D01*
X101674Y218051D01*
X101608Y218055D01*
X101549D01*
X101504Y218059D01*
X103672D01*
X99169D01*
Y212938D01*
X103672D01*
Y218059D01*
D02*
G37*
G36*
X98222D02*
X94404D01*
Y212938D01*
X98222D01*
Y218059D01*
D02*
G37*
G36*
X93760D02*
D01*
Y212938D01*
X92354D01*
X93760Y218059D01*
X93076D01*
X92273Y214766D01*
X92243Y214651D01*
X92217Y214536D01*
X92191Y214429D01*
X92169Y214325D01*
X92143Y214229D01*
X92125Y214137D01*
X92106Y214052D01*
X92088Y213974D01*
X92073Y213903D01*
X92058Y213837D01*
X92047Y213785D01*
X92036Y213737D01*
X92028Y213700D01*
X92021Y213674D01*
X92017Y213659D01*
Y213652D01*
X91966Y213974D01*
X91903Y214292D01*
X91869Y214447D01*
X91836Y214599D01*
X91803Y214740D01*
X91769Y214877D01*
X91740Y215002D01*
X91710Y215113D01*
X91684Y215217D01*
X91673Y215261D01*
X91662Y215302D01*
X91651Y215339D01*
X91644Y215369D01*
X91636Y215398D01*
X91629Y215421D01*
X91625Y215439D01*
X91621Y215454D01*
X91618Y215461D01*
Y215465D01*
X90885Y218059D01*
X91925D01*
X88040D01*
X90067D01*
X89098Y214599D01*
X89094Y214584D01*
X89091Y214569D01*
X89076Y214521D01*
X89065Y214466D01*
X89046Y214399D01*
X89028Y214325D01*
X89009Y214244D01*
X88968Y214077D01*
X88946Y213996D01*
X88928Y213918D01*
X88913Y213848D01*
X88894Y213781D01*
X88883Y213730D01*
X88880Y213707D01*
X88872Y213689D01*
X88869Y213674D01*
Y213663D01*
X88865Y213656D01*
Y213652D01*
X88828Y213848D01*
X88791Y214037D01*
X88772Y214125D01*
X88754Y214214D01*
X88739Y214296D01*
X88721Y214370D01*
X88706Y214440D01*
X88691Y214507D01*
X88680Y214562D01*
X88669Y214610D01*
X88658Y214647D01*
X88654Y214677D01*
X88647Y214692D01*
Y214699D01*
X87870Y218059D01*
X87178D01*
D01*
X88528Y212938D01*
X93760D01*
Y218059D01*
D02*
G37*
G36*
X81213Y218059D02*
X77306D01*
Y212938D01*
X77983D01*
Y215021D01*
X79393D01*
X79489Y215024D01*
X79582Y215032D01*
X79670Y215039D01*
X79756Y215051D01*
X79837Y215061D01*
X79989Y215091D01*
X80122Y215124D01*
X80248Y215165D01*
X80355Y215206D01*
X80451Y215247D01*
X80536Y215287D01*
X80607Y215328D01*
X80666Y215369D01*
X80714Y215402D01*
X80751Y215432D01*
X80777Y215454D01*
X80791Y215469D01*
X80795Y215472D01*
X80869Y215557D01*
X80932Y215650D01*
X80988Y215742D01*
X81036Y215835D01*
X81076Y215927D01*
X81110Y216020D01*
X81139Y216109D01*
X81161Y216194D01*
X81180Y216271D01*
X81191Y216345D01*
X81202Y216408D01*
X81206Y216467D01*
X81210Y216512D01*
X81213Y216545D01*
Y212938D01*
D01*
Y218059D01*
D02*
G37*
G36*
X68959D02*
X68282D01*
Y212938D01*
X68959D01*
Y218059D01*
D02*
G37*
G36*
X67627D02*
Y212938D01*
X65533Y218059D01*
X67627D01*
X64807D01*
X62843Y212938D01*
D01*
X63557D01*
X64116Y214488D01*
X66265D01*
X66857Y212938D01*
X67627D01*
Y218059D01*
D02*
G37*
G36*
X66857Y212938D02*
X66032D01*
X66857D01*
D01*
D02*
G37*
G36*
X86767Y218147D02*
X81868Y218147D01*
X84318Y218147D01*
X84218Y218144D01*
X84122Y218140D01*
X84025Y218129D01*
X83933Y218118D01*
X83755Y218081D01*
X83585Y218036D01*
X83430Y217981D01*
X83285Y217918D01*
X83152Y217855D01*
X83030Y217789D01*
X82923Y217718D01*
X82827Y217655D01*
X82745Y217592D01*
X82679Y217541D01*
X82623Y217493D01*
X82601Y217474D01*
X82586Y217456D01*
X82571Y217444D01*
X82560Y217433D01*
X82556Y217430D01*
X82553Y217426D01*
X82490Y217355D01*
X82431Y217285D01*
X82379Y217211D01*
X82327Y217134D01*
X82235Y216974D01*
X82157Y216812D01*
X82090Y216645D01*
X82035Y216479D01*
X81990Y216316D01*
X81953Y216157D01*
X81927Y216009D01*
X81905Y215872D01*
X81898Y215809D01*
X81890Y215750D01*
X81883Y215694D01*
X81879Y215642D01*
X81876Y215594D01*
X81872Y215554D01*
Y215517D01*
X81868Y215487D01*
Y215432D01*
X81872Y215306D01*
X81879Y215184D01*
X81894Y215065D01*
X81913Y214947D01*
X81935Y214836D01*
X81961Y214732D01*
X81987Y214632D01*
X82016Y214540D01*
X82042Y214455D01*
X82068Y214381D01*
X82094Y214314D01*
X82116Y214259D01*
X82135Y214211D01*
X82149Y214177D01*
X82157Y214159D01*
X82161Y214151D01*
X82220Y214040D01*
X82283Y213937D01*
X82349Y213841D01*
X82420Y213748D01*
X82490Y213663D01*
X82560Y213585D01*
X82634Y213515D01*
X82701Y213448D01*
X82767Y213393D01*
X82827Y213341D01*
X82882Y213300D01*
X82930Y213263D01*
X82967Y213238D01*
X82997Y213215D01*
X83015Y213204D01*
X83023Y213200D01*
X83130Y213138D01*
X83241Y213086D01*
X83356Y213038D01*
X83467Y213001D01*
X83574Y212967D01*
X83681Y212938D01*
X83785Y212916D01*
X83885Y212897D01*
X83973Y212882D01*
X84059Y212871D01*
X84133Y212864D01*
X84196Y212860D01*
X84247Y212856D01*
X84284Y212853D01*
X81868Y212853D01*
D01*
X86767Y212853D01*
Y215491D01*
X86763Y215631D01*
X86756Y215768D01*
X86741Y215901D01*
X86719Y216027D01*
X86697Y216149D01*
X86671Y216260D01*
X86645Y216368D01*
X86619Y216464D01*
X86589Y216553D01*
X86563Y216630D01*
X86538Y216701D01*
X86515Y216756D01*
X86497Y216804D01*
X86482Y216838D01*
X86471Y216856D01*
X86467Y216863D01*
X86408Y216974D01*
X86345Y217078D01*
X86275Y217174D01*
X86205Y217267D01*
X86134Y217352D01*
X86060Y217430D01*
X85990Y217500D01*
X85920Y217563D01*
X85853Y217618D01*
X85794Y217670D01*
X85738Y217711D01*
X85690Y217744D01*
X85653Y217774D01*
X85624Y217792D01*
X85605Y217803D01*
X85598Y217807D01*
X85491Y217866D01*
X85379Y217918D01*
X85268Y217966D01*
X85158Y218003D01*
X85050Y218036D01*
X84943Y218066D01*
X84839Y218088D01*
X84743Y218107D01*
X84654Y218118D01*
X84573Y218129D01*
X84499Y218136D01*
X84436Y218144D01*
X84388D01*
X84351Y218147D01*
X86767D01*
D02*
G37*
%LPD*%
G36*
X110643Y212853D02*
X108519D01*
X108667Y212856D01*
X108808Y212871D01*
X108941Y212893D01*
X109071Y212919D01*
X109189Y212953D01*
X109300Y212990D01*
X109404Y213030D01*
X109496Y213071D01*
X109581Y213112D01*
X109655Y213152D01*
X109722Y213189D01*
X109774Y213223D01*
X109818Y213249D01*
X109848Y213271D01*
X109866Y213286D01*
X109873Y213289D01*
X109973Y213378D01*
X110066Y213471D01*
X110151Y213570D01*
X110229Y213674D01*
X110299Y213781D01*
X110362Y213885D01*
X110417Y213989D01*
X110466Y214092D01*
X110510Y214188D01*
X110547Y214277D01*
X110576Y214355D01*
X110602Y214425D01*
X110621Y214481D01*
X110628Y214507D01*
X110632Y214525D01*
X110636Y214540D01*
X110639Y214551D01*
X110643Y214558D01*
Y212853D01*
D02*
G37*
G36*
X118254Y217489D02*
X118350Y217481D01*
X118439Y217470D01*
X118520Y217456D01*
X118594Y217437D01*
X118665Y217419D01*
X118728Y217396D01*
X118779Y217374D01*
X118827Y217352D01*
X118868Y217330D01*
X118905Y217311D01*
X118935Y217293D01*
X118953Y217278D01*
X118972Y217267D01*
X118979Y217259D01*
X118983Y217256D01*
X119031Y217211D01*
X119072Y217163D01*
X119105Y217115D01*
X119138Y217063D01*
X119164Y217015D01*
X119183Y216963D01*
X119201Y216915D01*
X119216Y216871D01*
X119227Y216827D01*
X119235Y216786D01*
X119242Y216753D01*
X119246Y216719D01*
X119249Y216693D01*
Y216675D01*
Y216664D01*
Y216660D01*
X119242Y216567D01*
X119227Y216482D01*
X119205Y216405D01*
X119183Y216338D01*
X119157Y216283D01*
X119146Y216257D01*
X119135Y216238D01*
X119123Y216223D01*
X119120Y216212D01*
X119112Y216205D01*
Y216201D01*
X119057Y216127D01*
X118994Y216064D01*
X118927Y216013D01*
X118861Y215968D01*
X118802Y215935D01*
X118779Y215924D01*
X118757Y215913D01*
X118739Y215905D01*
X118724Y215898D01*
X118717Y215894D01*
X118713D01*
X118661Y215879D01*
X118609Y215864D01*
X118491Y215842D01*
X118369Y215824D01*
X118254Y215813D01*
X118199Y215809D01*
X118150Y215805D01*
X118102D01*
X118065Y215802D01*
X116534D01*
Y217493D01*
X118150D01*
X118254Y217489D01*
D02*
G37*
G36*
X117488Y215210D02*
X117555Y215206D01*
X117606Y215202D01*
X117643Y215195D01*
X117673Y215191D01*
X117692Y215187D01*
X117695D01*
X117754Y215169D01*
X117810Y215150D01*
X117862Y215125D01*
X117906Y215102D01*
X117947Y215084D01*
X117976Y215065D01*
X117995Y215054D01*
X118002Y215051D01*
X118062Y215010D01*
X118121Y214958D01*
X118176Y214899D01*
X118232Y214843D01*
X118276Y214791D01*
X118313Y214747D01*
X118328Y214729D01*
X118339Y214718D01*
X118343Y214710D01*
X118347Y214706D01*
X118384Y214658D01*
X118424Y214606D01*
X118506Y214495D01*
X118587Y214377D01*
X118665Y214262D01*
X118698Y214211D01*
X118731Y214162D01*
X118761Y214118D01*
X118787Y214077D01*
X118805Y214048D01*
X118820Y214022D01*
X118831Y214007D01*
X118835Y214003D01*
X119512Y212938D01*
X116534D01*
Y215213D01*
X117410D01*
X117488Y215210D01*
D02*
G37*
G36*
X101567Y217489D02*
X101663Y217481D01*
X101752Y217470D01*
X101833Y217456D01*
X101907Y217437D01*
X101978Y217419D01*
X102041Y217396D01*
X102092Y217374D01*
X102140Y217352D01*
X102181Y217330D01*
X102218Y217311D01*
X102248Y217293D01*
X102266Y217278D01*
X102285Y217267D01*
X102292Y217259D01*
X102296Y217256D01*
X102344Y217211D01*
X102385Y217163D01*
X102418Y217115D01*
X102451Y217063D01*
X102477Y217015D01*
X102496Y216963D01*
X102514Y216915D01*
X102529Y216871D01*
X102540Y216827D01*
X102548Y216786D01*
X102555Y216753D01*
X102559Y216719D01*
X102562Y216693D01*
Y216675D01*
Y216664D01*
Y216660D01*
X102555Y216567D01*
X102540Y216482D01*
X102518Y216405D01*
X102496Y216338D01*
X102470Y216283D01*
X102459Y216257D01*
X102448Y216238D01*
X102436Y216223D01*
X102433Y216212D01*
X102425Y216205D01*
Y216201D01*
X102370Y216127D01*
X102307Y216064D01*
X102240Y216013D01*
X102174Y215968D01*
X102115Y215935D01*
X102092Y215924D01*
X102070Y215913D01*
X102052Y215905D01*
X102037Y215898D01*
X102030Y215894D01*
X102026D01*
X101974Y215879D01*
X101922Y215864D01*
X101804Y215842D01*
X101682Y215824D01*
X101567Y215813D01*
X101512Y215809D01*
X101463Y215805D01*
X101415D01*
X101378Y215802D01*
X99847D01*
Y217493D01*
X101463D01*
X101567Y217489D01*
D02*
G37*
G36*
X100801Y215210D02*
X100868Y215206D01*
X100919Y215202D01*
X100956Y215195D01*
X100986Y215191D01*
X101005Y215187D01*
X101008D01*
X101067Y215169D01*
X101123Y215150D01*
X101175Y215125D01*
X101219Y215102D01*
X101260Y215084D01*
X101289Y215065D01*
X101308Y215054D01*
X101315Y215051D01*
X101375Y215010D01*
X101434Y214958D01*
X101489Y214899D01*
X101545Y214843D01*
X101589Y214791D01*
X101626Y214747D01*
X101641Y214729D01*
X101652Y214718D01*
X101656Y214710D01*
X101660Y214706D01*
X101697Y214658D01*
X101737Y214606D01*
X101819Y214495D01*
X101900Y214377D01*
X101978Y214262D01*
X102011Y214211D01*
X102044Y214162D01*
X102074Y214118D01*
X102100Y214077D01*
X102118Y214048D01*
X102133Y214022D01*
X102144Y214007D01*
X102148Y214003D01*
X102825Y212938D01*
X99847D01*
Y215213D01*
X100723D01*
X100801Y215210D01*
D02*
G37*
G36*
X98222Y213541D02*
X95081D01*
Y215284D01*
X97911D01*
Y215887D01*
X95081D01*
Y217456D01*
X98104D01*
Y218059D01*
X98222D01*
Y213541D01*
D02*
G37*
G36*
X90467Y217411D02*
X90474Y217378D01*
X90486Y217341D01*
X90497Y217296D01*
X90511Y217248D01*
X90522Y217200D01*
X90552Y217097D01*
X90567Y217045D01*
X90582Y216997D01*
X90593Y216956D01*
X90604Y216915D01*
X90611Y216882D01*
X90619Y216860D01*
X90626Y216845D01*
Y216838D01*
X91695Y212938D01*
X89231D01*
X90308Y216838D01*
X90334Y216934D01*
X90360Y217037D01*
X90386Y217137D01*
X90408Y217230D01*
X90419Y217274D01*
X90430Y217311D01*
X90437Y217348D01*
X90445Y217378D01*
X90452Y217404D01*
X90456Y217422D01*
X90460Y217433D01*
Y217437D01*
X90467Y217411D01*
D02*
G37*
G36*
X81213Y216575D02*
X81206Y216716D01*
X81187Y216845D01*
X81176Y216908D01*
X81165Y216963D01*
X81150Y217019D01*
X81136Y217067D01*
X81121Y217111D01*
X81106Y217152D01*
X81095Y217189D01*
X81084Y217219D01*
X81073Y217241D01*
X81065Y217259D01*
X81062Y217270D01*
X81058Y217274D01*
X80995Y217385D01*
X80928Y217485D01*
X80858Y217570D01*
X80825Y217607D01*
X80795Y217640D01*
X80766Y217670D01*
X80736Y217696D01*
X80710Y217718D01*
X80688Y217733D01*
X80673Y217748D01*
X80658Y217759D01*
X80651Y217763D01*
X80647Y217766D01*
X80547Y217829D01*
X80440Y217877D01*
X80336Y217922D01*
X80237Y217955D01*
X80188Y217966D01*
X80148Y217977D01*
X80111Y217988D01*
X80077Y217996D01*
X80051Y217999D01*
X80033Y218003D01*
X80018Y218007D01*
X80014D01*
X79963Y218014D01*
X79904Y218025D01*
X79778Y218036D01*
X79648Y218047D01*
X79522Y218051D01*
X79463Y218055D01*
X79411D01*
X79360Y218059D01*
X81213D01*
Y216575D01*
D02*
G37*
G36*
X79448Y217452D02*
X79519D01*
X79582Y217448D01*
X79641Y217444D01*
X79693Y217441D01*
X79737Y217437D01*
X79778Y217433D01*
X79815Y217426D01*
X79844Y217422D01*
X79870Y217418D01*
X79889Y217415D01*
X79904Y217411D01*
X79915D01*
X79918Y217407D01*
X79922D01*
X80018Y217374D01*
X80103Y217330D01*
X80174Y217278D01*
X80237Y217230D01*
X80285Y217182D01*
X80322Y217141D01*
X80333Y217126D01*
X80344Y217115D01*
X80351Y217108D01*
Y217104D01*
X80381Y217059D01*
X80407Y217015D01*
X80444Y216923D01*
X80473Y216830D01*
X80496Y216745D01*
X80499Y216708D01*
X80507Y216671D01*
X80510Y216638D01*
Y216612D01*
X80514Y216586D01*
Y216571D01*
Y216560D01*
Y216556D01*
X80510Y216475D01*
X80503Y216401D01*
X80488Y216327D01*
X80470Y216260D01*
X80451Y216201D01*
X80425Y216142D01*
X80403Y216094D01*
X80377Y216046D01*
X80351Y216005D01*
X80325Y215968D01*
X80299Y215938D01*
X80281Y215913D01*
X80262Y215894D01*
X80248Y215879D01*
X80240Y215872D01*
X80237Y215868D01*
X80181Y215824D01*
X80118Y215787D01*
X80048Y215754D01*
X79974Y215728D01*
X79896Y215702D01*
X79818Y215683D01*
X79667Y215653D01*
X79593Y215646D01*
X79526Y215639D01*
X79463Y215631D01*
X79411Y215628D01*
X79367Y215624D01*
X77983D01*
Y217456D01*
X79374D01*
X79448Y217452D01*
D02*
G37*
G36*
X65174Y217441D02*
X65200Y217355D01*
X65259Y217178D01*
X65318Y217000D01*
X65348Y216915D01*
X65377Y216834D01*
X65407Y216756D01*
X65429Y216682D01*
X65455Y216619D01*
X65474Y216564D01*
X65492Y216519D01*
X65503Y216486D01*
X65510Y216464D01*
X65514Y216460D01*
Y216456D01*
X66051Y215039D01*
X64312D01*
X64874Y216542D01*
X64937Y216723D01*
X64992Y216900D01*
X65018Y216986D01*
X65041Y217063D01*
X65059Y217141D01*
X65081Y217215D01*
X65096Y217282D01*
X65111Y217341D01*
X65122Y217392D01*
X65133Y217437D01*
X65140Y217474D01*
X65148Y217500D01*
X65152Y217515D01*
Y217522D01*
X65174Y217441D01*
D02*
G37*
G36*
X84414Y217559D02*
X84506Y217552D01*
X84595Y217541D01*
X84676Y217522D01*
X84758Y217504D01*
X84832Y217481D01*
X84902Y217459D01*
X84969Y217433D01*
X85028Y217411D01*
X85080Y217385D01*
X85124Y217363D01*
X85165Y217344D01*
X85194Y217326D01*
X85217Y217315D01*
X85232Y217307D01*
X85235Y217304D01*
X85309Y217252D01*
X85379Y217200D01*
X85442Y217141D01*
X85505Y217082D01*
X85561Y217023D01*
X85609Y216963D01*
X85657Y216904D01*
X85698Y216849D01*
X85735Y216793D01*
X85764Y216745D01*
X85790Y216697D01*
X85812Y216660D01*
X85831Y216627D01*
X85842Y216604D01*
X85849Y216586D01*
X85853Y216582D01*
X85890Y216494D01*
X85923Y216401D01*
X85953Y216308D01*
X85979Y216216D01*
X85997Y216124D01*
X86016Y216035D01*
X86031Y215946D01*
X86042Y215864D01*
X86049Y215787D01*
X86057Y215717D01*
X86060Y215654D01*
X86064Y215598D01*
X86068Y215554D01*
Y215520D01*
Y215502D01*
Y215494D01*
X86064Y215313D01*
X86045Y215147D01*
X86023Y214988D01*
X85990Y214840D01*
X85953Y214703D01*
X85912Y214577D01*
X85868Y214466D01*
X85820Y214362D01*
X85775Y214270D01*
X85727Y214192D01*
X85687Y214125D01*
X85650Y214070D01*
X85616Y214026D01*
X85594Y213996D01*
X85579Y213978D01*
X85572Y213970D01*
X85476Y213878D01*
X85376Y213792D01*
X85272Y213722D01*
X85165Y213659D01*
X85061Y213608D01*
X84958Y213563D01*
X84854Y213530D01*
X84758Y213500D01*
X84665Y213478D01*
X84580Y213463D01*
X84506Y213448D01*
X84440Y213441D01*
X84388Y213437D01*
X84366D01*
X84347Y213434D01*
X84314D01*
X84177Y213441D01*
X84044Y213456D01*
X83918Y213482D01*
X83803Y213515D01*
X83692Y213556D01*
X83589Y213600D01*
X83492Y213648D01*
X83407Y213700D01*
X83330Y213748D01*
X83259Y213796D01*
X83204Y213841D01*
X83152Y213881D01*
X83115Y213915D01*
X83086Y213941D01*
X83071Y213955D01*
X83063Y213963D01*
X82974Y214066D01*
X82901Y214177D01*
X82834Y214296D01*
X82778Y214414D01*
X82730Y214536D01*
X82690Y214658D01*
X82656Y214777D01*
X82630Y214891D01*
X82608Y214999D01*
X82593Y215099D01*
X82582Y215191D01*
X82575Y215269D01*
X82571Y215302D01*
Y215332D01*
Y215357D01*
X82568Y215380D01*
Y215398D01*
Y215409D01*
Y215417D01*
Y215420D01*
Y215528D01*
X82575Y215628D01*
X82579Y215728D01*
X82590Y215824D01*
X82601Y215913D01*
X82616Y216001D01*
X82649Y216164D01*
X82690Y216312D01*
X82730Y216449D01*
X82778Y216571D01*
X82827Y216679D01*
X82875Y216771D01*
X82923Y216849D01*
X82967Y216919D01*
X83004Y216971D01*
X83037Y217015D01*
X83063Y217045D01*
X83078Y217060D01*
X83086Y217067D01*
X83185Y217156D01*
X83289Y217230D01*
X83393Y217296D01*
X83496Y217356D01*
X83604Y217400D01*
X83703Y217441D01*
X83803Y217474D01*
X83899Y217500D01*
X83985Y217522D01*
X84066Y217537D01*
X84140Y217548D01*
X84203Y217555D01*
X84251Y217559D01*
X84288Y217563D01*
X84321D01*
X84414Y217559D01*
D02*
G37*
G36*
X86767Y212853D02*
X84318D01*
X84440Y212856D01*
X84562Y212867D01*
X84680Y212882D01*
X84791Y212901D01*
X84902Y212927D01*
X85002Y212953D01*
X85098Y212982D01*
X85191Y213012D01*
X85272Y213038D01*
X85343Y213067D01*
X85405Y213093D01*
X85461Y213119D01*
X85502Y213138D01*
X85535Y213152D01*
X85553Y213163D01*
X85561Y213167D01*
X85664Y213230D01*
X85764Y213297D01*
X85857Y213371D01*
X85946Y213445D01*
X86023Y213522D01*
X86097Y213600D01*
X86164Y213674D01*
X86223Y213748D01*
X86275Y213818D01*
X86323Y213885D01*
X86364Y213944D01*
X86393Y213996D01*
X86419Y214037D01*
X86438Y214070D01*
X86449Y214089D01*
X86453Y214096D01*
X86508Y214214D01*
X86556Y214333D01*
X86597Y214451D01*
X86634Y214573D01*
X86663Y214692D01*
X86689Y214806D01*
X86712Y214917D01*
X86726Y215025D01*
X86741Y215121D01*
X86752Y215213D01*
X86756Y215291D01*
X86763Y215358D01*
Y215413D01*
X86767Y215439D01*
Y212853D01*
D02*
G37*
D10*
X360000Y90500D02*
X359043Y90310D01*
X358232Y89768D01*
X357690Y88957D01*
X357500Y88000D01*
X357690Y87043D01*
X358232Y86232D01*
X359043Y85690D01*
X360000Y85500D01*
X85981Y342500D02*
X85943Y343494D01*
X85829Y344481D01*
X85639Y345458D01*
X85376Y346417D01*
X85040Y347352D01*
X84633Y348260D01*
X84158Y349133D01*
X83617Y349968D01*
X83015Y350759D01*
X82353Y351501D01*
X81636Y352191D01*
X80869Y352823D01*
X80056Y353396D01*
X79201Y353904D01*
X78310Y354345D01*
X77388Y354717D01*
X76440Y355017D01*
X75471Y355243D01*
X74489Y355395D01*
X73497Y355471D01*
X72503D01*
X71511Y355395D01*
X70529Y355243D01*
X69560Y355017D01*
X68612Y354717D01*
X67690Y354345D01*
X66799Y353904D01*
X65944Y353396D01*
X65131Y352823D01*
X64364Y352191D01*
X63647Y351501D01*
X62985Y350759D01*
X62383Y349968D01*
X61842Y349133D01*
X61367Y348260D01*
X60960Y347352D01*
X60624Y346417D01*
X60361Y345458D01*
X60171Y344481D01*
X60057Y343494D01*
X60019Y342500D01*
X60057Y341506D01*
X60171Y340518D01*
X60361Y339542D01*
X60624Y338583D01*
X60960Y337648D01*
X61367Y336740D01*
X61842Y335867D01*
X62383Y335032D01*
X62985Y334241D01*
X63647Y333499D01*
X64364Y332809D01*
X65131Y332176D01*
X65944Y331604D01*
X66799Y331096D01*
X67690Y330655D01*
X68612Y330283D01*
X69560Y329983D01*
X70529Y329757D01*
X71511Y329605D01*
X72503Y329529D01*
X73497D01*
X74489Y329605D01*
X75471Y329757D01*
X76440Y329983D01*
X77388Y330283D01*
X78310Y330655D01*
X79201Y331096D01*
X80056Y331604D01*
X80869Y332176D01*
X81637Y332809D01*
X82353Y333499D01*
X83015Y334241D01*
X83617Y335032D01*
X84158Y335867D01*
X84633Y336740D01*
X85040Y337648D01*
X85376Y338583D01*
X85639Y339542D01*
X85829Y340519D01*
X85943Y341506D01*
X85981Y342500D01*
X321637Y358000D02*
X321513Y358979D01*
X321150Y359897D01*
X320570Y360695D01*
X319810Y361324D01*
X318917Y361744D01*
X317947Y361929D01*
X316962Y361867D01*
X316024Y361562D01*
X315191Y361034D01*
X314515Y360314D01*
X314039Y359449D01*
X313794Y358493D01*
Y357507D01*
X314039Y356551D01*
X314515Y355686D01*
X315191Y354966D01*
X316024Y354438D01*
X316962Y354133D01*
X317947Y354071D01*
X318917Y354256D01*
X319810Y354676D01*
X320570Y355305D01*
X321150Y356103D01*
X321513Y357021D01*
X321637Y358000D01*
X36248Y37752D02*
Y129248D01*
X4752Y37752D02*
Y129248D01*
X2390Y37752D02*
Y129248D01*
X36248D01*
X2390Y37752D02*
X36248D01*
X292100Y14900D02*
X293700D01*
X292100D02*
Y43200D01*
X325000Y14900D02*
Y43200D01*
X323500Y14900D02*
X325000D01*
X323500Y43200D02*
X325000D01*
X292100D02*
X293600D01*
X360000Y90500D02*
Y94500D01*
Y81500D02*
Y85500D01*
X340000Y81500D02*
Y94500D01*
X80500Y368000D02*
X91500Y350500D01*
Y334500D02*
Y350500D01*
X80500Y317000D02*
X91500Y334500D01*
X54500D02*
X65500Y317000D01*
X54500Y334500D02*
Y350500D01*
X65500Y368000D01*
X312400Y352500D02*
X323100D01*
X312400D02*
Y363937D01*
X323055Y298976D02*
Y388700D01*
X271874Y298976D02*
Y388700D01*
Y388740D02*
X322574D01*
X271875Y298976D02*
X323055D01*
X271874Y363937D02*
X323055D01*
X320600Y366200D02*
Y385700D01*
X311300D02*
X320600D01*
X311300Y376600D02*
Y385700D01*
X303400Y376600D02*
X311300D01*
X303400D02*
Y385600D01*
X294100D02*
X303400D01*
X294100Y376600D02*
Y385600D01*
X285100Y376600D02*
X294100D01*
X285100D02*
Y385500D01*
X276400D02*
X285100D01*
X276400D02*
X276500Y385400D01*
X276400Y376600D02*
Y385500D01*
X316236Y366151D02*
Y385651D01*
X192500Y237500D02*
X295000D01*
Y55000D02*
Y237500D01*
X192500Y55000D02*
X295000D01*
X192500D02*
Y237500D01*
X153000Y195000D02*
Y206000D01*
X151000D02*
X153000D01*
X151000Y195000D02*
Y206000D01*
Y195000D02*
X153000D01*
X163000Y266000D02*
Y277000D01*
X161000D02*
X163000D01*
X161000Y266000D02*
Y277000D01*
Y266000D02*
X163000D01*
X219000Y287500D02*
Y298500D01*
X217000D02*
X219000D01*
X217000Y287500D02*
Y298500D01*
Y287500D02*
X219000D01*
X35248Y226752D02*
Y338248D01*
X3852Y226752D02*
Y338248D01*
X1390Y226752D02*
Y338248D01*
Y226752D02*
X35248D01*
X1390Y338248D02*
X35248D01*
X58200Y3800D02*
X109000D01*
X57600Y33400D02*
X109500D01*
X57600Y2500D02*
Y33400D01*
X109500Y2500D02*
Y33400D01*
X57600Y2500D02*
X109500D01*
X4252Y142752D02*
Y214248D01*
X1890Y142752D02*
Y214248D01*
X35748Y142752D02*
Y214248D01*
X1890D02*
X35748D01*
X1890Y142752D02*
X35748D01*
X187000Y30000D02*
X198000D01*
X187000D02*
Y32000D01*
X198000D01*
X244500Y29500D02*
Y31500D01*
X233500Y29500D02*
X244500D01*
X233500D02*
Y31500D01*
X244500D01*
X159500Y149000D02*
X161500D01*
X159500D02*
Y160000D01*
X161500D01*
Y149000D02*
Y160000D01*
X162000Y242500D02*
X164000D01*
X162000D02*
Y253500D01*
X164000D01*
Y242500D02*
Y253500D01*
X211000Y365000D02*
Y367000D01*
X222000D01*
Y365000D02*
Y367000D01*
X211000Y365000D02*
X222000D01*
X121449Y342492D02*
X148909D01*
X152551Y338850D01*
Y332551D02*
Y338850D01*
X121449Y316508D02*
X149008D01*
X152551Y320051D01*
Y326449D01*
X121449Y316508D02*
Y326449D01*
Y332551D02*
Y342492D01*
X198000Y30000D02*
Y32000D01*
X38000Y35000D02*
Y33001D01*
Y34000D01*
X43998D01*
X42998Y35000D01*
X73266Y377700D02*
X70600D01*
X73266Y380366D01*
Y381032D01*
X72599Y381699D01*
X71266D01*
X70600Y381032D01*
X74599D02*
X75265Y381699D01*
X76598D01*
X77264Y381032D01*
Y378366D01*
X76598Y377700D01*
X75265D01*
X74599Y378366D01*
Y381032D01*
X81263Y377700D02*
X78597D01*
X81263Y380366D01*
Y381032D01*
X80597Y381699D01*
X79264D01*
X78597Y381032D01*
X82596Y377700D02*
X83929D01*
X83263D01*
Y381699D01*
X82596Y381032D01*
X89927D02*
X90594Y381699D01*
X91926D01*
X92593Y381032D01*
Y378366D01*
X91926Y377700D01*
X90594D01*
X89927Y378366D01*
Y381032D01*
X96592Y381699D02*
X95259Y381032D01*
X93926Y379699D01*
Y378366D01*
X94592Y377700D01*
X95925D01*
X96592Y378366D01*
Y379033D01*
X95925Y379699D01*
X93926D01*
X196500Y383999D02*
Y380000D01*
X198499D01*
X199166Y380666D01*
Y381333D01*
X198499Y381999D01*
X196500D01*
X198499D01*
X199166Y382666D01*
Y383332D01*
X198499Y383999D01*
X196500D01*
X200499Y380000D02*
Y383999D01*
X202498D01*
X203165Y383332D01*
Y381999D01*
X202498Y381333D01*
X200499D01*
X201832D02*
X203165Y380000D01*
X204497D02*
Y382666D01*
X205830Y383999D01*
X207163Y382666D01*
Y380000D01*
Y381999D01*
X204497D01*
X215161Y380000D02*
X212495D01*
X215161Y382666D01*
Y383332D01*
X214494Y383999D01*
X213161D01*
X212495Y383332D01*
X216494D02*
X217160Y383999D01*
X218493D01*
X219159Y383332D01*
Y380666D01*
X218493Y380000D01*
X217160D01*
X216494Y380666D01*
Y383332D01*
X223158Y380000D02*
X220492D01*
X223158Y382666D01*
Y383332D01*
X222492Y383999D01*
X221159D01*
X220492Y383332D01*
X224491Y380000D02*
X225824D01*
X225157D01*
Y383999D01*
X224491Y383332D01*
X231822D02*
X232488Y383999D01*
X233821D01*
X234488Y383332D01*
Y380666D01*
X233821Y380000D01*
X232488D01*
X231822Y380666D01*
Y383332D01*
X238487Y380000D02*
X235821D01*
X238487Y382666D01*
Y383332D01*
X237820Y383999D01*
X236487D01*
X235821Y383332D01*
X243818D02*
X244484Y383999D01*
X245817D01*
X246484Y383332D01*
Y380666D01*
X245817Y380000D01*
X244484D01*
X243818Y380666D01*
Y383332D01*
X247817Y380666D02*
X248483Y380000D01*
X249816D01*
X250483Y380666D01*
Y383332D01*
X249816Y383999D01*
X248483D01*
X247817Y383332D01*
Y382666D01*
X248483Y381999D01*
X250483D01*
X97000Y48334D02*
Y51000D01*
X99666Y48334D01*
X100332D01*
X100999Y49001D01*
Y50334D01*
X100332Y51000D01*
X97000Y45002D02*
X100999D01*
X98999Y47001D01*
Y44335D01*
X100332Y43003D02*
X100999Y42336D01*
Y41003D01*
X100332Y40337D01*
X97666D01*
X97000Y41003D01*
Y42336D01*
X97666Y43003D01*
X100332D01*
X100999Y39004D02*
X98333D01*
X97000Y37671D01*
X98333Y36338D01*
X100999D01*
X66500Y48334D02*
Y51000D01*
X69166Y48334D01*
X69832D01*
X70499Y49001D01*
Y50334D01*
X69832Y51000D01*
X66500Y45002D02*
X70499D01*
X68499Y47001D01*
Y44335D01*
X69832Y43003D02*
X70499Y42336D01*
Y41003D01*
X69832Y40337D01*
X67166D01*
X66500Y41003D01*
Y42336D01*
X67166Y43003D01*
X69832D01*
X70499Y39004D02*
X67833D01*
X66500Y37671D01*
X67833Y36338D01*
X70499D01*
X45999Y77500D02*
X42000D01*
Y75501D01*
X42666Y74834D01*
X43333D01*
X43999Y75501D01*
Y77500D01*
Y75501D01*
X44666Y74834D01*
X45332D01*
X45999Y75501D01*
Y77500D01*
Y73501D02*
X42666D01*
X42000Y72835D01*
Y71502D01*
X42666Y70836D01*
X45999D01*
X45332Y66837D02*
X45999Y67503D01*
Y68836D01*
X45332Y69503D01*
X44666D01*
X43999Y68836D01*
Y67503D01*
X43333Y66837D01*
X42666D01*
X42000Y67503D01*
Y68836D01*
X42666Y69503D01*
X45999Y65504D02*
X45332D01*
X43999Y64171D01*
X45332Y62838D01*
X45999D01*
X43999Y64171D02*
X42000D01*
X45999Y57506D02*
Y56174D01*
Y56840D01*
X42000D01*
Y57506D01*
Y56174D01*
Y54174D02*
X44666Y51508D01*
X45999Y48176D02*
Y49509D01*
X45332Y50175D01*
X42666D01*
X42000Y49509D01*
Y48176D01*
X42666Y47510D01*
X45332D01*
X45999Y48176D01*
Y128000D02*
X42000D01*
Y126001D01*
X42666Y125334D01*
X43333D01*
X43999Y126001D01*
Y128000D01*
Y126001D01*
X44666Y125334D01*
X45332D01*
X45999Y126001D01*
Y128000D01*
Y124001D02*
X42666D01*
X42000Y123335D01*
Y122002D01*
X42666Y121335D01*
X45999D01*
X45332Y117337D02*
X45999Y118003D01*
Y119336D01*
X45332Y120003D01*
X44666D01*
X43999Y119336D01*
Y118003D01*
X43333Y117337D01*
X42666D01*
X42000Y118003D01*
Y119336D01*
X42666Y120003D01*
X45999Y116004D02*
X45332D01*
X43999Y114671D01*
X45332Y113338D01*
X45999D01*
X43999Y114671D02*
X42000D01*
X45999Y108006D02*
Y106674D01*
Y107340D01*
X42000D01*
Y108006D01*
Y106674D01*
Y104674D02*
X44666Y102008D01*
X45999Y98676D02*
Y100009D01*
X45332Y100675D01*
X42666D01*
X42000Y100009D01*
Y98676D01*
X42666Y98010D01*
X45332D01*
X45999Y98676D01*
X41500Y205500D02*
X45499D01*
X41500Y202834D01*
X45499D01*
Y199502D02*
Y200835D01*
X44832Y201501D01*
X42166D01*
X41500Y200835D01*
Y199502D01*
X42166Y198836D01*
X44832D01*
X45499Y199502D01*
X41500Y160000D02*
X45499D01*
X41500Y157334D01*
X45499D01*
X44832Y153335D02*
X45499Y154002D01*
Y155335D01*
X44832Y156001D01*
X42166D01*
X41500Y155335D01*
Y154002D01*
X42166Y153335D01*
X44832Y180334D02*
X45499Y181001D01*
Y182334D01*
X44832Y183000D01*
X42166D01*
X41500Y182334D01*
Y181001D01*
X42166Y180334D01*
X45499Y177002D02*
Y178335D01*
X44832Y179001D01*
X42166D01*
X41500Y178335D01*
Y177002D01*
X42166Y176336D01*
X44832D01*
X45499Y177002D01*
X41500Y175003D02*
X45499D01*
X44166Y173670D01*
X45499Y172337D01*
X41500D01*
Y285500D02*
X45499D01*
X41500Y282834D01*
X45499D01*
Y279502D02*
Y280835D01*
X44832Y281501D01*
X42166D01*
X41500Y280835D01*
Y279502D01*
X42166Y278836D01*
X44832D01*
X45499Y279502D01*
X41500Y244000D02*
X45499D01*
X41500Y241334D01*
X45499D01*
X44832Y237335D02*
X45499Y238002D01*
Y239335D01*
X44832Y240001D01*
X42166D01*
X41500Y239335D01*
Y238002D01*
X42166Y237335D01*
X44832Y263834D02*
X45499Y264501D01*
Y265834D01*
X44832Y266500D01*
X42166D01*
X41500Y265834D01*
Y264501D01*
X42166Y263834D01*
X45499Y260502D02*
Y261835D01*
X44832Y262501D01*
X42166D01*
X41500Y261835D01*
Y260502D01*
X42166Y259836D01*
X44832D01*
X45499Y260502D01*
X41500Y258503D02*
X45499D01*
X44166Y257170D01*
X45499Y255837D01*
X41500D01*
X45499Y313500D02*
X41500D01*
Y310834D01*
X45499Y306836D02*
Y309501D01*
X41500D01*
Y306836D01*
X43499Y309501D02*
Y308168D01*
X45499Y305503D02*
X42833D01*
X41500Y304170D01*
X42833Y302837D01*
X45499D01*
Y298838D02*
Y301504D01*
X41500D01*
Y298838D01*
X43499Y301504D02*
Y300171D01*
X45499Y297505D02*
X41500D01*
Y294839D01*
X44832Y327334D02*
X45499Y328001D01*
Y329334D01*
X44832Y330000D01*
X42166D01*
X41500Y329334D01*
Y328001D01*
X42166Y327334D01*
X43499D01*
Y328667D01*
X41500Y326001D02*
X45499D01*
X41500Y323336D01*
X45499D01*
Y322003D02*
X41500D01*
Y320003D01*
X42166Y319337D01*
X44832D01*
X45499Y320003D01*
Y322003D01*
X318000Y55500D02*
X319706D01*
X318853D01*
Y60616D01*
X318000Y59764D01*
X306300Y213700D02*
X308299D01*
X307300D01*
Y219698D01*
X306300Y218698D01*
X172700Y73600D02*
Y71601D01*
Y72600D01*
X178698D01*
X177698Y73600D01*
X172700Y68602D02*
X176699D01*
X178698Y66602D01*
X176699Y64603D01*
X172700D01*
X175699D01*
Y68602D01*
X28586Y224000D02*
Y222001D01*
Y223000D01*
X34584D01*
X33584Y224000D01*
X329501Y33498D02*
X335499D01*
Y30499D01*
X334499Y29500D01*
X332500D01*
X331500Y30499D01*
Y33498D01*
X335499Y23502D02*
Y27500D01*
X332500D01*
X333500Y25501D01*
Y24501D01*
X332500Y23502D01*
X330501D01*
X329501Y24501D01*
Y26501D01*
X330501Y27500D01*
X307099Y173702D02*
X301101D01*
Y176701D01*
X302101Y177700D01*
X304100D01*
X305100Y176701D01*
Y173702D01*
X301101Y183698D02*
X302101Y181699D01*
X304100Y179700D01*
X306099D01*
X307099Y180699D01*
Y182699D01*
X306099Y183698D01*
X305100D01*
X304100Y182699D01*
Y179700D01*
X6835Y217001D02*
Y221999D01*
X9334D01*
X10167Y221166D01*
Y219500D01*
X9334Y218667D01*
X6835D01*
X11833Y221166D02*
X12666Y221999D01*
X14332D01*
X15165Y221166D01*
Y220333D01*
X14332Y219500D01*
X13499D01*
X14332D01*
X15165Y218667D01*
Y217834D01*
X14332Y217001D01*
X12666D01*
X11833Y217834D01*
X30087Y347332D02*
X35085D01*
Y344833D01*
X34252Y344000D01*
X32586D01*
X31753Y344833D01*
Y347332D01*
X30087Y342334D02*
Y340668D01*
Y341501D01*
X35085D01*
X34252Y342334D01*
X260235Y286399D02*
Y282234D01*
X261068Y281401D01*
X262734D01*
X263567Y282234D01*
Y286399D01*
X268565Y281401D02*
X265233D01*
X268565Y284733D01*
Y285566D01*
X267732Y286399D01*
X266066D01*
X265233Y285566D01*
X6835Y131501D02*
Y136499D01*
X9334D01*
X10167Y135666D01*
Y134000D01*
X9334Y133167D01*
X6835D01*
X15165Y131501D02*
X11833D01*
X15165Y134833D01*
Y135666D01*
X14332Y136499D01*
X12666D01*
X11833Y135666D01*
X49001Y22165D02*
X53999D01*
Y19666D01*
X53166Y18833D01*
X51500D01*
X50667Y19666D01*
Y22165D01*
X49001Y14668D02*
X53999D01*
X51500Y17167D01*
Y13835D01*
X336164Y287199D02*
Y283034D01*
X336997Y282201D01*
X338663D01*
X339496Y283034D01*
Y287199D01*
X341162Y286366D02*
X341995Y287199D01*
X343661D01*
X344495Y286366D01*
Y285533D01*
X343661Y284700D01*
X342828D01*
X343661D01*
X344495Y283867D01*
Y283034D01*
X343661Y282201D01*
X341995D01*
X341162Y283034D01*
X68354Y102099D02*
Y97934D01*
X69187Y97101D01*
X70853D01*
X71686Y97934D01*
Y102099D01*
X73352Y97101D02*
X75018D01*
X74185D01*
Y102099D01*
X73352Y101266D01*
X368166Y71500D02*
X368999Y72333D01*
Y73999D01*
X368166Y74832D01*
X367333D01*
X366500Y73999D01*
Y72333D01*
X365667Y71500D01*
X364834D01*
X364001Y72333D01*
Y73999D01*
X364834Y74832D01*
X364001Y69834D02*
Y68168D01*
Y69001D01*
X368999D01*
X368166Y69834D01*
X171650Y40801D02*
Y45799D01*
X174149D01*
X174982Y44966D01*
Y43300D01*
X174149Y42467D01*
X171650D01*
X173316D02*
X174982Y40801D01*
X179980D02*
X176648D01*
X179980Y44133D01*
Y44966D01*
X179147Y45799D01*
X177481D01*
X176648Y44966D01*
X181646D02*
X182479Y45799D01*
X184145D01*
X184979Y44966D01*
Y44133D01*
X184145Y43300D01*
X183312D01*
X184145D01*
X184979Y42467D01*
Y41634D01*
X184145Y40801D01*
X182479D01*
X181646Y41634D01*
X200636Y40001D02*
Y44999D01*
X203135D01*
X203968Y44166D01*
Y42500D01*
X203135Y41667D01*
X200636D01*
X202302D02*
X203968Y40001D01*
X208966D02*
X205634D01*
X208966Y43333D01*
Y44166D01*
X208133Y44999D01*
X206467D01*
X205634Y44166D01*
X213965Y40001D02*
X210632D01*
X213965Y43333D01*
Y44166D01*
X213131Y44999D01*
X211465D01*
X210632Y44166D01*
X362954Y176601D02*
Y181599D01*
X365454D01*
X366287Y180766D01*
Y179100D01*
X365454Y178267D01*
X362954D01*
X364621D02*
X366287Y176601D01*
X371285D02*
X367953D01*
X371285Y179933D01*
Y180766D01*
X370452Y181599D01*
X368786D01*
X367953Y180766D01*
X372951Y176601D02*
X374617D01*
X373784D01*
Y181599D01*
X372951Y180766D01*
X272001Y265665D02*
X276999D01*
Y263165D01*
X276166Y262332D01*
X274500D01*
X273667Y263165D01*
Y265665D01*
Y263998D02*
X272001Y262332D01*
Y257334D02*
Y260666D01*
X275333Y257334D01*
X276166D01*
X276999Y258167D01*
Y259833D01*
X276166Y260666D01*
Y255668D02*
X276999Y254835D01*
Y253169D01*
X276166Y252336D01*
X272834D01*
X272001Y253169D01*
Y254835D01*
X272834Y255668D01*
X276166D01*
X176252Y17301D02*
Y22299D01*
X178751D01*
X179584Y21466D01*
Y19800D01*
X178751Y18967D01*
X176252D01*
X177918D02*
X179584Y17301D01*
X181250D02*
X182916D01*
X182083D01*
Y22299D01*
X181250Y21466D01*
X185416Y18134D02*
X186249Y17301D01*
X187915D01*
X188748Y18134D01*
Y21466D01*
X187915Y22299D01*
X186249D01*
X185416Y21466D01*
Y20633D01*
X186249Y19800D01*
X188748D01*
X289987Y251848D02*
X294985D01*
Y249349D01*
X294152Y248516D01*
X292486D01*
X291653Y249349D01*
Y251848D01*
Y250182D02*
X289987Y248516D01*
Y246850D02*
Y245183D01*
Y246017D01*
X294985D01*
X294152Y246850D01*
Y242684D02*
X294985Y241851D01*
Y240185D01*
X294152Y239352D01*
X293319D01*
X292486Y240185D01*
X291653Y239352D01*
X290820D01*
X289987Y240185D01*
Y241851D01*
X290820Y242684D01*
X291653D01*
X292486Y241851D01*
X293319Y242684D01*
X294152D01*
X292486Y241851D02*
Y240185D01*
X219052Y39301D02*
Y44299D01*
X221551D01*
X222384Y43466D01*
Y41800D01*
X221551Y40967D01*
X219052D01*
X220718D02*
X222384Y39301D01*
X224050D02*
X225716D01*
X224884D01*
Y44299D01*
X224050Y43466D01*
X228216Y44299D02*
X231548D01*
Y43466D01*
X228216Y40134D01*
Y39301D01*
X167901Y339748D02*
X172899D01*
Y337249D01*
X172066Y336416D01*
X170400D01*
X169567Y337249D01*
Y339748D01*
Y338082D02*
X167901Y336416D01*
Y334750D02*
Y333084D01*
Y333916D01*
X172899D01*
X172066Y334750D01*
X172899Y327252D02*
X172066Y328918D01*
X170400Y330584D01*
X168734D01*
X167901Y329751D01*
Y328085D01*
X168734Y327252D01*
X169567D01*
X170400Y328085D01*
Y330584D01*
X299387Y250948D02*
X304385D01*
Y248449D01*
X303552Y247616D01*
X301886D01*
X301053Y248449D01*
Y250948D01*
Y249282D02*
X299387Y247616D01*
Y245950D02*
Y244284D01*
Y245116D01*
X304385D01*
X303552Y245950D01*
X304385Y238452D02*
Y241784D01*
X301886D01*
X302719Y240118D01*
Y239285D01*
X301886Y238452D01*
X300220D01*
X299387Y239285D01*
Y240951D01*
X300220Y241784D01*
X248252Y39001D02*
Y43999D01*
X250751D01*
X251584Y43166D01*
Y41500D01*
X250751Y40667D01*
X248252D01*
X249918D02*
X251584Y39001D01*
X253250D02*
X254917D01*
X254083D01*
Y43999D01*
X253250Y43166D01*
X259915Y39001D02*
Y43999D01*
X257416Y41500D01*
X260748D01*
X236852Y10301D02*
Y15299D01*
X239351D01*
X240184Y14466D01*
Y12800D01*
X239351Y11967D01*
X236852D01*
X238518D02*
X240184Y10301D01*
X241850D02*
X243516D01*
X242684D01*
Y15299D01*
X241850Y14466D01*
X246016D02*
X246849Y15299D01*
X248515D01*
X249348Y14466D01*
Y13633D01*
X248515Y12800D01*
X247682D01*
X248515D01*
X249348Y11967D01*
Y11134D01*
X248515Y10301D01*
X246849D01*
X246016Y11134D01*
X317087Y250848D02*
X322085D01*
Y248349D01*
X321252Y247516D01*
X319586D01*
X318753Y248349D01*
Y250848D01*
Y249182D02*
X317087Y247516D01*
Y245850D02*
Y244183D01*
Y245017D01*
X322085D01*
X321252Y245850D01*
X317087Y238352D02*
Y241684D01*
X320419Y238352D01*
X321252D01*
X322085Y239185D01*
Y240851D01*
X321252Y241684D01*
X202087Y339515D02*
X207085D01*
Y337016D01*
X206252Y336183D01*
X204586D01*
X203753Y337016D01*
Y339515D01*
Y337849D02*
X202087Y336183D01*
Y334517D02*
Y332850D01*
Y333683D01*
X207085D01*
X206252Y334517D01*
X202087Y330351D02*
Y328685D01*
Y329518D01*
X207085D01*
X206252Y330351D01*
X202987Y359848D02*
X207985D01*
Y357349D01*
X207152Y356516D01*
X205486D01*
X204653Y357349D01*
Y359848D01*
Y358182D02*
X202987Y356516D01*
Y354850D02*
Y353184D01*
Y354016D01*
X207985D01*
X207152Y354850D01*
Y350684D02*
X207985Y349851D01*
Y348185D01*
X207152Y347352D01*
X203820D01*
X202987Y348185D01*
Y349851D01*
X203820Y350684D01*
X207152D01*
X101535Y371701D02*
Y376699D01*
X104034D01*
X104867Y375866D01*
Y374200D01*
X104034Y373367D01*
X101535D01*
X103201D02*
X104867Y371701D01*
X106533Y372534D02*
X107366Y371701D01*
X109032D01*
X109865Y372534D01*
Y375866D01*
X109032Y376699D01*
X107366D01*
X106533Y375866D01*
Y375033D01*
X107366Y374200D01*
X109865D01*
X231721Y273201D02*
Y278199D01*
X234220D01*
X235053Y277366D01*
Y275700D01*
X234220Y274867D01*
X231721D01*
X233387D02*
X235053Y273201D01*
X236719Y277366D02*
X237552Y278199D01*
X239218D01*
X240051Y277366D01*
Y276533D01*
X239218Y275700D01*
X240051Y274867D01*
Y274034D01*
X239218Y273201D01*
X237552D01*
X236719Y274034D01*
Y274867D01*
X237552Y275700D01*
X236719Y276533D01*
Y277366D01*
X237552Y275700D02*
X239218D01*
X108221Y363101D02*
Y368099D01*
X110720D01*
X111553Y367266D01*
Y365600D01*
X110720Y364767D01*
X108221D01*
X109887D02*
X111553Y363101D01*
X113219Y368099D02*
X116551D01*
Y367266D01*
X113219Y363934D01*
Y363101D01*
X178121Y148701D02*
Y153699D01*
X180620D01*
X181453Y152866D01*
Y151200D01*
X180620Y150367D01*
X178121D01*
X179787D02*
X181453Y148701D01*
X186451Y153699D02*
X184785Y152866D01*
X183119Y151200D01*
Y149534D01*
X183952Y148701D01*
X185618D01*
X186451Y149534D01*
Y150367D01*
X185618Y151200D01*
X183119D01*
X161421Y185201D02*
Y190199D01*
X163920D01*
X164753Y189366D01*
Y187700D01*
X163920Y186867D01*
X161421D01*
X163087D02*
X164753Y185201D01*
X169751Y190199D02*
X166419D01*
Y187700D01*
X168085Y188533D01*
X168918D01*
X169751Y187700D01*
Y186034D01*
X168918Y185201D01*
X167252D01*
X166419Y186034D01*
X179421Y248301D02*
Y253299D01*
X181920D01*
X182753Y252466D01*
Y250800D01*
X181920Y249967D01*
X179421D01*
X181087D02*
X182753Y248301D01*
X186918D02*
Y253299D01*
X184419Y250800D01*
X187751D01*
X184858Y264701D02*
Y269699D01*
X187357D01*
X188190Y268866D01*
Y267200D01*
X187357Y266367D01*
X184858D01*
X186524D02*
X188190Y264701D01*
X189856Y268866D02*
X190689Y269699D01*
X192355D01*
X193188Y268866D01*
Y268033D01*
X192355Y267200D01*
X191522D01*
X192355D01*
X193188Y266367D01*
Y265534D01*
X192355Y264701D01*
X190689D01*
X189856Y265534D01*
X183621Y303501D02*
Y308499D01*
X186120D01*
X186953Y307666D01*
Y306000D01*
X186120Y305167D01*
X183621D01*
X185287D02*
X186953Y303501D01*
X191951D02*
X188619D01*
X191951Y306833D01*
Y307666D01*
X191118Y308499D01*
X189452D01*
X188619Y307666D01*
X202487Y317532D02*
X207485D01*
Y315033D01*
X206652Y314200D01*
X204986D01*
X204153Y315033D01*
Y317532D01*
Y315866D02*
X202487Y314200D01*
Y312534D02*
Y310868D01*
Y311701D01*
X207485D01*
X206652Y312534D01*
X182580Y30767D02*
X179248D01*
X178415Y29934D01*
Y28268D01*
X179248Y27435D01*
X182580D01*
X183413Y28268D01*
Y29934D01*
X181747Y29101D02*
X183413Y30767D01*
Y29934D02*
X182580Y30767D01*
X183413Y34932D02*
X178415D01*
X180914Y32433D01*
Y35765D01*
X227248Y32233D02*
X230580D01*
X231413Y33066D01*
Y34732D01*
X230580Y35565D01*
X227248D01*
X226415Y34732D01*
Y33066D01*
X228081Y33899D02*
X226415Y32233D01*
Y33066D02*
X227248Y32233D01*
X230580Y30567D02*
X231413Y29734D01*
Y28068D01*
X230580Y27235D01*
X229747D01*
X228914Y28068D01*
Y28901D01*
Y28068D01*
X228081Y27235D01*
X227248D01*
X226415Y28068D01*
Y29734D01*
X227248Y30567D01*
X158253Y163334D02*
Y166666D01*
X157420Y167499D01*
X155754D01*
X154921Y166666D01*
Y163334D01*
X155754Y162501D01*
X157420D01*
X156587Y164167D02*
X158253Y162501D01*
X157420D02*
X158253Y163334D01*
X163251Y162501D02*
X159919D01*
X163251Y165833D01*
Y166666D01*
X162418Y167499D01*
X160752D01*
X159919Y166666D01*
X163886Y257134D02*
Y260466D01*
X163053Y261299D01*
X161387D01*
X160554Y260466D01*
Y257134D01*
X161387Y256301D01*
X163053D01*
X162220Y257967D02*
X163886Y256301D01*
X163053D02*
X163886Y257134D01*
X165552Y256301D02*
X167218D01*
X166385D01*
Y261299D01*
X165552Y260466D01*
X200032Y242001D02*
Y246999D01*
X202531D01*
X203364Y246166D01*
Y244500D01*
X202531Y243667D01*
X200032D01*
X205030Y246999D02*
Y242834D01*
X205863Y242001D01*
X207529D01*
X208362Y242834D01*
Y246999D01*
X210028Y242001D02*
X211695D01*
X210861D01*
Y246999D01*
X210028Y246166D01*
X55154Y375199D02*
Y370201D01*
X58486D01*
X60152D02*
X61818D01*
X60985D01*
Y375199D01*
X60152Y374366D01*
X132835Y215999D02*
Y211001D01*
Y212667D01*
X136167Y215999D01*
X133668Y213500D01*
X136167Y211001D01*
X141165D02*
X137833D01*
X141165Y214333D01*
Y215166D01*
X140332Y215999D01*
X138666D01*
X137833Y215166D01*
X137668Y305499D02*
Y300501D01*
Y302167D01*
X141000Y305499D01*
X138501Y303000D01*
X141000Y300501D01*
X142666D02*
X144332D01*
X143499D01*
Y305499D01*
X142666Y304666D01*
X177099Y87100D02*
Y90432D01*
X174600D01*
Y88766D01*
Y90432D01*
X172101D01*
Y85434D02*
Y83768D01*
Y84601D01*
X177099D01*
X176266Y85434D01*
X220299Y25965D02*
X215301D01*
Y23466D01*
X216134Y22633D01*
X219466D01*
X220299Y23466D01*
Y25965D01*
X216134Y20967D02*
X215301Y20134D01*
Y18468D01*
X216134Y17635D01*
X219466D01*
X220299Y18468D01*
Y20134D01*
X219466Y20967D01*
X218633D01*
X217800Y20134D01*
Y17635D01*
X266699Y25965D02*
X261701D01*
Y23466D01*
X262534Y22633D01*
X265866D01*
X266699Y23466D01*
Y25965D01*
X265866Y20967D02*
X266699Y20134D01*
Y18468D01*
X265866Y17635D01*
X265033D01*
X264200Y18468D01*
X263367Y17635D01*
X262534D01*
X261701Y18468D01*
Y20134D01*
X262534Y20967D01*
X263367D01*
X264200Y20134D01*
X265033Y20967D01*
X265866D01*
X264200Y20134D02*
Y18468D01*
X200035Y367699D02*
Y362701D01*
X202534D01*
X203367Y363534D01*
Y366866D01*
X202534Y367699D01*
X200035D01*
X205033D02*
X208365D01*
Y366866D01*
X205033Y363534D01*
Y362701D01*
X231821Y260099D02*
Y255101D01*
X234320D01*
X235153Y255934D01*
Y259266D01*
X234320Y260099D01*
X231821D01*
X240151D02*
X238485Y259266D01*
X236819Y257600D01*
Y255934D01*
X237652Y255101D01*
X239318D01*
X240151Y255934D01*
Y256767D01*
X239318Y257600D01*
X236819D01*
X155899Y191065D02*
X150901D01*
Y188566D01*
X151734Y187733D01*
X155066D01*
X155899Y188566D01*
Y191065D01*
Y182735D02*
Y186067D01*
X153400D01*
X154233Y184401D01*
Y183568D01*
X153400Y182735D01*
X151734D01*
X150901Y183568D01*
Y185234D01*
X151734Y186067D01*
X175521Y208199D02*
Y203201D01*
X178020D01*
X178853Y204034D01*
Y207366D01*
X178020Y208199D01*
X175521D01*
X183018Y203201D02*
Y208199D01*
X180519Y205700D01*
X183851D01*
X157221Y285899D02*
Y280901D01*
X159720D01*
X160553Y281734D01*
Y285066D01*
X159720Y285899D01*
X157221D01*
X162219Y285066D02*
X163052Y285899D01*
X164718D01*
X165551Y285066D01*
Y284233D01*
X164718Y283400D01*
X163885D01*
X164718D01*
X165551Y282567D01*
Y281734D01*
X164718Y280901D01*
X163052D01*
X162219Y281734D01*
X173537Y286099D02*
Y281101D01*
X176036D01*
X176869Y281934D01*
Y285266D01*
X176036Y286099D01*
X173537D01*
X181868Y281101D02*
X178535D01*
X181868Y284433D01*
Y285266D01*
X181035Y286099D01*
X179369D01*
X178535Y285266D01*
X219168Y304999D02*
Y300001D01*
X221667D01*
X222500Y300834D01*
Y304166D01*
X221667Y304999D01*
X219168D01*
X224166Y300001D02*
X225832D01*
X224999D01*
Y304999D01*
X224166Y304166D01*
X189552Y353116D02*
X190385Y353949D01*
Y355615D01*
X189552Y356448D01*
X186220D01*
X185387Y355615D01*
Y353949D01*
X186220Y353116D01*
X185387Y351450D02*
Y349783D01*
Y350617D01*
X190385D01*
X189552Y351450D01*
Y347284D02*
X190385Y346451D01*
Y344785D01*
X189552Y343952D01*
X186220D01*
X185387Y344785D01*
Y346451D01*
X186220Y347284D01*
X189552D01*
X251752Y345396D02*
X252585Y346229D01*
Y347895D01*
X251752Y348728D01*
X248420D01*
X247587Y347895D01*
Y346229D01*
X248420Y345396D01*
Y343730D02*
X247587Y342897D01*
Y341231D01*
X248420Y340398D01*
X251752D01*
X252585Y341231D01*
Y342897D01*
X251752Y343730D01*
X250919D01*
X250086Y342897D01*
Y340398D01*
X241552Y345733D02*
X242385Y346566D01*
Y348232D01*
X241552Y349065D01*
X238220D01*
X237387Y348232D01*
Y346566D01*
X238220Y345733D01*
X241552Y344067D02*
X242385Y343234D01*
Y341568D01*
X241552Y340735D01*
X240719D01*
X239886Y341568D01*
X239053Y340735D01*
X238220D01*
X237387Y341568D01*
Y343234D01*
X238220Y344067D01*
X239053D01*
X239886Y343234D01*
X240719Y344067D01*
X241552D01*
X239886Y343234D02*
Y341568D01*
X232352Y346233D02*
X233185Y347066D01*
Y348732D01*
X232352Y349565D01*
X229020D01*
X228187Y348732D01*
Y347066D01*
X229020Y346233D01*
X233185Y344567D02*
Y341235D01*
X232352D01*
X229020Y344567D01*
X228187D01*
X114752Y354033D02*
X115585Y354866D01*
Y356532D01*
X114752Y357365D01*
X111420D01*
X110587Y356532D01*
Y354866D01*
X111420Y354033D01*
X115585Y349035D02*
X114752Y350701D01*
X113086Y352367D01*
X111420D01*
X110587Y351534D01*
Y349868D01*
X111420Y349035D01*
X112253D01*
X113086Y349868D01*
Y352367D01*
X254953Y261166D02*
X254120Y261999D01*
X252454D01*
X251621Y261166D01*
Y257834D01*
X252454Y257001D01*
X254120D01*
X254953Y257834D01*
X259951Y261999D02*
X256619D01*
Y259500D01*
X258285Y260333D01*
X259118D01*
X259951Y259500D01*
Y257834D01*
X259118Y257001D01*
X257452D01*
X256619Y257834D01*
X161652Y338033D02*
X162485Y338866D01*
Y340532D01*
X161652Y341365D01*
X158320D01*
X157487Y340532D01*
Y338866D01*
X158320Y338033D01*
X157487Y333868D02*
X162485D01*
X159986Y336367D01*
Y333035D01*
X214166Y285333D02*
X214999Y286166D01*
Y287832D01*
X214166Y288665D01*
X210834D01*
X210001Y287832D01*
Y286166D01*
X210834Y285333D01*
X210001Y280335D02*
Y283667D01*
X213333Y280335D01*
X214166D01*
X214999Y281168D01*
Y282834D01*
X214166Y283667D01*
X89453Y74666D02*
X88620Y75499D01*
X86954D01*
X86121Y74666D01*
Y71334D01*
X86954Y70501D01*
X88620D01*
X89453Y71334D01*
X91119Y74666D02*
X91952Y75499D01*
X93618D01*
X94451Y74666D01*
Y73833D01*
X93618Y73000D01*
X92785D01*
X93618D01*
X94451Y72167D01*
Y71334D01*
X93618Y70501D01*
X91952D01*
X91119Y71334D01*
X89186Y101366D02*
X88353Y102199D01*
X86687D01*
X85854Y101366D01*
Y98034D01*
X86687Y97201D01*
X88353D01*
X89186Y98034D01*
X90852Y97201D02*
X92518D01*
X91685D01*
Y102199D01*
X90852Y101366D01*
D11*
X318587Y357800D02*
X318043Y358549D01*
X317163Y358263D01*
Y357337D01*
X318043Y357051D01*
X318587Y357800D01*
D12*
X155602Y325858D02*
X154864Y326285D01*
Y325432D01*
X155602Y325858D01*
D13*
X85000Y39000D02*
Y43000D01*
X81000Y38500D02*
X89500D01*
X86000Y35500D02*
X89000Y38500D01*
X83000Y35500D02*
X86000Y38500D01*
X80000Y35500D02*
X83000Y38500D01*
X311200Y156400D02*
Y192700D01*
X312200D01*
Y200200D01*
X311200D02*
X312200D01*
X311200D02*
Y236800D01*
X311400Y192700D02*
X312100D01*
X311300Y200200D02*
X312000D01*
X311200Y236800D02*
X359200D01*
Y156400D02*
Y236800D01*
X311200Y156400D02*
X359200D01*
X126500Y127000D02*
X166500D01*
Y23000D02*
Y127000D01*
X126500Y23000D02*
X166500D01*
X126500D02*
Y127000D01*
D14*
X141490Y234620D02*
Y297620D01*
X54490Y234620D02*
X141490D01*
X54490D02*
Y297620D01*
X141490D01*
X140990Y146120D02*
Y209120D01*
X53990Y146120D02*
X140990D01*
X53990D02*
Y209120D01*
X140990D01*
X69500Y73000D02*
Y94000D01*
X55500Y73000D02*
X69500D01*
X55500D02*
Y94000D01*
X69500D01*
X60495D02*
Y95500D01*
X64495D01*
Y94000D02*
Y95500D01*
X172039Y246500D02*
X176961D01*
Y249500D01*
X172039D02*
X176961D01*
X172039Y246500D02*
Y249500D01*
X170539Y153000D02*
Y156000D01*
X175461D01*
Y153000D02*
Y156000D01*
X170539Y153000D02*
X175461D01*
X191000Y40540D02*
X194000D01*
X191000D02*
Y45461D01*
X194000D01*
Y40540D02*
Y45461D01*
X56000Y95500D02*
X57250D01*
X56625D01*
Y99249D01*
X56000Y98624D01*
D15*
X92469Y87800D02*
X96700D01*
X92469Y94200D02*
X96700D01*
X84400Y87800D02*
X88532D01*
X84400Y94300D02*
X88532D01*
X84400Y87800D02*
Y94300D01*
X96700Y87800D02*
Y94200D01*
X250300Y247800D02*
Y254200D01*
X262600Y247700D02*
Y254200D01*
X258469Y247700D02*
X262600D01*
X258469Y254200D02*
X262600D01*
X250300Y247800D02*
X254532D01*
X250300Y254200D02*
X254532D01*
X170500Y264200D02*
X182500D01*
X170500Y270800D02*
X182500D01*
Y264200D02*
Y270800D01*
X170500Y264200D02*
Y270800D01*
X201700Y296000D02*
X208300D01*
X201700Y308000D02*
X208300D01*
X201700Y296000D02*
Y308000D01*
X208300Y296000D02*
Y308000D01*
X182000Y301300D02*
X194000D01*
X182000Y294700D02*
X194000D01*
X182000D02*
Y301300D01*
X194000Y294700D02*
Y301300D01*
X160000Y193200D02*
X172000D01*
X160000Y199800D02*
X172000D01*
Y193200D02*
Y199800D01*
X160000Y193200D02*
Y199800D01*
X119500Y362200D02*
Y368800D01*
X131500Y362200D02*
Y368800D01*
X119500D02*
X131500D01*
X119500Y362200D02*
X131500D01*
X230500Y270800D02*
X242500D01*
X230500Y264200D02*
X242500D01*
X230500D02*
Y270800D01*
X242500Y264200D02*
Y270800D01*
X112000Y370700D02*
Y377300D01*
X124000Y370700D02*
Y377300D01*
X112000D02*
X124000D01*
X112000Y370700D02*
X124000D01*
X210500Y350700D02*
X222500D01*
X210500Y357300D02*
X222500D01*
Y350700D02*
Y357300D01*
X210500Y350700D02*
Y357300D01*
X193200Y328500D02*
X199800D01*
X193200Y340500D02*
X199800D01*
X193200Y328500D02*
Y340500D01*
X199800Y328500D02*
Y340500D01*
X316700Y253500D02*
Y265500D01*
X323300Y253500D02*
Y265500D01*
X316700Y253500D02*
X323300D01*
X316700Y265500D02*
X323300D01*
X237000Y16700D02*
Y23300D01*
X249000Y16700D02*
Y23300D01*
X237000D02*
X249000D01*
X237000Y16700D02*
X249000D01*
X248000Y31200D02*
X260000D01*
X248000Y37800D02*
X260000D01*
Y31200D02*
Y37800D01*
X248000Y31200D02*
Y37800D01*
X298700Y253500D02*
X305300D01*
X298700Y265500D02*
X305300D01*
X298700Y253500D02*
Y265500D01*
X305300Y253500D02*
Y265500D01*
X175700Y328500D02*
Y340500D01*
X182300Y328500D02*
Y340500D01*
X175700Y328500D02*
X182300D01*
X175700Y340500D02*
X182300D01*
X233000Y39200D02*
Y45800D01*
X245000Y39200D02*
Y45800D01*
X233000D02*
X245000D01*
X233000Y39200D02*
X245000D01*
X295300Y253500D02*
Y265500D01*
X288700Y253500D02*
Y265500D01*
X295300D01*
X288700Y253500D02*
X295300D01*
X190500Y16700D02*
Y23300D01*
X202500Y16700D02*
Y23300D01*
X190500D02*
X202500D01*
X190500Y16700D02*
X202500D01*
X285300Y253500D02*
Y265500D01*
X278700Y253500D02*
Y265500D01*
X285300D01*
X278700Y253500D02*
X285300D01*
X362500Y183200D02*
Y189800D01*
X374500Y183200D02*
Y189800D01*
X362500D02*
X374500D01*
X362500Y183200D02*
X374500D01*
X201000Y31700D02*
X213000D01*
X201000Y38300D02*
X213000D01*
Y31700D02*
Y38300D01*
X201000Y31700D02*
Y38300D01*
X84300Y84200D02*
X88532D01*
X84300Y77800D02*
X88532D01*
X92469Y84200D02*
X96600D01*
X92469Y77700D02*
X96600D01*
Y84200D01*
X84300Y77800D02*
Y84200D01*
X201800Y280800D02*
X208200D01*
X201800Y293100D02*
X208300D01*
Y288968D02*
Y293100D01*
X201800Y288968D02*
Y293100D01*
X208200Y280800D02*
Y285032D01*
X201800Y280800D02*
Y285032D01*
X118800Y358700D02*
X125200D01*
X118700Y346400D02*
X125200D01*
X118700D02*
Y350532D01*
X125200Y346400D02*
Y350532D01*
X118800Y354468D02*
Y358700D01*
X125200Y354468D02*
Y358700D01*
X226300Y351300D02*
Y355532D01*
X232700Y351300D02*
Y355532D01*
X226300Y359469D02*
Y363600D01*
X232800Y359469D02*
Y363600D01*
X226300D02*
X232800D01*
X226300Y351300D02*
X232700D01*
X236800Y363700D02*
X243200D01*
X236700Y351400D02*
X243200D01*
X236700D02*
Y355532D01*
X243200Y351400D02*
Y355532D01*
X236800Y359469D02*
Y363700D01*
X243200Y359469D02*
Y363700D01*
X246300Y351300D02*
Y355532D01*
X252700Y351300D02*
Y355532D01*
X246300Y359469D02*
Y363600D01*
X252800Y359469D02*
Y363600D01*
X246300D02*
X252800D01*
X246300Y351300D02*
X252700D01*
X184800Y340700D02*
X191200D01*
X184700Y328400D02*
X191200D01*
X184700D02*
Y332531D01*
X191200Y328400D02*
Y332531D01*
X184800Y336469D02*
Y340700D01*
X191200Y336469D02*
Y340700D01*
D16*
X177000Y274600D02*
X177900Y275500D01*
X178000Y273920D02*
Y277080D01*
X177000Y276400D02*
X177900Y275500D01*
X177000Y274600D02*
Y276400D01*
X167000Y203600D02*
X167900Y204500D01*
X168000Y202920D02*
Y206080D01*
X167000Y205400D02*
X167900Y204500D01*
X167000Y203600D02*
Y205400D01*
X236000Y250100D02*
Y251900D01*
X235100Y251000D02*
X236000Y250100D01*
X235000Y249420D02*
Y252580D01*
X235100Y251000D02*
X236000Y251900D01*
X256600Y23500D02*
X257500Y22600D01*
X255920Y22500D02*
X259080D01*
X257500Y22600D02*
X258400Y23500D01*
X256600D02*
X258400D01*
X210600Y23000D02*
X212400D01*
X211500Y22100D02*
X212400Y23000D01*
X209920Y22000D02*
X213080D01*
X210600Y23000D02*
X211500Y22100D01*
D17*
X150250Y352300D02*
Y378700D01*
X164750D01*
Y374560D02*
X175250D01*
Y356560D02*
Y374560D01*
X164750Y356560D02*
X175250D01*
X164750Y374560D02*
Y378700D01*
Y352300D02*
Y356560D01*
X150250Y352300D02*
X164750D01*
D18*
X121449Y342992D02*
X148909D01*
X152551Y339350D01*
X121449Y317008D02*
X149008D01*
X152551Y320551D01*
X121449Y333051D02*
Y342992D01*
M02*
