G04*
G04 #@! TF.GenerationSoftware,Altium Limited,Altium Designer,21.0.8 (223)*
G04*
G04 Layer_Color=16711935*
%FSLAX25Y25*%
%MOIN*%
G70*
G04*
G04 #@! TF.SameCoordinates,790BC176-E466-43CB-AF78-98272D84D4DC*
G04*
G04*
G04 #@! TF.FilePolarity,Positive*
G04*
G01*
G75*
%ADD14C,0.00500*%
%ADD18C,0.00050*%
%ADD95C,0.00100*%
%ADD96C,0.00051*%
%ADD97C,0.00600*%
G36*
X97531Y43637D02*
X97591Y43632D01*
X97602D01*
X97635Y43626D01*
X97673Y43615D01*
X97706Y43604D01*
X97711Y43599D01*
X97728Y43593D01*
X97750Y43577D01*
X97766Y43561D01*
X97771Y43555D01*
X97777Y43544D01*
X97782Y43528D01*
Y43506D01*
Y38150D01*
X98902D01*
X98923Y38139D01*
X98951Y38128D01*
X98956Y38122D01*
X98973Y38111D01*
X98989Y38090D01*
X99005Y38062D01*
X99011Y38057D01*
X99016Y38035D01*
X99027Y38002D01*
X99038Y37964D01*
X99044Y37953D01*
X99049Y37926D01*
X99054Y37877D01*
Y37817D01*
Y37811D01*
Y37800D01*
Y37784D01*
Y37767D01*
X99049Y37713D01*
X99038Y37664D01*
Y37653D01*
X99027Y37631D01*
X99016Y37598D01*
X99000Y37565D01*
X98994Y37560D01*
X98984Y37549D01*
X98967Y37533D01*
X98945Y37516D01*
X98940D01*
X98923Y37511D01*
X98902Y37505D01*
X98880Y37500D01*
X95675D01*
X95653Y37505D01*
X95631Y37516D01*
X95626Y37522D01*
X95615Y37527D01*
X95598Y37544D01*
X95576Y37565D01*
X95571Y37571D01*
X95565Y37593D01*
X95549Y37626D01*
X95538Y37664D01*
Y37669D01*
Y37675D01*
X95533Y37707D01*
X95527Y37757D01*
Y37817D01*
Y37822D01*
Y37833D01*
Y37849D01*
Y37866D01*
X95533Y37915D01*
X95538Y37964D01*
Y37970D01*
X95544Y37975D01*
X95549Y37997D01*
X95560Y38030D01*
X95571Y38062D01*
X95576Y38068D01*
X95587Y38090D01*
X95604Y38106D01*
X95626Y38128D01*
X95631Y38133D01*
X95647Y38139D01*
X95669Y38144D01*
X95697Y38150D01*
X96969D01*
Y42791D01*
X95784Y42086D01*
X95779D01*
X95767Y42081D01*
X95735Y42059D01*
X95686Y42043D01*
X95642Y42026D01*
X95609D01*
X95582Y42032D01*
X95555Y42048D01*
X95549Y42054D01*
X95538Y42075D01*
X95522Y42108D01*
X95511Y42152D01*
Y42157D01*
Y42163D01*
X95505Y42179D01*
Y42201D01*
X95500Y42256D01*
Y42327D01*
Y42332D01*
Y42343D01*
Y42376D01*
Y42419D01*
X95505Y42463D01*
Y42469D01*
Y42474D01*
X95511Y42496D01*
X95516Y42529D01*
X95522Y42561D01*
X95527Y42567D01*
X95533Y42583D01*
X95565Y42627D01*
X95571Y42632D01*
X95587Y42643D01*
X95609Y42660D01*
X95636Y42682D01*
X97040Y43582D01*
X97045Y43588D01*
X97056Y43593D01*
X97089Y43604D01*
X97094D01*
X97111Y43610D01*
X97132Y43621D01*
X97160Y43626D01*
X97165D01*
X97187Y43632D01*
X97220Y43637D01*
X97269D01*
X97296Y43643D01*
X97466D01*
X97531Y43637D01*
D02*
G37*
G36*
X43636Y159495D02*
X43641D01*
X43645D01*
X43663Y159491D01*
X43691Y159486D01*
X43718Y159482D01*
X43722Y159477D01*
X43736Y159473D01*
X43772Y159445D01*
X43777Y159441D01*
X43786Y159427D01*
X43800Y159409D01*
X43818Y159386D01*
X44569Y158217D01*
X44573Y158212D01*
X44578Y158203D01*
X44587Y158176D01*
Y158171D01*
X44591Y158158D01*
X44600Y158140D01*
X44605Y158117D01*
Y158112D01*
X44610Y158094D01*
X44614Y158067D01*
Y158026D01*
X44619Y158003D01*
Y157862D01*
X44614Y157807D01*
X44610Y157757D01*
Y157748D01*
X44605Y157721D01*
X44596Y157689D01*
X44587Y157662D01*
X44582Y157657D01*
X44578Y157644D01*
X44564Y157625D01*
X44550Y157612D01*
X44546Y157607D01*
X44537Y157603D01*
X44523Y157598D01*
X44505D01*
X40041D01*
Y156665D01*
X40032Y156647D01*
X40023Y156624D01*
X40019Y156620D01*
X40010Y156606D01*
X39991Y156593D01*
X39969Y156579D01*
X39964Y156574D01*
X39946Y156570D01*
X39919Y156561D01*
X39887Y156552D01*
X39878Y156547D01*
X39855Y156543D01*
X39814Y156538D01*
X39764D01*
X39759D01*
X39750D01*
X39737D01*
X39723D01*
X39677Y156543D01*
X39636Y156552D01*
X39627D01*
X39609Y156561D01*
X39582Y156570D01*
X39555Y156583D01*
X39550Y156588D01*
X39541Y156597D01*
X39527Y156611D01*
X39514Y156629D01*
Y156633D01*
X39509Y156647D01*
X39505Y156665D01*
X39500Y156684D01*
Y159354D01*
X39505Y159373D01*
X39514Y159391D01*
X39518Y159395D01*
X39523Y159404D01*
X39536Y159418D01*
X39555Y159436D01*
X39559Y159441D01*
X39577Y159445D01*
X39605Y159459D01*
X39636Y159468D01*
X39641D01*
X39646D01*
X39673Y159473D01*
X39714Y159477D01*
X39764D01*
X39768D01*
X39778D01*
X39791D01*
X39805D01*
X39846Y159473D01*
X39887Y159468D01*
X39891D01*
X39896Y159464D01*
X39914Y159459D01*
X39941Y159450D01*
X39969Y159441D01*
X39973Y159436D01*
X39991Y159427D01*
X40005Y159414D01*
X40023Y159395D01*
X40028Y159391D01*
X40032Y159377D01*
X40037Y159359D01*
X40041Y159336D01*
Y158276D01*
X43909D01*
X43322Y159263D01*
Y159268D01*
X43317Y159277D01*
X43299Y159304D01*
X43286Y159345D01*
X43272Y159382D01*
Y159409D01*
X43277Y159432D01*
X43290Y159455D01*
X43295Y159459D01*
X43313Y159468D01*
X43340Y159482D01*
X43377Y159491D01*
X43381D01*
X43386D01*
X43399Y159495D01*
X43418D01*
X43463Y159500D01*
X43522D01*
X43527D01*
X43536D01*
X43563D01*
X43600D01*
X43636Y159495D01*
D02*
G37*
D14*
X399500Y20000D02*
X400500D01*
X399500Y0D02*
X400500D01*
X400000Y20000D02*
X401333Y24000D01*
X398667D02*
X400000Y20000D01*
Y0D02*
X401333Y-4000D01*
X398667D02*
X400000Y0D01*
Y20000D02*
Y30000D01*
Y-10000D02*
Y0D01*
X399500Y389000D02*
X400500D01*
X399500Y369000D02*
X400500D01*
X400000Y389000D02*
X401333Y393000D01*
X398667D02*
X400000Y389000D01*
Y369000D02*
X401333Y365000D01*
X398667D02*
X400000Y369000D01*
Y389000D02*
Y399000D01*
Y359000D02*
Y369000D01*
X380000Y439500D02*
Y440500D01*
X360000Y439500D02*
Y440500D01*
X380000Y440000D02*
X384000Y438667D01*
X380000Y440000D02*
X384000Y441333D01*
X356000Y438667D02*
X360000Y440000D01*
X356000Y441333D02*
X360000Y440000D01*
X380000D02*
X390000D01*
X350000D02*
X360000D01*
X393801Y388996D02*
X394801D01*
X393801Y-4D02*
X394801D01*
X394301Y388996D02*
X396301Y382996D01*
X392301D02*
X394301Y388996D01*
Y-4D02*
X396301Y5996D01*
X392301D02*
X394301Y-4D01*
Y207093D02*
Y388996D01*
Y-4D02*
Y181900D01*
X380000Y419500D02*
Y420500D01*
X0Y419500D02*
Y420500D01*
X374000Y418000D02*
X380000Y420000D01*
X374000Y422000D02*
X380000Y420000D01*
X0D02*
X6000Y418000D01*
X0Y420000D02*
X6000Y422000D01*
X202596Y420000D02*
X380000D01*
X0D02*
X177403D01*
X379962Y405400D02*
Y406400D01*
X333362Y405400D02*
Y406400D01*
X375962Y404567D02*
X379962Y405900D01*
X375962Y407233D02*
X379962Y405900D01*
X333362D02*
X337362Y404567D01*
X333362Y405900D02*
X337362Y407233D01*
X363593Y405900D02*
X379962D01*
X333362D02*
X349730D01*
X333400Y405400D02*
Y406400D01*
X261200Y405400D02*
Y406400D01*
X329400Y404567D02*
X333400Y405900D01*
X329400Y407233D02*
X333400Y405900D01*
X261200D02*
X265200Y404567D01*
X261200Y405900D02*
X265200Y407233D01*
X304232Y405900D02*
X333400D01*
X261200D02*
X290368D01*
X261200Y405400D02*
Y406400D01*
X0Y405400D02*
Y406400D01*
X257200Y404567D02*
X261200Y405900D01*
X257200Y407233D02*
X261200Y405900D01*
X0D02*
X4000Y404567D01*
X0Y405900D02*
X4000Y407233D01*
X139198Y405900D02*
X261200D01*
X0D02*
X122002D01*
X54490Y297620D02*
X141490D01*
X54490Y234620D02*
Y297620D01*
Y234620D02*
X141490D01*
Y297620D01*
X53990Y209120D02*
X140990D01*
X53990Y146120D02*
Y209120D01*
Y146120D02*
X140990D01*
Y209120D01*
D18*
X192500Y55000D02*
Y237500D01*
Y55000D02*
X295000D01*
Y237500D01*
X192500D02*
X295000D01*
X154000Y203000D02*
X157000D01*
X154000Y195500D02*
X157000D01*
Y198000D01*
X154000D02*
X157000D01*
X147000Y199500D02*
Y201500D01*
X150000D01*
X147000Y199500D02*
X150000D01*
X150031Y206405D02*
X153969D01*
X150031Y194693D02*
Y206405D01*
X153969Y194693D02*
Y206405D01*
X150031Y194693D02*
X153969D01*
X154000Y205500D02*
X157000D01*
Y203000D02*
Y205500D01*
X164000Y276500D02*
X167000D01*
Y274000D02*
Y276500D01*
X164000Y274000D02*
X167000D01*
X164000Y266500D02*
X167000D01*
Y269000D01*
X164000D02*
X167000D01*
X157000Y270500D02*
Y272500D01*
X160000D01*
X157000Y270500D02*
X160000D01*
X160031Y277406D02*
X163969D01*
X160031Y265693D02*
Y277406D01*
X163969Y265693D02*
Y277406D01*
X160031Y265693D02*
X163969D01*
X175110Y273920D02*
Y277090D01*
X179850Y273890D02*
Y277090D01*
X174350Y273920D02*
X180650D01*
Y277080D01*
X174350Y273920D02*
Y277075D01*
X174355Y277080D01*
X180650D01*
X165110Y202920D02*
Y206090D01*
X169850Y202890D02*
Y206090D01*
X164350Y202920D02*
X170650D01*
Y206080D01*
X164350Y202920D02*
Y206075D01*
X164356Y206080D01*
X170650D01*
X232350Y249420D02*
X238645D01*
X238650Y249426D01*
Y252580D01*
X232350Y249420D02*
Y252580D01*
X238650D01*
X233150Y249410D02*
Y252610D01*
X237890Y249410D02*
Y252580D01*
X255920Y25390D02*
X259090D01*
X255890Y20650D02*
X259090D01*
X255920Y19850D02*
Y26150D01*
Y19850D02*
X259080D01*
X255920Y26150D02*
X259074D01*
X259080Y26144D01*
Y19850D02*
Y26144D01*
X213080Y19350D02*
Y25644D01*
X213074Y25650D02*
X213080Y25644D01*
X209920Y25650D02*
X213074D01*
X209920Y19350D02*
X213080D01*
X209920D02*
Y25650D01*
X209890Y20150D02*
X213090D01*
X209920Y24890D02*
X213090D01*
X220000Y298000D02*
X223000D01*
Y295500D02*
Y298000D01*
X220000Y295500D02*
X223000D01*
X220000Y288000D02*
X223000D01*
Y290500D01*
X220000D02*
X223000D01*
X213000Y292000D02*
Y294000D01*
X216000D01*
X213000Y292000D02*
X216000D01*
X216032Y298905D02*
X219969D01*
X216032Y287193D02*
Y298905D01*
X219969Y287193D02*
Y298905D01*
X216032Y287193D02*
X219969D01*
X164750Y352560D02*
Y378700D01*
X150250D02*
X164750D01*
X150250Y352300D02*
Y378700D01*
Y352300D02*
X164750D01*
Y353060D01*
Y358560D02*
X173250D01*
Y372560D01*
X164750D02*
X173250D01*
X142750D02*
X150250D01*
X142750D02*
Y376560D01*
X150250D01*
X142750Y367560D02*
X150250D01*
X142750Y363560D02*
Y367560D01*
Y363560D02*
X150250D01*
X142750Y358560D02*
X150250D01*
X142750Y354560D02*
Y358560D01*
Y354560D02*
X150250D01*
X187500Y33000D02*
Y36000D01*
X244807Y28532D02*
Y32469D01*
X233095D02*
X244807D01*
X233095Y28532D02*
X244807D01*
X233095D02*
Y32469D01*
X240000Y25500D02*
Y28500D01*
X238000Y25500D02*
Y28500D01*
Y25500D02*
X240000D01*
X241500Y32500D02*
Y35500D01*
X244000D01*
Y32500D02*
Y35500D01*
X236500Y32500D02*
Y35500D01*
X234000D02*
X236500D01*
X234000Y32500D02*
Y35500D01*
X158531Y148693D02*
X162469D01*
Y160406D01*
X158531Y148693D02*
Y160406D01*
X162469D01*
X155500Y153500D02*
X158500D01*
X155500Y155500D02*
X158500D01*
X155500Y153500D02*
Y155500D01*
X162500Y152000D02*
X165500D01*
Y149500D02*
Y152000D01*
X162500Y149500D02*
X165500D01*
X162500Y157000D02*
X165500D01*
Y159500D01*
X162500D02*
X165500D01*
X161031Y242193D02*
X164969D01*
Y253906D01*
X161031Y242193D02*
Y253906D01*
X164969D01*
X158000Y247000D02*
X161000D01*
X158000Y249000D02*
X161000D01*
X158000Y247000D02*
Y249000D01*
X165000Y245500D02*
X168000D01*
Y243000D02*
Y245500D01*
X165000Y243000D02*
X168000D01*
X165000Y250500D02*
X168000D01*
Y253000D01*
X165000D02*
X168000D01*
X210693Y364032D02*
Y367969D01*
Y364032D02*
X222406D01*
X210693Y367969D02*
X222406D01*
Y364032D02*
Y367969D01*
X215500Y368000D02*
Y371000D01*
X217500Y368000D02*
Y371000D01*
X215500D02*
X217500D01*
X214000Y361000D02*
Y364000D01*
X211500Y361000D02*
X214000D01*
X211500D02*
Y364000D01*
X219000Y361000D02*
Y364000D01*
Y361000D02*
X221500D01*
Y364000D01*
X198307Y29032D02*
Y32969D01*
X186594D02*
X198307D01*
X186594Y29032D02*
X198307D01*
X186594D02*
Y32969D01*
X193500Y26000D02*
Y29000D01*
X191500Y26000D02*
Y29000D01*
Y26000D02*
X193500D01*
X195000Y33000D02*
Y36000D01*
X197500D01*
Y33000D02*
Y36000D01*
X190000Y33000D02*
Y36000D01*
X187500D02*
X190000D01*
D95*
X360000Y369000D02*
Y449000D01*
Y369000D02*
X440000D01*
X360000Y20000D02*
X440000D01*
X380000Y389000D02*
X400000D01*
X380000Y0D02*
X400000D01*
X380000Y389000D02*
Y449000D01*
X333400Y389000D02*
Y409500D01*
X261200Y389000D02*
Y409500D01*
X0Y389000D02*
Y420000D01*
X60495Y90500D02*
Y93500D01*
Y90500D02*
X64495D01*
Y93500D01*
X70000Y73500D02*
Y93500D01*
X55000Y73500D02*
X70000D01*
X55000D02*
Y93500D01*
X70000D01*
D96*
X293400Y43200D02*
X297838D01*
X293400Y14900D02*
Y43200D01*
Y14900D02*
X310100D01*
X297838Y43200D02*
X323500D01*
X310100Y14900D02*
X323500D01*
Y43200D01*
X109000Y5500D02*
Y33400D01*
X58000Y5500D02*
Y33400D01*
X109000D01*
X57900Y4000D02*
X108900D01*
D97*
X410397Y6734D02*
Y4068D01*
X407732Y6734D01*
X407065D01*
X406399Y6068D01*
Y4735D01*
X407065Y4068D01*
Y8067D02*
X406399Y8733D01*
Y10067D01*
X407065Y10733D01*
X409731D01*
X410397Y10067D01*
Y8733D01*
X409731Y8067D01*
X407065D01*
Y12066D02*
X406399Y12732D01*
Y14065D01*
X407065Y14732D01*
X409731D01*
X410397Y14065D01*
Y12732D01*
X409731Y12066D01*
X407065D01*
X410397Y375734D02*
Y373068D01*
X407732Y375734D01*
X407065D01*
X406399Y375068D01*
Y373735D01*
X407065Y373068D01*
Y377067D02*
X406399Y377734D01*
Y379066D01*
X407065Y379733D01*
X409731D01*
X410397Y379066D01*
Y377734D01*
X409731Y377067D01*
X407065D01*
Y381066D02*
X406399Y381732D01*
Y383065D01*
X407065Y383732D01*
X409731D01*
X410397Y383065D01*
Y381732D01*
X409731Y381066D01*
X407065D01*
X366734Y429603D02*
X364068D01*
X366734Y432268D01*
Y432935D01*
X366068Y433601D01*
X364735D01*
X364068Y432935D01*
X368067D02*
X368734Y433601D01*
X370066D01*
X370733Y432935D01*
Y430269D01*
X370066Y429603D01*
X368734D01*
X368067Y430269D01*
Y432935D01*
X372066D02*
X372732Y433601D01*
X374065D01*
X374732Y432935D01*
Y430269D01*
X374065Y429603D01*
X372732D01*
X372066Y430269D01*
Y432935D01*
X392902Y182900D02*
X391902Y183900D01*
Y185899D01*
X392902Y186899D01*
X393901D01*
X394901Y185899D01*
Y184899D01*
Y185899D01*
X395901Y186899D01*
X396900D01*
X397900Y185899D01*
Y183900D01*
X396900Y182900D01*
X392902Y188898D02*
X391902Y189898D01*
Y191897D01*
X392902Y192897D01*
X393901D01*
X394901Y191897D01*
X395901Y192897D01*
X396900D01*
X397900Y191897D01*
Y189898D01*
X396900Y188898D01*
X395901D01*
X394901Y189898D01*
X393901Y188898D01*
X392902D01*
X394901Y189898D02*
Y191897D01*
X396900Y194896D02*
X397900Y195896D01*
Y197895D01*
X396900Y198895D01*
X392902D01*
X391902Y197895D01*
Y195896D01*
X392902Y194896D01*
X393901D01*
X394901Y195896D01*
Y198895D01*
X392902Y200894D02*
X391902Y201894D01*
Y203893D01*
X392902Y204893D01*
X396900D01*
X397900Y203893D01*
Y201894D01*
X396900Y200894D01*
X392902D01*
X178403Y421399D02*
X179403Y422399D01*
X181403D01*
X182402Y421399D01*
Y420400D01*
X181403Y419400D01*
X180403D01*
X181403D01*
X182402Y418400D01*
Y417401D01*
X181403Y416401D01*
X179403D01*
X178403Y417401D01*
X184402Y421399D02*
X185401Y422399D01*
X187401D01*
X188400Y421399D01*
Y420400D01*
X187401Y419400D01*
X188400Y418400D01*
Y417401D01*
X187401Y416401D01*
X185401D01*
X184402Y417401D01*
Y418400D01*
X185401Y419400D01*
X184402Y420400D01*
Y421399D01*
X185401Y419400D02*
X187401D01*
X190400Y421399D02*
X191399Y422399D01*
X193399D01*
X194398Y421399D01*
Y417401D01*
X193399Y416401D01*
X191399D01*
X190400Y417401D01*
Y421399D01*
X196398D02*
X197397Y422399D01*
X199397D01*
X200396Y421399D01*
Y417401D01*
X199397Y416401D01*
X197397D01*
X196398Y417401D01*
Y421399D01*
X352729Y403301D02*
Y407299D01*
X350730Y405300D01*
X353396D01*
X357395Y407299D02*
X356062Y406633D01*
X354729Y405300D01*
Y403967D01*
X355395Y403301D01*
X356728D01*
X357395Y403967D01*
Y404634D01*
X356728Y405300D01*
X354729D01*
X361393Y407299D02*
X360060Y406633D01*
X358727Y405300D01*
Y403967D01*
X359394Y403301D01*
X360727D01*
X361393Y403967D01*
Y404634D01*
X360727Y405300D01*
X358727D01*
X291368Y407299D02*
X294034D01*
Y406633D01*
X291368Y403967D01*
Y403301D01*
X298033D02*
X295367D01*
X298033Y405966D01*
Y406633D01*
X297366Y407299D01*
X296034D01*
X295367Y406633D01*
X302032Y403301D02*
X299366D01*
X302032Y405966D01*
Y406633D01*
X301365Y407299D01*
X300032D01*
X299366Y406633D01*
X125668Y403301D02*
X123002D01*
X125668Y405966D01*
Y406633D01*
X125002Y407299D01*
X123669D01*
X123002Y406633D01*
X129667Y407299D02*
X128334Y406633D01*
X127001Y405300D01*
Y403967D01*
X127667Y403301D01*
X129000D01*
X129667Y403967D01*
Y404634D01*
X129000Y405300D01*
X127001D01*
X131000Y403301D02*
X132333D01*
X131666D01*
Y407299D01*
X131000Y406633D01*
X136998Y403301D02*
X134332D01*
X136998Y405966D01*
Y406633D01*
X136331Y407299D01*
X134998D01*
X134332Y406633D01*
M02*
