G04*
G04 #@! TF.GenerationSoftware,Altium Limited,Altium Designer,21.0.8 (223)*
G04*
G04 Layer_Physical_Order=1*
G04 Layer_Color=255*
%FSLAX25Y25*%
%MOIN*%
G70*
G04*
G04 #@! TF.SameCoordinates,790BC176-E466-43CB-AF78-98272D84D4DC*
G04*
G04*
G04 #@! TF.FilePolarity,Positive*
G04*
G01*
G75*
%ADD10C,0.01000*%
%ADD19R,0.10984X0.12598*%
%ADD20R,0.03543X0.07874*%
%ADD21R,0.07874X0.03543*%
%ADD22R,0.04000X0.03000*%
G04:AMPARAMS|DCode=23|XSize=27.56mil|YSize=49.21mil|CornerRadius=6.89mil|HoleSize=0mil|Usage=FLASHONLY|Rotation=180.000|XOffset=0mil|YOffset=0mil|HoleType=Round|Shape=RoundedRectangle|*
%AMROUNDEDRECTD23*
21,1,0.02756,0.03543,0,0,180.0*
21,1,0.01378,0.04921,0,0,180.0*
1,1,0.01378,-0.00689,0.01772*
1,1,0.01378,0.00689,0.01772*
1,1,0.01378,0.00689,-0.01772*
1,1,0.01378,-0.00689,-0.01772*
%
%ADD23ROUNDEDRECTD23*%
%ADD24R,0.05910X0.03030*%
G04:AMPARAMS|DCode=27|XSize=27.56mil|YSize=49.21mil|CornerRadius=6.89mil|HoleSize=0mil|Usage=FLASHONLY|Rotation=90.000|XOffset=0mil|YOffset=0mil|HoleType=Round|Shape=RoundedRectangle|*
%AMROUNDEDRECTD27*
21,1,0.02756,0.03543,0,0,90.0*
21,1,0.01378,0.04921,0,0,90.0*
1,1,0.01378,0.01772,0.00689*
1,1,0.01378,0.01772,-0.00689*
1,1,0.01378,-0.01772,-0.00689*
1,1,0.01378,-0.01772,0.00689*
%
%ADD27ROUNDEDRECTD27*%
%ADD28R,0.05000X0.03500*%
%ADD29R,0.13583X0.03543*%
%ADD30R,0.08000X0.06000*%
%ADD31R,0.08000X0.15000*%
%ADD32R,0.03000X0.04000*%
%ADD33R,0.03500X0.05000*%
%ADD42R,0.06000X0.20000*%
%ADD44R,0.06000X0.20000*%
%ADD45R,0.20000X0.06000*%
%ADD47R,0.31500X0.31500*%
%ADD52C,0.05000*%
%ADD53R,0.02854X0.04000*%
%ADD54R,0.04000X0.02854*%
%ADD55C,0.02000*%
%ADD56C,0.05000*%
%ADD57C,0.02500*%
%ADD58R,1.00486X0.08500*%
%ADD59R,0.26014X0.71000*%
%ADD60R,1.47986X0.26100*%
%ADD61R,0.27000X0.38700*%
%ADD62R,0.52000X0.48000*%
%ADD63R,1.02000X0.29000*%
%ADD64R,1.02000X0.26500*%
%ADD65R,1.33500X0.18500*%
%ADD66R,0.51500X0.38500*%
%ADD67R,0.29486X0.52500*%
%ADD68R,0.31986X0.43900*%
%ADD69R,0.16500X0.30400*%
%ADD70R,1.67500X0.21900*%
%ADD71R,0.45000X0.25500*%
%ADD72R,1.36000X0.15500*%
%ADD73R,0.84000X0.27500*%
%ADD74R,0.34000X0.25500*%
%ADD75R,0.84000X0.20000*%
G04:AMPARAMS|DCode=76|XSize=300mil|YSize=15mil|CornerRadius=3.75mil|HoleSize=0mil|Usage=FLASHONLY|Rotation=180.000|XOffset=0mil|YOffset=0mil|HoleType=Round|Shape=RoundedRectangle|*
%AMROUNDEDRECTD76*
21,1,0.30000,0.00750,0,0,180.0*
21,1,0.29250,0.01500,0,0,180.0*
1,1,0.00750,-0.14625,0.00375*
1,1,0.00750,0.14625,0.00375*
1,1,0.00750,0.14625,-0.00375*
1,1,0.00750,-0.14625,-0.00375*
%
%ADD76ROUNDEDRECTD76*%
G04:AMPARAMS|DCode=77|XSize=300mil|YSize=15mil|CornerRadius=3.75mil|HoleSize=0mil|Usage=FLASHONLY|Rotation=90.000|XOffset=0mil|YOffset=0mil|HoleType=Round|Shape=RoundedRectangle|*
%AMROUNDEDRECTD77*
21,1,0.30000,0.00750,0,0,90.0*
21,1,0.29250,0.01500,0,0,90.0*
1,1,0.00750,0.00375,0.14625*
1,1,0.00750,0.00375,-0.14625*
1,1,0.00750,-0.00375,-0.14625*
1,1,0.00750,-0.00375,0.14625*
%
%ADD77ROUNDEDRECTD77*%
G04:AMPARAMS|DCode=78|XSize=150mil|YSize=15mil|CornerRadius=3.75mil|HoleSize=0mil|Usage=FLASHONLY|Rotation=90.000|XOffset=0mil|YOffset=0mil|HoleType=Round|Shape=RoundedRectangle|*
%AMROUNDEDRECTD78*
21,1,0.15000,0.00750,0,0,90.0*
21,1,0.14250,0.01500,0,0,90.0*
1,1,0.00750,0.00375,0.07125*
1,1,0.00750,0.00375,-0.07125*
1,1,0.00750,-0.00375,-0.07125*
1,1,0.00750,-0.00375,0.07125*
%
%ADD78ROUNDEDRECTD78*%
%ADD79C,0.11811*%
%ADD80R,0.11811X0.11811*%
%ADD81C,0.10000*%
%ADD82R,0.06000X0.06000*%
%ADD83R,0.08000X0.08000*%
%ADD84C,0.08000*%
%ADD85R,0.09055X0.09055*%
%ADD86C,0.09000*%
%ADD87R,0.10000X0.10000*%
G36*
X378929Y1071D02*
X176500D01*
Y51300D01*
X289971D01*
Y36029D01*
X260151D01*
Y36272D01*
X260020Y36931D01*
X259647Y37489D01*
X259088Y37863D01*
X258429Y37994D01*
X257051D01*
X256392Y37863D01*
X255834Y37489D01*
X255460Y36931D01*
X255329Y36272D01*
Y32728D01*
X255460Y32069D01*
X255834Y31511D01*
X256392Y31137D01*
X257051Y31006D01*
X258429D01*
X259088Y31137D01*
X259647Y31511D01*
X260020Y32069D01*
X260151Y32728D01*
Y32971D01*
X290914D01*
X291499Y33087D01*
X291996Y33419D01*
X292581Y34004D01*
X292913Y34501D01*
X293029Y35086D01*
Y50971D01*
X294500D01*
Y29800D01*
X302500D01*
Y50946D01*
X302854Y51300D01*
X304000Y51300D01*
X303900Y51400D01*
X303900Y51800D01*
Y53737D01*
X307081Y56919D01*
X307413Y57415D01*
X307529Y58000D01*
Y150414D01*
X307747Y150561D01*
X308029Y150654D01*
X308485Y150391D01*
Y57148D01*
X307419Y56081D01*
X307087Y55585D01*
X306971Y55000D01*
Y51800D01*
X304500D01*
Y29800D01*
X312500D01*
Y51800D01*
X310029D01*
Y54366D01*
X311053Y55390D01*
X311095Y55419D01*
X311427Y55915D01*
X311543Y56500D01*
Y150292D01*
X312249Y150699D01*
X312901Y151351D01*
X313362Y152149D01*
X313600Y153039D01*
Y153961D01*
X313362Y154851D01*
X313004Y155471D01*
X313241Y155971D01*
X340781D01*
X343471Y153281D01*
Y118000D01*
X341000D01*
Y96000D01*
X349000D01*
Y118000D01*
X346529D01*
Y153914D01*
X346413Y154499D01*
X346081Y154996D01*
X342496Y158581D01*
X342000Y158913D01*
X341414Y159029D01*
X232158Y159029D01*
X231801Y159649D01*
X231149Y160301D01*
X230351Y160761D01*
X229461Y161000D01*
X228539D01*
X227649Y160761D01*
X226851Y160301D01*
X226199Y159649D01*
X225739Y158851D01*
X225500Y157961D01*
Y157039D01*
X225739Y156149D01*
X226199Y155351D01*
X226851Y154699D01*
X227649Y154238D01*
X228539Y154000D01*
X229461D01*
X230351Y154238D01*
X231149Y154699D01*
X231801Y155351D01*
X232158Y155971D01*
X306960Y155971D01*
X307196Y155471D01*
X306838Y154851D01*
X306600Y153961D01*
Y153113D01*
X306413Y152949D01*
X306142Y152818D01*
X305999Y152913D01*
X305414Y153029D01*
X296159D01*
X295801Y153649D01*
X295149Y154301D01*
X294351Y154762D01*
X293461Y155000D01*
X292539D01*
X291649Y154762D01*
X290851Y154301D01*
X290199Y153649D01*
X289738Y152851D01*
X289500Y151961D01*
Y151039D01*
X289738Y150149D01*
X290199Y149351D01*
X290851Y148699D01*
X291649Y148239D01*
X292539Y148000D01*
X293461D01*
X294351Y148239D01*
X295149Y148699D01*
X295801Y149351D01*
X296159Y149971D01*
X298868D01*
X299059Y149509D01*
X299021Y149471D01*
X298560Y148672D01*
X298322Y147782D01*
Y146861D01*
X298560Y145971D01*
X299021Y145173D01*
X299673Y144521D01*
X300471Y144060D01*
Y139400D01*
X181401Y139400D01*
X181151Y139833D01*
X181276Y140049D01*
X181514Y140939D01*
Y141861D01*
X181276Y142751D01*
X180815Y143549D01*
X180163Y144201D01*
X179365Y144661D01*
X178475Y144900D01*
X177553D01*
X176663Y144661D01*
X175865Y144201D01*
X175213Y143549D01*
X174856Y142929D01*
X156000D01*
Y152000D01*
X159500D01*
Y157000D01*
X158553D01*
Y194250D01*
X159000D01*
Y194871D01*
X159849D01*
Y194728D01*
X159980Y194069D01*
X160353Y193511D01*
X160912Y193137D01*
X161571Y193006D01*
X162949D01*
X163608Y193137D01*
X164166Y193511D01*
X164540Y194069D01*
X164671Y194728D01*
Y198272D01*
X164540Y198931D01*
X164166Y199489D01*
X163608Y199863D01*
X162949Y199994D01*
X161571D01*
X160912Y199863D01*
X160353Y199489D01*
X159980Y198931D01*
X159849Y198272D01*
Y197929D01*
X159000D01*
Y199250D01*
X156000D01*
Y200720D01*
X156000Y200720D01*
X156914Y200840D01*
X157765Y201193D01*
X158491Y201750D01*
X159000D01*
Y202410D01*
X159057Y202485D01*
X159410Y203336D01*
X159530Y204250D01*
Y209470D01*
X161253D01*
Y204500D01*
X161374Y203586D01*
X161726Y202735D01*
X162287Y202004D01*
X162356Y201951D01*
Y201500D01*
X162944D01*
X163018Y201443D01*
X163870Y201090D01*
X164784Y200970D01*
X165697Y201090D01*
X166549Y201443D01*
X166623Y201500D01*
X167211D01*
Y201559D01*
X167289Y201615D01*
X167789Y201500D01*
Y201500D01*
X168463D01*
Y199877D01*
X168392Y199863D01*
X167833Y199489D01*
X167460Y198931D01*
X167329Y198272D01*
Y194728D01*
X167460Y194069D01*
X167833Y193511D01*
X168392Y193137D01*
X169051Y193006D01*
X170429D01*
X171088Y193137D01*
X171647Y193511D01*
X172020Y194069D01*
X172151Y194728D01*
Y198272D01*
X172020Y198931D01*
X171647Y199489D01*
X171522Y199573D01*
Y201500D01*
X172644D01*
Y207500D01*
X168314D01*
Y213000D01*
Y217945D01*
X245063D01*
X245434Y217574D01*
X246574Y216915D01*
X247846Y216575D01*
X249162D01*
X250434Y216915D01*
X251574Y217574D01*
X252505Y218505D01*
X253163Y219645D01*
X253504Y220917D01*
Y222233D01*
X253163Y223505D01*
X252505Y224645D01*
X252371Y224779D01*
Y245426D01*
X255073Y248128D01*
X255634Y248860D01*
X255987Y249711D01*
X256107Y250625D01*
Y250900D01*
X255987Y251814D01*
X255634Y252665D01*
X255073Y253396D01*
X255042Y253420D01*
X255040Y253431D01*
X254666Y253989D01*
X254108Y254363D01*
X253449Y254494D01*
X252071D01*
X251412Y254363D01*
X250853Y253989D01*
X250839Y253969D01*
X250812Y253957D01*
X250081Y253396D01*
X249520Y252665D01*
X249445Y252485D01*
X249389Y252429D01*
X240644D01*
Y254000D01*
X235789D01*
Y248000D01*
X240644D01*
Y249371D01*
X245769D01*
X245990Y248922D01*
X245784Y248654D01*
X245431Y247802D01*
X245311Y246888D01*
Y225453D01*
X244863Y225005D01*
X165994D01*
X165080Y224885D01*
X164229Y224532D01*
X163498Y223971D01*
X162287Y222761D01*
X161726Y222029D01*
X161374Y221178D01*
X161253Y220264D01*
Y216530D01*
X136500D01*
Y238500D01*
X156000D01*
Y240261D01*
X158242D01*
X159023Y240416D01*
X159684Y240858D01*
X160856Y242030D01*
X160856Y242030D01*
X161298Y242691D01*
X161453Y243472D01*
Y245500D01*
X162000D01*
Y250500D01*
X160943D01*
Y266127D01*
X161443Y266394D01*
X161679Y266237D01*
X162264Y266121D01*
X163000D01*
Y265250D01*
X169000D01*
Y265871D01*
X170349D01*
Y265728D01*
X170480Y265069D01*
X170853Y264511D01*
X171412Y264137D01*
X172071Y264006D01*
X173449D01*
X174108Y264137D01*
X174667Y264511D01*
X175040Y265069D01*
X175171Y265728D01*
Y269272D01*
X175040Y269931D01*
X174667Y270489D01*
X174108Y270863D01*
X173449Y270994D01*
X172071D01*
X171412Y270863D01*
X170853Y270489D01*
X170480Y269931D01*
X170349Y269272D01*
Y268929D01*
X169000D01*
Y270250D01*
X163000D01*
Y269784D01*
X162500Y269577D01*
X161000Y271077D01*
Y274000D01*
X156000D01*
Y286110D01*
X161623D01*
X162484Y285249D01*
Y275150D01*
X162604Y274236D01*
X162957Y273385D01*
X163000Y273329D01*
Y272750D01*
X163444D01*
X163518Y272654D01*
X164249Y272093D01*
X165100Y271740D01*
X166014Y271620D01*
X166928Y271740D01*
X167779Y272093D01*
X168510Y272654D01*
X168584Y272750D01*
X169000D01*
Y273292D01*
X169071Y273385D01*
X169169Y273621D01*
X172356D01*
Y272500D01*
X177211D01*
Y278500D01*
X172356D01*
Y276679D01*
X169544D01*
Y286711D01*
X169424Y287625D01*
X169071Y288476D01*
X168510Y289207D01*
X165581Y292136D01*
X164850Y292697D01*
X163999Y293050D01*
X163085Y293170D01*
X156000D01*
Y298500D01*
X102544D01*
Y308400D01*
X156000Y308400D01*
Y308400D01*
X102544D01*
Y321534D01*
X102424Y322447D01*
X102071Y323299D01*
X101510Y324030D01*
X100779Y324591D01*
X99928Y324944D01*
X99014Y325064D01*
X79492D01*
Y328933D01*
X66508D01*
Y314335D01*
X79492D01*
Y318004D01*
X95484D01*
Y308400D01*
X32029Y308400D01*
Y336871D01*
X112971D01*
Y316086D01*
X113087Y315500D01*
X113419Y315004D01*
X114004Y314419D01*
X114500Y314087D01*
X115086Y313971D01*
X182971D01*
Y301374D01*
X182912Y301363D01*
X182353Y300989D01*
X181980Y300431D01*
X181849Y299772D01*
Y296228D01*
X181980Y295569D01*
X182353Y295011D01*
X182912Y294637D01*
X183571Y294506D01*
X184949D01*
X185608Y294637D01*
X186167Y295011D01*
X186540Y295569D01*
X186671Y296228D01*
Y299772D01*
X186540Y300431D01*
X186167Y300989D01*
X186029Y301081D01*
Y314914D01*
X185913Y315499D01*
X185581Y315996D01*
X184996Y316581D01*
X184500Y316913D01*
X183914Y317029D01*
X116029D01*
Y337814D01*
X115913Y338400D01*
X115581Y338896D01*
X114996Y339481D01*
X114499Y339813D01*
X113914Y339929D01*
X31086D01*
X30501Y339813D01*
X30004Y339481D01*
X29419Y338896D01*
X29087Y338400D01*
X28971Y337814D01*
Y308400D01*
X20694D01*
X20191Y308500D01*
X19009D01*
X18506Y308400D01*
X1071D01*
Y387929D01*
X260129D01*
Y380200D01*
Y372200D01*
Y363400D01*
X260155Y363272D01*
X259801Y362772D01*
X259063D01*
Y360500D01*
X268937D01*
Y362329D01*
X325992Y362329D01*
Y360500D01*
X335866D01*
Y362772D01*
X334799D01*
X334445Y363272D01*
X334471Y363400D01*
Y387929D01*
X378929D01*
Y1071D01*
D02*
G37*
G36*
X157885Y250500D02*
X156000D01*
X156000Y251000D01*
Y269000D01*
X157885D01*
Y250500D01*
D02*
G37*
G36*
X304471Y144368D02*
Y59021D01*
X304400Y58974D01*
X303900Y59241D01*
X303900Y139400D01*
X303529D01*
Y144266D01*
X303971Y144521D01*
X304009Y144559D01*
X304471Y144368D01*
D02*
G37*
%LPC*%
G36*
X247800Y385490D02*
Y382500D01*
X250789D01*
X250561Y383351D01*
X250101Y384149D01*
X249449Y384801D01*
X248651Y385262D01*
X247800Y385490D01*
D02*
G37*
G36*
X246800D02*
X245949Y385262D01*
X245151Y384801D01*
X244499Y384149D01*
X244039Y383351D01*
X243811Y382500D01*
X246800D01*
Y385490D01*
D02*
G37*
G36*
X223200Y384389D02*
Y381400D01*
X226189D01*
X225961Y382251D01*
X225501Y383049D01*
X224849Y383701D01*
X224051Y384161D01*
X223200Y384389D01*
D02*
G37*
G36*
X222200D02*
X221349Y384161D01*
X220551Y383701D01*
X219899Y383049D01*
X219439Y382251D01*
X219211Y381400D01*
X222200D01*
Y384389D01*
D02*
G37*
G36*
X250789Y381500D02*
X247800D01*
Y378510D01*
X248651Y378738D01*
X249449Y379199D01*
X250101Y379851D01*
X250561Y380649D01*
X250789Y381500D01*
D02*
G37*
G36*
X246800D02*
X243811D01*
X244039Y380649D01*
X244499Y379851D01*
X245151Y379199D01*
X245949Y378738D01*
X246800Y378510D01*
Y381500D01*
D02*
G37*
G36*
X226189Y380400D02*
X223200D01*
Y377411D01*
X224051Y377639D01*
X224849Y378099D01*
X225501Y378751D01*
X225961Y379549D01*
X226189Y380400D01*
D02*
G37*
G36*
X222200D02*
X219211D01*
X219439Y379549D01*
X219899Y378751D01*
X220551Y378099D01*
X221349Y377639D01*
X222200Y377411D01*
Y380400D01*
D02*
G37*
G36*
X196500Y380189D02*
Y377200D01*
X199489D01*
X199261Y378051D01*
X198801Y378849D01*
X198149Y379501D01*
X197351Y379961D01*
X196500Y380189D01*
D02*
G37*
G36*
X195500D02*
X194649Y379961D01*
X193851Y379501D01*
X193199Y378849D01*
X192738Y378051D01*
X192510Y377200D01*
X195500D01*
Y380189D01*
D02*
G37*
G36*
X235800Y378189D02*
Y375200D01*
X238790D01*
X238562Y376051D01*
X238101Y376849D01*
X237449Y377501D01*
X236651Y377961D01*
X235800Y378189D01*
D02*
G37*
G36*
X234800D02*
X233949Y377961D01*
X233151Y377501D01*
X232499Y376849D01*
X232038Y376051D01*
X231810Y375200D01*
X234800D01*
Y378189D01*
D02*
G37*
G36*
X114949Y377494D02*
X114760D01*
Y374500D01*
X116671D01*
Y375772D01*
X116540Y376431D01*
X116166Y376989D01*
X115608Y377363D01*
X114949Y377494D01*
D02*
G37*
G36*
X113760D02*
X113571D01*
X112912Y377363D01*
X112353Y376989D01*
X111980Y376431D01*
X111849Y375772D01*
Y374500D01*
X113760D01*
Y377494D01*
D02*
G37*
G36*
X199489Y376200D02*
X196500D01*
Y373211D01*
X197351Y373439D01*
X198149Y373899D01*
X198801Y374551D01*
X199261Y375349D01*
X199489Y376200D01*
D02*
G37*
G36*
X195500D02*
X192510D01*
X192738Y375349D01*
X193199Y374551D01*
X193851Y373899D01*
X194649Y373439D01*
X195500Y373211D01*
Y376200D01*
D02*
G37*
G36*
X238790Y374200D02*
X235800D01*
Y371211D01*
X236651Y371439D01*
X237449Y371899D01*
X238101Y372551D01*
X238562Y373349D01*
X238790Y374200D01*
D02*
G37*
G36*
X234800D02*
X231810D01*
X232038Y373349D01*
X232499Y372551D01*
X233151Y371899D01*
X233949Y371439D01*
X234800Y371211D01*
Y374200D01*
D02*
G37*
G36*
X150250Y378560D02*
X140250D01*
Y377930D01*
X121514D01*
X120600Y377810D01*
X119749Y377457D01*
X119018Y376896D01*
X118457Y376165D01*
X118104Y375314D01*
X117984Y374400D01*
X118104Y373486D01*
X118457Y372635D01*
X119018Y371904D01*
X119467Y371559D01*
X119834Y371011D01*
X120245Y370736D01*
Y368751D01*
X119853Y368489D01*
X119480Y367931D01*
X119349Y367272D01*
Y363728D01*
X119480Y363069D01*
X119853Y362511D01*
X120412Y362137D01*
X121071Y362006D01*
X122449D01*
X123108Y362137D01*
X123667Y362511D01*
X124040Y363069D01*
X124171Y363728D01*
Y367272D01*
X124040Y367931D01*
X123667Y368489D01*
X123303Y368732D01*
Y370781D01*
X123436Y370870D01*
X140250D01*
Y370560D01*
X150250D01*
Y378560D01*
D02*
G37*
G36*
X116671Y373500D02*
X114760D01*
Y370506D01*
X114949D01*
X115608Y370637D01*
X116166Y371011D01*
X116540Y371569D01*
X116671Y372228D01*
Y373500D01*
D02*
G37*
G36*
X113760D02*
X111849D01*
Y372228D01*
X111980Y371569D01*
X112353Y371011D01*
X112912Y370637D01*
X113571Y370506D01*
X113760D01*
Y373500D01*
D02*
G37*
G36*
X250000Y373090D02*
Y370100D01*
X252990D01*
X252762Y370951D01*
X252301Y371749D01*
X251649Y372401D01*
X250851Y372862D01*
X250000Y373090D01*
D02*
G37*
G36*
X249000D02*
X248149Y372862D01*
X247351Y372401D01*
X246699Y371749D01*
X246238Y370951D01*
X246010Y370100D01*
X249000D01*
Y373090D01*
D02*
G37*
G36*
X376750Y385750D02*
X360500D01*
Y369500D01*
X376750D01*
Y385750D01*
D02*
G37*
G36*
X359500D02*
X343250D01*
Y369500D01*
X359500D01*
Y385750D01*
D02*
G37*
G36*
X36750D02*
X20500D01*
Y369500D01*
X36750D01*
Y385750D01*
D02*
G37*
G36*
X19500D02*
X3250D01*
Y369500D01*
X19500D01*
Y385750D01*
D02*
G37*
G36*
X181014Y383620D02*
X154014D01*
X153624Y383542D01*
X153293Y383321D01*
X153072Y382990D01*
X152995Y382600D01*
Y368930D01*
X150250D01*
Y369500D01*
X140250D01*
Y368930D01*
X130248D01*
X129929Y368994D01*
X128551D01*
X127892Y368863D01*
X127333Y368489D01*
X126960Y367931D01*
X126953Y367894D01*
X126394Y367165D01*
X126041Y366314D01*
X125921Y365400D01*
X126041Y364486D01*
X126394Y363635D01*
X126955Y362904D01*
X127193Y362721D01*
X127333Y362511D01*
X127892Y362137D01*
X128449Y362027D01*
X128537Y361990D01*
X129451Y361870D01*
X140250D01*
Y361500D01*
X150250D01*
Y361870D01*
X152995D01*
Y343900D01*
X153072Y343510D01*
X153293Y343179D01*
X153624Y342958D01*
X153984Y342886D01*
Y333891D01*
X153123Y333030D01*
X144000D01*
X143086Y332910D01*
X142235Y332557D01*
X141863Y332272D01*
X140429D01*
Y326728D01*
X141863D01*
X142235Y326443D01*
X143086Y326090D01*
X144000Y325970D01*
X154500D01*
X154543Y325975D01*
X154585Y325970D01*
X155499Y326090D01*
X156350Y326443D01*
X157081Y327004D01*
X160010Y329933D01*
X160571Y330664D01*
X160924Y331515D01*
X161044Y332429D01*
Y342880D01*
X181014D01*
X181404Y342958D01*
X181735Y343179D01*
X181956Y343510D01*
X182034Y343900D01*
Y345870D01*
X193047D01*
Y339133D01*
X193006Y338929D01*
Y338507D01*
X192984Y338337D01*
X193006Y338167D01*
Y337551D01*
X193137Y336892D01*
X193511Y336333D01*
X193776Y336156D01*
X194018Y335841D01*
X194755Y335104D01*
X195486Y334543D01*
X196337Y334190D01*
X197251Y334070D01*
X202975D01*
Y308101D01*
X202569Y308020D01*
X202011Y307647D01*
X201637Y307088D01*
X201506Y306429D01*
Y305051D01*
X201637Y304392D01*
X202011Y303834D01*
X202569Y303460D01*
X203228Y303329D01*
X204769D01*
X205033Y302935D01*
X206509Y301458D01*
X206989Y301137D01*
X206794Y300666D01*
X206772Y300671D01*
X203228D01*
X202569Y300540D01*
X202011Y300167D01*
X201637Y299608D01*
X201610Y299471D01*
X194151D01*
Y299772D01*
X194020Y300431D01*
X193647Y300989D01*
X193088Y301363D01*
X192429Y301494D01*
X191051D01*
X190392Y301363D01*
X189833Y300989D01*
X189460Y300431D01*
X189329Y299772D01*
Y296228D01*
X189460Y295569D01*
X189833Y295011D01*
X190392Y294637D01*
X191051Y294506D01*
X192429D01*
X193088Y294637D01*
X193647Y295011D01*
X194020Y295569D01*
X194151Y296228D01*
Y296412D01*
X201971D01*
X202011Y296353D01*
X202569Y295980D01*
X203228Y295849D01*
X203485D01*
Y293151D01*
X203228D01*
X202569Y293020D01*
X202011Y292647D01*
X201637Y292088D01*
X201506Y291429D01*
Y290051D01*
X201637Y289392D01*
X202011Y288833D01*
X202569Y288460D01*
X203228Y288329D01*
X206772D01*
X207431Y288460D01*
X207989Y288833D01*
X208363Y289392D01*
X208494Y290051D01*
Y290874D01*
X208990Y291371D01*
X211000D01*
Y290500D01*
X217000D01*
Y291371D01*
X219000D01*
Y289750D01*
X222000D01*
X225000D01*
Y291371D01*
X227218D01*
X227406Y291044D01*
X228058Y290392D01*
X228856Y289931D01*
X229746Y289693D01*
X230668D01*
X231558Y289931D01*
X232356Y290392D01*
X233008Y291044D01*
X233469Y291842D01*
X233707Y292732D01*
Y293654D01*
X233469Y294544D01*
X233008Y295342D01*
X232356Y295994D01*
X232029Y296182D01*
Y319271D01*
X259063D01*
Y316129D01*
X243572D01*
X243215Y316749D01*
X242563Y317401D01*
X241765Y317862D01*
X240875Y318100D01*
X239953D01*
X239063Y317862D01*
X238265Y317401D01*
X237613Y316749D01*
X237153Y315951D01*
X236914Y315061D01*
Y314139D01*
X237153Y313249D01*
X237613Y312451D01*
X238265Y311799D01*
X239063Y311338D01*
X239953Y311100D01*
X240875D01*
X241765Y311338D01*
X242563Y311799D01*
X243215Y312451D01*
X243572Y313071D01*
X259063D01*
Y307228D01*
Y302228D01*
Y297228D01*
Y292228D01*
X262471D01*
Y275159D01*
X261851Y274801D01*
X261199Y274149D01*
X260738Y273351D01*
X260500Y272461D01*
Y271539D01*
X260738Y270649D01*
X261199Y269851D01*
X261851Y269199D01*
X262649Y268739D01*
X263539Y268500D01*
X264461D01*
X265351Y268739D01*
X266149Y269199D01*
X266801Y269851D01*
X267262Y270649D01*
X267500Y271539D01*
Y272461D01*
X267262Y273351D01*
X266801Y274149D01*
X266149Y274801D01*
X265529Y275159D01*
Y292228D01*
X268937D01*
Y298371D01*
X279514D01*
X280099Y298487D01*
X280595Y298819D01*
X283148Y301371D01*
X294356D01*
X294713Y300751D01*
X295365Y300099D01*
X296163Y299639D01*
X297053Y299400D01*
X297975D01*
X298865Y299639D01*
X299663Y300099D01*
X300315Y300751D01*
X300776Y301549D01*
X301014Y302439D01*
Y303361D01*
X300776Y304251D01*
X300315Y305049D01*
X299663Y305701D01*
X298865Y306161D01*
X297975Y306400D01*
X297053D01*
X296163Y306161D01*
X295365Y305701D01*
X294713Y305049D01*
X294356Y304429D01*
X282514D01*
X281929Y304313D01*
X281433Y303981D01*
X278881Y301429D01*
X268937D01*
Y307228D01*
Y312228D01*
Y317228D01*
Y322228D01*
Y327228D01*
Y332228D01*
Y337228D01*
Y342228D01*
Y347228D01*
Y352798D01*
X271061D01*
Y311072D01*
X271216Y310291D01*
X271658Y309630D01*
X272830Y308458D01*
X272830Y308458D01*
X273491Y308016D01*
X274272Y307861D01*
X304263D01*
X304499Y307451D01*
X305151Y306799D01*
X305949Y306339D01*
X306839Y306100D01*
X307761D01*
X308651Y306339D01*
X309449Y306799D01*
X310101Y307451D01*
X310561Y308249D01*
X310800Y309139D01*
Y310061D01*
X310561Y310951D01*
X310101Y311749D01*
X309449Y312401D01*
X308651Y312861D01*
X307761Y313100D01*
X306839D01*
X305949Y312861D01*
X305151Y312401D01*
X304689Y311939D01*
X275139D01*
Y353665D01*
X274984Y354446D01*
X274542Y355107D01*
X274542Y355107D01*
X273370Y356279D01*
X272709Y356721D01*
X271928Y356876D01*
X268937D01*
Y359500D01*
X259063D01*
Y357439D01*
X257359D01*
X255881Y358917D01*
X255220Y359359D01*
X254439Y359514D01*
X253166D01*
X252887Y360014D01*
X252994Y360551D01*
Y360740D01*
X249500D01*
X246006D01*
Y360551D01*
X246113Y360014D01*
X245834Y359514D01*
X244412D01*
X243631Y359359D01*
X243588Y359330D01*
X243228Y359690D01*
X243363Y359892D01*
X243494Y360551D01*
Y360740D01*
X240500D01*
Y358829D01*
X241772D01*
X242275Y358929D01*
X242522Y358469D01*
X241280Y357227D01*
X240928Y357373D01*
X240014Y357493D01*
X222341D01*
Y359000D01*
X222750D01*
Y365000D01*
X217750D01*
Y359000D01*
X218263D01*
Y357463D01*
X218249Y357457D01*
X217518Y356896D01*
X216957Y356165D01*
X216604Y355314D01*
X216484Y354400D01*
Y341991D01*
X215623Y341130D01*
X200107D01*
Y349400D01*
X199987Y350314D01*
X199634Y351165D01*
X199073Y351896D01*
X198342Y352457D01*
X197491Y352810D01*
X196577Y352930D01*
X182034D01*
Y382600D01*
X181956Y382990D01*
X181735Y383321D01*
X181404Y383542D01*
X181014Y383620D01*
D02*
G37*
G36*
X252990Y369100D02*
X250000D01*
Y366110D01*
X250851Y366338D01*
X251649Y366799D01*
X252301Y367451D01*
X252762Y368249D01*
X252990Y369100D01*
D02*
G37*
G36*
X249000D02*
X246010D01*
X246238Y368249D01*
X246699Y367451D01*
X247351Y366799D01*
X248149Y366338D01*
X249000Y366110D01*
Y369100D01*
D02*
G37*
G36*
X191000Y366589D02*
Y363600D01*
X193990D01*
X193762Y364451D01*
X193301Y365249D01*
X192649Y365901D01*
X191851Y366361D01*
X191000Y366589D01*
D02*
G37*
G36*
X190000D02*
X189149Y366361D01*
X188351Y365901D01*
X187699Y365249D01*
X187239Y364451D01*
X187011Y363600D01*
X190000D01*
Y366589D01*
D02*
G37*
G36*
X202100Y365890D02*
Y362900D01*
X205089D01*
X204861Y363751D01*
X204401Y364549D01*
X203749Y365201D01*
X202951Y365662D01*
X202100Y365890D01*
D02*
G37*
G36*
X201100D02*
X200249Y365662D01*
X199451Y365201D01*
X198799Y364549D01*
X198338Y363751D01*
X198110Y362900D01*
X201100D01*
Y365890D01*
D02*
G37*
G36*
X251272Y363651D02*
X250000D01*
Y361740D01*
X252994D01*
Y361929D01*
X252863Y362588D01*
X252489Y363147D01*
X251931Y363520D01*
X251272Y363651D01*
D02*
G37*
G36*
X231272D02*
X230000D01*
Y361740D01*
X232994D01*
Y361929D01*
X232863Y362588D01*
X232489Y363147D01*
X231931Y363520D01*
X231272Y363651D01*
D02*
G37*
G36*
X241772D02*
X240500D01*
Y361740D01*
X243494D01*
Y361929D01*
X243363Y362588D01*
X242989Y363147D01*
X242431Y363520D01*
X241772Y363651D01*
D02*
G37*
G36*
X239500D02*
X238228D01*
X237569Y363520D01*
X237011Y363147D01*
X236637Y362588D01*
X236506Y361929D01*
Y361740D01*
X239500D01*
Y363651D01*
D02*
G37*
G36*
X249000D02*
X247728D01*
X247069Y363520D01*
X246511Y363147D01*
X246137Y362588D01*
X246006Y361929D01*
Y361740D01*
X249000D01*
Y363651D01*
D02*
G37*
G36*
X229000D02*
X227728D01*
X227069Y363520D01*
X226511Y363147D01*
X226137Y362588D01*
X226006Y361929D01*
Y361740D01*
X229000D01*
Y363651D01*
D02*
G37*
G36*
X193990Y362600D02*
X191000D01*
Y359611D01*
X191851Y359839D01*
X192649Y360299D01*
X193301Y360951D01*
X193762Y361749D01*
X193990Y362600D01*
D02*
G37*
G36*
X190000D02*
X187011D01*
X187239Y361749D01*
X187699Y360951D01*
X188351Y360299D01*
X189149Y359839D01*
X190000Y359611D01*
Y362600D01*
D02*
G37*
G36*
X205089Y361900D02*
X202100D01*
Y358910D01*
X202951Y359138D01*
X203749Y359599D01*
X204401Y360251D01*
X204861Y361049D01*
X205089Y361900D01*
D02*
G37*
G36*
X201100D02*
X198110D01*
X198338Y361049D01*
X198799Y360251D01*
X199451Y359599D01*
X200249Y359138D01*
X201100Y358910D01*
Y361900D01*
D02*
G37*
G36*
X239500Y360740D02*
X236506D01*
Y360551D01*
X236637Y359892D01*
X237011Y359333D01*
X237569Y358960D01*
X238228Y358829D01*
X239500D01*
Y360740D01*
D02*
G37*
G36*
X232994D02*
X230000D01*
Y358829D01*
X231272D01*
X231931Y358960D01*
X232489Y359333D01*
X232863Y359892D01*
X232994Y360551D01*
Y360740D01*
D02*
G37*
G36*
X229000D02*
X226006D01*
Y360551D01*
X226137Y359892D01*
X226511Y359333D01*
X227069Y358960D01*
X227728Y358829D01*
X229000D01*
Y360740D01*
D02*
G37*
G36*
X79492Y370665D02*
X66508D01*
Y356067D01*
X79492D01*
Y359736D01*
X96686D01*
X102638Y353784D01*
X103369Y353223D01*
X104220Y352870D01*
X105134Y352750D01*
X140250D01*
Y352440D01*
X150250D01*
Y360440D01*
X140250D01*
Y359810D01*
X106596D01*
X100644Y365762D01*
X99913Y366323D01*
X99062Y366676D01*
X98148Y366796D01*
X79492D01*
Y370665D01*
D02*
G37*
G36*
X376750Y368500D02*
X360500D01*
Y352250D01*
X376750D01*
Y368500D01*
D02*
G37*
G36*
X359500D02*
X343250D01*
Y352250D01*
X359500D01*
Y368500D01*
D02*
G37*
G36*
X36750D02*
X20500D01*
Y352250D01*
X36750D01*
Y368500D01*
D02*
G37*
G36*
X19500D02*
X3250D01*
Y352250D01*
X19500D01*
Y368500D01*
D02*
G37*
G36*
X123772Y351171D02*
X122500D01*
Y349260D01*
X125494D01*
Y349449D01*
X125363Y350108D01*
X124989Y350666D01*
X124431Y351040D01*
X123772Y351171D01*
D02*
G37*
G36*
X121500D02*
X120228D01*
X119569Y351040D01*
X119011Y350666D01*
X118637Y350108D01*
X118506Y349449D01*
Y349260D01*
X121500D01*
Y351171D01*
D02*
G37*
G36*
X219000Y373000D02*
X214000D01*
Y369163D01*
X211769Y366931D01*
X211437Y366435D01*
X211321Y365850D01*
Y365000D01*
X210250D01*
Y359000D01*
X210773D01*
Y356869D01*
X210480Y356431D01*
X210349Y355772D01*
Y352228D01*
X210480Y351569D01*
X210853Y351011D01*
X211365Y350669D01*
Y349284D01*
X210901Y348909D01*
X210561Y349000D01*
X209639D01*
X208749Y348762D01*
X207951Y348301D01*
X207299Y347649D01*
X206838Y346851D01*
X206600Y345961D01*
Y345039D01*
X206838Y344149D01*
X207299Y343351D01*
X207951Y342699D01*
X208749Y342238D01*
X209639Y342000D01*
X210561D01*
X211451Y342238D01*
X212249Y342699D01*
X212901Y343351D01*
X213362Y344149D01*
X213600Y345039D01*
Y345961D01*
X213400Y346706D01*
X213975Y347281D01*
X214307Y347778D01*
X214423Y348363D01*
Y350848D01*
X214667Y351011D01*
X215040Y351569D01*
X215171Y352228D01*
Y355772D01*
X215040Y356431D01*
X214851Y356713D01*
Y359000D01*
X215250D01*
Y365000D01*
X214870D01*
X214663Y365500D01*
X216163Y367000D01*
X219000D01*
Y373000D01*
D02*
G37*
G36*
X335866Y359500D02*
X325992D01*
Y357228D01*
Y352228D01*
Y346529D01*
X323634D01*
X315181Y354981D01*
X314685Y355313D01*
X314100Y355429D01*
X282412D01*
X282401Y355449D01*
X281749Y356101D01*
X280951Y356561D01*
X280061Y356800D01*
X279139D01*
X278249Y356561D01*
X277451Y356101D01*
X276799Y355449D01*
X276339Y354651D01*
X276100Y353761D01*
Y352839D01*
X276339Y351949D01*
X276799Y351151D01*
X277451Y350499D01*
X278249Y350039D01*
X279139Y349800D01*
X280061D01*
X280951Y350039D01*
X281749Y350499D01*
X282401Y351151D01*
X282861Y351949D01*
X282974Y352371D01*
X313467D01*
X321919Y343919D01*
X322415Y343587D01*
X323000Y343471D01*
X325992D01*
Y340329D01*
X323258D01*
X322901Y340949D01*
X322249Y341601D01*
X321451Y342061D01*
X320561Y342300D01*
X319639D01*
X318749Y342061D01*
X317951Y341601D01*
X317299Y340949D01*
X316839Y340151D01*
X316600Y339261D01*
Y338339D01*
X316839Y337449D01*
X317299Y336651D01*
X317951Y335999D01*
X318749Y335539D01*
X319639Y335300D01*
X320561D01*
X321451Y335539D01*
X322249Y335999D01*
X322901Y336651D01*
X323258Y337271D01*
X325992D01*
Y332228D01*
Y327228D01*
Y322228D01*
Y317228D01*
Y312228D01*
Y307228D01*
Y302307D01*
Y297228D01*
Y292228D01*
X335866D01*
Y293298D01*
X339975D01*
Y265376D01*
X333723D01*
X333589Y265876D01*
X334149Y266199D01*
X334801Y266851D01*
X335262Y267649D01*
X335500Y268539D01*
Y269461D01*
X335262Y270351D01*
X334801Y271149D01*
X334149Y271801D01*
X333529Y272159D01*
Y272500D01*
X333413Y273085D01*
X333081Y273581D01*
X321494Y285169D01*
Y286126D01*
X322736D01*
Y296000D01*
X297736D01*
Y296037D01*
X292193D01*
Y296000D01*
X275465D01*
Y291063D01*
Y286126D01*
X277975D01*
Y276900D01*
X278130Y276120D01*
X278572Y275458D01*
X279975Y274055D01*
Y265601D01*
X279569Y265520D01*
X279011Y265147D01*
X278637Y264588D01*
X278506Y263929D01*
Y262551D01*
X278637Y261892D01*
X279011Y261333D01*
X279569Y260960D01*
X280228Y260829D01*
X283772D01*
X284431Y260960D01*
X284989Y261333D01*
X285363Y261892D01*
X285494Y262551D01*
Y263929D01*
X285363Y264588D01*
X284989Y265147D01*
X284431Y265520D01*
X284053Y265595D01*
Y274900D01*
X283898Y275680D01*
X283456Y276342D01*
X282053Y277745D01*
Y286126D01*
X292736D01*
Y286163D01*
X297193D01*
Y286126D01*
X313985D01*
Y278134D01*
X313399Y277549D01*
X312938Y276751D01*
X312700Y275861D01*
Y274939D01*
X312938Y274049D01*
X313399Y273251D01*
X314051Y272599D01*
X314849Y272139D01*
X315739Y271900D01*
X316661D01*
X317551Y272139D01*
X318349Y272599D01*
X319001Y273251D01*
X319461Y274049D01*
X319700Y274939D01*
Y275861D01*
X319461Y276751D01*
X319001Y277549D01*
X318349Y278201D01*
X317551Y278661D01*
X317043Y278798D01*
Y286126D01*
X318435D01*
Y284535D01*
X318552Y283950D01*
X318883Y283454D01*
X329995Y272342D01*
X329930Y271846D01*
X329851Y271801D01*
X329199Y271149D01*
X328738Y270351D01*
X328500Y269461D01*
Y268539D01*
X328738Y267649D01*
X329199Y266851D01*
X329851Y266199D01*
X330411Y265876D01*
X330277Y265376D01*
X322646D01*
X322431Y265520D01*
X321772Y265651D01*
X318228D01*
X317569Y265520D01*
X317011Y265147D01*
X316779Y264799D01*
X315968D01*
X315535Y265549D01*
X314884Y266201D01*
X314086Y266662D01*
X313195Y266900D01*
X312274D01*
X311384Y266662D01*
X310585Y266201D01*
X309934Y265549D01*
X309473Y264751D01*
X309234Y263861D01*
Y262939D01*
X309473Y262049D01*
X309934Y261251D01*
X310192Y260992D01*
X309985Y260492D01*
X304819D01*
X304756Y260577D01*
X304874Y261257D01*
X304989Y261333D01*
X305363Y261892D01*
X305494Y262551D01*
Y263929D01*
X305363Y264588D01*
X304989Y265147D01*
X304431Y265520D01*
X303772Y265651D01*
X303543D01*
Y273241D01*
X304163Y273599D01*
X304815Y274251D01*
X305276Y275049D01*
X305514Y275939D01*
Y276861D01*
X305276Y277751D01*
X304815Y278549D01*
X304163Y279201D01*
X303365Y279661D01*
X302475Y279900D01*
X301553D01*
X300663Y279661D01*
X299865Y279201D01*
X299213Y278549D01*
X298753Y277751D01*
X298514Y276861D01*
Y275939D01*
X298753Y275049D01*
X299213Y274251D01*
X299865Y273599D01*
X300485Y273241D01*
Y265651D01*
X300228D01*
X299569Y265520D01*
X299011Y265147D01*
X298637Y264588D01*
X298506Y263929D01*
Y262551D01*
X298637Y261892D01*
X299011Y261333D01*
X299126Y261257D01*
X299243Y260577D01*
X299182Y260492D01*
X298563D01*
X297978Y260376D01*
X297481Y260044D01*
X295093Y257656D01*
X294989Y257666D01*
X294431Y258040D01*
X293772Y258171D01*
X290228D01*
X289569Y258040D01*
X289011Y257666D01*
X288637Y257108D01*
X288506Y256449D01*
Y255071D01*
X288637Y254412D01*
X289011Y253853D01*
X289569Y253480D01*
X290228Y253349D01*
X293772D01*
X294431Y253480D01*
X294989Y253853D01*
X295251Y254245D01*
X295375D01*
X295960Y254362D01*
X296456Y254693D01*
X298006Y256243D01*
X298506Y256036D01*
Y255071D01*
X298637Y254412D01*
X299011Y253853D01*
X299569Y253480D01*
X300228Y253349D01*
X300471D01*
Y233896D01*
X300587Y233311D01*
X300612Y233274D01*
X300253Y232651D01*
X300014Y231761D01*
Y230839D01*
X300253Y229949D01*
X300713Y229151D01*
X301365Y228499D01*
X302163Y228039D01*
X303053Y227800D01*
X303975D01*
X304865Y228039D01*
X305663Y228499D01*
X306315Y229151D01*
X306776Y229949D01*
X307014Y230839D01*
Y231761D01*
X306776Y232651D01*
X306315Y233449D01*
X305663Y234101D01*
X304865Y234561D01*
X303975Y234800D01*
X303529D01*
Y253349D01*
X303772D01*
X304431Y253480D01*
X304970Y253840D01*
X305085Y253817D01*
X305470Y253672D01*
Y243000D01*
X305590Y242086D01*
X305943Y241235D01*
X306504Y240504D01*
X326046Y220962D01*
X325854Y220500D01*
X312700D01*
Y212500D01*
X334700D01*
Y220500D01*
X334030D01*
Y221500D01*
X333910Y222414D01*
X333557Y223265D01*
X332996Y223996D01*
X312530Y244462D01*
Y253343D01*
X319539D01*
X319570Y253349D01*
X321772D01*
X322431Y253480D01*
X322989Y253853D01*
X323363Y254412D01*
X323494Y255071D01*
Y256449D01*
X323469Y256574D01*
X323843Y257098D01*
X324101Y257129D01*
X329412Y251819D01*
X329908Y251487D01*
X330493Y251371D01*
X360985D01*
Y208029D01*
X358300D01*
Y210500D01*
X336300D01*
Y202500D01*
X358300D01*
Y204971D01*
X362514D01*
X363099Y205087D01*
X363596Y205419D01*
X363927Y205915D01*
X364043Y206500D01*
Y252314D01*
X363927Y252900D01*
X363596Y253396D01*
X363010Y253981D01*
X362514Y254313D01*
X361928Y254429D01*
X331127D01*
X325512Y260044D01*
X325015Y260376D01*
X324430Y260492D01*
X322818D01*
X322757Y260577D01*
X322874Y261257D01*
X322936Y261298D01*
X340843D01*
X341623Y261453D01*
X342284Y261895D01*
X343456Y263067D01*
X343456Y263067D01*
X343898Y263728D01*
X344053Y264509D01*
Y294165D01*
X343898Y294946D01*
X343456Y295607D01*
X343456Y295607D01*
X342284Y296779D01*
X341623Y297221D01*
X340843Y297376D01*
X335866D01*
Y298808D01*
X353671D01*
Y258086D01*
X353787Y257501D01*
X354119Y257004D01*
X354704Y256419D01*
X355201Y256087D01*
X355786Y255971D01*
X366985D01*
Y189845D01*
X366485Y189611D01*
X366108Y189863D01*
X365449Y189994D01*
X364071D01*
X363412Y189863D01*
X362853Y189489D01*
X362480Y188931D01*
X362349Y188272D01*
Y188029D01*
X358300D01*
Y190500D01*
X336300D01*
Y182500D01*
X358300D01*
Y184971D01*
X362349D01*
Y184728D01*
X362480Y184069D01*
X362853Y183511D01*
X363412Y183137D01*
X364071Y183006D01*
X365449D01*
X366108Y183137D01*
X366485Y183389D01*
X366985Y183155D01*
Y132029D01*
X355586D01*
X355000Y131913D01*
X354504Y131581D01*
X353919Y130996D01*
X353587Y130499D01*
X353471Y129914D01*
Y118000D01*
X351000D01*
Y96000D01*
X359000D01*
Y118000D01*
X356529D01*
Y128971D01*
X368514D01*
X369099Y129087D01*
X369596Y129419D01*
X369927Y129915D01*
X370043Y130500D01*
Y183113D01*
X370544Y183370D01*
X370892Y183137D01*
X371551Y183006D01*
X372929D01*
X373588Y183137D01*
X374147Y183511D01*
X374520Y184069D01*
X374651Y184728D01*
Y188272D01*
X374520Y188931D01*
X374147Y189489D01*
X374029Y189568D01*
Y272236D01*
X374399Y272449D01*
X375051Y273101D01*
X375512Y273899D01*
X375750Y274789D01*
Y275711D01*
X375512Y276601D01*
X375051Y277399D01*
X374399Y278051D01*
X373601Y278512D01*
X372711Y278750D01*
X371789D01*
X370899Y278512D01*
X370101Y278051D01*
X369449Y277399D01*
X368988Y276601D01*
X368750Y275711D01*
Y274789D01*
X368988Y273899D01*
X369449Y273101D01*
X370101Y272449D01*
X370899Y271989D01*
X370971Y271969D01*
Y189878D01*
X370892Y189863D01*
X370544Y189630D01*
X370043Y189887D01*
Y256914D01*
X369927Y257500D01*
X369596Y257996D01*
X369010Y258581D01*
X368514Y258913D01*
X367928Y259029D01*
X356729D01*
Y299751D01*
X356613Y300337D01*
X356281Y300833D01*
X355696Y301418D01*
X355200Y301750D01*
X354614Y301866D01*
X335866D01*
Y307228D01*
Y313308D01*
X359985D01*
Y267559D01*
X359365Y267201D01*
X358713Y266549D01*
X358253Y265751D01*
X358014Y264861D01*
Y263939D01*
X358253Y263049D01*
X358713Y262251D01*
X359365Y261599D01*
X360163Y261139D01*
X361053Y260900D01*
X361975D01*
X362865Y261139D01*
X363663Y261599D01*
X364315Y262251D01*
X364776Y263049D01*
X365014Y263939D01*
Y264861D01*
X364776Y265751D01*
X364315Y266549D01*
X363663Y267201D01*
X363043Y267559D01*
Y314251D01*
X362927Y314837D01*
X362596Y315333D01*
X362010Y315918D01*
X361514Y316250D01*
X360928Y316366D01*
X335866D01*
Y322228D01*
Y327228D01*
Y332228D01*
Y337228D01*
Y342228D01*
Y347228D01*
Y352228D01*
Y357228D01*
Y359500D01*
D02*
G37*
G36*
X125494Y348260D02*
X122500D01*
Y346349D01*
X123772D01*
X124431Y346480D01*
X124989Y346853D01*
X125363Y347412D01*
X125494Y348071D01*
Y348260D01*
D02*
G37*
G36*
X121500D02*
X118506D01*
Y348071D01*
X118637Y347412D01*
X119011Y346853D01*
X119569Y346480D01*
X120228Y346349D01*
X121500D01*
Y348260D01*
D02*
G37*
G36*
X304750Y349320D02*
X282650D01*
X282260Y349242D01*
X281929Y349021D01*
X281708Y348690D01*
X281630Y348300D01*
Y345400D01*
X281708Y345010D01*
X281929Y344679D01*
X282260Y344458D01*
X282650Y344380D01*
X304750D01*
X305140Y344458D01*
X305471Y344679D01*
X305692Y345010D01*
X305770Y345400D01*
Y348300D01*
X305692Y348690D01*
X305471Y349021D01*
X305140Y349242D01*
X304750Y349320D01*
D02*
G37*
G36*
X369300Y346189D02*
Y343200D01*
X372289D01*
X372061Y344051D01*
X371601Y344849D01*
X370949Y345501D01*
X370151Y345961D01*
X369300Y346189D01*
D02*
G37*
G36*
X368300D02*
X367449Y345961D01*
X366651Y345501D01*
X365999Y344849D01*
X365539Y344051D01*
X365311Y343200D01*
X368300D01*
Y346189D01*
D02*
G37*
G36*
X351200Y345690D02*
Y342700D01*
X354189D01*
X353961Y343551D01*
X353501Y344349D01*
X352849Y345001D01*
X352051Y345462D01*
X351200Y345690D01*
D02*
G37*
G36*
X350200D02*
X349349Y345462D01*
X348551Y345001D01*
X347899Y344349D01*
X347439Y343551D01*
X347211Y342700D01*
X350200D01*
Y345690D01*
D02*
G37*
G36*
X372289Y342200D02*
X369300D01*
Y339211D01*
X370151Y339439D01*
X370949Y339899D01*
X371601Y340551D01*
X372061Y341349D01*
X372289Y342200D01*
D02*
G37*
G36*
X368300D02*
X365311D01*
X365539Y341349D01*
X365999Y340551D01*
X366651Y339899D01*
X367449Y339439D01*
X368300Y339211D01*
Y342200D01*
D02*
G37*
G36*
X189772Y340651D02*
X188500D01*
Y338740D01*
X191494D01*
Y338929D01*
X191363Y339588D01*
X190989Y340147D01*
X190431Y340520D01*
X189772Y340651D01*
D02*
G37*
G36*
X180772D02*
X179500D01*
Y338740D01*
X182494D01*
Y338929D01*
X182363Y339588D01*
X181989Y340147D01*
X181431Y340520D01*
X180772Y340651D01*
D02*
G37*
G36*
X187500D02*
X186228D01*
X185569Y340520D01*
X185011Y340147D01*
X184637Y339588D01*
X184506Y338929D01*
Y338740D01*
X187500D01*
Y340651D01*
D02*
G37*
G36*
X178500D02*
X177228D01*
X176569Y340520D01*
X176011Y340147D01*
X175637Y339588D01*
X175506Y338929D01*
Y338740D01*
X178500D01*
Y340651D01*
D02*
G37*
G36*
X354189Y341700D02*
X351200D01*
Y338710D01*
X352051Y338938D01*
X352849Y339399D01*
X353501Y340051D01*
X353961Y340849D01*
X354189Y341700D01*
D02*
G37*
G36*
X350200D02*
X347211D01*
X347439Y340849D01*
X347899Y340051D01*
X348551Y339399D01*
X349349Y338938D01*
X350200Y338710D01*
Y341700D01*
D02*
G37*
G36*
X305100D02*
X301600D01*
Y338200D01*
X305100D01*
Y341700D01*
D02*
G37*
G36*
X286000Y341600D02*
X282500D01*
Y338100D01*
X286000D01*
Y341600D01*
D02*
G37*
G36*
X300600Y341700D02*
X297100D01*
Y341600D01*
X294100D01*
Y337600D01*
X293100D01*
Y341600D01*
X287000D01*
Y337600D01*
X286500D01*
Y337100D01*
X282500D01*
Y333600D01*
Y330900D01*
X286500D01*
Y329900D01*
X282500D01*
Y326400D01*
Y323700D01*
X286500D01*
Y323200D01*
X287000D01*
Y319200D01*
X290500D01*
Y319300D01*
X293100D01*
Y323300D01*
X294100D01*
Y319300D01*
X300600D01*
Y323300D01*
X301100D01*
Y323800D01*
X305100D01*
Y326400D01*
Y329900D01*
X301100D01*
Y330900D01*
X305100D01*
Y333700D01*
Y337200D01*
X301100D01*
Y337700D01*
X300600D01*
Y341700D01*
D02*
G37*
G36*
X191494Y337740D02*
X188500D01*
Y335829D01*
X189772D01*
X190431Y335960D01*
X190989Y336333D01*
X191363Y336892D01*
X191494Y337551D01*
Y337740D01*
D02*
G37*
G36*
X187500D02*
X184506D01*
Y337551D01*
X184637Y336892D01*
X185011Y336333D01*
X185569Y335960D01*
X186228Y335829D01*
X187500D01*
Y337740D01*
D02*
G37*
G36*
X182494D02*
X179500D01*
Y335829D01*
X180772D01*
X181431Y335960D01*
X181989Y336333D01*
X182363Y336892D01*
X182494Y337551D01*
Y337740D01*
D02*
G37*
G36*
X178500D02*
X175506D01*
Y337551D01*
X175637Y336892D01*
X176011Y336333D01*
X176569Y335960D01*
X177228Y335829D01*
X178500D01*
Y337740D01*
D02*
G37*
G36*
X198272Y333171D02*
X194728D01*
X194069Y333040D01*
X193511Y332666D01*
X193192Y332189D01*
X191308D01*
X190989Y332666D01*
X190431Y333040D01*
X189772Y333171D01*
X186228D01*
X185569Y333040D01*
X185011Y332666D01*
X184692Y332189D01*
X182308D01*
X181989Y332666D01*
X181431Y333040D01*
X180772Y333171D01*
X177228D01*
X176569Y333040D01*
X176011Y332666D01*
X175637Y332108D01*
X175506Y331449D01*
Y330071D01*
X175637Y329412D01*
X176011Y328853D01*
X176569Y328480D01*
X177228Y328349D01*
X180772D01*
X181431Y328480D01*
X181989Y328853D01*
X182175Y329131D01*
X184825D01*
X185011Y328853D01*
X185569Y328480D01*
X186228Y328349D01*
X189772D01*
X190431Y328480D01*
X190989Y328853D01*
X191175Y329131D01*
X193325D01*
X193511Y328853D01*
X194069Y328480D01*
X194475Y328399D01*
Y326264D01*
X194365Y326201D01*
X193713Y325549D01*
X193253Y324751D01*
X193014Y323861D01*
Y322939D01*
X193253Y322049D01*
X193713Y321251D01*
X194365Y320599D01*
X195163Y320139D01*
X196053Y319900D01*
X196975D01*
X197865Y320139D01*
X198663Y320599D01*
X199315Y321251D01*
X199776Y322049D01*
X200014Y322939D01*
Y323861D01*
X199776Y324751D01*
X199315Y325549D01*
X198663Y326201D01*
X198553Y326264D01*
Y328405D01*
X198931Y328480D01*
X199489Y328853D01*
X199863Y329412D01*
X199994Y330071D01*
Y331449D01*
X199863Y332108D01*
X199489Y332666D01*
X198931Y333040D01*
X198272Y333171D01*
D02*
G37*
G36*
X133571Y332272D02*
X126279D01*
Y330000D01*
X133571D01*
Y332272D01*
D02*
G37*
G36*
X125279D02*
X117988D01*
Y330000D01*
X125279D01*
Y332272D01*
D02*
G37*
G36*
X351800Y330789D02*
Y327800D01*
X354789D01*
X354561Y328651D01*
X354101Y329449D01*
X353449Y330101D01*
X352651Y330561D01*
X351800Y330789D01*
D02*
G37*
G36*
X350800D02*
X349949Y330561D01*
X349151Y330101D01*
X348499Y329449D01*
X348039Y328651D01*
X347811Y327800D01*
X350800D01*
Y330789D01*
D02*
G37*
G36*
X133571Y329000D02*
X126279D01*
Y326728D01*
X133571D01*
Y329000D01*
D02*
G37*
G36*
X125279D02*
X117988D01*
Y326728D01*
X125279D01*
Y329000D01*
D02*
G37*
G36*
X368600Y329489D02*
Y326500D01*
X371589D01*
X371361Y327351D01*
X370901Y328149D01*
X370249Y328801D01*
X369451Y329261D01*
X368600Y329489D01*
D02*
G37*
G36*
X367600D02*
X366749Y329261D01*
X365951Y328801D01*
X365299Y328149D01*
X364839Y327351D01*
X364611Y326500D01*
X367600D01*
Y329489D01*
D02*
G37*
G36*
X57500Y327489D02*
Y324500D01*
X60489D01*
X60261Y325351D01*
X59801Y326149D01*
X59149Y326801D01*
X58351Y327261D01*
X57500Y327489D01*
D02*
G37*
G36*
X56500D02*
X55649Y327261D01*
X54851Y326801D01*
X54199Y326149D01*
X53738Y325351D01*
X53510Y324500D01*
X56500D01*
Y327489D01*
D02*
G37*
G36*
X354789Y326800D02*
X351800D01*
Y323811D01*
X352651Y324039D01*
X353449Y324499D01*
X354101Y325151D01*
X354561Y325949D01*
X354789Y326800D01*
D02*
G37*
G36*
X350800D02*
X347811D01*
X348039Y325949D01*
X348499Y325151D01*
X349151Y324499D01*
X349949Y324039D01*
X350800Y323811D01*
Y326800D01*
D02*
G37*
G36*
X20191Y328500D02*
X20100D01*
Y323000D01*
X25600D01*
Y323091D01*
X25369Y324250D01*
X24917Y325342D01*
X24261Y326325D01*
X23425Y327161D01*
X22442Y327817D01*
X21350Y328269D01*
X20191Y328500D01*
D02*
G37*
G36*
X19100D02*
X19009D01*
X17850Y328269D01*
X16758Y327817D01*
X15775Y327161D01*
X14940Y326325D01*
X14283Y325342D01*
X13831Y324250D01*
X13600Y323091D01*
Y323000D01*
X19100D01*
Y328500D01*
D02*
G37*
G36*
X371589Y325500D02*
X368600D01*
Y322511D01*
X369451Y322739D01*
X370249Y323199D01*
X370901Y323851D01*
X371361Y324649D01*
X371589Y325500D01*
D02*
G37*
G36*
X367600D02*
X364611D01*
X364839Y324649D01*
X365299Y323851D01*
X365951Y323199D01*
X366749Y322739D01*
X367600Y322511D01*
Y325500D01*
D02*
G37*
G36*
X60489Y323500D02*
X57500D01*
Y320511D01*
X58351Y320739D01*
X59149Y321199D01*
X59801Y321851D01*
X60261Y322649D01*
X60489Y323500D01*
D02*
G37*
G36*
X56500D02*
X53510D01*
X53738Y322649D01*
X54199Y321851D01*
X54851Y321199D01*
X55649Y320739D01*
X56500Y320511D01*
Y323500D01*
D02*
G37*
G36*
X305100Y322800D02*
X301600D01*
Y319300D01*
X305100D01*
Y322800D01*
D02*
G37*
G36*
X286000Y322700D02*
X282500D01*
Y319200D01*
X286000D01*
Y322700D01*
D02*
G37*
G36*
X279900Y346870D02*
X276900D01*
X276510Y346792D01*
X276179Y346571D01*
X275958Y346240D01*
X275880Y345850D01*
Y317750D01*
X275958Y317360D01*
X276179Y317029D01*
X276510Y316808D01*
X276900Y316730D01*
X279900D01*
X280290Y316808D01*
X280621Y317029D01*
X280842Y317360D01*
X280920Y317750D01*
Y345850D01*
X280842Y346240D01*
X280621Y346571D01*
X280290Y346792D01*
X279900Y346870D01*
D02*
G37*
G36*
X25600Y322000D02*
X20100D01*
Y316500D01*
X20191D01*
X21350Y316731D01*
X22442Y317183D01*
X23425Y317840D01*
X24261Y318675D01*
X24917Y319658D01*
X25369Y320750D01*
X25600Y321909D01*
Y322000D01*
D02*
G37*
G36*
X19100D02*
X13600D01*
Y321909D01*
X13831Y320750D01*
X14283Y319658D01*
X14940Y318675D01*
X15775Y317840D01*
X16758Y317183D01*
X17850Y316731D01*
X19009Y316500D01*
X19100D01*
Y322000D01*
D02*
G37*
G36*
X308700Y345320D02*
X308310Y345242D01*
X307979Y345021D01*
X307758Y344690D01*
X307680Y344300D01*
X307680Y316300D01*
X307758Y315910D01*
X307979Y315579D01*
X308310Y315358D01*
X308700Y315280D01*
X311400Y315280D01*
X311790Y315358D01*
X312121Y315579D01*
X312342Y315910D01*
X312420Y316300D01*
X312420Y344300D01*
X312342Y344690D01*
X312121Y345021D01*
X311790Y345242D01*
X311400Y345320D01*
X308700Y345320D01*
D02*
G37*
G36*
X303550Y316920D02*
X283450D01*
X283060Y316842D01*
X282729Y316621D01*
X282508Y316290D01*
X282430Y315900D01*
Y313600D01*
X282508Y313210D01*
X282729Y312879D01*
X283060Y312658D01*
X283450Y312580D01*
X303550D01*
X303940Y312658D01*
X304271Y312879D01*
X304492Y313210D01*
X304570Y313600D01*
Y315900D01*
X304492Y316290D01*
X304271Y316621D01*
X303940Y316842D01*
X303550Y316920D01*
D02*
G37*
G36*
X349400Y310590D02*
Y307600D01*
X352390D01*
X352162Y308451D01*
X351701Y309249D01*
X351049Y309901D01*
X350251Y310362D01*
X349400Y310590D01*
D02*
G37*
G36*
X348400D02*
X347549Y310362D01*
X346751Y309901D01*
X346099Y309249D01*
X345638Y308451D01*
X345410Y307600D01*
X348400D01*
Y310590D01*
D02*
G37*
G36*
X196400Y309190D02*
Y306200D01*
X199390D01*
X199162Y307051D01*
X198701Y307849D01*
X198049Y308501D01*
X197251Y308962D01*
X196400Y309190D01*
D02*
G37*
G36*
X195400D02*
X194549Y308962D01*
X193751Y308501D01*
X193099Y307849D01*
X192639Y307051D01*
X192411Y306200D01*
X195400D01*
Y309190D01*
D02*
G37*
G36*
X352390Y306600D02*
X349400D01*
Y303610D01*
X350251Y303838D01*
X351049Y304299D01*
X351701Y304951D01*
X352162Y305749D01*
X352390Y306600D01*
D02*
G37*
G36*
X348400D02*
X345410D01*
X345638Y305749D01*
X346099Y304951D01*
X346751Y304299D01*
X347549Y303838D01*
X348400Y303610D01*
Y306600D01*
D02*
G37*
G36*
X199390Y305200D02*
X196400D01*
Y302210D01*
X197251Y302438D01*
X198049Y302899D01*
X198701Y303551D01*
X199162Y304349D01*
X199390Y305200D01*
D02*
G37*
G36*
X195400D02*
X192411D01*
X192639Y304349D01*
X193099Y303551D01*
X193751Y302899D01*
X194549Y302438D01*
X195400Y302210D01*
Y305200D01*
D02*
G37*
G36*
X237900Y303889D02*
Y300900D01*
X240890D01*
X240662Y301751D01*
X240201Y302549D01*
X239549Y303201D01*
X238751Y303661D01*
X237900Y303889D01*
D02*
G37*
G36*
X236900D02*
X236049Y303661D01*
X235251Y303201D01*
X234599Y302549D01*
X234138Y301751D01*
X233910Y300900D01*
X236900D01*
Y303889D01*
D02*
G37*
G36*
X371300Y301589D02*
Y298600D01*
X374289D01*
X374061Y299451D01*
X373601Y300249D01*
X372949Y300901D01*
X372151Y301361D01*
X371300Y301589D01*
D02*
G37*
G36*
X370300D02*
X369449Y301361D01*
X368651Y300901D01*
X367999Y300249D01*
X367538Y299451D01*
X367311Y298600D01*
X370300D01*
Y301589D01*
D02*
G37*
G36*
X240890Y299900D02*
X237900D01*
Y296911D01*
X238751Y297139D01*
X239549Y297599D01*
X240201Y298251D01*
X240662Y299049D01*
X240890Y299900D01*
D02*
G37*
G36*
X236900D02*
X233910D01*
X234138Y299049D01*
X234599Y298251D01*
X235251Y297599D01*
X236049Y297139D01*
X236900Y296911D01*
Y299900D01*
D02*
G37*
G36*
X374289Y297600D02*
X371300D01*
Y294611D01*
X372151Y294839D01*
X372949Y295299D01*
X373601Y295951D01*
X374061Y296749D01*
X374289Y297600D01*
D02*
G37*
G36*
X370300D02*
X367311D01*
X367538Y296749D01*
X367999Y295951D01*
X368651Y295299D01*
X369449Y294839D01*
X370300Y294611D01*
Y297600D01*
D02*
G37*
G36*
X274465Y296000D02*
X272193D01*
Y291563D01*
X274465D01*
Y296000D01*
D02*
G37*
G36*
X197900Y293589D02*
Y290600D01*
X200889D01*
X200661Y291451D01*
X200201Y292249D01*
X199549Y292901D01*
X198751Y293361D01*
X197900Y293589D01*
D02*
G37*
G36*
X196900D02*
X196049Y293361D01*
X195251Y292901D01*
X194599Y292249D01*
X194139Y291451D01*
X193911Y290600D01*
X196900D01*
Y293589D01*
D02*
G37*
G36*
X225000Y288750D02*
X222500D01*
Y286750D01*
X225000D01*
Y288750D01*
D02*
G37*
G36*
X221500D02*
X219000D01*
Y286750D01*
X221500D01*
Y288750D01*
D02*
G37*
G36*
X200889Y289600D02*
X197900D01*
Y286611D01*
X198751Y286839D01*
X199549Y287299D01*
X200201Y287951D01*
X200661Y288749D01*
X200889Y289600D01*
D02*
G37*
G36*
X196900D02*
X193911D01*
X194139Y288749D01*
X194599Y287951D01*
X195251Y287299D01*
X196049Y286839D01*
X196900Y286611D01*
Y289600D01*
D02*
G37*
G36*
X274465Y290563D02*
X272193D01*
Y286126D01*
X274465D01*
Y290563D01*
D02*
G37*
G36*
X350000Y289089D02*
Y286100D01*
X352990D01*
X352762Y286951D01*
X352301Y287749D01*
X351649Y288401D01*
X350851Y288861D01*
X350000Y289089D01*
D02*
G37*
G36*
X349000D02*
X348149Y288861D01*
X347351Y288401D01*
X346699Y287749D01*
X346238Y286951D01*
X346010Y286100D01*
X349000D01*
Y289089D01*
D02*
G37*
G36*
X206772Y285671D02*
X205500D01*
Y283760D01*
X208494D01*
Y283949D01*
X208363Y284608D01*
X207989Y285167D01*
X207431Y285540D01*
X206772Y285671D01*
D02*
G37*
G36*
X204500D02*
X203228D01*
X202569Y285540D01*
X202011Y285167D01*
X201637Y284608D01*
X201506Y283949D01*
Y283760D01*
X204500D01*
Y285671D01*
D02*
G37*
G36*
X352990Y285100D02*
X350000D01*
Y282111D01*
X350851Y282339D01*
X351649Y282799D01*
X352301Y283451D01*
X352762Y284249D01*
X352990Y285100D01*
D02*
G37*
G36*
X349000D02*
X346010D01*
X346238Y284249D01*
X346699Y283451D01*
X347351Y282799D01*
X348149Y282339D01*
X349000Y282111D01*
Y285100D01*
D02*
G37*
G36*
X233000Y284290D02*
Y281300D01*
X235989D01*
X235761Y282151D01*
X235301Y282949D01*
X234649Y283601D01*
X233851Y284062D01*
X233000Y284290D01*
D02*
G37*
G36*
X232000D02*
X231149Y284062D01*
X230351Y283601D01*
X229699Y282949D01*
X229239Y282151D01*
X229011Y281300D01*
X232000D01*
Y284290D01*
D02*
G37*
G36*
X208494Y282760D02*
X205500D01*
Y280849D01*
X206772D01*
X207431Y280980D01*
X207989Y281353D01*
X208363Y281912D01*
X208494Y282571D01*
Y282760D01*
D02*
G37*
G36*
X204500D02*
X201506D01*
Y282571D01*
X201637Y281912D01*
X202011Y281353D01*
X202569Y280980D01*
X203228Y280849D01*
X204500D01*
Y282760D01*
D02*
G37*
G36*
X235989Y280300D02*
X233000D01*
Y277310D01*
X233851Y277538D01*
X234649Y277999D01*
X235301Y278651D01*
X235761Y279449D01*
X235989Y280300D01*
D02*
G37*
G36*
X232000D02*
X229011D01*
X229239Y279449D01*
X229699Y278651D01*
X230351Y277999D01*
X231149Y277538D01*
X232000Y277310D01*
Y280300D01*
D02*
G37*
G36*
X222700Y272589D02*
Y269600D01*
X225690D01*
X225462Y270451D01*
X225001Y271249D01*
X224349Y271901D01*
X223551Y272361D01*
X222700Y272589D01*
D02*
G37*
G36*
X221700D02*
X220849Y272361D01*
X220051Y271901D01*
X219399Y271249D01*
X218938Y270451D01*
X218710Y269600D01*
X221700D01*
Y272589D01*
D02*
G37*
G36*
X240929Y270994D02*
X240740D01*
Y268000D01*
X242651D01*
Y269272D01*
X242520Y269931D01*
X242147Y270489D01*
X241588Y270863D01*
X240929Y270994D01*
D02*
G37*
G36*
X239740D02*
X239551D01*
X238892Y270863D01*
X238334Y270489D01*
X237960Y269931D01*
X237829Y269272D01*
Y268000D01*
X239740D01*
Y270994D01*
D02*
G37*
G36*
X198800Y269889D02*
Y266900D01*
X201789D01*
X201561Y267751D01*
X201101Y268549D01*
X200449Y269201D01*
X199651Y269661D01*
X198800Y269889D01*
D02*
G37*
G36*
X197800D02*
X196949Y269661D01*
X196151Y269201D01*
X195499Y268549D01*
X195038Y267751D01*
X194810Y266900D01*
X197800D01*
Y269889D01*
D02*
G37*
G36*
X225690Y268600D02*
X222700D01*
Y265611D01*
X223551Y265839D01*
X224349Y266299D01*
X225001Y266951D01*
X225462Y267749D01*
X225690Y268600D01*
D02*
G37*
G36*
X221700D02*
X218710D01*
X218938Y267749D01*
X219399Y266951D01*
X220051Y266299D01*
X220849Y265839D01*
X221700Y265611D01*
Y268600D01*
D02*
G37*
G36*
X242651Y267000D02*
X240740D01*
Y264006D01*
X240929D01*
X241588Y264137D01*
X242147Y264511D01*
X242520Y265069D01*
X242651Y265728D01*
Y267000D01*
D02*
G37*
G36*
X239740D02*
X237829D01*
Y265728D01*
X237960Y265069D01*
X238334Y264511D01*
X238892Y264137D01*
X239551Y264006D01*
X239740D01*
Y267000D01*
D02*
G37*
G36*
X182644Y278500D02*
X177789D01*
Y272500D01*
X178886D01*
Y270859D01*
X178333Y270489D01*
X177960Y269931D01*
X177829Y269272D01*
Y265728D01*
X177960Y265069D01*
X178333Y264511D01*
X178892Y264137D01*
X179551Y264006D01*
X180929D01*
X181588Y264137D01*
X182147Y264511D01*
X182520Y265069D01*
X182651Y265728D01*
Y269272D01*
X182520Y269931D01*
X182147Y270489D01*
X181945Y270624D01*
Y272500D01*
X182644D01*
Y278500D01*
D02*
G37*
G36*
X201789Y265900D02*
X198800D01*
Y262911D01*
X199651Y263139D01*
X200449Y263599D01*
X201101Y264251D01*
X201561Y265049D01*
X201789Y265900D01*
D02*
G37*
G36*
X197800D02*
X194810D01*
X195038Y265049D01*
X195499Y264251D01*
X196151Y263599D01*
X196949Y263139D01*
X197800Y262911D01*
Y265900D01*
D02*
G37*
G36*
X292461Y275500D02*
X291539D01*
X290649Y275261D01*
X289851Y274801D01*
X289199Y274149D01*
X288738Y273351D01*
X288500Y272461D01*
Y271539D01*
X288738Y270649D01*
X289199Y269851D01*
X289851Y269199D01*
X290471Y268842D01*
Y265651D01*
X290228D01*
X289569Y265520D01*
X289011Y265147D01*
X288637Y264588D01*
X288506Y263929D01*
Y262551D01*
X288637Y261892D01*
X289011Y261333D01*
X289569Y260960D01*
X290228Y260829D01*
X293772D01*
X294431Y260960D01*
X294989Y261333D01*
X295363Y261892D01*
X295494Y262551D01*
Y263929D01*
X295363Y264588D01*
X294989Y265147D01*
X294431Y265520D01*
X293772Y265651D01*
X293529D01*
Y268842D01*
X294149Y269199D01*
X294801Y269851D01*
X295262Y270649D01*
X295500Y271539D01*
Y272461D01*
X295262Y273351D01*
X294801Y274149D01*
X294149Y274801D01*
X293351Y275261D01*
X292461Y275500D01*
D02*
G37*
G36*
X270700Y261490D02*
Y258500D01*
X273690D01*
X273462Y259351D01*
X273001Y260149D01*
X272349Y260801D01*
X271551Y261262D01*
X270700Y261490D01*
D02*
G37*
G36*
X269700D02*
X268849Y261262D01*
X268051Y260801D01*
X267399Y260149D01*
X266938Y259351D01*
X266710Y258500D01*
X269700D01*
Y261490D01*
D02*
G37*
G36*
X273690Y257500D02*
X270700D01*
Y254510D01*
X271551Y254738D01*
X272349Y255199D01*
X273001Y255851D01*
X273462Y256649D01*
X273690Y257500D01*
D02*
G37*
G36*
X269700D02*
X266710D01*
X266938Y256649D01*
X267399Y255851D01*
X268051Y255199D01*
X268849Y254738D01*
X269700Y254510D01*
Y257500D01*
D02*
G37*
G36*
X178000Y254750D02*
X175000D01*
Y252500D01*
X178000D01*
Y254750D01*
D02*
G37*
G36*
X174000D02*
X171000D01*
Y252500D01*
X174000D01*
Y254750D01*
D02*
G37*
G36*
X170000Y254250D02*
X167500D01*
Y252250D01*
X170000D01*
Y254250D01*
D02*
G37*
G36*
X166500D02*
X164000D01*
Y252250D01*
X166500D01*
Y254250D01*
D02*
G37*
G36*
X260929Y254494D02*
X260740D01*
Y251500D01*
X262651D01*
Y252772D01*
X262520Y253431D01*
X262147Y253989D01*
X261588Y254363D01*
X260929Y254494D01*
D02*
G37*
G36*
X259740D02*
X259551D01*
X258892Y254363D01*
X258333Y253989D01*
X257960Y253431D01*
X257829Y252772D01*
Y251500D01*
X259740D01*
Y254494D01*
D02*
G37*
G36*
X178000Y251500D02*
X175000D01*
Y249250D01*
X178000D01*
Y251500D01*
D02*
G37*
G36*
X174000D02*
X171000D01*
Y249250D01*
X174000D01*
Y251500D01*
D02*
G37*
G36*
X170000Y251250D02*
X167500D01*
Y249250D01*
X170000D01*
Y251250D01*
D02*
G37*
G36*
X166500D02*
X164000D01*
Y249250D01*
X166500D01*
Y251250D01*
D02*
G37*
G36*
X233449Y270994D02*
X232071D01*
X231412Y270863D01*
X230853Y270489D01*
X230480Y269931D01*
X230349Y269272D01*
Y265728D01*
X230480Y265069D01*
X230853Y264511D01*
X231256Y264241D01*
Y254000D01*
X230356D01*
Y248000D01*
X235211D01*
Y254000D01*
X234315D01*
Y264276D01*
X234666Y264511D01*
X235040Y265069D01*
X235171Y265728D01*
Y269272D01*
X235040Y269931D01*
X234666Y270489D01*
X234108Y270863D01*
X233449Y270994D01*
D02*
G37*
G36*
X262651Y250500D02*
X260740D01*
Y247506D01*
X260929D01*
X261588Y247637D01*
X262147Y248011D01*
X262520Y248569D01*
X262651Y249228D01*
Y250500D01*
D02*
G37*
G36*
X259740D02*
X257829D01*
Y249228D01*
X257960Y248569D01*
X258333Y248011D01*
X258892Y247637D01*
X259551Y247506D01*
X259740D01*
Y250500D01*
D02*
G37*
G36*
X222800Y249990D02*
Y247000D01*
X225789D01*
X225561Y247851D01*
X225101Y248649D01*
X224449Y249301D01*
X223651Y249762D01*
X222800Y249990D01*
D02*
G37*
G36*
X221800D02*
X220949Y249762D01*
X220151Y249301D01*
X219499Y248649D01*
X219039Y247851D01*
X218811Y247000D01*
X221800D01*
Y249990D01*
D02*
G37*
G36*
X187875Y247400D02*
X186953D01*
X186063Y247162D01*
X185265Y246701D01*
X184613Y246049D01*
X184256Y245429D01*
X178000D01*
Y246750D01*
X171000D01*
Y245679D01*
X170000D01*
Y246750D01*
X164000D01*
Y241750D01*
X170000D01*
Y242621D01*
X171000D01*
Y241250D01*
X178000D01*
Y242371D01*
X184256D01*
X184613Y241751D01*
X185265Y241099D01*
X186063Y240638D01*
X186953Y240400D01*
X187875D01*
X188765Y240638D01*
X189563Y241099D01*
X190215Y241751D01*
X190676Y242549D01*
X190914Y243439D01*
Y244361D01*
X190676Y245251D01*
X190215Y246049D01*
X189563Y246701D01*
X188765Y247162D01*
X187875Y247400D01*
D02*
G37*
G36*
X274300Y247990D02*
Y245000D01*
X277290D01*
X277062Y245851D01*
X276601Y246649D01*
X275949Y247301D01*
X275151Y247762D01*
X274300Y247990D01*
D02*
G37*
G36*
X273300D02*
X272449Y247762D01*
X271651Y247301D01*
X270999Y246649D01*
X270538Y245851D01*
X270310Y245000D01*
X273300D01*
Y247990D01*
D02*
G37*
G36*
X203700Y247589D02*
Y244600D01*
X206690D01*
X206462Y245451D01*
X206001Y246249D01*
X205349Y246901D01*
X204551Y247361D01*
X203700Y247589D01*
D02*
G37*
G36*
X202700D02*
X201849Y247361D01*
X201051Y246901D01*
X200399Y246249D01*
X199938Y245451D01*
X199711Y244600D01*
X202700D01*
Y247589D01*
D02*
G37*
G36*
X354700Y247289D02*
Y244300D01*
X357689D01*
X357462Y245151D01*
X357001Y245949D01*
X356349Y246601D01*
X355551Y247061D01*
X354700Y247289D01*
D02*
G37*
G36*
X353700D02*
X352849Y247061D01*
X352051Y246601D01*
X351399Y245949D01*
X350939Y245151D01*
X350711Y244300D01*
X353700D01*
Y247289D01*
D02*
G37*
G36*
X343600Y246989D02*
Y244000D01*
X346589D01*
X346361Y244851D01*
X345901Y245649D01*
X345249Y246301D01*
X344451Y246761D01*
X343600Y246989D01*
D02*
G37*
G36*
X342600D02*
X341749Y246761D01*
X340951Y246301D01*
X340299Y245649D01*
X339839Y244851D01*
X339611Y244000D01*
X342600D01*
Y246989D01*
D02*
G37*
G36*
X331200D02*
Y244000D01*
X334190D01*
X333962Y244851D01*
X333501Y245649D01*
X332849Y246301D01*
X332051Y246761D01*
X331200Y246989D01*
D02*
G37*
G36*
X330200D02*
X329349Y246761D01*
X328551Y246301D01*
X327899Y245649D01*
X327438Y244851D01*
X327210Y244000D01*
X330200D01*
Y246989D01*
D02*
G37*
G36*
X225789Y246000D02*
X222800D01*
Y243010D01*
X223651Y243238D01*
X224449Y243699D01*
X225101Y244351D01*
X225561Y245149D01*
X225789Y246000D01*
D02*
G37*
G36*
X221800D02*
X218811D01*
X219039Y245149D01*
X219499Y244351D01*
X220151Y243699D01*
X220949Y243238D01*
X221800Y243010D01*
Y246000D01*
D02*
G37*
G36*
X277290Y244000D02*
X274300D01*
Y241010D01*
X275151Y241238D01*
X275949Y241699D01*
X276601Y242351D01*
X277062Y243149D01*
X277290Y244000D01*
D02*
G37*
G36*
X273300D02*
X270310D01*
X270538Y243149D01*
X270999Y242351D01*
X271651Y241699D01*
X272449Y241238D01*
X273300Y241010D01*
Y244000D01*
D02*
G37*
G36*
X283772Y258171D02*
X280228D01*
X279569Y258040D01*
X279011Y257666D01*
X278637Y257108D01*
X278506Y256449D01*
Y255071D01*
X278637Y254412D01*
X279011Y253853D01*
X279569Y253480D01*
X279975Y253399D01*
Y248400D01*
X280130Y247620D01*
X280572Y246958D01*
X282547Y244983D01*
X282514Y244861D01*
Y243939D01*
X282753Y243049D01*
X283213Y242251D01*
X283865Y241599D01*
X284663Y241139D01*
X285553Y240900D01*
X286475D01*
X287365Y241139D01*
X288163Y241599D01*
X288815Y242251D01*
X289276Y243049D01*
X289514Y243939D01*
Y244861D01*
X289276Y245751D01*
X288815Y246549D01*
X288163Y247201D01*
X287365Y247661D01*
X286475Y247900D01*
X285553D01*
X285431Y247867D01*
X284053Y249245D01*
Y253405D01*
X284431Y253480D01*
X284989Y253853D01*
X285363Y254412D01*
X285494Y255071D01*
Y256449D01*
X285363Y257108D01*
X284989Y257666D01*
X284431Y258040D01*
X283772Y258171D01*
D02*
G37*
G36*
X206690Y243600D02*
X203700D01*
Y240611D01*
X204551Y240839D01*
X205349Y241299D01*
X206001Y241951D01*
X206462Y242749D01*
X206690Y243600D01*
D02*
G37*
G36*
X202700D02*
X199711D01*
X199938Y242749D01*
X200399Y241951D01*
X201051Y241299D01*
X201849Y240839D01*
X202700Y240611D01*
Y243600D01*
D02*
G37*
G36*
X357689Y243300D02*
X354700D01*
Y240311D01*
X355551Y240539D01*
X356349Y240999D01*
X357001Y241651D01*
X357462Y242449D01*
X357689Y243300D01*
D02*
G37*
G36*
X353700D02*
X350711D01*
X350939Y242449D01*
X351399Y241651D01*
X352051Y240999D01*
X352849Y240539D01*
X353700Y240311D01*
Y243300D01*
D02*
G37*
G36*
X346589Y243000D02*
X343600D01*
Y240010D01*
X344451Y240238D01*
X345249Y240699D01*
X345901Y241351D01*
X346361Y242149D01*
X346589Y243000D01*
D02*
G37*
G36*
X342600D02*
X339611D01*
X339839Y242149D01*
X340299Y241351D01*
X340951Y240699D01*
X341749Y240238D01*
X342600Y240010D01*
Y243000D01*
D02*
G37*
G36*
X334190D02*
X331200D01*
Y240010D01*
X332051Y240238D01*
X332849Y240699D01*
X333501Y241351D01*
X333962Y242149D01*
X334190Y243000D01*
D02*
G37*
G36*
X330200D02*
X327210D01*
X327438Y242149D01*
X327899Y241351D01*
X328551Y240699D01*
X329349Y240238D01*
X330200Y240010D01*
Y243000D01*
D02*
G37*
G36*
X280658Y226575D02*
X280500D01*
Y222075D01*
X285000D01*
Y222233D01*
X284659Y223505D01*
X284001Y224645D01*
X283070Y225576D01*
X281930Y226234D01*
X280658Y226575D01*
D02*
G37*
G36*
X279500D02*
X279342D01*
X278070Y226234D01*
X276930Y225576D01*
X275999Y224645D01*
X275341Y223505D01*
X275000Y222233D01*
Y222075D01*
X279500D01*
Y226575D01*
D02*
G37*
G36*
X285000Y221075D02*
X280500D01*
Y216575D01*
X280658D01*
X281930Y216915D01*
X283070Y217574D01*
X284001Y218505D01*
X284659Y219645D01*
X285000Y220917D01*
Y221075D01*
D02*
G37*
G36*
X279500D02*
X275000D01*
Y220917D01*
X275341Y219645D01*
X275999Y218505D01*
X276930Y217574D01*
X278070Y216915D01*
X279342Y216575D01*
X279500D01*
Y221075D01*
D02*
G37*
G36*
X358300Y220500D02*
X336300D01*
Y212500D01*
X358300D01*
Y220500D01*
D02*
G37*
G36*
X334700Y210500D02*
X324200D01*
Y207000D01*
X334700D01*
Y210500D01*
D02*
G37*
G36*
X323200D02*
X312700D01*
Y207000D01*
X323200D01*
Y210500D01*
D02*
G37*
G36*
X203800Y207389D02*
Y204400D01*
X206789D01*
X206561Y205251D01*
X206101Y206049D01*
X205449Y206701D01*
X204651Y207161D01*
X203800Y207389D01*
D02*
G37*
G36*
X202800D02*
X201949Y207161D01*
X201151Y206701D01*
X200499Y206049D01*
X200039Y205251D01*
X199811Y204400D01*
X202800D01*
Y207389D01*
D02*
G37*
G36*
X265600Y206990D02*
Y204000D01*
X268589D01*
X268361Y204851D01*
X267901Y205649D01*
X267249Y206301D01*
X266451Y206762D01*
X265600Y206990D01*
D02*
G37*
G36*
X264600D02*
X263749Y206762D01*
X262951Y206301D01*
X262299Y205649D01*
X261839Y204851D01*
X261611Y204000D01*
X264600D01*
Y206990D01*
D02*
G37*
G36*
X239200Y206789D02*
Y203800D01*
X242190D01*
X241962Y204651D01*
X241501Y205449D01*
X240849Y206101D01*
X240051Y206561D01*
X239200Y206789D01*
D02*
G37*
G36*
X238200D02*
X237349Y206561D01*
X236551Y206101D01*
X235899Y205449D01*
X235438Y204651D01*
X235210Y203800D01*
X238200D01*
Y206789D01*
D02*
G37*
G36*
X334700Y206000D02*
X324200D01*
Y202500D01*
X334700D01*
Y206000D01*
D02*
G37*
G36*
X323200D02*
X312700D01*
Y202500D01*
X323200D01*
Y206000D01*
D02*
G37*
G36*
X206789Y203400D02*
X203800D01*
Y200411D01*
X204651Y200639D01*
X205449Y201099D01*
X206101Y201751D01*
X206561Y202549D01*
X206789Y203400D01*
D02*
G37*
G36*
X202800D02*
X199811D01*
X200039Y202549D01*
X200499Y201751D01*
X201151Y201099D01*
X201949Y200639D01*
X202800Y200411D01*
Y203400D01*
D02*
G37*
G36*
X268589Y203000D02*
X265600D01*
Y200010D01*
X266451Y200238D01*
X267249Y200699D01*
X267901Y201351D01*
X268361Y202149D01*
X268589Y203000D01*
D02*
G37*
G36*
X264600D02*
X261611D01*
X261839Y202149D01*
X262299Y201351D01*
X262951Y200699D01*
X263749Y200238D01*
X264600Y200010D01*
Y203000D01*
D02*
G37*
G36*
X242190Y202800D02*
X239200D01*
Y199811D01*
X240051Y200039D01*
X240849Y200499D01*
X241501Y201151D01*
X241962Y201949D01*
X242190Y202800D01*
D02*
G37*
G36*
X238200D02*
X235210D01*
X235438Y201949D01*
X235899Y201151D01*
X236551Y200499D01*
X237349Y200039D01*
X238200Y199811D01*
Y202800D01*
D02*
G37*
G36*
X334700Y200500D02*
X324200D01*
Y197000D01*
X334700D01*
Y200500D01*
D02*
G37*
G36*
X323200D02*
X312700D01*
Y197000D01*
X323200D01*
Y200500D01*
D02*
G37*
G36*
X358300D02*
X336300D01*
Y192500D01*
X358300D01*
Y194971D01*
X359342D01*
X359699Y194351D01*
X360351Y193699D01*
X361149Y193238D01*
X362039Y193000D01*
X362961D01*
X363851Y193238D01*
X364649Y193699D01*
X365301Y194351D01*
X365761Y195149D01*
X366000Y196039D01*
Y196961D01*
X365761Y197851D01*
X365301Y198649D01*
X364649Y199301D01*
X363851Y199761D01*
X362961Y200000D01*
X362039D01*
X361149Y199761D01*
X360351Y199301D01*
X359699Y198649D01*
X359342Y198029D01*
X358300D01*
Y200500D01*
D02*
G37*
G36*
X334700Y196000D02*
X324200D01*
Y192500D01*
X334700D01*
Y196000D01*
D02*
G37*
G36*
X323200D02*
X312700D01*
Y192500D01*
X323200D01*
Y196000D01*
D02*
G37*
G36*
X334700Y190500D02*
X324200D01*
Y187000D01*
X334700D01*
Y190500D01*
D02*
G37*
G36*
X323200D02*
X312700D01*
Y187000D01*
X323200D01*
Y190500D01*
D02*
G37*
G36*
X204000Y188289D02*
Y185300D01*
X206990D01*
X206762Y186151D01*
X206301Y186949D01*
X205649Y187601D01*
X204851Y188061D01*
X204000Y188289D01*
D02*
G37*
G36*
X203000D02*
X202149Y188061D01*
X201351Y187601D01*
X200699Y186949D01*
X200238Y186151D01*
X200010Y185300D01*
X203000D01*
Y188289D01*
D02*
G37*
G36*
X265600Y188090D02*
Y185100D01*
X268589D01*
X268361Y185951D01*
X267901Y186749D01*
X267249Y187401D01*
X266451Y187862D01*
X265600Y188090D01*
D02*
G37*
G36*
X264600D02*
X263749Y187862D01*
X262951Y187401D01*
X262299Y186749D01*
X261839Y185951D01*
X261611Y185100D01*
X264600D01*
Y188090D01*
D02*
G37*
G36*
X239100Y187890D02*
Y184900D01*
X242090D01*
X241862Y185751D01*
X241401Y186549D01*
X240749Y187201D01*
X239951Y187662D01*
X239100Y187890D01*
D02*
G37*
G36*
X238100D02*
X237249Y187662D01*
X236451Y187201D01*
X235799Y186549D01*
X235338Y185751D01*
X235110Y184900D01*
X238100D01*
Y187890D01*
D02*
G37*
G36*
X334700Y186000D02*
X324200D01*
Y182500D01*
X334700D01*
Y186000D01*
D02*
G37*
G36*
X323200D02*
X312700D01*
Y182500D01*
X323200D01*
Y186000D01*
D02*
G37*
G36*
X206990Y184300D02*
X204000D01*
Y181310D01*
X204851Y181538D01*
X205649Y181999D01*
X206301Y182651D01*
X206762Y183449D01*
X206990Y184300D01*
D02*
G37*
G36*
X203000D02*
X200010D01*
X200238Y183449D01*
X200699Y182651D01*
X201351Y181999D01*
X202149Y181538D01*
X203000Y181310D01*
Y184300D01*
D02*
G37*
G36*
X268589Y184100D02*
X265600D01*
Y181111D01*
X266451Y181339D01*
X267249Y181799D01*
X267901Y182451D01*
X268361Y183249D01*
X268589Y184100D01*
D02*
G37*
G36*
X264600D02*
X261611D01*
X261839Y183249D01*
X262299Y182451D01*
X262951Y181799D01*
X263749Y181339D01*
X264600Y181111D01*
Y184100D01*
D02*
G37*
G36*
X242090Y183900D02*
X239100D01*
Y180911D01*
X239951Y181139D01*
X240749Y181599D01*
X241401Y182251D01*
X241862Y183049D01*
X242090Y183900D01*
D02*
G37*
G36*
X238100D02*
X235110D01*
X235338Y183049D01*
X235799Y182251D01*
X236451Y181599D01*
X237249Y181139D01*
X238100Y180911D01*
Y183900D01*
D02*
G37*
G36*
X334700Y180500D02*
X324200D01*
Y177000D01*
X334700D01*
Y180500D01*
D02*
G37*
G36*
X323200D02*
X312700D01*
Y177000D01*
X323200D01*
Y180500D01*
D02*
G37*
G36*
X358300D02*
X336300D01*
Y172500D01*
X358300D01*
Y180500D01*
D02*
G37*
G36*
X334700Y176000D02*
X324200D01*
Y172500D01*
X334700D01*
Y176000D01*
D02*
G37*
G36*
X323200D02*
X312700D01*
Y172500D01*
X323200D01*
Y176000D01*
D02*
G37*
G36*
X266000Y169389D02*
Y166400D01*
X268989D01*
X268761Y167251D01*
X268301Y168049D01*
X267649Y168701D01*
X266851Y169161D01*
X266000Y169389D01*
D02*
G37*
G36*
X265000D02*
X264149Y169161D01*
X263351Y168701D01*
X262699Y168049D01*
X262239Y167251D01*
X262011Y166400D01*
X265000D01*
Y169389D01*
D02*
G37*
G36*
X204000D02*
Y166400D01*
X206990D01*
X206762Y167251D01*
X206301Y168049D01*
X205649Y168701D01*
X204851Y169161D01*
X204000Y169389D01*
D02*
G37*
G36*
X203000D02*
X202149Y169161D01*
X201351Y168701D01*
X200699Y168049D01*
X200238Y167251D01*
X200010Y166400D01*
X203000D01*
Y169389D01*
D02*
G37*
G36*
X310961Y167500D02*
X310039D01*
X309149Y167262D01*
X308351Y166801D01*
X307699Y166149D01*
X307342Y165529D01*
X299673D01*
X299315Y166149D01*
X298663Y166801D01*
X297865Y167262D01*
X296975Y167500D01*
X296053D01*
X295163Y167262D01*
X294365Y166801D01*
X293713Y166149D01*
X293253Y165351D01*
X293014Y164461D01*
Y163539D01*
X293253Y162649D01*
X293713Y161851D01*
X294365Y161199D01*
X295163Y160739D01*
X296053Y160500D01*
X296975D01*
X297865Y160739D01*
X298663Y161199D01*
X299315Y161851D01*
X299673Y162471D01*
X307342D01*
X307699Y161851D01*
X308351Y161199D01*
X309149Y160739D01*
X310039Y160500D01*
X310961D01*
X311851Y160739D01*
X312649Y161199D01*
X313301Y161851D01*
X313761Y162649D01*
X314000Y163539D01*
Y164461D01*
X313761Y165351D01*
X313301Y166149D01*
X312649Y166801D01*
X311851Y167262D01*
X310961Y167500D01*
D02*
G37*
G36*
X268989Y165400D02*
X266000D01*
Y162410D01*
X266851Y162638D01*
X267649Y163099D01*
X268301Y163751D01*
X268761Y164549D01*
X268989Y165400D01*
D02*
G37*
G36*
X265000D02*
X262011D01*
X262239Y164549D01*
X262699Y163751D01*
X263351Y163099D01*
X264149Y162638D01*
X265000Y162410D01*
Y165400D01*
D02*
G37*
G36*
X206990D02*
X204000D01*
Y162410D01*
X204851Y162638D01*
X205649Y163099D01*
X206301Y163751D01*
X206762Y164549D01*
X206990Y165400D01*
D02*
G37*
G36*
X203000D02*
X200010D01*
X200238Y164549D01*
X200699Y163751D01*
X201351Y163099D01*
X202149Y162638D01*
X203000Y162410D01*
Y165400D01*
D02*
G37*
G36*
X176500Y161250D02*
X173500D01*
Y159000D01*
X176500D01*
Y161250D01*
D02*
G37*
G36*
X172500D02*
X169500D01*
Y159000D01*
X172500D01*
Y161250D01*
D02*
G37*
G36*
X167500Y160750D02*
X165000D01*
Y158750D01*
X167500D01*
Y160750D01*
D02*
G37*
G36*
X164000D02*
X161500D01*
Y158750D01*
X164000D01*
Y160750D01*
D02*
G37*
G36*
X186764Y161639D02*
Y158650D01*
X189754D01*
X189526Y159501D01*
X189065Y160299D01*
X188413Y160951D01*
X187615Y161411D01*
X186764Y161639D01*
D02*
G37*
G36*
X185764D02*
X184913Y161411D01*
X184115Y160951D01*
X183463Y160299D01*
X183003Y159501D01*
X182775Y158650D01*
X185764D01*
Y161639D01*
D02*
G37*
G36*
X214975Y162900D02*
X214053D01*
X213163Y162662D01*
X212365Y162201D01*
X211713Y161549D01*
X211253Y160751D01*
X211014Y159861D01*
Y158939D01*
X211199Y158248D01*
X204881Y151929D01*
X176500D01*
Y153250D01*
X169500D01*
Y152689D01*
X167500D01*
Y153250D01*
X161500D01*
Y148250D01*
X167500D01*
Y148611D01*
X169500D01*
Y147750D01*
X176500D01*
Y148871D01*
X205514D01*
X206099Y148987D01*
X206595Y149319D01*
X213362Y156085D01*
X214053Y155900D01*
X214975D01*
X215865Y156139D01*
X216663Y156599D01*
X217315Y157251D01*
X217776Y158049D01*
X218014Y158939D01*
Y159861D01*
X217776Y160751D01*
X217315Y161549D01*
X216663Y162201D01*
X215865Y162662D01*
X214975Y162900D01*
D02*
G37*
G36*
X176500Y158000D02*
X173500D01*
Y155750D01*
X176500D01*
Y158000D01*
D02*
G37*
G36*
X172500D02*
X169500D01*
Y155750D01*
X172500D01*
Y158000D01*
D02*
G37*
G36*
X167500Y157750D02*
X165000D01*
Y155750D01*
X167500D01*
Y157750D01*
D02*
G37*
G36*
X164000D02*
X161500D01*
Y155750D01*
X164000D01*
Y157750D01*
D02*
G37*
G36*
X189754Y157650D02*
X186764D01*
Y154660D01*
X187615Y154888D01*
X188413Y155349D01*
X189065Y156001D01*
X189526Y156799D01*
X189754Y157650D01*
D02*
G37*
G36*
X185764D02*
X182775D01*
X183003Y156799D01*
X183463Y156001D01*
X184115Y155349D01*
X184913Y154888D01*
X185764Y154660D01*
Y157650D01*
D02*
G37*
G36*
X333014Y151390D02*
Y148400D01*
X336004D01*
X335776Y149251D01*
X335315Y150049D01*
X334663Y150701D01*
X333865Y151162D01*
X333014Y151390D01*
D02*
G37*
G36*
X332014D02*
X331163Y151162D01*
X330365Y150701D01*
X329713Y150049D01*
X329253Y149251D01*
X329025Y148400D01*
X332014D01*
Y151390D01*
D02*
G37*
G36*
X266200Y148989D02*
Y146000D01*
X269190D01*
X268962Y146851D01*
X268501Y147649D01*
X267849Y148301D01*
X267051Y148761D01*
X266200Y148989D01*
D02*
G37*
G36*
X265200D02*
X264349Y148761D01*
X263551Y148301D01*
X262899Y147649D01*
X262439Y146851D01*
X262210Y146000D01*
X265200D01*
Y148989D01*
D02*
G37*
G36*
X239400Y147989D02*
Y145000D01*
X242389D01*
X242161Y145851D01*
X241701Y146649D01*
X241049Y147301D01*
X240251Y147761D01*
X239400Y147989D01*
D02*
G37*
G36*
X238400D02*
X237549Y147761D01*
X236751Y147301D01*
X236099Y146649D01*
X235638Y145851D01*
X235410Y145000D01*
X238400D01*
Y147989D01*
D02*
G37*
G36*
X336004Y147400D02*
X333014D01*
Y144411D01*
X333865Y144639D01*
X334663Y145099D01*
X335315Y145751D01*
X335776Y146549D01*
X336004Y147400D01*
D02*
G37*
G36*
X332014D02*
X329025D01*
X329253Y146549D01*
X329713Y145751D01*
X330365Y145099D01*
X331163Y144639D01*
X332014Y144411D01*
Y147400D01*
D02*
G37*
G36*
X269190Y145000D02*
X266200D01*
Y142010D01*
X267051Y142238D01*
X267849Y142699D01*
X268501Y143351D01*
X268962Y144149D01*
X269190Y145000D01*
D02*
G37*
G36*
X265200D02*
X262210D01*
X262439Y144149D01*
X262899Y143351D01*
X263551Y142699D01*
X264349Y142238D01*
X265200Y142010D01*
Y145000D01*
D02*
G37*
G36*
X242389Y144000D02*
X239400D01*
Y141010D01*
X240251Y141238D01*
X241049Y141699D01*
X241701Y142351D01*
X242161Y143149D01*
X242389Y144000D01*
D02*
G37*
G36*
X238400D02*
X235410D01*
X235638Y143149D01*
X236099Y142351D01*
X236751Y141699D01*
X237549Y141238D01*
X238400Y141010D01*
Y144000D01*
D02*
G37*
G36*
X331500Y124989D02*
Y122000D01*
X334489D01*
X334261Y122851D01*
X333801Y123649D01*
X333149Y124301D01*
X332351Y124761D01*
X331500Y124989D01*
D02*
G37*
G36*
X330500D02*
X329649Y124761D01*
X328851Y124301D01*
X328199Y123649D01*
X327738Y122851D01*
X327510Y122000D01*
X330500D01*
Y124989D01*
D02*
G37*
G36*
X334489Y121000D02*
X331500D01*
Y118010D01*
X332351Y118238D01*
X333149Y118699D01*
X333801Y119351D01*
X334261Y120149D01*
X334489Y121000D01*
D02*
G37*
G36*
X330500D02*
X327510D01*
X327738Y120149D01*
X328199Y119351D01*
X328851Y118699D01*
X329649Y118238D01*
X330500Y118010D01*
Y121000D01*
D02*
G37*
G36*
X372000Y119490D02*
Y116500D01*
X374990D01*
X374762Y117351D01*
X374301Y118149D01*
X373649Y118801D01*
X372851Y119262D01*
X372000Y119490D01*
D02*
G37*
G36*
X371000D02*
X370149Y119262D01*
X369351Y118801D01*
X368699Y118149D01*
X368238Y117351D01*
X368010Y116500D01*
X371000D01*
Y119490D01*
D02*
G37*
G36*
X374990Y115500D02*
X372000D01*
Y112511D01*
X372851Y112739D01*
X373649Y113199D01*
X374301Y113851D01*
X374762Y114649D01*
X374990Y115500D01*
D02*
G37*
G36*
X371000D02*
X368010D01*
X368238Y114649D01*
X368699Y113851D01*
X369351Y113199D01*
X370149Y112739D01*
X371000Y112511D01*
Y115500D01*
D02*
G37*
G36*
X331500Y92489D02*
Y89500D01*
X334489D01*
X334261Y90351D01*
X333801Y91149D01*
X333149Y91801D01*
X332351Y92261D01*
X331500Y92489D01*
D02*
G37*
G36*
X330500D02*
X329649Y92261D01*
X328851Y91801D01*
X328199Y91149D01*
X327738Y90351D01*
X327510Y89500D01*
X330500D01*
Y92489D01*
D02*
G37*
G36*
X334489Y88500D02*
X331500D01*
Y85510D01*
X332351Y85738D01*
X333149Y86199D01*
X333801Y86851D01*
X334261Y87649D01*
X334489Y88500D01*
D02*
G37*
G36*
X330500D02*
X327510D01*
X327738Y87649D01*
X328199Y86851D01*
X328851Y86199D01*
X329649Y85738D01*
X330500Y85510D01*
Y88500D01*
D02*
G37*
G36*
X372000Y86989D02*
Y84000D01*
X374990D01*
X374762Y84851D01*
X374301Y85649D01*
X373649Y86301D01*
X372851Y86761D01*
X372000Y86989D01*
D02*
G37*
G36*
X371000D02*
X370149Y86761D01*
X369351Y86301D01*
X368699Y85649D01*
X368238Y84851D01*
X368010Y84000D01*
X371000D01*
Y86989D01*
D02*
G37*
G36*
X374990Y83000D02*
X372000D01*
Y80010D01*
X372851Y80238D01*
X373649Y80699D01*
X374301Y81351D01*
X374762Y82149D01*
X374990Y83000D01*
D02*
G37*
G36*
X371000D02*
X368010D01*
X368238Y82149D01*
X368699Y81351D01*
X369351Y80699D01*
X370149Y80238D01*
X371000Y80010D01*
Y83000D01*
D02*
G37*
G36*
X359000Y80000D02*
X355500D01*
Y69500D01*
X359000D01*
Y80000D01*
D02*
G37*
G36*
X349000D02*
X345500D01*
Y69500D01*
X349000D01*
Y80000D01*
D02*
G37*
G36*
X354500D02*
X351000D01*
Y69500D01*
X354500D01*
Y80000D01*
D02*
G37*
G36*
X344500D02*
X341000D01*
Y69500D01*
X344500D01*
Y80000D01*
D02*
G37*
G36*
X359000Y68500D02*
X355500D01*
Y58000D01*
X359000D01*
Y68500D01*
D02*
G37*
G36*
X354500D02*
X351000D01*
Y58000D01*
X354500D01*
Y68500D01*
D02*
G37*
G36*
X349000D02*
X345500D01*
Y58000D01*
X349000D01*
Y68500D01*
D02*
G37*
G36*
X344500D02*
X341000D01*
Y58000D01*
X344500D01*
Y68500D01*
D02*
G37*
G36*
X372000Y60489D02*
Y57500D01*
X374990D01*
X374762Y58351D01*
X374301Y59149D01*
X373649Y59801D01*
X372851Y60261D01*
X372000Y60489D01*
D02*
G37*
G36*
X371000D02*
X370149Y60261D01*
X369351Y59801D01*
X368699Y59149D01*
X368238Y58351D01*
X368010Y57500D01*
X371000D01*
Y60489D01*
D02*
G37*
G36*
X331500Y59990D02*
Y57000D01*
X334489D01*
X334261Y57851D01*
X333801Y58649D01*
X333149Y59301D01*
X332351Y59762D01*
X331500Y59990D01*
D02*
G37*
G36*
X330500D02*
X329649Y59762D01*
X328851Y59301D01*
X328199Y58649D01*
X327738Y57851D01*
X327510Y57000D01*
X330500D01*
Y59990D01*
D02*
G37*
G36*
X374990Y56500D02*
X372000D01*
Y53510D01*
X372851Y53738D01*
X373649Y54199D01*
X374301Y54851D01*
X374762Y55649D01*
X374990Y56500D01*
D02*
G37*
G36*
X371000D02*
X368010D01*
X368238Y55649D01*
X368699Y54851D01*
X369351Y54199D01*
X370149Y53738D01*
X371000Y53510D01*
Y56500D01*
D02*
G37*
G36*
X334489Y56000D02*
X331500D01*
Y53010D01*
X332351Y53238D01*
X333149Y53699D01*
X333801Y54351D01*
X334261Y55149D01*
X334489Y56000D01*
D02*
G37*
G36*
X330500D02*
X327510D01*
X327738Y55149D01*
X328199Y54351D01*
X328851Y53699D01*
X329649Y53238D01*
X330500Y53010D01*
Y56000D01*
D02*
G37*
G36*
X214600Y47089D02*
Y44100D01*
X217589D01*
X217361Y44951D01*
X216901Y45749D01*
X216249Y46401D01*
X215451Y46861D01*
X214600Y47089D01*
D02*
G37*
G36*
X213600D02*
X212749Y46861D01*
X211951Y46401D01*
X211299Y45749D01*
X210839Y44951D01*
X210611Y44100D01*
X213600D01*
Y47089D01*
D02*
G37*
G36*
X191250Y46500D02*
X189000D01*
Y43500D01*
X191250D01*
Y46500D01*
D02*
G37*
G36*
X188000D02*
X185750D01*
Y43500D01*
X188000D01*
Y46500D01*
D02*
G37*
G36*
X235949Y45994D02*
X235760D01*
Y43000D01*
X237671D01*
Y44272D01*
X237540Y44931D01*
X237167Y45489D01*
X236608Y45863D01*
X235949Y45994D01*
D02*
G37*
G36*
X234760D02*
X234571D01*
X233912Y45863D01*
X233353Y45489D01*
X232980Y44931D01*
X232849Y44272D01*
Y43000D01*
X234760D01*
Y45994D01*
D02*
G37*
G36*
X217589Y43100D02*
X214600D01*
Y40110D01*
X215451Y40339D01*
X216249Y40799D01*
X216901Y41451D01*
X217361Y42249D01*
X217589Y43100D01*
D02*
G37*
G36*
X213600D02*
X210611D01*
X210839Y42249D01*
X211299Y41451D01*
X211951Y40799D01*
X212749Y40339D01*
X213600Y40110D01*
Y43100D01*
D02*
G37*
G36*
X191250Y42500D02*
X189000D01*
Y39500D01*
X191250D01*
Y42500D01*
D02*
G37*
G36*
X188000D02*
X185750D01*
Y39500D01*
X188000D01*
Y42500D01*
D02*
G37*
G36*
X237671Y42000D02*
X235760D01*
Y39006D01*
X235949D01*
X236608Y39137D01*
X237167Y39511D01*
X237540Y40069D01*
X237671Y40728D01*
Y42000D01*
D02*
G37*
G36*
X234760D02*
X232849D01*
Y40728D01*
X232980Y40069D01*
X233353Y39511D01*
X233912Y39137D01*
X234571Y39006D01*
X234760D01*
Y42000D01*
D02*
G37*
G36*
X222461Y38500D02*
X221539D01*
X220649Y38262D01*
X219851Y37801D01*
X219199Y37149D01*
X218842Y36529D01*
X213151D01*
Y36772D01*
X213020Y37431D01*
X212647Y37989D01*
X212088Y38363D01*
X211429Y38494D01*
X210051D01*
X209392Y38363D01*
X208834Y37989D01*
X208460Y37431D01*
X208329Y36772D01*
Y33228D01*
X208460Y32569D01*
X208834Y32011D01*
X209392Y31637D01*
X210051Y31506D01*
X211429D01*
X212088Y31637D01*
X212647Y32011D01*
X213020Y32569D01*
X213151Y33228D01*
Y33471D01*
X218842D01*
X219199Y32851D01*
X219851Y32199D01*
X220649Y31738D01*
X221539Y31500D01*
X222461D01*
X223351Y31738D01*
X224149Y32199D01*
X224801Y32851D01*
X225261Y33649D01*
X225500Y34539D01*
Y35461D01*
X225261Y36351D01*
X224801Y37149D01*
X224149Y37801D01*
X223351Y38262D01*
X222461Y38500D01*
D02*
G37*
G36*
X191250Y38000D02*
X189250D01*
Y35500D01*
X191250D01*
Y38000D01*
D02*
G37*
G36*
X188250D02*
X186250D01*
Y35500D01*
X188250D01*
Y38000D01*
D02*
G37*
G36*
X237750Y37500D02*
X235750D01*
Y35000D01*
X237750D01*
Y37500D01*
D02*
G37*
G36*
X234750D02*
X232750D01*
Y35000D01*
X234750D01*
Y37500D01*
D02*
G37*
G36*
X191250Y34500D02*
X189250D01*
Y32000D01*
X191250D01*
Y34500D01*
D02*
G37*
G36*
X188250D02*
X186250D01*
Y32000D01*
X188250D01*
Y34500D01*
D02*
G37*
G36*
X199250Y46500D02*
X193750D01*
Y39500D01*
X194336D01*
Y38000D01*
X193750D01*
Y32000D01*
X198750D01*
Y33471D01*
X200849D01*
Y33228D01*
X200980Y32569D01*
X201353Y32011D01*
X201912Y31637D01*
X202571Y31506D01*
X203949D01*
X204608Y31637D01*
X205167Y32011D01*
X205540Y32569D01*
X205671Y33228D01*
Y36772D01*
X205540Y37431D01*
X205167Y37989D01*
X204608Y38363D01*
X203949Y38494D01*
X202571D01*
X201912Y38363D01*
X201353Y37989D01*
X200980Y37431D01*
X200849Y36772D01*
Y36529D01*
X198750D01*
Y38000D01*
X198414D01*
Y39500D01*
X199250D01*
Y46500D01*
D02*
G37*
G36*
X237750Y34000D02*
X235750D01*
Y31500D01*
X237750D01*
Y34000D01*
D02*
G37*
G36*
X234750D02*
X232750D01*
Y31500D01*
X234750D01*
Y34000D01*
D02*
G37*
G36*
X243429Y45994D02*
X242051D01*
X241392Y45863D01*
X240833Y45489D01*
X240460Y44931D01*
X240329Y44272D01*
Y40728D01*
X240460Y40069D01*
X240833Y39511D01*
X241211Y39259D01*
Y37500D01*
X240250D01*
Y31500D01*
X245250D01*
Y32971D01*
X247849D01*
Y32728D01*
X247980Y32069D01*
X248353Y31511D01*
X248912Y31137D01*
X249571Y31006D01*
X250949D01*
X251608Y31137D01*
X252167Y31511D01*
X252540Y32069D01*
X252671Y32728D01*
Y36272D01*
X252540Y36931D01*
X252167Y37489D01*
X251608Y37863D01*
X250949Y37994D01*
X249571D01*
X248912Y37863D01*
X248353Y37489D01*
X247980Y36931D01*
X247849Y36272D01*
Y36029D01*
X245250D01*
Y37500D01*
X244269D01*
Y39259D01*
X244647Y39511D01*
X245020Y40069D01*
X245151Y40728D01*
Y44272D01*
X245020Y44931D01*
X244647Y45489D01*
X244088Y45863D01*
X243429Y45994D01*
D02*
G37*
G36*
X318961Y146000D02*
X318039D01*
X317149Y145762D01*
X316351Y145301D01*
X315699Y144649D01*
X315238Y143851D01*
X315000Y142961D01*
Y142039D01*
X315238Y141149D01*
X315699Y140351D01*
X316351Y139699D01*
X316971Y139341D01*
Y51800D01*
X314500D01*
Y29800D01*
X322500D01*
Y51800D01*
X320029D01*
Y139341D01*
X320649Y139699D01*
X321301Y140351D01*
X321761Y141149D01*
X322000Y142039D01*
Y142961D01*
X321761Y143851D01*
X321301Y144649D01*
X320649Y145301D01*
X319851Y145762D01*
X318961Y146000D01*
D02*
G37*
G36*
X376750Y36750D02*
X360500D01*
Y20500D01*
X376750D01*
Y36750D01*
D02*
G37*
G36*
X359500D02*
X343250D01*
Y20500D01*
X359500D01*
Y36750D01*
D02*
G37*
G36*
X247429Y23494D02*
X246051D01*
X245392Y23363D01*
X244833Y22989D01*
X244460Y22431D01*
X244329Y21772D01*
Y18228D01*
X244460Y17569D01*
X244833Y17011D01*
X245392Y16637D01*
X246051Y16506D01*
X247429D01*
X248088Y16637D01*
X248647Y17011D01*
X249020Y17569D01*
X249126Y18102D01*
X254500D01*
Y17856D01*
X260500D01*
Y22711D01*
X254500D01*
Y22181D01*
X249070D01*
X249020Y22431D01*
X248647Y22989D01*
X248088Y23363D01*
X247429Y23494D01*
D02*
G37*
G36*
X312500Y28200D02*
X309000D01*
Y17700D01*
X312500D01*
Y28200D01*
D02*
G37*
G36*
X308000D02*
X304500D01*
Y17700D01*
X308000D01*
Y28200D01*
D02*
G37*
G36*
X302500D02*
X299000D01*
Y17700D01*
X302500D01*
Y28200D01*
D02*
G37*
G36*
X298000D02*
X294500D01*
Y17700D01*
X298000D01*
Y28200D01*
D02*
G37*
G36*
X200929Y23494D02*
X199551D01*
X198892Y23363D01*
X198334Y22989D01*
X197960Y22431D01*
X197829Y21772D01*
Y18228D01*
X197960Y17569D01*
X198334Y17011D01*
X198892Y16637D01*
X199551Y16506D01*
X200929D01*
X201588Y16637D01*
X202147Y17011D01*
X202520Y17569D01*
X202576Y17853D01*
X208500D01*
Y17356D01*
X214500D01*
Y22211D01*
X208500D01*
Y21931D01*
X202620D01*
X202520Y22431D01*
X202147Y22989D01*
X201588Y23363D01*
X200929Y23494D01*
D02*
G37*
G36*
X241500Y29500D02*
X236500D01*
Y23500D01*
X237091D01*
Y22597D01*
X236980Y22431D01*
X236849Y21772D01*
Y18228D01*
X236980Y17569D01*
X237353Y17011D01*
X237912Y16637D01*
X238571Y16506D01*
X239949D01*
X240608Y16637D01*
X241166Y17011D01*
X241540Y17569D01*
X241671Y18228D01*
Y21772D01*
X241540Y22431D01*
X241169Y22986D01*
Y23500D01*
X241500D01*
Y29500D01*
D02*
G37*
G36*
X195000Y30000D02*
X190000D01*
Y24000D01*
X190591D01*
Y22597D01*
X190480Y22431D01*
X190349Y21772D01*
Y18228D01*
X190480Y17569D01*
X190853Y17011D01*
X191412Y16637D01*
X192071Y16506D01*
X193449D01*
X194108Y16637D01*
X194667Y17011D01*
X195040Y17569D01*
X195171Y18228D01*
Y21772D01*
X195040Y22431D01*
X194669Y22986D01*
Y24000D01*
X195000D01*
Y30000D01*
D02*
G37*
G36*
X322500Y28200D02*
X314500D01*
Y7039D01*
X312500D01*
Y16700D01*
X304500D01*
Y7039D01*
X302500D01*
Y16700D01*
X294500D01*
Y7039D01*
X269637D01*
Y11500D01*
Y24388D01*
X269481Y25168D01*
X269040Y25830D01*
X269039Y25830D01*
X267868Y27001D01*
X267206Y27444D01*
X266426Y27599D01*
X260500D01*
Y28144D01*
X254500D01*
Y23289D01*
X260500D01*
Y23520D01*
X265558D01*
Y13539D01*
X228039D01*
Y25216D01*
X227884Y25997D01*
X227442Y26658D01*
X226780Y27101D01*
X226000Y27256D01*
X214500D01*
Y27644D01*
X208500D01*
Y22789D01*
X214500D01*
Y23177D01*
X223961D01*
Y11500D01*
X224116Y10720D01*
X224558Y10058D01*
X225220Y9616D01*
X226000Y9461D01*
X265558D01*
Y6172D01*
X265714Y5391D01*
X266156Y4730D01*
X267327Y3558D01*
X267327Y3558D01*
X267989Y3116D01*
X268769Y2961D01*
X328828D01*
X329609Y3116D01*
X330270Y3558D01*
X331442Y4730D01*
X331442Y4730D01*
X331884Y5391D01*
X332039Y6172D01*
Y22828D01*
X331884Y23609D01*
X331442Y24270D01*
X331442Y24270D01*
X330270Y25442D01*
X329609Y25884D01*
X328828Y26039D01*
X322500D01*
Y28200D01*
D02*
G37*
G36*
X376750Y19500D02*
X360500D01*
Y3250D01*
X376750D01*
Y19500D01*
D02*
G37*
G36*
X359500D02*
X343250D01*
Y3250D01*
X359500D01*
Y19500D01*
D02*
G37*
%LPD*%
G36*
X246103Y354936D02*
X246006Y354449D01*
Y353071D01*
X246137Y352412D01*
X246511Y351853D01*
X247069Y351480D01*
X247728Y351349D01*
X247985D01*
Y350573D01*
X244341Y346929D01*
X231172D01*
X230815Y347549D01*
X230163Y348201D01*
X229365Y348661D01*
X228475Y348900D01*
X227553D01*
X226663Y348661D01*
X225865Y348201D01*
X225213Y347549D01*
X224753Y346751D01*
X224514Y345861D01*
Y344939D01*
X224753Y344049D01*
X225213Y343251D01*
X225865Y342599D01*
X226663Y342139D01*
X227553Y341900D01*
X228475D01*
X229365Y342139D01*
X230163Y342599D01*
X230815Y343251D01*
X231172Y343871D01*
X244975D01*
X245560Y343987D01*
X246056Y344319D01*
X250148Y348410D01*
X259063D01*
Y342228D01*
Y336366D01*
X227451D01*
X226866Y336250D01*
X226370Y335918D01*
X216166Y325715D01*
X215475Y325900D01*
X214553D01*
X213663Y325661D01*
X212865Y325201D01*
X212213Y324549D01*
X211753Y323751D01*
X211514Y322861D01*
Y321939D01*
X211753Y321049D01*
X212213Y320251D01*
X212865Y319599D01*
X213663Y319139D01*
X214553Y318900D01*
X215475D01*
X216365Y319139D01*
X217163Y319599D01*
X217815Y320251D01*
X218276Y321049D01*
X218514Y321939D01*
Y322861D01*
X218329Y323552D01*
X228085Y333308D01*
X259063D01*
Y332228D01*
Y326366D01*
X254014D01*
X253429Y326250D01*
X252933Y325918D01*
X251844Y324829D01*
X227472D01*
X226886Y324713D01*
X226390Y324381D01*
X215317Y313308D01*
X214975Y313400D01*
X214053D01*
X213163Y313161D01*
X212365Y312701D01*
X211713Y312049D01*
X211253Y311251D01*
X211014Y310361D01*
Y309439D01*
X211253Y308549D01*
X211713Y307751D01*
X212365Y307099D01*
X213163Y306639D01*
X214053Y306400D01*
X214975D01*
X215865Y306639D01*
X216663Y307099D01*
X217315Y307751D01*
X217776Y308549D01*
X218014Y309439D01*
Y310361D01*
X217776Y311251D01*
X217706Y311371D01*
X228105Y321771D01*
X229240D01*
X229356Y321491D01*
X229402Y321271D01*
X229087Y320799D01*
X228971Y320214D01*
Y296485D01*
X228856Y296454D01*
X228058Y295994D01*
X227406Y295342D01*
X226946Y294544D01*
X226915Y294429D01*
X225000D01*
Y299250D01*
X224053D01*
Y301728D01*
X223898Y302509D01*
X223456Y303170D01*
X223456Y303170D01*
X222284Y304342D01*
X221623Y304784D01*
X220843Y304939D01*
X208796D01*
X208514Y305221D01*
Y305262D01*
X208494Y305364D01*
Y306429D01*
X208363Y307088D01*
X207989Y307647D01*
X207431Y308020D01*
X207053Y308095D01*
Y334070D01*
X217085D01*
X217999Y334190D01*
X218850Y334543D01*
X219581Y335104D01*
X222510Y338033D01*
X223071Y338764D01*
X223424Y339615D01*
X223544Y340529D01*
Y350433D01*
X240014D01*
X240928Y350553D01*
X241779Y350906D01*
X242510Y351467D01*
X242615Y351603D01*
X242989Y351853D01*
X243363Y352412D01*
X243494Y353071D01*
Y353579D01*
X243508Y353687D01*
X245256Y355436D01*
X245801D01*
X246103Y354936D01*
D02*
G37*
G36*
X207951Y300861D02*
X207951Y300861D01*
X219975D01*
Y299250D01*
X219000D01*
Y294429D01*
X217000D01*
Y295500D01*
X211000D01*
Y294429D01*
X208357D01*
X207771Y294313D01*
X207275Y293981D01*
X207005Y293712D01*
X206543Y293903D01*
Y295849D01*
X206772D01*
X207431Y295980D01*
X207989Y296353D01*
X208363Y296912D01*
X208494Y297571D01*
Y298949D01*
X208363Y299608D01*
X207989Y300167D01*
X207612Y300418D01*
X207807Y300889D01*
X207951Y300861D01*
D02*
G37*
%LPC*%
G36*
X237600Y332789D02*
Y329800D01*
X240589D01*
X240361Y330651D01*
X239901Y331449D01*
X239249Y332101D01*
X238451Y332561D01*
X237600Y332789D01*
D02*
G37*
G36*
X236600D02*
X235749Y332561D01*
X234951Y332101D01*
X234299Y331449D01*
X233839Y330651D01*
X233611Y329800D01*
X236600D01*
Y332789D01*
D02*
G37*
G36*
X240589Y328800D02*
X237600D01*
Y325811D01*
X238451Y326039D01*
X239249Y326499D01*
X239901Y327151D01*
X240361Y327949D01*
X240589Y328800D01*
D02*
G37*
G36*
X236600D02*
X233611D01*
X233839Y327949D01*
X234299Y327151D01*
X234951Y326499D01*
X235749Y326039D01*
X236600Y325811D01*
Y328800D01*
D02*
G37*
%LPD*%
G36*
X327961Y7039D02*
X322500D01*
Y21961D01*
X327961D01*
Y7039D01*
D02*
G37*
D10*
X31086Y338400D02*
X113914D01*
X19600Y302500D02*
X29914D01*
X30500Y303086D02*
Y337814D01*
X31086Y338400D01*
X29914Y302500D02*
X30500Y303086D01*
X184077Y297900D02*
X184500Y298323D01*
X115086Y315500D02*
X183914D01*
X184500Y314914D01*
Y298323D02*
Y314914D01*
X185828Y317500D02*
X188014Y315314D01*
X118100Y317500D02*
X168914D01*
Y337554D01*
Y317500D02*
X185828D01*
X188014Y283423D02*
Y315314D01*
X113914Y338400D02*
X114500Y337814D01*
Y316086D02*
X115086Y315500D01*
X114500Y316086D02*
Y337814D01*
X117514Y318086D02*
Y322180D01*
Y318086D02*
X118100Y317500D01*
X238231Y250900D02*
X252577D01*
X174831Y275150D02*
X175081Y275400D01*
X166014Y275150D02*
X174831D01*
X345000Y103000D02*
Y153914D01*
X341414Y157500D02*
X345000Y153914D01*
X229000Y157500D02*
X341414Y157500D01*
X208357Y292900D02*
X229914D01*
X205014Y290837D02*
Y297963D01*
X230207Y293193D02*
X230500Y293486D01*
X229914Y292900D02*
X230207Y293193D01*
X222014Y289150D02*
X239428D01*
X240014Y267837D02*
Y288564D01*
X239428Y289150D02*
X240014Y288564D01*
X230500Y293486D02*
Y320214D01*
X231086Y320800D02*
X263700D01*
X230500Y320214D02*
X231086Y320800D01*
X167414Y251650D02*
X174664D01*
X116914Y113500D02*
X118000Y114586D01*
X90451Y112914D02*
X91037Y113500D01*
X90451Y86486D02*
Y112914D01*
X91037Y113500D02*
X116914D01*
X118000Y114586D02*
Y140814D01*
X118586Y141400D01*
X178014D01*
X355586Y130500D02*
X368514D01*
X355000Y103000D02*
Y129914D01*
X355586Y130500D01*
X254014Y324837D02*
X264050D01*
X318500Y34000D02*
Y142500D01*
X293000Y151500D02*
X305414D01*
X306000Y150914D01*
Y58000D02*
Y150914D01*
X301822Y147322D02*
X302000Y147143D01*
Y57000D02*
Y147143D01*
X214514Y159400D02*
X215279Y158635D01*
X205514Y150400D02*
X214514Y159400D01*
X299000Y51000D02*
X306000Y58000D01*
X297500Y52500D02*
X302000Y57000D01*
X292086Y52500D02*
X297500D01*
X291500Y35086D02*
Y51914D01*
X290914Y34500D02*
X291500Y35086D01*
X257937Y34500D02*
X290914D01*
X291500Y51914D02*
X292086Y52500D01*
X368514Y130500D02*
Y256914D01*
X310000Y56500D02*
X310014D01*
X308500Y55000D02*
X310000Y56500D01*
X308500Y34000D02*
Y55000D01*
X299000Y34500D02*
Y51000D01*
X298500Y34000D02*
X299000Y34500D01*
X298000Y43000D02*
Y49496D01*
X372250Y275250D02*
X372500Y275000D01*
Y186563D02*
Y275000D01*
X372437Y186500D02*
X372500Y186563D01*
X315514Y275400D02*
Y290400D01*
X352500Y186500D02*
X364563D01*
X340500D02*
X352500D01*
X367928Y257500D02*
X368514Y256914D01*
X340500Y196500D02*
X362500D01*
X362514Y206500D02*
Y252314D01*
X340500Y206500D02*
X362514D01*
X296514Y164000D02*
X310500D01*
X303514Y231300D02*
Y232382D01*
X302000Y233896D02*
X303514Y232382D01*
X302000Y233896D02*
Y255563D01*
X324430Y258963D02*
X330493Y252900D01*
X298563Y258963D02*
X324430D01*
X295375Y255775D02*
X298563Y258963D01*
X355200Y258086D02*
Y299751D01*
Y258086D02*
X355786Y257500D01*
X367928D01*
X330493Y252900D02*
X361928D01*
X362514Y252314D01*
X330979Y300337D02*
X354614D01*
X355200Y299751D01*
X280200Y353900D02*
X314100D01*
X279600Y353300D02*
X280200Y353900D01*
X314100D02*
X323000Y345000D01*
X227472Y323300D02*
X252477D01*
X214514Y310343D02*
X227472Y323300D01*
X252477D02*
X254014Y324837D01*
X214514Y309900D02*
Y310343D01*
X263700Y320800D02*
X264000Y320500D01*
X210100Y345569D02*
X212894Y348363D01*
Y353583D01*
X210100Y345500D02*
Y345569D01*
X212577Y353900D02*
X212894Y353583D01*
X323000Y345000D02*
X330929D01*
X329729Y338800D02*
X330929Y340000D01*
X320100Y338800D02*
X329729D01*
X315014Y290900D02*
X315514Y290400D01*
X310014Y153414D02*
X310100Y153500D01*
X310014Y56500D02*
Y153414D01*
X292326Y255775D02*
X295375D01*
X210937Y35000D02*
X222000D01*
X332000Y269000D02*
Y272500D01*
X319965Y284535D02*
Y291063D01*
Y284535D02*
X332000Y272500D01*
X238986Y26100D02*
Y26600D01*
X200214Y19891D02*
X200423Y20100D01*
X192486Y26600D02*
Y27100D01*
X202963Y34986D02*
X203160Y34789D01*
X196250Y35000D02*
X203063D01*
X242750Y34500D02*
X249949D01*
X250160Y34289D01*
X242740Y34510D02*
X242750Y34500D01*
X242740Y42303D02*
X242937Y42500D01*
X242740Y34510D02*
Y42303D01*
X302014Y263337D02*
Y276400D01*
X279514Y299900D02*
X282514Y302900D01*
X264112Y299900D02*
X279514D01*
X264000Y294788D02*
X264050Y294837D01*
X215014Y322400D02*
X227451Y334837D01*
X264050Y299837D02*
X264112Y299900D01*
X264000Y272000D02*
Y294788D01*
X282514Y302900D02*
X297514D01*
X227451Y334837D02*
X264050D01*
X330979Y314837D02*
X360928D01*
X240414Y314600D02*
X263812D01*
X360928Y314837D02*
X361514Y314251D01*
X263812Y314600D02*
X264050Y314837D01*
X361514Y264400D02*
Y314251D01*
X292000Y263851D02*
Y272000D01*
Y263851D02*
X292514Y263337D01*
X274428Y267400D02*
X275014Y267986D01*
X259428Y267400D02*
X260014Y266814D01*
X240451Y267400D02*
X259428D01*
X260014Y251337D02*
Y266814D01*
X259428Y267400D02*
X274428D01*
X275014Y267986D02*
Y291400D01*
X249437Y361500D02*
X249500Y361563D01*
X188014Y330660D02*
X196817D01*
X121514Y374400D02*
X121774Y374140D01*
Y365597D02*
Y374140D01*
X121577Y365400D02*
X121774Y365597D01*
X221428Y282900D02*
X222014Y283486D01*
X205077Y282900D02*
X221428D01*
X222014Y283486D02*
Y289150D01*
X319947Y263270D02*
X320014Y263337D01*
X312864Y263270D02*
X319947D01*
X312735Y263400D02*
X312864Y263270D01*
X205014Y282837D02*
X205077Y282900D01*
X188600Y282837D02*
X205014D01*
X174914Y251900D02*
X196514D01*
X158514Y271400D02*
X159664Y270250D01*
X162264Y267650D01*
X165514D01*
X159414Y247900D02*
Y270000D01*
X180416Y267498D02*
X180514Y267400D01*
X180416Y267498D02*
Y275302D01*
X180514Y275400D01*
X188014Y283423D02*
X188600Y282837D01*
X166264Y267400D02*
X172640D01*
X166014Y267650D02*
X166264Y267400D01*
X165514Y267150D02*
X166014Y267650D01*
X158014Y271400D02*
X158514D01*
X148014Y200400D02*
X149014Y199400D01*
X150050D01*
X152800Y196650D02*
X156014D01*
X150050Y199400D02*
X152800Y196650D01*
X169500Y338140D02*
X179317D01*
X168914Y337554D02*
X169500Y338140D01*
X179514Y330463D02*
X179711Y330660D01*
X188014D01*
X179711Y338140D02*
X187817D01*
X188014Y338337D01*
X179514D02*
X179711Y338140D01*
X240014Y267837D02*
X240451Y267400D01*
X74014Y85900D02*
X89865D01*
X90451Y86486D01*
X173014Y150400D02*
X205514D01*
X238986Y20163D02*
X239049Y20100D01*
X174914Y243900D02*
X187414D01*
X196514Y251900D02*
X205014Y260400D01*
Y282837D01*
X179317Y338140D02*
X179514Y338337D01*
X117294Y322400D02*
X117514Y322180D01*
X121415Y348463D02*
X122014D01*
X249514Y349939D02*
X263652D01*
X249514D02*
Y353900D01*
X228014Y345400D02*
X244975D01*
X249514Y349939D01*
X242289Y42403D02*
X242486Y42600D01*
X156514Y196400D02*
X162077D01*
X174664Y244150D02*
X174914Y243900D01*
X174664Y251650D02*
X174914Y251900D01*
X257600Y20298D02*
X257862Y20036D01*
X242486Y42600D02*
X242746Y42340D01*
X192514Y297526D02*
X192929Y297941D01*
X204992D02*
X205014Y297963D01*
X192929Y297941D02*
X204992D01*
X206294Y290837D02*
X208357Y292900D01*
X205014Y290837D02*
X206294D01*
X232786Y250912D02*
X232798Y250900D01*
X232577Y267400D02*
X232786Y267191D01*
Y250912D02*
Y267191D01*
X260014Y251337D02*
X260451Y250900D01*
X212850Y365850D02*
X216600Y369600D01*
Y370100D01*
X212850Y362100D02*
Y365850D01*
X263652Y349939D02*
X264050Y350337D01*
X169992Y196441D02*
Y204162D01*
X170231Y204400D01*
X169951Y196400D02*
X169992Y196441D01*
X167414Y244150D02*
X174664D01*
D19*
X73000Y321634D02*
D03*
Y363366D02*
D03*
D20*
X319965Y291063D02*
D03*
X279965D02*
D03*
X274965D02*
D03*
X314965D02*
D03*
X309965D02*
D03*
X304965D02*
D03*
X299965D02*
D03*
X294965Y291100D02*
D03*
X289965Y291063D02*
D03*
X284965D02*
D03*
D21*
X330929Y295000D02*
D03*
Y300000D02*
D03*
Y305079D02*
D03*
Y310000D02*
D03*
Y315000D02*
D03*
Y320000D02*
D03*
Y325000D02*
D03*
Y330000D02*
D03*
Y335000D02*
D03*
Y340000D02*
D03*
Y345000D02*
D03*
Y350000D02*
D03*
Y355000D02*
D03*
Y360000D02*
D03*
X264000D02*
D03*
Y355000D02*
D03*
Y350000D02*
D03*
Y345000D02*
D03*
Y340000D02*
D03*
Y335000D02*
D03*
Y330000D02*
D03*
Y325000D02*
D03*
Y320000D02*
D03*
Y315000D02*
D03*
Y310000D02*
D03*
Y305000D02*
D03*
Y300000D02*
D03*
Y295000D02*
D03*
D22*
X156000Y204250D02*
D03*
Y196750D02*
D03*
X148000Y200500D02*
D03*
X166000Y275250D02*
D03*
Y267750D02*
D03*
X158000Y271500D02*
D03*
X222000Y296750D02*
D03*
Y289250D02*
D03*
X214000Y293000D02*
D03*
X159000Y248000D02*
D03*
X167000Y244250D02*
D03*
Y251750D02*
D03*
X156500Y154500D02*
D03*
X164500Y150750D02*
D03*
Y158250D02*
D03*
D23*
X86760Y91000D02*
D03*
X94240D02*
D03*
X252760Y251000D02*
D03*
X260240D02*
D03*
X180240Y267500D02*
D03*
X172760D02*
D03*
X184260Y298000D02*
D03*
X191740D02*
D03*
X169740Y196500D02*
D03*
X162260D02*
D03*
X121760Y365500D02*
D03*
X129240D02*
D03*
X232760Y267500D02*
D03*
X240240D02*
D03*
X114260Y374000D02*
D03*
X121740D02*
D03*
X220240Y354000D02*
D03*
X212760D02*
D03*
X239260Y20000D02*
D03*
X246740D02*
D03*
X257740Y34500D02*
D03*
X250260D02*
D03*
X235260Y42500D02*
D03*
X242740D02*
D03*
X192760Y20000D02*
D03*
X200240D02*
D03*
X364760Y186500D02*
D03*
X372240D02*
D03*
X210740Y35000D02*
D03*
X203260D02*
D03*
X94240Y81000D02*
D03*
X86760D02*
D03*
D24*
X74000Y91000D02*
D03*
Y86000D02*
D03*
Y81000D02*
D03*
Y76000D02*
D03*
X51000D02*
D03*
Y81000D02*
D03*
Y86000D02*
D03*
Y91000D02*
D03*
D27*
X205000Y298260D02*
D03*
Y305740D02*
D03*
X196500Y330760D02*
D03*
Y338240D02*
D03*
X320000Y255760D02*
D03*
Y263240D02*
D03*
X302000Y255760D02*
D03*
Y263240D02*
D03*
X179000Y330760D02*
D03*
Y338240D02*
D03*
X292000Y263240D02*
D03*
Y255760D02*
D03*
X282000Y263240D02*
D03*
Y255760D02*
D03*
X205000Y283260D02*
D03*
Y290740D02*
D03*
X122000Y356240D02*
D03*
Y348760D02*
D03*
X229500Y361240D02*
D03*
Y353760D02*
D03*
X240000Y361240D02*
D03*
Y353760D02*
D03*
X249500Y361240D02*
D03*
Y353760D02*
D03*
X188000Y338240D02*
D03*
Y330760D02*
D03*
D28*
X174500Y244000D02*
D03*
Y252000D02*
D03*
X173000Y158500D02*
D03*
Y150500D02*
D03*
D29*
X125779Y329500D02*
D03*
X148221D02*
D03*
D30*
X145250Y374560D02*
D03*
Y365500D02*
D03*
Y356440D02*
D03*
D31*
X169750Y365560D02*
D03*
D32*
X216500Y370000D02*
D03*
X212750Y362000D02*
D03*
X220250D02*
D03*
X239000Y26500D02*
D03*
X242750Y34500D02*
D03*
X235250D02*
D03*
X192500Y27000D02*
D03*
X196250Y35000D02*
D03*
X188750D02*
D03*
D33*
X188500Y43000D02*
D03*
X196500D02*
D03*
D42*
X298500Y40800D02*
D03*
X308500D02*
D03*
X318500D02*
D03*
X298500Y17200D02*
D03*
X308500D02*
D03*
X318500D02*
D03*
D44*
X355000Y107000D02*
D03*
X345000D02*
D03*
Y69000D02*
D03*
X355000D02*
D03*
D45*
X323700Y196500D02*
D03*
Y206500D02*
D03*
Y216500D02*
D03*
Y186500D02*
D03*
Y176500D02*
D03*
X347300D02*
D03*
Y186500D02*
D03*
Y196500D02*
D03*
Y206500D02*
D03*
Y216500D02*
D03*
D47*
X360000Y369000D02*
D03*
Y20000D02*
D03*
X20000Y19600D02*
D03*
Y369000D02*
D03*
D52*
X36000Y120800D02*
D03*
Y114100D02*
D03*
Y99600D02*
D03*
Y92900D02*
D03*
Y106800D02*
D03*
Y128000D02*
D03*
X36500Y69800D02*
D03*
Y62500D02*
D03*
Y55300D02*
D03*
Y76500D02*
D03*
Y48600D02*
D03*
X229000Y157500D02*
D03*
X230207Y293193D02*
D03*
X34500Y176500D02*
D03*
X46500Y228500D02*
D03*
X36000Y261500D02*
D03*
X331000Y56500D02*
D03*
Y89000D02*
D03*
Y121500D02*
D03*
X301822Y147322D02*
D03*
X293000Y151500D02*
D03*
X318500Y142500D02*
D03*
X372250Y275250D02*
D03*
X362500Y196500D02*
D03*
X296514Y164000D02*
D03*
X310500D02*
D03*
X303514Y231300D02*
D03*
X309000Y254963D02*
D03*
X279600Y353300D02*
D03*
X49300Y281500D02*
D03*
X62200Y281400D02*
D03*
X214100Y43600D02*
D03*
X371500Y57000D02*
D03*
Y116000D02*
D03*
Y83500D02*
D03*
X238900Y144500D02*
D03*
X265700Y145500D02*
D03*
X265500Y165900D02*
D03*
X265100Y184600D02*
D03*
Y203500D02*
D03*
X238600Y184400D02*
D03*
X238700Y203300D02*
D03*
X203500Y165900D02*
D03*
Y184800D02*
D03*
X203300Y203900D02*
D03*
X210100Y345500D02*
D03*
X320100Y338800D02*
D03*
X316200Y275400D02*
D03*
X307300Y309600D02*
D03*
X348900Y307100D02*
D03*
X370800Y298100D02*
D03*
X368100Y326000D02*
D03*
X368800Y342700D02*
D03*
X351300Y327300D02*
D03*
X350700Y342200D02*
D03*
X349500Y285600D02*
D03*
X354200Y243800D02*
D03*
X343100Y243500D02*
D03*
X330700D02*
D03*
X273800Y244500D02*
D03*
X270200Y258000D02*
D03*
X232500Y280800D02*
D03*
X247300Y382000D02*
D03*
X235300Y374700D02*
D03*
X222700Y380900D02*
D03*
X196000Y376700D02*
D03*
X201600Y362400D02*
D03*
X190500Y363100D02*
D03*
X195900Y305700D02*
D03*
X237400Y300400D02*
D03*
X197400Y290100D02*
D03*
X198300Y266400D02*
D03*
X203200Y244100D02*
D03*
X222300Y246500D02*
D03*
X222200Y269100D02*
D03*
X36000Y281600D02*
D03*
X112600Y270300D02*
D03*
X98800Y261400D02*
D03*
X77200Y261700D02*
D03*
X57300D02*
D03*
X62800Y233900D02*
D03*
X33500Y234600D02*
D03*
X92200Y204100D02*
D03*
X52200Y204500D02*
D03*
X35100Y204300D02*
D03*
X90300Y151800D02*
D03*
X57200Y152200D02*
D03*
X37100D02*
D03*
X61300Y177500D02*
D03*
X100900D02*
D03*
X81100D02*
D03*
X310100Y153500D02*
D03*
X222000Y35000D02*
D03*
X332000Y269000D02*
D03*
X302014Y276400D02*
D03*
X297514Y302900D02*
D03*
X215014Y322400D02*
D03*
X214514Y309900D02*
D03*
X361514Y264400D02*
D03*
X264000Y272000D02*
D03*
X240414Y314600D02*
D03*
X292000Y272000D02*
D03*
X249500Y369600D02*
D03*
X312735Y263400D02*
D03*
X214514Y159400D02*
D03*
X57000Y324000D02*
D03*
X178014Y141400D02*
D03*
X186264Y158150D02*
D03*
X237100Y329300D02*
D03*
X286014Y244400D02*
D03*
X332514Y147900D02*
D03*
X196514Y323400D02*
D03*
X228014Y345400D02*
D03*
X172514Y349400D02*
D03*
X160014Y348900D02*
D03*
X187414Y243900D02*
D03*
D53*
X180217Y275500D02*
D03*
X174784D02*
D03*
X170217Y204500D02*
D03*
X164784D02*
D03*
X238216Y251000D02*
D03*
X232784D02*
D03*
D54*
X257500Y20283D02*
D03*
Y25717D02*
D03*
X211500Y25216D02*
D03*
Y19783D02*
D03*
D55*
X220302Y354688D02*
Y362052D01*
X240014Y353463D02*
X240589Y354038D01*
X222014Y296650D02*
Y301728D01*
X220014Y354400D02*
X220302Y354688D01*
X205014Y305837D02*
Y337600D01*
X29514Y114314D02*
Y121514D01*
Y114314D02*
X36000Y120800D01*
X35214Y114100D02*
X36000D01*
X29514Y108400D02*
X35214Y114100D01*
X36000Y92900D02*
X36500Y93400D01*
X36000Y93900D02*
X36500Y93400D01*
X35007Y105807D02*
X36000Y104814D01*
Y93900D02*
Y104814D01*
X29514Y121514D02*
X36000Y128000D01*
X34400Y108400D02*
X36000Y106800D01*
X29514Y108400D02*
X34400D01*
X29514D02*
Y114314D01*
X36500Y93400D02*
X51014D01*
X29264Y63150D02*
Y69264D01*
X20514Y73400D02*
X33400D01*
X36500Y48600D02*
Y55914D01*
X51014Y73400D02*
Y75900D01*
X29264Y63150D02*
X36500Y55914D01*
Y55300D02*
Y55914D01*
X29264Y69264D02*
X33400Y73400D01*
X29264Y63150D02*
X35850D01*
X36500Y62500D01*
X29264Y63150D02*
X35914Y69800D01*
X36500D01*
X51014Y85900D02*
Y90900D01*
X20514Y93400D02*
X36500D01*
X33400Y73400D02*
X36500Y76500D01*
X51014Y75900D02*
Y80900D01*
X33400Y73400D02*
X51014D01*
Y90900D02*
Y93400D01*
X86577Y90900D02*
X87014Y91337D01*
X74014Y90900D02*
X86577D01*
X115014Y160228D02*
X116186Y161400D01*
X150842D01*
X115014Y117172D02*
Y160228D01*
X82014Y73900D02*
X83514Y72400D01*
X88186Y116000D02*
X113842D01*
X115014Y117172D01*
X87014Y114828D02*
X88186Y116000D01*
X87014Y91337D02*
Y114828D01*
X61300Y177500D02*
X70114D01*
X34500Y176500D02*
X35500Y177500D01*
X61300D02*
X62300D01*
X35500D02*
X61300D01*
X70114D02*
X70764Y178150D01*
X62300Y177500D02*
X69114D01*
X46500Y228500D02*
Y235664D01*
X46014Y236150D02*
X46500Y235664D01*
X57350Y261650D02*
X72014D01*
X36000Y261500D02*
X57300D01*
Y261700D02*
X57350Y261650D01*
X345000Y62000D02*
Y73000D01*
X267598Y6172D02*
X268769Y5000D01*
X328828D01*
X267598Y6172D02*
Y11500D01*
X226000Y11500D02*
X267598D01*
X226000D02*
Y25216D01*
X267598Y11500D02*
X267598Y11500D01*
X257657Y25559D02*
X266426D01*
X267598Y24388D01*
Y11500D02*
Y24388D01*
X330000Y6172D02*
Y22828D01*
X318500Y24000D02*
X328828D01*
X330000Y22828D01*
X328828Y5000D02*
X330000Y6172D01*
X173014Y150400D02*
Y150650D01*
X164514D02*
X173014D01*
X205014Y337600D02*
Y338337D01*
X309419Y255382D02*
X319539D01*
X319817Y255660D01*
X309000Y254963D02*
X309419Y255382D01*
X330929Y360000D02*
X331329Y359600D01*
X350600D02*
X360000Y369000D01*
X235063Y42500D02*
X235260Y42697D01*
X47900Y282900D02*
X49300Y281500D01*
X46014Y282900D02*
X47900D01*
X62200Y281400D02*
X66764D01*
X71014Y285650D01*
X274272Y309900D02*
X306514D01*
X273100Y311072D02*
Y353665D01*
X271928Y354837D02*
X273100Y353665D01*
X264050Y354837D02*
X271928D01*
X273100Y311072D02*
X274272Y309900D01*
X87600Y154500D02*
X90300Y151800D01*
X76570Y154500D02*
X87600D01*
X72370D02*
X74470Y152400D01*
X57000D02*
X63603D01*
X57000D02*
X57200Y152200D01*
X55014Y152400D02*
X57000D01*
X63603D02*
X65703Y154500D01*
X72370D01*
X74470Y152400D02*
X76570Y154500D01*
X54814Y152200D02*
X55014Y152400D01*
X37100Y152200D02*
X54814D01*
X70764Y178150D02*
X80450D01*
X81100Y177500D01*
X100250Y178150D02*
X100900Y177500D01*
X80450Y178150D02*
X100250D01*
X144672Y195236D02*
X150678D01*
X143500Y196407D02*
X144672Y195236D01*
X143500Y196407D02*
Y213000D01*
X257500Y25717D02*
X257657Y25559D01*
X211500Y25216D02*
X226000D01*
X257358Y20142D02*
X257500Y20283D01*
X246937Y20000D02*
X247079Y20142D01*
X257358D01*
X239130Y20067D02*
Y26370D01*
X239063Y20000D02*
X239130Y20067D01*
X239000Y26500D02*
X239130Y26370D01*
X211392Y19892D02*
X211500Y19783D01*
X200437Y20000D02*
X200545Y19892D01*
X211392D01*
X192500Y27000D02*
X192630Y26870D01*
Y20067D02*
Y26870D01*
X192563Y20000D02*
X192630Y20067D01*
X196375Y35125D02*
Y42875D01*
X196500Y43000D01*
X196250Y35000D02*
X196375Y35125D01*
X188625D02*
Y42875D01*
Y35125D02*
X188750Y35000D01*
X235255Y34505D02*
Y42308D01*
X235250Y34500D02*
X235255Y34505D01*
X235063Y42500D02*
X235255Y42308D01*
X263986Y359900D02*
X264050Y359837D01*
X263986Y354900D02*
X264050Y354837D01*
X229500Y361437D02*
X229937Y361000D01*
X249437Y361500D02*
X249500Y361437D01*
X212812Y354135D02*
Y362062D01*
X212577Y353900D02*
X212812Y354135D01*
Y362062D02*
X212850Y362100D01*
X220302Y362052D02*
X220350Y362100D01*
X124544Y242400D02*
X124644Y242300D01*
X158242D01*
X159414Y243472D01*
Y247900D01*
X152014Y162572D02*
Y193900D01*
X150842Y161400D02*
X152014Y162572D01*
X150678Y195236D02*
X152014Y193900D01*
X241475Y354538D02*
X244412Y357475D01*
X256514Y355400D02*
X263986D01*
X240589Y354538D02*
X241475D01*
X282014Y248400D02*
Y255463D01*
Y248400D02*
X286014Y244400D01*
X340843Y263337D02*
X342014Y264509D01*
X320014Y263337D02*
X340843D01*
Y295337D02*
X342014Y294165D01*
Y264509D02*
Y294165D01*
X330979Y295337D02*
X340843D01*
X122514Y154400D02*
X156514D01*
X156014Y196650D02*
X156514D01*
Y154400D02*
Y196400D01*
Y196650D01*
X206475Y304376D02*
X207951Y302900D01*
X205014Y305837D02*
X205900D01*
X220843Y302900D02*
X222014Y301728D01*
X207951Y302900D02*
X220843D01*
X206475Y304376D02*
Y305262D01*
X205900Y305837D02*
X206475Y305262D01*
X280014Y276900D02*
X282014Y274900D01*
Y263337D02*
Y274900D01*
X280014Y276900D02*
Y291400D01*
X196514Y323400D02*
Y330463D01*
X74014Y80900D02*
X86577D01*
X254439Y357475D02*
X256514Y355400D01*
X244412Y357475D02*
X254439D01*
D56*
X220514Y353963D02*
X240014D01*
X220451Y353900D02*
X220514Y353963D01*
X220014Y340529D02*
Y354400D01*
X129451Y365400D02*
X158514D01*
X170014D01*
X196577Y338400D02*
Y349400D01*
X157514Y332429D02*
Y364400D01*
X148221Y329500D02*
X154500D01*
X144000D02*
X148221D01*
X154585D02*
X157514Y332429D01*
X164784Y213000D02*
Y220264D01*
X165994Y221475D02*
X248841D01*
X164784Y220264D02*
X165994Y221475D01*
X164784Y204500D02*
Y213000D01*
X156000D02*
X164548D01*
X143500D02*
X156000D01*
Y204250D02*
Y213000D01*
X126929D02*
X143500D01*
X124000Y201240D02*
Y210071D01*
X126929Y213000D01*
X248841Y221475D02*
Y246888D01*
X166014Y275150D02*
Y286711D01*
X99014Y289640D02*
X163085D01*
X257900Y48000D02*
Y95471D01*
X254971Y98400D02*
X257900Y95471D01*
X98443Y98400D02*
X254971D01*
X95514Y73900D02*
Y81000D01*
Y90900D01*
X74000Y74400D02*
Y75985D01*
Y74400D02*
X74500Y73900D01*
X82014D01*
X95514D01*
X105134Y356280D02*
X145514D01*
X340500Y186500D02*
X352500D01*
X340500Y216500D02*
X352500D01*
X205014Y337600D02*
X217085D01*
X197251D02*
X205014D01*
X330500Y216500D02*
Y221500D01*
X309000Y243000D02*
Y254963D01*
Y243000D02*
X330500Y221500D01*
X293600Y330400D02*
Y337600D01*
Y323300D02*
Y330400D01*
X301100D01*
X286500D02*
X293600D01*
X354500Y25500D02*
X360000Y20000D01*
X217085Y337600D02*
X220014Y340529D01*
X196514Y338337D02*
X197251Y337600D01*
X121514Y374400D02*
X145514D01*
X20014Y10400D02*
Y35400D01*
X163085Y289640D02*
X166014Y286711D01*
X83514Y38400D02*
Y72400D01*
X95514Y91963D02*
Y95471D01*
X98443Y98400D01*
X20014Y35400D02*
X23014Y38400D01*
X83514D01*
Y20400D02*
Y38400D01*
X248841Y246888D02*
X252577Y250625D01*
X248841Y221475D02*
X248841Y221475D01*
X252577Y250625D02*
Y250900D01*
X157514Y364400D02*
X158514Y365400D01*
X73014Y321534D02*
X99014D01*
Y289640D02*
Y321534D01*
X172514Y349400D02*
X196577D01*
X122514Y154400D02*
X123014Y154900D01*
X73014Y363266D02*
X98148D01*
X105134Y356280D01*
D57*
X20014Y370400D02*
X23714Y374100D01*
X275264Y117940D02*
X280837Y112367D01*
Y73190D02*
Y112367D01*
X210514Y117940D02*
X275264D01*
D58*
X108257Y6250D02*
D03*
D59*
X281007Y90900D02*
D03*
D60*
X175007Y68450D02*
D03*
D61*
X167514Y363250D02*
D03*
D62*
X29514Y108400D02*
D03*
D63*
X55014Y152400D02*
D03*
D64*
Y203150D02*
D03*
D65*
X70764Y178150D02*
D03*
D66*
X29264Y63150D02*
D03*
D67*
X106757Y40650D02*
D03*
D68*
X143007Y23950D02*
D03*
D69*
X66264Y17200D02*
D03*
D70*
X210264Y120950D02*
D03*
D71*
X117514Y266650D02*
D03*
D72*
X72014Y261650D02*
D03*
D73*
X46014Y236150D02*
D03*
D74*
X71014Y285650D02*
D03*
D75*
X46014Y282900D02*
D03*
D76*
X127000Y192000D02*
D03*
X130000Y165500D02*
D03*
X186000Y136000D02*
D03*
X119000Y282500D02*
D03*
X112500Y251000D02*
D03*
Y227000D02*
D03*
D77*
X122000Y120000D02*
D03*
X110500Y146500D02*
D03*
X62500Y89000D02*
D03*
X91500Y289500D02*
D03*
X146500Y266000D02*
D03*
D78*
X145500Y179500D02*
D03*
D79*
X20500Y93500D02*
D03*
Y73500D02*
D03*
Y113500D02*
D03*
D80*
X20800Y53700D02*
D03*
D81*
X124500Y242500D02*
D03*
X76470D02*
D03*
X124500Y289740D02*
D03*
X76470D02*
D03*
X132490Y266120D02*
D03*
X124000Y154000D02*
D03*
X75970D02*
D03*
X124000Y201240D02*
D03*
X75970D02*
D03*
X131990Y177620D02*
D03*
X146500Y30710D02*
D03*
Y119290D02*
D03*
X19600Y262500D02*
D03*
Y282500D02*
D03*
Y302500D02*
D03*
Y322500D02*
D03*
X20000Y198500D02*
D03*
Y178500D02*
D03*
D82*
X301100Y323300D02*
D03*
X293600D02*
D03*
X286500Y323200D02*
D03*
X301100Y330400D02*
D03*
X293600D02*
D03*
X286500D02*
D03*
X301100Y337700D02*
D03*
X293600Y337600D02*
D03*
X286500D02*
D03*
D83*
X237677Y70000D02*
D03*
D84*
X248504Y221575D02*
D03*
X280000Y70000D02*
D03*
Y221575D02*
D03*
D85*
X98500Y20500D02*
D03*
D86*
X83500D02*
D03*
X68500D02*
D03*
D87*
X19600Y242500D02*
D03*
X20000Y158500D02*
D03*
M02*
