G04*
G04 #@! TF.GenerationSoftware,Altium Limited,Altium Designer,21.0.8 (223)*
G04*
G04 Layer_Color=16711935*
%FSLAX24Y24*%
%MOIN*%
G70*
G04*
G04 #@! TF.SameCoordinates,C0C2F11B-7DCF-4775-9714-D77671BE90CB*
G04*
G04*
G04 #@! TF.FilePolarity,Positive*
G04*
G01*
G75*
%ADD14C,0.0050*%
%ADD16C,0.0005*%
%ADD111C,0.0005*%
%ADD112C,0.0010*%
G36*
X11303Y2464D02*
X11309Y2463D01*
X11310D01*
X11313Y2463D01*
X11317Y2462D01*
X11321Y2460D01*
X11321Y2460D01*
X11323Y2459D01*
X11325Y2458D01*
X11327Y2456D01*
X11327Y2456D01*
X11328Y2454D01*
X11328Y2453D01*
Y2451D01*
Y1915D01*
X11440D01*
X11442Y1914D01*
X11445Y1913D01*
X11446Y1912D01*
X11447Y1911D01*
X11449Y1909D01*
X11451Y1906D01*
X11451Y1906D01*
X11452Y1904D01*
X11453Y1900D01*
X11454Y1896D01*
X11454Y1895D01*
X11455Y1893D01*
X11455Y1888D01*
Y1882D01*
Y1881D01*
Y1880D01*
Y1878D01*
Y1877D01*
X11455Y1871D01*
X11454Y1866D01*
Y1865D01*
X11453Y1863D01*
X11452Y1860D01*
X11450Y1857D01*
X11449Y1856D01*
X11448Y1855D01*
X11447Y1853D01*
X11445Y1852D01*
X11444D01*
X11442Y1851D01*
X11440Y1851D01*
X11438Y1850D01*
X11117D01*
X11115Y1851D01*
X11113Y1852D01*
X11113Y1852D01*
X11111Y1853D01*
X11110Y1854D01*
X11108Y1857D01*
X11107Y1857D01*
X11107Y1859D01*
X11105Y1863D01*
X11104Y1866D01*
Y1867D01*
Y1867D01*
X11103Y1871D01*
X11103Y1876D01*
Y1882D01*
Y1882D01*
Y1883D01*
Y1885D01*
Y1887D01*
X11103Y1892D01*
X11104Y1896D01*
Y1897D01*
X11104Y1898D01*
X11105Y1900D01*
X11106Y1903D01*
X11107Y1906D01*
X11108Y1907D01*
X11109Y1909D01*
X11110Y1911D01*
X11113Y1913D01*
X11113Y1913D01*
X11115Y1914D01*
X11117Y1914D01*
X11120Y1915D01*
X11247D01*
Y2379D01*
X11128Y2309D01*
X11128D01*
X11127Y2308D01*
X11123Y2306D01*
X11119Y2304D01*
X11114Y2303D01*
X11111D01*
X11108Y2303D01*
X11105Y2305D01*
X11105Y2305D01*
X11104Y2308D01*
X11102Y2311D01*
X11101Y2315D01*
Y2316D01*
Y2316D01*
X11101Y2318D01*
Y2320D01*
X11100Y2326D01*
Y2333D01*
Y2333D01*
Y2334D01*
Y2338D01*
Y2342D01*
X11101Y2346D01*
Y2347D01*
Y2347D01*
X11101Y2350D01*
X11102Y2353D01*
X11102Y2356D01*
X11103Y2357D01*
X11103Y2358D01*
X11107Y2363D01*
X11107Y2363D01*
X11109Y2364D01*
X11111Y2366D01*
X11114Y2368D01*
X11254Y2458D01*
X11255Y2459D01*
X11256Y2459D01*
X11259Y2460D01*
X11259D01*
X11261Y2461D01*
X11263Y2462D01*
X11266Y2463D01*
X11267D01*
X11269Y2463D01*
X11272Y2464D01*
X11277D01*
X11280Y2464D01*
X11297D01*
X11303Y2464D01*
D02*
G37*
D14*
X14049Y14912D02*
Y21212D01*
X5349Y14912D02*
X14049D01*
X5349D02*
Y21212D01*
X14049D01*
X14099Y23762D02*
Y30062D01*
X5399Y23762D02*
X14099D01*
X5399D02*
Y30062D01*
X14099D01*
D16*
X20200Y3600D02*
Y3900D01*
X20450D01*
Y3600D02*
Y3900D01*
X21200Y3600D02*
Y3900D01*
X20950D02*
X21200D01*
X20950Y3600D02*
Y3900D01*
X20600Y2900D02*
X20800D01*
X20600D02*
Y3200D01*
X20800Y2900D02*
Y3200D01*
X20109Y3203D02*
Y3597D01*
Y3203D02*
X21281D01*
X20109Y3597D02*
X21281D01*
Y3203D02*
Y3597D01*
X17575Y31106D02*
X18325D01*
X17575D02*
Y31506D01*
X18325D01*
X17575Y32006D02*
X18325D01*
X17575D02*
Y32406D01*
X18325D01*
X17575Y33306D02*
X18325D01*
X17575Y32906D02*
Y33306D01*
Y32906D02*
X18325D01*
X19775D02*
X20625D01*
Y31506D02*
Y32906D01*
X19775Y31506D02*
X20625D01*
X19775Y30880D02*
Y30956D01*
X18325Y30880D02*
X19775D01*
X18325D02*
Y33520D01*
X19775D01*
Y30906D02*
Y33520D01*
X19250Y5800D02*
Y24050D01*
Y5800D02*
X29500D01*
Y24050D01*
X19250D02*
X29500D01*
X22458Y1685D02*
Y2314D01*
X22457Y2315D02*
X22458Y2314D01*
X22142Y2315D02*
X22457D01*
X22142Y1685D02*
X22458D01*
X22142D02*
Y2315D01*
X22139Y1765D02*
X22459D01*
X22142Y2239D02*
X22459D01*
X22150Y28200D02*
X22450D01*
Y27950D02*
Y28200D01*
X22150Y27950D02*
X22450D01*
X22150Y27200D02*
X22450D01*
Y27450D01*
X22150D02*
X22450D01*
X21450Y27600D02*
Y27800D01*
X21750D01*
X21450Y27600D02*
X21750D01*
X21753Y28291D02*
X22147D01*
X21753Y27119D02*
Y28291D01*
X22147Y27119D02*
Y28291D01*
X21753Y27119D02*
X22147D01*
X17935Y25992D02*
X18564D01*
X18565Y25993D01*
Y26308D01*
X17935Y25992D02*
Y26308D01*
X18565D01*
X18015Y25991D02*
Y26311D01*
X18489Y25991D02*
Y26308D01*
X16350Y27950D02*
X16650D01*
Y27700D02*
Y27950D01*
X16350Y27700D02*
X16650D01*
X16350Y26950D02*
X16650D01*
Y27200D01*
X16350D02*
X16650D01*
X15650Y27350D02*
Y27550D01*
X15950D01*
X15650Y27350D02*
X15950D01*
X15953Y28041D02*
X16347D01*
X15953Y26869D02*
Y28041D01*
X16347Y26869D02*
Y28041D01*
X15953Y26869D02*
X16347D01*
X17136Y20308D02*
X17765D01*
X17135Y20307D02*
X17136Y20308D01*
X17135Y19992D02*
Y20307D01*
X17765Y19992D02*
Y20308D01*
X17135Y19992D02*
X17765D01*
X17685Y19989D02*
Y20309D01*
X17211Y19992D02*
Y20309D01*
X16150Y20250D02*
X16450D01*
Y20000D02*
Y20250D01*
X16150Y20000D02*
X16450D01*
X16150Y19250D02*
X16450D01*
Y19500D01*
X16150D02*
X16450D01*
X15450Y19650D02*
Y19850D01*
X15750D01*
X15450Y19650D02*
X15750D01*
X15753Y20341D02*
X16147D01*
X15753Y19169D02*
Y20341D01*
X16147Y19169D02*
Y20341D01*
X15753Y19169D02*
X16147D01*
X22942Y24436D02*
Y25065D01*
Y24436D02*
X22943Y24435D01*
X23258D01*
X22942Y25065D02*
X23258D01*
Y24435D02*
Y25065D01*
X22941Y24985D02*
X23261D01*
X22941Y24511D02*
X23258D01*
X23550Y32550D02*
X23850D01*
X23550D02*
Y32800D01*
X23850D01*
X23550Y33550D02*
X23850D01*
X23550Y33300D02*
Y33550D01*
Y33300D02*
X23850D01*
X24550Y32950D02*
Y33150D01*
X24250Y32950D02*
X24550D01*
X24250Y33150D02*
X24550D01*
X23853Y32459D02*
X24247D01*
Y33631D01*
X23853Y32459D02*
Y33631D01*
X24247D01*
X26358Y2235D02*
Y2864D01*
X26357Y2865D02*
X26358Y2864D01*
X26042Y2865D02*
X26357D01*
X26042Y2235D02*
X26358D01*
X26042D02*
Y2865D01*
X26039Y2315D02*
X26359D01*
X26042Y2789D02*
X26359D01*
X16350Y25600D02*
X16650D01*
Y25350D02*
Y25600D01*
X16350Y25350D02*
X16650D01*
X16350Y24600D02*
X16650D01*
Y24850D01*
X16350D02*
X16650D01*
X15650Y25000D02*
Y25200D01*
X15950D01*
X15650Y25000D02*
X15950D01*
X15953Y25691D02*
X16347D01*
X15953Y24519D02*
Y25691D01*
X16347Y24519D02*
Y25691D01*
X15953Y24519D02*
X16347D01*
X16550Y17250D02*
X16850D01*
Y17000D02*
Y17250D01*
X16550Y17000D02*
X16850D01*
X16550Y16250D02*
X16850D01*
Y16500D01*
X16550D02*
X16850D01*
X15850Y16650D02*
Y16850D01*
X16150D01*
X15850Y16650D02*
X16150D01*
X16153Y17341D02*
X16547D01*
X16153Y16169D02*
Y17341D01*
X16547Y16169D02*
Y17341D01*
X16153Y16169D02*
X16547D01*
X23350Y3550D02*
Y3850D01*
X23600D01*
Y3550D02*
Y3850D01*
X24350Y3550D02*
Y3850D01*
X24100D02*
X24350D01*
X24100Y3550D02*
Y3850D01*
X23750Y2850D02*
X23950D01*
X23750D02*
Y3150D01*
X23950Y2850D02*
Y3150D01*
X23259Y3153D02*
Y3547D01*
Y3153D02*
X24431D01*
X23259Y3547D02*
X24431D01*
Y3153D02*
Y3547D01*
D111*
X31900Y1540D02*
Y4370D01*
X30560Y1540D02*
X31900D01*
X29334Y4370D02*
X31900D01*
X28890Y1540D02*
X30560D01*
X28890D02*
Y4370D01*
X29334D01*
X10850Y500D02*
Y3290D01*
X5750Y500D02*
Y3290D01*
X10850D01*
X5740Y350D02*
X10840D01*
D112*
X6550Y9350D02*
Y9650D01*
Y9350D02*
X6949D01*
Y9650D01*
X7500Y7650D02*
Y9650D01*
X6000Y7650D02*
X7500D01*
X6000D02*
Y9650D01*
X7500D01*
X29500Y3870D02*
Y7770D01*
M02*
