G04*
G04 #@! TF.GenerationSoftware,Altium Limited,Altium Designer,21.0.8 (223)*
G04*
G04 Layer_Color=65535*
%FSLAX24Y24*%
%MOIN*%
G70*
G04*
G04 #@! TF.SameCoordinates,C0C2F11B-7DCF-4775-9714-D77671BE90CB*
G04*
G04*
G04 #@! TF.FilePolarity,Positive*
G04*
G01*
G75*
%ADD10C,0.0098*%
%ADD11C,0.0079*%
%ADD12C,0.0100*%
%ADD13C,0.0079*%
%ADD14C,0.0050*%
%ADD15C,0.0039*%
%ADD16C,0.0005*%
%ADD17C,0.0119*%
%ADD18C,0.0030*%
G36*
X35507Y15015D02*
X35617D01*
Y15007D01*
X35685D01*
Y14998D01*
X35736D01*
Y14990D01*
X35786D01*
Y14981D01*
X35820D01*
Y14973D01*
X35846D01*
Y14964D01*
X35880D01*
Y14956D01*
X35905D01*
Y14948D01*
X35922D01*
Y14939D01*
X35914D01*
Y14931D01*
X35905D01*
Y14922D01*
X35897D01*
Y14914D01*
X35888D01*
Y14905D01*
X35871D01*
Y14914D01*
X35837D01*
Y14922D01*
X35803D01*
Y14931D01*
X35770D01*
Y14939D01*
X35736D01*
Y14948D01*
X35693D01*
Y14956D01*
X35642D01*
Y14964D01*
X35558D01*
Y14973D01*
X35303D01*
Y14964D01*
X35227D01*
Y14956D01*
X35176D01*
Y14948D01*
X35125D01*
Y14939D01*
X35092D01*
Y14931D01*
X35058D01*
Y14922D01*
X35024D01*
Y14914D01*
X34998D01*
Y14905D01*
X34964D01*
Y14897D01*
X34939D01*
Y14888D01*
X34914D01*
Y14880D01*
X34897D01*
Y14871D01*
X34871D01*
Y14863D01*
X34854D01*
Y14854D01*
X34829D01*
Y14846D01*
X34812D01*
Y14837D01*
X34795D01*
Y14829D01*
X34778D01*
Y14820D01*
X34761D01*
Y14812D01*
X34744D01*
Y14803D01*
X34727D01*
Y14795D01*
X34710D01*
Y14787D01*
X34693D01*
Y14778D01*
X34676D01*
Y14770D01*
X34659D01*
Y14761D01*
X34651D01*
Y14753D01*
X34634D01*
Y14744D01*
X34617D01*
Y14736D01*
X34608D01*
Y14727D01*
X34591D01*
Y14719D01*
X34583D01*
Y14710D01*
X34566D01*
Y14702D01*
X34558D01*
Y14693D01*
X34541D01*
Y14685D01*
X34532D01*
Y14676D01*
X34524D01*
Y14668D01*
X34515D01*
Y14659D01*
X34498D01*
Y14651D01*
X34490D01*
Y14642D01*
X34481D01*
Y14634D01*
X34464D01*
Y14626D01*
X34456D01*
Y14617D01*
X34447D01*
Y14609D01*
X34439D01*
Y14600D01*
X34430D01*
Y14592D01*
X34422D01*
Y14583D01*
X34405D01*
Y14575D01*
X34397D01*
Y14566D01*
X34388D01*
Y14558D01*
X34380D01*
Y14549D01*
X34371D01*
Y14541D01*
X34363D01*
Y14532D01*
X34354D01*
Y14524D01*
X34346D01*
Y14515D01*
X34337D01*
Y14507D01*
X34329D01*
Y14498D01*
X34320D01*
Y14490D01*
X34312D01*
Y14481D01*
X34303D01*
Y14473D01*
Y14464D01*
X34295D01*
Y14456D01*
X34286D01*
Y14448D01*
X34278D01*
Y14439D01*
X34269D01*
Y14431D01*
X34261D01*
Y14422D01*
X34252D01*
Y14414D01*
Y14405D01*
X34244D01*
Y14397D01*
X34236D01*
Y14388D01*
X34227D01*
Y14380D01*
X34219D01*
Y14371D01*
Y14363D01*
X34210D01*
Y14354D01*
X34202D01*
Y14346D01*
X34193D01*
Y14337D01*
Y14329D01*
X34185D01*
Y14320D01*
X34176D01*
Y14312D01*
Y14303D01*
X34168D01*
Y14295D01*
X34159D01*
Y14287D01*
Y14278D01*
X34151D01*
Y14270D01*
X34142D01*
Y14261D01*
Y14253D01*
X34134D01*
Y14244D01*
Y14236D01*
X34125D01*
Y14227D01*
X34117D01*
Y14219D01*
Y14210D01*
X34108D01*
Y14202D01*
Y14193D01*
X34100D01*
Y14185D01*
X34091D01*
Y14176D01*
Y14168D01*
X34083D01*
Y14159D01*
Y14151D01*
X34074D01*
Y14142D01*
Y14134D01*
X34066D01*
Y14125D01*
Y14117D01*
X34058D01*
Y14109D01*
Y14100D01*
X34049D01*
Y14092D01*
Y14083D01*
X34041D01*
Y14075D01*
Y14066D01*
Y14058D01*
X34032D01*
Y14049D01*
Y14041D01*
X34024D01*
Y14032D01*
Y14024D01*
Y14015D01*
X34015D01*
Y14007D01*
Y13998D01*
X34007D01*
Y13990D01*
Y13981D01*
Y13973D01*
X33998D01*
Y13964D01*
Y13956D01*
Y13947D01*
X33990D01*
Y13939D01*
Y13931D01*
Y13922D01*
X33981D01*
Y13914D01*
Y13905D01*
Y13897D01*
X33973D01*
Y13888D01*
Y13880D01*
Y13871D01*
Y13863D01*
X33964D01*
Y13854D01*
Y13846D01*
Y13837D01*
X33956D01*
Y13829D01*
Y13820D01*
Y13812D01*
Y13803D01*
X33947D01*
Y13795D01*
Y13786D01*
Y13778D01*
Y13770D01*
Y13761D01*
X33939D01*
Y13753D01*
Y13744D01*
Y13736D01*
Y13727D01*
Y13719D01*
X33930D01*
Y13710D01*
Y13702D01*
Y13693D01*
Y13685D01*
Y13676D01*
Y13668D01*
X33922D01*
Y13659D01*
Y13651D01*
Y13642D01*
Y13634D01*
Y13625D01*
Y13617D01*
Y13608D01*
Y13600D01*
Y13592D01*
X33913D01*
Y13583D01*
Y13575D01*
Y13566D01*
Y13558D01*
Y13549D01*
Y13541D01*
Y13532D01*
Y13524D01*
Y13515D01*
Y13507D01*
Y13498D01*
Y13490D01*
Y13481D01*
Y13473D01*
Y13464D01*
Y13456D01*
Y13447D01*
Y13439D01*
Y13431D01*
Y13422D01*
Y13414D01*
Y13405D01*
Y13397D01*
Y13388D01*
Y13380D01*
Y13371D01*
Y13363D01*
Y13354D01*
Y13346D01*
Y13337D01*
Y13329D01*
X33922D01*
Y13320D01*
Y13312D01*
Y13303D01*
Y13295D01*
Y13286D01*
Y13278D01*
Y13269D01*
Y13261D01*
Y13253D01*
Y13244D01*
X33930D01*
Y13236D01*
Y13227D01*
Y13219D01*
Y13210D01*
Y13202D01*
Y13193D01*
X33939D01*
Y13185D01*
Y13176D01*
Y13168D01*
Y13159D01*
Y13151D01*
X33947D01*
Y13142D01*
Y13134D01*
Y13125D01*
Y13117D01*
X33956D01*
Y13108D01*
Y13100D01*
Y13092D01*
Y13083D01*
Y13075D01*
X33964D01*
Y13066D01*
Y13058D01*
Y13049D01*
X33973D01*
Y13041D01*
Y13032D01*
Y13024D01*
Y13015D01*
X33981D01*
Y13007D01*
Y12998D01*
Y12990D01*
X33990D01*
Y12981D01*
Y12973D01*
Y12964D01*
X33998D01*
Y12956D01*
Y12947D01*
Y12939D01*
X34007D01*
Y12931D01*
Y12922D01*
Y12914D01*
X34015D01*
Y12905D01*
Y12897D01*
X34024D01*
Y12888D01*
Y12880D01*
Y12871D01*
X34032D01*
Y12863D01*
Y12854D01*
X34041D01*
Y12846D01*
Y12837D01*
X34049D01*
Y12829D01*
Y12820D01*
X34058D01*
Y12812D01*
Y12803D01*
X34066D01*
Y12795D01*
Y12786D01*
X34074D01*
Y12778D01*
Y12769D01*
Y12761D01*
X34083D01*
Y12753D01*
X34091D01*
Y12744D01*
Y12736D01*
X34100D01*
Y12727D01*
Y12719D01*
X34108D01*
Y12710D01*
Y12702D01*
X34117D01*
Y12693D01*
Y12685D01*
X34125D01*
Y12676D01*
X34134D01*
Y12668D01*
Y12659D01*
X34142D01*
Y12651D01*
Y12642D01*
X34151D01*
Y12634D01*
X34159D01*
Y12625D01*
Y12617D01*
X34168D01*
Y12608D01*
X34176D01*
Y12600D01*
X34185D01*
Y12592D01*
Y12583D01*
X34193D01*
Y12575D01*
X34202D01*
Y12566D01*
Y12558D01*
X34210D01*
Y12549D01*
X34219D01*
Y12541D01*
Y12532D01*
X34227D01*
Y12524D01*
X34236D01*
Y12515D01*
X34244D01*
Y12507D01*
X34252D01*
Y12498D01*
Y12490D01*
X34261D01*
Y12481D01*
X34269D01*
Y12473D01*
X34278D01*
Y12464D01*
X34286D01*
Y12456D01*
X34295D01*
Y12447D01*
X34303D01*
Y12439D01*
X34312D01*
Y12430D01*
Y12422D01*
X34329D01*
Y12414D01*
Y12405D01*
X34337D01*
Y12397D01*
X34354D01*
Y12388D01*
Y12380D01*
X34363D01*
Y12371D01*
X34371D01*
Y12363D01*
X34380D01*
Y12354D01*
X34397D01*
Y12346D01*
X34405D01*
Y12337D01*
X34413D01*
Y12329D01*
X34422D01*
Y12320D01*
X34430D01*
Y12312D01*
X34439D01*
Y12303D01*
X34447D01*
Y12295D01*
X34456D01*
Y12286D01*
X34473D01*
Y12278D01*
X34481D01*
Y12269D01*
X34490D01*
Y12261D01*
X34498D01*
Y12253D01*
X34515D01*
Y12244D01*
X34524D01*
Y12236D01*
X34532D01*
Y12227D01*
X34549D01*
Y12219D01*
X34558D01*
Y12210D01*
X34575D01*
Y12202D01*
X34583D01*
Y12193D01*
X34600D01*
Y12185D01*
X34608D01*
Y12176D01*
X34625D01*
Y12168D01*
X34634D01*
Y12159D01*
X34651D01*
Y12151D01*
X34668D01*
Y12142D01*
X34676D01*
Y12134D01*
X34693D01*
Y12125D01*
X34710D01*
Y12117D01*
X34727D01*
Y12108D01*
X34744D01*
Y12100D01*
X34761D01*
Y12091D01*
X34778D01*
Y12083D01*
X34795D01*
Y12075D01*
X34812D01*
Y12066D01*
X34829D01*
Y12058D01*
X34854D01*
Y12049D01*
X34880D01*
Y12041D01*
X34897D01*
Y12032D01*
X34922D01*
Y12024D01*
X34947D01*
Y12015D01*
X34973D01*
Y12007D01*
X34998D01*
Y11998D01*
X35032D01*
Y11990D01*
X35058D01*
Y11981D01*
X35100D01*
Y11973D01*
X35134D01*
Y11964D01*
X35185D01*
Y11956D01*
X35236D01*
Y11947D01*
X35329D01*
Y11939D01*
X35532D01*
Y11947D01*
X35625D01*
Y11956D01*
X35676D01*
Y11964D01*
X35727D01*
Y11973D01*
X35770D01*
Y11981D01*
X35803D01*
Y11990D01*
X35829D01*
Y11998D01*
X35863D01*
Y12007D01*
X35888D01*
Y12015D01*
X35922D01*
Y12024D01*
X35939D01*
Y12032D01*
X35964D01*
Y12041D01*
X35990D01*
Y12049D01*
X36007D01*
Y12058D01*
X36032D01*
Y12066D01*
X36049D01*
Y12075D01*
X36066D01*
Y12083D01*
X36092D01*
Y12091D01*
X36100D01*
Y12100D01*
X36117D01*
Y12108D01*
X36134D01*
Y12117D01*
X36151D01*
Y12125D01*
X36168D01*
Y12134D01*
X36185D01*
Y12142D01*
X36202D01*
Y12151D01*
X36210D01*
Y12159D01*
X36227D01*
Y12168D01*
X36244D01*
Y12176D01*
X36253D01*
Y12185D01*
X36270D01*
Y12193D01*
X36278D01*
Y12202D01*
X36295D01*
Y12210D01*
X36303D01*
Y12219D01*
X36320D01*
Y12227D01*
X36329D01*
Y12236D01*
X36337D01*
Y12244D01*
X36354D01*
Y12253D01*
X36363D01*
Y12261D01*
X36371D01*
Y12269D01*
X36380D01*
Y12278D01*
X36397D01*
Y12286D01*
X36405D01*
Y12295D01*
X36414D01*
Y12303D01*
X36422D01*
Y12312D01*
X36431D01*
Y12320D01*
X36448D01*
Y12329D01*
X36456D01*
Y12337D01*
X36464D01*
Y12346D01*
X36473D01*
Y12354D01*
X36481D01*
Y12363D01*
X36490D01*
Y12371D01*
X36498D01*
Y12380D01*
X36507D01*
Y12388D01*
X36515D01*
Y12397D01*
X36524D01*
Y12405D01*
X36532D01*
Y12414D01*
X36541D01*
Y12422D01*
X36549D01*
Y12430D01*
X36558D01*
Y12439D01*
X36566D01*
Y12447D01*
X36575D01*
Y12456D01*
X36583D01*
Y12464D01*
Y12473D01*
X36592D01*
Y12481D01*
X36600D01*
Y12490D01*
X36609D01*
Y12498D01*
X36617D01*
Y12507D01*
Y12515D01*
X36625D01*
Y12524D01*
X36634D01*
Y12532D01*
X36642D01*
Y12541D01*
X36651D01*
Y12549D01*
Y12558D01*
X36659D01*
Y12566D01*
X36668D01*
Y12575D01*
X36676D01*
Y12583D01*
Y12592D01*
X36685D01*
Y12600D01*
X36693D01*
Y12608D01*
Y12617D01*
X36702D01*
Y12625D01*
X36710D01*
Y12634D01*
Y12642D01*
X36719D01*
Y12651D01*
X36727D01*
Y12659D01*
Y12668D01*
X36736D01*
Y12676D01*
Y12685D01*
X36744D01*
Y12693D01*
X36753D01*
Y12702D01*
Y12710D01*
X36761D01*
Y12719D01*
Y12727D01*
X36770D01*
Y12736D01*
Y12744D01*
X36778D01*
Y12753D01*
Y12761D01*
X36786D01*
Y12769D01*
Y12778D01*
X36795D01*
Y12786D01*
Y12795D01*
X36803D01*
Y12803D01*
Y12812D01*
X36812D01*
Y12820D01*
Y12829D01*
X36820D01*
Y12837D01*
Y12846D01*
X36829D01*
Y12854D01*
Y12863D01*
Y12871D01*
X36837D01*
Y12880D01*
Y12888D01*
X36846D01*
Y12897D01*
Y12905D01*
X36854D01*
Y12914D01*
Y12922D01*
Y12931D01*
X36863D01*
Y12939D01*
Y12947D01*
Y12956D01*
X36871D01*
Y12964D01*
Y12973D01*
Y12981D01*
X36880D01*
Y12990D01*
Y12998D01*
Y13007D01*
X36888D01*
Y13015D01*
Y13024D01*
Y13032D01*
X36897D01*
Y13041D01*
Y13049D01*
Y13058D01*
Y13066D01*
X36905D01*
Y13075D01*
Y13083D01*
Y13092D01*
Y13100D01*
X36914D01*
Y13108D01*
Y13117D01*
Y13125D01*
Y13134D01*
X36922D01*
Y13142D01*
Y13151D01*
Y13159D01*
Y13168D01*
Y13176D01*
X36931D01*
Y13185D01*
Y13193D01*
Y13202D01*
Y13210D01*
Y13219D01*
Y13227D01*
X36939D01*
Y13236D01*
Y13244D01*
Y13253D01*
Y13261D01*
Y13269D01*
Y13278D01*
Y13286D01*
Y13295D01*
Y13303D01*
X36948D01*
Y13312D01*
Y13320D01*
Y13329D01*
Y13337D01*
Y13346D01*
Y13354D01*
Y13363D01*
Y13371D01*
Y13380D01*
Y13388D01*
Y13397D01*
Y13405D01*
Y13414D01*
Y13422D01*
Y13431D01*
Y13439D01*
X36956D01*
Y13447D01*
Y13456D01*
Y13464D01*
X36948D01*
Y13473D01*
Y13481D01*
Y13490D01*
Y13498D01*
Y13507D01*
Y13515D01*
Y13524D01*
Y13532D01*
Y13541D01*
Y13549D01*
Y13558D01*
Y13566D01*
Y13575D01*
Y13583D01*
Y13592D01*
Y13600D01*
Y13608D01*
Y13617D01*
X36939D01*
Y13625D01*
Y13634D01*
Y13642D01*
Y13651D01*
Y13659D01*
Y13668D01*
Y13676D01*
Y13685D01*
X36931D01*
Y13693D01*
Y13702D01*
Y13710D01*
Y13719D01*
Y13727D01*
Y13736D01*
X36922D01*
Y13744D01*
Y13753D01*
Y13761D01*
Y13770D01*
Y13778D01*
X36914D01*
Y13786D01*
Y13795D01*
Y13803D01*
Y13812D01*
X36905D01*
Y13820D01*
Y13829D01*
Y13837D01*
Y13846D01*
X36897D01*
Y13854D01*
Y13863D01*
Y13871D01*
Y13880D01*
X36888D01*
Y13888D01*
Y13897D01*
Y13905D01*
X36880D01*
Y13914D01*
Y13922D01*
Y13931D01*
X36871D01*
Y13939D01*
Y13947D01*
Y13956D01*
X36863D01*
Y13964D01*
Y13973D01*
Y13981D01*
X36854D01*
Y13990D01*
Y13998D01*
Y14007D01*
X36846D01*
Y14015D01*
Y14024D01*
X36837D01*
Y14032D01*
Y14041D01*
Y14049D01*
X36829D01*
Y14058D01*
Y14066D01*
X36820D01*
Y14075D01*
Y14083D01*
X36812D01*
Y14092D01*
Y14100D01*
X36803D01*
Y14109D01*
Y14117D01*
Y14125D01*
X36795D01*
Y14134D01*
X36786D01*
Y14142D01*
Y14151D01*
X36778D01*
Y14159D01*
Y14168D01*
X36770D01*
Y14176D01*
Y14185D01*
X36761D01*
Y14193D01*
Y14202D01*
X36753D01*
Y14210D01*
Y14219D01*
X36744D01*
Y14227D01*
X36736D01*
Y14236D01*
Y14244D01*
X36727D01*
Y14253D01*
Y14261D01*
X36719D01*
Y14270D01*
X36710D01*
Y14278D01*
Y14287D01*
X36702D01*
Y14295D01*
X36693D01*
Y14303D01*
Y14312D01*
X36685D01*
Y14320D01*
X36676D01*
Y14329D01*
Y14337D01*
X36668D01*
Y14346D01*
X36659D01*
Y14354D01*
Y14363D01*
X36651D01*
Y14371D01*
X36642D01*
Y14380D01*
X36634D01*
Y14388D01*
X36625D01*
Y14397D01*
Y14405D01*
X36617D01*
Y14414D01*
X36609D01*
Y14422D01*
X36600D01*
Y14431D01*
X36592D01*
Y14439D01*
Y14448D01*
X36583D01*
Y14456D01*
X36575D01*
Y14464D01*
X36566D01*
Y14473D01*
X36558D01*
Y14481D01*
X36549D01*
Y14490D01*
X36541D01*
Y14498D01*
X36532D01*
Y14507D01*
X36524D01*
Y14515D01*
X36515D01*
Y14524D01*
X36507D01*
Y14532D01*
X36498D01*
Y14541D01*
X36490D01*
Y14549D01*
X36481D01*
Y14558D01*
X36473D01*
Y14566D01*
X36464D01*
Y14575D01*
X36456D01*
Y14583D01*
X36448D01*
Y14592D01*
X36439D01*
Y14600D01*
X36422D01*
Y14609D01*
X36414D01*
Y14617D01*
X36405D01*
Y14626D01*
X36397D01*
Y14634D01*
X36388D01*
Y14642D01*
X36371D01*
Y14651D01*
X36363D01*
Y14659D01*
X36354D01*
Y14668D01*
X36346D01*
Y14676D01*
X36337D01*
Y14685D01*
X36329D01*
Y14693D01*
Y14702D01*
Y14710D01*
Y14719D01*
Y14727D01*
Y14736D01*
Y14744D01*
X36337D01*
Y14736D01*
X36354D01*
Y14727D01*
X36363D01*
Y14719D01*
X36371D01*
Y14710D01*
X36388D01*
Y14702D01*
X36397D01*
Y14693D01*
X36405D01*
Y14685D01*
X36414D01*
Y14676D01*
X36431D01*
Y14668D01*
X36439D01*
Y14659D01*
X36448D01*
Y14651D01*
X36456D01*
Y14642D01*
X36464D01*
Y14634D01*
X36473D01*
Y14626D01*
X36490D01*
Y14617D01*
X36498D01*
Y14609D01*
X36507D01*
Y14600D01*
X36515D01*
Y14592D01*
X36524D01*
Y14583D01*
X36532D01*
Y14575D01*
X36541D01*
Y14566D01*
X36549D01*
Y14558D01*
X36558D01*
Y14549D01*
X36566D01*
Y14541D01*
X36575D01*
Y14532D01*
X36583D01*
Y14524D01*
X36592D01*
Y14515D01*
X36600D01*
Y14507D01*
X36609D01*
Y14498D01*
Y14490D01*
X36617D01*
Y14481D01*
X36625D01*
Y14473D01*
X36634D01*
Y14464D01*
X36642D01*
Y14456D01*
X36651D01*
Y14448D01*
X36659D01*
Y14439D01*
Y14431D01*
X36668D01*
Y14422D01*
X36676D01*
Y14414D01*
X36685D01*
Y14405D01*
X36693D01*
Y14397D01*
Y14388D01*
X36702D01*
Y14380D01*
X36710D01*
Y14371D01*
X36719D01*
Y14363D01*
Y14354D01*
X36727D01*
Y14346D01*
X36736D01*
Y14337D01*
Y14329D01*
X36744D01*
Y14320D01*
X36753D01*
Y14312D01*
Y14303D01*
X36761D01*
Y14295D01*
Y14287D01*
X36770D01*
Y14278D01*
X36778D01*
Y14270D01*
Y14261D01*
X36786D01*
Y14253D01*
X36795D01*
Y14244D01*
Y14236D01*
X36803D01*
Y14227D01*
Y14219D01*
X36812D01*
Y14210D01*
Y14202D01*
X36820D01*
Y14193D01*
Y14185D01*
X36829D01*
Y14176D01*
Y14168D01*
X36837D01*
Y14159D01*
Y14151D01*
X36846D01*
Y14142D01*
X36854D01*
Y14134D01*
Y14125D01*
Y14117D01*
X36863D01*
Y14109D01*
Y14100D01*
X36871D01*
Y14092D01*
Y14083D01*
X36880D01*
Y14075D01*
Y14066D01*
X36888D01*
Y14058D01*
Y14049D01*
Y14041D01*
X36897D01*
Y14032D01*
Y14024D01*
X36905D01*
Y14015D01*
Y14007D01*
Y13998D01*
X36914D01*
Y13990D01*
Y13981D01*
Y13973D01*
X36922D01*
Y13964D01*
Y13956D01*
Y13947D01*
X36931D01*
Y13939D01*
Y13931D01*
Y13922D01*
Y13914D01*
X36939D01*
Y13905D01*
Y13897D01*
Y13888D01*
X36948D01*
Y13880D01*
Y13871D01*
Y13863D01*
X36956D01*
Y13854D01*
Y13846D01*
Y13837D01*
Y13829D01*
Y13820D01*
X36964D01*
Y13812D01*
Y13803D01*
Y13795D01*
Y13786D01*
Y13778D01*
X36973D01*
Y13770D01*
Y13761D01*
Y13753D01*
Y13744D01*
Y13736D01*
X36981D01*
Y13727D01*
Y13719D01*
Y13710D01*
Y13702D01*
Y13693D01*
Y13685D01*
Y13676D01*
X36990D01*
Y13668D01*
Y13659D01*
Y13651D01*
Y13642D01*
Y13634D01*
Y13625D01*
Y13617D01*
Y13608D01*
Y13600D01*
Y13592D01*
X36998D01*
Y13583D01*
Y13575D01*
Y13566D01*
Y13558D01*
Y13549D01*
Y13541D01*
Y13532D01*
Y13524D01*
Y13515D01*
Y13507D01*
Y13498D01*
Y13490D01*
Y13481D01*
Y13473D01*
Y13464D01*
Y13456D01*
Y13447D01*
Y13439D01*
Y13431D01*
Y13422D01*
Y13414D01*
Y13405D01*
Y13397D01*
Y13388D01*
Y13380D01*
Y13371D01*
Y13363D01*
Y13354D01*
Y13346D01*
Y13337D01*
Y13329D01*
Y13320D01*
X36990D01*
Y13312D01*
Y13303D01*
Y13295D01*
Y13286D01*
Y13278D01*
Y13269D01*
Y13261D01*
Y13253D01*
Y13244D01*
Y13236D01*
X36981D01*
Y13227D01*
Y13219D01*
Y13210D01*
Y13202D01*
Y13193D01*
Y13185D01*
Y13176D01*
X36973D01*
Y13168D01*
Y13159D01*
Y13151D01*
Y13142D01*
Y13134D01*
X36964D01*
Y13125D01*
Y13117D01*
Y13108D01*
Y13100D01*
Y13092D01*
X36956D01*
Y13083D01*
Y13075D01*
Y13066D01*
Y13058D01*
X36948D01*
Y13049D01*
Y13041D01*
Y13032D01*
X36939D01*
Y13024D01*
Y13015D01*
Y13007D01*
Y12998D01*
Y12990D01*
X36931D01*
Y12981D01*
Y12973D01*
Y12964D01*
X36922D01*
Y12956D01*
Y12947D01*
Y12939D01*
X36914D01*
Y12931D01*
Y12922D01*
X36905D01*
Y12914D01*
Y12905D01*
Y12897D01*
X36897D01*
Y12888D01*
Y12880D01*
Y12871D01*
X36888D01*
Y12863D01*
Y12854D01*
X36880D01*
Y12846D01*
Y12837D01*
Y12829D01*
X36871D01*
Y12820D01*
Y12812D01*
X36863D01*
Y12803D01*
Y12795D01*
X36854D01*
Y12786D01*
Y12778D01*
X36846D01*
Y12769D01*
Y12761D01*
X36837D01*
Y12753D01*
Y12744D01*
X36829D01*
Y12736D01*
Y12727D01*
X36820D01*
Y12719D01*
Y12710D01*
X36812D01*
Y12702D01*
Y12693D01*
X36803D01*
Y12685D01*
Y12676D01*
X36795D01*
Y12668D01*
X36786D01*
Y12659D01*
Y12651D01*
X36778D01*
Y12642D01*
Y12634D01*
X36770D01*
Y12625D01*
X36761D01*
Y12617D01*
Y12608D01*
X36753D01*
Y12600D01*
Y12592D01*
X36744D01*
Y12583D01*
X36736D01*
Y12575D01*
X36727D01*
Y12566D01*
Y12558D01*
X36719D01*
Y12549D01*
X36710D01*
Y12541D01*
Y12532D01*
X36702D01*
Y12524D01*
X36693D01*
Y12515D01*
X36685D01*
Y12507D01*
Y12498D01*
X36676D01*
Y12490D01*
X36668D01*
Y12481D01*
X36659D01*
Y12473D01*
Y12464D01*
X36651D01*
Y12456D01*
X36642D01*
Y12447D01*
X36634D01*
Y12439D01*
X36625D01*
Y12430D01*
X36617D01*
Y12422D01*
X36609D01*
Y12414D01*
X36600D01*
Y12405D01*
X36592D01*
Y12397D01*
Y12388D01*
X36583D01*
Y12380D01*
X36575D01*
Y12371D01*
X36566D01*
Y12363D01*
X36558D01*
Y12354D01*
X36549D01*
Y12346D01*
X36541D01*
Y12337D01*
X36532D01*
Y12329D01*
X36524D01*
Y12320D01*
X36515D01*
Y12312D01*
X36507D01*
Y12303D01*
X36498D01*
Y12295D01*
X36481D01*
Y12286D01*
X36473D01*
Y12278D01*
X36464D01*
Y12269D01*
X36456D01*
Y12261D01*
X36448D01*
Y12253D01*
X36439D01*
Y12244D01*
X36422D01*
Y12236D01*
X36414D01*
Y12227D01*
X36405D01*
Y12219D01*
X36397D01*
Y12210D01*
X36380D01*
Y12202D01*
X36371D01*
Y12193D01*
X36363D01*
Y12185D01*
X36346D01*
Y12176D01*
X36337D01*
Y12168D01*
X36329D01*
Y12159D01*
X36312D01*
Y12151D01*
X36303D01*
Y12142D01*
X36286D01*
Y12134D01*
X36278D01*
Y12125D01*
X36261D01*
Y12117D01*
X36244D01*
Y12108D01*
X36236D01*
Y12100D01*
X36219D01*
Y12091D01*
X36202D01*
Y12083D01*
X36185D01*
Y12075D01*
X36168D01*
Y12066D01*
X36159D01*
Y12058D01*
X36142D01*
Y12049D01*
X36117D01*
Y12041D01*
X36100D01*
Y12032D01*
X36083D01*
Y12024D01*
X36066D01*
Y12015D01*
X36049D01*
Y12007D01*
X36024D01*
Y11998D01*
X36007D01*
Y11990D01*
X35981D01*
Y11981D01*
X35956D01*
Y11973D01*
X35931D01*
Y11964D01*
X35905D01*
Y11956D01*
X35880D01*
Y11947D01*
X35846D01*
Y11939D01*
X35812D01*
Y11930D01*
X35770D01*
Y11922D01*
X35727D01*
Y11913D01*
X35676D01*
Y11905D01*
X35600D01*
Y11897D01*
X35269D01*
Y11905D01*
X35193D01*
Y11913D01*
X35134D01*
Y11922D01*
X35092D01*
Y11930D01*
X35049D01*
Y11939D01*
X35015D01*
Y11947D01*
X34990D01*
Y11956D01*
X34964D01*
Y11964D01*
X34930D01*
Y11973D01*
X34905D01*
Y11981D01*
X34880D01*
Y11990D01*
X34863D01*
Y11998D01*
X34837D01*
Y12007D01*
X34820D01*
Y12015D01*
X34795D01*
Y12024D01*
X34778D01*
Y12032D01*
X34761D01*
Y12041D01*
X34744D01*
Y12049D01*
X34727D01*
Y12058D01*
X34710D01*
Y12066D01*
X34693D01*
Y12075D01*
X34676D01*
Y12083D01*
X34659D01*
Y12091D01*
X34642D01*
Y12100D01*
X34634D01*
Y12108D01*
X34617D01*
Y12117D01*
X34600D01*
Y12125D01*
X34591D01*
Y12134D01*
X34575D01*
Y12142D01*
X34566D01*
Y12151D01*
X34549D01*
Y12159D01*
X34541D01*
Y12168D01*
X34524D01*
Y12176D01*
X34515D01*
Y12185D01*
X34507D01*
Y12193D01*
X34490D01*
Y12202D01*
X34481D01*
Y12210D01*
X34473D01*
Y12219D01*
X34456D01*
Y12227D01*
X34447D01*
Y12236D01*
X34439D01*
Y12244D01*
X34430D01*
Y12253D01*
X34422D01*
Y12261D01*
X34405D01*
Y12269D01*
X34397D01*
Y12278D01*
X34388D01*
Y12286D01*
X34380D01*
Y12295D01*
X34371D01*
Y12303D01*
X34363D01*
Y12312D01*
X34354D01*
Y12320D01*
X34346D01*
Y12329D01*
X34337D01*
Y12337D01*
X34329D01*
Y12346D01*
X34320D01*
Y12354D01*
X34312D01*
Y12363D01*
X34303D01*
Y12371D01*
X34295D01*
Y12380D01*
X34286D01*
Y12388D01*
X34278D01*
Y12397D01*
X34269D01*
Y12405D01*
X34261D01*
Y12414D01*
X34252D01*
Y12422D01*
X34244D01*
Y12430D01*
X34236D01*
Y12439D01*
X34227D01*
Y12447D01*
X34219D01*
Y12456D01*
Y12464D01*
X34210D01*
Y12473D01*
X34202D01*
Y12481D01*
X34193D01*
Y12490D01*
X34185D01*
Y12498D01*
Y12507D01*
X34176D01*
Y12515D01*
X34168D01*
Y12524D01*
X34159D01*
Y12532D01*
Y12541D01*
X34151D01*
Y12549D01*
X34142D01*
Y12558D01*
X34134D01*
Y12566D01*
Y12575D01*
X34125D01*
Y12583D01*
Y12592D01*
X34117D01*
Y12600D01*
X34108D01*
Y12608D01*
Y12617D01*
X34100D01*
Y12625D01*
X34091D01*
Y12634D01*
Y12642D01*
X34083D01*
Y12651D01*
Y12659D01*
X34074D01*
Y12668D01*
X34066D01*
Y12676D01*
Y12685D01*
X34058D01*
Y12693D01*
Y12702D01*
X34049D01*
Y12710D01*
X34041D01*
Y12719D01*
Y12727D01*
X34032D01*
Y12736D01*
Y12744D01*
X34024D01*
Y12753D01*
Y12761D01*
X34015D01*
Y12769D01*
Y12778D01*
Y12786D01*
X34007D01*
Y12795D01*
Y12803D01*
X33998D01*
Y12812D01*
Y12820D01*
X33990D01*
Y12829D01*
Y12837D01*
X33981D01*
Y12846D01*
Y12854D01*
Y12863D01*
X33973D01*
Y12871D01*
Y12880D01*
X33964D01*
Y12888D01*
Y12897D01*
Y12905D01*
X33956D01*
Y12914D01*
Y12922D01*
Y12931D01*
X33947D01*
Y12939D01*
Y12947D01*
X33939D01*
Y12956D01*
Y12964D01*
Y12973D01*
Y12981D01*
X33930D01*
Y12990D01*
Y12998D01*
Y13007D01*
X33922D01*
Y13015D01*
Y13024D01*
Y13032D01*
X33913D01*
Y13041D01*
Y13049D01*
Y13058D01*
Y13066D01*
X33905D01*
Y13075D01*
Y13083D01*
Y13092D01*
Y13100D01*
X33897D01*
Y13108D01*
Y13117D01*
Y13125D01*
Y13134D01*
Y13142D01*
Y13151D01*
X33888D01*
Y13159D01*
Y13168D01*
Y13176D01*
Y13185D01*
Y13193D01*
X33880D01*
Y13202D01*
Y13210D01*
Y13219D01*
Y13227D01*
Y13236D01*
Y13244D01*
Y13253D01*
Y13261D01*
X33871D01*
Y13269D01*
Y13278D01*
Y13286D01*
Y13295D01*
Y13303D01*
Y13312D01*
Y13320D01*
Y13329D01*
Y13337D01*
Y13346D01*
Y13354D01*
Y13363D01*
X33863D01*
Y13371D01*
Y13380D01*
Y13388D01*
Y13397D01*
Y13405D01*
Y13414D01*
Y13422D01*
Y13431D01*
Y13439D01*
Y13447D01*
Y13456D01*
Y13464D01*
Y13473D01*
Y13481D01*
Y13490D01*
Y13498D01*
Y13507D01*
Y13515D01*
Y13524D01*
Y13532D01*
Y13541D01*
Y13549D01*
X33871D01*
Y13558D01*
Y13566D01*
Y13575D01*
Y13583D01*
Y13592D01*
Y13600D01*
Y13608D01*
Y13617D01*
Y13625D01*
Y13634D01*
Y13642D01*
Y13651D01*
Y13659D01*
X33880D01*
Y13668D01*
Y13676D01*
Y13685D01*
Y13693D01*
Y13702D01*
Y13710D01*
Y13719D01*
X33888D01*
Y13727D01*
Y13736D01*
Y13744D01*
Y13753D01*
Y13761D01*
X33897D01*
Y13770D01*
Y13778D01*
Y13786D01*
Y13795D01*
Y13803D01*
X33905D01*
Y13812D01*
Y13820D01*
Y13829D01*
Y13837D01*
Y13846D01*
X33913D01*
Y13854D01*
Y13863D01*
Y13871D01*
Y13880D01*
X33922D01*
Y13888D01*
Y13897D01*
Y13905D01*
Y13914D01*
X33930D01*
Y13922D01*
Y13931D01*
Y13939D01*
X33939D01*
Y13947D01*
Y13956D01*
Y13964D01*
X33947D01*
Y13973D01*
Y13981D01*
X33956D01*
Y13990D01*
Y13998D01*
Y14007D01*
X33964D01*
Y14015D01*
Y14024D01*
Y14032D01*
X33973D01*
Y14041D01*
Y14049D01*
X33981D01*
Y14058D01*
Y14066D01*
Y14075D01*
X33990D01*
Y14083D01*
Y14092D01*
X33998D01*
Y14100D01*
Y14109D01*
X34007D01*
Y14117D01*
Y14125D01*
Y14134D01*
X34015D01*
Y14142D01*
Y14151D01*
X34024D01*
Y14159D01*
Y14168D01*
X34032D01*
Y14176D01*
Y14185D01*
X34041D01*
Y14193D01*
Y14202D01*
X34049D01*
Y14210D01*
Y14219D01*
X34058D01*
Y14227D01*
X34066D01*
Y14236D01*
Y14244D01*
X34074D01*
Y14253D01*
Y14261D01*
X34083D01*
Y14270D01*
X34091D01*
Y14278D01*
Y14287D01*
X34100D01*
Y14295D01*
Y14303D01*
X34108D01*
Y14312D01*
X34117D01*
Y14320D01*
Y14329D01*
X34125D01*
Y14337D01*
X34134D01*
Y14346D01*
Y14354D01*
X34142D01*
Y14363D01*
X34151D01*
Y14371D01*
X34159D01*
Y14380D01*
Y14388D01*
X34168D01*
Y14397D01*
X34176D01*
Y14405D01*
X34185D01*
Y14414D01*
Y14422D01*
X34193D01*
Y14431D01*
X34202D01*
Y14439D01*
X34210D01*
Y14448D01*
X34219D01*
Y14456D01*
Y14464D01*
X34227D01*
Y14473D01*
X34236D01*
Y14481D01*
X34244D01*
Y14490D01*
X34252D01*
Y14498D01*
X34261D01*
Y14507D01*
X34269D01*
Y14515D01*
X34278D01*
Y14524D01*
X34286D01*
Y14532D01*
Y14541D01*
X34303D01*
Y14549D01*
X34312D01*
Y14558D01*
Y14566D01*
X34329D01*
Y14575D01*
X34337D01*
Y14583D01*
X34346D01*
Y14592D01*
X34354D01*
Y14600D01*
Y14609D01*
X34371D01*
Y14617D01*
X34380D01*
Y14626D01*
X34388D01*
Y14634D01*
X34397D01*
Y14642D01*
X34405D01*
Y14651D01*
X34413D01*
Y14659D01*
X34430D01*
Y14668D01*
X34439D01*
Y14676D01*
X34447D01*
Y14685D01*
X34456D01*
Y14693D01*
X34464D01*
Y14702D01*
X34481D01*
Y14710D01*
X34490D01*
Y14719D01*
X34498D01*
Y14727D01*
X34515D01*
Y14736D01*
X34524D01*
Y14744D01*
X34532D01*
Y14753D01*
X34549D01*
Y14761D01*
X34558D01*
Y14770D01*
X34575D01*
Y14778D01*
X34591D01*
Y14787D01*
X34600D01*
Y14795D01*
X34617D01*
Y14803D01*
X34634D01*
Y14812D01*
X34642D01*
Y14820D01*
X34659D01*
Y14829D01*
X34676D01*
Y14837D01*
X34693D01*
Y14846D01*
X34710D01*
Y14854D01*
X34719D01*
Y14863D01*
X34736D01*
Y14871D01*
X34761D01*
Y14880D01*
X34778D01*
Y14888D01*
X34795D01*
Y14897D01*
X34812D01*
Y14905D01*
X34829D01*
Y14914D01*
X34854D01*
Y14922D01*
X34880D01*
Y14931D01*
X34905D01*
Y14939D01*
X34930D01*
Y14948D01*
X34956D01*
Y14956D01*
X34981D01*
Y14964D01*
X35015D01*
Y14973D01*
X35049D01*
Y14981D01*
X35083D01*
Y14990D01*
X35125D01*
Y14998D01*
X35176D01*
Y15007D01*
X35253D01*
Y15015D01*
X35354D01*
Y15024D01*
X35507D01*
Y15015D01*
D02*
G37*
G36*
X36303Y15142D02*
Y15134D01*
Y15126D01*
Y15117D01*
Y15109D01*
Y15100D01*
Y15092D01*
Y15083D01*
Y15075D01*
Y15066D01*
Y15058D01*
X36295D01*
Y15049D01*
Y15041D01*
Y15032D01*
Y15024D01*
Y15015D01*
Y15007D01*
Y14998D01*
Y14990D01*
Y14981D01*
Y14973D01*
Y14964D01*
X36286D01*
Y14956D01*
Y14948D01*
Y14939D01*
Y14931D01*
Y14922D01*
Y14914D01*
Y14905D01*
Y14897D01*
X36278D01*
Y14888D01*
Y14880D01*
Y14871D01*
Y14863D01*
Y14854D01*
Y14846D01*
Y14837D01*
Y14829D01*
Y14820D01*
Y14812D01*
Y14803D01*
Y14795D01*
Y14787D01*
Y14778D01*
Y14770D01*
Y14761D01*
Y14753D01*
Y14744D01*
Y14736D01*
Y14727D01*
Y14719D01*
Y14710D01*
Y14702D01*
Y14693D01*
Y14685D01*
Y14676D01*
Y14668D01*
Y14659D01*
Y14651D01*
Y14642D01*
Y14634D01*
X36286D01*
Y14626D01*
Y14617D01*
Y14609D01*
Y14600D01*
Y14592D01*
Y14583D01*
Y14575D01*
X36295D01*
Y14566D01*
Y14558D01*
Y14549D01*
Y14541D01*
X36303D01*
Y14532D01*
Y14524D01*
Y14515D01*
Y14507D01*
X36312D01*
Y14498D01*
Y14490D01*
Y14481D01*
Y14473D01*
X36320D01*
Y14464D01*
Y14456D01*
Y14448D01*
X36329D01*
Y14439D01*
Y14431D01*
X36337D01*
Y14422D01*
Y14414D01*
Y14405D01*
X36303D01*
Y14397D01*
X36286D01*
Y14388D01*
X36270D01*
Y14380D01*
X36253D01*
Y14371D01*
X36236D01*
Y14363D01*
X36219D01*
Y14354D01*
X36202D01*
Y14346D01*
X36193D01*
Y14337D01*
X36176D01*
Y14329D01*
X36168D01*
Y14320D01*
X36151D01*
Y14312D01*
X36142D01*
Y14303D01*
X36134D01*
Y14295D01*
X36125D01*
Y14287D01*
X36109D01*
Y14278D01*
X36100D01*
Y14270D01*
X36092D01*
Y14261D01*
X36075D01*
Y14253D01*
X36066D01*
Y14244D01*
X36058D01*
Y14236D01*
X36049D01*
Y14227D01*
X36041D01*
Y14219D01*
X36024D01*
Y14210D01*
X36015D01*
Y14202D01*
X36007D01*
Y14193D01*
X35998D01*
Y14185D01*
X35990D01*
Y14176D01*
X35981D01*
Y14168D01*
X35973D01*
Y14159D01*
X35964D01*
Y14151D01*
X35956D01*
Y14142D01*
X35939D01*
Y14134D01*
X35931D01*
Y14125D01*
X35922D01*
Y14117D01*
X35914D01*
Y14109D01*
X35905D01*
Y14100D01*
X35897D01*
Y14092D01*
X35888D01*
Y14083D01*
X35880D01*
Y14075D01*
X35871D01*
Y14066D01*
X35863D01*
Y14058D01*
X35854D01*
Y14049D01*
X35846D01*
Y14041D01*
X35837D01*
Y14032D01*
X35829D01*
Y14024D01*
X35820D01*
Y14015D01*
X35812D01*
Y14007D01*
X35803D01*
Y13998D01*
Y13990D01*
X35795D01*
Y13981D01*
X35786D01*
Y13973D01*
X35778D01*
Y13964D01*
X35770D01*
Y13956D01*
X35761D01*
Y13947D01*
X35753D01*
Y13939D01*
X35744D01*
Y13931D01*
X35736D01*
Y13922D01*
X35727D01*
Y13914D01*
X35719D01*
Y13905D01*
Y13897D01*
X35710D01*
Y13888D01*
X35702D01*
Y13880D01*
X35693D01*
Y13871D01*
X35685D01*
Y13863D01*
X35676D01*
Y13854D01*
Y13846D01*
X35659D01*
Y13837D01*
Y13829D01*
X35651D01*
Y13820D01*
X35642D01*
Y13812D01*
X35634D01*
Y13803D01*
X35625D01*
Y13795D01*
X35617D01*
Y13786D01*
Y13778D01*
X35608D01*
Y13770D01*
X35600D01*
Y13761D01*
X35592D01*
Y13753D01*
X35583D01*
Y13744D01*
X35575D01*
Y13736D01*
Y13727D01*
X35566D01*
Y13719D01*
X35558D01*
Y13710D01*
X35549D01*
Y13702D01*
X35541D01*
Y13693D01*
Y13685D01*
X35532D01*
Y13676D01*
X35524D01*
Y13668D01*
X35515D01*
Y13659D01*
X35507D01*
Y13651D01*
Y13642D01*
X35498D01*
Y13634D01*
X35490D01*
Y13625D01*
X35481D01*
Y13617D01*
X35473D01*
Y13608D01*
Y13600D01*
X35464D01*
Y13592D01*
X35456D01*
Y13583D01*
X35447D01*
Y13575D01*
Y13566D01*
X35439D01*
Y13558D01*
X35431D01*
Y13549D01*
Y13541D01*
X35422D01*
Y13532D01*
X35414D01*
Y13524D01*
X35405D01*
Y13515D01*
Y13507D01*
X35397D01*
Y13498D01*
X35388D01*
Y13490D01*
X35380D01*
Y13481D01*
Y13473D01*
X35371D01*
Y13464D01*
X35363D01*
Y13456D01*
X35354D01*
Y13447D01*
Y13439D01*
X35346D01*
Y13431D01*
Y13422D01*
X35337D01*
Y13414D01*
X35329D01*
Y13405D01*
X35320D01*
Y13397D01*
Y13388D01*
X35312D01*
Y13380D01*
X35303D01*
Y13371D01*
Y13363D01*
X35295D01*
Y13354D01*
X35286D01*
Y13346D01*
Y13337D01*
X35278D01*
Y13329D01*
Y13320D01*
X35269D01*
Y13312D01*
X35261D01*
Y13303D01*
Y13295D01*
X35253D01*
Y13286D01*
X35244D01*
Y13278D01*
Y13269D01*
X35236D01*
Y13261D01*
Y13253D01*
X35227D01*
Y13244D01*
Y13236D01*
X35219D01*
Y13227D01*
X35210D01*
Y13219D01*
Y13210D01*
X35193D01*
Y13219D01*
Y13227D01*
X35185D01*
Y13236D01*
X35176D01*
Y13244D01*
X35168D01*
Y13253D01*
X35159D01*
Y13261D01*
X35151D01*
Y13269D01*
X35142D01*
Y13278D01*
Y13286D01*
X35134D01*
Y13295D01*
X35125D01*
Y13303D01*
X35117D01*
Y13312D01*
X35108D01*
Y13320D01*
X35100D01*
Y13329D01*
X35092D01*
Y13337D01*
X35083D01*
Y13346D01*
Y13354D01*
X35075D01*
Y13363D01*
X35066D01*
Y13371D01*
X35058D01*
Y13380D01*
X35049D01*
Y13388D01*
X35041D01*
Y13397D01*
X35032D01*
Y13405D01*
X35024D01*
Y13414D01*
X35015D01*
Y13422D01*
X35007D01*
Y13431D01*
X34998D01*
Y13439D01*
X34990D01*
Y13447D01*
X34981D01*
Y13456D01*
X34973D01*
Y13464D01*
X34964D01*
Y13473D01*
X34956D01*
Y13481D01*
X34947D01*
Y13490D01*
X34939D01*
Y13498D01*
X34930D01*
Y13507D01*
X34922D01*
Y13515D01*
X34914D01*
Y13524D01*
X34905D01*
Y13532D01*
X34897D01*
Y13541D01*
X34888D01*
Y13549D01*
X34880D01*
Y13558D01*
X34871D01*
Y13566D01*
X34863D01*
Y13575D01*
X34854D01*
Y13583D01*
X34837D01*
Y13592D01*
X34829D01*
Y13600D01*
X34820D01*
Y13608D01*
X34812D01*
Y13617D01*
X34803D01*
Y13625D01*
X34795D01*
Y13634D01*
X34778D01*
Y13642D01*
X34769D01*
Y13651D01*
X34761D01*
Y13659D01*
X34753D01*
Y13668D01*
X34744D01*
Y13676D01*
X34736D01*
Y13685D01*
X34719D01*
Y13693D01*
X34710D01*
Y13702D01*
X34693D01*
Y13710D01*
X34685D01*
Y13719D01*
X34676D01*
Y13727D01*
X34659D01*
Y13736D01*
X34651D01*
Y13744D01*
X34642D01*
Y13753D01*
X34625D01*
Y13761D01*
X34617D01*
Y13770D01*
X34600D01*
Y13778D01*
X34591D01*
Y13786D01*
X34583D01*
Y13795D01*
X34566D01*
Y13803D01*
X34558D01*
Y13812D01*
X34541D01*
Y13820D01*
X34524D01*
Y13829D01*
X34515D01*
Y13837D01*
X34498D01*
Y13846D01*
X34481D01*
Y13854D01*
X34473D01*
Y13863D01*
X34447D01*
Y13871D01*
X34439D01*
Y13880D01*
X34422D01*
Y13888D01*
X34397D01*
Y13897D01*
X34371D01*
Y13905D01*
X34354D01*
Y13914D01*
X34346D01*
Y13922D01*
X34354D01*
Y13931D01*
X34371D01*
Y13939D01*
X34388D01*
Y13947D01*
X34397D01*
Y13956D01*
X34413D01*
Y13964D01*
X34422D01*
Y13973D01*
X34439D01*
Y13981D01*
X34456D01*
Y13990D01*
X34473D01*
Y13998D01*
X34481D01*
Y14007D01*
X34498D01*
Y14015D01*
X34507D01*
Y14024D01*
X34524D01*
Y14032D01*
X34541D01*
Y14041D01*
X34549D01*
Y14049D01*
X34566D01*
Y14058D01*
X34583D01*
Y14066D01*
X34591D01*
Y14075D01*
X34608D01*
Y14083D01*
X34617D01*
Y14092D01*
X34634D01*
Y14100D01*
X34651D01*
Y14109D01*
X34668D01*
Y14117D01*
X34676D01*
Y14125D01*
X34693D01*
Y14134D01*
X34710D01*
Y14142D01*
X34719D01*
Y14151D01*
X34736D01*
Y14159D01*
X34753D01*
Y14168D01*
X34761D01*
Y14176D01*
X34778D01*
Y14185D01*
X34786D01*
Y14193D01*
X34803D01*
Y14202D01*
X34820D01*
Y14210D01*
X34829D01*
Y14219D01*
X34846D01*
Y14227D01*
X34863D01*
Y14236D01*
X34880D01*
Y14244D01*
X34888D01*
Y14253D01*
X34897D01*
Y14244D01*
X34905D01*
Y14236D01*
Y14227D01*
X34914D01*
Y14219D01*
Y14210D01*
X34922D01*
Y14202D01*
Y14193D01*
X34930D01*
Y14185D01*
Y14176D01*
X34939D01*
Y14168D01*
Y14159D01*
X34947D01*
Y14151D01*
Y14142D01*
X34956D01*
Y14134D01*
Y14125D01*
X34964D01*
Y14117D01*
X34973D01*
Y14109D01*
Y14100D01*
X34981D01*
Y14092D01*
Y14083D01*
X34990D01*
Y14075D01*
Y14066D01*
X34998D01*
Y14058D01*
Y14049D01*
X35007D01*
Y14041D01*
Y14032D01*
X35015D01*
Y14024D01*
Y14015D01*
X35024D01*
Y14007D01*
Y13998D01*
X35032D01*
Y13990D01*
Y13981D01*
X35041D01*
Y13973D01*
Y13964D01*
X35049D01*
Y13956D01*
Y13947D01*
X35058D01*
Y13939D01*
Y13931D01*
X35066D01*
Y13922D01*
Y13914D01*
X35075D01*
Y13905D01*
Y13897D01*
X35083D01*
Y13888D01*
Y13880D01*
X35092D01*
Y13871D01*
X35100D01*
Y13863D01*
Y13854D01*
X35108D01*
Y13846D01*
Y13837D01*
Y13829D01*
X35117D01*
Y13820D01*
X35125D01*
Y13812D01*
Y13803D01*
X35134D01*
Y13795D01*
Y13786D01*
X35142D01*
Y13778D01*
Y13770D01*
X35151D01*
Y13761D01*
Y13753D01*
X35159D01*
Y13744D01*
Y13736D01*
X35176D01*
Y13744D01*
Y13753D01*
X35185D01*
Y13761D01*
X35193D01*
Y13770D01*
Y13778D01*
Y13786D01*
X35202D01*
Y13795D01*
Y13803D01*
X35210D01*
Y13812D01*
Y13820D01*
X35219D01*
Y13829D01*
Y13837D01*
X35227D01*
Y13846D01*
Y13854D01*
Y13863D01*
X35236D01*
Y13871D01*
X35244D01*
Y13880D01*
Y13888D01*
Y13897D01*
X35253D01*
Y13905D01*
Y13914D01*
X35261D01*
Y13922D01*
Y13931D01*
X35269D01*
Y13939D01*
Y13947D01*
X35278D01*
Y13956D01*
X35286D01*
Y13964D01*
Y13973D01*
X35295D01*
Y13981D01*
Y13990D01*
X35303D01*
Y13998D01*
Y14007D01*
X35312D01*
Y14015D01*
Y14024D01*
X35320D01*
Y14032D01*
Y14041D01*
X35329D01*
Y14049D01*
Y14058D01*
X35337D01*
Y14066D01*
Y14075D01*
X35346D01*
Y14083D01*
X35354D01*
Y14092D01*
Y14100D01*
X35363D01*
Y14109D01*
Y14117D01*
X35371D01*
Y14125D01*
Y14134D01*
X35380D01*
Y14142D01*
X35388D01*
Y14151D01*
Y14159D01*
X35397D01*
Y14168D01*
Y14176D01*
X35405D01*
Y14185D01*
Y14193D01*
X35414D01*
Y14202D01*
X35422D01*
Y14210D01*
Y14219D01*
X35431D01*
Y14227D01*
Y14236D01*
X35439D01*
Y14244D01*
Y14253D01*
X35447D01*
Y14261D01*
X35456D01*
Y14270D01*
X35464D01*
Y14278D01*
Y14287D01*
X35473D01*
Y14295D01*
Y14303D01*
X35481D01*
Y14312D01*
Y14320D01*
X35490D01*
Y14329D01*
X35498D01*
Y14337D01*
Y14346D01*
X35507D01*
Y14354D01*
X35515D01*
Y14363D01*
Y14371D01*
X35524D01*
Y14380D01*
X35532D01*
Y14388D01*
Y14397D01*
X35541D01*
Y14405D01*
X35549D01*
Y14414D01*
Y14422D01*
X35558D01*
Y14431D01*
X35566D01*
Y14439D01*
X35575D01*
Y14448D01*
Y14456D01*
X35583D01*
Y14464D01*
X35592D01*
Y14473D01*
Y14481D01*
X35600D01*
Y14490D01*
X35608D01*
Y14498D01*
X35617D01*
Y14507D01*
Y14515D01*
X35625D01*
Y14524D01*
X35634D01*
Y14532D01*
Y14541D01*
X35642D01*
Y14549D01*
X35651D01*
Y14558D01*
X35659D01*
Y14566D01*
Y14575D01*
X35668D01*
Y14583D01*
X35676D01*
Y14592D01*
X35685D01*
Y14600D01*
Y14609D01*
X35693D01*
Y14617D01*
X35702D01*
Y14626D01*
X35710D01*
Y14634D01*
X35719D01*
Y14642D01*
X35727D01*
Y14651D01*
Y14659D01*
X35736D01*
Y14668D01*
X35744D01*
Y14676D01*
X35753D01*
Y14685D01*
X35761D01*
Y14693D01*
Y14702D01*
X35770D01*
Y14710D01*
X35778D01*
Y14719D01*
X35786D01*
Y14727D01*
X35795D01*
Y14736D01*
X35803D01*
Y14744D01*
X35812D01*
Y14753D01*
X35820D01*
Y14761D01*
X35829D01*
Y14770D01*
Y14778D01*
X35837D01*
Y14787D01*
X35846D01*
Y14795D01*
X35854D01*
Y14803D01*
X35863D01*
Y14812D01*
X35871D01*
Y14820D01*
X35880D01*
Y14829D01*
X35888D01*
Y14837D01*
X35897D01*
Y14846D01*
X35905D01*
Y14854D01*
X35914D01*
Y14863D01*
X35922D01*
Y14871D01*
X35931D01*
Y14880D01*
X35939D01*
Y14888D01*
X35947D01*
Y14897D01*
X35956D01*
Y14905D01*
X35973D01*
Y14914D01*
X35981D01*
Y14922D01*
X35990D01*
Y14931D01*
X35998D01*
Y14939D01*
X36007D01*
Y14948D01*
X36015D01*
Y14956D01*
X36024D01*
Y14964D01*
X36041D01*
Y14973D01*
X36049D01*
Y14981D01*
X36058D01*
Y14990D01*
X36066D01*
Y14998D01*
X36075D01*
Y15007D01*
X36092D01*
Y15015D01*
X36100D01*
Y15024D01*
X36109D01*
Y15032D01*
X36117D01*
Y15041D01*
X36134D01*
Y15049D01*
X36142D01*
Y15058D01*
X36159D01*
Y15066D01*
X36168D01*
Y15075D01*
X36185D01*
Y15083D01*
X36193D01*
Y15092D01*
X36210D01*
Y15100D01*
X36219D01*
Y15109D01*
X36236D01*
Y15117D01*
X36253D01*
Y15126D01*
X36261D01*
Y15134D01*
X36278D01*
Y15142D01*
X36295D01*
Y15151D01*
X36303D01*
Y15142D01*
D02*
G37*
G36*
X36270Y13269D02*
X36303D01*
Y13261D01*
X36329D01*
Y13253D01*
X36346D01*
Y13244D01*
X36363D01*
Y13236D01*
X36371D01*
Y13227D01*
X36380D01*
Y13219D01*
X36388D01*
Y13210D01*
Y13202D01*
X36397D01*
Y13193D01*
Y13185D01*
X36405D01*
Y13176D01*
Y13168D01*
X36414D01*
Y13159D01*
Y13151D01*
Y13142D01*
Y13134D01*
X36337D01*
Y13125D01*
X36278D01*
Y13134D01*
X36270D01*
Y13142D01*
Y13151D01*
Y13159D01*
X36261D01*
Y13168D01*
X36253D01*
Y13176D01*
X36236D01*
Y13185D01*
X36210D01*
Y13193D01*
X36185D01*
Y13185D01*
X36168D01*
Y13176D01*
X36159D01*
Y13168D01*
X36151D01*
Y13159D01*
X36142D01*
Y13151D01*
Y13142D01*
X36151D01*
Y13134D01*
X36159D01*
Y13125D01*
X36168D01*
Y13117D01*
X36193D01*
Y13108D01*
X36236D01*
Y13100D01*
X36261D01*
Y13092D01*
X36295D01*
Y13083D01*
X36320D01*
Y13075D01*
X36346D01*
Y13066D01*
X36363D01*
Y13058D01*
X36371D01*
Y13049D01*
X36388D01*
Y13041D01*
X36397D01*
Y13032D01*
X36405D01*
Y13024D01*
Y13015D01*
X36414D01*
Y13007D01*
X36422D01*
Y12998D01*
Y12990D01*
Y12981D01*
X36431D01*
Y12973D01*
Y12964D01*
Y12956D01*
Y12947D01*
Y12939D01*
Y12931D01*
Y12922D01*
Y12914D01*
Y12905D01*
Y12897D01*
X36422D01*
Y12888D01*
Y12880D01*
X36414D01*
Y12871D01*
Y12863D01*
X36405D01*
Y12854D01*
Y12846D01*
X36397D01*
Y12837D01*
X36388D01*
Y12829D01*
X36380D01*
Y12820D01*
X36371D01*
Y12812D01*
X36354D01*
Y12803D01*
X36337D01*
Y12795D01*
X36320D01*
Y12786D01*
X36286D01*
Y12778D01*
X36134D01*
Y12786D01*
X36100D01*
Y12795D01*
X36083D01*
Y12803D01*
X36066D01*
Y12812D01*
X36049D01*
Y12820D01*
X36041D01*
Y12829D01*
X36032D01*
Y12837D01*
Y12846D01*
X36024D01*
Y12854D01*
X36015D01*
Y12863D01*
Y12871D01*
X36007D01*
Y12880D01*
X35998D01*
Y12888D01*
Y12897D01*
Y12905D01*
Y12914D01*
X35990D01*
Y12922D01*
Y12931D01*
Y12939D01*
X35998D01*
Y12947D01*
X36134D01*
Y12939D01*
Y12931D01*
Y12922D01*
X36142D01*
Y12914D01*
Y12905D01*
X36151D01*
Y12897D01*
X36159D01*
Y12888D01*
X36168D01*
Y12880D01*
X36185D01*
Y12871D01*
X36253D01*
Y12880D01*
X36270D01*
Y12888D01*
X36278D01*
Y12897D01*
X36286D01*
Y12905D01*
Y12914D01*
Y12922D01*
Y12931D01*
Y12939D01*
X36278D01*
Y12947D01*
Y12956D01*
X36261D01*
Y12964D01*
X36244D01*
Y12973D01*
X36219D01*
Y12981D01*
X36185D01*
Y12990D01*
X36151D01*
Y12998D01*
X36125D01*
Y13007D01*
X36109D01*
Y13015D01*
X36083D01*
Y13024D01*
X36075D01*
Y13032D01*
X36058D01*
Y13041D01*
X36049D01*
Y13049D01*
X36041D01*
Y13058D01*
X36032D01*
Y13066D01*
X36024D01*
Y13075D01*
Y13083D01*
X36015D01*
Y13092D01*
Y13100D01*
Y13108D01*
Y13117D01*
X36007D01*
Y13125D01*
Y13134D01*
Y13142D01*
Y13151D01*
X36015D01*
Y13159D01*
Y13168D01*
Y13176D01*
Y13185D01*
X36024D01*
Y13193D01*
Y13202D01*
X36032D01*
Y13210D01*
Y13219D01*
X36041D01*
Y13227D01*
X36049D01*
Y13236D01*
X36066D01*
Y13244D01*
X36075D01*
Y13253D01*
X36092D01*
Y13261D01*
X36117D01*
Y13269D01*
X36168D01*
Y13278D01*
X36270D01*
Y13269D01*
D02*
G37*
G36*
X35914Y13261D02*
Y13253D01*
Y13244D01*
Y13236D01*
Y13227D01*
Y13219D01*
Y13210D01*
Y13202D01*
Y13193D01*
Y13185D01*
Y13176D01*
Y13168D01*
Y13159D01*
Y13151D01*
Y13142D01*
Y13134D01*
Y13125D01*
Y13117D01*
Y13108D01*
Y13100D01*
Y13092D01*
Y13083D01*
Y13075D01*
Y13066D01*
Y13058D01*
Y13049D01*
Y13041D01*
Y13032D01*
Y13024D01*
Y13015D01*
Y13007D01*
Y12998D01*
Y12990D01*
Y12981D01*
Y12973D01*
Y12964D01*
Y12956D01*
Y12947D01*
Y12939D01*
Y12931D01*
Y12922D01*
Y12914D01*
Y12905D01*
Y12897D01*
Y12888D01*
Y12880D01*
Y12871D01*
Y12863D01*
Y12854D01*
Y12846D01*
Y12837D01*
Y12829D01*
Y12820D01*
Y12812D01*
Y12803D01*
Y12795D01*
Y12786D01*
X35761D01*
Y12795D01*
Y12803D01*
Y12812D01*
Y12820D01*
Y12829D01*
Y12837D01*
Y12846D01*
Y12854D01*
Y12863D01*
Y12871D01*
Y12880D01*
Y12888D01*
Y12897D01*
Y12905D01*
Y12914D01*
Y12922D01*
Y12931D01*
Y12939D01*
Y12947D01*
Y12956D01*
Y12964D01*
Y12973D01*
Y12981D01*
X35600D01*
Y12973D01*
Y12964D01*
Y12956D01*
Y12947D01*
Y12939D01*
Y12931D01*
Y12922D01*
Y12914D01*
Y12905D01*
Y12897D01*
Y12888D01*
Y12880D01*
Y12871D01*
Y12863D01*
Y12854D01*
Y12846D01*
Y12837D01*
Y12829D01*
Y12820D01*
Y12812D01*
Y12803D01*
Y12795D01*
Y12786D01*
X35447D01*
Y12795D01*
Y12803D01*
Y12812D01*
Y12820D01*
Y12829D01*
Y12837D01*
Y12846D01*
Y12854D01*
Y12863D01*
Y12871D01*
Y12880D01*
Y12888D01*
Y12897D01*
Y12905D01*
Y12914D01*
Y12922D01*
Y12931D01*
Y12939D01*
Y12947D01*
Y12956D01*
Y12964D01*
Y12973D01*
Y12981D01*
Y12990D01*
Y12998D01*
Y13007D01*
Y13015D01*
Y13024D01*
Y13032D01*
Y13041D01*
Y13049D01*
Y13058D01*
Y13066D01*
Y13075D01*
Y13083D01*
Y13092D01*
Y13100D01*
Y13108D01*
Y13117D01*
Y13125D01*
Y13134D01*
Y13142D01*
Y13151D01*
Y13159D01*
Y13168D01*
Y13176D01*
Y13185D01*
Y13193D01*
Y13202D01*
Y13210D01*
Y13219D01*
Y13227D01*
Y13236D01*
Y13244D01*
Y13253D01*
Y13261D01*
Y13269D01*
X35600D01*
Y13261D01*
Y13253D01*
Y13244D01*
Y13236D01*
Y13227D01*
Y13219D01*
Y13210D01*
Y13202D01*
Y13193D01*
Y13185D01*
Y13176D01*
Y13168D01*
Y13159D01*
Y13151D01*
Y13142D01*
Y13134D01*
Y13125D01*
Y13117D01*
Y13108D01*
Y13100D01*
X35761D01*
Y13108D01*
Y13117D01*
Y13125D01*
Y13134D01*
Y13142D01*
Y13151D01*
Y13159D01*
Y13168D01*
Y13176D01*
Y13185D01*
Y13193D01*
Y13202D01*
Y13210D01*
Y13219D01*
Y13227D01*
Y13236D01*
Y13244D01*
X35770D01*
Y13253D01*
X35761D01*
Y13261D01*
X35770D01*
Y13269D01*
X35914D01*
Y13261D01*
D02*
G37*
G36*
X34778D02*
X34820D01*
Y13253D01*
X34837D01*
Y13244D01*
X34846D01*
Y13236D01*
X34863D01*
Y13227D01*
Y13219D01*
X34871D01*
Y13210D01*
X34880D01*
Y13202D01*
Y13193D01*
X34888D01*
Y13185D01*
Y13176D01*
X34897D01*
Y13168D01*
Y13159D01*
Y13151D01*
Y13142D01*
Y13134D01*
Y13125D01*
Y13117D01*
Y13108D01*
Y13100D01*
Y13092D01*
X34888D01*
Y13083D01*
Y13075D01*
X34880D01*
Y13066D01*
Y13058D01*
X34871D01*
Y13049D01*
X34863D01*
Y13041D01*
X34854D01*
Y13032D01*
X34846D01*
Y13024D01*
X34837D01*
Y13015D01*
X34820D01*
Y13007D01*
X34795D01*
Y12998D01*
Y12990D01*
X34803D01*
Y12981D01*
X34820D01*
Y12973D01*
X34829D01*
Y12964D01*
X34837D01*
Y12956D01*
X34846D01*
Y12947D01*
Y12939D01*
X34854D01*
Y12931D01*
X34863D01*
Y12922D01*
Y12914D01*
X34871D01*
Y12905D01*
Y12897D01*
X34880D01*
Y12888D01*
Y12880D01*
X34888D01*
Y12871D01*
Y12863D01*
X34897D01*
Y12854D01*
Y12846D01*
X34905D01*
Y12837D01*
X34914D01*
Y12829D01*
Y12820D01*
X34922D01*
Y12812D01*
Y12803D01*
X34930D01*
Y12795D01*
Y12786D01*
X34761D01*
Y12795D01*
Y12803D01*
X34753D01*
Y12812D01*
Y12820D01*
X34744D01*
Y12829D01*
X34736D01*
Y12837D01*
Y12846D01*
X34727D01*
Y12854D01*
Y12863D01*
X34719D01*
Y12871D01*
Y12880D01*
X34710D01*
Y12888D01*
Y12897D01*
X34702D01*
Y12905D01*
Y12914D01*
X34693D01*
Y12922D01*
X34685D01*
Y12931D01*
Y12939D01*
X34676D01*
Y12947D01*
Y12956D01*
X34668D01*
Y12964D01*
X34659D01*
Y12973D01*
X34642D01*
Y12981D01*
X34608D01*
Y12973D01*
Y12964D01*
Y12956D01*
Y12947D01*
Y12939D01*
Y12931D01*
Y12922D01*
Y12914D01*
Y12905D01*
Y12897D01*
Y12888D01*
Y12880D01*
Y12871D01*
Y12863D01*
Y12854D01*
Y12846D01*
Y12837D01*
Y12829D01*
Y12820D01*
Y12812D01*
Y12803D01*
Y12795D01*
Y12786D01*
X34456D01*
Y12795D01*
Y12803D01*
Y12812D01*
Y12820D01*
Y12829D01*
Y12837D01*
Y12846D01*
Y12854D01*
Y12863D01*
Y12871D01*
Y12880D01*
Y12888D01*
Y12897D01*
Y12905D01*
Y12914D01*
Y12922D01*
Y12931D01*
Y12939D01*
Y12947D01*
Y12956D01*
Y12964D01*
Y12973D01*
Y12981D01*
Y12990D01*
Y12998D01*
Y13007D01*
Y13015D01*
Y13024D01*
Y13032D01*
Y13041D01*
Y13049D01*
Y13058D01*
Y13066D01*
Y13075D01*
Y13083D01*
Y13092D01*
Y13100D01*
Y13108D01*
Y13117D01*
Y13125D01*
Y13134D01*
Y13142D01*
Y13151D01*
Y13159D01*
Y13168D01*
Y13176D01*
Y13185D01*
Y13193D01*
Y13202D01*
Y13210D01*
Y13219D01*
Y13227D01*
Y13236D01*
Y13244D01*
Y13253D01*
Y13261D01*
Y13269D01*
X34778D01*
Y13261D01*
D02*
G37*
G36*
X35219Y13134D02*
X35253D01*
Y13125D01*
X35278D01*
Y13117D01*
X35286D01*
Y13108D01*
X35303D01*
Y13100D01*
X35312D01*
Y13092D01*
X35320D01*
Y13083D01*
X35329D01*
Y13075D01*
X35337D01*
Y13066D01*
Y13058D01*
X35346D01*
Y13049D01*
X35354D01*
Y13041D01*
Y13032D01*
Y13024D01*
X35363D01*
Y13015D01*
Y13007D01*
Y12998D01*
Y12990D01*
X35371D01*
Y12981D01*
Y12973D01*
Y12964D01*
Y12956D01*
Y12947D01*
Y12939D01*
Y12931D01*
Y12922D01*
X35363D01*
Y12914D01*
Y12905D01*
Y12897D01*
Y12888D01*
X35354D01*
Y12880D01*
Y12871D01*
X35346D01*
Y12863D01*
X35337D01*
Y12854D01*
Y12846D01*
X35329D01*
Y12837D01*
X35320D01*
Y12829D01*
X35312D01*
Y12820D01*
X35303D01*
Y12812D01*
X35286D01*
Y12803D01*
X35269D01*
Y12795D01*
X35253D01*
Y12786D01*
X35227D01*
Y12778D01*
X35108D01*
Y12786D01*
X35075D01*
Y12795D01*
X35058D01*
Y12803D01*
X35041D01*
Y12812D01*
X35032D01*
Y12820D01*
X35024D01*
Y12829D01*
X35015D01*
Y12837D01*
X35007D01*
Y12846D01*
X34998D01*
Y12854D01*
X34990D01*
Y12863D01*
X34981D01*
Y12871D01*
Y12880D01*
Y12888D01*
X34973D01*
Y12897D01*
Y12905D01*
Y12914D01*
X34964D01*
Y12922D01*
Y12931D01*
Y12939D01*
Y12947D01*
Y12956D01*
Y12964D01*
Y12973D01*
Y12981D01*
Y12990D01*
Y12998D01*
Y13007D01*
X34973D01*
Y13015D01*
Y13024D01*
Y13032D01*
X34981D01*
Y13041D01*
Y13049D01*
X34990D01*
Y13058D01*
Y13066D01*
X34998D01*
Y13075D01*
X35007D01*
Y13083D01*
X35015D01*
Y13092D01*
X35024D01*
Y13100D01*
X35032D01*
Y13108D01*
X35049D01*
Y13117D01*
X35058D01*
Y13125D01*
X35083D01*
Y13134D01*
X35117D01*
Y13142D01*
X35219D01*
Y13134D01*
D02*
G37*
G36*
X36405Y12634D02*
X36414D01*
Y12625D01*
Y12617D01*
Y12608D01*
Y12600D01*
Y12592D01*
X36346D01*
Y12583D01*
Y12575D01*
Y12566D01*
Y12558D01*
Y12549D01*
Y12541D01*
Y12532D01*
Y12524D01*
Y12515D01*
Y12507D01*
Y12498D01*
Y12490D01*
Y12481D01*
Y12473D01*
Y12464D01*
Y12456D01*
Y12447D01*
Y12439D01*
Y12430D01*
X36286D01*
Y12439D01*
Y12447D01*
Y12456D01*
Y12464D01*
Y12473D01*
Y12481D01*
Y12490D01*
Y12498D01*
Y12507D01*
Y12515D01*
Y12524D01*
Y12532D01*
Y12541D01*
Y12549D01*
Y12558D01*
Y12566D01*
Y12575D01*
Y12583D01*
X36278D01*
Y12592D01*
X36219D01*
Y12600D01*
Y12608D01*
Y12617D01*
Y12625D01*
Y12634D01*
Y12642D01*
X36236D01*
Y12634D01*
X36244D01*
Y12642D01*
X36405D01*
Y12634D01*
D02*
G37*
G36*
X36185D02*
Y12625D01*
Y12617D01*
Y12608D01*
Y12600D01*
Y12592D01*
Y12583D01*
Y12575D01*
Y12566D01*
Y12558D01*
Y12549D01*
Y12541D01*
Y12532D01*
Y12524D01*
Y12515D01*
Y12507D01*
Y12498D01*
Y12490D01*
Y12481D01*
Y12473D01*
Y12464D01*
Y12456D01*
Y12447D01*
Y12439D01*
Y12430D01*
X36125D01*
Y12439D01*
X36117D01*
Y12447D01*
X36109D01*
Y12456D01*
Y12464D01*
X36100D01*
Y12473D01*
X36092D01*
Y12481D01*
Y12490D01*
X36083D01*
Y12498D01*
X36075D01*
Y12507D01*
Y12515D01*
X36066D01*
Y12524D01*
X36058D01*
Y12532D01*
X36049D01*
Y12524D01*
Y12515D01*
Y12507D01*
Y12498D01*
Y12490D01*
Y12481D01*
Y12473D01*
Y12464D01*
Y12456D01*
Y12447D01*
Y12439D01*
Y12430D01*
X35990D01*
Y12439D01*
Y12447D01*
Y12456D01*
Y12464D01*
Y12473D01*
Y12481D01*
Y12490D01*
Y12498D01*
Y12507D01*
Y12515D01*
Y12524D01*
Y12532D01*
Y12541D01*
Y12549D01*
Y12558D01*
Y12566D01*
Y12575D01*
Y12583D01*
Y12592D01*
Y12600D01*
Y12608D01*
Y12617D01*
Y12625D01*
Y12634D01*
X35998D01*
Y12642D01*
X36015D01*
Y12634D01*
X36024D01*
Y12642D01*
X36041D01*
Y12634D01*
X36049D01*
Y12625D01*
X36058D01*
Y12617D01*
X36066D01*
Y12608D01*
Y12600D01*
X36075D01*
Y12592D01*
X36083D01*
Y12583D01*
Y12575D01*
X36092D01*
Y12566D01*
X36100D01*
Y12558D01*
X36109D01*
Y12549D01*
Y12541D01*
X36117D01*
Y12532D01*
X36125D01*
Y12541D01*
Y12549D01*
Y12558D01*
Y12566D01*
Y12575D01*
Y12583D01*
Y12592D01*
Y12600D01*
Y12608D01*
Y12617D01*
Y12625D01*
Y12634D01*
X36134D01*
Y12642D01*
X36168D01*
Y12634D01*
X36176D01*
Y12642D01*
X36185D01*
Y12634D01*
D02*
G37*
G36*
X35702D02*
X35710D01*
Y12625D01*
Y12617D01*
Y12608D01*
Y12600D01*
Y12592D01*
Y12583D01*
Y12575D01*
Y12566D01*
Y12558D01*
Y12549D01*
Y12541D01*
Y12532D01*
Y12524D01*
Y12515D01*
Y12507D01*
Y12498D01*
Y12490D01*
Y12481D01*
Y12473D01*
Y12464D01*
Y12456D01*
Y12447D01*
Y12439D01*
Y12430D01*
X35651D01*
Y12439D01*
Y12447D01*
Y12456D01*
X35642D01*
Y12464D01*
X35651D01*
Y12473D01*
Y12481D01*
Y12490D01*
Y12498D01*
Y12507D01*
Y12515D01*
Y12524D01*
Y12532D01*
Y12541D01*
Y12549D01*
Y12558D01*
Y12566D01*
Y12575D01*
Y12583D01*
Y12592D01*
Y12600D01*
Y12608D01*
Y12617D01*
Y12625D01*
Y12634D01*
Y12642D01*
X35685D01*
Y12634D01*
X35693D01*
Y12642D01*
X35702D01*
Y12634D01*
D02*
G37*
G36*
X35507D02*
Y12625D01*
Y12617D01*
Y12608D01*
Y12600D01*
Y12592D01*
Y12583D01*
Y12575D01*
Y12566D01*
Y12558D01*
Y12549D01*
Y12541D01*
Y12532D01*
Y12524D01*
Y12515D01*
Y12507D01*
Y12498D01*
Y12490D01*
X35515D01*
Y12481D01*
X35608D01*
Y12473D01*
Y12464D01*
Y12456D01*
Y12447D01*
X35617D01*
Y12439D01*
X35608D01*
Y12430D01*
X35447D01*
Y12439D01*
Y12447D01*
Y12456D01*
Y12464D01*
Y12473D01*
Y12481D01*
Y12490D01*
Y12498D01*
Y12507D01*
Y12515D01*
Y12524D01*
Y12532D01*
Y12541D01*
Y12549D01*
Y12558D01*
Y12566D01*
Y12575D01*
Y12583D01*
Y12592D01*
Y12600D01*
Y12608D01*
Y12617D01*
Y12625D01*
Y12634D01*
X35456D01*
Y12642D01*
X35464D01*
Y12634D01*
X35473D01*
Y12642D01*
X35490D01*
Y12634D01*
X35498D01*
Y12642D01*
X35507D01*
Y12634D01*
D02*
G37*
G36*
X35185D02*
X35193D01*
Y12625D01*
Y12617D01*
Y12608D01*
Y12600D01*
Y12592D01*
Y12583D01*
Y12575D01*
Y12566D01*
Y12558D01*
Y12549D01*
Y12541D01*
Y12532D01*
Y12524D01*
Y12515D01*
Y12507D01*
Y12498D01*
Y12490D01*
Y12481D01*
Y12473D01*
Y12464D01*
Y12456D01*
Y12447D01*
Y12439D01*
Y12430D01*
X35142D01*
Y12439D01*
Y12447D01*
Y12456D01*
Y12464D01*
Y12473D01*
Y12481D01*
Y12490D01*
Y12498D01*
Y12507D01*
Y12515D01*
Y12524D01*
Y12532D01*
Y12541D01*
Y12549D01*
Y12558D01*
Y12566D01*
X35125D01*
Y12558D01*
Y12549D01*
Y12541D01*
Y12532D01*
Y12524D01*
X35117D01*
Y12515D01*
Y12507D01*
Y12498D01*
Y12490D01*
X35108D01*
Y12481D01*
Y12473D01*
Y12464D01*
Y12456D01*
X35100D01*
Y12447D01*
Y12439D01*
Y12430D01*
X35049D01*
Y12439D01*
Y12447D01*
Y12456D01*
X35041D01*
Y12464D01*
Y12473D01*
Y12481D01*
Y12490D01*
X35032D01*
Y12498D01*
Y12507D01*
Y12515D01*
Y12524D01*
X35024D01*
Y12532D01*
Y12541D01*
Y12549D01*
Y12558D01*
Y12566D01*
X35015D01*
Y12558D01*
X35007D01*
Y12549D01*
Y12541D01*
Y12532D01*
Y12524D01*
Y12515D01*
Y12507D01*
Y12498D01*
Y12490D01*
Y12481D01*
Y12473D01*
Y12464D01*
Y12456D01*
Y12447D01*
Y12439D01*
Y12430D01*
X34964D01*
Y12439D01*
X34956D01*
Y12447D01*
Y12456D01*
Y12464D01*
Y12473D01*
Y12481D01*
Y12490D01*
Y12498D01*
Y12507D01*
Y12515D01*
Y12524D01*
Y12532D01*
Y12541D01*
Y12549D01*
Y12558D01*
Y12566D01*
Y12575D01*
Y12583D01*
Y12592D01*
Y12600D01*
Y12608D01*
Y12617D01*
Y12625D01*
Y12634D01*
X34964D01*
Y12642D01*
X35032D01*
Y12634D01*
X35041D01*
Y12625D01*
X35049D01*
Y12617D01*
Y12608D01*
Y12600D01*
Y12592D01*
X35058D01*
Y12583D01*
Y12575D01*
Y12566D01*
Y12558D01*
X35066D01*
Y12549D01*
Y12541D01*
Y12532D01*
Y12524D01*
X35083D01*
Y12532D01*
Y12541D01*
Y12549D01*
Y12558D01*
X35092D01*
Y12566D01*
Y12575D01*
Y12583D01*
Y12592D01*
X35100D01*
Y12600D01*
Y12608D01*
Y12617D01*
Y12625D01*
X35108D01*
Y12634D01*
X35117D01*
Y12642D01*
X35125D01*
Y12634D01*
X35134D01*
Y12642D01*
X35151D01*
Y12634D01*
X35159D01*
Y12642D01*
X35168D01*
Y12634D01*
X35176D01*
Y12642D01*
X35185D01*
Y12634D01*
D02*
G37*
G36*
X34608D02*
X34634D01*
Y12625D01*
X34651D01*
Y12617D01*
X34659D01*
Y12608D01*
X34668D01*
Y12600D01*
Y12592D01*
X34676D01*
Y12583D01*
Y12575D01*
X34642D01*
Y12566D01*
X34625D01*
Y12575D01*
X34617D01*
Y12583D01*
X34608D01*
Y12592D01*
X34558D01*
Y12583D01*
X34549D01*
Y12575D01*
Y12566D01*
Y12558D01*
X34541D01*
Y12549D01*
Y12541D01*
Y12532D01*
Y12524D01*
Y12515D01*
Y12507D01*
X34549D01*
Y12498D01*
Y12490D01*
X34558D01*
Y12481D01*
X34566D01*
Y12473D01*
X34591D01*
Y12481D01*
X34608D01*
Y12490D01*
X34617D01*
Y12498D01*
Y12507D01*
X34625D01*
Y12515D01*
X34642D01*
Y12507D01*
X34668D01*
Y12498D01*
X34676D01*
Y12490D01*
Y12481D01*
X34668D01*
Y12473D01*
Y12464D01*
X34659D01*
Y12456D01*
X34651D01*
Y12447D01*
X34642D01*
Y12439D01*
X34625D01*
Y12430D01*
X34541D01*
Y12439D01*
X34524D01*
Y12447D01*
X34515D01*
Y12456D01*
X34507D01*
Y12464D01*
X34498D01*
Y12473D01*
X34490D01*
Y12481D01*
Y12490D01*
X34481D01*
Y12498D01*
Y12507D01*
Y12515D01*
Y12524D01*
Y12532D01*
Y12541D01*
Y12549D01*
Y12558D01*
Y12566D01*
Y12575D01*
Y12583D01*
X34490D01*
Y12592D01*
Y12600D01*
X34498D01*
Y12608D01*
X34507D01*
Y12617D01*
X34515D01*
Y12625D01*
X34524D01*
Y12634D01*
X34558D01*
Y12642D01*
X34608D01*
Y12634D01*
D02*
G37*
G36*
X35354D02*
X35388D01*
Y12625D01*
X35397D01*
Y12617D01*
X35405D01*
Y12608D01*
Y12600D01*
X35414D01*
Y12592D01*
Y12583D01*
Y12575D01*
Y12566D01*
Y12558D01*
Y12549D01*
X35405D01*
Y12541D01*
Y12532D01*
X35397D01*
Y12524D01*
X35380D01*
Y12515D01*
X35346D01*
Y12507D01*
X35337D01*
Y12515D01*
X35320D01*
Y12507D01*
X35303D01*
Y12498D01*
Y12490D01*
Y12481D01*
Y12473D01*
Y12464D01*
Y12456D01*
Y12447D01*
Y12439D01*
Y12430D01*
X35236D01*
Y12439D01*
Y12447D01*
Y12456D01*
Y12464D01*
Y12473D01*
Y12481D01*
Y12490D01*
Y12498D01*
Y12507D01*
Y12515D01*
Y12524D01*
Y12532D01*
Y12541D01*
Y12549D01*
Y12558D01*
Y12566D01*
Y12575D01*
Y12583D01*
Y12592D01*
Y12600D01*
Y12608D01*
Y12617D01*
Y12625D01*
Y12634D01*
X35244D01*
Y12642D01*
X35354D01*
Y12634D01*
D02*
G37*
G36*
X35863D02*
X35888D01*
Y12625D01*
X35897D01*
Y12617D01*
Y12608D01*
X35905D01*
Y12600D01*
Y12592D01*
Y12583D01*
X35914D01*
Y12575D01*
Y12566D01*
Y12558D01*
X35922D01*
Y12549D01*
Y12541D01*
Y12532D01*
X35931D01*
Y12524D01*
Y12515D01*
Y12507D01*
X35939D01*
Y12498D01*
Y12490D01*
X35947D01*
Y12481D01*
Y12473D01*
Y12464D01*
X35956D01*
Y12456D01*
Y12447D01*
X35964D01*
Y12439D01*
Y12430D01*
X35897D01*
Y12439D01*
Y12447D01*
Y12456D01*
X35888D01*
Y12464D01*
X35812D01*
Y12456D01*
X35803D01*
Y12447D01*
Y12439D01*
Y12430D01*
X35736D01*
Y12439D01*
X35744D01*
Y12447D01*
Y12456D01*
Y12464D01*
X35753D01*
Y12473D01*
Y12481D01*
Y12490D01*
X35761D01*
Y12498D01*
Y12507D01*
X35770D01*
Y12515D01*
Y12524D01*
Y12532D01*
X35778D01*
Y12541D01*
Y12549D01*
Y12558D01*
X35786D01*
Y12566D01*
Y12575D01*
X35795D01*
Y12583D01*
Y12592D01*
Y12600D01*
X35803D01*
Y12608D01*
Y12617D01*
Y12625D01*
X35812D01*
Y12634D01*
X35820D01*
Y12642D01*
X35863D01*
Y12634D01*
D02*
G37*
G36*
X34837D02*
X34871D01*
Y12625D01*
X34880D01*
Y12617D01*
X34897D01*
Y12608D01*
Y12600D01*
X34905D01*
Y12592D01*
X34914D01*
Y12583D01*
Y12575D01*
Y12566D01*
Y12558D01*
X34922D01*
Y12549D01*
Y12541D01*
Y12532D01*
Y12524D01*
Y12515D01*
X34914D01*
Y12507D01*
Y12498D01*
Y12490D01*
Y12481D01*
X34905D01*
Y12473D01*
X34897D01*
Y12464D01*
Y12456D01*
X34888D01*
Y12447D01*
X34871D01*
Y12439D01*
X34854D01*
Y12430D01*
X34769D01*
Y12439D01*
X34753D01*
Y12447D01*
X34736D01*
Y12456D01*
X34727D01*
Y12464D01*
X34719D01*
Y12473D01*
Y12481D01*
X34710D01*
Y12490D01*
Y12498D01*
Y12507D01*
Y12515D01*
X34702D01*
Y12524D01*
Y12532D01*
Y12541D01*
Y12549D01*
Y12558D01*
Y12566D01*
X34710D01*
Y12575D01*
Y12583D01*
Y12592D01*
X34719D01*
Y12600D01*
X34727D01*
Y12608D01*
Y12617D01*
X34736D01*
Y12625D01*
X34753D01*
Y12634D01*
X34778D01*
Y12642D01*
X34837D01*
Y12634D01*
D02*
G37*
G36*
X12669Y21450D02*
X5331D01*
Y22350D01*
X12669D01*
Y21450D01*
D02*
G37*
G36*
X14085Y30245D02*
X9995D01*
Y31115D01*
X14085D01*
Y30245D01*
D02*
G37*
G36*
X28049Y24300D02*
X27904D01*
Y24584D01*
X28049D01*
Y24300D01*
D02*
G37*
G36*
X24347Y24520D02*
X24478D01*
Y24432D01*
X24347D01*
Y24300D01*
X24257D01*
Y24432D01*
X24126D01*
Y24520D01*
X24257D01*
Y24652D01*
X24347D01*
Y24520D01*
D02*
G37*
G36*
X10853Y4514D02*
X10859Y4513D01*
X10860D01*
X10863Y4513D01*
X10867Y4512D01*
X10871Y4510D01*
X10871Y4510D01*
X10873Y4509D01*
X10875Y4508D01*
X10877Y4506D01*
X10877Y4506D01*
X10878Y4504D01*
X10878Y4503D01*
Y4501D01*
Y3965D01*
X10990D01*
X10992Y3964D01*
X10995Y3963D01*
X10996Y3962D01*
X10997Y3961D01*
X10999Y3959D01*
X11001Y3956D01*
X11001Y3956D01*
X11002Y3954D01*
X11003Y3950D01*
X11004Y3946D01*
X11004Y3945D01*
X11005Y3943D01*
X11005Y3938D01*
Y3932D01*
Y3931D01*
Y3930D01*
Y3928D01*
Y3927D01*
X11005Y3921D01*
X11004Y3916D01*
Y3915D01*
X11003Y3913D01*
X11002Y3910D01*
X11000Y3907D01*
X10999Y3906D01*
X10998Y3905D01*
X10997Y3903D01*
X10995Y3902D01*
X10994D01*
X10992Y3901D01*
X10990Y3901D01*
X10988Y3900D01*
X10667D01*
X10665Y3901D01*
X10663Y3902D01*
X10663Y3902D01*
X10661Y3903D01*
X10660Y3904D01*
X10658Y3907D01*
X10657Y3907D01*
X10657Y3909D01*
X10655Y3913D01*
X10654Y3916D01*
Y3917D01*
Y3917D01*
X10653Y3921D01*
X10653Y3926D01*
Y3932D01*
Y3932D01*
Y3933D01*
Y3935D01*
Y3937D01*
X10653Y3941D01*
X10654Y3946D01*
Y3947D01*
X10654Y3947D01*
X10655Y3950D01*
X10656Y3953D01*
X10657Y3956D01*
X10658Y3957D01*
X10659Y3959D01*
X10660Y3961D01*
X10663Y3963D01*
X10663Y3963D01*
X10665Y3964D01*
X10667Y3964D01*
X10670Y3965D01*
X10797D01*
Y4429D01*
X10678Y4359D01*
X10678D01*
X10677Y4358D01*
X10673Y4356D01*
X10669Y4354D01*
X10664Y4353D01*
X10661D01*
X10658Y4353D01*
X10655Y4355D01*
X10655Y4355D01*
X10654Y4358D01*
X10652Y4361D01*
X10651Y4365D01*
Y4366D01*
Y4366D01*
X10651Y4368D01*
Y4370D01*
X10650Y4376D01*
Y4383D01*
Y4383D01*
Y4384D01*
Y4388D01*
Y4392D01*
X10651Y4396D01*
Y4397D01*
Y4397D01*
X10651Y4400D01*
X10652Y4403D01*
X10652Y4406D01*
X10653Y4407D01*
X10653Y4408D01*
X10657Y4413D01*
X10657Y4413D01*
X10659Y4414D01*
X10661Y4416D01*
X10664Y4418D01*
X10804Y4508D01*
X10805Y4509D01*
X10806Y4509D01*
X10809Y4510D01*
X10809D01*
X10811Y4511D01*
X10813Y4512D01*
X10816Y4513D01*
X10817D01*
X10819Y4513D01*
X10822Y4514D01*
X10827D01*
X10830Y4514D01*
X10847D01*
X10853Y4514D01*
D02*
G37*
%LPC*%
G36*
X34710Y13176D02*
X34608D01*
Y13168D01*
Y13159D01*
Y13151D01*
Y13142D01*
Y13134D01*
Y13125D01*
Y13117D01*
Y13108D01*
Y13100D01*
Y13092D01*
Y13083D01*
Y13075D01*
X34710D01*
Y13083D01*
X34727D01*
Y13092D01*
X34736D01*
Y13100D01*
X34744D01*
Y13108D01*
Y13117D01*
Y13125D01*
Y13134D01*
Y13142D01*
Y13151D01*
X34736D01*
Y13159D01*
X34727D01*
Y13168D01*
X34710D01*
Y13176D01*
D02*
G37*
G36*
X35193Y13049D02*
X35134D01*
Y13041D01*
X35125D01*
Y13032D01*
X35117D01*
Y13024D01*
X35108D01*
Y13015D01*
Y13007D01*
X35100D01*
Y12998D01*
Y12990D01*
Y12981D01*
Y12973D01*
Y12964D01*
Y12956D01*
Y12947D01*
Y12939D01*
Y12931D01*
Y12922D01*
Y12914D01*
X35108D01*
Y12905D01*
Y12897D01*
X35117D01*
Y12888D01*
X35125D01*
Y12880D01*
X35134D01*
Y12871D01*
X35159D01*
Y12863D01*
X35168D01*
Y12871D01*
X35202D01*
Y12880D01*
X35210D01*
Y12888D01*
X35219D01*
Y12897D01*
X35227D01*
Y12905D01*
Y12914D01*
Y12922D01*
Y12931D01*
X35236D01*
Y12939D01*
Y12947D01*
Y12956D01*
Y12964D01*
Y12973D01*
Y12981D01*
Y12990D01*
Y12998D01*
X35227D01*
Y13007D01*
Y13015D01*
Y13024D01*
X35219D01*
Y13032D01*
X35210D01*
Y13041D01*
X35193D01*
Y13049D01*
D02*
G37*
G36*
X35337Y12600D02*
X35303D01*
Y12592D01*
Y12583D01*
Y12575D01*
Y12566D01*
Y12558D01*
Y12549D01*
X35329D01*
Y12558D01*
X35346D01*
Y12566D01*
Y12575D01*
Y12583D01*
Y12592D01*
X35337D01*
Y12600D01*
D02*
G37*
G36*
X35854Y12575D02*
X35846D01*
Y12566D01*
X35837D01*
Y12558D01*
Y12549D01*
Y12541D01*
X35829D01*
Y12532D01*
Y12524D01*
Y12515D01*
Y12507D01*
X35871D01*
Y12515D01*
Y12524D01*
Y12532D01*
X35863D01*
Y12541D01*
Y12549D01*
Y12558D01*
X35854D01*
Y12566D01*
Y12575D01*
D02*
G37*
G36*
X34837Y12592D02*
X34786D01*
Y12583D01*
X34778D01*
Y12575D01*
X34769D01*
Y12566D01*
Y12558D01*
Y12549D01*
Y12541D01*
Y12532D01*
Y12524D01*
Y12515D01*
Y12507D01*
Y12498D01*
X34778D01*
Y12490D01*
X34786D01*
Y12481D01*
X34795D01*
Y12473D01*
X34820D01*
Y12481D01*
X34837D01*
Y12490D01*
X34846D01*
Y12498D01*
Y12507D01*
X34854D01*
Y12515D01*
Y12524D01*
Y12532D01*
Y12541D01*
Y12549D01*
Y12558D01*
Y12566D01*
X34846D01*
Y12575D01*
Y12583D01*
X34837D01*
Y12592D01*
D02*
G37*
G36*
X11183Y22165D02*
X10730D01*
Y21635D01*
D01*
Y21904D01*
X10730Y21890D01*
X10731Y21877D01*
X10733Y21864D01*
X10734Y21851D01*
X10736Y21839D01*
X10739Y21828D01*
X10741Y21817D01*
X10744Y21807D01*
X10746Y21798D01*
X10749Y21790D01*
X10751Y21783D01*
X10753Y21777D01*
X10755Y21773D01*
X10756Y21769D01*
X10757Y21767D01*
X10757Y21767D01*
Y21766D01*
X10762Y21755D01*
X10768Y21744D01*
X10775Y21734D01*
X10781Y21724D01*
X10787Y21716D01*
X10794Y21707D01*
X10800Y21700D01*
X10807Y21694D01*
X10813Y21688D01*
X10818Y21683D01*
X10823Y21679D01*
X10827Y21675D01*
X10831Y21673D01*
X10834Y21670D01*
X10835Y21669D01*
X10836Y21669D01*
X10846Y21663D01*
X10857Y21658D01*
X10868Y21653D01*
X10879Y21649D01*
X10890Y21646D01*
X10901Y21643D01*
X10912Y21641D01*
X10923Y21639D01*
X10933Y21638D01*
X10942Y21637D01*
X10950Y21636D01*
X10957Y21636D01*
X10962D01*
X10965Y21635D01*
X10730D01*
X11183D01*
X10971D01*
X10985Y21636D01*
X10999Y21637D01*
X11013Y21639D01*
X11026Y21642D01*
X11038Y21645D01*
X11049Y21649D01*
X11059Y21653D01*
X11068Y21657D01*
X11077Y21661D01*
X11084Y21665D01*
X11091Y21669D01*
X11096Y21672D01*
X11100Y21675D01*
X11103Y21677D01*
X11105Y21679D01*
X11106Y21679D01*
X11116Y21688D01*
X11125Y21697D01*
X11134Y21707D01*
X11142Y21717D01*
X11149Y21728D01*
X11155Y21739D01*
X11160Y21749D01*
X11165Y21759D01*
X11170Y21769D01*
X11173Y21778D01*
X11176Y21785D01*
X11179Y21793D01*
X11181Y21798D01*
X11182Y21801D01*
X11182Y21803D01*
X11182Y21804D01*
X11183Y21805D01*
X11183Y21806D01*
Y21806D01*
X11115Y21823D01*
X11112Y21811D01*
X11109Y21801D01*
X11105Y21790D01*
X11101Y21781D01*
X11097Y21772D01*
X11092Y21764D01*
X11088Y21757D01*
X11083Y21750D01*
X11079Y21745D01*
X11075Y21740D01*
X11071Y21736D01*
X11068Y21732D01*
X11065Y21729D01*
X11063Y21727D01*
X11062Y21726D01*
X11062Y21726D01*
X11054Y21720D01*
X11046Y21715D01*
X11038Y21711D01*
X11030Y21707D01*
X11022Y21704D01*
X11014Y21702D01*
X11006Y21699D01*
X10998Y21697D01*
X10992Y21696D01*
X10985Y21695D01*
X10979Y21694D01*
X10975Y21694D01*
X10971D01*
X10968Y21693D01*
X10965D01*
X10957Y21694D01*
X10948Y21694D01*
X10940Y21696D01*
X10932Y21697D01*
X10924Y21699D01*
X10917Y21701D01*
X10910Y21703D01*
X10904Y21706D01*
X10898Y21708D01*
X10893Y21710D01*
X10889Y21712D01*
X10885Y21714D01*
X10882Y21715D01*
X10880Y21716D01*
X10878Y21717D01*
X10878Y21717D01*
X10871Y21722D01*
X10864Y21727D01*
X10858Y21733D01*
X10852Y21739D01*
X10847Y21745D01*
X10842Y21751D01*
X10837Y21757D01*
X10833Y21763D01*
X10830Y21768D01*
X10827Y21773D01*
X10824Y21778D01*
X10823Y21782D01*
X10821Y21785D01*
X10820Y21788D01*
X10819Y21790D01*
X10819Y21790D01*
X10816Y21799D01*
X10813Y21809D01*
X10810Y21818D01*
X10808Y21828D01*
X10804Y21847D01*
X10803Y21857D01*
X10802Y21865D01*
X10802Y21873D01*
X10801Y21881D01*
X10801Y21887D01*
X10800Y21893D01*
X10800Y21898D01*
Y21901D01*
Y21903D01*
Y21904D01*
X10800Y21914D01*
X10801Y21923D01*
X10803Y21941D01*
X10804Y21949D01*
X10805Y21957D01*
X10807Y21965D01*
X10808Y21972D01*
X10810Y21979D01*
X10811Y21985D01*
X10812Y21990D01*
X10813Y21994D01*
X10814Y21997D01*
X10815Y22000D01*
X10816Y22002D01*
Y22002D01*
X10819Y22011D01*
X10823Y22019D01*
X10827Y22027D01*
X10832Y22034D01*
X10836Y22041D01*
X10840Y22047D01*
X10845Y22053D01*
X10850Y22058D01*
X10854Y22063D01*
X10858Y22067D01*
X10862Y22070D01*
X10865Y22073D01*
X10868Y22075D01*
X10870Y22077D01*
X10871Y22078D01*
X10871Y22078D01*
X10879Y22083D01*
X10887Y22087D01*
X10896Y22091D01*
X10904Y22095D01*
X10912Y22097D01*
X10920Y22100D01*
X10928Y22101D01*
X10936Y22103D01*
X10943Y22104D01*
X10950Y22105D01*
X10955Y22106D01*
X10961Y22106D01*
X10965Y22107D01*
X10970D01*
X10980Y22106D01*
X10989Y22106D01*
X10997Y22104D01*
X11005Y22103D01*
X11013Y22101D01*
X11020Y22099D01*
X11026Y22096D01*
X11032Y22094D01*
X11037Y22091D01*
X11042Y22089D01*
X11046Y22087D01*
X11049Y22085D01*
X11052Y22083D01*
X11054Y22082D01*
X11055Y22081D01*
X11055Y22081D01*
X11062Y22076D01*
X11068Y22070D01*
X11073Y22064D01*
X11078Y22058D01*
X11083Y22051D01*
X11087Y22044D01*
X11091Y22037D01*
X11094Y22031D01*
X11097Y22025D01*
X11100Y22019D01*
X11102Y22013D01*
X11104Y22009D01*
X11106Y22005D01*
X11107Y22002D01*
X11107Y22000D01*
X11108Y22000D01*
X11174Y22015D01*
X11170Y22028D01*
X11165Y22040D01*
X11160Y22052D01*
X11154Y22063D01*
X11148Y22072D01*
X11142Y22081D01*
X11136Y22090D01*
X11130Y22097D01*
X11124Y22104D01*
X11119Y22109D01*
X11114Y22114D01*
X11109Y22118D01*
X11106Y22121D01*
X11103Y22124D01*
X11102Y22125D01*
X11101Y22126D01*
X11091Y22133D01*
X11081Y22138D01*
X11069Y22144D01*
X11059Y22148D01*
X11048Y22152D01*
X11037Y22155D01*
X11027Y22158D01*
X11017Y22160D01*
X11007Y22161D01*
X10999Y22163D01*
X10991Y22164D01*
X10985Y22164D01*
X10979Y22164D01*
X10977Y22165D01*
X11183D01*
D02*
G37*
G36*
X7139Y22156D02*
X6855D01*
X7074D01*
Y21754D01*
X6806Y22156D01*
X6736D01*
Y21644D01*
X6801D01*
Y22046D01*
X7069Y21644D01*
X7139D01*
Y22156D01*
D02*
G37*
G36*
X5952D02*
X5861D01*
X5738Y21800D01*
X5735Y21790D01*
X5731Y21780D01*
X5729Y21772D01*
X5726Y21764D01*
X5724Y21756D01*
X5721Y21750D01*
X5719Y21744D01*
X5717Y21738D01*
X5716Y21733D01*
X5714Y21729D01*
X5713Y21726D01*
X5713Y21723D01*
X5712Y21720D01*
X5711Y21719D01*
X5711Y21718D01*
Y21717D01*
X5709Y21723D01*
X5707Y21728D01*
X5706Y21734D01*
X5704Y21740D01*
X5700Y21753D01*
X5696Y21765D01*
X5694Y21771D01*
X5692Y21776D01*
X5690Y21781D01*
X5689Y21785D01*
X5688Y21788D01*
X5687Y21791D01*
X5687Y21793D01*
X5686Y21793D01*
X5565Y22156D01*
X5701D01*
X5463D01*
Y21644D01*
X5529D01*
Y22080D01*
X5676Y21644D01*
X5777D01*
X5738D01*
X5887Y22072D01*
Y21644D01*
X5952D01*
Y22156D01*
D02*
G37*
G36*
X12537Y22156D02*
X12217D01*
Y21644D01*
X12537D01*
Y21706D01*
Y21704D01*
X12285D01*
Y22156D01*
X12537D01*
D01*
D02*
G37*
G36*
X12155D02*
X11704D01*
Y21644D01*
X12155D01*
D01*
X12066Y21783D01*
X12056Y21798D01*
X12051Y21804D01*
X12046Y21811D01*
X12041Y21817D01*
X12037Y21822D01*
X12032Y21828D01*
X12028Y21832D01*
X12024Y21837D01*
X12021Y21841D01*
X12018Y21844D01*
X12015Y21847D01*
X12013Y21848D01*
X12011Y21850D01*
X12010Y21851D01*
X12010Y21851D01*
X12004Y21856D01*
X11998Y21861D01*
X11991Y21865D01*
X11984Y21869D01*
X11978Y21872D01*
X11976Y21874D01*
X11974Y21875D01*
X11972Y21876D01*
X11970Y21876D01*
X11970Y21877D01*
X11969D01*
X11983Y21879D01*
X11995Y21882D01*
X12007Y21885D01*
X12017Y21888D01*
X12027Y21892D01*
X12036Y21896D01*
X12044Y21900D01*
X12051Y21904D01*
X12058Y21908D01*
X12063Y21912D01*
X12068Y21915D01*
X12071Y21918D01*
X12074Y21921D01*
X12077Y21923D01*
X12078Y21924D01*
X12078Y21924D01*
X12084Y21931D01*
X12090Y21939D01*
X12095Y21946D01*
X12099Y21954D01*
X12102Y21962D01*
X12105Y21970D01*
X12107Y21977D01*
X12109Y21984D01*
X12111Y21991D01*
X12112Y21997D01*
X12112Y22002D01*
X12113Y22007D01*
Y22011D01*
X12114Y22014D01*
Y22015D01*
Y22016D01*
X12113Y22024D01*
X12113Y22032D01*
X12112Y22039D01*
X12110Y22046D01*
X12109Y22053D01*
X12107Y22059D01*
X12105Y22065D01*
X12103Y22070D01*
X12101Y22075D01*
X12099Y22080D01*
X12097Y22084D01*
X12095Y22087D01*
X12094Y22090D01*
X12093Y22091D01*
X12092Y22093D01*
X12092Y22093D01*
X12088Y22099D01*
X12084Y22105D01*
X12079Y22110D01*
X12074Y22116D01*
X12070Y22120D01*
X12065Y22124D01*
X12060Y22127D01*
X12055Y22131D01*
X12051Y22133D01*
X12047Y22136D01*
X12044Y22138D01*
X12041Y22139D01*
X12038Y22140D01*
X12037Y22141D01*
X12035Y22142D01*
X12035D01*
X12028Y22144D01*
X12020Y22147D01*
X12012Y22148D01*
X12004Y22150D01*
X11987Y22153D01*
X11978Y22153D01*
X11970Y22154D01*
X11962Y22155D01*
X11955Y22155D01*
X11948Y22155D01*
X11942D01*
X11938Y22156D01*
X12155D01*
D02*
G37*
G36*
X11634D02*
X11228D01*
Y21644D01*
X11464D01*
Y22096D01*
X11634D01*
Y22156D01*
D02*
G37*
G36*
X10089D02*
X9638D01*
Y21644D01*
X10089D01*
D01*
X10000Y21783D01*
X9990Y21798D01*
X9985Y21804D01*
X9980Y21811D01*
X9975Y21817D01*
X9971Y21822D01*
X9966Y21828D01*
X9962Y21832D01*
X9958Y21837D01*
X9955Y21841D01*
X9952Y21844D01*
X9949Y21847D01*
X9947Y21848D01*
X9945Y21850D01*
X9944Y21851D01*
X9944Y21851D01*
X9938Y21856D01*
X9932Y21861D01*
X9925Y21865D01*
X9918Y21869D01*
X9912Y21872D01*
X9910Y21874D01*
X9908Y21875D01*
X9906Y21876D01*
X9904Y21876D01*
X9904Y21877D01*
X9903D01*
X9916Y21879D01*
X9929Y21882D01*
X9941Y21885D01*
X9951Y21888D01*
X9961Y21892D01*
X9970Y21896D01*
X9978Y21900D01*
X9985Y21904D01*
X9992Y21908D01*
X9997Y21912D01*
X10002Y21915D01*
X10005Y21918D01*
X10008Y21921D01*
X10010Y21923D01*
X10012Y21924D01*
X10012Y21924D01*
X10018Y21931D01*
X10024Y21939D01*
X10029Y21946D01*
X10033Y21954D01*
X10036Y21962D01*
X10039Y21970D01*
X10041Y21977D01*
X10043Y21984D01*
X10045Y21991D01*
X10046Y21997D01*
X10046Y22002D01*
X10047Y22007D01*
Y22011D01*
X10047Y22014D01*
Y22015D01*
Y22016D01*
X10047Y22024D01*
X10047Y22032D01*
X10046Y22039D01*
X10044Y22046D01*
X10043Y22053D01*
X10041Y22059D01*
X10039Y22065D01*
X10037Y22070D01*
X10035Y22075D01*
X10033Y22080D01*
X10031Y22084D01*
X10029Y22087D01*
X10028Y22090D01*
X10027Y22091D01*
X10026Y22093D01*
X10026Y22093D01*
X10022Y22099D01*
X10017Y22105D01*
X10013Y22110D01*
X10008Y22116D01*
X10003Y22120D01*
X9999Y22124D01*
X9994Y22127D01*
X9989Y22131D01*
X9985Y22133D01*
X9981Y22136D01*
X9978Y22138D01*
X9975Y22139D01*
X9972Y22140D01*
X9971Y22141D01*
X9969Y22142D01*
X9969D01*
X9962Y22144D01*
X9954Y22147D01*
X9946Y22148D01*
X9938Y22150D01*
X9921Y22153D01*
X9912Y22153D01*
X9904Y22154D01*
X9896Y22155D01*
X9889Y22155D01*
X9882Y22155D01*
X9876D01*
X9872Y22156D01*
X10089D01*
D02*
G37*
G36*
X9532D02*
X9162D01*
Y21644D01*
X9544D01*
Y21704D01*
X9229D01*
Y21878D01*
X9512D01*
Y21939D01*
X9229D01*
Y22096D01*
X9532D01*
Y22156D01*
D02*
G37*
G36*
X9097D02*
X8439D01*
Y21644D01*
D01*
Y22156D01*
X8574Y21644D01*
X8644D01*
X8752Y22034D01*
X8755Y22043D01*
X8757Y22054D01*
X8760Y22064D01*
X8762Y22073D01*
X8763Y22077D01*
X8764Y22081D01*
X8765Y22085D01*
X8766Y22088D01*
X8767Y22090D01*
X8767Y22092D01*
X8767Y22093D01*
Y22094D01*
X8768Y22091D01*
X8769Y22088D01*
X8770Y22084D01*
X8771Y22080D01*
X8772Y22075D01*
X8774Y22070D01*
X8777Y22060D01*
X8778Y22054D01*
X8779Y22050D01*
X8781Y22046D01*
X8782Y22042D01*
X8782Y22038D01*
X8783Y22036D01*
X8784Y22034D01*
Y22034D01*
X8891Y21644D01*
X8957D01*
X9097Y22156D01*
D01*
D02*
G37*
G36*
X7657Y22156D02*
X7452D01*
Y21644D01*
X7843D01*
X7520D01*
Y21852D01*
X7661D01*
X7670Y21852D01*
X7679Y21853D01*
X7688Y21854D01*
X7697Y21855D01*
X7705Y21856D01*
X7720Y21859D01*
X7733Y21862D01*
X7746Y21867D01*
X7757Y21871D01*
X7766Y21875D01*
X7775Y21879D01*
X7782Y21883D01*
X7788Y21887D01*
X7793Y21890D01*
X7796Y21893D01*
X7799Y21895D01*
X7800Y21897D01*
X7801Y21897D01*
X7808Y21906D01*
X7815Y21915D01*
X7820Y21924D01*
X7825Y21933D01*
X7829Y21943D01*
X7832Y21952D01*
X7835Y21961D01*
X7837Y21969D01*
X7839Y21977D01*
X7840Y21985D01*
X7842Y21991D01*
X7842Y21997D01*
X7842Y22001D01*
X7843Y22005D01*
Y22007D01*
X7842Y22022D01*
X7840Y22034D01*
X7839Y22041D01*
X7838Y22046D01*
X7836Y22052D01*
X7835Y22057D01*
X7833Y22061D01*
X7832Y22065D01*
X7831Y22069D01*
X7830Y22072D01*
X7829Y22074D01*
X7828Y22076D01*
X7827Y22077D01*
X7827Y22077D01*
X7821Y22089D01*
X7814Y22099D01*
X7807Y22107D01*
X7804Y22111D01*
X7801Y22114D01*
X7798Y22117D01*
X7795Y22120D01*
X7792Y22122D01*
X7790Y22123D01*
X7789Y22125D01*
X7787Y22126D01*
X7786Y22126D01*
X7786Y22127D01*
X7776Y22133D01*
X7765Y22138D01*
X7755Y22142D01*
X7745Y22146D01*
X7740Y22147D01*
X7736Y22148D01*
X7732Y22149D01*
X7729Y22150D01*
X7726Y22150D01*
X7725Y22150D01*
X7723Y22151D01*
X7723D01*
X7718Y22151D01*
X7712Y22153D01*
X7699Y22154D01*
X7686Y22155D01*
X7674Y22155D01*
X7668Y22155D01*
X7662D01*
X7657Y22156D01*
D02*
G37*
G36*
X6617D02*
X6549D01*
Y21644D01*
X6617D01*
Y22156D01*
D02*
G37*
G36*
X6484D02*
X6006D01*
Y21644D01*
D01*
Y22156D01*
X6202D01*
X6006Y21644D01*
X6077D01*
X6133Y21799D01*
X6348D01*
X6407Y21644D01*
X6484D01*
D01*
X6275Y22156D01*
X6484D01*
D02*
G37*
G36*
X8398Y22165D02*
X7908Y22165D01*
Y21635D01*
D01*
Y21893D01*
X7908Y21881D01*
X7909Y21868D01*
X7911Y21857D01*
X7913Y21845D01*
X7915Y21834D01*
X7917Y21823D01*
X7920Y21813D01*
X7923Y21804D01*
X7926Y21795D01*
X7928Y21788D01*
X7931Y21781D01*
X7933Y21776D01*
X7935Y21771D01*
X7936Y21768D01*
X7937Y21766D01*
X7937Y21765D01*
X7943Y21754D01*
X7950Y21744D01*
X7956Y21734D01*
X7963Y21725D01*
X7970Y21716D01*
X7977Y21709D01*
X7985Y21701D01*
X7991Y21695D01*
X7998Y21689D01*
X8004Y21684D01*
X8010Y21680D01*
X8014Y21676D01*
X8018Y21674D01*
X8021Y21672D01*
X8023Y21670D01*
X8024Y21670D01*
X8034Y21664D01*
X8045Y21659D01*
X8057Y21654D01*
X8068Y21650D01*
X8079Y21647D01*
X8089Y21644D01*
X8100Y21642D01*
X8110Y21640D01*
X8119Y21638D01*
X8127Y21637D01*
X8135Y21636D01*
X8141Y21636D01*
X8146Y21636D01*
X8150Y21635D01*
X8153D01*
X8165Y21636D01*
X8177Y21637D01*
X8189Y21638D01*
X8200Y21640D01*
X8212Y21643D01*
X8222Y21645D01*
X8231Y21648D01*
X8240Y21651D01*
X8249Y21654D01*
X8256Y21657D01*
X8262Y21659D01*
X8267Y21662D01*
X8271Y21664D01*
X8275Y21665D01*
X8277Y21666D01*
X8277Y21667D01*
X8288Y21673D01*
X8298Y21680D01*
X8307Y21687D01*
X8316Y21694D01*
X8324Y21702D01*
X8331Y21710D01*
X8338Y21717D01*
X8344Y21725D01*
X8349Y21732D01*
X8354Y21739D01*
X8358Y21744D01*
X8361Y21750D01*
X8363Y21754D01*
X8365Y21757D01*
X8366Y21759D01*
X8367Y21760D01*
X8372Y21771D01*
X8377Y21783D01*
X8381Y21795D01*
X8385Y21807D01*
X8388Y21819D01*
X8390Y21831D01*
X8392Y21842D01*
X8394Y21852D01*
X8395Y21862D01*
X8397Y21871D01*
X8397Y21879D01*
X8398Y21886D01*
Y21891D01*
X8398Y21894D01*
Y21899D01*
X8398Y21913D01*
X8397Y21927D01*
X8395Y21940D01*
X8393Y21953D01*
X8391Y21965D01*
X8388Y21976D01*
X8386Y21987D01*
X8383Y21996D01*
X8380Y22005D01*
X8378Y22013D01*
X8375Y22020D01*
X8373Y22026D01*
X8371Y22030D01*
X8370Y22034D01*
X8368Y22036D01*
X8368Y22036D01*
X8362Y22047D01*
X8356Y22058D01*
X8349Y22067D01*
X8342Y22077D01*
X8335Y22085D01*
X8327Y22093D01*
X8320Y22100D01*
X8313Y22106D01*
X8307Y22112D01*
X8301Y22117D01*
X8295Y22121D01*
X8290Y22124D01*
X8287Y22127D01*
X8284Y22129D01*
X8282Y22130D01*
X8281Y22131D01*
X8270Y22137D01*
X8259Y22142D01*
X8248Y22147D01*
X8237Y22150D01*
X8226Y22154D01*
X8216Y22157D01*
X8205Y22159D01*
X8196Y22161D01*
X8187Y22162D01*
X8179Y22163D01*
X8171Y22164D01*
X8165Y22164D01*
X8160D01*
X8156Y22165D01*
X8398Y22165D01*
D02*
G37*
G36*
X8150Y21635D02*
D01*
X7908D01*
X8150D01*
D02*
G37*
%LPD*%
G36*
X10959Y22164D02*
X10947Y22163D01*
X10935Y22162D01*
X10924Y22160D01*
X10913Y22158D01*
X10903Y22155D01*
X10893Y22152D01*
X10884Y22149D01*
X10876Y22146D01*
X10869Y22144D01*
X10863Y22141D01*
X10857Y22138D01*
X10853Y22137D01*
X10850Y22135D01*
X10848Y22134D01*
X10847Y22134D01*
X10837Y22127D01*
X10827Y22121D01*
X10819Y22114D01*
X10810Y22106D01*
X10802Y22099D01*
X10795Y22091D01*
X10789Y22084D01*
X10783Y22077D01*
X10778Y22070D01*
X10773Y22063D01*
X10769Y22058D01*
X10766Y22053D01*
X10764Y22049D01*
X10762Y22046D01*
X10761Y22044D01*
X10760Y22043D01*
X10755Y22032D01*
X10750Y22020D01*
X10746Y22008D01*
X10743Y21996D01*
X10740Y21985D01*
X10738Y21973D01*
X10736Y21962D01*
X10734Y21951D01*
X10733Y21941D01*
X10732Y21932D01*
X10731Y21924D01*
X10730Y21917D01*
Y21911D01*
X10730Y21909D01*
Y22165D01*
X10972D01*
X10959Y22164D01*
D02*
G37*
G36*
X11944Y22099D02*
X11954Y22098D01*
X11963Y22097D01*
X11971Y22096D01*
X11978Y22094D01*
X11985Y22092D01*
X11991Y22090D01*
X11997Y22087D01*
X12001Y22085D01*
X12006Y22083D01*
X12009Y22081D01*
X12012Y22079D01*
X12014Y22078D01*
X12016Y22077D01*
X12017Y22076D01*
X12017Y22076D01*
X12022Y22071D01*
X12026Y22066D01*
X12029Y22062D01*
X12033Y22056D01*
X12035Y22052D01*
X12037Y22046D01*
X12039Y22042D01*
X12040Y22037D01*
X12041Y22033D01*
X12042Y22029D01*
X12043Y22025D01*
X12043Y22022D01*
X12044Y22019D01*
Y22017D01*
Y22016D01*
Y22016D01*
X12043Y22007D01*
X12041Y21998D01*
X12039Y21990D01*
X12037Y21984D01*
X12034Y21978D01*
X12033Y21976D01*
X12032Y21974D01*
X12031Y21972D01*
X12031Y21971D01*
X12030Y21970D01*
Y21970D01*
X12024Y21963D01*
X12018Y21956D01*
X12011Y21951D01*
X12005Y21947D01*
X11999Y21943D01*
X11997Y21942D01*
X11994Y21941D01*
X11993Y21941D01*
X11991Y21940D01*
X11990Y21939D01*
X11990D01*
X11985Y21938D01*
X11980Y21936D01*
X11968Y21934D01*
X11956Y21932D01*
X11944Y21931D01*
X11939Y21931D01*
X11934Y21931D01*
X11929D01*
X11925Y21930D01*
X11772D01*
Y22099D01*
X11934D01*
X11944Y22099D01*
D02*
G37*
G36*
X11868Y21871D02*
X11874Y21871D01*
X11879Y21870D01*
X11883Y21869D01*
X11886Y21869D01*
X11888Y21869D01*
X11888D01*
X11894Y21867D01*
X11900Y21865D01*
X11905Y21862D01*
X11909Y21860D01*
X11913Y21858D01*
X11916Y21857D01*
X11918Y21855D01*
X11919Y21855D01*
X11925Y21851D01*
X11931Y21846D01*
X11936Y21840D01*
X11942Y21834D01*
X11946Y21829D01*
X11950Y21825D01*
X11951Y21823D01*
X11953Y21822D01*
X11953Y21821D01*
X11953Y21821D01*
X11957Y21816D01*
X11961Y21811D01*
X11969Y21800D01*
X11977Y21788D01*
X11985Y21776D01*
X11988Y21771D01*
X11992Y21766D01*
X11995Y21762D01*
X11997Y21758D01*
X11999Y21755D01*
X12001Y21752D01*
X12002Y21751D01*
X12002Y21750D01*
X12070Y21644D01*
X11772D01*
Y21871D01*
X11860D01*
X11868Y21871D01*
D02*
G37*
G36*
X11396Y21644D02*
X11228D01*
Y22096D01*
X11396D01*
Y21644D01*
D02*
G37*
G36*
X9878Y22099D02*
X9888Y22098D01*
X9897Y22097D01*
X9905Y22096D01*
X9912Y22094D01*
X9919Y22092D01*
X9925Y22090D01*
X9931Y22087D01*
X9935Y22085D01*
X9939Y22083D01*
X9943Y22081D01*
X9946Y22079D01*
X9948Y22078D01*
X9950Y22077D01*
X9951Y22076D01*
X9951Y22076D01*
X9956Y22071D01*
X9960Y22066D01*
X9963Y22062D01*
X9966Y22056D01*
X9969Y22052D01*
X9971Y22046D01*
X9973Y22042D01*
X9974Y22037D01*
X9975Y22033D01*
X9976Y22029D01*
X9977Y22025D01*
X9977Y22022D01*
X9978Y22019D01*
Y22017D01*
Y22016D01*
Y22016D01*
X9977Y22007D01*
X9975Y21998D01*
X9973Y21990D01*
X9971Y21984D01*
X9968Y21978D01*
X9967Y21976D01*
X9966Y21974D01*
X9965Y21972D01*
X9965Y21971D01*
X9964Y21970D01*
Y21970D01*
X9958Y21963D01*
X9952Y21956D01*
X9945Y21951D01*
X9939Y21947D01*
X9933Y21943D01*
X9931Y21942D01*
X9928Y21941D01*
X9926Y21941D01*
X9925Y21940D01*
X9924Y21939D01*
X9924D01*
X9919Y21938D01*
X9914Y21936D01*
X9902Y21934D01*
X9889Y21932D01*
X9878Y21931D01*
X9872Y21931D01*
X9868Y21931D01*
X9863D01*
X9859Y21930D01*
X9706D01*
Y22099D01*
X9868D01*
X9878Y22099D01*
D02*
G37*
G36*
X9801Y21871D02*
X9808Y21871D01*
X9813Y21870D01*
X9817Y21869D01*
X9820Y21869D01*
X9822Y21869D01*
X9822D01*
X9828Y21867D01*
X9834Y21865D01*
X9839Y21862D01*
X9843Y21860D01*
X9847Y21858D01*
X9850Y21857D01*
X9852Y21855D01*
X9853Y21855D01*
X9859Y21851D01*
X9865Y21846D01*
X9870Y21840D01*
X9876Y21834D01*
X9880Y21829D01*
X9884Y21825D01*
X9885Y21823D01*
X9887Y21822D01*
X9887Y21821D01*
X9887Y21821D01*
X9891Y21816D01*
X9895Y21811D01*
X9903Y21800D01*
X9911Y21788D01*
X9919Y21776D01*
X9922Y21771D01*
X9926Y21766D01*
X9929Y21762D01*
X9931Y21758D01*
X9933Y21755D01*
X9935Y21752D01*
X9936Y21751D01*
X9936Y21750D01*
X10004Y21644D01*
X9706D01*
Y21871D01*
X9794D01*
X9801Y21871D01*
D02*
G37*
G36*
X8949Y21827D02*
X8946Y21815D01*
X8943Y21804D01*
X8940Y21793D01*
X8938Y21783D01*
X8936Y21773D01*
X8934Y21764D01*
X8932Y21755D01*
X8930Y21747D01*
X8929Y21740D01*
X8927Y21734D01*
X8926Y21729D01*
X8925Y21724D01*
X8924Y21720D01*
X8923Y21717D01*
X8923Y21716D01*
Y21715D01*
X8918Y21747D01*
X8912Y21779D01*
X8908Y21795D01*
X8905Y21810D01*
X8902Y21824D01*
X8898Y21838D01*
X8895Y21850D01*
X8892Y21861D01*
X8890Y21872D01*
X8889Y21876D01*
X8888Y21880D01*
X8886Y21884D01*
X8886Y21887D01*
X8885Y21890D01*
X8884Y21892D01*
X8884Y21894D01*
X8883Y21895D01*
X8883Y21896D01*
Y21896D01*
X8810Y22156D01*
X9029D01*
X8949Y21827D01*
D02*
G37*
G36*
X8631Y21810D02*
X8631Y21808D01*
X8630Y21807D01*
X8629Y21802D01*
X8628Y21797D01*
X8626Y21790D01*
X8624Y21783D01*
X8622Y21774D01*
X8618Y21758D01*
X8616Y21750D01*
X8614Y21742D01*
X8613Y21735D01*
X8611Y21728D01*
X8610Y21723D01*
X8609Y21721D01*
X8609Y21719D01*
X8608Y21717D01*
Y21716D01*
X8608Y21716D01*
Y21715D01*
X8604Y21735D01*
X8600Y21754D01*
X8599Y21763D01*
X8597Y21771D01*
X8595Y21780D01*
X8593Y21787D01*
X8592Y21794D01*
X8590Y21801D01*
X8589Y21806D01*
X8588Y21811D01*
X8587Y21815D01*
X8587Y21818D01*
X8586Y21819D01*
Y21820D01*
X8508Y22156D01*
X8728D01*
X8631Y21810D01*
D02*
G37*
G36*
X7666Y22095D02*
X7673D01*
X7679Y22095D01*
X7685Y22094D01*
X7691Y22094D01*
X7695Y22094D01*
X7699Y22093D01*
X7703Y22093D01*
X7706Y22092D01*
X7708Y22092D01*
X7710Y22091D01*
X7712Y22091D01*
X7713D01*
X7713Y22091D01*
X7714D01*
X7723Y22087D01*
X7732Y22083D01*
X7739Y22078D01*
X7745Y22073D01*
X7750Y22068D01*
X7753Y22064D01*
X7755Y22063D01*
X7756Y22062D01*
X7756Y22061D01*
Y22060D01*
X7759Y22056D01*
X7762Y22052D01*
X7766Y22042D01*
X7769Y22033D01*
X7771Y22025D01*
X7771Y22021D01*
X7772Y22017D01*
X7772Y22014D01*
Y22011D01*
X7773Y22009D01*
Y22007D01*
Y22006D01*
Y22006D01*
X7772Y21997D01*
X7772Y21990D01*
X7770Y21983D01*
X7768Y21976D01*
X7766Y21970D01*
X7764Y21964D01*
X7762Y21959D01*
X7759Y21955D01*
X7756Y21951D01*
X7754Y21947D01*
X7751Y21944D01*
X7749Y21941D01*
X7748Y21939D01*
X7746Y21938D01*
X7745Y21937D01*
X7745Y21937D01*
X7739Y21932D01*
X7733Y21929D01*
X7726Y21925D01*
X7719Y21923D01*
X7711Y21920D01*
X7703Y21918D01*
X7688Y21915D01*
X7681Y21915D01*
X7674Y21914D01*
X7668Y21913D01*
X7662Y21913D01*
X7658Y21912D01*
X7520D01*
Y22096D01*
X7659D01*
X7666Y22095D01*
D02*
G37*
G36*
X6239Y22094D02*
X6241Y22086D01*
X6247Y22068D01*
X6253Y22050D01*
X6256Y22042D01*
X6259Y22033D01*
X6262Y22026D01*
X6264Y22018D01*
X6267Y22012D01*
X6269Y22006D01*
X6271Y22002D01*
X6272Y21999D01*
X6272Y21996D01*
X6273Y21996D01*
Y21996D01*
X6326Y21854D01*
X6152D01*
X6209Y22004D01*
X6215Y22022D01*
X6221Y22040D01*
X6223Y22049D01*
X6225Y22056D01*
X6227Y22064D01*
X6229Y22071D01*
X6231Y22078D01*
X6232Y22084D01*
X6234Y22089D01*
X6235Y22094D01*
X6235Y22097D01*
X6236Y22100D01*
X6236Y22101D01*
Y22102D01*
X6239Y22094D01*
D02*
G37*
G36*
X8143Y22164D02*
X8133Y22164D01*
X8124Y22163D01*
X8115Y22162D01*
X8097Y22158D01*
X8080Y22154D01*
X8064Y22148D01*
X8050Y22142D01*
X8037Y22136D01*
X8024Y22129D01*
X8014Y22122D01*
X8004Y22116D01*
X7996Y22109D01*
X7989Y22104D01*
X7984Y22099D01*
X7981Y22097D01*
X7980Y22096D01*
X7978Y22094D01*
X7977Y22093D01*
X7977Y22093D01*
X7977Y22093D01*
X7970Y22086D01*
X7964Y22079D01*
X7959Y22071D01*
X7954Y22063D01*
X7945Y22047D01*
X7937Y22031D01*
X7930Y22015D01*
X7925Y21998D01*
X7920Y21982D01*
X7917Y21966D01*
X7914Y21951D01*
X7912Y21937D01*
X7911Y21931D01*
X7910Y21925D01*
X7910Y21919D01*
X7909Y21914D01*
X7909Y21909D01*
X7908Y21905D01*
Y21902D01*
X7908Y21899D01*
Y22165D01*
X8153D01*
X8143Y22164D01*
D02*
G37*
G36*
X8163Y22106D02*
X8172Y22105D01*
X8181Y22104D01*
X8189Y22102D01*
X8197Y22100D01*
X8205Y22098D01*
X8212Y22096D01*
X8218Y22093D01*
X8224Y22091D01*
X8229Y22089D01*
X8234Y22086D01*
X8238Y22084D01*
X8241Y22083D01*
X8243Y22081D01*
X8244Y22081D01*
X8245Y22080D01*
X8252Y22075D01*
X8259Y22070D01*
X8266Y22064D01*
X8272Y22058D01*
X8277Y22052D01*
X8282Y22046D01*
X8287Y22040D01*
X8291Y22035D01*
X8295Y22029D01*
X8298Y22025D01*
X8300Y22020D01*
X8303Y22016D01*
X8304Y22013D01*
X8306Y22010D01*
X8306Y22009D01*
X8307Y22008D01*
X8310Y21999D01*
X8314Y21990D01*
X8317Y21981D01*
X8319Y21972D01*
X8321Y21962D01*
X8323Y21953D01*
X8324Y21945D01*
X8325Y21936D01*
X8326Y21929D01*
X8327Y21922D01*
X8327Y21915D01*
X8328Y21910D01*
X8328Y21905D01*
Y21902D01*
Y21900D01*
Y21899D01*
X8328Y21881D01*
X8326Y21865D01*
X8324Y21849D01*
X8320Y21834D01*
X8317Y21820D01*
X8313Y21808D01*
X8308Y21797D01*
X8303Y21786D01*
X8299Y21777D01*
X8294Y21769D01*
X8290Y21763D01*
X8286Y21757D01*
X8283Y21753D01*
X8281Y21750D01*
X8279Y21748D01*
X8278Y21747D01*
X8269Y21738D01*
X8259Y21729D01*
X8249Y21722D01*
X8238Y21716D01*
X8227Y21711D01*
X8217Y21706D01*
X8207Y21703D01*
X8197Y21700D01*
X8188Y21698D01*
X8179Y21696D01*
X8172Y21695D01*
X8165Y21694D01*
X8160Y21694D01*
X8158D01*
X8156Y21693D01*
X8153D01*
X8139Y21694D01*
X8126Y21696D01*
X8113Y21698D01*
X8102Y21701D01*
X8091Y21706D01*
X8080Y21710D01*
X8071Y21715D01*
X8062Y21720D01*
X8054Y21725D01*
X8047Y21730D01*
X8042Y21734D01*
X8037Y21738D01*
X8033Y21741D01*
X8030Y21744D01*
X8028Y21746D01*
X8028Y21746D01*
X8019Y21757D01*
X8011Y21768D01*
X8005Y21780D01*
X7999Y21791D01*
X7994Y21804D01*
X7990Y21816D01*
X7987Y21828D01*
X7984Y21839D01*
X7982Y21850D01*
X7981Y21860D01*
X7980Y21869D01*
X7979Y21877D01*
X7978Y21880D01*
Y21883D01*
Y21886D01*
X7978Y21888D01*
Y21890D01*
Y21891D01*
Y21892D01*
Y21892D01*
Y21903D01*
X7979Y21913D01*
X7979Y21923D01*
X7980Y21932D01*
X7981Y21941D01*
X7983Y21950D01*
X7986Y21966D01*
X7990Y21981D01*
X7994Y21995D01*
X7999Y22007D01*
X8004Y22018D01*
X8009Y22027D01*
X8014Y22035D01*
X8018Y22042D01*
X8022Y22047D01*
X8025Y22052D01*
X8028Y22054D01*
X8029Y22056D01*
X8030Y22057D01*
X8040Y22066D01*
X8050Y22073D01*
X8061Y22080D01*
X8071Y22086D01*
X8082Y22090D01*
X8092Y22094D01*
X8102Y22097D01*
X8111Y22100D01*
X8120Y22102D01*
X8128Y22104D01*
X8135Y22105D01*
X8142Y22106D01*
X8146Y22106D01*
X8150Y22106D01*
X8153D01*
X8163Y22106D01*
D02*
G37*
%LPC*%
G36*
X10643Y30945D02*
X10190D01*
Y30415D01*
D01*
Y30684D01*
X10190Y30670D01*
X10191Y30657D01*
X10192Y30644D01*
X10194Y30631D01*
X10196Y30619D01*
X10198Y30608D01*
X10201Y30597D01*
X10203Y30587D01*
X10206Y30578D01*
X10208Y30570D01*
X10210Y30563D01*
X10213Y30557D01*
X10214Y30553D01*
X10216Y30549D01*
X10216Y30547D01*
X10217Y30547D01*
Y30546D01*
X10222Y30535D01*
X10228Y30524D01*
X10234Y30514D01*
X10240Y30504D01*
X10247Y30496D01*
X10254Y30487D01*
X10260Y30480D01*
X10266Y30474D01*
X10272Y30468D01*
X10278Y30463D01*
X10282Y30459D01*
X10287Y30455D01*
X10291Y30453D01*
X10293Y30450D01*
X10295Y30449D01*
X10295Y30449D01*
X10305Y30443D01*
X10316Y30438D01*
X10327Y30433D01*
X10338Y30429D01*
X10349Y30426D01*
X10361Y30423D01*
X10372Y30421D01*
X10382Y30419D01*
X10392Y30418D01*
X10401Y30417D01*
X10409Y30416D01*
X10416Y30416D01*
X10422D01*
X10425Y30415D01*
X10430D01*
X10445Y30416D01*
X10459Y30417D01*
X10472Y30419D01*
X10485Y30422D01*
X10497Y30425D01*
X10508Y30429D01*
X10519Y30433D01*
X10528Y30437D01*
X10536Y30441D01*
X10544Y30445D01*
X10550Y30449D01*
X10556Y30452D01*
X10560Y30455D01*
X10563Y30457D01*
X10565Y30459D01*
X10566Y30459D01*
X10576Y30468D01*
X10585Y30477D01*
X10593Y30487D01*
X10601Y30497D01*
X10608Y30508D01*
X10614Y30518D01*
X10620Y30529D01*
X10625Y30539D01*
X10629Y30549D01*
X10633Y30558D01*
X10636Y30565D01*
X10638Y30573D01*
X10640Y30578D01*
X10641Y30581D01*
X10641Y30583D01*
X10642Y30584D01*
X10642Y30585D01*
X10643Y30586D01*
Y30586D01*
X10575Y30603D01*
X10572Y30591D01*
X10569Y30581D01*
X10565Y30570D01*
X10560Y30561D01*
X10556Y30552D01*
X10551Y30544D01*
X10547Y30537D01*
X10543Y30530D01*
X10539Y30525D01*
X10534Y30520D01*
X10531Y30516D01*
X10527Y30512D01*
X10525Y30509D01*
X10523Y30507D01*
X10522Y30506D01*
X10521Y30506D01*
X10513Y30500D01*
X10506Y30495D01*
X10497Y30491D01*
X10489Y30487D01*
X10481Y30484D01*
X10473Y30481D01*
X10465Y30479D01*
X10458Y30477D01*
X10451Y30476D01*
X10445Y30475D01*
X10439Y30474D01*
X10434Y30474D01*
X10430D01*
X10427Y30473D01*
X10425D01*
X10416Y30474D01*
X10408Y30474D01*
X10399Y30476D01*
X10391Y30477D01*
X10384Y30479D01*
X10376Y30481D01*
X10370Y30483D01*
X10364Y30486D01*
X10358Y30488D01*
X10353Y30490D01*
X10348Y30492D01*
X10345Y30494D01*
X10342Y30495D01*
X10339Y30496D01*
X10338Y30497D01*
X10338Y30497D01*
X10330Y30502D01*
X10324Y30507D01*
X10317Y30513D01*
X10311Y30519D01*
X10306Y30525D01*
X10301Y30531D01*
X10297Y30537D01*
X10293Y30543D01*
X10290Y30548D01*
X10287Y30553D01*
X10284Y30558D01*
X10282Y30562D01*
X10280Y30565D01*
X10279Y30568D01*
X10279Y30570D01*
X10278Y30570D01*
X10275Y30579D01*
X10272Y30589D01*
X10270Y30598D01*
X10268Y30608D01*
X10264Y30627D01*
X10263Y30637D01*
X10262Y30645D01*
X10261Y30653D01*
X10261Y30661D01*
X10260Y30667D01*
X10260Y30673D01*
X10260Y30678D01*
Y30681D01*
Y30683D01*
Y30684D01*
X10260Y30694D01*
X10260Y30703D01*
X10262Y30721D01*
X10263Y30729D01*
X10265Y30737D01*
X10266Y30745D01*
X10268Y30752D01*
X10269Y30759D01*
X10270Y30765D01*
X10272Y30770D01*
X10273Y30774D01*
X10274Y30777D01*
X10275Y30780D01*
X10275Y30782D01*
Y30782D01*
X10279Y30791D01*
X10282Y30799D01*
X10287Y30807D01*
X10291Y30814D01*
X10295Y30821D01*
X10300Y30827D01*
X10305Y30833D01*
X10309Y30838D01*
X10314Y30843D01*
X10318Y30847D01*
X10321Y30850D01*
X10325Y30853D01*
X10327Y30855D01*
X10329Y30857D01*
X10331Y30858D01*
X10331Y30858D01*
X10339Y30863D01*
X10347Y30867D01*
X10355Y30871D01*
X10363Y30875D01*
X10372Y30877D01*
X10380Y30880D01*
X10388Y30881D01*
X10395Y30883D01*
X10402Y30884D01*
X10409Y30885D01*
X10415Y30886D01*
X10420Y30886D01*
X10424Y30887D01*
X10430D01*
X10439Y30886D01*
X10448Y30886D01*
X10457Y30884D01*
X10465Y30883D01*
X10472Y30881D01*
X10479Y30879D01*
X10486Y30876D01*
X10492Y30874D01*
X10497Y30871D01*
X10502Y30869D01*
X10506Y30867D01*
X10509Y30865D01*
X10512Y30863D01*
X10513Y30862D01*
X10514Y30861D01*
X10515Y30861D01*
X10521Y30856D01*
X10527Y30850D01*
X10532Y30844D01*
X10537Y30838D01*
X10542Y30831D01*
X10546Y30824D01*
X10550Y30817D01*
X10554Y30811D01*
X10557Y30805D01*
X10560Y30799D01*
X10562Y30793D01*
X10564Y30789D01*
X10565Y30785D01*
X10566Y30782D01*
X10567Y30780D01*
X10567Y30780D01*
X10634Y30795D01*
X10630Y30808D01*
X10624Y30820D01*
X10619Y30832D01*
X10613Y30843D01*
X10607Y30852D01*
X10601Y30861D01*
X10595Y30870D01*
X10589Y30877D01*
X10583Y30884D01*
X10578Y30889D01*
X10573Y30894D01*
X10569Y30898D01*
X10566Y30901D01*
X10563Y30904D01*
X10561Y30905D01*
X10560Y30906D01*
X10550Y30913D01*
X10540Y30918D01*
X10529Y30924D01*
X10518Y30928D01*
X10507Y30932D01*
X10497Y30935D01*
X10486Y30938D01*
X10476Y30940D01*
X10467Y30941D01*
X10458Y30943D01*
X10451Y30944D01*
X10444Y30944D01*
X10439Y30944D01*
X10436Y30945D01*
X10643D01*
D02*
G37*
G36*
X10953D02*
X10950D01*
X10940Y30944D01*
X10930Y30944D01*
X10921Y30943D01*
X10912Y30942D01*
X10894Y30938D01*
X10877Y30934D01*
X10861Y30928D01*
X10847Y30922D01*
X10833Y30916D01*
X10821Y30909D01*
X10810Y30902D01*
X10801Y30896D01*
X10793Y30889D01*
X10786Y30884D01*
X10781Y30879D01*
X10778Y30877D01*
X10777Y30876D01*
X10775Y30874D01*
X10774Y30873D01*
X10774Y30873D01*
X10773Y30873D01*
X10767Y30866D01*
X10761Y30859D01*
X10756Y30851D01*
X10751Y30843D01*
X10742Y30827D01*
X10734Y30811D01*
X10727Y30795D01*
X10722Y30778D01*
X10717Y30762D01*
X10714Y30746D01*
X10711Y30731D01*
X10709Y30717D01*
X10708Y30711D01*
X10707Y30705D01*
X10707Y30699D01*
X10706Y30694D01*
X10706Y30689D01*
X10705Y30685D01*
Y30682D01*
X10705Y30679D01*
Y30945D01*
D01*
D01*
Y30415D01*
D01*
Y30673D01*
X10705Y30661D01*
X10706Y30648D01*
X10708Y30637D01*
X10709Y30625D01*
X10712Y30614D01*
X10714Y30603D01*
X10717Y30593D01*
X10720Y30584D01*
X10722Y30575D01*
X10725Y30568D01*
X10728Y30561D01*
X10730Y30556D01*
X10732Y30551D01*
X10733Y30548D01*
X10734Y30546D01*
X10734Y30545D01*
X10740Y30534D01*
X10746Y30524D01*
X10753Y30514D01*
X10760Y30505D01*
X10767Y30496D01*
X10774Y30489D01*
X10782Y30481D01*
X10788Y30475D01*
X10795Y30469D01*
X10801Y30464D01*
X10806Y30460D01*
X10811Y30456D01*
X10815Y30454D01*
X10818Y30452D01*
X10820Y30450D01*
X10820Y30450D01*
X10831Y30444D01*
X10842Y30439D01*
X10854Y30434D01*
X10865Y30430D01*
X10876Y30427D01*
X10886Y30424D01*
X10897Y30422D01*
X10907Y30420D01*
X10916Y30418D01*
X10924Y30417D01*
X10931Y30416D01*
X10938Y30416D01*
X10943Y30416D01*
X10947Y30415D01*
X11195D01*
X10950D01*
X10962Y30416D01*
X10974Y30417D01*
X10986Y30418D01*
X10997Y30420D01*
X11008Y30423D01*
X11018Y30425D01*
X11028Y30428D01*
X11037Y30431D01*
X11045Y30434D01*
X11052Y30437D01*
X11059Y30439D01*
X11064Y30442D01*
X11068Y30444D01*
X11072Y30445D01*
X11074Y30446D01*
X11074Y30447D01*
X11085Y30453D01*
X11095Y30460D01*
X11104Y30467D01*
X11113Y30474D01*
X11121Y30482D01*
X11128Y30490D01*
X11135Y30497D01*
X11141Y30505D01*
X11146Y30512D01*
X11151Y30518D01*
X11155Y30524D01*
X11158Y30530D01*
X11160Y30534D01*
X11162Y30537D01*
X11163Y30539D01*
X11163Y30540D01*
X11169Y30551D01*
X11174Y30563D01*
X11178Y30575D01*
X11182Y30587D01*
X11185Y30599D01*
X11187Y30611D01*
X11189Y30622D01*
X11191Y30632D01*
X11192Y30642D01*
X11193Y30651D01*
X11194Y30659D01*
X11195Y30666D01*
Y30671D01*
X11195Y30674D01*
Y30679D01*
X11195Y30693D01*
X11194Y30707D01*
X11192Y30720D01*
X11190Y30733D01*
X11188Y30745D01*
X11185Y30756D01*
X11183Y30767D01*
X11180Y30776D01*
X11177Y30785D01*
X11175Y30793D01*
X11172Y30800D01*
X11170Y30806D01*
X11168Y30810D01*
X11166Y30814D01*
X11165Y30816D01*
X11165Y30816D01*
X11159Y30827D01*
X11153Y30838D01*
X11146Y30847D01*
X11139Y30857D01*
X11132Y30865D01*
X11124Y30873D01*
X11117Y30880D01*
X11110Y30886D01*
X11104Y30892D01*
X11098Y30897D01*
X11092Y30901D01*
X11087Y30904D01*
X11084Y30907D01*
X11081Y30909D01*
X11079Y30910D01*
X11078Y30911D01*
X11067Y30917D01*
X11056Y30922D01*
X11045Y30927D01*
X11034Y30930D01*
X11023Y30934D01*
X11013Y30937D01*
X11002Y30939D01*
X10993Y30941D01*
X10984Y30942D01*
X10976Y30943D01*
X10968Y30944D01*
X10962Y30944D01*
X10957D01*
X10953Y30945D01*
D02*
G37*
G36*
X13353Y30936D02*
X13288D01*
Y30534D01*
X13019Y30936D01*
X12950D01*
Y30424D01*
X13353D01*
Y30936D01*
D02*
G37*
G36*
X12365Y30936D02*
X12273D01*
X12151Y30580D01*
X12147Y30570D01*
X12144Y30560D01*
X12141Y30552D01*
X12138Y30544D01*
X12136Y30536D01*
X12134Y30530D01*
X12132Y30524D01*
X12130Y30518D01*
X12128Y30513D01*
X12127Y30509D01*
X12126Y30506D01*
X12125Y30503D01*
X12124Y30500D01*
X12124Y30499D01*
X12123Y30498D01*
Y30497D01*
X12122Y30503D01*
X12120Y30508D01*
X12118Y30514D01*
X12116Y30520D01*
X12112Y30533D01*
X12108Y30545D01*
X12106Y30551D01*
X12104Y30556D01*
X12103Y30561D01*
X12101Y30565D01*
X12100Y30568D01*
X12100Y30571D01*
X12099Y30573D01*
X12099Y30573D01*
X11977Y30936D01*
X12073D01*
X11876D01*
Y30424D01*
X11941D01*
Y30860D01*
X12089Y30424D01*
X12150D01*
X12299Y30852D01*
Y30424D01*
X12217D01*
X12365D01*
Y30936D01*
D02*
G37*
G36*
X11769D02*
X11678D01*
X11555Y30580D01*
X11552Y30570D01*
X11548Y30560D01*
X11546Y30552D01*
X11543Y30544D01*
X11540Y30536D01*
X11538Y30530D01*
X11536Y30524D01*
X11534Y30518D01*
X11533Y30513D01*
X11531Y30509D01*
X11530Y30506D01*
X11529Y30503D01*
X11529Y30500D01*
X11528Y30499D01*
X11528Y30498D01*
Y30497D01*
X11526Y30503D01*
X11524Y30508D01*
X11522Y30514D01*
X11521Y30520D01*
X11516Y30533D01*
X11512Y30545D01*
X11511Y30551D01*
X11509Y30556D01*
X11507Y30561D01*
X11506Y30565D01*
X11505Y30568D01*
X11504Y30571D01*
X11503Y30573D01*
X11503Y30573D01*
X11382Y30936D01*
X11477D01*
X11280D01*
Y30424D01*
X11346D01*
Y30860D01*
X11493Y30424D01*
X11555D01*
X11704Y30852D01*
Y30424D01*
X11621D01*
X11769D01*
Y30936D01*
D02*
G37*
G36*
X13890Y30936D02*
X13467D01*
Y30424D01*
X13652D01*
X13668Y30424D01*
X13677Y30425D01*
X13684Y30425D01*
X13691Y30426D01*
X13698Y30426D01*
X13704Y30427D01*
X13710Y30428D01*
X13715Y30429D01*
X13720Y30430D01*
X13724Y30430D01*
X13728Y30431D01*
X13730Y30432D01*
X13732Y30432D01*
X13733Y30432D01*
X13734D01*
X13747Y30436D01*
X13759Y30440D01*
X13764Y30442D01*
X13769Y30444D01*
X13773Y30446D01*
X13778Y30449D01*
X13782Y30450D01*
X13785Y30452D01*
X13788Y30454D01*
X13790Y30455D01*
X13792Y30456D01*
X13794Y30457D01*
X13795Y30458D01*
X13795D01*
X13804Y30465D01*
X13813Y30472D01*
X13821Y30480D01*
X13828Y30487D01*
X13833Y30494D01*
X13836Y30497D01*
X13838Y30500D01*
X13839Y30501D01*
X13840Y30503D01*
X13841Y30504D01*
X13842Y30504D01*
X13849Y30516D01*
X13856Y30528D01*
X13862Y30541D01*
X13867Y30553D01*
X13869Y30558D01*
X13871Y30563D01*
X13873Y30568D01*
X13874Y30571D01*
X13875Y30574D01*
X13876Y30577D01*
X13877Y30578D01*
Y30579D01*
X13881Y30596D01*
X13884Y30614D01*
X13887Y30631D01*
X13888Y30640D01*
X13889Y30648D01*
X13889Y30655D01*
X13890Y30662D01*
X13890Y30668D01*
Y30672D01*
X13890Y30677D01*
Y30682D01*
X13890Y30695D01*
X13890Y30707D01*
X13889Y30719D01*
X13887Y30730D01*
X13886Y30741D01*
X13884Y30751D01*
X13882Y30760D01*
X13880Y30769D01*
X13878Y30777D01*
X13876Y30784D01*
X13875Y30790D01*
X13873Y30795D01*
X13872Y30799D01*
X13871Y30802D01*
X13870Y30803D01*
X13870Y30804D01*
X13866Y30814D01*
X13862Y30823D01*
X13857Y30832D01*
X13852Y30840D01*
X13847Y30848D01*
X13842Y30855D01*
X13837Y30862D01*
X13832Y30868D01*
X13827Y30873D01*
X13823Y30878D01*
X13819Y30882D01*
X13816Y30886D01*
X13813Y30888D01*
X13811Y30890D01*
X13810Y30891D01*
X13809Y30892D01*
X13803Y30897D01*
X13797Y30901D01*
X13785Y30908D01*
X13772Y30915D01*
X13760Y30920D01*
X13755Y30922D01*
X13750Y30924D01*
X13746Y30925D01*
X13742Y30927D01*
X13739Y30927D01*
X13736Y30928D01*
X13735Y30928D01*
X13735D01*
X13728Y30930D01*
X13722Y30931D01*
X13715Y30932D01*
X13707Y30933D01*
X13692Y30934D01*
X13677Y30935D01*
X13670D01*
X13664Y30935D01*
X13658D01*
X13653Y30936D01*
X13890D01*
D02*
G37*
G36*
X12687Y30936D02*
X12615D01*
X12418Y30424D01*
X12490D01*
X12545Y30579D01*
X12760D01*
X12820Y30424D01*
X12737D01*
X12897Y30424D01*
X12687Y30936D01*
D02*
G37*
%LPD*%
G36*
X10419Y30944D02*
X10406Y30943D01*
X10395Y30942D01*
X10383Y30940D01*
X10372Y30938D01*
X10362Y30935D01*
X10352Y30932D01*
X10344Y30929D01*
X10336Y30926D01*
X10328Y30924D01*
X10322Y30921D01*
X10317Y30918D01*
X10312Y30917D01*
X10310Y30915D01*
X10308Y30914D01*
X10307Y30914D01*
X10297Y30907D01*
X10287Y30901D01*
X10278Y30894D01*
X10270Y30886D01*
X10262Y30879D01*
X10255Y30871D01*
X10248Y30864D01*
X10243Y30857D01*
X10237Y30850D01*
X10233Y30843D01*
X10229Y30838D01*
X10226Y30833D01*
X10223Y30829D01*
X10221Y30826D01*
X10220Y30824D01*
X10220Y30823D01*
X10215Y30812D01*
X10210Y30800D01*
X10206Y30788D01*
X10203Y30776D01*
X10200Y30765D01*
X10197Y30753D01*
X10195Y30742D01*
X10193Y30731D01*
X10192Y30721D01*
X10191Y30712D01*
X10191Y30704D01*
X10190Y30697D01*
Y30691D01*
X10190Y30689D01*
Y30945D01*
X10431D01*
X10419Y30944D01*
D02*
G37*
G36*
X10960Y30886D02*
X10969Y30885D01*
X10978Y30884D01*
X10986Y30882D01*
X10994Y30880D01*
X11001Y30878D01*
X11008Y30876D01*
X11015Y30873D01*
X11021Y30871D01*
X11026Y30869D01*
X11031Y30866D01*
X11035Y30864D01*
X11038Y30863D01*
X11040Y30861D01*
X11041Y30861D01*
X11042Y30860D01*
X11049Y30855D01*
X11056Y30850D01*
X11062Y30844D01*
X11069Y30838D01*
X11074Y30832D01*
X11079Y30826D01*
X11084Y30820D01*
X11088Y30815D01*
X11092Y30809D01*
X11095Y30805D01*
X11097Y30800D01*
X11099Y30796D01*
X11101Y30793D01*
X11102Y30790D01*
X11103Y30789D01*
X11104Y30788D01*
X11107Y30779D01*
X11111Y30770D01*
X11114Y30761D01*
X11116Y30752D01*
X11118Y30742D01*
X11120Y30733D01*
X11121Y30725D01*
X11122Y30716D01*
X11123Y30709D01*
X11124Y30702D01*
X11124Y30695D01*
X11125Y30690D01*
X11125Y30685D01*
Y30682D01*
Y30680D01*
Y30679D01*
X11125Y30661D01*
X11123Y30645D01*
X11121Y30629D01*
X11117Y30614D01*
X11114Y30600D01*
X11109Y30588D01*
X11105Y30577D01*
X11100Y30566D01*
X11096Y30557D01*
X11091Y30549D01*
X11087Y30543D01*
X11083Y30537D01*
X11080Y30533D01*
X11078Y30530D01*
X11076Y30528D01*
X11075Y30527D01*
X11066Y30518D01*
X11056Y30509D01*
X11045Y30502D01*
X11035Y30496D01*
X11024Y30491D01*
X11014Y30486D01*
X11004Y30483D01*
X10994Y30480D01*
X10985Y30478D01*
X10976Y30476D01*
X10969Y30475D01*
X10962Y30474D01*
X10957Y30474D01*
X10955D01*
X10953Y30473D01*
X10950D01*
X10936Y30474D01*
X10923Y30476D01*
X10910Y30478D01*
X10899Y30481D01*
X10887Y30486D01*
X10877Y30490D01*
X10867Y30495D01*
X10859Y30500D01*
X10851Y30505D01*
X10844Y30510D01*
X10839Y30514D01*
X10833Y30518D01*
X10830Y30521D01*
X10827Y30524D01*
X10825Y30526D01*
X10825Y30526D01*
X10816Y30537D01*
X10808Y30548D01*
X10802Y30560D01*
X10796Y30571D01*
X10791Y30584D01*
X10787Y30596D01*
X10784Y30608D01*
X10781Y30619D01*
X10779Y30630D01*
X10778Y30640D01*
X10776Y30649D01*
X10776Y30657D01*
X10775Y30660D01*
Y30663D01*
Y30666D01*
X10775Y30668D01*
Y30670D01*
Y30671D01*
Y30672D01*
Y30672D01*
Y30683D01*
X10776Y30693D01*
X10776Y30703D01*
X10777Y30712D01*
X10778Y30721D01*
X10780Y30730D01*
X10783Y30746D01*
X10787Y30761D01*
X10791Y30775D01*
X10796Y30787D01*
X10801Y30798D01*
X10806Y30807D01*
X10810Y30815D01*
X10815Y30822D01*
X10819Y30827D01*
X10822Y30832D01*
X10825Y30834D01*
X10826Y30836D01*
X10827Y30837D01*
X10837Y30846D01*
X10847Y30853D01*
X10857Y30860D01*
X10868Y30866D01*
X10879Y30870D01*
X10889Y30874D01*
X10899Y30877D01*
X10908Y30880D01*
X10917Y30882D01*
X10925Y30884D01*
X10932Y30885D01*
X10939Y30886D01*
X10943Y30886D01*
X10947Y30886D01*
X10950D01*
X10960Y30886D01*
D02*
G37*
G36*
X13283Y30424D02*
X13015D01*
Y30826D01*
X13283Y30424D01*
D02*
G37*
G36*
X13663Y30875D02*
X13672Y30874D01*
X13681Y30874D01*
X13689Y30873D01*
X13696Y30872D01*
X13703Y30871D01*
X13709Y30870D01*
X13714Y30869D01*
X13718Y30868D01*
X13722Y30867D01*
X13725Y30867D01*
X13727Y30866D01*
X13729Y30865D01*
X13729Y30865D01*
X13730D01*
X13737Y30862D01*
X13743Y30858D01*
X13750Y30854D01*
X13756Y30850D01*
X13761Y30845D01*
X13767Y30840D01*
X13772Y30835D01*
X13776Y30830D01*
X13780Y30826D01*
X13783Y30821D01*
X13786Y30817D01*
X13789Y30814D01*
X13791Y30811D01*
X13793Y30809D01*
X13793Y30807D01*
X13794Y30807D01*
X13799Y30798D01*
X13803Y30789D01*
X13806Y30779D01*
X13809Y30769D01*
X13812Y30759D01*
X13814Y30749D01*
X13816Y30739D01*
X13817Y30729D01*
X13818Y30720D01*
X13819Y30711D01*
X13820Y30703D01*
X13820Y30697D01*
X13820Y30691D01*
Y30689D01*
Y30687D01*
Y30685D01*
Y30684D01*
Y30684D01*
Y30684D01*
Y30673D01*
X13820Y30662D01*
X13819Y30653D01*
X13818Y30644D01*
X13817Y30635D01*
X13816Y30627D01*
X13815Y30619D01*
X13814Y30612D01*
X13812Y30606D01*
X13811Y30601D01*
X13810Y30596D01*
X13809Y30592D01*
X13808Y30589D01*
X13807Y30587D01*
X13807Y30585D01*
Y30585D01*
X13804Y30577D01*
X13801Y30570D01*
X13798Y30564D01*
X13795Y30557D01*
X13792Y30552D01*
X13789Y30546D01*
X13786Y30541D01*
X13783Y30537D01*
X13780Y30533D01*
X13778Y30530D01*
X13775Y30527D01*
X13773Y30524D01*
X13772Y30523D01*
X13770Y30521D01*
X13770Y30520D01*
X13769Y30520D01*
X13762Y30514D01*
X13755Y30509D01*
X13747Y30504D01*
X13740Y30500D01*
X13733Y30497D01*
X13731Y30496D01*
X13728Y30495D01*
X13726Y30494D01*
X13724Y30494D01*
X13723Y30493D01*
X13723D01*
X13718Y30492D01*
X13712Y30490D01*
X13699Y30488D01*
X13685Y30486D01*
X13673Y30485D01*
X13667Y30485D01*
X13661Y30484D01*
X13657D01*
X13652Y30484D01*
X13535D01*
Y30876D01*
X13653D01*
X13663Y30875D01*
D02*
G37*
G36*
X12651Y30874D02*
X12654Y30866D01*
X12660Y30848D01*
X12666Y30830D01*
X12669Y30822D01*
X12672Y30813D01*
X12675Y30806D01*
X12677Y30798D01*
X12679Y30792D01*
X12681Y30786D01*
X12683Y30782D01*
X12684Y30779D01*
X12685Y30776D01*
X12685Y30776D01*
Y30776D01*
X12739Y30634D01*
X12565D01*
X12621Y30784D01*
X12628Y30802D01*
X12633Y30820D01*
X12636Y30829D01*
X12638Y30836D01*
X12640Y30844D01*
X12642Y30851D01*
X12643Y30858D01*
X12645Y30864D01*
X12646Y30869D01*
X12647Y30874D01*
X12648Y30877D01*
X12649Y30880D01*
X12649Y30881D01*
Y30882D01*
X12651Y30874D01*
D02*
G37*
D10*
X14060Y32336D02*
G03*
X14060Y32336I-49J0D01*
G01*
D11*
X31859Y34230D02*
G03*
X31859Y34230I-79J0D01*
G01*
X18020Y28150D02*
X18786D01*
X18020D02*
Y30450D01*
X20080D01*
Y28150D02*
Y30450D01*
X18786Y28150D02*
X20080D01*
D12*
X32164Y34250D02*
G03*
X32164Y34250I-394J0D01*
G01*
X34050Y10150D02*
G03*
X34050Y9650I0J-250D01*
G01*
X30770Y5130D02*
X33420D01*
X30020Y5030D02*
X30770D01*
Y5130D01*
X33420Y880D02*
Y5130D01*
X27370Y880D02*
X33420D01*
X27370D02*
Y5130D01*
X30020D01*
Y5030D02*
Y5130D01*
X20150Y3500D02*
X21250D01*
X20150Y3300D02*
Y3500D01*
Y3300D02*
X21250D01*
Y3500D01*
X10645Y33999D02*
X13391D01*
X13755Y33635D01*
Y33005D02*
Y33635D01*
X10645Y31401D02*
X13401D01*
X13755Y31755D01*
Y32395D01*
X10645Y31401D02*
Y32395D01*
Y33005D02*
Y33999D01*
X19250Y24050D02*
X29500D01*
Y5800D02*
Y24050D01*
X19250Y5800D02*
X29500D01*
X19250D02*
Y24050D01*
X31070Y15940D02*
Y19570D01*
X31170D01*
Y20320D01*
X31070D02*
X31170D01*
X31070D02*
Y23980D01*
X31090Y19570D02*
X31160D01*
X31080Y20320D02*
X31150D01*
X31070Y23980D02*
X35870D01*
Y15940D02*
Y23980D01*
X31070Y15940D02*
X35870D01*
X31240Y33700D02*
X32310D01*
X31240D02*
Y34844D01*
X32306Y28348D02*
Y37320D01*
X27187Y28348D02*
Y37320D01*
Y37324D02*
X32257D01*
X27188Y28348D02*
X32306D01*
X27187Y34844D02*
X32306D01*
X32060Y35070D02*
Y37020D01*
X31130D02*
X32060D01*
X31130Y36110D02*
Y37020D01*
X30340Y36110D02*
X31130D01*
X30340D02*
Y37010D01*
X29410D02*
X30340D01*
X29410Y36110D02*
Y37010D01*
X28510Y36110D02*
X29410D01*
X28510D02*
Y37000D01*
X27640D02*
X28510D01*
X27640D02*
X27650Y36990D01*
X27640Y36110D02*
Y37000D01*
X31624Y35065D02*
Y37015D01*
X34050Y10150D02*
Y10550D01*
Y9250D02*
Y9650D01*
X31350Y9250D02*
Y10550D01*
Y10200D02*
Y12150D01*
Y12250D01*
X34050D01*
Y10450D02*
Y12250D01*
Y7350D02*
Y9250D01*
X31350Y7350D02*
X34050D01*
X31350D02*
Y9300D01*
X239Y31825D02*
X3625D01*
X239Y20675D02*
X3625D01*
X239D02*
Y31825D01*
X485Y20675D02*
Y31825D01*
X3625Y20675D02*
Y31825D01*
X289Y3625D02*
X3675D01*
X289Y12775D02*
X3675D01*
X289Y3625D02*
Y12775D01*
X525Y3625D02*
Y12775D01*
X3675Y3625D02*
Y12775D01*
X289Y13125D02*
X3675D01*
X289Y20275D02*
X3675D01*
Y13125D02*
Y20275D01*
X289Y13125D02*
Y20275D01*
X525Y13125D02*
Y20275D01*
X5770Y330D02*
X10850D01*
X5710Y3290D02*
X10900D01*
X5710Y200D02*
Y3290D01*
X10900Y200D02*
Y3290D01*
X5710Y200D02*
X10900D01*
X22050Y27150D02*
Y28250D01*
X21850D02*
X22050D01*
X21850Y27150D02*
Y28250D01*
Y27150D02*
X22050D01*
X16250Y26900D02*
Y28000D01*
X16050D02*
X16250D01*
X16050Y26900D02*
Y28000D01*
Y26900D02*
X16250D01*
X16050Y19200D02*
Y20300D01*
X15850D02*
X16050D01*
X15850Y19200D02*
Y20300D01*
Y19200D02*
X16050D01*
X23950Y32500D02*
Y33600D01*
Y32500D02*
X24150D01*
Y33600D01*
X23950D02*
X24150D01*
X16250Y24550D02*
Y25650D01*
X16050D02*
X16250D01*
X16050Y24550D02*
Y25650D01*
Y24550D02*
X16250D01*
X16450Y16200D02*
Y17300D01*
X16250D02*
X16450D01*
X16250Y16200D02*
Y17300D01*
Y16200D02*
X16450D01*
X23300Y3450D02*
X24400D01*
X23300Y3250D02*
Y3450D01*
Y3250D02*
X24400D01*
Y3450D01*
X32130Y6400D02*
Y7000D01*
X32430D01*
X32530Y6900D01*
Y6700D01*
X32430Y6600D01*
X32130D01*
X33130Y7000D02*
X32730D01*
Y6700D01*
X32930Y6800D01*
X33030D01*
X33130Y6700D01*
Y6500D01*
X33030Y6400D01*
X32830D01*
X32730Y6500D01*
X30680Y6600D02*
Y6429D01*
Y6515D01*
X31192D01*
X31106Y6600D01*
X4200Y34700D02*
Y34300D01*
X4400D01*
X4467Y34367D01*
Y34433D01*
X4400Y34500D01*
X4200D01*
X4400D01*
X4467Y34567D01*
Y34633D01*
X4400Y34700D01*
X4200D01*
X4600Y34300D02*
Y34700D01*
X4800D01*
X4866Y34633D01*
Y34500D01*
X4800Y34433D01*
X4600D01*
X4733D02*
X4866Y34300D01*
X5000D02*
Y34567D01*
X5133Y34700D01*
X5266Y34567D01*
Y34300D01*
Y34500D01*
X5000D01*
X6066Y34300D02*
X5799D01*
X6066Y34567D01*
Y34633D01*
X5999Y34700D01*
X5866D01*
X5799Y34633D01*
X6199D02*
X6266Y34700D01*
X6399D01*
X6466Y34633D01*
Y34367D01*
X6399Y34300D01*
X6266D01*
X6199Y34367D01*
Y34633D01*
X6866Y34300D02*
X6599D01*
X6866Y34567D01*
Y34633D01*
X6799Y34700D01*
X6666D01*
X6599Y34633D01*
X6999Y34300D02*
X7132D01*
X7066D01*
Y34700D01*
X6999Y34633D01*
X7732D02*
X7799Y34700D01*
X7932D01*
X7999Y34633D01*
Y34367D01*
X7932Y34300D01*
X7799D01*
X7732Y34367D01*
Y34633D01*
X8132D02*
X8199Y34700D01*
X8332D01*
X8399Y34633D01*
Y34567D01*
X8332Y34500D01*
X8265D01*
X8332D01*
X8399Y34433D01*
Y34367D01*
X8332Y34300D01*
X8199D01*
X8132Y34367D01*
X8932Y34633D02*
X8998Y34700D01*
X9132D01*
X9198Y34633D01*
Y34367D01*
X9132Y34300D01*
X8998D01*
X8932Y34367D01*
Y34633D01*
X9532Y34300D02*
Y34700D01*
X9332Y34500D01*
X9598D01*
X19767Y2583D02*
Y2917D01*
X19683Y3000D01*
X19517D01*
X19433Y2917D01*
Y2583D01*
X19517Y2500D01*
X19683D01*
X19600Y2667D02*
X19767Y2500D01*
X19683D02*
X19767Y2583D01*
X20183Y2500D02*
Y3000D01*
X19933Y2750D01*
X20267D01*
X18733Y34300D02*
Y33883D01*
X18817Y33800D01*
X18983D01*
X19067Y33883D01*
Y34300D01*
X19567Y33800D02*
X19233D01*
X19567Y34133D01*
Y34217D01*
X19483Y34300D01*
X19317D01*
X19233Y34217D01*
X7335Y10510D02*
Y10093D01*
X7419Y10010D01*
X7585D01*
X7669Y10093D01*
Y10510D01*
X7835Y10010D02*
X8002D01*
X7919D01*
Y10510D01*
X7835Y10427D01*
X17117Y30150D02*
Y29650D01*
X17450D01*
X17617D02*
X17783D01*
X17700D01*
Y30150D01*
X17617Y30067D01*
X14850Y15817D02*
X14350D01*
X14517D01*
X14850Y15483D01*
X14600Y15733D01*
X14350Y15483D01*
Y14983D02*
Y15317D01*
X14683Y14983D01*
X14767D01*
X14850Y15067D01*
Y15233D01*
X14767Y15317D01*
X19350Y5116D02*
X19850D01*
Y4867D01*
X19767Y4783D01*
X19600D01*
X19517Y4867D01*
Y5116D01*
Y4950D02*
X19350Y4783D01*
Y4283D02*
Y4617D01*
X19683Y4283D01*
X19767D01*
X19850Y4367D01*
Y4533D01*
X19767Y4617D01*
Y4117D02*
X19850Y4033D01*
Y3867D01*
X19767Y3784D01*
X19683D01*
X19600Y3867D01*
Y3950D01*
Y3867D01*
X19517Y3784D01*
X19433D01*
X19350Y3867D01*
Y4033D01*
X19433Y4117D01*
X12167Y34667D02*
X12083Y34750D01*
X11917D01*
X11833Y34667D01*
Y34333D01*
X11917Y34250D01*
X12083D01*
X12167Y34333D01*
X12583Y34250D02*
Y34750D01*
X12333Y34500D01*
X12667D01*
X19300Y24400D02*
Y25000D01*
X19600D01*
X19700Y24900D01*
Y24700D01*
X19600Y24600D01*
X19300D01*
X19900Y25000D02*
Y24500D01*
X20000Y24400D01*
X20200D01*
X20300Y24500D01*
Y25000D01*
X20500Y24400D02*
X20700D01*
X20600D01*
Y25000D01*
X20500Y24900D01*
X26750Y5400D02*
X26683Y5333D01*
X26550D01*
X26483Y5267D01*
X24000Y5400D02*
X23933Y5333D01*
X23800D01*
X23733Y5267D01*
X30550Y24340D02*
Y24940D01*
X30850D01*
X30950Y24840D01*
Y24640D01*
X30850Y24540D01*
X30550D01*
X31550Y24940D02*
X31350Y24840D01*
X31150Y24640D01*
Y24440D01*
X31250Y24340D01*
X31450D01*
X31550Y24440D01*
Y24540D01*
X31450Y24640D01*
X31150D01*
X30550Y21700D02*
X30750D01*
X30650D01*
Y22300D01*
X30550Y22200D01*
X13450Y3179D02*
X13117D01*
Y2929D01*
X13283D01*
X13117D01*
Y2679D01*
X13617D02*
X13783D01*
X13700D01*
Y3179D01*
X13617Y3096D01*
X24833Y35200D02*
Y34783D01*
X24917Y34700D01*
X25083D01*
X25167Y34783D01*
Y35200D01*
X25333Y35117D02*
X25417Y35200D01*
X25583D01*
X25667Y35117D01*
Y35033D01*
X25583Y34950D01*
X25500D01*
X25583D01*
X25667Y34867D01*
Y34783D01*
X25583Y34700D01*
X25417D01*
X25333Y34783D01*
X34600Y9317D02*
X34517Y9400D01*
X34350D01*
X34267Y9317D01*
Y9233D01*
X34350Y9150D01*
X34517D01*
X34600Y9067D01*
Y8983D01*
X34517Y8900D01*
X34350D01*
X34267Y8983D01*
X34767Y8900D02*
X34933D01*
X34850D01*
Y9400D01*
X34767Y9317D01*
X4099Y31877D02*
X4499D01*
Y31677D01*
X4432Y31610D01*
X4299D01*
X4232Y31677D01*
Y31877D01*
X4099Y31477D02*
Y31343D01*
Y31410D01*
X4499D01*
X4432Y31477D01*
X4159Y21080D02*
Y20947D01*
Y21013D01*
X4558D01*
X4492Y21080D01*
X4110Y12683D02*
X4510D01*
Y12483D01*
X4443Y12417D01*
X4310D01*
X4243Y12483D01*
Y12683D01*
X4110Y12017D02*
Y12283D01*
X4377Y12017D01*
X4443D01*
X4510Y12083D01*
Y12217D01*
X4443Y12283D01*
X4170Y3540D02*
Y3407D01*
Y3473D01*
X4570D01*
X4503Y3540D01*
X4130Y20357D02*
X4630D01*
Y20107D01*
X4547Y20023D01*
X4380D01*
X4297Y20107D01*
Y20357D01*
X4547Y19857D02*
X4630Y19773D01*
Y19607D01*
X4547Y19523D01*
X4463D01*
X4380Y19607D01*
Y19690D01*
Y19607D01*
X4297Y19523D01*
X4213D01*
X4130Y19607D01*
Y19773D01*
X4213Y19857D01*
X4120Y13720D02*
Y13587D01*
Y13653D01*
X4520D01*
X4453Y13720D01*
X11200Y2350D02*
X11800D01*
Y2050D01*
X11700Y1950D01*
X11500D01*
X11400Y2050D01*
Y2350D01*
X11200Y1450D02*
X11800D01*
X11500Y1750D01*
Y1350D01*
X17005Y23812D02*
X17089Y23895D01*
Y24061D01*
X17005Y24145D01*
X16672D01*
X16589Y24061D01*
Y23895D01*
X16672Y23812D01*
X16589Y23645D02*
Y23478D01*
Y23562D01*
X17089D01*
X17005Y23645D01*
Y23228D02*
X17089Y23145D01*
Y22979D01*
X17005Y22895D01*
X16672D01*
X16589Y22979D01*
Y23145D01*
X16672Y23228D01*
X17005D01*
X23200Y2117D02*
X22700D01*
Y1867D01*
X22783Y1783D01*
X23117D01*
X23200Y1867D01*
Y2117D01*
X22783Y1617D02*
X22700Y1533D01*
Y1367D01*
X22783Y1283D01*
X23117D01*
X23200Y1367D01*
Y1533D01*
X23117Y1617D01*
X23033D01*
X22950Y1533D01*
Y1283D01*
X9469Y10437D02*
X9385Y10520D01*
X9219D01*
X9135Y10437D01*
Y10103D01*
X9219Y10020D01*
X9385D01*
X9469Y10103D01*
X9635Y10020D02*
X9802D01*
X9719D01*
Y10520D01*
X9635Y10437D01*
X9495Y7767D02*
X9412Y7850D01*
X9245D01*
X9162Y7767D01*
Y7433D01*
X9245Y7350D01*
X9412D01*
X9495Y7433D01*
X9662Y7767D02*
X9745Y7850D01*
X9912D01*
X9995Y7767D01*
Y7683D01*
X9912Y7600D01*
X9829D01*
X9912D01*
X9995Y7517D01*
Y7433D01*
X9912Y7350D01*
X9745D01*
X9662Y7433D01*
X21017Y25617D02*
X20933Y25700D01*
X20767D01*
X20683Y25617D01*
Y25283D01*
X20767Y25200D01*
X20933D01*
X21017Y25283D01*
X21517Y25200D02*
X21183D01*
X21517Y25533D01*
Y25617D01*
X21433Y25700D01*
X21267D01*
X21183Y25617D01*
X25095Y25467D02*
X25012Y25550D01*
X24845D01*
X24762Y25467D01*
Y25133D01*
X24845Y25050D01*
X25012D01*
X25095Y25133D01*
X25595Y25550D02*
X25262D01*
Y25300D01*
X25429Y25383D01*
X25512D01*
X25595Y25300D01*
Y25133D01*
X25512Y25050D01*
X25345D01*
X25262Y25133D01*
X14717Y31467D02*
X14633Y31550D01*
X14467D01*
X14383Y31467D01*
Y31133D01*
X14467Y31050D01*
X14633D01*
X14717Y31133D01*
X15217Y31550D02*
X15050Y31467D01*
X14883Y31300D01*
Y31133D01*
X14967Y31050D01*
X15133D01*
X15217Y31133D01*
Y31217D01*
X15133Y31300D01*
X14883D01*
X22473Y32617D02*
X22390Y32700D01*
X22223D01*
X22140Y32617D01*
Y32283D01*
X22223Y32200D01*
X22390D01*
X22473Y32283D01*
X22640Y32700D02*
X22973D01*
Y32617D01*
X22640Y32283D01*
Y32200D01*
X23677Y30805D02*
X23593Y30889D01*
X23427D01*
X23343Y30805D01*
Y30472D01*
X23427Y30389D01*
X23593D01*
X23677Y30472D01*
X23843Y30805D02*
X23927Y30889D01*
X24093D01*
X24177Y30805D01*
Y30722D01*
X24093Y30639D01*
X24177Y30555D01*
Y30472D01*
X24093Y30389D01*
X23927D01*
X23843Y30472D01*
Y30555D01*
X23927Y30639D01*
X23843Y30722D01*
Y30805D01*
X23927Y30639D02*
X24093D01*
X23710Y29875D02*
X23627Y29959D01*
X23460D01*
X23377Y29875D01*
Y29542D01*
X23460Y29459D01*
X23627D01*
X23710Y29542D01*
X23877D02*
X23960Y29459D01*
X24127D01*
X24210Y29542D01*
Y29875D01*
X24127Y29959D01*
X23960D01*
X23877Y29875D01*
Y29792D01*
X23960Y29709D01*
X24210D01*
X21567Y28950D02*
Y28450D01*
X21817D01*
X21900Y28533D01*
Y28867D01*
X21817Y28950D01*
X21567D01*
X22067Y28450D02*
X22233D01*
X22150D01*
Y28950D01*
X22067Y28867D01*
X18936Y26400D02*
Y25900D01*
X19186D01*
X19269Y25983D01*
Y26317D01*
X19186Y26400D01*
X18936D01*
X19769Y25900D02*
X19436D01*
X19769Y26233D01*
Y26317D01*
X19686Y26400D01*
X19519D01*
X19436Y26317D01*
X16183Y28750D02*
Y28250D01*
X16433D01*
X16517Y28333D01*
Y28667D01*
X16433Y28750D01*
X16183D01*
X16683Y28667D02*
X16767Y28750D01*
X16933D01*
X17017Y28667D01*
Y28583D01*
X16933Y28500D01*
X16850D01*
X16933D01*
X17017Y28417D01*
Y28333D01*
X16933Y28250D01*
X16767D01*
X16683Y28333D01*
X18183Y20350D02*
Y19850D01*
X18433D01*
X18517Y19933D01*
Y20267D01*
X18433Y20350D01*
X18183D01*
X18933Y19850D02*
Y20350D01*
X18683Y20100D01*
X19017D01*
X15533Y21000D02*
Y20500D01*
X15783D01*
X15867Y20583D01*
Y20917D01*
X15783Y21000D01*
X15533D01*
X16367D02*
X16033D01*
Y20750D01*
X16200Y20833D01*
X16283D01*
X16367Y20750D01*
Y20583D01*
X16283Y20500D01*
X16117D01*
X16033Y20583D01*
X23350Y26167D02*
X22850D01*
Y25917D01*
X22933Y25833D01*
X23267D01*
X23350Y25917D01*
Y26167D01*
Y25333D02*
X23267Y25500D01*
X23100Y25667D01*
X22933D01*
X22850Y25583D01*
Y25417D01*
X22933Y25333D01*
X23017D01*
X23100Y25417D01*
Y25667D01*
X23633Y34300D02*
Y33800D01*
X23883D01*
X23967Y33883D01*
Y34217D01*
X23883Y34300D01*
X23633D01*
X24133D02*
X24467D01*
Y34217D01*
X24133Y33883D01*
Y33800D01*
X26450Y1967D02*
X25950D01*
Y1717D01*
X26033Y1633D01*
X26367D01*
X26450Y1717D01*
Y1967D01*
X26367Y1467D02*
X26450Y1383D01*
Y1217D01*
X26367Y1133D01*
X26283D01*
X26200Y1217D01*
X26117Y1133D01*
X26033D01*
X25950Y1217D01*
Y1383D01*
X26033Y1467D01*
X26117D01*
X26200Y1383D01*
X26283Y1467D01*
X26367D01*
X26200Y1383D02*
Y1217D01*
X14900Y24533D02*
X14400D01*
X14567D01*
X14900Y24200D01*
X14650Y24450D01*
X14400Y24200D01*
Y24033D02*
Y23867D01*
Y23950D01*
X14900D01*
X14817Y24033D01*
X15400Y25533D02*
Y25867D01*
X15317Y25950D01*
X15150D01*
X15067Y25867D01*
Y25533D01*
X15150Y25450D01*
X15317D01*
X15233Y25617D02*
X15400Y25450D01*
X15317D02*
X15400Y25533D01*
X15567Y25450D02*
X15733D01*
X15650D01*
Y25950D01*
X15567Y25867D01*
X16357Y17583D02*
Y17917D01*
X16273Y18000D01*
X16107D01*
X16023Y17917D01*
Y17583D01*
X16107Y17500D01*
X16273D01*
X16190Y17667D02*
X16357Y17500D01*
X16273D02*
X16357Y17583D01*
X16857Y17500D02*
X16523D01*
X16857Y17833D01*
Y17917D01*
X16773Y18000D01*
X16607D01*
X16523Y17917D01*
X22967Y2583D02*
Y2917D01*
X22883Y3000D01*
X22717D01*
X22633Y2917D01*
Y2583D01*
X22717Y2500D01*
X22883D01*
X22800Y2667D02*
X22967Y2500D01*
X22883D02*
X22967Y2583D01*
X23133Y2917D02*
X23217Y3000D01*
X23383D01*
X23467Y2917D01*
Y2833D01*
X23383Y2750D01*
X23300D01*
X23383D01*
X23467Y2667D01*
Y2583D01*
X23383Y2500D01*
X23217D01*
X23133Y2583D01*
X20467Y26800D02*
Y27300D01*
X20717D01*
X20800Y27217D01*
Y27050D01*
X20717Y26967D01*
X20467D01*
X20633D02*
X20800Y26800D01*
X20967D02*
X21133D01*
X21050D01*
Y27300D01*
X20967Y27217D01*
X8183Y31100D02*
Y31600D01*
X8433D01*
X8517Y31517D01*
Y31350D01*
X8433Y31267D01*
X8183D01*
X8350D02*
X8517Y31100D01*
X9017D02*
X8683D01*
X9017Y31433D01*
Y31517D01*
X8933Y31600D01*
X8767D01*
X8683Y31517D01*
X18483Y26800D02*
Y27300D01*
X18733D01*
X18817Y27217D01*
Y27050D01*
X18733Y26967D01*
X18483D01*
X18650D02*
X18817Y26800D01*
X18983Y27217D02*
X19067Y27300D01*
X19233D01*
X19317Y27217D01*
Y27133D01*
X19233Y27050D01*
X19150D01*
X19233D01*
X19317Y26967D01*
Y26883D01*
X19233Y26800D01*
X19067D01*
X18983Y26883D01*
X17950Y25467D02*
X18450D01*
Y25217D01*
X18367Y25133D01*
X18200D01*
X18117Y25217D01*
Y25467D01*
Y25300D02*
X17950Y25133D01*
Y24717D02*
X18450D01*
X18200Y24967D01*
Y24633D01*
X18183Y19050D02*
Y19550D01*
X18433D01*
X18517Y19467D01*
Y19300D01*
X18433Y19217D01*
X18183D01*
X18350D02*
X18517Y19050D01*
X19017Y19550D02*
X18683D01*
Y19300D01*
X18850Y19383D01*
X18933D01*
X19017Y19300D01*
Y19133D01*
X18933Y19050D01*
X18767D01*
X18683Y19133D01*
X18200Y17267D02*
X18700D01*
Y17017D01*
X18617Y16933D01*
X18450D01*
X18367Y17017D01*
Y17267D01*
Y17100D02*
X18200Y16933D01*
X18700Y16433D02*
X18617Y16600D01*
X18450Y16767D01*
X18283D01*
X18200Y16683D01*
Y16517D01*
X18283Y16433D01*
X18367D01*
X18450Y16517D01*
Y16767D01*
X15950Y34317D02*
X16450D01*
Y34067D01*
X16367Y33983D01*
X16200D01*
X16117Y34067D01*
Y34317D01*
Y34150D02*
X15950Y33983D01*
X16450Y33817D02*
Y33483D01*
X16367D01*
X16033Y33817D01*
X15950D01*
X22983Y27600D02*
Y28100D01*
X23233D01*
X23317Y28017D01*
Y27850D01*
X23233Y27767D01*
X22983D01*
X23150D02*
X23317Y27600D01*
X23483Y28017D02*
X23567Y28100D01*
X23733D01*
X23817Y28017D01*
Y27933D01*
X23733Y27850D01*
X23817Y27767D01*
Y27683D01*
X23733Y27600D01*
X23567D01*
X23483Y27683D01*
Y27767D01*
X23567Y27850D01*
X23483Y27933D01*
Y28017D01*
X23567Y27850D02*
X23733D01*
X15150Y34317D02*
X15650D01*
Y34067D01*
X15567Y33983D01*
X15400D01*
X15317Y34067D01*
Y34317D01*
Y34150D02*
X15150Y33983D01*
X15233Y33817D02*
X15150Y33733D01*
Y33567D01*
X15233Y33483D01*
X15567D01*
X15650Y33567D01*
Y33733D01*
X15567Y33817D01*
X15483D01*
X15400Y33733D01*
Y33483D01*
X24846Y32215D02*
X25346D01*
Y31965D01*
X25262Y31882D01*
X25096D01*
X25012Y31965D01*
Y32215D01*
Y32048D02*
X24846Y31882D01*
Y31715D02*
Y31548D01*
Y31632D01*
X25346D01*
X25262Y31715D01*
Y31298D02*
X25346Y31215D01*
Y31049D01*
X25262Y30965D01*
X24929D01*
X24846Y31049D01*
Y31215D01*
X24929Y31298D01*
X25262D01*
X18309Y22451D02*
X18809D01*
Y22202D01*
X18725Y22118D01*
X18559D01*
X18475Y22202D01*
Y22451D01*
Y22285D02*
X18309Y22118D01*
Y21952D02*
Y21785D01*
Y21868D01*
X18809D01*
X18725Y21952D01*
X18309Y21535D02*
Y21369D01*
Y21452D01*
X18809D01*
X18725Y21535D01*
X33500Y26525D02*
X34000D01*
Y26275D01*
X33917Y26192D01*
X33750D01*
X33667Y26275D01*
Y26525D01*
Y26358D02*
X33500Y26192D01*
Y26025D02*
Y25858D01*
Y25942D01*
X34000D01*
X33917Y26025D01*
X33500Y25275D02*
Y25608D01*
X33833Y25275D01*
X33917D01*
X34000Y25359D01*
Y25525D01*
X33917Y25608D01*
X23675Y1300D02*
Y1800D01*
X23925D01*
X24008Y1717D01*
Y1550D01*
X23925Y1467D01*
X23675D01*
X23842D02*
X24008Y1300D01*
X24175D02*
X24342D01*
X24258D01*
Y1800D01*
X24175Y1717D01*
X24592D02*
X24675Y1800D01*
X24841D01*
X24925Y1717D01*
Y1633D01*
X24841Y1550D01*
X24758D01*
X24841D01*
X24925Y1467D01*
Y1383D01*
X24841Y1300D01*
X24675D01*
X24592Y1383D01*
X26150Y4325D02*
X26650D01*
Y4075D01*
X26567Y3992D01*
X26400D01*
X26317Y4075D01*
Y4325D01*
Y4158D02*
X26150Y3992D01*
Y3825D02*
Y3658D01*
Y3742D01*
X26650D01*
X26567Y3825D01*
X26150Y3159D02*
X26650D01*
X26400Y3408D01*
Y3075D01*
X22675Y28550D02*
Y29050D01*
X22925D01*
X23008Y28967D01*
Y28800D01*
X22925Y28717D01*
X22675D01*
X22842D02*
X23008Y28550D01*
X23175D02*
X23342D01*
X23258D01*
Y29050D01*
X23175Y28967D01*
X23925Y29050D02*
X23592D01*
Y28800D01*
X23758Y28883D01*
X23841D01*
X23925Y28800D01*
Y28633D01*
X23841Y28550D01*
X23675D01*
X23592Y28633D01*
X14900Y22575D02*
X15400D01*
Y22325D01*
X15317Y22242D01*
X15150D01*
X15067Y22325D01*
Y22575D01*
Y22408D02*
X14900Y22242D01*
Y22075D02*
Y21908D01*
Y21992D01*
X15400D01*
X15317Y22075D01*
X15400Y21325D02*
X15317Y21492D01*
X15150Y21658D01*
X14983D01*
X14900Y21575D01*
Y21409D01*
X14983Y21325D01*
X15067D01*
X15150Y21409D01*
Y21658D01*
X24625Y4300D02*
Y4800D01*
X24875D01*
X24958Y4717D01*
Y4550D01*
X24875Y4467D01*
X24625D01*
X24792D02*
X24958Y4300D01*
X25125D02*
X25292D01*
X25208D01*
Y4800D01*
X25125Y4717D01*
X25542Y4800D02*
X25875D01*
Y4717D01*
X25542Y4383D01*
Y4300D01*
X24381Y26950D02*
Y27450D01*
X24631D01*
X24715Y27367D01*
Y27200D01*
X24631Y27117D01*
X24381D01*
X24548D02*
X24715Y26950D01*
X24881D02*
X25048D01*
X24965D01*
Y27450D01*
X24881Y27367D01*
X25298D02*
X25381Y27450D01*
X25548D01*
X25631Y27367D01*
Y27283D01*
X25548Y27200D01*
X25631Y27117D01*
Y27033D01*
X25548Y26950D01*
X25381D01*
X25298Y27033D01*
Y27117D01*
X25381Y27200D01*
X25298Y27283D01*
Y27367D01*
X25381Y27200D02*
X25548D01*
X20425Y1300D02*
Y1800D01*
X20675D01*
X20758Y1717D01*
Y1550D01*
X20675Y1467D01*
X20425D01*
X20592D02*
X20758Y1300D01*
X20925D02*
X21092D01*
X21008D01*
Y1800D01*
X20925Y1717D01*
X21342Y1383D02*
X21425Y1300D01*
X21591D01*
X21675Y1383D01*
Y1717D01*
X21591Y1800D01*
X21425D01*
X21342Y1717D01*
Y1633D01*
X21425Y1550D01*
X21675D01*
X28500Y26666D02*
X29000D01*
Y26417D01*
X28917Y26333D01*
X28750D01*
X28667Y26417D01*
Y26666D01*
Y26500D02*
X28500Y26333D01*
Y25833D02*
Y26167D01*
X28833Y25833D01*
X28917D01*
X29000Y25917D01*
Y26083D01*
X28917Y26167D01*
Y25667D02*
X29000Y25583D01*
Y25417D01*
X28917Y25334D01*
X28583D01*
X28500Y25417D01*
Y25583D01*
X28583Y25667D01*
X28917D01*
X31023Y14250D02*
Y14750D01*
X31273D01*
X31356Y14667D01*
Y14500D01*
X31273Y14417D01*
X31023D01*
X31190D02*
X31356Y14250D01*
X31856D02*
X31523D01*
X31856Y14583D01*
Y14667D01*
X31773Y14750D01*
X31606D01*
X31523Y14667D01*
X32023Y14250D02*
X32189D01*
X32106D01*
Y14750D01*
X32023Y14667D01*
X21634Y4300D02*
Y4800D01*
X21883D01*
X21967Y4717D01*
Y4550D01*
X21883Y4467D01*
X21634D01*
X21800D02*
X21967Y4300D01*
X22467D02*
X22133D01*
X22467Y4633D01*
Y4717D01*
X22383Y4800D01*
X22217D01*
X22133Y4717D01*
X22966Y4300D02*
X22633D01*
X22966Y4633D01*
Y4717D01*
X22883Y4800D01*
X22717D01*
X22633Y4717D01*
X13050Y1750D02*
X13250D01*
X13150D01*
Y2350D01*
X13050Y2250D01*
X13550Y1750D02*
Y2150D01*
X13750Y2350D01*
X13950Y2150D01*
Y1750D01*
Y2050D01*
X13550D01*
X9690Y5163D02*
Y5430D01*
X9957Y5163D01*
X10023D01*
X10090Y5230D01*
Y5363D01*
X10023Y5430D01*
X9690Y4830D02*
X10090D01*
X9890Y5030D01*
Y4764D01*
X10023Y4630D02*
X10090Y4564D01*
Y4430D01*
X10023Y4364D01*
X9757D01*
X9690Y4430D01*
Y4564D01*
X9757Y4630D01*
X10023D01*
X10090Y4230D02*
X9823D01*
X9690Y4097D01*
X9823Y3964D01*
X10090D01*
X4503Y30453D02*
X4570Y30520D01*
Y30653D01*
X4503Y30720D01*
X4237D01*
X4170Y30653D01*
Y30520D01*
X4237Y30453D01*
X4370D01*
Y30587D01*
X4170Y30320D02*
X4570D01*
X4170Y30054D01*
X4570D01*
Y29920D02*
X4170D01*
Y29720D01*
X4237Y29654D01*
X4503D01*
X4570Y29720D01*
Y29920D01*
Y29070D02*
X4170D01*
Y28803D01*
X4570Y28404D02*
Y28670D01*
X4170D01*
Y28404D01*
X4370Y28670D02*
Y28537D01*
X4570Y28270D02*
X4303D01*
X4170Y28137D01*
X4303Y28004D01*
X4570D01*
Y27604D02*
Y27870D01*
X4170D01*
Y27604D01*
X4370Y27870D02*
Y27737D01*
X4570Y27471D02*
X4170D01*
Y27204D01*
X4503Y24403D02*
X4570Y24470D01*
Y24603D01*
X4503Y24670D01*
X4237D01*
X4170Y24603D01*
Y24470D01*
X4237Y24403D01*
X4570Y24070D02*
Y24203D01*
X4503Y24270D01*
X4237D01*
X4170Y24203D01*
Y24070D01*
X4237Y24004D01*
X4503D01*
X4570Y24070D01*
X4170Y23870D02*
X4570D01*
X4437Y23737D01*
X4570Y23604D01*
X4170D01*
X4170Y22420D02*
X4570D01*
X4170Y22153D01*
X4570D01*
X4503Y21754D02*
X4570Y21820D01*
Y21953D01*
X4503Y22020D01*
X4237D01*
X4170Y21953D01*
Y21820D01*
X4237Y21754D01*
X4170Y26570D02*
X4570D01*
X4170Y26303D01*
X4570D01*
Y25970D02*
Y26103D01*
X4503Y26170D01*
X4237D01*
X4170Y26103D01*
Y25970D01*
X4237Y25904D01*
X4503D01*
X4570Y25970D01*
X4493Y16863D02*
X4560Y16930D01*
Y17063D01*
X4493Y17130D01*
X4227D01*
X4160Y17063D01*
Y16930D01*
X4227Y16863D01*
X4560Y16530D02*
Y16663D01*
X4493Y16730D01*
X4227D01*
X4160Y16663D01*
Y16530D01*
X4227Y16464D01*
X4493D01*
X4560Y16530D01*
X4160Y16330D02*
X4560D01*
X4427Y16197D01*
X4560Y16064D01*
X4160D01*
X4140Y15000D02*
X4540D01*
X4140Y14733D01*
X4540D01*
X4473Y14334D02*
X4540Y14400D01*
Y14533D01*
X4473Y14600D01*
X4207D01*
X4140Y14533D01*
Y14400D01*
X4207Y14334D01*
X4180Y18980D02*
X4580D01*
X4180Y18713D01*
X4580D01*
Y18380D02*
Y18513D01*
X4513Y18580D01*
X4247D01*
X4180Y18513D01*
Y18380D01*
X4247Y18314D01*
X4513D01*
X4580Y18380D01*
X4530Y11350D02*
X4130D01*
Y11150D01*
X4197Y11083D01*
X4263D01*
X4330Y11150D01*
Y11350D01*
Y11150D01*
X4397Y11083D01*
X4463D01*
X4530Y11150D01*
Y11350D01*
Y10950D02*
X4197D01*
X4130Y10883D01*
Y10750D01*
X4197Y10684D01*
X4530D01*
X4463Y10284D02*
X4530Y10350D01*
Y10484D01*
X4463Y10550D01*
X4397D01*
X4330Y10484D01*
Y10350D01*
X4263Y10284D01*
X4197D01*
X4130Y10350D01*
Y10484D01*
X4197Y10550D01*
X4530Y10150D02*
X4463D01*
X4330Y10017D01*
X4463Y9884D01*
X4530D01*
X4330Y10017D02*
X4130D01*
X4530Y9351D02*
Y9217D01*
Y9284D01*
X4130D01*
Y9351D01*
Y9217D01*
Y9017D02*
X4397Y8751D01*
X4530Y8418D02*
Y8551D01*
X4463Y8618D01*
X4197D01*
X4130Y8551D01*
Y8418D01*
X4197Y8351D01*
X4463D01*
X4530Y8418D01*
Y7320D02*
X4130D01*
Y7120D01*
X4197Y7053D01*
X4263D01*
X4330Y7120D01*
Y7320D01*
Y7120D01*
X4397Y7053D01*
X4463D01*
X4530Y7120D01*
Y7320D01*
Y6920D02*
X4197D01*
X4130Y6853D01*
Y6720D01*
X4197Y6654D01*
X4530D01*
X4463Y6254D02*
X4530Y6320D01*
Y6454D01*
X4463Y6520D01*
X4397D01*
X4330Y6454D01*
Y6320D01*
X4263Y6254D01*
X4197D01*
X4130Y6320D01*
Y6454D01*
X4197Y6520D01*
X4530Y6120D02*
X4463D01*
X4330Y5987D01*
X4463Y5854D01*
X4530D01*
X4330Y5987D02*
X4130D01*
X4530Y5321D02*
Y5187D01*
Y5254D01*
X4130D01*
Y5321D01*
Y5187D01*
Y4987D02*
X4397Y4721D01*
X4530Y4388D02*
Y4521D01*
X4463Y4588D01*
X4197D01*
X4130Y4521D01*
Y4388D01*
X4197Y4321D01*
X4463D01*
X4530Y4388D01*
X6640Y5163D02*
Y5430D01*
X6907Y5163D01*
X6973D01*
X7040Y5230D01*
Y5363D01*
X6973Y5430D01*
X6640Y4830D02*
X7040D01*
X6840Y5030D01*
Y4764D01*
X6973Y4630D02*
X7040Y4564D01*
Y4430D01*
X6973Y4364D01*
X6707D01*
X6640Y4430D01*
Y4564D01*
X6707Y4630D01*
X6973D01*
X7040Y4230D02*
X6773D01*
X6640Y4097D01*
X6773Y3964D01*
X7040D01*
X5767Y32000D02*
X5500D01*
X5767Y32267D01*
Y32333D01*
X5700Y32400D01*
X5567D01*
X5500Y32333D01*
X5900D02*
X5967Y32400D01*
X6100D01*
X6166Y32333D01*
Y32067D01*
X6100Y32000D01*
X5967D01*
X5900Y32067D01*
Y32333D01*
X6566Y32000D02*
X6300D01*
X6566Y32267D01*
Y32333D01*
X6500Y32400D01*
X6366D01*
X6300Y32333D01*
X6700Y32000D02*
X6833D01*
X6766D01*
Y32400D01*
X6700Y32333D01*
X7433D02*
X7499Y32400D01*
X7633D01*
X7699Y32333D01*
Y32067D01*
X7633Y32000D01*
X7499D01*
X7433Y32067D01*
Y32333D01*
X7833Y32067D02*
X7899Y32000D01*
X8033D01*
X8099Y32067D01*
Y32333D01*
X8033Y32400D01*
X7899D01*
X7833Y32333D01*
Y32267D01*
X7899Y32200D01*
X8099D01*
D13*
X18325Y30880D02*
X19775D01*
Y31306D01*
Y33106D02*
Y33520D01*
Y31306D02*
X20825D01*
Y33106D01*
X19775D02*
X20825D01*
X18325Y33520D02*
X19775D01*
X18325Y30880D02*
Y33520D01*
D14*
X6949Y9700D02*
Y9850D01*
X6550D02*
X6949D01*
X6550Y9700D02*
Y9850D01*
X6050Y9700D02*
X7450D01*
X6050Y7600D02*
Y9700D01*
Y7600D02*
X7450D01*
Y9700D01*
X5349Y21212D02*
X14049D01*
X5349Y14912D02*
Y21212D01*
Y14912D02*
X14049D01*
Y21212D01*
X5399Y30062D02*
X14099D01*
X5399Y23762D02*
Y30062D01*
Y23762D02*
X14099D01*
Y30062D01*
X6100Y9850D02*
X6225D01*
X6162D01*
Y10225D01*
X6100Y10162D01*
D15*
X20100Y4270D02*
X21300D01*
X20100Y4930D02*
X21300D01*
Y4270D02*
Y4930D01*
X20100Y4270D02*
Y4930D01*
X16530Y22570D02*
X17170D01*
X16520Y21340D02*
X17170D01*
X16520D02*
Y21753D01*
X17170Y21340D02*
Y21753D01*
X16530Y22147D02*
Y22570D01*
X17170Y22147D02*
Y22570D01*
X10220Y9080D02*
Y9720D01*
X8990Y9080D02*
Y9730D01*
X9403D01*
X8990Y9080D02*
X9403D01*
X9797Y9720D02*
X10220D01*
X9797Y9080D02*
X10220D01*
X8980Y8080D02*
Y8720D01*
X10210Y8070D02*
Y8720D01*
X9797Y8070D02*
X10210D01*
X9797Y8720D02*
X10210D01*
X8980Y8080D02*
X9403D01*
X8980Y8720D02*
X9403D01*
X21770Y25880D02*
Y26520D01*
X20540Y25880D02*
Y26530D01*
X20953D01*
X20540Y25880D02*
X20953D01*
X21347Y26520D02*
X21770D01*
X21347Y25880D02*
X21770D01*
X24630Y24130D02*
Y24770D01*
X25860Y24120D02*
Y24770D01*
X25447Y24120D02*
X25860D01*
X25447Y24770D02*
X25860D01*
X24630Y24130D02*
X25053D01*
X24630Y24770D02*
X25053D01*
X16720Y30980D02*
Y31620D01*
X15490Y30980D02*
Y31630D01*
X15903D01*
X15490Y30980D02*
X15903D01*
X16297Y31620D02*
X16720D01*
X16297Y30980D02*
X16720D01*
X23070Y31380D02*
Y32020D01*
X21840Y31380D02*
Y32030D01*
X22253D01*
X21840Y31380D02*
X22253D01*
X22647Y32020D02*
X23070D01*
X22647Y31380D02*
X23070D01*
X21880Y30330D02*
Y30970D01*
X23110Y30320D02*
Y30970D01*
X22697Y30320D02*
X23110D01*
X22697Y30970D02*
X23110D01*
X21880Y30330D02*
X22303D01*
X21880Y30970D02*
X22303D01*
X23120Y29330D02*
Y29970D01*
X21890Y29330D02*
Y29980D01*
X22303D01*
X21890Y29330D02*
X22303D01*
X22697Y29970D02*
X23120D01*
X22697Y29330D02*
X23120D01*
X21080Y27500D02*
Y28700D01*
X20420Y27500D02*
Y28700D01*
X21080D01*
X20420Y27500D02*
X21080D01*
X6650Y31680D02*
X7850D01*
X6650Y31020D02*
X7850D01*
X6650D02*
Y31680D01*
X7850Y31020D02*
Y31680D01*
X17000Y26720D02*
X18200D01*
X17000Y27380D02*
X18200D01*
Y26720D02*
Y27380D01*
X17000Y26720D02*
Y27380D01*
X17070Y24500D02*
Y25700D01*
X17730Y24500D02*
Y25700D01*
X17070Y24500D02*
X17730D01*
X17070Y25700D02*
X17730D01*
X16750Y19020D02*
X17950D01*
X16750Y19680D02*
X17950D01*
Y19020D02*
Y19680D01*
X16750Y19020D02*
Y19680D01*
X17270Y16150D02*
Y17350D01*
X17930Y16150D02*
Y17350D01*
X17270Y16150D02*
X17930D01*
X17270Y17350D02*
X17930D01*
X15920Y32100D02*
Y33300D01*
X16580Y32100D02*
Y33300D01*
X15920Y32100D02*
X16580D01*
X15920Y33300D02*
X16580D01*
X22850Y27380D02*
X24050D01*
X22850Y26720D02*
X24050D01*
X22850D02*
Y27380D01*
X24050Y26720D02*
Y27380D01*
X15730Y32100D02*
Y33300D01*
X15070Y32100D02*
Y33300D01*
X15730D01*
X15070Y32100D02*
X15730D01*
X23450Y32030D02*
X24650D01*
X23450Y31370D02*
X24650D01*
X23450D02*
Y32030D01*
X24650Y31370D02*
Y32030D01*
X18080Y21350D02*
Y22550D01*
X17420Y21350D02*
Y22550D01*
X18080D01*
X17420Y21350D02*
X18080D01*
X32620Y25400D02*
Y26600D01*
X33280Y25400D02*
Y26600D01*
X32620Y25400D02*
X33280D01*
X32620Y26600D02*
X33280D01*
X23650Y1970D02*
X24850D01*
X23650Y2630D02*
X24850D01*
Y1970D02*
Y2630D01*
X23650Y1970D02*
Y2630D01*
X24750Y3420D02*
X25950D01*
X24750Y4080D02*
X25950D01*
Y3420D02*
Y4080D01*
X24750Y3420D02*
Y4080D01*
X24150Y28420D02*
X25350D01*
X24150Y29080D02*
X25350D01*
Y28420D02*
Y29080D01*
X24150Y28420D02*
Y29080D01*
X15670Y21350D02*
Y22550D01*
X16330Y21350D02*
Y22550D01*
X15670Y21350D02*
X16330D01*
X15670Y22550D02*
X16330D01*
X23250Y4220D02*
X24450D01*
X23250Y4880D02*
X24450D01*
Y4220D02*
Y4880D01*
X23250Y4220D02*
Y4880D01*
X24200Y27620D02*
X25400D01*
X24200Y28280D02*
X25400D01*
Y27620D02*
Y28280D01*
X24200Y27620D02*
Y28280D01*
X20500Y1970D02*
X21700D01*
X20500Y2630D02*
X21700D01*
Y1970D02*
Y2630D01*
X20500Y1970D02*
Y2630D01*
X28330Y25400D02*
Y26600D01*
X27670Y25400D02*
Y26600D01*
X28330D01*
X27670Y25400D02*
X28330D01*
X32550Y14830D02*
X33750D01*
X32550Y14170D02*
X33750D01*
X32550D02*
Y14830D01*
X33750Y14170D02*
Y14830D01*
X21550Y3470D02*
X22750D01*
X21550Y4130D02*
X22750D01*
Y3470D02*
Y4130D01*
X21550Y3470D02*
Y4130D01*
D16*
X10645Y34049D02*
X13391D01*
X13755Y33685D01*
X10645Y31451D02*
X13401D01*
X13755Y31805D01*
X10645Y33055D02*
Y34049D01*
D17*
X11600Y3450D02*
Y13850D01*
Y3450D02*
X15600D01*
Y13850D01*
X11600D02*
X15600D01*
X7990Y3880D02*
X8290Y4180D01*
Y3880D02*
X8590Y4180D01*
Y3880D02*
X8890Y4180D01*
X8490Y4230D02*
Y4630D01*
X8090Y4180D02*
X8940D01*
D18*
X22210Y2050D02*
X22390D01*
X22300Y1960D02*
X22390Y2050D01*
X22142Y1950D02*
X22458D01*
X22210Y2050D02*
X22300Y1960D01*
X18300Y26060D02*
Y26240D01*
X18210Y26150D02*
X18300Y26060D01*
X18200Y25992D02*
Y26308D01*
X18210Y26150D02*
X18300Y26240D01*
X17400Y20060D02*
Y20240D01*
X17490Y20150D01*
X17500Y19992D02*
Y20308D01*
X17400Y20060D02*
X17490Y20150D01*
X23010Y24700D02*
X23190D01*
X23010D02*
X23100Y24790D01*
X22942Y24800D02*
X23258D01*
X23100Y24790D02*
X23190Y24700D01*
X26110Y2600D02*
X26290D01*
X26200Y2510D02*
X26290Y2600D01*
X26042Y2500D02*
X26358D01*
X26110Y2600D02*
X26200Y2510D01*
M02*
