G04*
G04 #@! TF.GenerationSoftware,Altium Limited,Altium Designer,21.0.8 (223)*
G04*
G04 Layer_Color=8421504*
%FSLAX24Y24*%
%MOIN*%
G70*
G04*
G04 #@! TF.SameCoordinates,C0C2F11B-7DCF-4775-9714-D77671BE90CB*
G04*
G04*
G04 #@! TF.FilePolarity,Positive*
G04*
G01*
G75*
G04:AMPARAMS|DCode=19|XSize=27.6mil|YSize=49.2mil|CornerRadius=6.9mil|HoleSize=0mil|Usage=FLASHONLY|Rotation=0.000|XOffset=0mil|YOffset=0mil|HoleType=Round|Shape=RoundedRectangle|*
%AMROUNDEDRECTD19*
21,1,0.0276,0.0354,0,0,0.0*
21,1,0.0138,0.0492,0,0,0.0*
1,1,0.0138,0.0069,-0.0177*
1,1,0.0138,-0.0069,-0.0177*
1,1,0.0138,-0.0069,0.0177*
1,1,0.0138,0.0069,0.0177*
%
%ADD19ROUNDEDRECTD19*%
%ADD20R,0.0400X0.0285*%
%ADD21R,0.0300X0.0400*%
%ADD22R,0.0800X0.0600*%
%ADD23R,0.0800X0.1500*%
%ADD24R,0.0591X0.0303*%
%ADD25R,0.1772X0.0748*%
%ADD26R,0.1358X0.0354*%
%ADD27R,0.0390X0.0800*%
%ADD28R,0.0800X0.0390*%
%ADD29R,0.0800X0.0400*%
G04:AMPARAMS|DCode=30|XSize=27.6mil|YSize=49.2mil|CornerRadius=6.9mil|HoleSize=0mil|Usage=FLASHONLY|Rotation=270.000|XOffset=0mil|YOffset=0mil|HoleType=Round|Shape=RoundedRectangle|*
%AMROUNDEDRECTD30*
21,1,0.0276,0.0354,0,0,270.0*
21,1,0.0138,0.0492,0,0,270.0*
1,1,0.0138,-0.0177,-0.0069*
1,1,0.0138,-0.0177,0.0069*
1,1,0.0138,0.0177,0.0069*
1,1,0.0138,0.0177,-0.0069*
%
%ADD30ROUNDEDRECTD30*%
%ADD31R,0.0400X0.0300*%
%ADD32R,0.0285X0.0400*%
D19*
X25724Y3750D02*
D03*
X24976D02*
D03*
X21074Y4600D02*
D03*
X20326D02*
D03*
X9974Y9400D02*
D03*
X9226D02*
D03*
Y8400D02*
D03*
X9974D02*
D03*
X21524Y26200D02*
D03*
X20776D02*
D03*
X24876Y24450D02*
D03*
X25624D02*
D03*
X16474Y31300D02*
D03*
X15726D02*
D03*
X22824Y31700D02*
D03*
X22076D02*
D03*
X22126Y30650D02*
D03*
X22874D02*
D03*
Y29650D02*
D03*
X22126D02*
D03*
X6876Y31350D02*
D03*
X7624D02*
D03*
X17974Y27050D02*
D03*
X17226D02*
D03*
X17724Y19350D02*
D03*
X16976D02*
D03*
X23076Y27050D02*
D03*
X23824D02*
D03*
X23676Y31700D02*
D03*
X24424D02*
D03*
X24624Y2300D02*
D03*
X23876D02*
D03*
X25124Y28750D02*
D03*
X24376D02*
D03*
X24224Y4550D02*
D03*
X23476D02*
D03*
X25174Y27950D02*
D03*
X24426D02*
D03*
X21474Y2300D02*
D03*
X20726D02*
D03*
X32776Y14500D02*
D03*
X33524D02*
D03*
X22524Y3800D02*
D03*
X21776D02*
D03*
D20*
X26200Y2278D02*
D03*
Y2822D02*
D03*
X22300Y2272D02*
D03*
Y1728D02*
D03*
X23100Y24478D02*
D03*
Y25022D02*
D03*
D21*
X20700Y3000D02*
D03*
X21075Y3800D02*
D03*
X20325D02*
D03*
X23850Y2950D02*
D03*
X24225Y3750D02*
D03*
X23475D02*
D03*
D22*
X17825Y33106D02*
D03*
Y32200D02*
D03*
Y31294D02*
D03*
D23*
X20275Y32206D02*
D03*
D24*
X5600Y9400D02*
D03*
Y8900D02*
D03*
Y8400D02*
D03*
Y7900D02*
D03*
X7900D02*
D03*
Y8400D02*
D03*
Y8900D02*
D03*
Y9400D02*
D03*
D25*
X19050Y29910D02*
D03*
Y28690D02*
D03*
D26*
X13322Y32700D02*
D03*
X11078D02*
D03*
D27*
X31996Y27556D02*
D03*
X27996D02*
D03*
X27496D02*
D03*
X31496D02*
D03*
X30996D02*
D03*
X30496D02*
D03*
X29996D02*
D03*
X29496Y27560D02*
D03*
X28996Y27556D02*
D03*
X28496D02*
D03*
D28*
X33093Y27950D02*
D03*
Y28450D02*
D03*
Y28958D02*
D03*
Y29450D02*
D03*
Y29950D02*
D03*
Y30450D02*
D03*
Y30950D02*
D03*
Y31450D02*
D03*
Y31950D02*
D03*
Y32950D02*
D03*
Y33450D02*
D03*
Y33950D02*
D03*
Y34450D02*
D03*
X26400D02*
D03*
Y33950D02*
D03*
Y33450D02*
D03*
Y32950D02*
D03*
Y32450D02*
D03*
Y31950D02*
D03*
Y31450D02*
D03*
Y30950D02*
D03*
Y30450D02*
D03*
Y29950D02*
D03*
Y29450D02*
D03*
Y28950D02*
D03*
Y28450D02*
D03*
Y27950D02*
D03*
D29*
X33093Y32450D02*
D03*
D30*
X16850Y22324D02*
D03*
Y21576D02*
D03*
X20750Y28474D02*
D03*
Y27726D02*
D03*
X17400Y24726D02*
D03*
Y25474D02*
D03*
X17600Y16376D02*
D03*
Y17124D02*
D03*
X16250Y32326D02*
D03*
Y33074D02*
D03*
X15400D02*
D03*
Y32326D02*
D03*
X17750Y22324D02*
D03*
Y21576D02*
D03*
X32950Y25626D02*
D03*
Y26374D02*
D03*
X16000Y21576D02*
D03*
Y22324D02*
D03*
X28000Y26374D02*
D03*
Y25626D02*
D03*
D31*
X21550Y27700D02*
D03*
X22350Y27325D02*
D03*
Y28075D02*
D03*
X15750Y27450D02*
D03*
X16550Y27075D02*
D03*
Y27825D02*
D03*
X15550Y19750D02*
D03*
X16350Y19375D02*
D03*
Y20125D02*
D03*
X24450Y33050D02*
D03*
X23650Y33425D02*
D03*
Y32675D02*
D03*
X15750Y25100D02*
D03*
X16550Y24725D02*
D03*
Y25475D02*
D03*
X15950Y16750D02*
D03*
X16750Y16375D02*
D03*
Y17125D02*
D03*
D32*
X18522Y26150D02*
D03*
X17978D02*
D03*
X17178Y20150D02*
D03*
X17722D02*
D03*
M02*
