G04*
G04 #@! TF.GenerationSoftware,Altium Limited,Altium Designer,21.0.8 (223)*
G04*
G04 Layer_Color=16711935*
%FSLAX24Y24*%
%MOIN*%
G70*
G04*
G04 #@! TF.SameCoordinates,C0C2F11B-7DCF-4775-9714-D77671BE90CB*
G04*
G04*
G04 #@! TF.FilePolarity,Negative*
G04*
G01*
G75*
%ADD44R,0.0500X0.1500*%
%ADD45R,0.3000X0.3000*%
%ADD46R,0.0880X0.0880*%
%ADD47C,0.0880*%
G04:AMPARAMS|DCode=48|XSize=200mil|YSize=15mil|CornerRadius=3.8mil|HoleSize=0mil|Usage=FLASHONLY|Rotation=270.000|XOffset=0mil|YOffset=0mil|HoleType=Round|Shape=RoundedRectangle|*
%AMROUNDEDRECTD48*
21,1,0.2000,0.0075,0,0,270.0*
21,1,0.1925,0.0150,0,0,270.0*
1,1,0.0075,-0.0038,-0.0963*
1,1,0.0075,-0.0038,0.0963*
1,1,0.0075,0.0038,0.0963*
1,1,0.0075,0.0038,-0.0963*
%
%ADD48ROUNDEDRECTD48*%
G04:AMPARAMS|DCode=49|XSize=450mil|YSize=15mil|CornerRadius=3.8mil|HoleSize=0mil|Usage=FLASHONLY|Rotation=90.000|XOffset=0mil|YOffset=0mil|HoleType=Round|Shape=RoundedRectangle|*
%AMROUNDEDRECTD49*
21,1,0.4500,0.0075,0,0,90.0*
21,1,0.4425,0.0150,0,0,90.0*
1,1,0.0075,0.0038,0.2213*
1,1,0.0075,0.0038,-0.2213*
1,1,0.0075,-0.0038,-0.2213*
1,1,0.0075,-0.0038,0.2213*
%
%ADD49ROUNDEDRECTD49*%
%ADD50C,0.1080*%
%ADD51R,0.2750X0.2750*%
%ADD52R,0.1500X0.0500*%
%ADD53R,0.0600X0.0600*%
%ADD54R,0.0440X0.0800*%
%ADD55R,0.1060X0.1060*%
%ADD56C,0.1060*%
%ADD57C,0.1241*%
%ADD58R,0.1241X0.1241*%
%ADD59C,0.0980*%
%ADD60R,0.0986X0.0986*%
G04:AMPARAMS|DCode=61|XSize=400mil|YSize=15mil|CornerRadius=3.8mil|HoleSize=0mil|Usage=FLASHONLY|Rotation=0.000|XOffset=0mil|YOffset=0mil|HoleType=Round|Shape=RoundedRectangle|*
%AMROUNDEDRECTD61*
21,1,0.4000,0.0075,0,0,0.0*
21,1,0.3925,0.0150,0,0,0.0*
1,1,0.0075,0.1963,-0.0038*
1,1,0.0075,-0.1963,-0.0038*
1,1,0.0075,-0.1963,0.0038*
1,1,0.0075,0.1963,0.0038*
%
%ADD61ROUNDEDRECTD61*%
G04:AMPARAMS|DCode=62|XSize=800mil|YSize=15mil|CornerRadius=3.8mil|HoleSize=0mil|Usage=FLASHONLY|Rotation=90.000|XOffset=0mil|YOffset=0mil|HoleType=Round|Shape=RoundedRectangle|*
%AMROUNDEDRECTD62*
21,1,0.8000,0.0075,0,0,90.0*
21,1,0.7925,0.0150,0,0,90.0*
1,1,0.0075,0.0038,0.3963*
1,1,0.0075,0.0038,-0.3963*
1,1,0.0075,-0.0038,-0.3963*
1,1,0.0075,-0.0038,0.3963*
%
%ADD62ROUNDEDRECTD62*%
G04:AMPARAMS|DCode=63|XSize=250mil|YSize=15mil|CornerRadius=3.8mil|HoleSize=0mil|Usage=FLASHONLY|Rotation=0.000|XOffset=0mil|YOffset=0mil|HoleType=Round|Shape=RoundedRectangle|*
%AMROUNDEDRECTD63*
21,1,0.2500,0.0075,0,0,0.0*
21,1,0.2425,0.0150,0,0,0.0*
1,1,0.0075,0.1213,-0.0038*
1,1,0.0075,-0.1213,-0.0038*
1,1,0.0075,-0.1213,0.0038*
1,1,0.0075,0.1213,0.0038*
%
%ADD63ROUNDEDRECTD63*%
G04:AMPARAMS|DCode=64|XSize=1000mil|YSize=15mil|CornerRadius=3.8mil|HoleSize=0mil|Usage=FLASHONLY|Rotation=180.000|XOffset=0mil|YOffset=0mil|HoleType=Round|Shape=RoundedRectangle|*
%AMROUNDEDRECTD64*
21,1,1.0000,0.0075,0,0,180.0*
21,1,0.9925,0.0150,0,0,180.0*
1,1,0.0075,-0.4963,0.0038*
1,1,0.0075,0.4963,0.0038*
1,1,0.0075,0.4963,-0.0038*
1,1,0.0075,-0.4963,-0.0038*
%
%ADD64ROUNDEDRECTD64*%
G04:AMPARAMS|DCode=65|XSize=1700mil|YSize=15mil|CornerRadius=3.8mil|HoleSize=0mil|Usage=FLASHONLY|Rotation=180.000|XOffset=0mil|YOffset=0mil|HoleType=Round|Shape=RoundedRectangle|*
%AMROUNDEDRECTD65*
21,1,1.7000,0.0075,0,0,180.0*
21,1,1.6925,0.0150,0,0,180.0*
1,1,0.0075,-0.8462,0.0038*
1,1,0.0075,0.8462,0.0038*
1,1,0.0075,0.8462,-0.0038*
1,1,0.0075,-0.8462,-0.0038*
%
%ADD65ROUNDEDRECTD65*%
G04:AMPARAMS|DCode=66|XSize=700mil|YSize=15mil|CornerRadius=3.8mil|HoleSize=0mil|Usage=FLASHONLY|Rotation=90.000|XOffset=0mil|YOffset=0mil|HoleType=Round|Shape=RoundedRectangle|*
%AMROUNDEDRECTD66*
21,1,0.7000,0.0075,0,0,90.0*
21,1,0.6925,0.0150,0,0,90.0*
1,1,0.0075,0.0038,0.3463*
1,1,0.0075,0.0038,-0.3463*
1,1,0.0075,-0.0038,-0.3463*
1,1,0.0075,-0.0038,0.3463*
%
%ADD66ROUNDEDRECTD66*%
G04:AMPARAMS|DCode=67|XSize=500mil|YSize=15mil|CornerRadius=3.8mil|HoleSize=0mil|Usage=FLASHONLY|Rotation=90.000|XOffset=0mil|YOffset=0mil|HoleType=Round|Shape=RoundedRectangle|*
%AMROUNDEDRECTD67*
21,1,0.5000,0.0075,0,0,90.0*
21,1,0.4925,0.0150,0,0,90.0*
1,1,0.0075,0.0038,0.2463*
1,1,0.0075,0.0038,-0.2463*
1,1,0.0075,-0.0038,-0.2463*
1,1,0.0075,-0.0038,0.2463*
%
%ADD67ROUNDEDRECTD67*%
%ADD68C,0.0580*%
D44*
X30400Y4130D02*
D03*
X31400Y1770D02*
D03*
X30400D02*
D03*
X29400D02*
D03*
X31400Y4130D02*
D03*
X29400D02*
D03*
D45*
X35500Y1750D02*
D03*
X1750D02*
D03*
Y33750D02*
D03*
D46*
X23768Y7300D02*
D03*
D47*
X19929Y20528D02*
D03*
X28000Y7300D02*
D03*
X26130D02*
D03*
X24850Y22457D02*
D03*
X28000Y20528D02*
D03*
Y22457D02*
D03*
D48*
X27850Y31450D02*
D03*
X14750Y18300D02*
D03*
X30800Y31500D02*
D03*
X14750Y26950D02*
D03*
X9550Y29300D02*
D03*
D49*
X10450Y22400D02*
D03*
X18450Y3100D02*
D03*
D50*
X13149Y18062D02*
D03*
X7547Y20424D02*
D03*
X12350D02*
D03*
X7547Y15700D02*
D03*
X12350D02*
D03*
X13600Y4221D02*
D03*
Y13079D02*
D03*
X2060Y28250D02*
D03*
X13199Y26912D02*
D03*
X7597Y29274D02*
D03*
X12400D02*
D03*
X7597Y24550D02*
D03*
X12400D02*
D03*
D51*
X35500Y33750D02*
D03*
D52*
X34680Y21950D02*
D03*
Y17950D02*
D03*
Y18950D02*
D03*
Y19950D02*
D03*
Y20950D02*
D03*
X32320Y19950D02*
D03*
Y20950D02*
D03*
Y21950D02*
D03*
Y18950D02*
D03*
Y17950D02*
D03*
D53*
X28650Y32210D02*
D03*
X30110Y30770D02*
D03*
X29380D02*
D03*
X28650D02*
D03*
X30110Y31490D02*
D03*
X29380D02*
D03*
X28650D02*
D03*
X30110Y32210D02*
D03*
X29380D02*
D03*
D54*
X33200Y11700D02*
D03*
X32200D02*
D03*
Y7900D02*
D03*
X33200D02*
D03*
D55*
X2060Y22250D02*
D03*
X2100Y14700D02*
D03*
D56*
X2060Y24250D02*
D03*
Y26250D02*
D03*
Y30250D02*
D03*
X2100Y18700D02*
D03*
Y16700D02*
D03*
D57*
Y9200D02*
D03*
Y7200D02*
D03*
Y11200D02*
D03*
D58*
X2130Y5220D02*
D03*
D59*
X6800Y2000D02*
D03*
X8300D02*
D03*
D60*
X9800D02*
D03*
D61*
X12250Y28250D02*
D03*
Y17050D02*
D03*
Y19350D02*
D03*
Y25500D02*
D03*
D62*
X10750Y10100D02*
D03*
D63*
X29350Y29950D02*
D03*
Y33000D02*
D03*
D64*
X23900Y5800D02*
D03*
D65*
X19950Y14300D02*
D03*
D66*
X29050Y10150D02*
D03*
D67*
X6750Y8750D02*
D03*
D68*
X23100Y20700D02*
D03*
X30050Y22400D02*
D03*
X19800Y1700D02*
D03*
X26450Y4400D02*
D03*
X28050D02*
D03*
X29500Y22950D02*
D03*
X30650D02*
D03*
X14900Y22150D02*
D03*
X20021Y18959D02*
D03*
X22100Y19900D02*
D03*
X26297Y21487D02*
D03*
X20350Y30850D02*
D03*
X21450Y32400D02*
D03*
X13550Y10400D02*
D03*
X27000Y10300D02*
D03*
X24400Y10350D02*
D03*
X21300Y10450D02*
D03*
X17750Y10400D02*
D03*
X12900Y2150D02*
D03*
X15700Y2050D02*
D03*
X17050Y4700D02*
D03*
X17800Y7400D02*
D03*
X21300Y7450D02*
D03*
X22100Y22250D02*
D03*
X32500Y13400D02*
D03*
X31900Y9900D02*
D03*
X33600D02*
D03*
X35261Y4926D02*
D03*
X16400Y18450D02*
D03*
X25498Y1585D02*
D03*
X35261Y6650D02*
D03*
X25200Y31500D02*
D03*
X25300Y29600D02*
D03*
X29555Y26555D02*
D03*
X29550Y25254D02*
D03*
X32000Y23200D02*
D03*
X31200Y23850D02*
D03*
X12150Y22850D02*
D03*
X25250Y30600D02*
D03*
X19200Y15650D02*
D03*
X31950Y15250D02*
D03*
X34600Y15200D02*
D03*
X33850Y13400D02*
D03*
X35261Y10100D02*
D03*
Y8350D02*
D03*
X30500Y26500D02*
D03*
X18550Y18450D02*
D03*
X21767Y16863D02*
D03*
X23334D02*
D03*
X24900D02*
D03*
X23900Y18100D02*
D03*
X20875Y15650D02*
D03*
X22550D02*
D03*
X24225D02*
D03*
X25900D02*
D03*
X25500Y18450D02*
D03*
X32258Y26400D02*
D03*
X35000Y27600D02*
D03*
Y26125D02*
D03*
Y24650D02*
D03*
X34850Y29850D02*
D03*
X31800Y33100D02*
D03*
X21500Y26900D02*
D03*
X22100Y23850D02*
D03*
X20900Y17950D02*
D03*
X20201Y16863D02*
D03*
X22271Y18132D02*
D03*
X21600Y33600D02*
D03*
X31100Y30050D02*
D03*
X31850Y31150D02*
D03*
X17450Y18450D02*
D03*
X34900Y13400D02*
D03*
X23050Y28650D02*
D03*
X20000Y27050D02*
D03*
X20010Y25839D02*
D03*
X26700Y26700D02*
D03*
X26350Y23150D02*
D03*
X23800Y25850D02*
D03*
Y21700D02*
D03*
X15450Y23950D02*
D03*
X16600D02*
D03*
X16800Y26250D02*
D03*
X14600Y31950D02*
D03*
X7200Y32900D02*
D03*
X9350Y32850D02*
D03*
X16900Y34050D02*
D03*
X14600D02*
D03*
X27933Y28838D02*
D03*
X29465Y28906D02*
D03*
X27950Y34000D02*
D03*
X30894Y33944D02*
D03*
X5050Y32900D02*
D03*
X29500Y34000D02*
D03*
M02*
