G04*
G04 #@! TF.GenerationSoftware,Altium Limited,Altium Designer,21.0.8 (223)*
G04*
G04 Layer_Physical_Order=2*
G04 Layer_Color=16711680*
%FSLAX24Y24*%
%MOIN*%
G70*
G04*
G04 #@! TF.SameCoordinates,C0C2F11B-7DCF-4775-9714-D77671BE90CB*
G04*
G04*
G04 #@! TF.FilePolarity,Positive*
G04*
G01*
G75*
%ADD12C,0.0100*%
%ADD44R,0.0500X0.1500*%
%ADD45R,0.3000X0.3000*%
G04:AMPARAMS|DCode=48|XSize=200mil|YSize=15mil|CornerRadius=3.8mil|HoleSize=0mil|Usage=FLASHONLY|Rotation=270.000|XOffset=0mil|YOffset=0mil|HoleType=Round|Shape=RoundedRectangle|*
%AMROUNDEDRECTD48*
21,1,0.2000,0.0075,0,0,270.0*
21,1,0.1925,0.0150,0,0,270.0*
1,1,0.0075,-0.0038,-0.0963*
1,1,0.0075,-0.0038,0.0963*
1,1,0.0075,0.0038,0.0963*
1,1,0.0075,0.0038,-0.0963*
%
%ADD48ROUNDEDRECTD48*%
G04:AMPARAMS|DCode=49|XSize=450mil|YSize=15mil|CornerRadius=3.8mil|HoleSize=0mil|Usage=FLASHONLY|Rotation=90.000|XOffset=0mil|YOffset=0mil|HoleType=Round|Shape=RoundedRectangle|*
%AMROUNDEDRECTD49*
21,1,0.4500,0.0075,0,0,90.0*
21,1,0.4425,0.0150,0,0,90.0*
1,1,0.0075,0.0038,0.2213*
1,1,0.0075,0.0038,-0.2213*
1,1,0.0075,-0.0038,-0.2213*
1,1,0.0075,-0.0038,0.2213*
%
%ADD49ROUNDEDRECTD49*%
%ADD51R,0.2750X0.2750*%
%ADD52R,0.1500X0.0500*%
%ADD53R,0.0600X0.0600*%
%ADD54R,0.0440X0.0800*%
G04:AMPARAMS|DCode=61|XSize=400mil|YSize=15mil|CornerRadius=3.8mil|HoleSize=0mil|Usage=FLASHONLY|Rotation=0.000|XOffset=0mil|YOffset=0mil|HoleType=Round|Shape=RoundedRectangle|*
%AMROUNDEDRECTD61*
21,1,0.4000,0.0075,0,0,0.0*
21,1,0.3925,0.0150,0,0,0.0*
1,1,0.0075,0.1963,-0.0038*
1,1,0.0075,-0.1963,-0.0038*
1,1,0.0075,-0.1963,0.0038*
1,1,0.0075,0.1963,0.0038*
%
%ADD61ROUNDEDRECTD61*%
G04:AMPARAMS|DCode=62|XSize=800mil|YSize=15mil|CornerRadius=3.8mil|HoleSize=0mil|Usage=FLASHONLY|Rotation=90.000|XOffset=0mil|YOffset=0mil|HoleType=Round|Shape=RoundedRectangle|*
%AMROUNDEDRECTD62*
21,1,0.8000,0.0075,0,0,90.0*
21,1,0.7925,0.0150,0,0,90.0*
1,1,0.0075,0.0038,0.3963*
1,1,0.0075,0.0038,-0.3963*
1,1,0.0075,-0.0038,-0.3963*
1,1,0.0075,-0.0038,0.3963*
%
%ADD62ROUNDEDRECTD62*%
G04:AMPARAMS|DCode=63|XSize=250mil|YSize=15mil|CornerRadius=3.8mil|HoleSize=0mil|Usage=FLASHONLY|Rotation=0.000|XOffset=0mil|YOffset=0mil|HoleType=Round|Shape=RoundedRectangle|*
%AMROUNDEDRECTD63*
21,1,0.2500,0.0075,0,0,0.0*
21,1,0.2425,0.0150,0,0,0.0*
1,1,0.0075,0.1213,-0.0038*
1,1,0.0075,-0.1213,-0.0038*
1,1,0.0075,-0.1213,0.0038*
1,1,0.0075,0.1213,0.0038*
%
%ADD63ROUNDEDRECTD63*%
G04:AMPARAMS|DCode=64|XSize=1000mil|YSize=15mil|CornerRadius=3.8mil|HoleSize=0mil|Usage=FLASHONLY|Rotation=180.000|XOffset=0mil|YOffset=0mil|HoleType=Round|Shape=RoundedRectangle|*
%AMROUNDEDRECTD64*
21,1,1.0000,0.0075,0,0,180.0*
21,1,0.9925,0.0150,0,0,180.0*
1,1,0.0075,-0.4963,0.0038*
1,1,0.0075,0.4963,0.0038*
1,1,0.0075,0.4963,-0.0038*
1,1,0.0075,-0.4963,-0.0038*
%
%ADD64ROUNDEDRECTD64*%
G04:AMPARAMS|DCode=65|XSize=1700mil|YSize=15mil|CornerRadius=3.8mil|HoleSize=0mil|Usage=FLASHONLY|Rotation=180.000|XOffset=0mil|YOffset=0mil|HoleType=Round|Shape=RoundedRectangle|*
%AMROUNDEDRECTD65*
21,1,1.7000,0.0075,0,0,180.0*
21,1,1.6925,0.0150,0,0,180.0*
1,1,0.0075,-0.8462,0.0038*
1,1,0.0075,0.8462,0.0038*
1,1,0.0075,0.8462,-0.0038*
1,1,0.0075,-0.8462,-0.0038*
%
%ADD65ROUNDEDRECTD65*%
G04:AMPARAMS|DCode=66|XSize=700mil|YSize=15mil|CornerRadius=3.8mil|HoleSize=0mil|Usage=FLASHONLY|Rotation=90.000|XOffset=0mil|YOffset=0mil|HoleType=Round|Shape=RoundedRectangle|*
%AMROUNDEDRECTD66*
21,1,0.7000,0.0075,0,0,90.0*
21,1,0.6925,0.0150,0,0,90.0*
1,1,0.0075,0.0038,0.3463*
1,1,0.0075,0.0038,-0.3463*
1,1,0.0075,-0.0038,-0.3463*
1,1,0.0075,-0.0038,0.3463*
%
%ADD66ROUNDEDRECTD66*%
G04:AMPARAMS|DCode=67|XSize=500mil|YSize=15mil|CornerRadius=3.8mil|HoleSize=0mil|Usage=FLASHONLY|Rotation=90.000|XOffset=0mil|YOffset=0mil|HoleType=Round|Shape=RoundedRectangle|*
%AMROUNDEDRECTD67*
21,1,0.5000,0.0075,0,0,90.0*
21,1,0.4925,0.0150,0,0,90.0*
1,1,0.0075,0.0038,0.2463*
1,1,0.0075,0.0038,-0.2463*
1,1,0.0075,-0.0038,-0.2463*
1,1,0.0075,-0.0038,0.2463*
%
%ADD67ROUNDEDRECTD67*%
%ADD69C,0.0200*%
%ADD70C,0.0500*%
%ADD92R,0.2500X0.2350*%
%ADD93R,0.0800X0.0800*%
%ADD94C,0.0800*%
%ADD95C,0.1000*%
%ADD96R,0.1000X0.1000*%
%ADD97C,0.1181*%
%ADD98R,0.1181X0.1181*%
%ADD99C,0.0900*%
%ADD100R,0.0906X0.0906*%
%ADD101C,0.0500*%
%ADD102R,0.9700X0.2400*%
%ADD103R,0.1650X0.3250*%
%ADD104R,0.8850X0.2050*%
%ADD105R,0.1100X0.2500*%
%ADD106R,0.3100X0.7350*%
%ADD107R,0.3850X0.4450*%
%ADD108R,0.1900X0.7400*%
%ADD109R,0.8500X0.2700*%
%ADD110R,1.6700X0.4300*%
G36*
X37092Y3350D02*
X35550D01*
Y1750D01*
X35500D01*
Y1700D01*
X33900D01*
Y158D01*
X3350D01*
Y1700D01*
X1750D01*
Y1750D01*
X1700D01*
Y3350D01*
X158D01*
Y3750D01*
X4450D01*
Y700D01*
X18394D01*
X18412Y696D01*
X18487D01*
X18506Y700D01*
X18900D01*
Y5400D01*
X19124D01*
X19150Y5397D01*
X28650D01*
X28676Y5400D01*
X29500D01*
Y13814D01*
X29546Y13833D01*
X30154Y13226D01*
Y6393D01*
X30154Y6393D01*
X30167Y6288D01*
X30208Y6191D01*
X30272Y6108D01*
X30565Y5815D01*
X30565Y5815D01*
X30648Y5751D01*
X30746Y5710D01*
X30850Y5697D01*
X30850Y5697D01*
X32190D01*
X32247Y5640D01*
Y2910D01*
X32190Y2853D01*
X31400D01*
X31296Y2840D01*
X31198Y2799D01*
X31115Y2735D01*
X31065Y2670D01*
X31000D01*
Y2476D01*
X30997Y2450D01*
X31000Y2424D01*
Y870D01*
X31800D01*
Y2047D01*
X32357D01*
X32357Y2047D01*
X32462Y2060D01*
X32559Y2101D01*
X32642Y2165D01*
X32935Y2458D01*
X32935Y2458D01*
X32999Y2541D01*
X33040Y2638D01*
X33053Y2743D01*
X33053Y2743D01*
Y5807D01*
X33053Y5807D01*
X33040Y5912D01*
X32999Y6009D01*
X32935Y6092D01*
X32935Y6092D01*
X32642Y6385D01*
X32559Y6449D01*
X32462Y6490D01*
X32357Y6503D01*
X32357Y6503D01*
X31017D01*
X30961Y6560D01*
Y11069D01*
X31011Y11106D01*
X31059Y11096D01*
X31914D01*
X31920Y11085D01*
X31985Y11020D01*
X32065Y10974D01*
X32154Y10950D01*
X32246D01*
X32335Y10974D01*
X32415Y11020D01*
X32480Y11085D01*
X32518Y11150D01*
X32570D01*
Y12250D01*
X31830D01*
Y11504D01*
X31204D01*
Y13650D01*
X31188Y13728D01*
X31144Y13794D01*
X25544Y19394D01*
X25478Y19438D01*
X25400Y19454D01*
X21354D01*
Y26466D01*
X21401Y26512D01*
X21447Y26500D01*
X21553D01*
X21654Y26527D01*
X21746Y26580D01*
X21820Y26654D01*
X21846Y26699D01*
X21896Y26686D01*
Y24194D01*
X21854Y24170D01*
X21780Y24096D01*
X21727Y24004D01*
X21700Y23903D01*
Y23797D01*
X21727Y23696D01*
X21780Y23604D01*
X21854Y23530D01*
X21946Y23477D01*
X22047Y23450D01*
X22153D01*
X22254Y23477D01*
X22346Y23530D01*
X22420Y23604D01*
X22473Y23696D01*
X22500Y23797D01*
Y23903D01*
X22473Y24004D01*
X22420Y24096D01*
X22346Y24170D01*
X22304Y24194D01*
Y29846D01*
X23550D01*
X23550Y29846D01*
X24766D01*
X24912Y29699D01*
X24900Y29653D01*
Y29547D01*
X24927Y29446D01*
X24980Y29354D01*
X25054Y29280D01*
X25146Y29227D01*
X25247Y29200D01*
X25353D01*
X25454Y29227D01*
X25546Y29280D01*
X25620Y29354D01*
X25673Y29446D01*
X25700Y29547D01*
Y29653D01*
X25673Y29754D01*
X25620Y29846D01*
X25546Y29920D01*
X25454Y29973D01*
X25353Y30000D01*
X25247D01*
X25201Y29988D01*
X24994Y30194D01*
X24928Y30238D01*
X24850Y30254D01*
X23550D01*
X23550Y30254D01*
X22159D01*
X22081Y30238D01*
X22014Y30194D01*
X21956Y30136D01*
X21912Y30069D01*
X21896Y29991D01*
Y27114D01*
X21846Y27101D01*
X21820Y27146D01*
X21746Y27220D01*
X21704Y27244D01*
Y30496D01*
X23216D01*
X23256Y30456D01*
X23322Y30412D01*
X23400Y30396D01*
X24906D01*
X24930Y30354D01*
X25004Y30280D01*
X25096Y30227D01*
X25197Y30200D01*
X25303D01*
X25404Y30227D01*
X25496Y30280D01*
X25570Y30354D01*
X25623Y30446D01*
X25650Y30547D01*
Y30653D01*
X25623Y30754D01*
X25570Y30846D01*
X25496Y30920D01*
X25404Y30973D01*
X25303Y31000D01*
X25197D01*
X25096Y30973D01*
X25004Y30920D01*
X24930Y30846D01*
X24906Y30804D01*
X23485D01*
X23444Y30844D01*
X23378Y30888D01*
X23300Y30904D01*
X21559D01*
X21481Y30888D01*
X21414Y30844D01*
X21356Y30786D01*
X21312Y30719D01*
X21296Y30641D01*
Y27244D01*
X21254Y27220D01*
X21180Y27146D01*
X21154Y27101D01*
X21104Y27114D01*
Y31207D01*
X21193Y31296D01*
X24856D01*
X24880Y31254D01*
X24954Y31180D01*
X25046Y31127D01*
X25147Y31100D01*
X25253D01*
X25354Y31127D01*
X25446Y31180D01*
X25520Y31254D01*
X25573Y31346D01*
X25600Y31447D01*
Y31553D01*
X25573Y31654D01*
X25520Y31746D01*
X25446Y31820D01*
X25354Y31873D01*
X25253Y31900D01*
X25147D01*
X25046Y31873D01*
X24954Y31820D01*
X24880Y31746D01*
X24856Y31704D01*
X21109D01*
X21031Y31688D01*
X20964Y31644D01*
X20756Y31436D01*
X20712Y31369D01*
X20696Y31291D01*
Y31051D01*
X20646Y31037D01*
X20630Y31065D01*
X20565Y31130D01*
X20485Y31176D01*
X20400Y31199D01*
Y30850D01*
Y30501D01*
X20485Y30524D01*
X20565Y30570D01*
X20630Y30635D01*
X20646Y30663D01*
X20696Y30649D01*
Y18294D01*
X20654Y18270D01*
X20580Y18196D01*
X20527Y18104D01*
X20500Y18003D01*
Y17897D01*
X20527Y17796D01*
X20580Y17704D01*
X20654Y17630D01*
X20746Y17577D01*
X20847Y17550D01*
X20953D01*
X21054Y17577D01*
X21146Y17630D01*
X21220Y17704D01*
X21273Y17796D01*
X21300Y17897D01*
Y18003D01*
X21273Y18104D01*
X21220Y18196D01*
X21146Y18270D01*
X21104Y18294D01*
Y19024D01*
X21154Y19057D01*
X21209Y19046D01*
X25316D01*
X25462Y18900D01*
X25452Y18866D01*
X25442Y18849D01*
X25422Y18843D01*
X25396Y18840D01*
X25371Y18830D01*
X25346Y18823D01*
X25323Y18810D01*
X25298Y18799D01*
X25277Y18783D01*
X25254Y18770D01*
X25236Y18751D01*
X25215Y18735D01*
X25199Y18714D01*
X25180Y18696D01*
X25167Y18673D01*
X25151Y18652D01*
X25140Y18627D01*
X25127Y18604D01*
X25120Y18579D01*
X25110Y18554D01*
X25107Y18528D01*
X25100Y18503D01*
Y18476D01*
X25097Y18450D01*
X25100Y18424D01*
Y18397D01*
X25107Y18372D01*
X25110Y18346D01*
X25120Y18321D01*
X25127Y18296D01*
X25140Y18273D01*
X25151Y18248D01*
X25167Y18227D01*
X25180Y18204D01*
X25199Y18186D01*
X25215Y18165D01*
X25215Y18165D01*
X28533Y14846D01*
X28514Y14800D01*
X14750D01*
Y17146D01*
X14787D01*
X14861Y17161D01*
X14869Y17166D01*
X14952Y17201D01*
X15035Y17265D01*
X15099Y17348D01*
X15140Y17446D01*
X15153Y17550D01*
Y19050D01*
X15140Y19154D01*
X15099Y19252D01*
X15035Y19335D01*
X14952Y19399D01*
X14869Y19434D01*
X14861Y19439D01*
X14787Y19454D01*
X14750D01*
Y20073D01*
X19618D01*
X19717Y20016D01*
X19857Y19978D01*
X20002D01*
X20141Y20016D01*
X20267Y20088D01*
X20369Y20191D01*
X20442Y20316D01*
X20479Y20456D01*
Y20601D01*
X20442Y20741D01*
X20369Y20866D01*
X20267Y20968D01*
X20141Y21041D01*
X20002Y21078D01*
X19857D01*
X19717Y21041D01*
X19591Y20968D01*
X19503Y20880D01*
X14750D01*
Y21250D01*
X11050D01*
Y24950D01*
X11832D01*
X11856Y24906D01*
X11824Y24858D01*
X11775Y24740D01*
X11750Y24614D01*
Y24486D01*
X11775Y24360D01*
X11824Y24242D01*
X11895Y24136D01*
X11986Y24045D01*
X12092Y23974D01*
X12210Y23925D01*
X12336Y23900D01*
X12464D01*
X12590Y23925D01*
X12708Y23974D01*
X12814Y24045D01*
X12905Y24136D01*
X12976Y24242D01*
X13025Y24360D01*
X13050Y24486D01*
Y24614D01*
X13025Y24740D01*
X12976Y24858D01*
X12944Y24906D01*
X12968Y24950D01*
X15150D01*
Y26174D01*
X15153Y26200D01*
Y27700D01*
X15150Y27726D01*
Y30900D01*
X158D01*
Y32150D01*
X1700D01*
Y33750D01*
X1750D01*
Y33800D01*
X3350D01*
Y35342D01*
X25842D01*
Y34900D01*
X25854Y34840D01*
X25888Y34788D01*
X25940Y34754D01*
X26000Y34742D01*
X33500Y34742D01*
X33560Y34754D01*
X33612Y34788D01*
X33646Y34840D01*
X33658Y34900D01*
Y35342D01*
X37092D01*
Y3350D01*
D02*
G37*
G36*
X9150Y28100D02*
X4550D01*
Y25350D01*
X250D01*
Y27500D01*
X3150D01*
Y30650D01*
X9150D01*
Y28100D01*
D02*
G37*
G36*
X14300Y25950D02*
X6450D01*
X6450Y23400D01*
X250D01*
Y25200D01*
X4900D01*
Y27850D01*
X14300D01*
X14300Y25950D01*
D02*
G37*
G36*
X9000Y21650D02*
X3400D01*
Y20800D01*
X250D01*
Y23200D01*
X6750D01*
Y25450D01*
X9000D01*
Y21650D01*
D02*
G37*
G36*
X9750Y19300D02*
X4700D01*
Y17800D01*
X250D01*
Y20550D01*
X3650D01*
Y21300D01*
X9750D01*
Y19300D01*
D02*
G37*
G36*
X14300Y17400D02*
X6450D01*
X6450Y15800D01*
X250D01*
Y17500D01*
X5100D01*
Y18950D01*
X14300D01*
X14300Y17400D01*
D02*
G37*
G36*
X8950Y16700D02*
Y13300D01*
X250Y13300D01*
Y15500D01*
X6750D01*
Y16700D01*
X8950Y16700D01*
D02*
G37*
G36*
X6150Y8750D02*
X2700D01*
Y8500D01*
X250D01*
Y13000D01*
X6150D01*
Y8750D01*
D02*
G37*
G36*
Y6200D02*
X5250D01*
Y4100D01*
X250D01*
X250Y7950D01*
X3650Y7950D01*
X3650Y8550D01*
X6150D01*
Y6200D01*
D02*
G37*
%LPC*%
G36*
X16950Y34399D02*
Y34100D01*
X17249D01*
X17226Y34185D01*
X17180Y34265D01*
X17115Y34330D01*
X17035Y34376D01*
X16950Y34399D01*
D02*
G37*
G36*
X16850D02*
X16765Y34376D01*
X16685Y34330D01*
X16620Y34265D01*
X16574Y34185D01*
X16551Y34100D01*
X16850D01*
Y34399D01*
D02*
G37*
G36*
X14650D02*
Y34100D01*
X14949D01*
X14926Y34185D01*
X14880Y34265D01*
X14815Y34330D01*
X14735Y34376D01*
X14650Y34399D01*
D02*
G37*
G36*
X14550D02*
X14465Y34376D01*
X14385Y34330D01*
X14320Y34265D01*
X14274Y34185D01*
X14251Y34100D01*
X14550D01*
Y34399D01*
D02*
G37*
G36*
X29550Y34349D02*
Y34050D01*
X29849D01*
X29826Y34135D01*
X29780Y34215D01*
X29715Y34280D01*
X29635Y34326D01*
X29550Y34349D01*
D02*
G37*
G36*
X29450D02*
X29365Y34326D01*
X29285Y34280D01*
X29220Y34215D01*
X29174Y34135D01*
X29151Y34050D01*
X29450D01*
Y34349D01*
D02*
G37*
G36*
X28000D02*
Y34050D01*
X28299D01*
X28276Y34135D01*
X28230Y34215D01*
X28165Y34280D01*
X28085Y34326D01*
X28000Y34349D01*
D02*
G37*
G36*
X27900D02*
X27815Y34326D01*
X27735Y34280D01*
X27670Y34215D01*
X27624Y34135D01*
X27601Y34050D01*
X27900D01*
Y34349D01*
D02*
G37*
G36*
X30944Y34293D02*
Y33994D01*
X31243D01*
X31221Y34079D01*
X31175Y34159D01*
X31109Y34224D01*
X31030Y34270D01*
X30944Y34293D01*
D02*
G37*
G36*
X30845D02*
X30759Y34270D01*
X30680Y34224D01*
X30614Y34159D01*
X30568Y34079D01*
X30546Y33994D01*
X30845D01*
Y34293D01*
D02*
G37*
G36*
X36975Y35225D02*
X35550D01*
Y33800D01*
X36975D01*
Y35225D01*
D02*
G37*
G36*
X35450D02*
X34025D01*
Y33800D01*
X35450D01*
Y35225D01*
D02*
G37*
G36*
X17249Y34000D02*
X16950D01*
Y33701D01*
X17035Y33724D01*
X17115Y33770D01*
X17180Y33835D01*
X17226Y33915D01*
X17249Y34000D01*
D02*
G37*
G36*
X16850D02*
X16551D01*
X16574Y33915D01*
X16620Y33835D01*
X16685Y33770D01*
X16765Y33724D01*
X16850Y33701D01*
Y34000D01*
D02*
G37*
G36*
X14949D02*
X14650D01*
Y33701D01*
X14735Y33724D01*
X14815Y33770D01*
X14880Y33835D01*
X14926Y33915D01*
X14949Y34000D01*
D02*
G37*
G36*
X14550D02*
X14251D01*
X14274Y33915D01*
X14320Y33835D01*
X14385Y33770D01*
X14465Y33724D01*
X14550Y33701D01*
Y34000D01*
D02*
G37*
G36*
X29849Y33950D02*
X29550D01*
Y33651D01*
X29635Y33674D01*
X29715Y33720D01*
X29780Y33785D01*
X29826Y33865D01*
X29849Y33950D01*
D02*
G37*
G36*
X29450D02*
X29151D01*
X29174Y33865D01*
X29220Y33785D01*
X29285Y33720D01*
X29365Y33674D01*
X29450Y33651D01*
Y33950D01*
D02*
G37*
G36*
X28299D02*
X28000D01*
Y33651D01*
X28085Y33674D01*
X28165Y33720D01*
X28230Y33785D01*
X28276Y33865D01*
X28299Y33950D01*
D02*
G37*
G36*
X27900D02*
X27601D01*
X27624Y33865D01*
X27670Y33785D01*
X27735Y33720D01*
X27815Y33674D01*
X27900Y33651D01*
Y33950D01*
D02*
G37*
G36*
X21650Y33949D02*
Y33650D01*
X21949D01*
X21926Y33735D01*
X21880Y33815D01*
X21815Y33880D01*
X21735Y33926D01*
X21650Y33949D01*
D02*
G37*
G36*
X21550D02*
X21465Y33926D01*
X21385Y33880D01*
X21320Y33815D01*
X21274Y33735D01*
X21251Y33650D01*
X21550D01*
Y33949D01*
D02*
G37*
G36*
X31243Y33894D02*
X30944D01*
Y33595D01*
X31030Y33617D01*
X31109Y33664D01*
X31175Y33729D01*
X31221Y33809D01*
X31243Y33894D01*
D02*
G37*
G36*
X30845D02*
X30546D01*
X30568Y33809D01*
X30614Y33729D01*
X30680Y33664D01*
X30759Y33617D01*
X30845Y33595D01*
Y33894D01*
D02*
G37*
G36*
X21949Y33550D02*
X21650D01*
Y33251D01*
X21735Y33274D01*
X21815Y33320D01*
X21880Y33385D01*
X21926Y33465D01*
X21949Y33550D01*
D02*
G37*
G36*
X21550D02*
X21251D01*
X21274Y33465D01*
X21320Y33385D01*
X21385Y33320D01*
X21465Y33274D01*
X21550Y33251D01*
Y33550D01*
D02*
G37*
G36*
X31850Y33449D02*
Y33150D01*
X32149D01*
X32126Y33235D01*
X32080Y33315D01*
X32015Y33380D01*
X31935Y33426D01*
X31850Y33449D01*
D02*
G37*
G36*
X31750D02*
X31665Y33426D01*
X31585Y33380D01*
X31520Y33315D01*
X31474Y33235D01*
X31451Y33150D01*
X31750D01*
Y33449D01*
D02*
G37*
G36*
X7250Y33249D02*
Y32950D01*
X7549D01*
X7526Y33035D01*
X7480Y33115D01*
X7415Y33180D01*
X7335Y33226D01*
X7250Y33249D01*
D02*
G37*
G36*
X7150D02*
X7065Y33226D01*
X6985Y33180D01*
X6920Y33115D01*
X6874Y33035D01*
X6851Y32950D01*
X7150D01*
Y33249D01*
D02*
G37*
G36*
X5100D02*
Y32950D01*
X5399D01*
X5376Y33035D01*
X5330Y33115D01*
X5265Y33180D01*
X5185Y33226D01*
X5100Y33249D01*
D02*
G37*
G36*
X5000D02*
X4915Y33226D01*
X4835Y33180D01*
X4770Y33115D01*
X4724Y33035D01*
X4701Y32950D01*
X5000D01*
Y33249D01*
D02*
G37*
G36*
X9400Y33199D02*
Y32900D01*
X9699D01*
X9676Y32985D01*
X9630Y33065D01*
X9565Y33130D01*
X9485Y33176D01*
X9400Y33199D01*
D02*
G37*
G36*
X9300D02*
X9215Y33176D01*
X9135Y33130D01*
X9070Y33065D01*
X9024Y32985D01*
X9001Y32900D01*
X9300D01*
Y33199D01*
D02*
G37*
G36*
X32149Y33050D02*
X31850D01*
Y32751D01*
X31935Y32774D01*
X32015Y32820D01*
X32080Y32885D01*
X32126Y32965D01*
X32149Y33050D01*
D02*
G37*
G36*
X31750D02*
X31451D01*
X31474Y32965D01*
X31520Y32885D01*
X31585Y32820D01*
X31665Y32774D01*
X31750Y32751D01*
Y33050D01*
D02*
G37*
G36*
X30500Y33255D02*
X28200D01*
X28102Y33235D01*
X28073Y33216D01*
X28064Y33214D01*
X28002Y33173D01*
X27961Y33111D01*
X27946Y33038D01*
Y33006D01*
X27945Y33000D01*
X27946Y32994D01*
Y32963D01*
X27961Y32889D01*
X28002Y32827D01*
X28064Y32786D01*
X28073Y32784D01*
X28102Y32764D01*
X28200Y32745D01*
X30500D01*
X30598Y32764D01*
X30627Y32784D01*
X30636Y32786D01*
X30698Y32827D01*
X30739Y32889D01*
X30754Y32963D01*
Y32994D01*
X30755Y33000D01*
X30754Y33006D01*
Y33038D01*
X30739Y33111D01*
X30698Y33173D01*
X30636Y33214D01*
X30627Y33216D01*
X30598Y33235D01*
X30500Y33255D01*
D02*
G37*
G36*
X7549Y32850D02*
X7250D01*
Y32551D01*
X7335Y32574D01*
X7415Y32620D01*
X7480Y32685D01*
X7526Y32765D01*
X7549Y32850D01*
D02*
G37*
G36*
X7150D02*
X6851D01*
X6874Y32765D01*
X6920Y32685D01*
X6985Y32620D01*
X7065Y32574D01*
X7150Y32551D01*
Y32850D01*
D02*
G37*
G36*
X5399D02*
X5100D01*
Y32551D01*
X5185Y32574D01*
X5265Y32620D01*
X5330Y32685D01*
X5376Y32765D01*
X5399Y32850D01*
D02*
G37*
G36*
X5000D02*
X4701D01*
X4724Y32765D01*
X4770Y32685D01*
X4835Y32620D01*
X4915Y32574D01*
X5000Y32551D01*
Y32850D01*
D02*
G37*
G36*
X9699Y32800D02*
X9400D01*
Y32501D01*
X9485Y32524D01*
X9565Y32570D01*
X9630Y32635D01*
X9676Y32715D01*
X9699Y32800D01*
D02*
G37*
G36*
X9300D02*
X9001D01*
X9024Y32715D01*
X9070Y32635D01*
X9135Y32570D01*
X9215Y32524D01*
X9300Y32501D01*
Y32800D01*
D02*
G37*
G36*
X30800Y32655D02*
X30794Y32654D01*
X30763D01*
X30689Y32639D01*
X30627Y32598D01*
X30586Y32536D01*
X30584Y32527D01*
X30564Y32498D01*
X30560Y32475D01*
X30510Y32480D01*
Y32610D01*
X30160D01*
Y32210D01*
X30060D01*
Y32610D01*
X29430D01*
Y32210D01*
X29330D01*
Y32610D01*
X28700D01*
Y32210D01*
X28650D01*
Y32160D01*
X28250D01*
Y31810D01*
Y31540D01*
X28650D01*
Y31440D01*
X28250D01*
Y31090D01*
Y30820D01*
X28650D01*
Y30770D01*
X28700D01*
Y30370D01*
X29330D01*
Y30770D01*
X29430D01*
Y30370D01*
X30060D01*
Y30770D01*
X30160D01*
Y30370D01*
X30510D01*
Y30520D01*
X30560Y30525D01*
X30564Y30502D01*
X30584Y30473D01*
X30586Y30464D01*
X30627Y30402D01*
X30689Y30361D01*
X30760Y30347D01*
X30765Y30340D01*
X30781Y30296D01*
X30780Y30296D01*
X30727Y30204D01*
X30718Y30169D01*
X30660Y30148D01*
X30636Y30164D01*
X30627Y30166D01*
X30598Y30185D01*
X30500Y30205D01*
X28200D01*
X28102Y30185D01*
X28073Y30166D01*
X28064Y30164D01*
X28002Y30123D01*
X27961Y30061D01*
X27946Y29987D01*
Y29956D01*
X27945Y29950D01*
X27946Y29944D01*
Y29913D01*
X27961Y29839D01*
X28002Y29777D01*
X28064Y29736D01*
X28073Y29734D01*
X28102Y29715D01*
X28200Y29695D01*
X30500D01*
X30598Y29715D01*
X30627Y29734D01*
X30636Y29736D01*
X30698Y29777D01*
X30719Y29810D01*
X30778Y29808D01*
X30780Y29804D01*
X30854Y29730D01*
X30896Y29706D01*
Y26714D01*
X30846Y26701D01*
X30820Y26746D01*
X30746Y26820D01*
X30654Y26873D01*
X30553Y26900D01*
X30447D01*
X30346Y26873D01*
X30254Y26820D01*
X30180Y26746D01*
X30127Y26654D01*
X30100Y26553D01*
Y26447D01*
X30127Y26346D01*
X30180Y26254D01*
X30254Y26180D01*
X30296Y26156D01*
Y25289D01*
X29356Y24349D01*
X29312Y24283D01*
X29296Y24205D01*
Y23294D01*
X29254Y23270D01*
X29180Y23196D01*
X29127Y23104D01*
X29100Y23003D01*
Y22897D01*
X29106Y22875D01*
X29061Y22849D01*
X25880Y26030D01*
X25798Y26086D01*
X25700Y26105D01*
X24111D01*
X24046Y26170D01*
X23954Y26223D01*
X23853Y26250D01*
X23747D01*
X23646Y26223D01*
X23554Y26170D01*
X23480Y26096D01*
X23427Y26004D01*
X23400Y25903D01*
Y25797D01*
X23427Y25696D01*
X23480Y25604D01*
X23545Y25539D01*
Y22011D01*
X23480Y21946D01*
X23427Y21854D01*
X23400Y21753D01*
Y21647D01*
X23427Y21546D01*
X23480Y21454D01*
X23554Y21380D01*
X23646Y21327D01*
X23747Y21300D01*
X23853D01*
X23954Y21327D01*
X24046Y21380D01*
X24120Y21454D01*
X24173Y21546D01*
X24200Y21647D01*
Y21753D01*
X24173Y21854D01*
X24120Y21946D01*
X24055Y22011D01*
Y25539D01*
X24111Y25595D01*
X25594D01*
X28229Y22960D01*
X28199Y22920D01*
X28193Y22923D01*
X28066Y22957D01*
X28050D01*
Y22507D01*
X28500D01*
Y22523D01*
X28466Y22650D01*
X28463Y22656D01*
X28503Y22687D01*
X29420Y21770D01*
X29502Y21714D01*
X29600Y21695D01*
X31420D01*
Y21550D01*
X33220D01*
Y21600D01*
X33350D01*
Y21735D01*
X33353Y21750D01*
Y22150D01*
X33350Y22165D01*
Y22300D01*
X33220D01*
Y22350D01*
X31420D01*
Y22205D01*
X30450D01*
X30425Y22255D01*
X30450Y22347D01*
Y22453D01*
X30423Y22554D01*
X30417Y22565D01*
X30453Y22602D01*
X30496Y22577D01*
X30597Y22550D01*
X30703D01*
X30804Y22577D01*
X30896Y22630D01*
X30970Y22704D01*
X31023Y22796D01*
X31050Y22897D01*
Y23003D01*
X31023Y23104D01*
X30970Y23196D01*
X30896Y23270D01*
X30854Y23294D01*
Y23560D01*
X30904Y23580D01*
X30954Y23530D01*
X31046Y23477D01*
X31147Y23450D01*
X31253D01*
X31354Y23477D01*
X31446Y23530D01*
X31520Y23604D01*
X31544Y23646D01*
X31926D01*
X31933Y23596D01*
X31846Y23573D01*
X31754Y23520D01*
X31680Y23446D01*
X31627Y23354D01*
X31600Y23253D01*
Y23147D01*
X31627Y23046D01*
X31680Y22954D01*
X31754Y22880D01*
X31846Y22827D01*
X31947Y22800D01*
X32053D01*
X32154Y22827D01*
X32246Y22880D01*
X32320Y22954D01*
X32344Y22996D01*
X35646D01*
Y21154D01*
X35580D01*
Y21350D01*
X33780D01*
Y21225D01*
X33720Y21165D01*
X33674Y21085D01*
X33650Y20996D01*
Y20904D01*
X33674Y20815D01*
X33720Y20735D01*
X33780Y20675D01*
Y20550D01*
X35580D01*
Y20746D01*
X35791D01*
X35807Y20749D01*
X35846Y20718D01*
Y20293D01*
X35707Y20154D01*
X35580D01*
Y20350D01*
X33780D01*
Y20225D01*
X33720Y20165D01*
X33674Y20085D01*
X33650Y19996D01*
Y19904D01*
X33674Y19815D01*
X33720Y19735D01*
X33780Y19675D01*
Y19550D01*
X35580D01*
Y19746D01*
X35791D01*
X35869Y19762D01*
X35936Y19806D01*
X36194Y20064D01*
X36238Y20131D01*
X36254Y20209D01*
Y23791D01*
X36238Y23869D01*
X36194Y23936D01*
X36136Y23994D01*
X36069Y24038D01*
X35991Y24054D01*
X31544D01*
X31520Y24096D01*
X31446Y24170D01*
X31354Y24223D01*
X31253Y24250D01*
X31147D01*
X31046Y24223D01*
X30954Y24170D01*
X30904Y24120D01*
X30854Y24140D01*
Y24216D01*
X32403Y25764D01*
X32447Y25830D01*
X32462Y25908D01*
Y26056D01*
X32504Y26080D01*
X32578Y26154D01*
X32631Y26246D01*
X32658Y26347D01*
Y26453D01*
X32631Y26554D01*
X32578Y26646D01*
X32504Y26720D01*
X32413Y26773D01*
X32311Y26800D01*
X32206D01*
X32104Y26773D01*
X32013Y26720D01*
X31938Y26646D01*
X31886Y26554D01*
X31858Y26453D01*
Y26347D01*
X31886Y26246D01*
X31938Y26154D01*
X32013Y26080D01*
X32054Y26056D01*
Y25993D01*
X31341Y25279D01*
X31295Y25304D01*
X31304Y25350D01*
Y29706D01*
X31346Y29730D01*
X31420Y29804D01*
X31473Y29896D01*
X31500Y29997D01*
Y30103D01*
X31473Y30204D01*
X31420Y30296D01*
X31346Y30370D01*
X31254Y30423D01*
X31153Y30450D01*
X31061D01*
X31038Y30480D01*
X31032Y30498D01*
X31035Y30502D01*
X31055Y30600D01*
Y32400D01*
X31035Y32498D01*
X31016Y32527D01*
X31014Y32536D01*
X30973Y32598D01*
X30911Y32639D01*
X30838Y32654D01*
X30806D01*
X30800Y32655D01*
D02*
G37*
G36*
X21500Y32749D02*
Y32450D01*
X21799D01*
X21776Y32535D01*
X21730Y32615D01*
X21665Y32680D01*
X21585Y32726D01*
X21500Y32749D01*
D02*
G37*
G36*
X21400D02*
X21315Y32726D01*
X21235Y32680D01*
X21170Y32615D01*
X21124Y32535D01*
X21101Y32450D01*
X21400D01*
Y32749D01*
D02*
G37*
G36*
X36975Y33700D02*
X35550D01*
Y32275D01*
X36975D01*
Y33700D01*
D02*
G37*
G36*
X35450D02*
X34025D01*
Y32275D01*
X35450D01*
Y33700D01*
D02*
G37*
G36*
X28600Y32610D02*
X28250D01*
Y32260D01*
X28600D01*
Y32610D01*
D02*
G37*
G36*
X3350Y33700D02*
X1800D01*
Y32150D01*
X3350D01*
Y33700D01*
D02*
G37*
G36*
X21799Y32350D02*
X21500D01*
Y32051D01*
X21585Y32074D01*
X21665Y32120D01*
X21730Y32185D01*
X21776Y32265D01*
X21799Y32350D01*
D02*
G37*
G36*
X21400D02*
X21101D01*
X21124Y32265D01*
X21170Y32185D01*
X21235Y32120D01*
X21315Y32074D01*
X21400Y32051D01*
Y32350D01*
D02*
G37*
G36*
X14650Y32299D02*
Y32000D01*
X14949D01*
X14926Y32085D01*
X14880Y32165D01*
X14815Y32230D01*
X14735Y32276D01*
X14650Y32299D01*
D02*
G37*
G36*
X14550D02*
X14465Y32276D01*
X14385Y32230D01*
X14320Y32165D01*
X14274Y32085D01*
X14251Y32000D01*
X14550D01*
Y32299D01*
D02*
G37*
G36*
X14949Y31900D02*
X14650D01*
Y31601D01*
X14735Y31624D01*
X14815Y31670D01*
X14880Y31735D01*
X14926Y31815D01*
X14949Y31900D01*
D02*
G37*
G36*
X14550D02*
X14251D01*
X14274Y31815D01*
X14320Y31735D01*
X14385Y31670D01*
X14465Y31624D01*
X14550Y31601D01*
Y31900D01*
D02*
G37*
G36*
X31900Y31499D02*
Y31200D01*
X32199D01*
X32176Y31285D01*
X32130Y31365D01*
X32065Y31430D01*
X31985Y31476D01*
X31900Y31499D01*
D02*
G37*
G36*
X31800D02*
X31715Y31476D01*
X31635Y31430D01*
X31570Y31365D01*
X31524Y31285D01*
X31501Y31200D01*
X31800D01*
Y31499D01*
D02*
G37*
G36*
X20300Y31199D02*
X20215Y31176D01*
X20135Y31130D01*
X20070Y31065D01*
X20024Y30985D01*
X20001Y30900D01*
X20300D01*
Y31199D01*
D02*
G37*
G36*
X32199Y31100D02*
X31900D01*
Y30801D01*
X31985Y30824D01*
X32065Y30870D01*
X32130Y30935D01*
X32176Y31015D01*
X32199Y31100D01*
D02*
G37*
G36*
X31800D02*
X31501D01*
X31524Y31015D01*
X31570Y30935D01*
X31635Y30870D01*
X31715Y30824D01*
X31800Y30801D01*
Y31100D01*
D02*
G37*
G36*
X20300Y30800D02*
X20001D01*
X20024Y30715D01*
X20070Y30635D01*
X20135Y30570D01*
X20215Y30524D01*
X20300Y30501D01*
Y30800D01*
D02*
G37*
G36*
X28600Y30720D02*
X28250D01*
Y30370D01*
X28600D01*
Y30720D01*
D02*
G37*
G36*
X27850Y32605D02*
X27844Y32604D01*
X27812D01*
X27739Y32589D01*
X27677Y32548D01*
X27636Y32486D01*
X27634Y32477D01*
X27615Y32448D01*
X27595Y32350D01*
Y30550D01*
X27615Y30452D01*
X27634Y30423D01*
X27636Y30414D01*
X27677Y30352D01*
X27739Y30311D01*
X27812Y30296D01*
X27844D01*
X27850Y30295D01*
X27856Y30296D01*
X27887D01*
X27961Y30311D01*
X28023Y30352D01*
X28064Y30414D01*
X28066Y30423D01*
X28085Y30452D01*
X28105Y30550D01*
Y32350D01*
X28085Y32448D01*
X28066Y32477D01*
X28064Y32486D01*
X28023Y32548D01*
X27961Y32589D01*
X27887Y32604D01*
X27856D01*
X27850Y32605D01*
D02*
G37*
G36*
X34900Y30199D02*
Y29900D01*
X35199D01*
X35176Y29985D01*
X35130Y30065D01*
X35065Y30130D01*
X34985Y30176D01*
X34900Y30199D01*
D02*
G37*
G36*
X34800D02*
X34715Y30176D01*
X34635Y30130D01*
X34570Y30065D01*
X34524Y29985D01*
X34501Y29900D01*
X34800D01*
Y30199D01*
D02*
G37*
G36*
X35199Y29800D02*
X34900D01*
Y29501D01*
X34985Y29524D01*
X35065Y29570D01*
X35130Y29635D01*
X35176Y29715D01*
X35199Y29800D01*
D02*
G37*
G36*
X34800D02*
X34501D01*
X34524Y29715D01*
X34570Y29635D01*
X34635Y29570D01*
X34715Y29524D01*
X34800Y29501D01*
Y29800D01*
D02*
G37*
G36*
X29515Y29255D02*
Y28956D01*
X29814D01*
X29791Y29041D01*
X29745Y29121D01*
X29680Y29186D01*
X29600Y29232D01*
X29515Y29255D01*
D02*
G37*
G36*
X29415D02*
X29330Y29232D01*
X29250Y29186D01*
X29185Y29121D01*
X29139Y29041D01*
X29116Y28956D01*
X29415D01*
Y29255D01*
D02*
G37*
G36*
X27983Y29186D02*
Y28888D01*
X28282D01*
X28259Y28973D01*
X28213Y29052D01*
X28148Y29118D01*
X28068Y29164D01*
X27983Y29186D01*
D02*
G37*
G36*
X27883D02*
X27798Y29164D01*
X27718Y29118D01*
X27653Y29052D01*
X27607Y28973D01*
X27584Y28888D01*
X27883D01*
Y29186D01*
D02*
G37*
G36*
X29814Y28856D02*
X29515D01*
Y28557D01*
X29600Y28579D01*
X29680Y28626D01*
X29745Y28691D01*
X29791Y28770D01*
X29814Y28856D01*
D02*
G37*
G36*
X29415D02*
X29116D01*
X29139Y28770D01*
X29185Y28691D01*
X29250Y28626D01*
X29330Y28579D01*
X29415Y28557D01*
Y28856D01*
D02*
G37*
G36*
X28282Y28788D02*
X27983D01*
Y28489D01*
X28068Y28511D01*
X28148Y28557D01*
X28213Y28623D01*
X28259Y28702D01*
X28282Y28788D01*
D02*
G37*
G36*
X27883D02*
X27584D01*
X27607Y28702D01*
X27653Y28623D01*
X27718Y28557D01*
X27798Y28511D01*
X27883Y28489D01*
Y28788D01*
D02*
G37*
G36*
X35050Y27949D02*
Y27650D01*
X35349D01*
X35326Y27735D01*
X35280Y27815D01*
X35215Y27880D01*
X35135Y27926D01*
X35050Y27949D01*
D02*
G37*
G36*
X34950D02*
X34865Y27926D01*
X34785Y27880D01*
X34720Y27815D01*
X34674Y27735D01*
X34651Y27650D01*
X34950D01*
Y27949D01*
D02*
G37*
G36*
X35349Y27550D02*
X35050D01*
Y27251D01*
X35135Y27274D01*
X35215Y27320D01*
X35280Y27385D01*
X35326Y27465D01*
X35349Y27550D01*
D02*
G37*
G36*
X34950D02*
X34651D01*
X34674Y27465D01*
X34720Y27385D01*
X34785Y27320D01*
X34865Y27274D01*
X34950Y27251D01*
Y27550D01*
D02*
G37*
G36*
X20050Y27399D02*
Y27100D01*
X20349D01*
X20326Y27185D01*
X20280Y27265D01*
X20215Y27330D01*
X20135Y27376D01*
X20050Y27399D01*
D02*
G37*
G36*
X19950D02*
X19865Y27376D01*
X19785Y27330D01*
X19720Y27265D01*
X19674Y27185D01*
X19651Y27100D01*
X19950D01*
Y27399D01*
D02*
G37*
G36*
X26750Y27049D02*
Y26750D01*
X27049D01*
X27026Y26835D01*
X26980Y26915D01*
X26915Y26980D01*
X26835Y27026D01*
X26750Y27049D01*
D02*
G37*
G36*
X26650D02*
X26565Y27026D01*
X26485Y26980D01*
X26420Y26915D01*
X26374Y26835D01*
X26351Y26750D01*
X26650D01*
Y27049D01*
D02*
G37*
G36*
X20349Y27000D02*
X20050D01*
Y26701D01*
X20135Y26724D01*
X20215Y26770D01*
X20280Y26835D01*
X20326Y26915D01*
X20349Y27000D01*
D02*
G37*
G36*
X19950D02*
X19651D01*
X19674Y26915D01*
X19720Y26835D01*
X19785Y26770D01*
X19865Y26724D01*
X19950Y26701D01*
Y27000D01*
D02*
G37*
G36*
X27049Y26650D02*
X26750D01*
Y26351D01*
X26835Y26374D01*
X26915Y26420D01*
X26980Y26485D01*
X27026Y26565D01*
X27049Y26650D01*
D02*
G37*
G36*
X26650D02*
X26351D01*
X26374Y26565D01*
X26420Y26485D01*
X26485Y26420D01*
X26565Y26374D01*
X26650Y26351D01*
Y26650D01*
D02*
G37*
G36*
X16850Y26599D02*
Y26300D01*
X17149D01*
X17126Y26385D01*
X17080Y26465D01*
X17015Y26530D01*
X16935Y26576D01*
X16850Y26599D01*
D02*
G37*
G36*
X16750D02*
X16665Y26576D01*
X16585Y26530D01*
X16520Y26465D01*
X16474Y26385D01*
X16451Y26300D01*
X16750D01*
Y26599D01*
D02*
G37*
G36*
X35050Y26474D02*
Y26175D01*
X35349D01*
X35326Y26260D01*
X35280Y26340D01*
X35215Y26405D01*
X35135Y26451D01*
X35050Y26474D01*
D02*
G37*
G36*
X34950D02*
X34865Y26451D01*
X34785Y26405D01*
X34720Y26340D01*
X34674Y26260D01*
X34651Y26175D01*
X34950D01*
Y26474D01*
D02*
G37*
G36*
X17149Y26200D02*
X16850D01*
Y25901D01*
X16935Y25924D01*
X17015Y25970D01*
X17080Y26035D01*
X17126Y26115D01*
X17149Y26200D01*
D02*
G37*
G36*
X16750D02*
X16451D01*
X16474Y26115D01*
X16520Y26035D01*
X16585Y25970D01*
X16665Y25924D01*
X16750Y25901D01*
Y26200D01*
D02*
G37*
G36*
X20060Y26188D02*
Y25889D01*
X20359D01*
X20336Y25974D01*
X20290Y26054D01*
X20225Y26119D01*
X20145Y26165D01*
X20060Y26188D01*
D02*
G37*
G36*
X19960D02*
X19875Y26165D01*
X19795Y26119D01*
X19730Y26054D01*
X19684Y25974D01*
X19661Y25889D01*
X19960D01*
Y26188D01*
D02*
G37*
G36*
X35349Y26075D02*
X35050D01*
Y25776D01*
X35135Y25799D01*
X35215Y25845D01*
X35280Y25910D01*
X35326Y25990D01*
X35349Y26075D01*
D02*
G37*
G36*
X34950D02*
X34651D01*
X34674Y25990D01*
X34720Y25910D01*
X34785Y25845D01*
X34865Y25799D01*
X34950Y25776D01*
Y26075D01*
D02*
G37*
G36*
X20359Y25789D02*
X20060D01*
Y25490D01*
X20145Y25513D01*
X20225Y25559D01*
X20290Y25624D01*
X20336Y25704D01*
X20359Y25789D01*
D02*
G37*
G36*
X19960D02*
X19661D01*
X19684Y25704D01*
X19730Y25624D01*
X19795Y25559D01*
X19875Y25513D01*
X19960Y25490D01*
Y25789D01*
D02*
G37*
G36*
X29608Y26955D02*
X29503D01*
X29401Y26928D01*
X29310Y26875D01*
X29235Y26801D01*
X29183Y26710D01*
X29155Y26608D01*
Y26503D01*
X29183Y26401D01*
X29235Y26310D01*
X29310Y26235D01*
X29349Y26213D01*
Y25600D01*
X29304Y25574D01*
X29230Y25500D01*
X29177Y25409D01*
X29150Y25307D01*
Y25201D01*
X29177Y25100D01*
X29230Y25009D01*
X29304Y24934D01*
X29396Y24881D01*
X29497Y24854D01*
X29603D01*
X29704Y24881D01*
X29796Y24934D01*
X29870Y25009D01*
X29923Y25100D01*
X29950Y25201D01*
Y25307D01*
X29923Y25409D01*
X29870Y25500D01*
X29796Y25574D01*
X29757Y25597D01*
Y26210D01*
X29801Y26235D01*
X29875Y26310D01*
X29928Y26401D01*
X29955Y26503D01*
Y26608D01*
X29928Y26710D01*
X29875Y26801D01*
X29801Y26875D01*
X29710Y26928D01*
X29608Y26955D01*
D02*
G37*
G36*
X35050Y24999D02*
Y24700D01*
X35349D01*
X35326Y24785D01*
X35280Y24865D01*
X35215Y24930D01*
X35135Y24976D01*
X35050Y24999D01*
D02*
G37*
G36*
X34950D02*
X34865Y24976D01*
X34785Y24930D01*
X34720Y24865D01*
X34674Y24785D01*
X34651Y24700D01*
X34950D01*
Y24999D01*
D02*
G37*
G36*
X35349Y24600D02*
X35050D01*
Y24301D01*
X35135Y24324D01*
X35215Y24370D01*
X35280Y24435D01*
X35326Y24515D01*
X35349Y24600D01*
D02*
G37*
G36*
X34950D02*
X34651D01*
X34674Y24515D01*
X34720Y24435D01*
X34785Y24370D01*
X34865Y24324D01*
X34950Y24301D01*
Y24600D01*
D02*
G37*
G36*
X16650Y24299D02*
Y24000D01*
X16949D01*
X16926Y24085D01*
X16880Y24165D01*
X16815Y24230D01*
X16735Y24276D01*
X16650Y24299D01*
D02*
G37*
G36*
X16550D02*
X16465Y24276D01*
X16385Y24230D01*
X16320Y24165D01*
X16274Y24085D01*
X16251Y24000D01*
X16550D01*
Y24299D01*
D02*
G37*
G36*
X15500D02*
Y24000D01*
X15799D01*
X15776Y24085D01*
X15730Y24165D01*
X15665Y24230D01*
X15585Y24276D01*
X15500Y24299D01*
D02*
G37*
G36*
X15400D02*
X15315Y24276D01*
X15235Y24230D01*
X15170Y24165D01*
X15124Y24085D01*
X15101Y24000D01*
X15400D01*
Y24299D01*
D02*
G37*
G36*
X16949Y23900D02*
X16650D01*
Y23601D01*
X16735Y23624D01*
X16815Y23670D01*
X16880Y23735D01*
X16926Y23815D01*
X16949Y23900D01*
D02*
G37*
G36*
X16550D02*
X16251D01*
X16274Y23815D01*
X16320Y23735D01*
X16385Y23670D01*
X16465Y23624D01*
X16550Y23601D01*
Y23900D01*
D02*
G37*
G36*
X15799D02*
X15500D01*
Y23601D01*
X15585Y23624D01*
X15665Y23670D01*
X15730Y23735D01*
X15776Y23815D01*
X15799Y23900D01*
D02*
G37*
G36*
X15400D02*
X15101D01*
X15124Y23815D01*
X15170Y23735D01*
X15235Y23670D01*
X15315Y23624D01*
X15400Y23601D01*
Y23900D01*
D02*
G37*
G36*
X26400Y23499D02*
Y23200D01*
X26699D01*
X26676Y23285D01*
X26630Y23365D01*
X26565Y23430D01*
X26485Y23476D01*
X26400Y23499D01*
D02*
G37*
G36*
X26300D02*
X26215Y23476D01*
X26135Y23430D01*
X26070Y23365D01*
X26024Y23285D01*
X26001Y23200D01*
X26300D01*
Y23499D01*
D02*
G37*
G36*
X12200Y23199D02*
Y22900D01*
X12499D01*
X12476Y22985D01*
X12430Y23065D01*
X12365Y23130D01*
X12285Y23176D01*
X12200Y23199D01*
D02*
G37*
G36*
X12100D02*
X12015Y23176D01*
X11935Y23130D01*
X11870Y23065D01*
X11824Y22985D01*
X11801Y22900D01*
X12100D01*
Y23199D01*
D02*
G37*
G36*
X26699Y23100D02*
X26400D01*
Y22801D01*
X26485Y22824D01*
X26565Y22870D01*
X26630Y22935D01*
X26676Y23015D01*
X26699Y23100D01*
D02*
G37*
G36*
X26300D02*
X26001D01*
X26024Y23015D01*
X26070Y22935D01*
X26135Y22870D01*
X26215Y22824D01*
X26300Y22801D01*
Y23100D01*
D02*
G37*
G36*
X27950Y22957D02*
X27934D01*
X27807Y22923D01*
X27693Y22858D01*
X27600Y22764D01*
X27534Y22650D01*
X27500Y22523D01*
Y22507D01*
X27950D01*
Y22957D01*
D02*
G37*
G36*
X12499Y22800D02*
X12200D01*
Y22501D01*
X12285Y22524D01*
X12365Y22570D01*
X12430Y22635D01*
X12476Y22715D01*
X12499Y22800D01*
D02*
G37*
G36*
X12100D02*
X11801D01*
X11824Y22715D01*
X11870Y22635D01*
X11935Y22570D01*
X12015Y22524D01*
X12100Y22501D01*
Y22800D01*
D02*
G37*
G36*
X22150Y22599D02*
Y22300D01*
X22449D01*
X22426Y22385D01*
X22380Y22465D01*
X22315Y22530D01*
X22235Y22576D01*
X22150Y22599D01*
D02*
G37*
G36*
X22050D02*
X21965Y22576D01*
X21885Y22530D01*
X21820Y22465D01*
X21774Y22385D01*
X21751Y22300D01*
X22050D01*
Y22599D01*
D02*
G37*
G36*
X14950Y22499D02*
Y22200D01*
X15249D01*
X15226Y22285D01*
X15180Y22365D01*
X15115Y22430D01*
X15035Y22476D01*
X14950Y22499D01*
D02*
G37*
G36*
X14850D02*
X14765Y22476D01*
X14685Y22430D01*
X14620Y22365D01*
X14574Y22285D01*
X14551Y22200D01*
X14850D01*
Y22499D01*
D02*
G37*
G36*
X28500Y22407D02*
X28050D01*
Y21957D01*
X28066D01*
X28193Y21992D01*
X28307Y22057D01*
X28400Y22150D01*
X28466Y22264D01*
X28500Y22392D01*
Y22407D01*
D02*
G37*
G36*
X27950D02*
X27500D01*
Y22392D01*
X27534Y22264D01*
X27600Y22150D01*
X27693Y22057D01*
X27807Y21992D01*
X27934Y21957D01*
X27950D01*
Y22407D01*
D02*
G37*
G36*
X24923Y23007D02*
X24778D01*
X24638Y22970D01*
X24513Y22898D01*
X24410Y22795D01*
X24338Y22670D01*
X24300Y22530D01*
Y22385D01*
X24338Y22245D01*
X24410Y22120D01*
X24513Y22017D01*
X24638Y21945D01*
X24778Y21907D01*
X24923D01*
X25063Y21945D01*
X25188Y22017D01*
X25291Y22120D01*
X25363Y22245D01*
X25400Y22385D01*
Y22530D01*
X25363Y22670D01*
X25291Y22795D01*
X25188Y22898D01*
X25063Y22970D01*
X24923Y23007D01*
D02*
G37*
G36*
X22449Y22200D02*
X22150D01*
Y21901D01*
X22235Y21924D01*
X22315Y21970D01*
X22380Y22035D01*
X22426Y22115D01*
X22449Y22200D01*
D02*
G37*
G36*
X22050D02*
X21751D01*
X21774Y22115D01*
X21820Y22035D01*
X21885Y21970D01*
X21965Y21924D01*
X22050Y21901D01*
Y22200D01*
D02*
G37*
G36*
X15249Y22100D02*
X14950D01*
Y21801D01*
X15035Y21824D01*
X15115Y21870D01*
X15180Y21935D01*
X15226Y22015D01*
X15249Y22100D01*
D02*
G37*
G36*
X14850D02*
X14551D01*
X14574Y22015D01*
X14620Y21935D01*
X14685Y21870D01*
X14765Y21824D01*
X14850Y21801D01*
Y22100D01*
D02*
G37*
G36*
X35580Y22350D02*
X33780D01*
Y22225D01*
X33720Y22165D01*
X33674Y22085D01*
X33650Y21996D01*
Y21904D01*
X33674Y21815D01*
X33720Y21735D01*
X33780Y21675D01*
Y21550D01*
X35580D01*
Y22350D01*
D02*
G37*
G36*
X26347Y21836D02*
Y21537D01*
X26646D01*
X26623Y21622D01*
X26577Y21702D01*
X26512Y21767D01*
X26432Y21813D01*
X26347Y21836D01*
D02*
G37*
G36*
X26247D02*
X26162Y21813D01*
X26082Y21767D01*
X26017Y21702D01*
X25971Y21622D01*
X25948Y21537D01*
X26247D01*
Y21836D01*
D02*
G37*
G36*
X26646Y21437D02*
X26347D01*
Y21138D01*
X26432Y21161D01*
X26512Y21207D01*
X26577Y21272D01*
X26623Y21352D01*
X26646Y21437D01*
D02*
G37*
G36*
X26247D02*
X25948D01*
X25971Y21352D01*
X26017Y21272D01*
X26082Y21207D01*
X26162Y21161D01*
X26247Y21138D01*
Y21437D01*
D02*
G37*
G36*
X33170Y21300D02*
X32370D01*
Y21000D01*
X33297D01*
X33280Y21066D01*
X33240Y21134D01*
X33184Y21190D01*
X33170Y21198D01*
Y21300D01*
D02*
G37*
G36*
X32270D02*
X31470D01*
Y21000D01*
X32270D01*
Y21300D01*
D02*
G37*
G36*
X33297Y20900D02*
X32370D01*
Y20600D01*
X33170D01*
Y20702D01*
X33184Y20710D01*
X33240Y20766D01*
X33280Y20834D01*
X33297Y20900D01*
D02*
G37*
G36*
X32270D02*
X31470D01*
Y20600D01*
X32270D01*
Y20900D01*
D02*
G37*
G36*
X28066Y21028D02*
X28050D01*
Y20578D01*
X28500D01*
Y20594D01*
X28466Y20721D01*
X28400Y20835D01*
X28307Y20928D01*
X28193Y20994D01*
X28066Y21028D01*
D02*
G37*
G36*
X27950D02*
X27934D01*
X27807Y20994D01*
X27693Y20928D01*
X27600Y20835D01*
X27534Y20721D01*
X27500Y20594D01*
Y20578D01*
X27950D01*
Y21028D01*
D02*
G37*
G36*
X23103Y29050D02*
X22997D01*
X22896Y29023D01*
X22804Y28970D01*
X22730Y28896D01*
X22677Y28804D01*
X22650Y28703D01*
Y28597D01*
X22677Y28496D01*
X22730Y28404D01*
X22804Y28330D01*
X22871Y28291D01*
Y21030D01*
X22854Y21020D01*
X22780Y20946D01*
X22727Y20854D01*
X22700Y20753D01*
Y20647D01*
X22727Y20546D01*
X22780Y20454D01*
X22854Y20380D01*
X22946Y20327D01*
X23047Y20300D01*
X23153D01*
X23254Y20327D01*
X23346Y20380D01*
X23420Y20454D01*
X23473Y20546D01*
X23500Y20647D01*
Y20753D01*
X23473Y20854D01*
X23420Y20946D01*
X23346Y21020D01*
X23279Y21059D01*
Y28320D01*
X23296Y28330D01*
X23370Y28404D01*
X23423Y28496D01*
X23450Y28597D01*
Y28703D01*
X23423Y28804D01*
X23370Y28896D01*
X23296Y28970D01*
X23204Y29023D01*
X23103Y29050D01*
D02*
G37*
G36*
X28500Y20478D02*
X28050D01*
Y20028D01*
X28066D01*
X28193Y20062D01*
X28307Y20128D01*
X28400Y20221D01*
X28466Y20335D01*
X28500Y20463D01*
Y20478D01*
D02*
G37*
G36*
X27950D02*
X27500D01*
Y20463D01*
X27534Y20335D01*
X27600Y20221D01*
X27693Y20128D01*
X27807Y20062D01*
X27934Y20028D01*
X27950D01*
Y20478D01*
D02*
G37*
G36*
X33170Y20300D02*
X32370D01*
Y20000D01*
X33297D01*
X33280Y20066D01*
X33240Y20134D01*
X33184Y20190D01*
X33170Y20198D01*
Y20300D01*
D02*
G37*
G36*
X32270D02*
X31470D01*
Y20000D01*
X32270D01*
Y20300D01*
D02*
G37*
G36*
X22150Y20249D02*
Y19950D01*
X22449D01*
X22426Y20035D01*
X22380Y20115D01*
X22315Y20180D01*
X22235Y20226D01*
X22150Y20249D01*
D02*
G37*
G36*
X22050D02*
X21965Y20226D01*
X21885Y20180D01*
X21820Y20115D01*
X21774Y20035D01*
X21751Y19950D01*
X22050D01*
Y20249D01*
D02*
G37*
G36*
X33297Y19900D02*
X32370D01*
Y19600D01*
X33170D01*
Y19702D01*
X33184Y19710D01*
X33240Y19766D01*
X33280Y19834D01*
X33297Y19900D01*
D02*
G37*
G36*
X32270D02*
X31470D01*
Y19600D01*
X32270D01*
Y19900D01*
D02*
G37*
G36*
X22449Y19850D02*
X22150D01*
Y19551D01*
X22235Y19574D01*
X22315Y19620D01*
X22380Y19685D01*
X22426Y19765D01*
X22449Y19850D01*
D02*
G37*
G36*
X22050D02*
X21751D01*
X21774Y19765D01*
X21820Y19685D01*
X21885Y19620D01*
X21965Y19574D01*
X22050Y19551D01*
Y19850D01*
D02*
G37*
G36*
X20071Y19308D02*
Y19009D01*
X20370D01*
X20348Y19094D01*
X20301Y19173D01*
X20236Y19239D01*
X20156Y19285D01*
X20071Y19308D01*
D02*
G37*
G36*
X19971D02*
X19886Y19285D01*
X19806Y19239D01*
X19741Y19173D01*
X19695Y19094D01*
X19672Y19009D01*
X19971D01*
Y19308D01*
D02*
G37*
G36*
X33170Y19300D02*
X32370D01*
Y19000D01*
X33297D01*
X33280Y19066D01*
X33240Y19134D01*
X33184Y19190D01*
X33170Y19198D01*
Y19300D01*
D02*
G37*
G36*
X32270D02*
X31470D01*
Y19000D01*
X32270D01*
Y19300D01*
D02*
G37*
G36*
X20370Y18909D02*
X20071D01*
Y18610D01*
X20156Y18632D01*
X20236Y18679D01*
X20301Y18744D01*
X20348Y18823D01*
X20370Y18909D01*
D02*
G37*
G36*
X19971D02*
X19672D01*
X19695Y18823D01*
X19741Y18744D01*
X19806Y18679D01*
X19886Y18632D01*
X19971Y18610D01*
Y18909D01*
D02*
G37*
G36*
X33297Y18900D02*
X32370D01*
Y18600D01*
X33170D01*
Y18702D01*
X33184Y18710D01*
X33240Y18766D01*
X33280Y18834D01*
X33297Y18900D01*
D02*
G37*
G36*
X32270D02*
X31470D01*
Y18600D01*
X32270D01*
Y18900D01*
D02*
G37*
G36*
X35580Y19350D02*
X33780D01*
Y19225D01*
X33720Y19165D01*
X33674Y19085D01*
X33650Y18996D01*
Y18904D01*
X33674Y18815D01*
X33720Y18735D01*
X33780Y18675D01*
Y18550D01*
X35580D01*
Y19350D01*
D02*
G37*
G36*
X18600Y18799D02*
Y18500D01*
X18899D01*
X18876Y18585D01*
X18830Y18665D01*
X18765Y18730D01*
X18685Y18776D01*
X18600Y18799D01*
D02*
G37*
G36*
X18500D02*
X18415Y18776D01*
X18335Y18730D01*
X18270Y18665D01*
X18224Y18585D01*
X18201Y18500D01*
X18500D01*
Y18799D01*
D02*
G37*
G36*
X17500D02*
Y18500D01*
X17799D01*
X17776Y18585D01*
X17730Y18665D01*
X17665Y18730D01*
X17585Y18776D01*
X17500Y18799D01*
D02*
G37*
G36*
X17400D02*
X17315Y18776D01*
X17235Y18730D01*
X17170Y18665D01*
X17124Y18585D01*
X17101Y18500D01*
X17400D01*
Y18799D01*
D02*
G37*
G36*
X16450D02*
Y18500D01*
X16749D01*
X16726Y18585D01*
X16680Y18665D01*
X16615Y18730D01*
X16535Y18776D01*
X16450Y18799D01*
D02*
G37*
G36*
X16350D02*
X16265Y18776D01*
X16185Y18730D01*
X16120Y18665D01*
X16074Y18585D01*
X16051Y18500D01*
X16350D01*
Y18799D01*
D02*
G37*
G36*
X22321Y18481D02*
Y18182D01*
X22620D01*
X22597Y18267D01*
X22551Y18347D01*
X22486Y18412D01*
X22406Y18458D01*
X22321Y18481D01*
D02*
G37*
G36*
X22221D02*
X22136Y18458D01*
X22056Y18412D01*
X21991Y18347D01*
X21945Y18267D01*
X21922Y18182D01*
X22221D01*
Y18481D01*
D02*
G37*
G36*
X23950Y18449D02*
Y18150D01*
X24249D01*
X24226Y18235D01*
X24180Y18315D01*
X24115Y18380D01*
X24035Y18426D01*
X23950Y18449D01*
D02*
G37*
G36*
X23850D02*
X23765Y18426D01*
X23685Y18380D01*
X23620Y18315D01*
X23574Y18235D01*
X23551Y18150D01*
X23850D01*
Y18449D01*
D02*
G37*
G36*
X18899Y18400D02*
X18600D01*
Y18101D01*
X18685Y18124D01*
X18765Y18170D01*
X18830Y18235D01*
X18876Y18315D01*
X18899Y18400D01*
D02*
G37*
G36*
X18500D02*
X18201D01*
X18224Y18315D01*
X18270Y18235D01*
X18335Y18170D01*
X18415Y18124D01*
X18500Y18101D01*
Y18400D01*
D02*
G37*
G36*
X17799D02*
X17500D01*
Y18101D01*
X17585Y18124D01*
X17665Y18170D01*
X17730Y18235D01*
X17776Y18315D01*
X17799Y18400D01*
D02*
G37*
G36*
X17400D02*
X17101D01*
X17124Y18315D01*
X17170Y18235D01*
X17235Y18170D01*
X17315Y18124D01*
X17400Y18101D01*
Y18400D01*
D02*
G37*
G36*
X16749D02*
X16450D01*
Y18101D01*
X16535Y18124D01*
X16615Y18170D01*
X16680Y18235D01*
X16726Y18315D01*
X16749Y18400D01*
D02*
G37*
G36*
X16350D02*
X16051D01*
X16074Y18315D01*
X16120Y18235D01*
X16185Y18170D01*
X16265Y18124D01*
X16350Y18101D01*
Y18400D01*
D02*
G37*
G36*
X33170Y18300D02*
X32370D01*
Y18000D01*
X33297D01*
X33280Y18066D01*
X33240Y18134D01*
X33184Y18190D01*
X33170Y18198D01*
Y18300D01*
D02*
G37*
G36*
X32270D02*
X31470D01*
Y18000D01*
X32270D01*
Y18300D01*
D02*
G37*
G36*
X22620Y18082D02*
X22321D01*
Y17783D01*
X22406Y17806D01*
X22486Y17852D01*
X22551Y17917D01*
X22597Y17997D01*
X22620Y18082D01*
D02*
G37*
G36*
X22221D02*
X21922D01*
X21945Y17997D01*
X21991Y17917D01*
X22056Y17852D01*
X22136Y17806D01*
X22221Y17783D01*
Y18082D01*
D02*
G37*
G36*
X24249Y18050D02*
X23950D01*
Y17751D01*
X24035Y17774D01*
X24115Y17820D01*
X24180Y17885D01*
X24226Y17965D01*
X24249Y18050D01*
D02*
G37*
G36*
X23850D02*
X23551D01*
X23574Y17965D01*
X23620Y17885D01*
X23685Y17820D01*
X23765Y17774D01*
X23850Y17751D01*
Y18050D01*
D02*
G37*
G36*
X33297Y17900D02*
X32370D01*
Y17600D01*
X33170D01*
Y17702D01*
X33184Y17710D01*
X33240Y17766D01*
X33280Y17834D01*
X33297Y17900D01*
D02*
G37*
G36*
X32270D02*
X31470D01*
Y17600D01*
X32270D01*
Y17900D01*
D02*
G37*
G36*
X35580Y18350D02*
X33780D01*
Y18225D01*
X33720Y18165D01*
X33674Y18085D01*
X33650Y17996D01*
Y17904D01*
X33674Y17815D01*
X33720Y17735D01*
X33780Y17675D01*
Y17550D01*
X35580D01*
Y18350D01*
D02*
G37*
G36*
X24950Y17212D02*
Y16913D01*
X25249D01*
X25226Y16998D01*
X25180Y17078D01*
X25115Y17143D01*
X25035Y17189D01*
X24950Y17212D01*
D02*
G37*
G36*
X24850D02*
X24765Y17189D01*
X24685Y17143D01*
X24620Y17078D01*
X24574Y16998D01*
X24551Y16913D01*
X24850D01*
Y17212D01*
D02*
G37*
G36*
X23384D02*
Y16913D01*
X23682D01*
X23660Y16998D01*
X23614Y17078D01*
X23548Y17143D01*
X23469Y17189D01*
X23384Y17212D01*
D02*
G37*
G36*
X23284D02*
X23198Y17189D01*
X23119Y17143D01*
X23053Y17078D01*
X23007Y16998D01*
X22985Y16913D01*
X23284D01*
Y17212D01*
D02*
G37*
G36*
X21817D02*
Y16913D01*
X22116D01*
X22093Y16998D01*
X22047Y17078D01*
X21982Y17143D01*
X21902Y17189D01*
X21817Y17212D01*
D02*
G37*
G36*
X21717D02*
X21632Y17189D01*
X21552Y17143D01*
X21487Y17078D01*
X21441Y16998D01*
X21418Y16913D01*
X21717D01*
Y17212D01*
D02*
G37*
G36*
X20251D02*
Y16913D01*
X20549D01*
X20527Y16998D01*
X20481Y17078D01*
X20415Y17143D01*
X20336Y17189D01*
X20251Y17212D01*
D02*
G37*
G36*
X20151D02*
X20065Y17189D01*
X19986Y17143D01*
X19920Y17078D01*
X19874Y16998D01*
X19852Y16913D01*
X20151D01*
Y17212D01*
D02*
G37*
G36*
X25249Y16813D02*
X24950D01*
Y16514D01*
X25035Y16537D01*
X25115Y16583D01*
X25180Y16648D01*
X25226Y16728D01*
X25249Y16813D01*
D02*
G37*
G36*
X24850D02*
X24551D01*
X24574Y16728D01*
X24620Y16648D01*
X24685Y16583D01*
X24765Y16537D01*
X24850Y16514D01*
Y16813D01*
D02*
G37*
G36*
X23682D02*
X23384D01*
Y16514D01*
X23469Y16537D01*
X23548Y16583D01*
X23614Y16648D01*
X23660Y16728D01*
X23682Y16813D01*
D02*
G37*
G36*
X23284D02*
X22985D01*
X23007Y16728D01*
X23053Y16648D01*
X23119Y16583D01*
X23198Y16537D01*
X23284Y16514D01*
Y16813D01*
D02*
G37*
G36*
X22116D02*
X21817D01*
Y16514D01*
X21902Y16537D01*
X21982Y16583D01*
X22047Y16648D01*
X22093Y16728D01*
X22116Y16813D01*
D02*
G37*
G36*
X21717D02*
X21418D01*
X21441Y16728D01*
X21487Y16648D01*
X21552Y16583D01*
X21632Y16537D01*
X21717Y16514D01*
Y16813D01*
D02*
G37*
G36*
X20549D02*
X20251D01*
Y16514D01*
X20336Y16537D01*
X20415Y16583D01*
X20481Y16648D01*
X20527Y16728D01*
X20549Y16813D01*
D02*
G37*
G36*
X20151D02*
X19852D01*
X19874Y16728D01*
X19920Y16648D01*
X19986Y16583D01*
X20065Y16537D01*
X20151Y16514D01*
Y16813D01*
D02*
G37*
G36*
X25950Y15999D02*
Y15700D01*
X26249D01*
X26226Y15785D01*
X26180Y15865D01*
X26115Y15930D01*
X26035Y15976D01*
X25950Y15999D01*
D02*
G37*
G36*
X25850D02*
X25765Y15976D01*
X25685Y15930D01*
X25620Y15865D01*
X25574Y15785D01*
X25551Y15700D01*
X25850D01*
Y15999D01*
D02*
G37*
G36*
X24275D02*
Y15700D01*
X24574D01*
X24551Y15785D01*
X24505Y15865D01*
X24440Y15930D01*
X24360Y15976D01*
X24275Y15999D01*
D02*
G37*
G36*
X24175D02*
X24090Y15976D01*
X24010Y15930D01*
X23945Y15865D01*
X23899Y15785D01*
X23876Y15700D01*
X24175D01*
Y15999D01*
D02*
G37*
G36*
X22600D02*
Y15700D01*
X22899D01*
X22876Y15785D01*
X22830Y15865D01*
X22765Y15930D01*
X22685Y15976D01*
X22600Y15999D01*
D02*
G37*
G36*
X22500D02*
X22415Y15976D01*
X22335Y15930D01*
X22270Y15865D01*
X22224Y15785D01*
X22201Y15700D01*
X22500D01*
Y15999D01*
D02*
G37*
G36*
X20925D02*
Y15700D01*
X21224D01*
X21201Y15785D01*
X21155Y15865D01*
X21090Y15930D01*
X21010Y15976D01*
X20925Y15999D01*
D02*
G37*
G36*
X20825D02*
X20740Y15976D01*
X20660Y15930D01*
X20595Y15865D01*
X20549Y15785D01*
X20526Y15700D01*
X20825D01*
Y15999D01*
D02*
G37*
G36*
X19250D02*
Y15700D01*
X19549D01*
X19526Y15785D01*
X19480Y15865D01*
X19415Y15930D01*
X19335Y15976D01*
X19250Y15999D01*
D02*
G37*
G36*
X19150D02*
X19065Y15976D01*
X18985Y15930D01*
X18920Y15865D01*
X18874Y15785D01*
X18851Y15700D01*
X19150D01*
Y15999D01*
D02*
G37*
G36*
X26249Y15600D02*
X25950D01*
Y15301D01*
X26035Y15324D01*
X26115Y15370D01*
X26180Y15435D01*
X26226Y15515D01*
X26249Y15600D01*
D02*
G37*
G36*
X25850D02*
X25551D01*
X25574Y15515D01*
X25620Y15435D01*
X25685Y15370D01*
X25765Y15324D01*
X25850Y15301D01*
Y15600D01*
D02*
G37*
G36*
X24574D02*
X24275D01*
Y15301D01*
X24360Y15324D01*
X24440Y15370D01*
X24505Y15435D01*
X24551Y15515D01*
X24574Y15600D01*
D02*
G37*
G36*
X24175D02*
X23876D01*
X23899Y15515D01*
X23945Y15435D01*
X24010Y15370D01*
X24090Y15324D01*
X24175Y15301D01*
Y15600D01*
D02*
G37*
G36*
X22899D02*
X22600D01*
Y15301D01*
X22685Y15324D01*
X22765Y15370D01*
X22830Y15435D01*
X22876Y15515D01*
X22899Y15600D01*
D02*
G37*
G36*
X22500D02*
X22201D01*
X22224Y15515D01*
X22270Y15435D01*
X22335Y15370D01*
X22415Y15324D01*
X22500Y15301D01*
Y15600D01*
D02*
G37*
G36*
X21224D02*
X20925D01*
Y15301D01*
X21010Y15324D01*
X21090Y15370D01*
X21155Y15435D01*
X21201Y15515D01*
X21224Y15600D01*
D02*
G37*
G36*
X20825D02*
X20526D01*
X20549Y15515D01*
X20595Y15435D01*
X20660Y15370D01*
X20740Y15324D01*
X20825Y15301D01*
Y15600D01*
D02*
G37*
G36*
X19549D02*
X19250D01*
Y15301D01*
X19335Y15324D01*
X19415Y15370D01*
X19480Y15435D01*
X19526Y15515D01*
X19549Y15600D01*
D02*
G37*
G36*
X19150D02*
X18851D01*
X18874Y15515D01*
X18920Y15435D01*
X18985Y15370D01*
X19065Y15324D01*
X19150Y15301D01*
Y15600D01*
D02*
G37*
G36*
X32000Y15599D02*
Y15300D01*
X32299D01*
X32276Y15385D01*
X32230Y15465D01*
X32165Y15530D01*
X32085Y15576D01*
X32000Y15599D01*
D02*
G37*
G36*
X31900D02*
X31815Y15576D01*
X31735Y15530D01*
X31670Y15465D01*
X31624Y15385D01*
X31601Y15300D01*
X31900D01*
Y15599D01*
D02*
G37*
G36*
X34650Y15549D02*
Y15250D01*
X34949D01*
X34926Y15335D01*
X34880Y15415D01*
X34815Y15480D01*
X34735Y15526D01*
X34650Y15549D01*
D02*
G37*
G36*
X34550D02*
X34465Y15526D01*
X34385Y15480D01*
X34320Y15415D01*
X34274Y15335D01*
X34251Y15250D01*
X34550D01*
Y15549D01*
D02*
G37*
G36*
X32299Y15200D02*
X32000D01*
Y14901D01*
X32085Y14924D01*
X32165Y14970D01*
X32230Y15035D01*
X32276Y15115D01*
X32299Y15200D01*
D02*
G37*
G36*
X31900D02*
X31601D01*
X31624Y15115D01*
X31670Y15035D01*
X31735Y14970D01*
X31815Y14924D01*
X31900Y14901D01*
Y15200D01*
D02*
G37*
G36*
X34949Y15150D02*
X34650D01*
Y14851D01*
X34735Y14874D01*
X34815Y14920D01*
X34880Y14985D01*
X34926Y15065D01*
X34949Y15150D01*
D02*
G37*
G36*
X34550D02*
X34251D01*
X34274Y15065D01*
X34320Y14985D01*
X34385Y14920D01*
X34465Y14874D01*
X34550Y14851D01*
Y15150D01*
D02*
G37*
G36*
X34950Y13749D02*
Y13450D01*
X35249D01*
X35226Y13535D01*
X35180Y13615D01*
X35115Y13680D01*
X35035Y13726D01*
X34950Y13749D01*
D02*
G37*
G36*
X34850D02*
X34765Y13726D01*
X34685Y13680D01*
X34620Y13615D01*
X34574Y13535D01*
X34551Y13450D01*
X34850D01*
Y13749D01*
D02*
G37*
G36*
X33900D02*
Y13450D01*
X34199D01*
X34176Y13535D01*
X34130Y13615D01*
X34065Y13680D01*
X33985Y13726D01*
X33900Y13749D01*
D02*
G37*
G36*
X33800D02*
X33715Y13726D01*
X33635Y13680D01*
X33570Y13615D01*
X33524Y13535D01*
X33501Y13450D01*
X33800D01*
Y13749D01*
D02*
G37*
G36*
X32550D02*
Y13450D01*
X32849D01*
X32826Y13535D01*
X32780Y13615D01*
X32715Y13680D01*
X32635Y13726D01*
X32550Y13749D01*
D02*
G37*
G36*
X32450D02*
X32365Y13726D01*
X32285Y13680D01*
X32220Y13615D01*
X32174Y13535D01*
X32151Y13450D01*
X32450D01*
Y13749D01*
D02*
G37*
G36*
X35249Y13350D02*
X34950D01*
Y13051D01*
X35035Y13074D01*
X35115Y13120D01*
X35180Y13185D01*
X35226Y13265D01*
X35249Y13350D01*
D02*
G37*
G36*
X34850D02*
X34551D01*
X34574Y13265D01*
X34620Y13185D01*
X34685Y13120D01*
X34765Y13074D01*
X34850Y13051D01*
Y13350D01*
D02*
G37*
G36*
X34199D02*
X33900D01*
Y13051D01*
X33985Y13074D01*
X34065Y13120D01*
X34130Y13185D01*
X34176Y13265D01*
X34199Y13350D01*
D02*
G37*
G36*
X33800D02*
X33501D01*
X33524Y13265D01*
X33570Y13185D01*
X33635Y13120D01*
X33715Y13074D01*
X33800Y13051D01*
Y13350D01*
D02*
G37*
G36*
X32849D02*
X32550D01*
Y13051D01*
X32635Y13074D01*
X32715Y13120D01*
X32780Y13185D01*
X32826Y13265D01*
X32849Y13350D01*
D02*
G37*
G36*
X32450D02*
X32151D01*
X32174Y13265D01*
X32220Y13185D01*
X32285Y13120D01*
X32365Y13074D01*
X32450Y13051D01*
Y13350D01*
D02*
G37*
G36*
X33570Y12250D02*
X32830D01*
Y11150D01*
X32847D01*
X32850Y11135D01*
Y11000D01*
X32985D01*
X33000Y10997D01*
X33400D01*
X33415Y11000D01*
X33550D01*
Y11135D01*
X33553Y11150D01*
X33570D01*
Y12250D01*
D02*
G37*
G36*
X35311Y10449D02*
Y10150D01*
X35610D01*
X35587Y10235D01*
X35541Y10315D01*
X35476Y10380D01*
X35396Y10426D01*
X35311Y10449D01*
D02*
G37*
G36*
X35211D02*
X35126Y10426D01*
X35046Y10380D01*
X34981Y10315D01*
X34935Y10235D01*
X34912Y10150D01*
X35211D01*
Y10449D01*
D02*
G37*
G36*
X33650Y10249D02*
Y9950D01*
X33949D01*
X33926Y10035D01*
X33880Y10115D01*
X33815Y10180D01*
X33735Y10226D01*
X33650Y10249D01*
D02*
G37*
G36*
X33550D02*
X33465Y10226D01*
X33385Y10180D01*
X33320Y10115D01*
X33274Y10035D01*
X33251Y9950D01*
X33550D01*
Y10249D01*
D02*
G37*
G36*
X31950D02*
Y9950D01*
X32249D01*
X32226Y10035D01*
X32180Y10115D01*
X32115Y10180D01*
X32035Y10226D01*
X31950Y10249D01*
D02*
G37*
G36*
X31850D02*
X31765Y10226D01*
X31685Y10180D01*
X31620Y10115D01*
X31574Y10035D01*
X31551Y9950D01*
X31850D01*
Y10249D01*
D02*
G37*
G36*
X35610Y10050D02*
X35311D01*
Y9751D01*
X35396Y9774D01*
X35476Y9820D01*
X35541Y9885D01*
X35587Y9965D01*
X35610Y10050D01*
D02*
G37*
G36*
X35211D02*
X34912D01*
X34935Y9965D01*
X34981Y9885D01*
X35046Y9820D01*
X35126Y9774D01*
X35211Y9751D01*
Y10050D01*
D02*
G37*
G36*
X33949Y9850D02*
X33650D01*
Y9551D01*
X33735Y9574D01*
X33815Y9620D01*
X33880Y9685D01*
X33926Y9765D01*
X33949Y9850D01*
D02*
G37*
G36*
X33550D02*
X33251D01*
X33274Y9765D01*
X33320Y9685D01*
X33385Y9620D01*
X33465Y9574D01*
X33550Y9551D01*
Y9850D01*
D02*
G37*
G36*
X32249D02*
X31950D01*
Y9551D01*
X32035Y9574D01*
X32115Y9620D01*
X32180Y9685D01*
X32226Y9765D01*
X32249Y9850D01*
D02*
G37*
G36*
X31850D02*
X31551D01*
X31574Y9765D01*
X31620Y9685D01*
X31685Y9620D01*
X31765Y9574D01*
X31850Y9551D01*
Y9850D01*
D02*
G37*
G36*
X35311Y8699D02*
Y8400D01*
X35610D01*
X35587Y8485D01*
X35541Y8565D01*
X35476Y8630D01*
X35396Y8676D01*
X35311Y8699D01*
D02*
G37*
G36*
X35211D02*
X35126Y8676D01*
X35046Y8630D01*
X34981Y8565D01*
X34935Y8485D01*
X34912Y8400D01*
X35211D01*
Y8699D01*
D02*
G37*
G36*
X35610Y8300D02*
X35311D01*
Y8001D01*
X35396Y8024D01*
X35476Y8070D01*
X35541Y8135D01*
X35587Y8215D01*
X35610Y8300D01*
D02*
G37*
G36*
X35211D02*
X34912D01*
X34935Y8215D01*
X34981Y8135D01*
X35046Y8070D01*
X35126Y8024D01*
X35211Y8001D01*
Y8300D01*
D02*
G37*
G36*
X33250Y8597D02*
Y7950D01*
X33520D01*
Y8400D01*
X33484D01*
X33480Y8416D01*
X33440Y8484D01*
X33384Y8540D01*
X33316Y8580D01*
X33250Y8597D01*
D02*
G37*
G36*
X32250D02*
Y7950D01*
X32520D01*
Y8400D01*
X32484D01*
X32480Y8416D01*
X32440Y8484D01*
X32384Y8540D01*
X32316Y8580D01*
X32250Y8597D01*
D02*
G37*
G36*
X33150D02*
X33084Y8580D01*
X33016Y8540D01*
X32960Y8484D01*
X32920Y8416D01*
X32916Y8400D01*
X32880D01*
Y7950D01*
X33150D01*
Y8597D01*
D02*
G37*
G36*
X32150D02*
X32084Y8580D01*
X32016Y8540D01*
X31960Y8484D01*
X31920Y8416D01*
X31916Y8400D01*
X31880D01*
Y7950D01*
X32150D01*
Y8597D01*
D02*
G37*
G36*
X33520Y7850D02*
X33250D01*
Y7400D01*
X33520D01*
Y7850D01*
D02*
G37*
G36*
X33150D02*
X32880D01*
Y7400D01*
X33150D01*
Y7850D01*
D02*
G37*
G36*
X32520D02*
X32250D01*
Y7400D01*
X32520D01*
Y7850D01*
D02*
G37*
G36*
X32150D02*
X31880D01*
Y7400D01*
X32150D01*
Y7850D01*
D02*
G37*
G36*
X35311Y6999D02*
Y6700D01*
X35610D01*
X35587Y6785D01*
X35541Y6865D01*
X35476Y6930D01*
X35396Y6976D01*
X35311Y6999D01*
D02*
G37*
G36*
X35211D02*
X35126Y6976D01*
X35046Y6930D01*
X34981Y6865D01*
X34935Y6785D01*
X34912Y6700D01*
X35211D01*
Y6999D01*
D02*
G37*
G36*
X35610Y6600D02*
X35311D01*
Y6301D01*
X35396Y6324D01*
X35476Y6370D01*
X35541Y6435D01*
X35587Y6515D01*
X35610Y6600D01*
D02*
G37*
G36*
X35211D02*
X34912D01*
X34935Y6515D01*
X34981Y6435D01*
X35046Y6370D01*
X35126Y6324D01*
X35211Y6301D01*
Y6600D01*
D02*
G37*
G36*
X35311Y5274D02*
Y4976D01*
X35610D01*
X35587Y5061D01*
X35541Y5140D01*
X35476Y5206D01*
X35396Y5252D01*
X35311Y5274D01*
D02*
G37*
G36*
X35211D02*
X35126Y5252D01*
X35046Y5206D01*
X34981Y5140D01*
X34935Y5061D01*
X34912Y4976D01*
X35211D01*
Y5274D01*
D02*
G37*
G36*
X35610Y4876D02*
X35311D01*
Y4577D01*
X35396Y4599D01*
X35476Y4645D01*
X35541Y4711D01*
X35587Y4790D01*
X35610Y4876D01*
D02*
G37*
G36*
X35211D02*
X34912D01*
X34935Y4790D01*
X34981Y4711D01*
X35046Y4645D01*
X35126Y4599D01*
X35211Y4577D01*
Y4876D01*
D02*
G37*
G36*
X28100Y4749D02*
Y4450D01*
X28399D01*
X28376Y4535D01*
X28330Y4615D01*
X28265Y4680D01*
X28185Y4726D01*
X28100Y4749D01*
D02*
G37*
G36*
X28000D02*
X27915Y4726D01*
X27835Y4680D01*
X27770Y4615D01*
X27724Y4535D01*
X27701Y4450D01*
X28000D01*
Y4749D01*
D02*
G37*
G36*
X26500D02*
Y4450D01*
X26799D01*
X26776Y4535D01*
X26730Y4615D01*
X26665Y4680D01*
X26585Y4726D01*
X26500Y4749D01*
D02*
G37*
G36*
X26400D02*
X26315Y4726D01*
X26235Y4680D01*
X26170Y4615D01*
X26124Y4535D01*
X26101Y4450D01*
X26400D01*
Y4749D01*
D02*
G37*
G36*
X28399Y4350D02*
X28100D01*
Y4051D01*
X28185Y4074D01*
X28265Y4120D01*
X28330Y4185D01*
X28376Y4265D01*
X28399Y4350D01*
D02*
G37*
G36*
X28000D02*
X27701D01*
X27724Y4265D01*
X27770Y4185D01*
X27835Y4120D01*
X27915Y4074D01*
X28000Y4051D01*
Y4350D01*
D02*
G37*
G36*
X26799D02*
X26500D01*
Y4051D01*
X26585Y4074D01*
X26665Y4120D01*
X26730Y4185D01*
X26776Y4265D01*
X26799Y4350D01*
D02*
G37*
G36*
X26400D02*
X26101D01*
X26124Y4265D01*
X26170Y4185D01*
X26235Y4120D01*
X26315Y4074D01*
X26400Y4051D01*
Y4350D01*
D02*
G37*
G36*
X30800Y5030D02*
X30000D01*
Y3230D01*
X30125D01*
X30185Y3170D01*
X30265Y3124D01*
X30354Y3100D01*
X30446D01*
X30535Y3124D01*
X30615Y3170D01*
X30675Y3230D01*
X30800D01*
Y5030D01*
D02*
G37*
G36*
X29800D02*
X29000D01*
Y3230D01*
X29125D01*
X29185Y3170D01*
X29265Y3124D01*
X29354Y3100D01*
X29446D01*
X29535Y3124D01*
X29615Y3170D01*
X29675Y3230D01*
X29800D01*
Y5030D01*
D02*
G37*
G36*
X31800D02*
X31000D01*
Y3230D01*
X31050D01*
Y3100D01*
X31185D01*
X31200Y3097D01*
X31600D01*
X31615Y3100D01*
X31750D01*
Y3230D01*
X31800D01*
Y5030D01*
D02*
G37*
G36*
X35450Y3350D02*
X33900D01*
Y1800D01*
X35450D01*
Y3350D01*
D02*
G37*
G36*
X3350D02*
X1800D01*
Y1800D01*
X3350D01*
Y3350D01*
D02*
G37*
G36*
X19850Y2049D02*
Y1750D01*
X20149D01*
X20126Y1835D01*
X20080Y1915D01*
X20015Y1980D01*
X19935Y2026D01*
X19850Y2049D01*
D02*
G37*
G36*
X19750D02*
X19665Y2026D01*
X19585Y1980D01*
X19520Y1915D01*
X19474Y1835D01*
X19451Y1750D01*
X19750D01*
Y2049D01*
D02*
G37*
G36*
X25548Y1934D02*
Y1635D01*
X25847D01*
X25824Y1720D01*
X25778Y1799D01*
X25712Y1865D01*
X25633Y1911D01*
X25548Y1934D01*
D02*
G37*
G36*
X25448D02*
X25362Y1911D01*
X25283Y1865D01*
X25217Y1799D01*
X25171Y1720D01*
X25149Y1635D01*
X25448D01*
Y1934D01*
D02*
G37*
G36*
X20149Y1650D02*
X19850D01*
Y1351D01*
X19935Y1374D01*
X20015Y1420D01*
X20080Y1485D01*
X20126Y1565D01*
X20149Y1650D01*
D02*
G37*
G36*
X19750D02*
X19451D01*
X19474Y1565D01*
X19520Y1485D01*
X19585Y1420D01*
X19665Y1374D01*
X19750Y1351D01*
Y1650D01*
D02*
G37*
G36*
X25847Y1535D02*
X25548D01*
Y1236D01*
X25633Y1258D01*
X25712Y1304D01*
X25778Y1370D01*
X25824Y1449D01*
X25847Y1535D01*
D02*
G37*
G36*
X25448D02*
X25149D01*
X25171Y1449D01*
X25217Y1370D01*
X25283Y1304D01*
X25362Y1258D01*
X25448Y1236D01*
Y1535D01*
D02*
G37*
G36*
X30446Y2800D02*
X30354D01*
X30265Y2776D01*
X30185Y2730D01*
X30125Y2670D01*
X30000D01*
Y870D01*
X30800D01*
Y2670D01*
X30675D01*
X30615Y2730D01*
X30535Y2776D01*
X30446Y2800D01*
D02*
G37*
G36*
X29446D02*
X29354D01*
X29265Y2776D01*
X29185Y2730D01*
X29125Y2670D01*
X29000D01*
Y870D01*
X29800D01*
Y2670D01*
X29675D01*
X29615Y2730D01*
X29535Y2776D01*
X29446Y2800D01*
D02*
G37*
%LPD*%
G36*
X35846Y23432D02*
X35807Y23401D01*
X35791Y23404D01*
X32344D01*
X32320Y23446D01*
X32246Y23520D01*
X32154Y23573D01*
X32067Y23596D01*
X32074Y23646D01*
X35846D01*
Y23432D01*
D02*
G37*
D12*
X21209Y19250D02*
X25400D01*
X21150Y19309D02*
X21209Y19250D01*
X25400D02*
X31000Y13650D01*
X21150Y19309D02*
Y26550D01*
X23075Y20725D02*
Y28625D01*
Y20725D02*
X23100Y20700D01*
X23050Y28650D02*
X23075Y28625D01*
X30050Y22400D02*
Y24300D01*
X31100Y25350D01*
X31000Y11359D02*
Y13650D01*
X29500Y24205D02*
X30500Y25205D01*
X29500Y22950D02*
Y24205D01*
X30650Y22950D02*
Y24300D01*
X32258Y25908D01*
Y26400D01*
X21150Y26550D02*
X21500Y26900D01*
Y30641D01*
X31059Y11300D02*
X32200D01*
X31000Y11359D02*
X31059Y11300D01*
X20900Y31291D02*
X21109Y31500D01*
X25200D01*
X23550Y30050D02*
X24850D01*
X25300Y29600D01*
X29550Y25254D02*
X29553Y25257D01*
Y26553D02*
X29555Y26555D01*
X29553Y25257D02*
Y26553D01*
X30500Y25205D02*
Y26500D01*
X34000Y19950D02*
X35791D01*
X31200Y23850D02*
X35991D01*
X32000Y23200D02*
X35791D01*
Y19950D02*
X36050Y20209D01*
X35991Y23850D02*
X36050Y23791D01*
X35791Y23200D02*
X35850Y23141D01*
X36050Y20209D02*
Y23791D01*
X31100Y25350D02*
Y30050D01*
X34000Y20950D02*
X35791D01*
X23300Y30700D02*
X23400Y30600D01*
X25250D01*
X21559Y30700D02*
X23300D01*
X23550Y30050D02*
X23550Y30050D01*
X22159Y30050D02*
X23550D01*
X22100Y29991D02*
X22159Y30050D01*
X22100Y23850D02*
Y29991D01*
X35850Y21009D02*
Y23141D01*
X35791Y20950D02*
X35850Y21009D01*
X20900Y17950D02*
Y31291D01*
X21500Y30641D02*
X21559Y30700D01*
D44*
X30400Y4130D02*
D03*
X31400Y1770D02*
D03*
X30400D02*
D03*
X29400D02*
D03*
X31400Y4130D02*
D03*
X29400D02*
D03*
D45*
X35500Y1750D02*
D03*
X1750D02*
D03*
Y33750D02*
D03*
D48*
X27850Y31450D02*
D03*
X14750Y18300D02*
D03*
X30800Y31500D02*
D03*
X14750Y26950D02*
D03*
X9550Y29300D02*
D03*
D49*
X10450Y22400D02*
D03*
X18450Y3100D02*
D03*
D51*
X35500Y33750D02*
D03*
D52*
X34680Y21950D02*
D03*
Y17950D02*
D03*
Y18950D02*
D03*
Y19950D02*
D03*
Y20950D02*
D03*
X32320Y19950D02*
D03*
Y20950D02*
D03*
Y21950D02*
D03*
Y18950D02*
D03*
Y17950D02*
D03*
D53*
X28650Y32210D02*
D03*
X30110Y30770D02*
D03*
X29380D02*
D03*
X28650D02*
D03*
X30110Y31490D02*
D03*
X29380D02*
D03*
X28650D02*
D03*
X30110Y32210D02*
D03*
X29380D02*
D03*
D54*
X33200Y11700D02*
D03*
X32200D02*
D03*
Y7900D02*
D03*
X33200D02*
D03*
D61*
X12250Y28250D02*
D03*
Y17050D02*
D03*
Y19350D02*
D03*
Y25500D02*
D03*
D62*
X10750Y10100D02*
D03*
D63*
X29350Y29950D02*
D03*
Y33000D02*
D03*
D64*
X23900Y5800D02*
D03*
D65*
X19950Y14300D02*
D03*
D66*
X29050Y10150D02*
D03*
D67*
X6750Y8750D02*
D03*
D69*
X29600Y21950D02*
X33000D01*
X23800Y25850D02*
X25700D01*
X29600Y21950D01*
X23800Y21700D02*
Y25850D01*
X29380Y31490D02*
Y32210D01*
Y30770D02*
Y31490D01*
X30110D01*
X28650D02*
X29380D01*
D70*
X25500Y18450D02*
X30557Y13393D01*
X25500Y18450D02*
X25500D01*
X30557Y6393D02*
Y13393D01*
X28000Y20528D02*
Y22457D01*
X30557Y6393D02*
X30850Y6100D01*
X32357D02*
X32650Y5807D01*
X31400Y2450D02*
X32357D01*
X32650Y2743D02*
Y5807D01*
X32357Y2450D02*
X32650Y2743D01*
X30850Y6100D02*
X32357D01*
X12402Y20476D02*
X19877D01*
X12350Y20424D02*
X12402Y20476D01*
X19877D02*
X19929Y20528D01*
D92*
X1400Y30775D02*
D03*
D93*
X23768Y7300D02*
D03*
D94*
X19929Y20528D02*
D03*
X28000Y7300D02*
D03*
X26130D02*
D03*
X24850Y22457D02*
D03*
X28000Y20528D02*
D03*
Y22457D02*
D03*
D95*
X13149Y18062D02*
D03*
X7547Y20424D02*
D03*
X12350D02*
D03*
X7547Y15700D02*
D03*
X12350D02*
D03*
X13600Y4221D02*
D03*
Y13079D02*
D03*
X2060Y24250D02*
D03*
Y26250D02*
D03*
Y28250D02*
D03*
Y30250D02*
D03*
X2100Y18700D02*
D03*
Y16700D02*
D03*
X13199Y26912D02*
D03*
X7597Y29274D02*
D03*
X12400D02*
D03*
X7597Y24550D02*
D03*
X12400D02*
D03*
D96*
X2060Y22250D02*
D03*
X2100Y14700D02*
D03*
D97*
Y9200D02*
D03*
Y7200D02*
D03*
Y11200D02*
D03*
D98*
X2130Y5220D02*
D03*
D99*
X6800Y2000D02*
D03*
X8300D02*
D03*
D100*
X9800D02*
D03*
D101*
X23100Y20700D02*
D03*
X30050Y22400D02*
D03*
X19800Y1700D02*
D03*
X26450Y4400D02*
D03*
X28050D02*
D03*
X29500Y22950D02*
D03*
X30650D02*
D03*
X14900Y22150D02*
D03*
X20021Y18959D02*
D03*
X22100Y19900D02*
D03*
X26297Y21487D02*
D03*
X20350Y30850D02*
D03*
X21450Y32400D02*
D03*
X13550Y10400D02*
D03*
X27000Y10300D02*
D03*
X24400Y10350D02*
D03*
X21300Y10450D02*
D03*
X17750Y10400D02*
D03*
X12900Y2150D02*
D03*
X15700Y2050D02*
D03*
X17050Y4700D02*
D03*
X17800Y7400D02*
D03*
X21300Y7450D02*
D03*
X22100Y22250D02*
D03*
X32500Y13400D02*
D03*
X31900Y9900D02*
D03*
X33600D02*
D03*
X35261Y4926D02*
D03*
X16400Y18450D02*
D03*
X25498Y1585D02*
D03*
X35261Y6650D02*
D03*
X25200Y31500D02*
D03*
X25300Y29600D02*
D03*
X29555Y26555D02*
D03*
X29550Y25254D02*
D03*
X32000Y23200D02*
D03*
X31200Y23850D02*
D03*
X12150Y22850D02*
D03*
X25250Y30600D02*
D03*
X19200Y15650D02*
D03*
X31950Y15250D02*
D03*
X34600Y15200D02*
D03*
X33850Y13400D02*
D03*
X35261Y10100D02*
D03*
Y8350D02*
D03*
X30500Y26500D02*
D03*
X18550Y18450D02*
D03*
X21767Y16863D02*
D03*
X23334D02*
D03*
X24900D02*
D03*
X23900Y18100D02*
D03*
X20875Y15650D02*
D03*
X22550D02*
D03*
X24225D02*
D03*
X25900D02*
D03*
X25500Y18450D02*
D03*
X32258Y26400D02*
D03*
X35000Y27600D02*
D03*
Y26125D02*
D03*
Y24650D02*
D03*
X34850Y29850D02*
D03*
X31800Y33100D02*
D03*
X21500Y26900D02*
D03*
X22100Y23850D02*
D03*
X20900Y17950D02*
D03*
X20201Y16863D02*
D03*
X22271Y18132D02*
D03*
X21600Y33600D02*
D03*
X31100Y30050D02*
D03*
X31850Y31150D02*
D03*
X17450Y18450D02*
D03*
X34900Y13400D02*
D03*
X23050Y28650D02*
D03*
X20000Y27050D02*
D03*
X20010Y25839D02*
D03*
X26700Y26700D02*
D03*
X26350Y23150D02*
D03*
X23800Y25850D02*
D03*
Y21700D02*
D03*
X15450Y23950D02*
D03*
X16600D02*
D03*
X16800Y26250D02*
D03*
X14600Y31950D02*
D03*
X7200Y32900D02*
D03*
X9350Y32850D02*
D03*
X16900Y34050D02*
D03*
X14600D02*
D03*
X27933Y28838D02*
D03*
X29465Y28906D02*
D03*
X27950Y34000D02*
D03*
X30894Y33944D02*
D03*
X5050Y32900D02*
D03*
X29500Y34000D02*
D03*
D102*
X10650Y4600D02*
D03*
D103*
X6625Y2525D02*
D03*
D104*
X13525Y1925D02*
D03*
D105*
X8300Y1700D02*
D03*
D106*
X27000Y9925D02*
D03*
D107*
X13575Y5625D02*
D03*
D108*
X17000Y4600D02*
D03*
D109*
X20300Y7600D02*
D03*
D110*
X19950Y11550D02*
D03*
M02*
