G04*
G04 #@! TF.GenerationSoftware,Altium Limited,Altium Designer,21.0.8 (223)*
G04*
G04 Layer_Color=16711935*
%FSLAX24Y24*%
%MOIN*%
G70*
G04*
G04 #@! TF.SameCoordinates,97F8029C-931E-460D-85B7-1C51AEB28454*
G04*
G04*
G04 #@! TF.FilePolarity,Positive*
G04*
G01*
G75*
%ADD83C,0.0010*%
D83*
X29200Y6252D02*
Y13700D01*
Y6252D02*
X29600D01*
Y13700D01*
X29200D02*
X29600D01*
X18200Y924D02*
Y5550D01*
Y924D02*
X18600D01*
Y5550D01*
X18200D02*
X18600D01*
X11600Y14100D02*
Y14600D01*
Y14100D02*
X28550D01*
Y14600D01*
X11600D02*
X28550D01*
X8800Y13300D02*
Y16700D01*
Y13300D02*
X9200D01*
Y16700D01*
X8800D02*
X9200D01*
X27750Y30450D02*
Y32450D01*
Y30450D02*
X27950D01*
Y32450D01*
X27750D02*
X27950D01*
X28100Y29850D02*
Y30050D01*
Y29850D02*
X30600D01*
Y30050D01*
X28100D02*
X30600D01*
X30700Y30500D02*
Y32500D01*
Y30500D02*
X30900D01*
Y32500D01*
X30700D02*
X30900D01*
X28100Y32900D02*
Y33100D01*
Y32900D02*
X30600D01*
Y33100D01*
X28100D02*
X30600D01*
X6900Y6100D02*
Y6500D01*
Y6100D02*
X10800D01*
Y6500D01*
X6900D02*
X10800D01*
Y7000D02*
Y13000D01*
Y7000D02*
X11200D01*
Y13000D01*
X6550Y7000D02*
Y13000D01*
Y7000D02*
X6950D01*
Y13000D01*
X6550D02*
X6950D01*
X18900Y5600D02*
Y6000D01*
Y5600D02*
X28550D01*
Y6000D01*
X18900D02*
X28550D01*
X9500Y16850D02*
Y17250D01*
Y16850D02*
X14050D01*
Y17250D01*
X9500D02*
X14050D01*
X14350Y17400D02*
Y18950D01*
Y17400D02*
X14750D01*
Y18950D01*
X14350D02*
X14750D01*
X11100Y19150D02*
Y19550D01*
Y19150D02*
X14050D01*
Y19550D01*
X11100D02*
X14050D01*
X10250Y19300D02*
Y25450D01*
Y19300D02*
X10650D01*
Y25450D01*
X10250D02*
X10650D01*
X11100Y25800D02*
X14050D01*
X11100Y25400D02*
Y25800D01*
Y25400D02*
X14050D01*
Y25800D01*
X14350Y25950D02*
Y27850D01*
Y25950D02*
X14750D01*
Y27850D01*
X14350D02*
X14750D01*
X11100Y28050D02*
Y28450D01*
Y28050D02*
X14050D01*
Y28450D01*
X11100D02*
X14050D01*
X10250Y28100D02*
Y30600D01*
Y28100D02*
X10650D01*
Y30600D01*
X10250D02*
X10650D01*
X10800Y13700D02*
X11200D01*
Y7000D02*
Y13700D01*
X10900Y7000D02*
X11100D01*
X10800D02*
Y13700D01*
Y7000D02*
X10900D01*
X11100D02*
X11200D01*
X6900Y6100D02*
X10800D01*
X6900D02*
Y6500D01*
X10800Y6100D02*
Y6500D01*
X6900D02*
X10800D01*
X6850Y7000D02*
X6950D01*
X6550D02*
X6650D01*
X6550D02*
Y13000D01*
X6650Y7000D02*
X6850D01*
X6950D02*
Y13000D01*
X6550D02*
X6950D01*
X26000Y34900D02*
Y35500D01*
Y34900D02*
X33500Y34900D01*
Y35500D01*
X37250D01*
Y0D02*
Y35500D01*
X0Y0D02*
Y35500D01*
Y0D02*
Y50D01*
Y0D02*
X37250D01*
X0Y35500D02*
X26000D01*
M02*
