M48
;Layer_Color=9474304
;FILE_FORMAT=2:4
INCH,TZ
;TYPE=PLATED
T2F00S00C0.0280
T3F00S00C0.0300
T4F00S00C0.0400
T5F00S00C0.0450
T6F00S00C0.0450
T7F00S00C0.0500
T9F00S00C0.0550
T10F00S00C0.0551
T11F00S00C0.0600
T12F00S00C0.1500
%
T02
X22378Y1614
X22300Y4100
X34550Y6650
X34500Y8350
Y10100
X34900Y13400
X33850
X32650
X31950Y15250
X30962Y15564
X30165Y22292
X29716Y22691
X29800Y25000
X29750Y26550
X30500Y26500
X32258Y26400
X32000Y23850
Y23200
X35000Y24650
X34950Y26000
X34900Y27600
X34850Y29850
X31100Y30050
X29465Y28906
X27933Y28838
X25280Y29950
X23050Y28650
X21500Y26900
X20000Y27050
X20010Y25839
X17250Y26250
X16500
X16787Y23871
X15450Y23900
X18159Y24449
X22100Y23850
X23800Y25850
X24650Y26550
X25400Y25800
X26701Y24700
X23800Y21700
X23050Y20900
X22271Y18132
X20900Y17950
X21501Y16563
X23050Y16550
X24700
X26200
X25500Y15300
X23900
X22300
X20250
X18550Y18450
X17450
X16400
X23900Y18100
X25500Y18450
X27300Y18200
X28350Y17200
X27200Y15300
X9350Y32850
X6750Y32900
X5050
X14650Y31950
X15050Y34100
X16900Y34050
X21589Y32961
X25280Y31350
Y30700
X27950Y34000
X29500
X30894Y33944
X31800Y33100
X31850Y31150
T03
X28650Y30770
Y31490
Y32210
X29380
Y31490
Y30770
X30110
Y31490
Y32210
T04
X23768Y7300
X26130
X28000
X31500Y8300
X32500
Y11300
X31500
X31400Y3450
X30400
X29400
Y2450
X30400
X31400
X33000Y17950
X34000
Y18950
Y19950
Y20950
Y21950
X33000
Y20950
Y19950
Y18950
X28000Y20528
Y22457
X24850
X19929Y20528
T05
X9800Y2000
T06
X6800Y2000
X8300
T07
X13149Y18062
X13199Y26912
X12400Y24550
X12350Y20424
Y15700
X7547
Y20424
X7597Y24550
Y29274
X12400
T09
X2130Y5220
X2100Y7200
Y9200
Y11200
T10
X2100Y14700
Y16700
Y18700
X2060Y22250
Y24250
Y26250
Y28250
Y30250
T11
X13600Y4221
Y13079
T12
X1732Y1772
X35500Y1800
X1740Y33720
X35500Y33750
M30
