M48
;Layer_Color=9474304
;FILE_FORMAT=2:4
INCH,TZ
;TYPE=PLATED
T1F00S00C0.0100
T3F00S00C0.0280
T4F00S00C0.0400
T5F00S00C0.0470
T6F00S00C0.0470
T7F00S00C0.0510
T8F00S00C0.0551
T9F00S00C0.0600
T10F00S00C0.1650
%
T01
X28650Y32320
X29360Y32330
Y33040
X28650
Y33760
X29360
X30110Y33770
Y33040
Y32330
T03
X3650Y4860
Y5530
Y6250
Y6980
Y7650
X3600Y9290
Y9960
Y10680
Y11410
Y12080
Y12800
X17801Y14140
X23890Y14450
X26570Y14550
X21410Y4360
X22200Y3500
X33100Y5650
Y8900
Y12150
X33251Y14790
X31850Y14250
X30182Y14732
X37150Y11600
Y8350
Y5700
X36250Y19650
X35420Y24380
X34310Y24350
X33070
X33200Y26900
X31620Y27540
X30201Y27640
X29200Y27200
X31273Y26340
X30900Y25496
X30351Y23130
X31050Y16400
X31010Y15350
X29300Y15150
X29651Y16400
X29751Y30290
X34950Y28560
X37225Y27525
X36151Y26440
X37080Y29810
X26400Y27200
X27020Y25800
X27380Y24450
X28601Y24440
X26510Y20350
Y18460
X26550Y16590
X22900Y15750
X21451Y15940
X20350Y16590
Y18480
X20330Y20390
X23870Y20330
X23860Y18440
X22230Y24650
X20320Y24410
X18741Y24390
X19830Y26640
X19740Y29010
X19590Y30570
X23740Y30040
X23021Y29319
X23250Y28080
X22220Y26910
X18626Y15815
X9030Y15180
X5720Y15220
X3710
X3450Y17650
X6130Y17750
X8110
X10090
X9220Y20410
X5220Y20450
X3510Y20430
X3350Y23460
X4650Y22850
X6280Y23390
X5730Y26170
X7720
X9880Y26140
X11260Y27030
X6220Y28140
X4930Y28150
X3600Y28160
Y26150
X5700Y32400
X16001Y34890
X17251Y34940
X19050Y36310
X20160Y36240
X19600Y37670
X22270Y38090
X23530Y37470
X24730Y38200
X24950Y36960
X22801Y34540
X21010Y34550
X21501Y32240
X21451Y30990
X24041Y31460
X23710Y32930
X19651Y32340
X27960Y35330
X32010Y33880
X35070Y34220
X35130Y32730
X36810Y32600
X36880Y34270
X34890Y30710
X30730Y30960
T04
X23768Y7000
X28000
X29850Y3400
X30850
X31850
Y2400
X30850
X29850
X34500Y7300
X35500
Y10300
X34500
X34050Y17650
X33050
Y18650
Y19650
Y20650
Y21650
X34050
Y20650
Y19650
Y18650
X28000Y22157
X24850
T05
X9850Y2050
T06
X6850Y2050
X8350
T07
X13199Y17762
X13249Y26612
X12450Y24250
X12400Y20124
Y15400
X7597
Y20124
X7647Y24250
Y28974
X12450
T08
X2080Y5370
X2050Y7350
Y9350
Y11350
X2000Y15850
Y17850
Y19850
X1960Y24250
Y26250
Y28250
Y30250
Y32250
T09
X14650Y3071
Y11929
T10
X2000Y1960
X36000Y2000
X2000Y36900
X36000
M30
