M48
;Layer_Color=9474304
;FILE_FORMAT=2:4
INCH,TZ
;TYPE=PLATED
T2F00S00C0.0200
%
G90
G05
T02
G00X6250Y4500
M15
G01Y13300
M16
G00X12200Y10600
M15
G01Y13400
M16
G00X11050Y13000
M15
G01Y16300
M16
G00X24500Y13600
M15
G01X12700
M16
G00X14650Y16550
M15
G01X11350
M16
G00X14550Y17050
M15
G01Y18850
M16
G00X14650Y24950
M15
G01Y28250
M16
G00X9950Y28250
M15
G01X13850
M16
G00X9150Y27300
M15
G01Y30600
M16
G00X9300Y25100
M15
G01X13200
M16
G00X9300Y22700
M15
G01X13200
M16
G00X14350Y19200
M15
G01X11050
M16
M17
M30
