M48
;Layer_Color=9474304
;FILE_FORMAT=2:4
INCH,TZ
;TYPE=PLATED
T1F00S00C0.0200
T8F00S00C0.0500
%
G90
G05
T01
G00X28200Y29900
M15
G01X30500
M16
G00X27750Y32800
M15
G01Y30000
M16
G00X30800Y32300
M15
G01Y30500
M16
G00X28200Y33100
M15
G01X30500
M16
T08
G00X6750Y7450
M15
G01Y9950
M16
G00X10800Y6400
M15
G01Y13900
M16
G00X28200Y14300
M15
G01X11700
M16
G00X29000Y6400
M15
G01Y13900
M16
G00X14350Y17550
M15
G01Y19050
M16
G00X14750Y26200
M15
G01Y27700
M16
G00X10400Y28250
M15
G01X13900
M16
G00X10200Y25500
M15
G01X13700
M16
G00X10400Y20700
M15
G01Y24200
M16
G00X13100Y19350
M15
G01X10600
M16
G00X13100Y17100
M15
G01X10600
M16
G00X9550Y28550
M15
G01Y30050
M16
M17
M30
