G04*
G04 #@! TF.GenerationSoftware,Altium Limited,Altium Designer,21.0.8 (223)*
G04*
G04 Layer_Color=255*
%FSLAX24Y24*%
%MOIN*%
G70*
G04*
G04 #@! TF.SameCoordinates,97F8029C-931E-460D-85B7-1C51AEB28454*
G04*
G04*
G04 #@! TF.FilePolarity,Positive*
G04*
G01*
G75*
%ADD60C,0.1000*%
%ADD61C,0.0800*%
%ADD62R,0.0800X0.0800*%
%ADD63R,0.3000X0.3000*%
%ADD64R,0.2750X0.2750*%
%ADD65R,0.0800X0.0800*%
%ADD66R,0.0600X0.0600*%
%ADD67C,0.0600*%
%ADD68R,0.1000X0.1000*%
%ADD69C,0.1181*%
%ADD70R,0.1181X0.1181*%
%ADD71C,0.0900*%
%ADD72R,0.0900X0.0900*%
D60*
X12350Y15700D02*
D03*
X7547D02*
D03*
X12350Y20424D02*
D03*
X7547D02*
D03*
X13149Y18062D02*
D03*
X13600Y4221D02*
D03*
Y13079D02*
D03*
X2060Y24250D02*
D03*
Y26250D02*
D03*
Y28250D02*
D03*
Y30250D02*
D03*
X2100Y16700D02*
D03*
Y18700D02*
D03*
X13199Y26912D02*
D03*
X7597Y29274D02*
D03*
X12400D02*
D03*
X7597Y24550D02*
D03*
X12400D02*
D03*
D61*
X28000Y22457D02*
D03*
Y7300D02*
D03*
X24850Y22457D02*
D03*
X26130Y7300D02*
D03*
X19929Y20528D02*
D03*
X28000D02*
D03*
X31400Y2400D02*
D03*
X30400Y3400D02*
D03*
Y2400D02*
D03*
X29400Y3400D02*
D03*
Y2400D02*
D03*
X34000Y17950D02*
D03*
X33000D02*
D03*
X34000Y18950D02*
D03*
X33000D02*
D03*
X34000Y19950D02*
D03*
X33000D02*
D03*
X34000Y20950D02*
D03*
X33000D02*
D03*
X34000Y21950D02*
D03*
D62*
X23768Y7300D02*
D03*
X31400Y3400D02*
D03*
D63*
X35500Y1750D02*
D03*
X1750D02*
D03*
Y33750D02*
D03*
D64*
X35500D02*
D03*
D65*
X33000Y21950D02*
D03*
D66*
X29380Y32210D02*
D03*
X30110D02*
D03*
X28650Y31490D02*
D03*
X29380D02*
D03*
X30110D02*
D03*
X28650Y30770D02*
D03*
X29380D02*
D03*
X30110D02*
D03*
X28650Y32210D02*
D03*
D67*
X33200Y8300D02*
D03*
X32200D02*
D03*
Y11300D02*
D03*
X33200D02*
D03*
D68*
X2060Y22250D02*
D03*
X2100Y14700D02*
D03*
D69*
Y9200D02*
D03*
Y7200D02*
D03*
Y11200D02*
D03*
D70*
X2130Y5220D02*
D03*
D71*
X6800Y2000D02*
D03*
X8300D02*
D03*
D72*
X9800D02*
D03*
M02*
