G04*
G04 #@! TF.GenerationSoftware,Altium Limited,Altium Designer,21.0.8 (223)*
G04*
G04 Layer_Color=65535*
%FSLAX24Y24*%
%MOIN*%
G70*
G04*
G04 #@! TF.SameCoordinates,97F8029C-931E-460D-85B7-1C51AEB28454*
G04*
G04*
G04 #@! TF.FilePolarity,Positive*
G04*
G01*
G75*
%ADD10C,0.0098*%
%ADD11C,0.0100*%
%ADD12C,0.0079*%
%ADD13C,0.0079*%
%ADD14C,0.0050*%
%ADD15C,0.0039*%
%ADD16C,0.0005*%
%ADD17C,0.0119*%
%ADD18C,0.0030*%
G36*
X35507Y15015D02*
X35617D01*
Y15007D01*
X35685D01*
Y14998D01*
X35736D01*
Y14990D01*
X35786D01*
Y14981D01*
X35820D01*
Y14973D01*
X35846D01*
Y14964D01*
X35880D01*
Y14956D01*
X35905D01*
Y14948D01*
X35922D01*
Y14939D01*
X35914D01*
Y14931D01*
X35905D01*
Y14922D01*
X35897D01*
Y14914D01*
X35888D01*
Y14905D01*
X35871D01*
Y14914D01*
X35837D01*
Y14922D01*
X35803D01*
Y14931D01*
X35770D01*
Y14939D01*
X35736D01*
Y14948D01*
X35693D01*
Y14956D01*
X35642D01*
Y14964D01*
X35558D01*
Y14973D01*
X35303D01*
Y14964D01*
X35227D01*
Y14956D01*
X35176D01*
Y14948D01*
X35125D01*
Y14939D01*
X35092D01*
Y14931D01*
X35058D01*
Y14922D01*
X35024D01*
Y14914D01*
X34998D01*
Y14905D01*
X34964D01*
Y14897D01*
X34939D01*
Y14888D01*
X34914D01*
Y14880D01*
X34897D01*
Y14871D01*
X34871D01*
Y14863D01*
X34854D01*
Y14854D01*
X34829D01*
Y14846D01*
X34812D01*
Y14837D01*
X34795D01*
Y14829D01*
X34778D01*
Y14820D01*
X34761D01*
Y14812D01*
X34744D01*
Y14803D01*
X34727D01*
Y14795D01*
X34710D01*
Y14787D01*
X34693D01*
Y14778D01*
X34676D01*
Y14770D01*
X34659D01*
Y14761D01*
X34651D01*
Y14753D01*
X34634D01*
Y14744D01*
X34617D01*
Y14736D01*
X34608D01*
Y14727D01*
X34591D01*
Y14719D01*
X34583D01*
Y14710D01*
X34566D01*
Y14702D01*
X34558D01*
Y14693D01*
X34541D01*
Y14685D01*
X34532D01*
Y14676D01*
X34524D01*
Y14668D01*
X34515D01*
Y14659D01*
X34498D01*
Y14651D01*
X34490D01*
Y14642D01*
X34481D01*
Y14634D01*
X34464D01*
Y14626D01*
X34456D01*
Y14617D01*
X34447D01*
Y14609D01*
X34439D01*
Y14600D01*
X34430D01*
Y14592D01*
X34422D01*
Y14583D01*
X34405D01*
Y14575D01*
X34397D01*
Y14566D01*
X34388D01*
Y14558D01*
X34380D01*
Y14549D01*
X34371D01*
Y14541D01*
X34363D01*
Y14532D01*
X34354D01*
Y14524D01*
X34346D01*
Y14515D01*
X34337D01*
Y14507D01*
X34329D01*
Y14498D01*
X34320D01*
Y14490D01*
X34312D01*
Y14481D01*
X34303D01*
Y14473D01*
Y14464D01*
X34295D01*
Y14456D01*
X34286D01*
Y14448D01*
X34278D01*
Y14439D01*
X34269D01*
Y14431D01*
X34261D01*
Y14422D01*
X34252D01*
Y14414D01*
Y14405D01*
X34244D01*
Y14397D01*
X34236D01*
Y14388D01*
X34227D01*
Y14380D01*
X34219D01*
Y14371D01*
Y14363D01*
X34210D01*
Y14354D01*
X34202D01*
Y14346D01*
X34193D01*
Y14337D01*
Y14329D01*
X34185D01*
Y14320D01*
X34176D01*
Y14312D01*
Y14303D01*
X34168D01*
Y14295D01*
X34159D01*
Y14287D01*
Y14278D01*
X34151D01*
Y14270D01*
X34142D01*
Y14261D01*
Y14253D01*
X34134D01*
Y14244D01*
Y14236D01*
X34125D01*
Y14227D01*
X34117D01*
Y14219D01*
Y14210D01*
X34108D01*
Y14202D01*
Y14193D01*
X34100D01*
Y14185D01*
X34091D01*
Y14176D01*
Y14168D01*
X34083D01*
Y14159D01*
Y14151D01*
X34074D01*
Y14142D01*
Y14134D01*
X34066D01*
Y14125D01*
Y14117D01*
X34058D01*
Y14109D01*
Y14100D01*
X34049D01*
Y14092D01*
Y14083D01*
X34041D01*
Y14075D01*
Y14066D01*
Y14058D01*
X34032D01*
Y14049D01*
Y14041D01*
X34024D01*
Y14032D01*
Y14024D01*
Y14015D01*
X34015D01*
Y14007D01*
Y13998D01*
X34007D01*
Y13990D01*
Y13981D01*
Y13973D01*
X33998D01*
Y13964D01*
Y13956D01*
Y13947D01*
X33990D01*
Y13939D01*
Y13931D01*
Y13922D01*
X33981D01*
Y13914D01*
Y13905D01*
Y13897D01*
X33973D01*
Y13888D01*
Y13880D01*
Y13871D01*
Y13863D01*
X33964D01*
Y13854D01*
Y13846D01*
Y13837D01*
X33956D01*
Y13829D01*
Y13820D01*
Y13812D01*
Y13803D01*
X33947D01*
Y13795D01*
Y13786D01*
Y13778D01*
Y13770D01*
Y13761D01*
X33939D01*
Y13753D01*
Y13744D01*
Y13736D01*
Y13727D01*
Y13719D01*
X33930D01*
Y13710D01*
Y13702D01*
Y13693D01*
Y13685D01*
Y13676D01*
Y13668D01*
X33922D01*
Y13659D01*
Y13651D01*
Y13642D01*
Y13634D01*
Y13625D01*
Y13617D01*
Y13608D01*
Y13600D01*
Y13592D01*
X33913D01*
Y13583D01*
Y13575D01*
Y13566D01*
Y13558D01*
Y13549D01*
Y13541D01*
Y13532D01*
Y13524D01*
Y13515D01*
Y13507D01*
Y13498D01*
Y13490D01*
Y13481D01*
Y13473D01*
Y13464D01*
Y13456D01*
Y13447D01*
Y13439D01*
Y13431D01*
Y13422D01*
Y13414D01*
Y13405D01*
Y13397D01*
Y13388D01*
Y13380D01*
Y13371D01*
Y13363D01*
Y13354D01*
Y13346D01*
Y13337D01*
Y13329D01*
X33922D01*
Y13320D01*
Y13312D01*
Y13303D01*
Y13295D01*
Y13286D01*
Y13278D01*
Y13269D01*
Y13261D01*
Y13253D01*
Y13244D01*
X33930D01*
Y13236D01*
Y13227D01*
Y13219D01*
Y13210D01*
Y13202D01*
Y13193D01*
X33939D01*
Y13185D01*
Y13176D01*
Y13168D01*
Y13159D01*
Y13151D01*
X33947D01*
Y13142D01*
Y13134D01*
Y13125D01*
Y13117D01*
X33956D01*
Y13108D01*
Y13100D01*
Y13092D01*
Y13083D01*
Y13075D01*
X33964D01*
Y13066D01*
Y13058D01*
Y13049D01*
X33973D01*
Y13041D01*
Y13032D01*
Y13024D01*
Y13015D01*
X33981D01*
Y13007D01*
Y12998D01*
Y12990D01*
X33990D01*
Y12981D01*
Y12973D01*
Y12964D01*
X33998D01*
Y12956D01*
Y12947D01*
Y12939D01*
X34007D01*
Y12931D01*
Y12922D01*
Y12914D01*
X34015D01*
Y12905D01*
Y12897D01*
X34024D01*
Y12888D01*
Y12880D01*
Y12871D01*
X34032D01*
Y12863D01*
Y12854D01*
X34041D01*
Y12846D01*
Y12837D01*
X34049D01*
Y12829D01*
Y12820D01*
X34058D01*
Y12812D01*
Y12803D01*
X34066D01*
Y12795D01*
Y12786D01*
X34074D01*
Y12778D01*
Y12769D01*
Y12761D01*
X34083D01*
Y12753D01*
X34091D01*
Y12744D01*
Y12736D01*
X34100D01*
Y12727D01*
Y12719D01*
X34108D01*
Y12710D01*
Y12702D01*
X34117D01*
Y12693D01*
Y12685D01*
X34125D01*
Y12676D01*
X34134D01*
Y12668D01*
Y12659D01*
X34142D01*
Y12651D01*
Y12642D01*
X34151D01*
Y12634D01*
X34159D01*
Y12625D01*
Y12617D01*
X34168D01*
Y12608D01*
X34176D01*
Y12600D01*
X34185D01*
Y12592D01*
Y12583D01*
X34193D01*
Y12575D01*
X34202D01*
Y12566D01*
Y12558D01*
X34210D01*
Y12549D01*
X34219D01*
Y12541D01*
Y12532D01*
X34227D01*
Y12524D01*
X34236D01*
Y12515D01*
X34244D01*
Y12507D01*
X34252D01*
Y12498D01*
Y12490D01*
X34261D01*
Y12481D01*
X34269D01*
Y12473D01*
X34278D01*
Y12464D01*
X34286D01*
Y12456D01*
X34295D01*
Y12447D01*
X34303D01*
Y12439D01*
X34312D01*
Y12430D01*
Y12422D01*
X34329D01*
Y12414D01*
Y12405D01*
X34337D01*
Y12397D01*
X34354D01*
Y12388D01*
Y12380D01*
X34363D01*
Y12371D01*
X34371D01*
Y12363D01*
X34380D01*
Y12354D01*
X34397D01*
Y12346D01*
X34405D01*
Y12337D01*
X34413D01*
Y12329D01*
X34422D01*
Y12320D01*
X34430D01*
Y12312D01*
X34439D01*
Y12303D01*
X34447D01*
Y12295D01*
X34456D01*
Y12286D01*
X34473D01*
Y12278D01*
X34481D01*
Y12269D01*
X34490D01*
Y12261D01*
X34498D01*
Y12253D01*
X34515D01*
Y12244D01*
X34524D01*
Y12236D01*
X34532D01*
Y12227D01*
X34549D01*
Y12219D01*
X34558D01*
Y12210D01*
X34575D01*
Y12202D01*
X34583D01*
Y12193D01*
X34600D01*
Y12185D01*
X34608D01*
Y12176D01*
X34625D01*
Y12168D01*
X34634D01*
Y12159D01*
X34651D01*
Y12151D01*
X34668D01*
Y12142D01*
X34676D01*
Y12134D01*
X34693D01*
Y12125D01*
X34710D01*
Y12117D01*
X34727D01*
Y12108D01*
X34744D01*
Y12100D01*
X34761D01*
Y12091D01*
X34778D01*
Y12083D01*
X34795D01*
Y12075D01*
X34812D01*
Y12066D01*
X34829D01*
Y12058D01*
X34854D01*
Y12049D01*
X34880D01*
Y12041D01*
X34897D01*
Y12032D01*
X34922D01*
Y12024D01*
X34947D01*
Y12015D01*
X34973D01*
Y12007D01*
X34998D01*
Y11998D01*
X35032D01*
Y11990D01*
X35058D01*
Y11981D01*
X35100D01*
Y11973D01*
X35134D01*
Y11964D01*
X35185D01*
Y11956D01*
X35236D01*
Y11947D01*
X35329D01*
Y11939D01*
X35532D01*
Y11947D01*
X35625D01*
Y11956D01*
X35676D01*
Y11964D01*
X35727D01*
Y11973D01*
X35770D01*
Y11981D01*
X35803D01*
Y11990D01*
X35829D01*
Y11998D01*
X35863D01*
Y12007D01*
X35888D01*
Y12015D01*
X35922D01*
Y12024D01*
X35939D01*
Y12032D01*
X35964D01*
Y12041D01*
X35990D01*
Y12049D01*
X36007D01*
Y12058D01*
X36032D01*
Y12066D01*
X36049D01*
Y12075D01*
X36066D01*
Y12083D01*
X36092D01*
Y12091D01*
X36100D01*
Y12100D01*
X36117D01*
Y12108D01*
X36134D01*
Y12117D01*
X36151D01*
Y12125D01*
X36168D01*
Y12134D01*
X36185D01*
Y12142D01*
X36202D01*
Y12151D01*
X36210D01*
Y12159D01*
X36227D01*
Y12168D01*
X36244D01*
Y12176D01*
X36253D01*
Y12185D01*
X36270D01*
Y12193D01*
X36278D01*
Y12202D01*
X36295D01*
Y12210D01*
X36303D01*
Y12219D01*
X36320D01*
Y12227D01*
X36329D01*
Y12236D01*
X36337D01*
Y12244D01*
X36354D01*
Y12253D01*
X36363D01*
Y12261D01*
X36371D01*
Y12269D01*
X36380D01*
Y12278D01*
X36397D01*
Y12286D01*
X36405D01*
Y12295D01*
X36414D01*
Y12303D01*
X36422D01*
Y12312D01*
X36431D01*
Y12320D01*
X36448D01*
Y12329D01*
X36456D01*
Y12337D01*
X36464D01*
Y12346D01*
X36473D01*
Y12354D01*
X36481D01*
Y12363D01*
X36490D01*
Y12371D01*
X36498D01*
Y12380D01*
X36507D01*
Y12388D01*
X36515D01*
Y12397D01*
X36524D01*
Y12405D01*
X36532D01*
Y12414D01*
X36541D01*
Y12422D01*
X36549D01*
Y12430D01*
X36558D01*
Y12439D01*
X36566D01*
Y12447D01*
X36575D01*
Y12456D01*
X36583D01*
Y12464D01*
Y12473D01*
X36592D01*
Y12481D01*
X36600D01*
Y12490D01*
X36609D01*
Y12498D01*
X36617D01*
Y12507D01*
Y12515D01*
X36625D01*
Y12524D01*
X36634D01*
Y12532D01*
X36642D01*
Y12541D01*
X36651D01*
Y12549D01*
Y12558D01*
X36659D01*
Y12566D01*
X36668D01*
Y12575D01*
X36676D01*
Y12583D01*
Y12592D01*
X36685D01*
Y12600D01*
X36693D01*
Y12608D01*
Y12617D01*
X36702D01*
Y12625D01*
X36710D01*
Y12634D01*
Y12642D01*
X36719D01*
Y12651D01*
X36727D01*
Y12659D01*
Y12668D01*
X36736D01*
Y12676D01*
Y12685D01*
X36744D01*
Y12693D01*
X36753D01*
Y12702D01*
Y12710D01*
X36761D01*
Y12719D01*
Y12727D01*
X36770D01*
Y12736D01*
Y12744D01*
X36778D01*
Y12753D01*
Y12761D01*
X36786D01*
Y12769D01*
Y12778D01*
X36795D01*
Y12786D01*
Y12795D01*
X36803D01*
Y12803D01*
Y12812D01*
X36812D01*
Y12820D01*
Y12829D01*
X36820D01*
Y12837D01*
Y12846D01*
X36829D01*
Y12854D01*
Y12863D01*
Y12871D01*
X36837D01*
Y12880D01*
Y12888D01*
X36846D01*
Y12897D01*
Y12905D01*
X36854D01*
Y12914D01*
Y12922D01*
Y12931D01*
X36863D01*
Y12939D01*
Y12947D01*
Y12956D01*
X36871D01*
Y12964D01*
Y12973D01*
Y12981D01*
X36880D01*
Y12990D01*
Y12998D01*
Y13007D01*
X36888D01*
Y13015D01*
Y13024D01*
Y13032D01*
X36897D01*
Y13041D01*
Y13049D01*
Y13058D01*
Y13066D01*
X36905D01*
Y13075D01*
Y13083D01*
Y13092D01*
Y13100D01*
X36914D01*
Y13108D01*
Y13117D01*
Y13125D01*
Y13134D01*
X36922D01*
Y13142D01*
Y13151D01*
Y13159D01*
Y13168D01*
Y13176D01*
X36931D01*
Y13185D01*
Y13193D01*
Y13202D01*
Y13210D01*
Y13219D01*
Y13227D01*
X36939D01*
Y13236D01*
Y13244D01*
Y13253D01*
Y13261D01*
Y13269D01*
Y13278D01*
Y13286D01*
Y13295D01*
Y13303D01*
X36948D01*
Y13312D01*
Y13320D01*
Y13329D01*
Y13337D01*
Y13346D01*
Y13354D01*
Y13363D01*
Y13371D01*
Y13380D01*
Y13388D01*
Y13397D01*
Y13405D01*
Y13414D01*
Y13422D01*
Y13431D01*
Y13439D01*
X36956D01*
Y13447D01*
Y13456D01*
Y13464D01*
X36948D01*
Y13473D01*
Y13481D01*
Y13490D01*
Y13498D01*
Y13507D01*
Y13515D01*
Y13524D01*
Y13532D01*
Y13541D01*
Y13549D01*
Y13558D01*
Y13566D01*
Y13575D01*
Y13583D01*
Y13592D01*
Y13600D01*
Y13608D01*
Y13617D01*
X36939D01*
Y13625D01*
Y13634D01*
Y13642D01*
Y13651D01*
Y13659D01*
Y13668D01*
Y13676D01*
Y13685D01*
X36931D01*
Y13693D01*
Y13702D01*
Y13710D01*
Y13719D01*
Y13727D01*
Y13736D01*
X36922D01*
Y13744D01*
Y13753D01*
Y13761D01*
Y13770D01*
Y13778D01*
X36914D01*
Y13786D01*
Y13795D01*
Y13803D01*
Y13812D01*
X36905D01*
Y13820D01*
Y13829D01*
Y13837D01*
Y13846D01*
X36897D01*
Y13854D01*
Y13863D01*
Y13871D01*
Y13880D01*
X36888D01*
Y13888D01*
Y13897D01*
Y13905D01*
X36880D01*
Y13914D01*
Y13922D01*
Y13931D01*
X36871D01*
Y13939D01*
Y13947D01*
Y13956D01*
X36863D01*
Y13964D01*
Y13973D01*
Y13981D01*
X36854D01*
Y13990D01*
Y13998D01*
Y14007D01*
X36846D01*
Y14015D01*
Y14024D01*
X36837D01*
Y14032D01*
Y14041D01*
Y14049D01*
X36829D01*
Y14058D01*
Y14066D01*
X36820D01*
Y14075D01*
Y14083D01*
X36812D01*
Y14092D01*
Y14100D01*
X36803D01*
Y14109D01*
Y14117D01*
Y14125D01*
X36795D01*
Y14134D01*
X36786D01*
Y14142D01*
Y14151D01*
X36778D01*
Y14159D01*
Y14168D01*
X36770D01*
Y14176D01*
Y14185D01*
X36761D01*
Y14193D01*
Y14202D01*
X36753D01*
Y14210D01*
Y14219D01*
X36744D01*
Y14227D01*
X36736D01*
Y14236D01*
Y14244D01*
X36727D01*
Y14253D01*
Y14261D01*
X36719D01*
Y14270D01*
X36710D01*
Y14278D01*
Y14287D01*
X36702D01*
Y14295D01*
X36693D01*
Y14303D01*
Y14312D01*
X36685D01*
Y14320D01*
X36676D01*
Y14329D01*
Y14337D01*
X36668D01*
Y14346D01*
X36659D01*
Y14354D01*
Y14363D01*
X36651D01*
Y14371D01*
X36642D01*
Y14380D01*
X36634D01*
Y14388D01*
X36625D01*
Y14397D01*
Y14405D01*
X36617D01*
Y14414D01*
X36609D01*
Y14422D01*
X36600D01*
Y14431D01*
X36592D01*
Y14439D01*
Y14448D01*
X36583D01*
Y14456D01*
X36575D01*
Y14464D01*
X36566D01*
Y14473D01*
X36558D01*
Y14481D01*
X36549D01*
Y14490D01*
X36541D01*
Y14498D01*
X36532D01*
Y14507D01*
X36524D01*
Y14515D01*
X36515D01*
Y14524D01*
X36507D01*
Y14532D01*
X36498D01*
Y14541D01*
X36490D01*
Y14549D01*
X36481D01*
Y14558D01*
X36473D01*
Y14566D01*
X36464D01*
Y14575D01*
X36456D01*
Y14583D01*
X36448D01*
Y14592D01*
X36439D01*
Y14600D01*
X36422D01*
Y14609D01*
X36414D01*
Y14617D01*
X36405D01*
Y14626D01*
X36397D01*
Y14634D01*
X36388D01*
Y14642D01*
X36371D01*
Y14651D01*
X36363D01*
Y14659D01*
X36354D01*
Y14668D01*
X36346D01*
Y14676D01*
X36337D01*
Y14685D01*
X36329D01*
Y14693D01*
Y14702D01*
Y14710D01*
Y14719D01*
Y14727D01*
Y14736D01*
Y14744D01*
X36337D01*
Y14736D01*
X36354D01*
Y14727D01*
X36363D01*
Y14719D01*
X36371D01*
Y14710D01*
X36388D01*
Y14702D01*
X36397D01*
Y14693D01*
X36405D01*
Y14685D01*
X36414D01*
Y14676D01*
X36431D01*
Y14668D01*
X36439D01*
Y14659D01*
X36448D01*
Y14651D01*
X36456D01*
Y14642D01*
X36464D01*
Y14634D01*
X36473D01*
Y14626D01*
X36490D01*
Y14617D01*
X36498D01*
Y14609D01*
X36507D01*
Y14600D01*
X36515D01*
Y14592D01*
X36524D01*
Y14583D01*
X36532D01*
Y14575D01*
X36541D01*
Y14566D01*
X36549D01*
Y14558D01*
X36558D01*
Y14549D01*
X36566D01*
Y14541D01*
X36575D01*
Y14532D01*
X36583D01*
Y14524D01*
X36592D01*
Y14515D01*
X36600D01*
Y14507D01*
X36609D01*
Y14498D01*
Y14490D01*
X36617D01*
Y14481D01*
X36625D01*
Y14473D01*
X36634D01*
Y14464D01*
X36642D01*
Y14456D01*
X36651D01*
Y14448D01*
X36659D01*
Y14439D01*
Y14431D01*
X36668D01*
Y14422D01*
X36676D01*
Y14414D01*
X36685D01*
Y14405D01*
X36693D01*
Y14397D01*
Y14388D01*
X36702D01*
Y14380D01*
X36710D01*
Y14371D01*
X36719D01*
Y14363D01*
Y14354D01*
X36727D01*
Y14346D01*
X36736D01*
Y14337D01*
Y14329D01*
X36744D01*
Y14320D01*
X36753D01*
Y14312D01*
Y14303D01*
X36761D01*
Y14295D01*
Y14287D01*
X36770D01*
Y14278D01*
X36778D01*
Y14270D01*
Y14261D01*
X36786D01*
Y14253D01*
X36795D01*
Y14244D01*
Y14236D01*
X36803D01*
Y14227D01*
Y14219D01*
X36812D01*
Y14210D01*
Y14202D01*
X36820D01*
Y14193D01*
Y14185D01*
X36829D01*
Y14176D01*
Y14168D01*
X36837D01*
Y14159D01*
Y14151D01*
X36846D01*
Y14142D01*
X36854D01*
Y14134D01*
Y14125D01*
Y14117D01*
X36863D01*
Y14109D01*
Y14100D01*
X36871D01*
Y14092D01*
Y14083D01*
X36880D01*
Y14075D01*
Y14066D01*
X36888D01*
Y14058D01*
Y14049D01*
Y14041D01*
X36897D01*
Y14032D01*
Y14024D01*
X36905D01*
Y14015D01*
Y14007D01*
Y13998D01*
X36914D01*
Y13990D01*
Y13981D01*
Y13973D01*
X36922D01*
Y13964D01*
Y13956D01*
Y13947D01*
X36931D01*
Y13939D01*
Y13931D01*
Y13922D01*
Y13914D01*
X36939D01*
Y13905D01*
Y13897D01*
Y13888D01*
X36948D01*
Y13880D01*
Y13871D01*
Y13863D01*
X36956D01*
Y13854D01*
Y13846D01*
Y13837D01*
Y13829D01*
Y13820D01*
X36964D01*
Y13812D01*
Y13803D01*
Y13795D01*
Y13786D01*
Y13778D01*
X36973D01*
Y13770D01*
Y13761D01*
Y13753D01*
Y13744D01*
Y13736D01*
X36981D01*
Y13727D01*
Y13719D01*
Y13710D01*
Y13702D01*
Y13693D01*
Y13685D01*
Y13676D01*
X36990D01*
Y13668D01*
Y13659D01*
Y13651D01*
Y13642D01*
Y13634D01*
Y13625D01*
Y13617D01*
Y13608D01*
Y13600D01*
Y13592D01*
X36998D01*
Y13583D01*
Y13575D01*
Y13566D01*
Y13558D01*
Y13549D01*
Y13541D01*
Y13532D01*
Y13524D01*
Y13515D01*
Y13507D01*
Y13498D01*
Y13490D01*
Y13481D01*
Y13473D01*
Y13464D01*
Y13456D01*
Y13447D01*
Y13439D01*
Y13431D01*
Y13422D01*
Y13414D01*
Y13405D01*
Y13397D01*
Y13388D01*
Y13380D01*
Y13371D01*
Y13363D01*
Y13354D01*
Y13346D01*
Y13337D01*
Y13329D01*
Y13320D01*
X36990D01*
Y13312D01*
Y13303D01*
Y13295D01*
Y13286D01*
Y13278D01*
Y13269D01*
Y13261D01*
Y13253D01*
Y13244D01*
Y13236D01*
X36981D01*
Y13227D01*
Y13219D01*
Y13210D01*
Y13202D01*
Y13193D01*
Y13185D01*
Y13176D01*
X36973D01*
Y13168D01*
Y13159D01*
Y13151D01*
Y13142D01*
Y13134D01*
X36964D01*
Y13125D01*
Y13117D01*
Y13108D01*
Y13100D01*
Y13092D01*
X36956D01*
Y13083D01*
Y13075D01*
Y13066D01*
Y13058D01*
X36948D01*
Y13049D01*
Y13041D01*
Y13032D01*
X36939D01*
Y13024D01*
Y13015D01*
Y13007D01*
Y12998D01*
Y12990D01*
X36931D01*
Y12981D01*
Y12973D01*
Y12964D01*
X36922D01*
Y12956D01*
Y12947D01*
Y12939D01*
X36914D01*
Y12931D01*
Y12922D01*
X36905D01*
Y12914D01*
Y12905D01*
Y12897D01*
X36897D01*
Y12888D01*
Y12880D01*
Y12871D01*
X36888D01*
Y12863D01*
Y12854D01*
X36880D01*
Y12846D01*
Y12837D01*
Y12829D01*
X36871D01*
Y12820D01*
Y12812D01*
X36863D01*
Y12803D01*
Y12795D01*
X36854D01*
Y12786D01*
Y12778D01*
X36846D01*
Y12769D01*
Y12761D01*
X36837D01*
Y12753D01*
Y12744D01*
X36829D01*
Y12736D01*
Y12727D01*
X36820D01*
Y12719D01*
Y12710D01*
X36812D01*
Y12702D01*
Y12693D01*
X36803D01*
Y12685D01*
Y12676D01*
X36795D01*
Y12668D01*
X36786D01*
Y12659D01*
Y12651D01*
X36778D01*
Y12642D01*
Y12634D01*
X36770D01*
Y12625D01*
X36761D01*
Y12617D01*
Y12608D01*
X36753D01*
Y12600D01*
Y12592D01*
X36744D01*
Y12583D01*
X36736D01*
Y12575D01*
X36727D01*
Y12566D01*
Y12558D01*
X36719D01*
Y12549D01*
X36710D01*
Y12541D01*
Y12532D01*
X36702D01*
Y12524D01*
X36693D01*
Y12515D01*
X36685D01*
Y12507D01*
Y12498D01*
X36676D01*
Y12490D01*
X36668D01*
Y12481D01*
X36659D01*
Y12473D01*
Y12464D01*
X36651D01*
Y12456D01*
X36642D01*
Y12447D01*
X36634D01*
Y12439D01*
X36625D01*
Y12430D01*
X36617D01*
Y12422D01*
X36609D01*
Y12414D01*
X36600D01*
Y12405D01*
X36592D01*
Y12397D01*
Y12388D01*
X36583D01*
Y12380D01*
X36575D01*
Y12371D01*
X36566D01*
Y12363D01*
X36558D01*
Y12354D01*
X36549D01*
Y12346D01*
X36541D01*
Y12337D01*
X36532D01*
Y12329D01*
X36524D01*
Y12320D01*
X36515D01*
Y12312D01*
X36507D01*
Y12303D01*
X36498D01*
Y12295D01*
X36481D01*
Y12286D01*
X36473D01*
Y12278D01*
X36464D01*
Y12269D01*
X36456D01*
Y12261D01*
X36448D01*
Y12253D01*
X36439D01*
Y12244D01*
X36422D01*
Y12236D01*
X36414D01*
Y12227D01*
X36405D01*
Y12219D01*
X36397D01*
Y12210D01*
X36380D01*
Y12202D01*
X36371D01*
Y12193D01*
X36363D01*
Y12185D01*
X36346D01*
Y12176D01*
X36337D01*
Y12168D01*
X36329D01*
Y12159D01*
X36312D01*
Y12151D01*
X36303D01*
Y12142D01*
X36286D01*
Y12134D01*
X36278D01*
Y12125D01*
X36261D01*
Y12117D01*
X36244D01*
Y12108D01*
X36236D01*
Y12100D01*
X36219D01*
Y12091D01*
X36202D01*
Y12083D01*
X36185D01*
Y12075D01*
X36168D01*
Y12066D01*
X36159D01*
Y12058D01*
X36142D01*
Y12049D01*
X36117D01*
Y12041D01*
X36100D01*
Y12032D01*
X36083D01*
Y12024D01*
X36066D01*
Y12015D01*
X36049D01*
Y12007D01*
X36024D01*
Y11998D01*
X36007D01*
Y11990D01*
X35981D01*
Y11981D01*
X35956D01*
Y11973D01*
X35931D01*
Y11964D01*
X35905D01*
Y11956D01*
X35880D01*
Y11947D01*
X35846D01*
Y11939D01*
X35812D01*
Y11930D01*
X35770D01*
Y11922D01*
X35727D01*
Y11913D01*
X35676D01*
Y11905D01*
X35600D01*
Y11897D01*
X35269D01*
Y11905D01*
X35193D01*
Y11913D01*
X35134D01*
Y11922D01*
X35092D01*
Y11930D01*
X35049D01*
Y11939D01*
X35015D01*
Y11947D01*
X34990D01*
Y11956D01*
X34964D01*
Y11964D01*
X34930D01*
Y11973D01*
X34905D01*
Y11981D01*
X34880D01*
Y11990D01*
X34863D01*
Y11998D01*
X34837D01*
Y12007D01*
X34820D01*
Y12015D01*
X34795D01*
Y12024D01*
X34778D01*
Y12032D01*
X34761D01*
Y12041D01*
X34744D01*
Y12049D01*
X34727D01*
Y12058D01*
X34710D01*
Y12066D01*
X34693D01*
Y12075D01*
X34676D01*
Y12083D01*
X34659D01*
Y12091D01*
X34642D01*
Y12100D01*
X34634D01*
Y12108D01*
X34617D01*
Y12117D01*
X34600D01*
Y12125D01*
X34591D01*
Y12134D01*
X34575D01*
Y12142D01*
X34566D01*
Y12151D01*
X34549D01*
Y12159D01*
X34541D01*
Y12168D01*
X34524D01*
Y12176D01*
X34515D01*
Y12185D01*
X34507D01*
Y12193D01*
X34490D01*
Y12202D01*
X34481D01*
Y12210D01*
X34473D01*
Y12219D01*
X34456D01*
Y12227D01*
X34447D01*
Y12236D01*
X34439D01*
Y12244D01*
X34430D01*
Y12253D01*
X34422D01*
Y12261D01*
X34405D01*
Y12269D01*
X34397D01*
Y12278D01*
X34388D01*
Y12286D01*
X34380D01*
Y12295D01*
X34371D01*
Y12303D01*
X34363D01*
Y12312D01*
X34354D01*
Y12320D01*
X34346D01*
Y12329D01*
X34337D01*
Y12337D01*
X34329D01*
Y12346D01*
X34320D01*
Y12354D01*
X34312D01*
Y12363D01*
X34303D01*
Y12371D01*
X34295D01*
Y12380D01*
X34286D01*
Y12388D01*
X34278D01*
Y12397D01*
X34269D01*
Y12405D01*
X34261D01*
Y12414D01*
X34252D01*
Y12422D01*
X34244D01*
Y12430D01*
X34236D01*
Y12439D01*
X34227D01*
Y12447D01*
X34219D01*
Y12456D01*
Y12464D01*
X34210D01*
Y12473D01*
X34202D01*
Y12481D01*
X34193D01*
Y12490D01*
X34185D01*
Y12498D01*
Y12507D01*
X34176D01*
Y12515D01*
X34168D01*
Y12524D01*
X34159D01*
Y12532D01*
Y12541D01*
X34151D01*
Y12549D01*
X34142D01*
Y12558D01*
X34134D01*
Y12566D01*
Y12575D01*
X34125D01*
Y12583D01*
Y12592D01*
X34117D01*
Y12600D01*
X34108D01*
Y12608D01*
Y12617D01*
X34100D01*
Y12625D01*
X34091D01*
Y12634D01*
Y12642D01*
X34083D01*
Y12651D01*
Y12659D01*
X34074D01*
Y12668D01*
X34066D01*
Y12676D01*
Y12685D01*
X34058D01*
Y12693D01*
Y12702D01*
X34049D01*
Y12710D01*
X34041D01*
Y12719D01*
Y12727D01*
X34032D01*
Y12736D01*
Y12744D01*
X34024D01*
Y12753D01*
Y12761D01*
X34015D01*
Y12769D01*
Y12778D01*
Y12786D01*
X34007D01*
Y12795D01*
Y12803D01*
X33998D01*
Y12812D01*
Y12820D01*
X33990D01*
Y12829D01*
Y12837D01*
X33981D01*
Y12846D01*
Y12854D01*
Y12863D01*
X33973D01*
Y12871D01*
Y12880D01*
X33964D01*
Y12888D01*
Y12897D01*
Y12905D01*
X33956D01*
Y12914D01*
Y12922D01*
Y12931D01*
X33947D01*
Y12939D01*
Y12947D01*
X33939D01*
Y12956D01*
Y12964D01*
Y12973D01*
Y12981D01*
X33930D01*
Y12990D01*
Y12998D01*
Y13007D01*
X33922D01*
Y13015D01*
Y13024D01*
Y13032D01*
X33913D01*
Y13041D01*
Y13049D01*
Y13058D01*
Y13066D01*
X33905D01*
Y13075D01*
Y13083D01*
Y13092D01*
Y13100D01*
X33897D01*
Y13108D01*
Y13117D01*
Y13125D01*
Y13134D01*
Y13142D01*
Y13151D01*
X33888D01*
Y13159D01*
Y13168D01*
Y13176D01*
Y13185D01*
Y13193D01*
X33880D01*
Y13202D01*
Y13210D01*
Y13219D01*
Y13227D01*
Y13236D01*
Y13244D01*
Y13253D01*
Y13261D01*
X33871D01*
Y13269D01*
Y13278D01*
Y13286D01*
Y13295D01*
Y13303D01*
Y13312D01*
Y13320D01*
Y13329D01*
Y13337D01*
Y13346D01*
Y13354D01*
Y13363D01*
X33863D01*
Y13371D01*
Y13380D01*
Y13388D01*
Y13397D01*
Y13405D01*
Y13414D01*
Y13422D01*
Y13431D01*
Y13439D01*
Y13447D01*
Y13456D01*
Y13464D01*
Y13473D01*
Y13481D01*
Y13490D01*
Y13498D01*
Y13507D01*
Y13515D01*
Y13524D01*
Y13532D01*
Y13541D01*
Y13549D01*
X33871D01*
Y13558D01*
Y13566D01*
Y13575D01*
Y13583D01*
Y13592D01*
Y13600D01*
Y13608D01*
Y13617D01*
Y13625D01*
Y13634D01*
Y13642D01*
Y13651D01*
Y13659D01*
X33880D01*
Y13668D01*
Y13676D01*
Y13685D01*
Y13693D01*
Y13702D01*
Y13710D01*
Y13719D01*
X33888D01*
Y13727D01*
Y13736D01*
Y13744D01*
Y13753D01*
Y13761D01*
X33897D01*
Y13770D01*
Y13778D01*
Y13786D01*
Y13795D01*
Y13803D01*
X33905D01*
Y13812D01*
Y13820D01*
Y13829D01*
Y13837D01*
Y13846D01*
X33913D01*
Y13854D01*
Y13863D01*
Y13871D01*
Y13880D01*
X33922D01*
Y13888D01*
Y13897D01*
Y13905D01*
Y13914D01*
X33930D01*
Y13922D01*
Y13931D01*
Y13939D01*
X33939D01*
Y13947D01*
Y13956D01*
Y13964D01*
X33947D01*
Y13973D01*
Y13981D01*
X33956D01*
Y13990D01*
Y13998D01*
Y14007D01*
X33964D01*
Y14015D01*
Y14024D01*
Y14032D01*
X33973D01*
Y14041D01*
Y14049D01*
X33981D01*
Y14058D01*
Y14066D01*
Y14075D01*
X33990D01*
Y14083D01*
Y14092D01*
X33998D01*
Y14100D01*
Y14109D01*
X34007D01*
Y14117D01*
Y14125D01*
Y14134D01*
X34015D01*
Y14142D01*
Y14151D01*
X34024D01*
Y14159D01*
Y14168D01*
X34032D01*
Y14176D01*
Y14185D01*
X34041D01*
Y14193D01*
Y14202D01*
X34049D01*
Y14210D01*
Y14219D01*
X34058D01*
Y14227D01*
X34066D01*
Y14236D01*
Y14244D01*
X34074D01*
Y14253D01*
Y14261D01*
X34083D01*
Y14270D01*
X34091D01*
Y14278D01*
Y14287D01*
X34100D01*
Y14295D01*
Y14303D01*
X34108D01*
Y14312D01*
X34117D01*
Y14320D01*
Y14329D01*
X34125D01*
Y14337D01*
X34134D01*
Y14346D01*
Y14354D01*
X34142D01*
Y14363D01*
X34151D01*
Y14371D01*
X34159D01*
Y14380D01*
Y14388D01*
X34168D01*
Y14397D01*
X34176D01*
Y14405D01*
X34185D01*
Y14414D01*
Y14422D01*
X34193D01*
Y14431D01*
X34202D01*
Y14439D01*
X34210D01*
Y14448D01*
X34219D01*
Y14456D01*
Y14464D01*
X34227D01*
Y14473D01*
X34236D01*
Y14481D01*
X34244D01*
Y14490D01*
X34252D01*
Y14498D01*
X34261D01*
Y14507D01*
X34269D01*
Y14515D01*
X34278D01*
Y14524D01*
X34286D01*
Y14532D01*
Y14541D01*
X34303D01*
Y14549D01*
X34312D01*
Y14558D01*
Y14566D01*
X34329D01*
Y14575D01*
X34337D01*
Y14583D01*
X34346D01*
Y14592D01*
X34354D01*
Y14600D01*
Y14609D01*
X34371D01*
Y14617D01*
X34380D01*
Y14626D01*
X34388D01*
Y14634D01*
X34397D01*
Y14642D01*
X34405D01*
Y14651D01*
X34413D01*
Y14659D01*
X34430D01*
Y14668D01*
X34439D01*
Y14676D01*
X34447D01*
Y14685D01*
X34456D01*
Y14693D01*
X34464D01*
Y14702D01*
X34481D01*
Y14710D01*
X34490D01*
Y14719D01*
X34498D01*
Y14727D01*
X34515D01*
Y14736D01*
X34524D01*
Y14744D01*
X34532D01*
Y14753D01*
X34549D01*
Y14761D01*
X34558D01*
Y14770D01*
X34575D01*
Y14778D01*
X34591D01*
Y14787D01*
X34600D01*
Y14795D01*
X34617D01*
Y14803D01*
X34634D01*
Y14812D01*
X34642D01*
Y14820D01*
X34659D01*
Y14829D01*
X34676D01*
Y14837D01*
X34693D01*
Y14846D01*
X34710D01*
Y14854D01*
X34719D01*
Y14863D01*
X34736D01*
Y14871D01*
X34761D01*
Y14880D01*
X34778D01*
Y14888D01*
X34795D01*
Y14897D01*
X34812D01*
Y14905D01*
X34829D01*
Y14914D01*
X34854D01*
Y14922D01*
X34880D01*
Y14931D01*
X34905D01*
Y14939D01*
X34930D01*
Y14948D01*
X34956D01*
Y14956D01*
X34981D01*
Y14964D01*
X35015D01*
Y14973D01*
X35049D01*
Y14981D01*
X35083D01*
Y14990D01*
X35125D01*
Y14998D01*
X35176D01*
Y15007D01*
X35253D01*
Y15015D01*
X35354D01*
Y15024D01*
X35507D01*
Y15015D01*
D02*
G37*
G36*
X36303Y15142D02*
Y15134D01*
Y15126D01*
Y15117D01*
Y15109D01*
Y15100D01*
Y15092D01*
Y15083D01*
Y15075D01*
Y15066D01*
Y15058D01*
X36295D01*
Y15049D01*
Y15041D01*
Y15032D01*
Y15024D01*
Y15015D01*
Y15007D01*
Y14998D01*
Y14990D01*
Y14981D01*
Y14973D01*
Y14964D01*
X36286D01*
Y14956D01*
Y14948D01*
Y14939D01*
Y14931D01*
Y14922D01*
Y14914D01*
Y14905D01*
Y14897D01*
X36278D01*
Y14888D01*
Y14880D01*
Y14871D01*
Y14863D01*
Y14854D01*
Y14846D01*
Y14837D01*
Y14829D01*
Y14820D01*
Y14812D01*
Y14803D01*
Y14795D01*
Y14787D01*
Y14778D01*
Y14770D01*
Y14761D01*
Y14753D01*
Y14744D01*
Y14736D01*
Y14727D01*
Y14719D01*
Y14710D01*
Y14702D01*
Y14693D01*
Y14685D01*
Y14676D01*
Y14668D01*
Y14659D01*
Y14651D01*
Y14642D01*
Y14634D01*
X36286D01*
Y14626D01*
Y14617D01*
Y14609D01*
Y14600D01*
Y14592D01*
Y14583D01*
Y14575D01*
X36295D01*
Y14566D01*
Y14558D01*
Y14549D01*
Y14541D01*
X36303D01*
Y14532D01*
Y14524D01*
Y14515D01*
Y14507D01*
X36312D01*
Y14498D01*
Y14490D01*
Y14481D01*
Y14473D01*
X36320D01*
Y14464D01*
Y14456D01*
Y14448D01*
X36329D01*
Y14439D01*
Y14431D01*
X36337D01*
Y14422D01*
Y14414D01*
Y14405D01*
X36303D01*
Y14397D01*
X36286D01*
Y14388D01*
X36270D01*
Y14380D01*
X36253D01*
Y14371D01*
X36236D01*
Y14363D01*
X36219D01*
Y14354D01*
X36202D01*
Y14346D01*
X36193D01*
Y14337D01*
X36176D01*
Y14329D01*
X36168D01*
Y14320D01*
X36151D01*
Y14312D01*
X36142D01*
Y14303D01*
X36134D01*
Y14295D01*
X36125D01*
Y14287D01*
X36109D01*
Y14278D01*
X36100D01*
Y14270D01*
X36092D01*
Y14261D01*
X36075D01*
Y14253D01*
X36066D01*
Y14244D01*
X36058D01*
Y14236D01*
X36049D01*
Y14227D01*
X36041D01*
Y14219D01*
X36024D01*
Y14210D01*
X36015D01*
Y14202D01*
X36007D01*
Y14193D01*
X35998D01*
Y14185D01*
X35990D01*
Y14176D01*
X35981D01*
Y14168D01*
X35973D01*
Y14159D01*
X35964D01*
Y14151D01*
X35956D01*
Y14142D01*
X35939D01*
Y14134D01*
X35931D01*
Y14125D01*
X35922D01*
Y14117D01*
X35914D01*
Y14109D01*
X35905D01*
Y14100D01*
X35897D01*
Y14092D01*
X35888D01*
Y14083D01*
X35880D01*
Y14075D01*
X35871D01*
Y14066D01*
X35863D01*
Y14058D01*
X35854D01*
Y14049D01*
X35846D01*
Y14041D01*
X35837D01*
Y14032D01*
X35829D01*
Y14024D01*
X35820D01*
Y14015D01*
X35812D01*
Y14007D01*
X35803D01*
Y13998D01*
Y13990D01*
X35795D01*
Y13981D01*
X35786D01*
Y13973D01*
X35778D01*
Y13964D01*
X35770D01*
Y13956D01*
X35761D01*
Y13947D01*
X35753D01*
Y13939D01*
X35744D01*
Y13931D01*
X35736D01*
Y13922D01*
X35727D01*
Y13914D01*
X35719D01*
Y13905D01*
Y13897D01*
X35710D01*
Y13888D01*
X35702D01*
Y13880D01*
X35693D01*
Y13871D01*
X35685D01*
Y13863D01*
X35676D01*
Y13854D01*
Y13846D01*
X35659D01*
Y13837D01*
Y13829D01*
X35651D01*
Y13820D01*
X35642D01*
Y13812D01*
X35634D01*
Y13803D01*
X35625D01*
Y13795D01*
X35617D01*
Y13786D01*
Y13778D01*
X35608D01*
Y13770D01*
X35600D01*
Y13761D01*
X35592D01*
Y13753D01*
X35583D01*
Y13744D01*
X35575D01*
Y13736D01*
Y13727D01*
X35566D01*
Y13719D01*
X35558D01*
Y13710D01*
X35549D01*
Y13702D01*
X35541D01*
Y13693D01*
Y13685D01*
X35532D01*
Y13676D01*
X35524D01*
Y13668D01*
X35515D01*
Y13659D01*
X35507D01*
Y13651D01*
Y13642D01*
X35498D01*
Y13634D01*
X35490D01*
Y13625D01*
X35481D01*
Y13617D01*
X35473D01*
Y13608D01*
Y13600D01*
X35464D01*
Y13592D01*
X35456D01*
Y13583D01*
X35447D01*
Y13575D01*
Y13566D01*
X35439D01*
Y13558D01*
X35431D01*
Y13549D01*
Y13541D01*
X35422D01*
Y13532D01*
X35414D01*
Y13524D01*
X35405D01*
Y13515D01*
Y13507D01*
X35397D01*
Y13498D01*
X35388D01*
Y13490D01*
X35380D01*
Y13481D01*
Y13473D01*
X35371D01*
Y13464D01*
X35363D01*
Y13456D01*
X35354D01*
Y13447D01*
Y13439D01*
X35346D01*
Y13431D01*
Y13422D01*
X35337D01*
Y13414D01*
X35329D01*
Y13405D01*
X35320D01*
Y13397D01*
Y13388D01*
X35312D01*
Y13380D01*
X35303D01*
Y13371D01*
Y13363D01*
X35295D01*
Y13354D01*
X35286D01*
Y13346D01*
Y13337D01*
X35278D01*
Y13329D01*
Y13320D01*
X35269D01*
Y13312D01*
X35261D01*
Y13303D01*
Y13295D01*
X35253D01*
Y13286D01*
X35244D01*
Y13278D01*
Y13269D01*
X35236D01*
Y13261D01*
Y13253D01*
X35227D01*
Y13244D01*
Y13236D01*
X35219D01*
Y13227D01*
X35210D01*
Y13219D01*
Y13210D01*
X35193D01*
Y13219D01*
Y13227D01*
X35185D01*
Y13236D01*
X35176D01*
Y13244D01*
X35168D01*
Y13253D01*
X35159D01*
Y13261D01*
X35151D01*
Y13269D01*
X35142D01*
Y13278D01*
Y13286D01*
X35134D01*
Y13295D01*
X35125D01*
Y13303D01*
X35117D01*
Y13312D01*
X35108D01*
Y13320D01*
X35100D01*
Y13329D01*
X35092D01*
Y13337D01*
X35083D01*
Y13346D01*
Y13354D01*
X35075D01*
Y13363D01*
X35066D01*
Y13371D01*
X35058D01*
Y13380D01*
X35049D01*
Y13388D01*
X35041D01*
Y13397D01*
X35032D01*
Y13405D01*
X35024D01*
Y13414D01*
X35015D01*
Y13422D01*
X35007D01*
Y13431D01*
X34998D01*
Y13439D01*
X34990D01*
Y13447D01*
X34981D01*
Y13456D01*
X34973D01*
Y13464D01*
X34964D01*
Y13473D01*
X34956D01*
Y13481D01*
X34947D01*
Y13490D01*
X34939D01*
Y13498D01*
X34930D01*
Y13507D01*
X34922D01*
Y13515D01*
X34914D01*
Y13524D01*
X34905D01*
Y13532D01*
X34897D01*
Y13541D01*
X34888D01*
Y13549D01*
X34880D01*
Y13558D01*
X34871D01*
Y13566D01*
X34863D01*
Y13575D01*
X34854D01*
Y13583D01*
X34837D01*
Y13592D01*
X34829D01*
Y13600D01*
X34820D01*
Y13608D01*
X34812D01*
Y13617D01*
X34803D01*
Y13625D01*
X34795D01*
Y13634D01*
X34778D01*
Y13642D01*
X34769D01*
Y13651D01*
X34761D01*
Y13659D01*
X34753D01*
Y13668D01*
X34744D01*
Y13676D01*
X34736D01*
Y13685D01*
X34719D01*
Y13693D01*
X34710D01*
Y13702D01*
X34693D01*
Y13710D01*
X34685D01*
Y13719D01*
X34676D01*
Y13727D01*
X34659D01*
Y13736D01*
X34651D01*
Y13744D01*
X34642D01*
Y13753D01*
X34625D01*
Y13761D01*
X34617D01*
Y13770D01*
X34600D01*
Y13778D01*
X34591D01*
Y13786D01*
X34583D01*
Y13795D01*
X34566D01*
Y13803D01*
X34558D01*
Y13812D01*
X34541D01*
Y13820D01*
X34524D01*
Y13829D01*
X34515D01*
Y13837D01*
X34498D01*
Y13846D01*
X34481D01*
Y13854D01*
X34473D01*
Y13863D01*
X34447D01*
Y13871D01*
X34439D01*
Y13880D01*
X34422D01*
Y13888D01*
X34397D01*
Y13897D01*
X34371D01*
Y13905D01*
X34354D01*
Y13914D01*
X34346D01*
Y13922D01*
X34354D01*
Y13931D01*
X34371D01*
Y13939D01*
X34388D01*
Y13947D01*
X34397D01*
Y13956D01*
X34413D01*
Y13964D01*
X34422D01*
Y13973D01*
X34439D01*
Y13981D01*
X34456D01*
Y13990D01*
X34473D01*
Y13998D01*
X34481D01*
Y14007D01*
X34498D01*
Y14015D01*
X34507D01*
Y14024D01*
X34524D01*
Y14032D01*
X34541D01*
Y14041D01*
X34549D01*
Y14049D01*
X34566D01*
Y14058D01*
X34583D01*
Y14066D01*
X34591D01*
Y14075D01*
X34608D01*
Y14083D01*
X34617D01*
Y14092D01*
X34634D01*
Y14100D01*
X34651D01*
Y14109D01*
X34668D01*
Y14117D01*
X34676D01*
Y14125D01*
X34693D01*
Y14134D01*
X34710D01*
Y14142D01*
X34719D01*
Y14151D01*
X34736D01*
Y14159D01*
X34753D01*
Y14168D01*
X34761D01*
Y14176D01*
X34778D01*
Y14185D01*
X34786D01*
Y14193D01*
X34803D01*
Y14202D01*
X34820D01*
Y14210D01*
X34829D01*
Y14219D01*
X34846D01*
Y14227D01*
X34863D01*
Y14236D01*
X34880D01*
Y14244D01*
X34888D01*
Y14253D01*
X34897D01*
Y14244D01*
X34905D01*
Y14236D01*
Y14227D01*
X34914D01*
Y14219D01*
Y14210D01*
X34922D01*
Y14202D01*
Y14193D01*
X34930D01*
Y14185D01*
Y14176D01*
X34939D01*
Y14168D01*
Y14159D01*
X34947D01*
Y14151D01*
Y14142D01*
X34956D01*
Y14134D01*
Y14125D01*
X34964D01*
Y14117D01*
X34973D01*
Y14109D01*
Y14100D01*
X34981D01*
Y14092D01*
Y14083D01*
X34990D01*
Y14075D01*
Y14066D01*
X34998D01*
Y14058D01*
Y14049D01*
X35007D01*
Y14041D01*
Y14032D01*
X35015D01*
Y14024D01*
Y14015D01*
X35024D01*
Y14007D01*
Y13998D01*
X35032D01*
Y13990D01*
Y13981D01*
X35041D01*
Y13973D01*
Y13964D01*
X35049D01*
Y13956D01*
Y13947D01*
X35058D01*
Y13939D01*
Y13931D01*
X35066D01*
Y13922D01*
Y13914D01*
X35075D01*
Y13905D01*
Y13897D01*
X35083D01*
Y13888D01*
Y13880D01*
X35092D01*
Y13871D01*
X35100D01*
Y13863D01*
Y13854D01*
X35108D01*
Y13846D01*
Y13837D01*
Y13829D01*
X35117D01*
Y13820D01*
X35125D01*
Y13812D01*
Y13803D01*
X35134D01*
Y13795D01*
Y13786D01*
X35142D01*
Y13778D01*
Y13770D01*
X35151D01*
Y13761D01*
Y13753D01*
X35159D01*
Y13744D01*
Y13736D01*
X35176D01*
Y13744D01*
Y13753D01*
X35185D01*
Y13761D01*
X35193D01*
Y13770D01*
Y13778D01*
Y13786D01*
X35202D01*
Y13795D01*
Y13803D01*
X35210D01*
Y13812D01*
Y13820D01*
X35219D01*
Y13829D01*
Y13837D01*
X35227D01*
Y13846D01*
Y13854D01*
Y13863D01*
X35236D01*
Y13871D01*
X35244D01*
Y13880D01*
Y13888D01*
Y13897D01*
X35253D01*
Y13905D01*
Y13914D01*
X35261D01*
Y13922D01*
Y13931D01*
X35269D01*
Y13939D01*
Y13947D01*
X35278D01*
Y13956D01*
X35286D01*
Y13964D01*
Y13973D01*
X35295D01*
Y13981D01*
Y13990D01*
X35303D01*
Y13998D01*
Y14007D01*
X35312D01*
Y14015D01*
Y14024D01*
X35320D01*
Y14032D01*
Y14041D01*
X35329D01*
Y14049D01*
Y14058D01*
X35337D01*
Y14066D01*
Y14075D01*
X35346D01*
Y14083D01*
X35354D01*
Y14092D01*
Y14100D01*
X35363D01*
Y14109D01*
Y14117D01*
X35371D01*
Y14125D01*
Y14134D01*
X35380D01*
Y14142D01*
X35388D01*
Y14151D01*
Y14159D01*
X35397D01*
Y14168D01*
Y14176D01*
X35405D01*
Y14185D01*
Y14193D01*
X35414D01*
Y14202D01*
X35422D01*
Y14210D01*
Y14219D01*
X35431D01*
Y14227D01*
Y14236D01*
X35439D01*
Y14244D01*
Y14253D01*
X35447D01*
Y14261D01*
X35456D01*
Y14270D01*
X35464D01*
Y14278D01*
Y14287D01*
X35473D01*
Y14295D01*
Y14303D01*
X35481D01*
Y14312D01*
Y14320D01*
X35490D01*
Y14329D01*
X35498D01*
Y14337D01*
Y14346D01*
X35507D01*
Y14354D01*
X35515D01*
Y14363D01*
Y14371D01*
X35524D01*
Y14380D01*
X35532D01*
Y14388D01*
Y14397D01*
X35541D01*
Y14405D01*
X35549D01*
Y14414D01*
Y14422D01*
X35558D01*
Y14431D01*
X35566D01*
Y14439D01*
X35575D01*
Y14448D01*
Y14456D01*
X35583D01*
Y14464D01*
X35592D01*
Y14473D01*
Y14481D01*
X35600D01*
Y14490D01*
X35608D01*
Y14498D01*
X35617D01*
Y14507D01*
Y14515D01*
X35625D01*
Y14524D01*
X35634D01*
Y14532D01*
Y14541D01*
X35642D01*
Y14549D01*
X35651D01*
Y14558D01*
X35659D01*
Y14566D01*
Y14575D01*
X35668D01*
Y14583D01*
X35676D01*
Y14592D01*
X35685D01*
Y14600D01*
Y14609D01*
X35693D01*
Y14617D01*
X35702D01*
Y14626D01*
X35710D01*
Y14634D01*
X35719D01*
Y14642D01*
X35727D01*
Y14651D01*
Y14659D01*
X35736D01*
Y14668D01*
X35744D01*
Y14676D01*
X35753D01*
Y14685D01*
X35761D01*
Y14693D01*
Y14702D01*
X35770D01*
Y14710D01*
X35778D01*
Y14719D01*
X35786D01*
Y14727D01*
X35795D01*
Y14736D01*
X35803D01*
Y14744D01*
X35812D01*
Y14753D01*
X35820D01*
Y14761D01*
X35829D01*
Y14770D01*
Y14778D01*
X35837D01*
Y14787D01*
X35846D01*
Y14795D01*
X35854D01*
Y14803D01*
X35863D01*
Y14812D01*
X35871D01*
Y14820D01*
X35880D01*
Y14829D01*
X35888D01*
Y14837D01*
X35897D01*
Y14846D01*
X35905D01*
Y14854D01*
X35914D01*
Y14863D01*
X35922D01*
Y14871D01*
X35931D01*
Y14880D01*
X35939D01*
Y14888D01*
X35947D01*
Y14897D01*
X35956D01*
Y14905D01*
X35973D01*
Y14914D01*
X35981D01*
Y14922D01*
X35990D01*
Y14931D01*
X35998D01*
Y14939D01*
X36007D01*
Y14948D01*
X36015D01*
Y14956D01*
X36024D01*
Y14964D01*
X36041D01*
Y14973D01*
X36049D01*
Y14981D01*
X36058D01*
Y14990D01*
X36066D01*
Y14998D01*
X36075D01*
Y15007D01*
X36092D01*
Y15015D01*
X36100D01*
Y15024D01*
X36109D01*
Y15032D01*
X36117D01*
Y15041D01*
X36134D01*
Y15049D01*
X36142D01*
Y15058D01*
X36159D01*
Y15066D01*
X36168D01*
Y15075D01*
X36185D01*
Y15083D01*
X36193D01*
Y15092D01*
X36210D01*
Y15100D01*
X36219D01*
Y15109D01*
X36236D01*
Y15117D01*
X36253D01*
Y15126D01*
X36261D01*
Y15134D01*
X36278D01*
Y15142D01*
X36295D01*
Y15151D01*
X36303D01*
Y15142D01*
D02*
G37*
G36*
X36270Y13269D02*
X36303D01*
Y13261D01*
X36329D01*
Y13253D01*
X36346D01*
Y13244D01*
X36363D01*
Y13236D01*
X36371D01*
Y13227D01*
X36380D01*
Y13219D01*
X36388D01*
Y13210D01*
Y13202D01*
X36397D01*
Y13193D01*
Y13185D01*
X36405D01*
Y13176D01*
Y13168D01*
X36414D01*
Y13159D01*
Y13151D01*
Y13142D01*
Y13134D01*
X36337D01*
Y13125D01*
X36278D01*
Y13134D01*
X36270D01*
Y13142D01*
Y13151D01*
Y13159D01*
X36261D01*
Y13168D01*
X36253D01*
Y13176D01*
X36236D01*
Y13185D01*
X36210D01*
Y13193D01*
X36185D01*
Y13185D01*
X36168D01*
Y13176D01*
X36159D01*
Y13168D01*
X36151D01*
Y13159D01*
X36142D01*
Y13151D01*
Y13142D01*
X36151D01*
Y13134D01*
X36159D01*
Y13125D01*
X36168D01*
Y13117D01*
X36193D01*
Y13108D01*
X36236D01*
Y13100D01*
X36261D01*
Y13092D01*
X36295D01*
Y13083D01*
X36320D01*
Y13075D01*
X36346D01*
Y13066D01*
X36363D01*
Y13058D01*
X36371D01*
Y13049D01*
X36388D01*
Y13041D01*
X36397D01*
Y13032D01*
X36405D01*
Y13024D01*
Y13015D01*
X36414D01*
Y13007D01*
X36422D01*
Y12998D01*
Y12990D01*
Y12981D01*
X36431D01*
Y12973D01*
Y12964D01*
Y12956D01*
Y12947D01*
Y12939D01*
Y12931D01*
Y12922D01*
Y12914D01*
Y12905D01*
Y12897D01*
X36422D01*
Y12888D01*
Y12880D01*
X36414D01*
Y12871D01*
Y12863D01*
X36405D01*
Y12854D01*
Y12846D01*
X36397D01*
Y12837D01*
X36388D01*
Y12829D01*
X36380D01*
Y12820D01*
X36371D01*
Y12812D01*
X36354D01*
Y12803D01*
X36337D01*
Y12795D01*
X36320D01*
Y12786D01*
X36286D01*
Y12778D01*
X36134D01*
Y12786D01*
X36100D01*
Y12795D01*
X36083D01*
Y12803D01*
X36066D01*
Y12812D01*
X36049D01*
Y12820D01*
X36041D01*
Y12829D01*
X36032D01*
Y12837D01*
Y12846D01*
X36024D01*
Y12854D01*
X36015D01*
Y12863D01*
Y12871D01*
X36007D01*
Y12880D01*
X35998D01*
Y12888D01*
Y12897D01*
Y12905D01*
Y12914D01*
X35990D01*
Y12922D01*
Y12931D01*
Y12939D01*
X35998D01*
Y12947D01*
X36134D01*
Y12939D01*
Y12931D01*
Y12922D01*
X36142D01*
Y12914D01*
Y12905D01*
X36151D01*
Y12897D01*
X36159D01*
Y12888D01*
X36168D01*
Y12880D01*
X36185D01*
Y12871D01*
X36253D01*
Y12880D01*
X36270D01*
Y12888D01*
X36278D01*
Y12897D01*
X36286D01*
Y12905D01*
Y12914D01*
Y12922D01*
Y12931D01*
Y12939D01*
X36278D01*
Y12947D01*
Y12956D01*
X36261D01*
Y12964D01*
X36244D01*
Y12973D01*
X36219D01*
Y12981D01*
X36185D01*
Y12990D01*
X36151D01*
Y12998D01*
X36125D01*
Y13007D01*
X36109D01*
Y13015D01*
X36083D01*
Y13024D01*
X36075D01*
Y13032D01*
X36058D01*
Y13041D01*
X36049D01*
Y13049D01*
X36041D01*
Y13058D01*
X36032D01*
Y13066D01*
X36024D01*
Y13075D01*
Y13083D01*
X36015D01*
Y13092D01*
Y13100D01*
Y13108D01*
Y13117D01*
X36007D01*
Y13125D01*
Y13134D01*
Y13142D01*
Y13151D01*
X36015D01*
Y13159D01*
Y13168D01*
Y13176D01*
Y13185D01*
X36024D01*
Y13193D01*
Y13202D01*
X36032D01*
Y13210D01*
Y13219D01*
X36041D01*
Y13227D01*
X36049D01*
Y13236D01*
X36066D01*
Y13244D01*
X36075D01*
Y13253D01*
X36092D01*
Y13261D01*
X36117D01*
Y13269D01*
X36168D01*
Y13278D01*
X36270D01*
Y13269D01*
D02*
G37*
G36*
X35914Y13261D02*
Y13253D01*
Y13244D01*
Y13236D01*
Y13227D01*
Y13219D01*
Y13210D01*
Y13202D01*
Y13193D01*
Y13185D01*
Y13176D01*
Y13168D01*
Y13159D01*
Y13151D01*
Y13142D01*
Y13134D01*
Y13125D01*
Y13117D01*
Y13108D01*
Y13100D01*
Y13092D01*
Y13083D01*
Y13075D01*
Y13066D01*
Y13058D01*
Y13049D01*
Y13041D01*
Y13032D01*
Y13024D01*
Y13015D01*
Y13007D01*
Y12998D01*
Y12990D01*
Y12981D01*
Y12973D01*
Y12964D01*
Y12956D01*
Y12947D01*
Y12939D01*
Y12931D01*
Y12922D01*
Y12914D01*
Y12905D01*
Y12897D01*
Y12888D01*
Y12880D01*
Y12871D01*
Y12863D01*
Y12854D01*
Y12846D01*
Y12837D01*
Y12829D01*
Y12820D01*
Y12812D01*
Y12803D01*
Y12795D01*
Y12786D01*
X35761D01*
Y12795D01*
Y12803D01*
Y12812D01*
Y12820D01*
Y12829D01*
Y12837D01*
Y12846D01*
Y12854D01*
Y12863D01*
Y12871D01*
Y12880D01*
Y12888D01*
Y12897D01*
Y12905D01*
Y12914D01*
Y12922D01*
Y12931D01*
Y12939D01*
Y12947D01*
Y12956D01*
Y12964D01*
Y12973D01*
Y12981D01*
X35600D01*
Y12973D01*
Y12964D01*
Y12956D01*
Y12947D01*
Y12939D01*
Y12931D01*
Y12922D01*
Y12914D01*
Y12905D01*
Y12897D01*
Y12888D01*
Y12880D01*
Y12871D01*
Y12863D01*
Y12854D01*
Y12846D01*
Y12837D01*
Y12829D01*
Y12820D01*
Y12812D01*
Y12803D01*
Y12795D01*
Y12786D01*
X35447D01*
Y12795D01*
Y12803D01*
Y12812D01*
Y12820D01*
Y12829D01*
Y12837D01*
Y12846D01*
Y12854D01*
Y12863D01*
Y12871D01*
Y12880D01*
Y12888D01*
Y12897D01*
Y12905D01*
Y12914D01*
Y12922D01*
Y12931D01*
Y12939D01*
Y12947D01*
Y12956D01*
Y12964D01*
Y12973D01*
Y12981D01*
Y12990D01*
Y12998D01*
Y13007D01*
Y13015D01*
Y13024D01*
Y13032D01*
Y13041D01*
Y13049D01*
Y13058D01*
Y13066D01*
Y13075D01*
Y13083D01*
Y13092D01*
Y13100D01*
Y13108D01*
Y13117D01*
Y13125D01*
Y13134D01*
Y13142D01*
Y13151D01*
Y13159D01*
Y13168D01*
Y13176D01*
Y13185D01*
Y13193D01*
Y13202D01*
Y13210D01*
Y13219D01*
Y13227D01*
Y13236D01*
Y13244D01*
Y13253D01*
Y13261D01*
Y13269D01*
X35600D01*
Y13261D01*
Y13253D01*
Y13244D01*
Y13236D01*
Y13227D01*
Y13219D01*
Y13210D01*
Y13202D01*
Y13193D01*
Y13185D01*
Y13176D01*
Y13168D01*
Y13159D01*
Y13151D01*
Y13142D01*
Y13134D01*
Y13125D01*
Y13117D01*
Y13108D01*
Y13100D01*
X35761D01*
Y13108D01*
Y13117D01*
Y13125D01*
Y13134D01*
Y13142D01*
Y13151D01*
Y13159D01*
Y13168D01*
Y13176D01*
Y13185D01*
Y13193D01*
Y13202D01*
Y13210D01*
Y13219D01*
Y13227D01*
Y13236D01*
Y13244D01*
X35770D01*
Y13253D01*
X35761D01*
Y13261D01*
X35770D01*
Y13269D01*
X35914D01*
Y13261D01*
D02*
G37*
G36*
X34778D02*
X34820D01*
Y13253D01*
X34837D01*
Y13244D01*
X34846D01*
Y13236D01*
X34863D01*
Y13227D01*
Y13219D01*
X34871D01*
Y13210D01*
X34880D01*
Y13202D01*
Y13193D01*
X34888D01*
Y13185D01*
Y13176D01*
X34897D01*
Y13168D01*
Y13159D01*
Y13151D01*
Y13142D01*
Y13134D01*
Y13125D01*
Y13117D01*
Y13108D01*
Y13100D01*
Y13092D01*
X34888D01*
Y13083D01*
Y13075D01*
X34880D01*
Y13066D01*
Y13058D01*
X34871D01*
Y13049D01*
X34863D01*
Y13041D01*
X34854D01*
Y13032D01*
X34846D01*
Y13024D01*
X34837D01*
Y13015D01*
X34820D01*
Y13007D01*
X34795D01*
Y12998D01*
Y12990D01*
X34803D01*
Y12981D01*
X34820D01*
Y12973D01*
X34829D01*
Y12964D01*
X34837D01*
Y12956D01*
X34846D01*
Y12947D01*
Y12939D01*
X34854D01*
Y12931D01*
X34863D01*
Y12922D01*
Y12914D01*
X34871D01*
Y12905D01*
Y12897D01*
X34880D01*
Y12888D01*
Y12880D01*
X34888D01*
Y12871D01*
Y12863D01*
X34897D01*
Y12854D01*
Y12846D01*
X34905D01*
Y12837D01*
X34914D01*
Y12829D01*
Y12820D01*
X34922D01*
Y12812D01*
Y12803D01*
X34930D01*
Y12795D01*
Y12786D01*
X34761D01*
Y12795D01*
Y12803D01*
X34753D01*
Y12812D01*
Y12820D01*
X34744D01*
Y12829D01*
X34736D01*
Y12837D01*
Y12846D01*
X34727D01*
Y12854D01*
Y12863D01*
X34719D01*
Y12871D01*
Y12880D01*
X34710D01*
Y12888D01*
Y12897D01*
X34702D01*
Y12905D01*
Y12914D01*
X34693D01*
Y12922D01*
X34685D01*
Y12931D01*
Y12939D01*
X34676D01*
Y12947D01*
Y12956D01*
X34668D01*
Y12964D01*
X34659D01*
Y12973D01*
X34642D01*
Y12981D01*
X34608D01*
Y12973D01*
Y12964D01*
Y12956D01*
Y12947D01*
Y12939D01*
Y12931D01*
Y12922D01*
Y12914D01*
Y12905D01*
Y12897D01*
Y12888D01*
Y12880D01*
Y12871D01*
Y12863D01*
Y12854D01*
Y12846D01*
Y12837D01*
Y12829D01*
Y12820D01*
Y12812D01*
Y12803D01*
Y12795D01*
Y12786D01*
X34456D01*
Y12795D01*
Y12803D01*
Y12812D01*
Y12820D01*
Y12829D01*
Y12837D01*
Y12846D01*
Y12854D01*
Y12863D01*
Y12871D01*
Y12880D01*
Y12888D01*
Y12897D01*
Y12905D01*
Y12914D01*
Y12922D01*
Y12931D01*
Y12939D01*
Y12947D01*
Y12956D01*
Y12964D01*
Y12973D01*
Y12981D01*
Y12990D01*
Y12998D01*
Y13007D01*
Y13015D01*
Y13024D01*
Y13032D01*
Y13041D01*
Y13049D01*
Y13058D01*
Y13066D01*
Y13075D01*
Y13083D01*
Y13092D01*
Y13100D01*
Y13108D01*
Y13117D01*
Y13125D01*
Y13134D01*
Y13142D01*
Y13151D01*
Y13159D01*
Y13168D01*
Y13176D01*
Y13185D01*
Y13193D01*
Y13202D01*
Y13210D01*
Y13219D01*
Y13227D01*
Y13236D01*
Y13244D01*
Y13253D01*
Y13261D01*
Y13269D01*
X34778D01*
Y13261D01*
D02*
G37*
G36*
X35219Y13134D02*
X35253D01*
Y13125D01*
X35278D01*
Y13117D01*
X35286D01*
Y13108D01*
X35303D01*
Y13100D01*
X35312D01*
Y13092D01*
X35320D01*
Y13083D01*
X35329D01*
Y13075D01*
X35337D01*
Y13066D01*
Y13058D01*
X35346D01*
Y13049D01*
X35354D01*
Y13041D01*
Y13032D01*
Y13024D01*
X35363D01*
Y13015D01*
Y13007D01*
Y12998D01*
Y12990D01*
X35371D01*
Y12981D01*
Y12973D01*
Y12964D01*
Y12956D01*
Y12947D01*
Y12939D01*
Y12931D01*
Y12922D01*
X35363D01*
Y12914D01*
Y12905D01*
Y12897D01*
Y12888D01*
X35354D01*
Y12880D01*
Y12871D01*
X35346D01*
Y12863D01*
X35337D01*
Y12854D01*
Y12846D01*
X35329D01*
Y12837D01*
X35320D01*
Y12829D01*
X35312D01*
Y12820D01*
X35303D01*
Y12812D01*
X35286D01*
Y12803D01*
X35269D01*
Y12795D01*
X35253D01*
Y12786D01*
X35227D01*
Y12778D01*
X35108D01*
Y12786D01*
X35075D01*
Y12795D01*
X35058D01*
Y12803D01*
X35041D01*
Y12812D01*
X35032D01*
Y12820D01*
X35024D01*
Y12829D01*
X35015D01*
Y12837D01*
X35007D01*
Y12846D01*
X34998D01*
Y12854D01*
X34990D01*
Y12863D01*
X34981D01*
Y12871D01*
Y12880D01*
Y12888D01*
X34973D01*
Y12897D01*
Y12905D01*
Y12914D01*
X34964D01*
Y12922D01*
Y12931D01*
Y12939D01*
Y12947D01*
Y12956D01*
Y12964D01*
Y12973D01*
Y12981D01*
Y12990D01*
Y12998D01*
Y13007D01*
X34973D01*
Y13015D01*
Y13024D01*
Y13032D01*
X34981D01*
Y13041D01*
Y13049D01*
X34990D01*
Y13058D01*
Y13066D01*
X34998D01*
Y13075D01*
X35007D01*
Y13083D01*
X35015D01*
Y13092D01*
X35024D01*
Y13100D01*
X35032D01*
Y13108D01*
X35049D01*
Y13117D01*
X35058D01*
Y13125D01*
X35083D01*
Y13134D01*
X35117D01*
Y13142D01*
X35219D01*
Y13134D01*
D02*
G37*
G36*
X36405Y12634D02*
X36414D01*
Y12625D01*
Y12617D01*
Y12608D01*
Y12600D01*
Y12592D01*
X36346D01*
Y12583D01*
Y12575D01*
Y12566D01*
Y12558D01*
Y12549D01*
Y12541D01*
Y12532D01*
Y12524D01*
Y12515D01*
Y12507D01*
Y12498D01*
Y12490D01*
Y12481D01*
Y12473D01*
Y12464D01*
Y12456D01*
Y12447D01*
Y12439D01*
Y12430D01*
X36286D01*
Y12439D01*
Y12447D01*
Y12456D01*
Y12464D01*
Y12473D01*
Y12481D01*
Y12490D01*
Y12498D01*
Y12507D01*
Y12515D01*
Y12524D01*
Y12532D01*
Y12541D01*
Y12549D01*
Y12558D01*
Y12566D01*
Y12575D01*
Y12583D01*
X36278D01*
Y12592D01*
X36219D01*
Y12600D01*
Y12608D01*
Y12617D01*
Y12625D01*
Y12634D01*
Y12642D01*
X36236D01*
Y12634D01*
X36244D01*
Y12642D01*
X36405D01*
Y12634D01*
D02*
G37*
G36*
X36185D02*
Y12625D01*
Y12617D01*
Y12608D01*
Y12600D01*
Y12592D01*
Y12583D01*
Y12575D01*
Y12566D01*
Y12558D01*
Y12549D01*
Y12541D01*
Y12532D01*
Y12524D01*
Y12515D01*
Y12507D01*
Y12498D01*
Y12490D01*
Y12481D01*
Y12473D01*
Y12464D01*
Y12456D01*
Y12447D01*
Y12439D01*
Y12430D01*
X36125D01*
Y12439D01*
X36117D01*
Y12447D01*
X36109D01*
Y12456D01*
Y12464D01*
X36100D01*
Y12473D01*
X36092D01*
Y12481D01*
Y12490D01*
X36083D01*
Y12498D01*
X36075D01*
Y12507D01*
Y12515D01*
X36066D01*
Y12524D01*
X36058D01*
Y12532D01*
X36049D01*
Y12524D01*
Y12515D01*
Y12507D01*
Y12498D01*
Y12490D01*
Y12481D01*
Y12473D01*
Y12464D01*
Y12456D01*
Y12447D01*
Y12439D01*
Y12430D01*
X35990D01*
Y12439D01*
Y12447D01*
Y12456D01*
Y12464D01*
Y12473D01*
Y12481D01*
Y12490D01*
Y12498D01*
Y12507D01*
Y12515D01*
Y12524D01*
Y12532D01*
Y12541D01*
Y12549D01*
Y12558D01*
Y12566D01*
Y12575D01*
Y12583D01*
Y12592D01*
Y12600D01*
Y12608D01*
Y12617D01*
Y12625D01*
Y12634D01*
X35998D01*
Y12642D01*
X36015D01*
Y12634D01*
X36024D01*
Y12642D01*
X36041D01*
Y12634D01*
X36049D01*
Y12625D01*
X36058D01*
Y12617D01*
X36066D01*
Y12608D01*
Y12600D01*
X36075D01*
Y12592D01*
X36083D01*
Y12583D01*
Y12575D01*
X36092D01*
Y12566D01*
X36100D01*
Y12558D01*
X36109D01*
Y12549D01*
Y12541D01*
X36117D01*
Y12532D01*
X36125D01*
Y12541D01*
Y12549D01*
Y12558D01*
Y12566D01*
Y12575D01*
Y12583D01*
Y12592D01*
Y12600D01*
Y12608D01*
Y12617D01*
Y12625D01*
Y12634D01*
X36134D01*
Y12642D01*
X36168D01*
Y12634D01*
X36176D01*
Y12642D01*
X36185D01*
Y12634D01*
D02*
G37*
G36*
X35702D02*
X35710D01*
Y12625D01*
Y12617D01*
Y12608D01*
Y12600D01*
Y12592D01*
Y12583D01*
Y12575D01*
Y12566D01*
Y12558D01*
Y12549D01*
Y12541D01*
Y12532D01*
Y12524D01*
Y12515D01*
Y12507D01*
Y12498D01*
Y12490D01*
Y12481D01*
Y12473D01*
Y12464D01*
Y12456D01*
Y12447D01*
Y12439D01*
Y12430D01*
X35651D01*
Y12439D01*
Y12447D01*
Y12456D01*
X35642D01*
Y12464D01*
X35651D01*
Y12473D01*
Y12481D01*
Y12490D01*
Y12498D01*
Y12507D01*
Y12515D01*
Y12524D01*
Y12532D01*
Y12541D01*
Y12549D01*
Y12558D01*
Y12566D01*
Y12575D01*
Y12583D01*
Y12592D01*
Y12600D01*
Y12608D01*
Y12617D01*
Y12625D01*
Y12634D01*
Y12642D01*
X35685D01*
Y12634D01*
X35693D01*
Y12642D01*
X35702D01*
Y12634D01*
D02*
G37*
G36*
X35507D02*
Y12625D01*
Y12617D01*
Y12608D01*
Y12600D01*
Y12592D01*
Y12583D01*
Y12575D01*
Y12566D01*
Y12558D01*
Y12549D01*
Y12541D01*
Y12532D01*
Y12524D01*
Y12515D01*
Y12507D01*
Y12498D01*
Y12490D01*
X35515D01*
Y12481D01*
X35608D01*
Y12473D01*
Y12464D01*
Y12456D01*
Y12447D01*
X35617D01*
Y12439D01*
X35608D01*
Y12430D01*
X35447D01*
Y12439D01*
Y12447D01*
Y12456D01*
Y12464D01*
Y12473D01*
Y12481D01*
Y12490D01*
Y12498D01*
Y12507D01*
Y12515D01*
Y12524D01*
Y12532D01*
Y12541D01*
Y12549D01*
Y12558D01*
Y12566D01*
Y12575D01*
Y12583D01*
Y12592D01*
Y12600D01*
Y12608D01*
Y12617D01*
Y12625D01*
Y12634D01*
X35456D01*
Y12642D01*
X35464D01*
Y12634D01*
X35473D01*
Y12642D01*
X35490D01*
Y12634D01*
X35498D01*
Y12642D01*
X35507D01*
Y12634D01*
D02*
G37*
G36*
X35185D02*
X35193D01*
Y12625D01*
Y12617D01*
Y12608D01*
Y12600D01*
Y12592D01*
Y12583D01*
Y12575D01*
Y12566D01*
Y12558D01*
Y12549D01*
Y12541D01*
Y12532D01*
Y12524D01*
Y12515D01*
Y12507D01*
Y12498D01*
Y12490D01*
Y12481D01*
Y12473D01*
Y12464D01*
Y12456D01*
Y12447D01*
Y12439D01*
Y12430D01*
X35142D01*
Y12439D01*
Y12447D01*
Y12456D01*
Y12464D01*
Y12473D01*
Y12481D01*
Y12490D01*
Y12498D01*
Y12507D01*
Y12515D01*
Y12524D01*
Y12532D01*
Y12541D01*
Y12549D01*
Y12558D01*
Y12566D01*
X35125D01*
Y12558D01*
Y12549D01*
Y12541D01*
Y12532D01*
Y12524D01*
X35117D01*
Y12515D01*
Y12507D01*
Y12498D01*
Y12490D01*
X35108D01*
Y12481D01*
Y12473D01*
Y12464D01*
Y12456D01*
X35100D01*
Y12447D01*
Y12439D01*
Y12430D01*
X35049D01*
Y12439D01*
Y12447D01*
Y12456D01*
X35041D01*
Y12464D01*
Y12473D01*
Y12481D01*
Y12490D01*
X35032D01*
Y12498D01*
Y12507D01*
Y12515D01*
Y12524D01*
X35024D01*
Y12532D01*
Y12541D01*
Y12549D01*
Y12558D01*
Y12566D01*
X35015D01*
Y12558D01*
X35007D01*
Y12549D01*
Y12541D01*
Y12532D01*
Y12524D01*
Y12515D01*
Y12507D01*
Y12498D01*
Y12490D01*
Y12481D01*
Y12473D01*
Y12464D01*
Y12456D01*
Y12447D01*
Y12439D01*
Y12430D01*
X34964D01*
Y12439D01*
X34956D01*
Y12447D01*
Y12456D01*
Y12464D01*
Y12473D01*
Y12481D01*
Y12490D01*
Y12498D01*
Y12507D01*
Y12515D01*
Y12524D01*
Y12532D01*
Y12541D01*
Y12549D01*
Y12558D01*
Y12566D01*
Y12575D01*
Y12583D01*
Y12592D01*
Y12600D01*
Y12608D01*
Y12617D01*
Y12625D01*
Y12634D01*
X34964D01*
Y12642D01*
X35032D01*
Y12634D01*
X35041D01*
Y12625D01*
X35049D01*
Y12617D01*
Y12608D01*
Y12600D01*
Y12592D01*
X35058D01*
Y12583D01*
Y12575D01*
Y12566D01*
Y12558D01*
X35066D01*
Y12549D01*
Y12541D01*
Y12532D01*
Y12524D01*
X35083D01*
Y12532D01*
Y12541D01*
Y12549D01*
Y12558D01*
X35092D01*
Y12566D01*
Y12575D01*
Y12583D01*
Y12592D01*
X35100D01*
Y12600D01*
Y12608D01*
Y12617D01*
Y12625D01*
X35108D01*
Y12634D01*
X35117D01*
Y12642D01*
X35125D01*
Y12634D01*
X35134D01*
Y12642D01*
X35151D01*
Y12634D01*
X35159D01*
Y12642D01*
X35168D01*
Y12634D01*
X35176D01*
Y12642D01*
X35185D01*
Y12634D01*
D02*
G37*
G36*
X34608D02*
X34634D01*
Y12625D01*
X34651D01*
Y12617D01*
X34659D01*
Y12608D01*
X34668D01*
Y12600D01*
Y12592D01*
X34676D01*
Y12583D01*
Y12575D01*
X34642D01*
Y12566D01*
X34625D01*
Y12575D01*
X34617D01*
Y12583D01*
X34608D01*
Y12592D01*
X34558D01*
Y12583D01*
X34549D01*
Y12575D01*
Y12566D01*
Y12558D01*
X34541D01*
Y12549D01*
Y12541D01*
Y12532D01*
Y12524D01*
Y12515D01*
Y12507D01*
X34549D01*
Y12498D01*
Y12490D01*
X34558D01*
Y12481D01*
X34566D01*
Y12473D01*
X34591D01*
Y12481D01*
X34608D01*
Y12490D01*
X34617D01*
Y12498D01*
Y12507D01*
X34625D01*
Y12515D01*
X34642D01*
Y12507D01*
X34668D01*
Y12498D01*
X34676D01*
Y12490D01*
Y12481D01*
X34668D01*
Y12473D01*
Y12464D01*
X34659D01*
Y12456D01*
X34651D01*
Y12447D01*
X34642D01*
Y12439D01*
X34625D01*
Y12430D01*
X34541D01*
Y12439D01*
X34524D01*
Y12447D01*
X34515D01*
Y12456D01*
X34507D01*
Y12464D01*
X34498D01*
Y12473D01*
X34490D01*
Y12481D01*
Y12490D01*
X34481D01*
Y12498D01*
Y12507D01*
Y12515D01*
Y12524D01*
Y12532D01*
Y12541D01*
Y12549D01*
Y12558D01*
Y12566D01*
Y12575D01*
Y12583D01*
X34490D01*
Y12592D01*
Y12600D01*
X34498D01*
Y12608D01*
X34507D01*
Y12617D01*
X34515D01*
Y12625D01*
X34524D01*
Y12634D01*
X34558D01*
Y12642D01*
X34608D01*
Y12634D01*
D02*
G37*
G36*
X35354D02*
X35388D01*
Y12625D01*
X35397D01*
Y12617D01*
X35405D01*
Y12608D01*
Y12600D01*
X35414D01*
Y12592D01*
Y12583D01*
Y12575D01*
Y12566D01*
Y12558D01*
Y12549D01*
X35405D01*
Y12541D01*
Y12532D01*
X35397D01*
Y12524D01*
X35380D01*
Y12515D01*
X35346D01*
Y12507D01*
X35337D01*
Y12515D01*
X35320D01*
Y12507D01*
X35303D01*
Y12498D01*
Y12490D01*
Y12481D01*
Y12473D01*
Y12464D01*
Y12456D01*
Y12447D01*
Y12439D01*
Y12430D01*
X35236D01*
Y12439D01*
Y12447D01*
Y12456D01*
Y12464D01*
Y12473D01*
Y12481D01*
Y12490D01*
Y12498D01*
Y12507D01*
Y12515D01*
Y12524D01*
Y12532D01*
Y12541D01*
Y12549D01*
Y12558D01*
Y12566D01*
Y12575D01*
Y12583D01*
Y12592D01*
Y12600D01*
Y12608D01*
Y12617D01*
Y12625D01*
Y12634D01*
X35244D01*
Y12642D01*
X35354D01*
Y12634D01*
D02*
G37*
G36*
X35863D02*
X35888D01*
Y12625D01*
X35897D01*
Y12617D01*
Y12608D01*
X35905D01*
Y12600D01*
Y12592D01*
Y12583D01*
X35914D01*
Y12575D01*
Y12566D01*
Y12558D01*
X35922D01*
Y12549D01*
Y12541D01*
Y12532D01*
X35931D01*
Y12524D01*
Y12515D01*
Y12507D01*
X35939D01*
Y12498D01*
Y12490D01*
X35947D01*
Y12481D01*
Y12473D01*
Y12464D01*
X35956D01*
Y12456D01*
Y12447D01*
X35964D01*
Y12439D01*
Y12430D01*
X35897D01*
Y12439D01*
Y12447D01*
Y12456D01*
X35888D01*
Y12464D01*
X35812D01*
Y12456D01*
X35803D01*
Y12447D01*
Y12439D01*
Y12430D01*
X35736D01*
Y12439D01*
X35744D01*
Y12447D01*
Y12456D01*
Y12464D01*
X35753D01*
Y12473D01*
Y12481D01*
Y12490D01*
X35761D01*
Y12498D01*
Y12507D01*
X35770D01*
Y12515D01*
Y12524D01*
Y12532D01*
X35778D01*
Y12541D01*
Y12549D01*
Y12558D01*
X35786D01*
Y12566D01*
Y12575D01*
X35795D01*
Y12583D01*
Y12592D01*
Y12600D01*
X35803D01*
Y12608D01*
Y12617D01*
Y12625D01*
X35812D01*
Y12634D01*
X35820D01*
Y12642D01*
X35863D01*
Y12634D01*
D02*
G37*
G36*
X34837D02*
X34871D01*
Y12625D01*
X34880D01*
Y12617D01*
X34897D01*
Y12608D01*
Y12600D01*
X34905D01*
Y12592D01*
X34914D01*
Y12583D01*
Y12575D01*
Y12566D01*
Y12558D01*
X34922D01*
Y12549D01*
Y12541D01*
Y12532D01*
Y12524D01*
Y12515D01*
X34914D01*
Y12507D01*
Y12498D01*
Y12490D01*
Y12481D01*
X34905D01*
Y12473D01*
X34897D01*
Y12464D01*
Y12456D01*
X34888D01*
Y12447D01*
X34871D01*
Y12439D01*
X34854D01*
Y12430D01*
X34769D01*
Y12439D01*
X34753D01*
Y12447D01*
X34736D01*
Y12456D01*
X34727D01*
Y12464D01*
X34719D01*
Y12473D01*
Y12481D01*
X34710D01*
Y12490D01*
Y12498D01*
Y12507D01*
Y12515D01*
X34702D01*
Y12524D01*
Y12532D01*
Y12541D01*
Y12549D01*
Y12558D01*
Y12566D01*
X34710D01*
Y12575D01*
Y12583D01*
Y12592D01*
X34719D01*
Y12600D01*
X34727D01*
Y12608D01*
Y12617D01*
X34736D01*
Y12625D01*
X34753D01*
Y12634D01*
X34778D01*
Y12642D01*
X34837D01*
Y12634D01*
D02*
G37*
G36*
X10081Y21328D02*
X5081D01*
Y22472D01*
X10081D01*
Y21328D01*
D02*
G37*
G36*
X12850D02*
X10850D01*
Y22472D01*
X12850D01*
Y21328D01*
D02*
G37*
G36*
X9495Y30215D02*
X5405D01*
Y31085D01*
X9495D01*
Y30215D01*
D02*
G37*
G36*
X28049Y24300D02*
X27904D01*
Y24584D01*
X28049D01*
Y24300D01*
D02*
G37*
G36*
X24347Y24520D02*
X24478D01*
Y24432D01*
X24347D01*
Y24300D01*
X24257D01*
Y24432D01*
X24126D01*
Y24520D01*
X24257D01*
Y24652D01*
X24347D01*
Y24520D01*
D02*
G37*
G36*
X10853Y4514D02*
X10859Y4513D01*
X10860D01*
X10863Y4513D01*
X10867Y4512D01*
X10871Y4510D01*
X10871Y4510D01*
X10873Y4509D01*
X10875Y4508D01*
X10877Y4506D01*
X10877Y4506D01*
X10878Y4504D01*
X10878Y4503D01*
Y4501D01*
Y3965D01*
X10990D01*
X10992Y3964D01*
X10995Y3963D01*
X10996Y3962D01*
X10997Y3961D01*
X10999Y3959D01*
X11001Y3956D01*
X11001Y3956D01*
X11002Y3954D01*
X11003Y3950D01*
X11004Y3946D01*
X11004Y3945D01*
X11005Y3943D01*
X11005Y3938D01*
Y3932D01*
Y3931D01*
Y3930D01*
Y3928D01*
Y3927D01*
X11005Y3921D01*
X11004Y3916D01*
Y3915D01*
X11003Y3913D01*
X11002Y3910D01*
X11000Y3907D01*
X10999Y3906D01*
X10998Y3905D01*
X10997Y3903D01*
X10995Y3902D01*
X10994D01*
X10992Y3901D01*
X10990Y3901D01*
X10988Y3900D01*
X10667D01*
X10665Y3901D01*
X10663Y3902D01*
X10663Y3902D01*
X10661Y3903D01*
X10660Y3904D01*
X10658Y3907D01*
X10657Y3907D01*
X10657Y3909D01*
X10655Y3913D01*
X10654Y3916D01*
Y3917D01*
Y3917D01*
X10653Y3921D01*
X10653Y3926D01*
Y3932D01*
Y3932D01*
Y3933D01*
Y3935D01*
Y3937D01*
X10653Y3941D01*
X10654Y3946D01*
Y3947D01*
X10654Y3947D01*
X10655Y3950D01*
X10656Y3953D01*
X10657Y3956D01*
X10658Y3957D01*
X10659Y3959D01*
X10660Y3961D01*
X10663Y3963D01*
X10663Y3963D01*
X10665Y3964D01*
X10667Y3964D01*
X10670Y3965D01*
X10797D01*
Y4429D01*
X10678Y4359D01*
X10678D01*
X10677Y4358D01*
X10673Y4356D01*
X10669Y4354D01*
X10664Y4353D01*
X10661D01*
X10658Y4353D01*
X10655Y4355D01*
X10655Y4355D01*
X10654Y4358D01*
X10652Y4361D01*
X10651Y4365D01*
Y4366D01*
Y4366D01*
X10651Y4368D01*
Y4370D01*
X10650Y4376D01*
Y4383D01*
Y4383D01*
Y4384D01*
Y4388D01*
Y4392D01*
X10651Y4396D01*
Y4397D01*
Y4397D01*
X10651Y4400D01*
X10652Y4403D01*
X10652Y4406D01*
X10653Y4407D01*
X10653Y4408D01*
X10657Y4413D01*
X10657Y4413D01*
X10659Y4414D01*
X10661Y4416D01*
X10664Y4418D01*
X10804Y4508D01*
X10805Y4509D01*
X10806Y4509D01*
X10809Y4510D01*
X10809D01*
X10811Y4511D01*
X10813Y4512D01*
X10816Y4513D01*
X10817D01*
X10819Y4513D01*
X10822Y4514D01*
X10827D01*
X10830Y4514D01*
X10847D01*
X10853Y4514D01*
D02*
G37*
%LPC*%
G36*
X34710Y13176D02*
X34608D01*
Y13168D01*
Y13159D01*
Y13151D01*
Y13142D01*
Y13134D01*
Y13125D01*
Y13117D01*
Y13108D01*
Y13100D01*
Y13092D01*
Y13083D01*
Y13075D01*
X34710D01*
Y13083D01*
X34727D01*
Y13092D01*
X34736D01*
Y13100D01*
X34744D01*
Y13108D01*
Y13117D01*
Y13125D01*
Y13134D01*
Y13142D01*
Y13151D01*
X34736D01*
Y13159D01*
X34727D01*
Y13168D01*
X34710D01*
Y13176D01*
D02*
G37*
G36*
X35193Y13049D02*
X35134D01*
Y13041D01*
X35125D01*
Y13032D01*
X35117D01*
Y13024D01*
X35108D01*
Y13015D01*
Y13007D01*
X35100D01*
Y12998D01*
Y12990D01*
Y12981D01*
Y12973D01*
Y12964D01*
Y12956D01*
Y12947D01*
Y12939D01*
Y12931D01*
Y12922D01*
Y12914D01*
X35108D01*
Y12905D01*
Y12897D01*
X35117D01*
Y12888D01*
X35125D01*
Y12880D01*
X35134D01*
Y12871D01*
X35159D01*
Y12863D01*
X35168D01*
Y12871D01*
X35202D01*
Y12880D01*
X35210D01*
Y12888D01*
X35219D01*
Y12897D01*
X35227D01*
Y12905D01*
Y12914D01*
Y12922D01*
Y12931D01*
X35236D01*
Y12939D01*
Y12947D01*
Y12956D01*
Y12964D01*
Y12973D01*
Y12981D01*
Y12990D01*
Y12998D01*
X35227D01*
Y13007D01*
Y13015D01*
Y13024D01*
X35219D01*
Y13032D01*
X35210D01*
Y13041D01*
X35193D01*
Y13049D01*
D02*
G37*
G36*
X35337Y12600D02*
X35303D01*
Y12592D01*
Y12583D01*
Y12575D01*
Y12566D01*
Y12558D01*
Y12549D01*
X35329D01*
Y12558D01*
X35346D01*
Y12566D01*
Y12575D01*
Y12583D01*
Y12592D01*
X35337D01*
Y12600D01*
D02*
G37*
G36*
X35854Y12575D02*
X35846D01*
Y12566D01*
X35837D01*
Y12558D01*
Y12549D01*
Y12541D01*
X35829D01*
Y12532D01*
Y12524D01*
Y12515D01*
Y12507D01*
X35871D01*
Y12515D01*
Y12524D01*
Y12532D01*
X35863D01*
Y12541D01*
Y12549D01*
Y12558D01*
X35854D01*
Y12566D01*
Y12575D01*
D02*
G37*
G36*
X34837Y12592D02*
X34786D01*
Y12583D01*
X34778D01*
Y12575D01*
X34769D01*
Y12566D01*
Y12558D01*
Y12549D01*
Y12541D01*
Y12532D01*
Y12524D01*
Y12515D01*
Y12507D01*
Y12498D01*
X34778D01*
Y12490D01*
X34786D01*
Y12481D01*
X34795D01*
Y12473D01*
X34820D01*
Y12481D01*
X34837D01*
Y12490D01*
X34846D01*
Y12498D01*
Y12507D01*
X34854D01*
Y12515D01*
Y12524D01*
Y12532D01*
Y12541D01*
Y12549D01*
Y12558D01*
Y12566D01*
X34846D01*
Y12575D01*
Y12583D01*
X34837D01*
Y12592D01*
D02*
G37*
G36*
X7961Y22165D02*
X7958D01*
X7948Y22164D01*
X7939Y22164D01*
X7929Y22163D01*
X7920Y22162D01*
X7902Y22158D01*
X7885Y22154D01*
X7869Y22148D01*
X7855Y22142D01*
X7842Y22136D01*
X7829Y22129D01*
X7819Y22122D01*
X7809Y22116D01*
X7801Y22109D01*
X7794Y22104D01*
X7789Y22099D01*
X7786Y22097D01*
X7785Y22096D01*
X7784Y22094D01*
X7782Y22093D01*
X7782Y22093D01*
X7782Y22093D01*
X7775Y22086D01*
X7769Y22079D01*
X7764Y22071D01*
X7759Y22063D01*
X7750Y22047D01*
X7742Y22031D01*
X7735Y22015D01*
X7730Y21998D01*
X7725Y21982D01*
X7722Y21966D01*
X7719Y21951D01*
X7717Y21937D01*
X7716Y21931D01*
X7715Y21925D01*
X7715Y21919D01*
X7714Y21914D01*
X7714Y21909D01*
X7714Y21905D01*
Y21902D01*
X7713Y21899D01*
Y22165D01*
D01*
Y21635D01*
X8203Y21635D01*
D01*
X7958D01*
X7970Y21636D01*
X7983Y21637D01*
X7994Y21638D01*
X8006Y21640D01*
X8017Y21643D01*
X8027Y21645D01*
X8036Y21648D01*
X8045Y21651D01*
X8054Y21654D01*
X8061Y21657D01*
X8067Y21659D01*
X8072Y21662D01*
X8077Y21664D01*
X8080Y21665D01*
X8082Y21666D01*
X8082Y21667D01*
X8093Y21673D01*
X8103Y21680D01*
X8112Y21687D01*
X8121Y21694D01*
X8129Y21702D01*
X8136Y21710D01*
X8143Y21717D01*
X8149Y21725D01*
X8154Y21732D01*
X8159Y21739D01*
X8163Y21744D01*
X8166Y21750D01*
X8168Y21754D01*
X8170Y21757D01*
X8171Y21759D01*
X8172Y21760D01*
X8177Y21771D01*
X8182Y21783D01*
X8186Y21795D01*
X8190Y21807D01*
X8193Y21819D01*
X8195Y21831D01*
X8198Y21842D01*
X8199Y21852D01*
X8200Y21862D01*
X8202Y21871D01*
X8202Y21879D01*
X8203Y21886D01*
Y21891D01*
X8203Y21894D01*
Y21899D01*
X8203Y21913D01*
X8202Y21927D01*
X8200Y21940D01*
X8198Y21953D01*
X8196Y21965D01*
X8193Y21976D01*
X8191Y21987D01*
X8188Y21996D01*
X8185Y22005D01*
X8183Y22013D01*
X8180Y22020D01*
X8178Y22026D01*
X8176Y22030D01*
X8175Y22034D01*
X8173Y22036D01*
X8173Y22036D01*
X8167Y22047D01*
X8161Y22058D01*
X8154Y22067D01*
X8147Y22077D01*
X8140Y22085D01*
X8132Y22093D01*
X8125Y22100D01*
X8118Y22106D01*
X8112Y22112D01*
X8106Y22117D01*
X8100Y22121D01*
X8095Y22124D01*
X8092Y22127D01*
X8089Y22129D01*
X8087Y22130D01*
X8086Y22131D01*
X8075Y22137D01*
X8064Y22142D01*
X8053Y22147D01*
X8042Y22150D01*
X8031Y22154D01*
X8021Y22157D01*
X8010Y22159D01*
X8001Y22161D01*
X7992Y22162D01*
X7984Y22163D01*
X7976Y22164D01*
X7970Y22164D01*
X7965D01*
X7961Y22165D01*
D02*
G37*
G36*
X6944Y22156D02*
X6879D01*
Y21754D01*
X6611Y22156D01*
X6541D01*
Y21644D01*
X6944D01*
Y22156D01*
D02*
G37*
G36*
X5757D02*
X5666D01*
X5543Y21800D01*
X5540Y21790D01*
X5536Y21780D01*
X5534Y21772D01*
X5531Y21764D01*
X5529Y21756D01*
X5526Y21750D01*
X5524Y21744D01*
X5522Y21738D01*
X5521Y21733D01*
X5519Y21729D01*
X5518Y21726D01*
X5518Y21723D01*
X5517Y21720D01*
X5516Y21719D01*
X5516Y21718D01*
Y21717D01*
X5514Y21723D01*
X5512Y21728D01*
X5511Y21734D01*
X5509Y21740D01*
X5505Y21753D01*
X5501Y21765D01*
X5499Y21771D01*
X5497Y21776D01*
X5495Y21781D01*
X5494Y21785D01*
X5493Y21788D01*
X5492Y21791D01*
X5492Y21793D01*
X5491Y21793D01*
X5370Y22156D01*
X5268D01*
Y21644D01*
X5757D01*
Y22156D01*
D02*
G37*
G36*
X8902Y22156D02*
X8834D01*
X8754Y21827D01*
X8751Y21815D01*
X8748Y21804D01*
X8746Y21793D01*
X8743Y21783D01*
X8741Y21773D01*
X8739Y21764D01*
X8737Y21755D01*
X8735Y21747D01*
X8734Y21740D01*
X8732Y21734D01*
X8731Y21729D01*
X8730Y21724D01*
X8729Y21720D01*
X8728Y21717D01*
X8728Y21716D01*
Y21715D01*
X8723Y21747D01*
X8717Y21779D01*
X8713Y21795D01*
X8710Y21810D01*
X8707Y21824D01*
X8703Y21838D01*
X8700Y21850D01*
X8697Y21861D01*
X8695Y21872D01*
X8694Y21876D01*
X8693Y21880D01*
X8691Y21884D01*
X8691Y21887D01*
X8690Y21890D01*
X8689Y21892D01*
X8689Y21894D01*
X8689Y21895D01*
X8688Y21896D01*
Y21896D01*
X8615Y22156D01*
X8533D01*
X8436Y21810D01*
X8436Y21808D01*
X8435Y21807D01*
X8434Y21802D01*
X8433Y21797D01*
X8431Y21790D01*
X8429Y21783D01*
X8427Y21774D01*
X8423Y21758D01*
X8421Y21750D01*
X8419Y21742D01*
X8418Y21735D01*
X8416Y21728D01*
X8415Y21723D01*
X8414Y21721D01*
X8414Y21719D01*
X8413Y21717D01*
Y21716D01*
X8413Y21716D01*
Y21715D01*
X8409Y21735D01*
X8405Y21754D01*
X8404Y21763D01*
X8402Y21771D01*
X8400Y21780D01*
X8398Y21787D01*
X8397Y21794D01*
X8395Y21801D01*
X8394Y21806D01*
X8393Y21811D01*
X8392Y21815D01*
X8392Y21818D01*
X8391Y21819D01*
Y21820D01*
X8313Y22156D01*
X8244D01*
X8379Y21644D01*
X8244D01*
Y22156D01*
Y21644D01*
X8902D01*
X8762D01*
X8902Y22156D01*
D02*
G37*
G36*
X9677D02*
X9443D01*
Y21644D01*
X9894D01*
D01*
X9805Y21783D01*
X9795Y21798D01*
X9790Y21804D01*
X9785Y21811D01*
X9780Y21817D01*
X9776Y21822D01*
X9771Y21828D01*
X9767Y21832D01*
X9763Y21837D01*
X9760Y21841D01*
X9757Y21844D01*
X9754Y21847D01*
X9752Y21848D01*
X9750Y21850D01*
X9749Y21851D01*
X9749Y21851D01*
X9743Y21856D01*
X9737Y21861D01*
X9730Y21865D01*
X9723Y21869D01*
X9718Y21872D01*
X9715Y21874D01*
X9713Y21875D01*
X9711Y21876D01*
X9709Y21876D01*
X9709Y21877D01*
X9708D01*
X9722Y21879D01*
X9734Y21882D01*
X9746Y21885D01*
X9756Y21888D01*
X9766Y21892D01*
X9775Y21896D01*
X9783Y21900D01*
X9790Y21904D01*
X9797Y21908D01*
X9802Y21912D01*
X9807Y21915D01*
X9810Y21918D01*
X9813Y21921D01*
X9816Y21923D01*
X9817Y21924D01*
X9817Y21924D01*
X9823Y21931D01*
X9829Y21939D01*
X9834Y21946D01*
X9838Y21954D01*
X9841Y21962D01*
X9844Y21970D01*
X9846Y21977D01*
X9848Y21984D01*
X9850Y21991D01*
X9851Y21997D01*
X9851Y22002D01*
X9852Y22007D01*
Y22011D01*
X9853Y22014D01*
Y22015D01*
Y22016D01*
X9852Y22024D01*
X9852Y22032D01*
X9851Y22039D01*
X9849Y22046D01*
X9848Y22053D01*
X9846Y22059D01*
X9844Y22065D01*
X9842Y22070D01*
X9840Y22075D01*
X9838Y22080D01*
X9836Y22084D01*
X9834Y22087D01*
X9833Y22090D01*
X9832Y22091D01*
X9831Y22093D01*
X9831Y22093D01*
X9827Y22099D01*
X9823Y22105D01*
X9818Y22110D01*
X9813Y22116D01*
X9809Y22120D01*
X9804Y22124D01*
X9799Y22127D01*
X9794Y22131D01*
X9790Y22133D01*
X9786Y22136D01*
X9783Y22138D01*
X9780Y22139D01*
X9777Y22140D01*
X9776Y22141D01*
X9774Y22142D01*
X9774D01*
X9767Y22144D01*
X9759Y22147D01*
X9751Y22148D01*
X9743Y22150D01*
X9726Y22153D01*
X9717Y22153D01*
X9709Y22154D01*
X9701Y22155D01*
X9694Y22155D01*
X9687Y22155D01*
X9681D01*
X9677Y22156D01*
D02*
G37*
G36*
X9337D02*
X8967D01*
Y21644D01*
X9349D01*
Y21704D01*
X9034D01*
Y21878D01*
X9318D01*
Y21939D01*
X9034D01*
Y22096D01*
X9337D01*
Y22156D01*
D02*
G37*
G36*
X7462Y22156D02*
X7257D01*
Y21644D01*
X7325D01*
Y21852D01*
X7466D01*
X7475Y21852D01*
X7485Y21853D01*
X7493Y21854D01*
X7502Y21855D01*
X7510Y21856D01*
X7525Y21859D01*
X7539Y21862D01*
X7551Y21867D01*
X7562Y21871D01*
X7571Y21875D01*
X7580Y21879D01*
X7587Y21883D01*
X7593Y21887D01*
X7598Y21890D01*
X7601Y21893D01*
X7604Y21895D01*
X7606Y21897D01*
X7606Y21897D01*
X7613Y21906D01*
X7620Y21915D01*
X7625Y21924D01*
X7630Y21933D01*
X7634Y21943D01*
X7637Y21952D01*
X7640Y21961D01*
X7643Y21969D01*
X7644Y21977D01*
X7645Y21985D01*
X7647Y21991D01*
X7647Y21997D01*
X7647Y22001D01*
X7648Y22005D01*
Y22007D01*
X7647Y22022D01*
X7645Y22034D01*
X7644Y22041D01*
X7643Y22046D01*
X7641Y22052D01*
X7640Y22057D01*
X7638Y22061D01*
X7637Y22065D01*
X7636Y22069D01*
X7635Y22072D01*
X7634Y22074D01*
X7633Y22076D01*
X7633Y22077D01*
X7632Y22077D01*
X7626Y22089D01*
X7619Y22099D01*
X7612Y22107D01*
X7609Y22111D01*
X7606Y22114D01*
X7603Y22117D01*
X7600Y22120D01*
X7597Y22122D01*
X7595Y22123D01*
X7594Y22125D01*
X7592Y22126D01*
X7591Y22126D01*
X7591Y22127D01*
X7581Y22133D01*
X7570Y22138D01*
X7560Y22142D01*
X7550Y22146D01*
X7545Y22147D01*
X7541Y22148D01*
X7537Y22149D01*
X7534Y22150D01*
X7532Y22150D01*
X7530Y22150D01*
X7528Y22151D01*
X7528D01*
X7523Y22151D01*
X7517Y22153D01*
X7504Y22154D01*
X7491Y22155D01*
X7479Y22155D01*
X7473Y22155D01*
X7468D01*
X7462Y22156D01*
D02*
G37*
G36*
X6422D02*
X6355D01*
Y21644D01*
X6422D01*
Y22156D01*
D02*
G37*
G36*
X6080D02*
X6007D01*
X5811Y21644D01*
X5882D01*
X5938Y21799D01*
X6153D01*
X6212Y21644D01*
X5911D01*
X6289D01*
D01*
X6080Y22156D01*
D02*
G37*
G36*
X5811D02*
Y21644D01*
D01*
Y22156D01*
D02*
G37*
%LPD*%
G36*
X7968Y22106D02*
X7977Y22105D01*
X7986Y22104D01*
X7994Y22102D01*
X8002Y22100D01*
X8010Y22098D01*
X8017Y22096D01*
X8023Y22093D01*
X8029Y22091D01*
X8034Y22089D01*
X8039Y22086D01*
X8043Y22084D01*
X8046Y22083D01*
X8048Y22081D01*
X8050Y22081D01*
X8050Y22080D01*
X8057Y22075D01*
X8064Y22070D01*
X8071Y22064D01*
X8077Y22058D01*
X8082Y22052D01*
X8087Y22046D01*
X8092Y22040D01*
X8096Y22035D01*
X8100Y22029D01*
X8103Y22025D01*
X8105Y22020D01*
X8108Y22016D01*
X8109Y22013D01*
X8111Y22010D01*
X8111Y22009D01*
X8112Y22008D01*
X8115Y21999D01*
X8119Y21990D01*
X8122Y21981D01*
X8124Y21972D01*
X8126Y21962D01*
X8128Y21953D01*
X8129Y21945D01*
X8131Y21936D01*
X8131Y21929D01*
X8132Y21922D01*
X8132Y21915D01*
X8133Y21910D01*
X8133Y21905D01*
Y21902D01*
Y21900D01*
Y21899D01*
X8133Y21881D01*
X8131Y21865D01*
X8129Y21849D01*
X8125Y21834D01*
X8122Y21820D01*
X8118Y21808D01*
X8113Y21797D01*
X8108Y21786D01*
X8104Y21777D01*
X8099Y21769D01*
X8095Y21763D01*
X8091Y21757D01*
X8088Y21753D01*
X8086Y21750D01*
X8084Y21748D01*
X8084Y21747D01*
X8074Y21738D01*
X8064Y21729D01*
X8054Y21722D01*
X8043Y21716D01*
X8033Y21711D01*
X8022Y21706D01*
X8012Y21703D01*
X8002Y21700D01*
X7993Y21698D01*
X7984Y21696D01*
X7977Y21695D01*
X7970Y21694D01*
X7965Y21694D01*
X7963D01*
X7961Y21693D01*
X7958D01*
X7944Y21694D01*
X7931Y21696D01*
X7918Y21698D01*
X7907Y21701D01*
X7896Y21706D01*
X7885Y21710D01*
X7876Y21715D01*
X7867Y21720D01*
X7859Y21725D01*
X7852Y21730D01*
X7847Y21734D01*
X7842Y21738D01*
X7838Y21741D01*
X7835Y21744D01*
X7833Y21746D01*
X7833Y21746D01*
X7824Y21757D01*
X7816Y21768D01*
X7810Y21780D01*
X7804Y21791D01*
X7799Y21804D01*
X7795Y21816D01*
X7792Y21828D01*
X7789Y21839D01*
X7787Y21850D01*
X7786Y21860D01*
X7785Y21869D01*
X7784Y21877D01*
X7784Y21880D01*
Y21883D01*
Y21886D01*
X7783Y21888D01*
Y21890D01*
Y21891D01*
Y21892D01*
Y21892D01*
Y21903D01*
X7784Y21913D01*
X7784Y21923D01*
X7785Y21932D01*
X7786Y21941D01*
X7788Y21950D01*
X7791Y21966D01*
X7795Y21981D01*
X7799Y21995D01*
X7804Y22007D01*
X7809Y22018D01*
X7814Y22027D01*
X7819Y22035D01*
X7823Y22042D01*
X7827Y22047D01*
X7830Y22052D01*
X7833Y22054D01*
X7834Y22056D01*
X7835Y22057D01*
X7845Y22066D01*
X7855Y22073D01*
X7866Y22080D01*
X7876Y22086D01*
X7887Y22090D01*
X7897Y22094D01*
X7907Y22097D01*
X7916Y22100D01*
X7925Y22102D01*
X7933Y22104D01*
X7940Y22105D01*
X7947Y22106D01*
X7951Y22106D01*
X7955Y22106D01*
X7959D01*
X7968Y22106D01*
D02*
G37*
G36*
X7714Y21881D02*
X7714Y21868D01*
X7716Y21857D01*
X7718Y21845D01*
X7720Y21834D01*
X7722Y21823D01*
X7725Y21813D01*
X7728Y21804D01*
X7731Y21795D01*
X7733Y21788D01*
X7736Y21781D01*
X7738Y21776D01*
X7740Y21771D01*
X7741Y21768D01*
X7742Y21766D01*
X7742Y21765D01*
X7748Y21754D01*
X7755Y21744D01*
X7761Y21734D01*
X7768Y21725D01*
X7775Y21716D01*
X7782Y21709D01*
X7790Y21701D01*
X7796Y21695D01*
X7803Y21689D01*
X7809Y21684D01*
X7815Y21680D01*
X7819Y21676D01*
X7823Y21674D01*
X7826Y21672D01*
X7828Y21670D01*
X7829Y21670D01*
X7839Y21664D01*
X7850Y21659D01*
X7862Y21654D01*
X7873Y21650D01*
X7884Y21647D01*
X7895Y21644D01*
X7905Y21642D01*
X7915Y21640D01*
X7924Y21638D01*
X7932Y21637D01*
X7940Y21636D01*
X7946Y21636D01*
X7951Y21636D01*
X7955Y21635D01*
X7713Y21635D01*
Y21893D01*
X7714Y21881D01*
D02*
G37*
G36*
X6874Y21644D02*
X6606D01*
Y22046D01*
X6874Y21644D01*
D02*
G37*
G36*
X5692D02*
X5543D01*
X5692Y22072D01*
Y21644D01*
D02*
G37*
G36*
X5481D02*
X5334D01*
Y22080D01*
X5481Y21644D01*
D02*
G37*
G36*
X8573Y22091D02*
X8574Y22088D01*
X8575Y22084D01*
X8576Y22080D01*
X8578Y22075D01*
X8579Y22070D01*
X8582Y22060D01*
X8583Y22054D01*
X8585Y22050D01*
X8586Y22046D01*
X8587Y22042D01*
X8588Y22038D01*
X8588Y22036D01*
X8589Y22034D01*
Y22034D01*
X8696Y21644D01*
X8450D01*
X8557Y22034D01*
X8560Y22043D01*
X8562Y22054D01*
X8565Y22064D01*
X8567Y22073D01*
X8568Y22077D01*
X8569Y22081D01*
X8570Y22085D01*
X8571Y22088D01*
X8572Y22090D01*
X8572Y22092D01*
X8572Y22093D01*
Y22094D01*
X8573Y22091D01*
D02*
G37*
G36*
X9683Y22099D02*
X9693Y22098D01*
X9702Y22097D01*
X9710Y22096D01*
X9717Y22094D01*
X9724Y22092D01*
X9730Y22090D01*
X9736Y22087D01*
X9740Y22085D01*
X9745Y22083D01*
X9748Y22081D01*
X9751Y22079D01*
X9753Y22078D01*
X9755Y22077D01*
X9756Y22076D01*
X9756Y22076D01*
X9761Y22071D01*
X9765Y22066D01*
X9768Y22062D01*
X9772Y22056D01*
X9774Y22052D01*
X9776Y22046D01*
X9778Y22042D01*
X9779Y22037D01*
X9780Y22033D01*
X9781Y22029D01*
X9782Y22025D01*
X9782Y22022D01*
X9783Y22019D01*
Y22017D01*
Y22016D01*
Y22016D01*
X9782Y22007D01*
X9780Y21998D01*
X9778Y21990D01*
X9776Y21984D01*
X9773Y21978D01*
X9772Y21976D01*
X9771Y21974D01*
X9770Y21972D01*
X9770Y21971D01*
X9769Y21970D01*
Y21970D01*
X9763Y21963D01*
X9757Y21956D01*
X9750Y21951D01*
X9744Y21947D01*
X9738Y21943D01*
X9736Y21942D01*
X9733Y21941D01*
X9732Y21941D01*
X9730Y21940D01*
X9729Y21939D01*
X9729D01*
X9724Y21938D01*
X9719Y21936D01*
X9707Y21934D01*
X9695Y21932D01*
X9683Y21931D01*
X9678Y21931D01*
X9673Y21931D01*
X9668D01*
X9664Y21930D01*
X9511D01*
Y22099D01*
X9673D01*
X9683Y22099D01*
D02*
G37*
G36*
X9606Y21871D02*
X9613Y21871D01*
X9618Y21870D01*
X9622Y21869D01*
X9625Y21869D01*
X9627Y21869D01*
X9627D01*
X9633Y21867D01*
X9639Y21865D01*
X9644Y21862D01*
X9648Y21860D01*
X9652Y21858D01*
X9655Y21857D01*
X9657Y21855D01*
X9658Y21855D01*
X9664Y21851D01*
X9670Y21846D01*
X9675Y21840D01*
X9681Y21834D01*
X9685Y21829D01*
X9689Y21825D01*
X9690Y21823D01*
X9692Y21822D01*
X9692Y21821D01*
X9692Y21821D01*
X9696Y21816D01*
X9700Y21811D01*
X9708Y21800D01*
X9716Y21788D01*
X9724Y21776D01*
X9727Y21771D01*
X9731Y21766D01*
X9734Y21762D01*
X9736Y21758D01*
X9738Y21755D01*
X9740Y21752D01*
X9741Y21751D01*
X9741Y21750D01*
X9809Y21644D01*
X9511D01*
Y21871D01*
X9599D01*
X9606Y21871D01*
D02*
G37*
G36*
X7471Y22095D02*
X7478D01*
X7485Y22095D01*
X7490Y22094D01*
X7496Y22094D01*
X7500Y22094D01*
X7504Y22093D01*
X7508Y22093D01*
X7511Y22092D01*
X7513Y22092D01*
X7515Y22091D01*
X7517Y22091D01*
X7518D01*
X7518Y22091D01*
X7519D01*
X7528Y22087D01*
X7537Y22083D01*
X7544Y22078D01*
X7550Y22073D01*
X7555Y22068D01*
X7559Y22064D01*
X7560Y22063D01*
X7561Y22062D01*
X7562Y22061D01*
Y22060D01*
X7564Y22056D01*
X7567Y22052D01*
X7571Y22042D01*
X7574Y22033D01*
X7576Y22025D01*
X7576Y22021D01*
X7577Y22017D01*
X7577Y22014D01*
Y22011D01*
X7578Y22009D01*
Y22007D01*
Y22006D01*
Y22006D01*
X7577Y21997D01*
X7577Y21990D01*
X7575Y21983D01*
X7573Y21976D01*
X7571Y21970D01*
X7569Y21964D01*
X7567Y21959D01*
X7564Y21955D01*
X7562Y21951D01*
X7559Y21947D01*
X7556Y21944D01*
X7554Y21941D01*
X7553Y21939D01*
X7551Y21938D01*
X7550Y21937D01*
X7550Y21937D01*
X7544Y21932D01*
X7538Y21929D01*
X7531Y21925D01*
X7524Y21923D01*
X7516Y21920D01*
X7508Y21918D01*
X7493Y21915D01*
X7486Y21915D01*
X7479Y21914D01*
X7473Y21913D01*
X7468Y21913D01*
X7463Y21912D01*
X7325D01*
Y22096D01*
X7464D01*
X7471Y22095D01*
D02*
G37*
G36*
X6044Y22094D02*
X6046Y22086D01*
X6052Y22068D01*
X6058Y22050D01*
X6061Y22042D01*
X6064Y22033D01*
X6067Y22026D01*
X6069Y22018D01*
X6072Y22012D01*
X6074Y22006D01*
X6076Y22002D01*
X6077Y21999D01*
X6077Y21996D01*
X6078Y21996D01*
Y21996D01*
X6131Y21854D01*
X5958D01*
X6014Y22004D01*
X6020Y22022D01*
X6026Y22040D01*
X6028Y22049D01*
X6030Y22056D01*
X6032Y22064D01*
X6035Y22071D01*
X6036Y22078D01*
X6037Y22084D01*
X6039Y22089D01*
X6040Y22094D01*
X6040Y22097D01*
X6041Y22100D01*
X6042Y22101D01*
Y22102D01*
X6044Y22094D01*
D02*
G37*
%LPC*%
G36*
X11193Y22165D02*
X11188D01*
X11176Y22164D01*
X11163Y22163D01*
X11152Y22162D01*
X11140Y22160D01*
X11129Y22158D01*
X11119Y22155D01*
X11109Y22152D01*
X11101Y22149D01*
X11093Y22146D01*
X11085Y22144D01*
X11079Y22141D01*
X11074Y22138D01*
X11069Y22137D01*
X11067Y22135D01*
X11065Y22134D01*
X11064Y22134D01*
X11054Y22127D01*
X11044Y22121D01*
X11035Y22114D01*
X11027Y22106D01*
X11019Y22099D01*
X11012Y22091D01*
X11005Y22084D01*
X11000Y22077D01*
X10994Y22070D01*
X10990Y22063D01*
X10986Y22058D01*
X10983Y22053D01*
X10980Y22049D01*
X10978Y22046D01*
X10977Y22044D01*
X10977Y22043D01*
X10972Y22032D01*
X10967Y22020D01*
X10963Y22008D01*
X10960Y21996D01*
X10957Y21985D01*
X10954Y21973D01*
X10952Y21962D01*
X10950Y21951D01*
X10949Y21941D01*
X10948Y21932D01*
X10948Y21924D01*
X10947Y21917D01*
Y21911D01*
X10947Y21909D01*
Y22165D01*
D01*
Y21635D01*
X11400D01*
D01*
X11187D01*
X11202Y21636D01*
X11216Y21637D01*
X11229Y21639D01*
X11242Y21642D01*
X11254Y21645D01*
X11265Y21649D01*
X11276Y21653D01*
X11285Y21657D01*
X11293Y21661D01*
X11301Y21665D01*
X11307Y21669D01*
X11313Y21672D01*
X11317Y21675D01*
X11320Y21677D01*
X11322Y21679D01*
X11323Y21679D01*
X11333Y21688D01*
X11342Y21697D01*
X11350Y21707D01*
X11358Y21717D01*
X11365Y21728D01*
X11371Y21738D01*
X11377Y21749D01*
X11382Y21759D01*
X11386Y21769D01*
X11390Y21778D01*
X11393Y21785D01*
X11395Y21793D01*
X11397Y21798D01*
X11398Y21801D01*
X11398Y21803D01*
X11399Y21804D01*
X11399Y21805D01*
X11400Y21806D01*
Y21806D01*
X11332Y21823D01*
X11329Y21811D01*
X11326Y21801D01*
X11322Y21790D01*
X11317Y21781D01*
X11313Y21772D01*
X11309Y21764D01*
X11304Y21757D01*
X11300Y21750D01*
X11296Y21745D01*
X11291Y21740D01*
X11288Y21736D01*
X11284Y21732D01*
X11282Y21729D01*
X11280Y21727D01*
X11279Y21726D01*
X11278Y21726D01*
X11270Y21720D01*
X11263Y21715D01*
X11254Y21711D01*
X11246Y21707D01*
X11238Y21704D01*
X11230Y21701D01*
X11222Y21699D01*
X11215Y21697D01*
X11208Y21696D01*
X11202Y21695D01*
X11196Y21694D01*
X11191Y21694D01*
X11187D01*
X11184Y21693D01*
X11182D01*
X11173Y21694D01*
X11165Y21694D01*
X11156Y21696D01*
X11148Y21697D01*
X11141Y21699D01*
X11134Y21701D01*
X11127Y21703D01*
X11121Y21706D01*
X11115Y21708D01*
X11110Y21710D01*
X11105Y21712D01*
X11102Y21714D01*
X11099Y21715D01*
X11096Y21716D01*
X11095Y21717D01*
X11095Y21717D01*
X11087Y21722D01*
X11081Y21727D01*
X11074Y21733D01*
X11068Y21739D01*
X11063Y21745D01*
X11058Y21751D01*
X11054Y21757D01*
X11050Y21763D01*
X11047Y21768D01*
X11044Y21773D01*
X11041Y21778D01*
X11039Y21782D01*
X11037Y21785D01*
X11036Y21788D01*
X11036Y21790D01*
X11035Y21790D01*
X11032Y21799D01*
X11029Y21809D01*
X11027Y21818D01*
X11025Y21828D01*
X11021Y21847D01*
X11020Y21857D01*
X11019Y21865D01*
X11018Y21873D01*
X11018Y21881D01*
X11017Y21887D01*
X11017Y21893D01*
X11017Y21898D01*
Y21901D01*
Y21903D01*
Y21904D01*
X11017Y21914D01*
X11017Y21923D01*
X11019Y21941D01*
X11020Y21949D01*
X11022Y21957D01*
X11023Y21965D01*
X11025Y21972D01*
X11026Y21979D01*
X11027Y21985D01*
X11029Y21990D01*
X11030Y21994D01*
X11031Y21997D01*
X11032Y22000D01*
X11032Y22002D01*
Y22002D01*
X11036Y22011D01*
X11040Y22019D01*
X11044Y22027D01*
X11048Y22034D01*
X11052Y22041D01*
X11057Y22047D01*
X11062Y22053D01*
X11066Y22058D01*
X11071Y22063D01*
X11075Y22067D01*
X11078Y22070D01*
X11082Y22073D01*
X11084Y22075D01*
X11086Y22077D01*
X11088Y22078D01*
X11088Y22078D01*
X11096Y22083D01*
X11104Y22087D01*
X11112Y22091D01*
X11120Y22095D01*
X11129Y22097D01*
X11137Y22100D01*
X11145Y22101D01*
X11152Y22103D01*
X11159Y22104D01*
X11166Y22105D01*
X11172Y22106D01*
X11177Y22106D01*
X11181Y22107D01*
X11187D01*
X11196Y22106D01*
X11205Y22106D01*
X11214Y22104D01*
X11222Y22103D01*
X11229Y22101D01*
X11236Y22099D01*
X11243Y22096D01*
X11249Y22094D01*
X11254Y22091D01*
X11259Y22089D01*
X11263Y22087D01*
X11266Y22085D01*
X11269Y22083D01*
X11270Y22082D01*
X11272Y22081D01*
X11272Y22081D01*
X11278Y22076D01*
X11284Y22070D01*
X11289Y22064D01*
X11294Y22058D01*
X11299Y22051D01*
X11303Y22044D01*
X11307Y22037D01*
X11311Y22031D01*
X11314Y22025D01*
X11317Y22019D01*
X11319Y22013D01*
X11321Y22009D01*
X11322Y22005D01*
X11323Y22002D01*
X11324Y22000D01*
X11324Y22000D01*
X11391Y22015D01*
X11387Y22028D01*
X11381Y22040D01*
X11376Y22052D01*
X11370Y22063D01*
X11364Y22072D01*
X11358Y22081D01*
X11352Y22090D01*
X11346Y22097D01*
X11340Y22104D01*
X11335Y22109D01*
X11330Y22114D01*
X11326Y22118D01*
X11323Y22121D01*
X11320Y22124D01*
X11318Y22125D01*
X11317Y22126D01*
X11307Y22133D01*
X11297Y22138D01*
X11286Y22144D01*
X11275Y22148D01*
X11264Y22152D01*
X11254Y22155D01*
X11243Y22158D01*
X11233Y22160D01*
X11224Y22161D01*
X11215Y22163D01*
X11208Y22164D01*
X11201Y22164D01*
X11196Y22164D01*
X11193Y22165D01*
D02*
G37*
G36*
X12753Y22156D02*
X12434D01*
Y21644D01*
X12753D01*
Y21706D01*
Y21704D01*
X12501D01*
Y22156D01*
X12753D01*
D02*
G37*
G36*
X12371D02*
X11921D01*
Y21644D01*
X12371D01*
D01*
X12283Y21783D01*
X12273Y21798D01*
X12268Y21804D01*
X12263Y21811D01*
X12258Y21817D01*
X12253Y21822D01*
X12249Y21828D01*
X12245Y21832D01*
X12241Y21837D01*
X12237Y21841D01*
X12234Y21844D01*
X12232Y21847D01*
X12229Y21848D01*
X12228Y21850D01*
X12227Y21851D01*
X12226Y21851D01*
X12221Y21856D01*
X12214Y21861D01*
X12208Y21865D01*
X12201Y21869D01*
X12195Y21872D01*
X12192Y21874D01*
X12190Y21875D01*
X12188Y21876D01*
X12187Y21876D01*
X12186Y21877D01*
X12186D01*
X12199Y21879D01*
X12212Y21882D01*
X12223Y21885D01*
X12234Y21888D01*
X12243Y21892D01*
X12253Y21896D01*
X12261Y21900D01*
X12268Y21904D01*
X12274Y21908D01*
X12279Y21912D01*
X12284Y21915D01*
X12288Y21918D01*
X12291Y21921D01*
X12293Y21923D01*
X12294Y21924D01*
X12295Y21924D01*
X12301Y21931D01*
X12306Y21939D01*
X12311Y21946D01*
X12315Y21954D01*
X12319Y21962D01*
X12322Y21970D01*
X12324Y21977D01*
X12326Y21984D01*
X12327Y21991D01*
X12328Y21997D01*
X12329Y22002D01*
X12330Y22007D01*
Y22011D01*
X12330Y22014D01*
Y22015D01*
Y22016D01*
X12330Y22024D01*
X12329Y22032D01*
X12328Y22039D01*
X12327Y22046D01*
X12325Y22053D01*
X12323Y22059D01*
X12321Y22065D01*
X12319Y22070D01*
X12317Y22075D01*
X12315Y22080D01*
X12313Y22084D01*
X12312Y22087D01*
X12310Y22090D01*
X12310Y22091D01*
X12309Y22093D01*
X12309Y22093D01*
X12305Y22099D01*
X12300Y22105D01*
X12295Y22110D01*
X12291Y22116D01*
X12286Y22120D01*
X12281Y22124D01*
X12276Y22127D01*
X12272Y22131D01*
X12268Y22133D01*
X12264Y22136D01*
X12261Y22138D01*
X12258Y22139D01*
X12255Y22140D01*
X12253Y22141D01*
X12252Y22142D01*
X12252D01*
X12245Y22144D01*
X12237Y22147D01*
X12229Y22148D01*
X12221Y22150D01*
X12203Y22153D01*
X12195Y22153D01*
X12187Y22154D01*
X12178Y22155D01*
X12171Y22155D01*
X12165Y22155D01*
X12159D01*
X12154Y22156D01*
X12371D01*
D02*
G37*
G36*
X11850D02*
X11444D01*
Y21644D01*
X11681D01*
Y22096D01*
X11850D01*
Y22156D01*
D02*
G37*
%LPD*%
G36*
X10947Y21890D02*
X10948Y21877D01*
X10949Y21864D01*
X10951Y21851D01*
X10953Y21839D01*
X10955Y21828D01*
X10958Y21817D01*
X10960Y21807D01*
X10963Y21798D01*
X10965Y21790D01*
X10967Y21783D01*
X10970Y21777D01*
X10971Y21773D01*
X10973Y21769D01*
X10973Y21767D01*
X10974Y21767D01*
Y21766D01*
X10979Y21755D01*
X10985Y21744D01*
X10991Y21734D01*
X10997Y21724D01*
X11004Y21716D01*
X11011Y21707D01*
X11017Y21700D01*
X11023Y21694D01*
X11029Y21688D01*
X11035Y21683D01*
X11040Y21679D01*
X11044Y21675D01*
X11048Y21673D01*
X11050Y21670D01*
X11052Y21669D01*
X11052Y21669D01*
X11062Y21663D01*
X11073Y21658D01*
X11084Y21653D01*
X11095Y21649D01*
X11106Y21646D01*
X11118Y21643D01*
X11129Y21641D01*
X11139Y21639D01*
X11149Y21638D01*
X11158Y21637D01*
X11166Y21636D01*
X11173Y21636D01*
X11179D01*
X11182Y21635D01*
X10947D01*
Y21904D01*
X10947Y21890D01*
D02*
G37*
G36*
X12161Y22099D02*
X12170Y22098D01*
X12179Y22097D01*
X12187Y22096D01*
X12195Y22094D01*
X12202Y22092D01*
X12208Y22090D01*
X12213Y22087D01*
X12218Y22085D01*
X12222Y22083D01*
X12226Y22081D01*
X12229Y22079D01*
X12231Y22078D01*
X12232Y22077D01*
X12233Y22076D01*
X12234Y22076D01*
X12238Y22071D01*
X12242Y22066D01*
X12246Y22062D01*
X12249Y22056D01*
X12252Y22052D01*
X12253Y22046D01*
X12255Y22042D01*
X12257Y22037D01*
X12258Y22033D01*
X12259Y22029D01*
X12259Y22025D01*
X12260Y22022D01*
X12260Y22019D01*
Y22017D01*
Y22016D01*
Y22016D01*
X12259Y22007D01*
X12258Y21998D01*
X12256Y21990D01*
X12253Y21984D01*
X12251Y21978D01*
X12250Y21976D01*
X12249Y21974D01*
X12248Y21972D01*
X12247Y21971D01*
X12246Y21970D01*
Y21970D01*
X12241Y21963D01*
X12235Y21956D01*
X12228Y21951D01*
X12221Y21947D01*
X12215Y21943D01*
X12213Y21942D01*
X12211Y21941D01*
X12209Y21941D01*
X12208Y21940D01*
X12207Y21939D01*
X12206D01*
X12201Y21938D01*
X12196Y21936D01*
X12184Y21934D01*
X12172Y21932D01*
X12161Y21931D01*
X12155Y21931D01*
X12150Y21931D01*
X12145D01*
X12142Y21930D01*
X11989D01*
Y22099D01*
X12150D01*
X12161Y22099D01*
D02*
G37*
G36*
X12084Y21871D02*
X12091Y21871D01*
X12096Y21870D01*
X12100Y21869D01*
X12103Y21869D01*
X12104Y21869D01*
X12105D01*
X12111Y21867D01*
X12116Y21865D01*
X12121Y21862D01*
X12126Y21860D01*
X12130Y21858D01*
X12133Y21857D01*
X12135Y21855D01*
X12135Y21855D01*
X12141Y21851D01*
X12147Y21846D01*
X12153Y21840D01*
X12158Y21834D01*
X12163Y21829D01*
X12167Y21825D01*
X12168Y21823D01*
X12169Y21822D01*
X12169Y21821D01*
X12170Y21821D01*
X12174Y21816D01*
X12178Y21811D01*
X12186Y21800D01*
X12194Y21788D01*
X12202Y21776D01*
X12205Y21771D01*
X12208Y21766D01*
X12211Y21762D01*
X12214Y21758D01*
X12216Y21755D01*
X12217Y21752D01*
X12218Y21751D01*
X12219Y21750D01*
X12286Y21644D01*
X11989D01*
Y21871D01*
X12076D01*
X12084Y21871D01*
D02*
G37*
G36*
X11613Y21644D02*
X11444D01*
Y22096D01*
X11613D01*
Y21644D01*
D02*
G37*
%LPC*%
G36*
X6053Y30915D02*
X5600D01*
Y30385D01*
D01*
Y30654D01*
X5600Y30640D01*
X5601Y30627D01*
X5602Y30614D01*
X5604Y30601D01*
X5606Y30589D01*
X5608Y30578D01*
X5611Y30567D01*
X5613Y30557D01*
X5616Y30548D01*
X5618Y30540D01*
X5620Y30533D01*
X5623Y30527D01*
X5624Y30523D01*
X5626Y30519D01*
X5626Y30517D01*
X5627Y30517D01*
Y30516D01*
X5632Y30505D01*
X5638Y30494D01*
X5644Y30484D01*
X5650Y30474D01*
X5657Y30466D01*
X5664Y30457D01*
X5670Y30450D01*
X5676Y30444D01*
X5682Y30438D01*
X5688Y30433D01*
X5692Y30429D01*
X5697Y30425D01*
X5701Y30423D01*
X5703Y30420D01*
X5705Y30419D01*
X5705Y30419D01*
X5715Y30413D01*
X5726Y30408D01*
X5737Y30403D01*
X5748Y30399D01*
X5759Y30396D01*
X5771Y30393D01*
X5782Y30391D01*
X5792Y30389D01*
X5802Y30388D01*
X5811Y30387D01*
X5819Y30386D01*
X5826Y30386D01*
X5832D01*
X5835Y30385D01*
X5840D01*
X5855Y30386D01*
X5869Y30387D01*
X5882Y30389D01*
X5895Y30392D01*
X5907Y30395D01*
X5918Y30399D01*
X5929Y30403D01*
X5938Y30407D01*
X5946Y30411D01*
X5954Y30415D01*
X5960Y30419D01*
X5966Y30422D01*
X5970Y30425D01*
X5973Y30427D01*
X5975Y30429D01*
X5976Y30429D01*
X5986Y30438D01*
X5995Y30447D01*
X6003Y30457D01*
X6011Y30467D01*
X6018Y30478D01*
X6024Y30488D01*
X6030Y30499D01*
X6035Y30509D01*
X6039Y30519D01*
X6043Y30528D01*
X6046Y30535D01*
X6048Y30543D01*
X6050Y30548D01*
X6051Y30551D01*
X6051Y30553D01*
X6052Y30554D01*
X6052Y30555D01*
X6053Y30556D01*
Y30556D01*
X5985Y30573D01*
X5982Y30561D01*
X5979Y30551D01*
X5975Y30540D01*
X5970Y30531D01*
X5966Y30522D01*
X5961Y30514D01*
X5957Y30507D01*
X5953Y30500D01*
X5949Y30495D01*
X5944Y30490D01*
X5941Y30486D01*
X5937Y30482D01*
X5935Y30479D01*
X5933Y30477D01*
X5932Y30476D01*
X5931Y30476D01*
X5923Y30470D01*
X5916Y30465D01*
X5907Y30461D01*
X5899Y30457D01*
X5891Y30454D01*
X5883Y30451D01*
X5875Y30449D01*
X5868Y30447D01*
X5861Y30446D01*
X5855Y30445D01*
X5849Y30444D01*
X5844Y30444D01*
X5840D01*
X5837Y30443D01*
X5835D01*
X5826Y30444D01*
X5818Y30444D01*
X5809Y30446D01*
X5801Y30447D01*
X5794Y30449D01*
X5786Y30451D01*
X5780Y30453D01*
X5774Y30456D01*
X5768Y30458D01*
X5763Y30460D01*
X5758Y30462D01*
X5755Y30464D01*
X5752Y30465D01*
X5749Y30466D01*
X5748Y30467D01*
X5748Y30467D01*
X5740Y30472D01*
X5734Y30477D01*
X5727Y30483D01*
X5721Y30489D01*
X5716Y30495D01*
X5711Y30501D01*
X5707Y30507D01*
X5703Y30513D01*
X5700Y30518D01*
X5697Y30523D01*
X5694Y30528D01*
X5692Y30532D01*
X5690Y30535D01*
X5689Y30538D01*
X5689Y30540D01*
X5688Y30540D01*
X5685Y30549D01*
X5682Y30559D01*
X5680Y30568D01*
X5678Y30578D01*
X5674Y30597D01*
X5673Y30607D01*
X5672Y30615D01*
X5671Y30623D01*
X5671Y30631D01*
X5670Y30637D01*
X5670Y30643D01*
X5670Y30648D01*
Y30651D01*
Y30653D01*
Y30654D01*
X5670Y30664D01*
X5670Y30673D01*
X5672Y30691D01*
X5673Y30699D01*
X5675Y30707D01*
X5676Y30715D01*
X5678Y30722D01*
X5679Y30729D01*
X5680Y30735D01*
X5682Y30740D01*
X5683Y30744D01*
X5684Y30747D01*
X5685Y30750D01*
X5685Y30752D01*
Y30752D01*
X5689Y30761D01*
X5692Y30769D01*
X5697Y30777D01*
X5701Y30784D01*
X5705Y30791D01*
X5710Y30797D01*
X5715Y30803D01*
X5719Y30808D01*
X5724Y30813D01*
X5728Y30817D01*
X5731Y30820D01*
X5735Y30823D01*
X5737Y30825D01*
X5739Y30827D01*
X5741Y30828D01*
X5741Y30828D01*
X5749Y30833D01*
X5757Y30837D01*
X5765Y30841D01*
X5773Y30845D01*
X5782Y30847D01*
X5790Y30850D01*
X5798Y30851D01*
X5805Y30853D01*
X5812Y30854D01*
X5819Y30855D01*
X5825Y30856D01*
X5830Y30856D01*
X5834Y30857D01*
X5840D01*
X5849Y30856D01*
X5858Y30856D01*
X5867Y30854D01*
X5875Y30853D01*
X5882Y30851D01*
X5889Y30849D01*
X5896Y30846D01*
X5902Y30844D01*
X5907Y30841D01*
X5912Y30839D01*
X5916Y30837D01*
X5919Y30835D01*
X5922Y30833D01*
X5923Y30832D01*
X5924Y30831D01*
X5925Y30831D01*
X5931Y30826D01*
X5937Y30820D01*
X5942Y30814D01*
X5947Y30808D01*
X5952Y30801D01*
X5956Y30794D01*
X5960Y30787D01*
X5964Y30781D01*
X5967Y30775D01*
X5970Y30769D01*
X5972Y30763D01*
X5974Y30759D01*
X5975Y30755D01*
X5976Y30752D01*
X5977Y30750D01*
X5977Y30750D01*
X6044Y30765D01*
X6040Y30778D01*
X6034Y30790D01*
X6029Y30802D01*
X6023Y30813D01*
X6017Y30822D01*
X6011Y30831D01*
X6005Y30840D01*
X5999Y30847D01*
X5993Y30854D01*
X5988Y30859D01*
X5983Y30864D01*
X5979Y30868D01*
X5976Y30871D01*
X5973Y30874D01*
X5971Y30875D01*
X5970Y30876D01*
X5960Y30883D01*
X5950Y30888D01*
X5939Y30894D01*
X5928Y30898D01*
X5917Y30902D01*
X5907Y30905D01*
X5896Y30908D01*
X5886Y30910D01*
X5877Y30911D01*
X5868Y30913D01*
X5861Y30914D01*
X5854Y30914D01*
X5849Y30914D01*
X5846Y30915D01*
X6053D01*
D02*
G37*
G36*
X6363D02*
X6360D01*
X6350Y30914D01*
X6340Y30914D01*
X6331Y30913D01*
X6321Y30912D01*
X6304Y30908D01*
X6287Y30904D01*
X6271Y30898D01*
X6257Y30892D01*
X6243Y30886D01*
X6231Y30879D01*
X6220Y30872D01*
X6211Y30866D01*
X6203Y30859D01*
X6196Y30854D01*
X6191Y30849D01*
X6188Y30847D01*
X6187Y30846D01*
X6185Y30844D01*
X6184Y30843D01*
X6184Y30843D01*
X6183Y30843D01*
X6177Y30836D01*
X6171Y30829D01*
X6166Y30821D01*
X6161Y30813D01*
X6152Y30797D01*
X6144Y30781D01*
X6137Y30765D01*
X6132Y30748D01*
X6127Y30732D01*
X6124Y30716D01*
X6121Y30701D01*
X6119Y30687D01*
X6118Y30681D01*
X6117Y30675D01*
X6117Y30669D01*
X6116Y30664D01*
X6116Y30659D01*
X6115Y30655D01*
Y30652D01*
X6115Y30649D01*
Y30915D01*
D01*
D01*
Y30385D01*
D01*
Y30643D01*
X6115Y30631D01*
X6116Y30618D01*
X6118Y30607D01*
X6119Y30595D01*
X6122Y30584D01*
X6124Y30573D01*
X6127Y30563D01*
X6130Y30554D01*
X6132Y30545D01*
X6135Y30538D01*
X6138Y30531D01*
X6140Y30526D01*
X6142Y30521D01*
X6143Y30518D01*
X6144Y30516D01*
X6144Y30515D01*
X6150Y30504D01*
X6156Y30494D01*
X6163Y30484D01*
X6170Y30475D01*
X6177Y30466D01*
X6184Y30459D01*
X6192Y30451D01*
X6198Y30445D01*
X6205Y30439D01*
X6211Y30434D01*
X6216Y30430D01*
X6221Y30426D01*
X6225Y30424D01*
X6228Y30422D01*
X6230Y30420D01*
X6230Y30420D01*
X6241Y30414D01*
X6252Y30409D01*
X6264Y30404D01*
X6275Y30400D01*
X6286Y30397D01*
X6296Y30394D01*
X6307Y30392D01*
X6317Y30390D01*
X6326Y30388D01*
X6334Y30387D01*
X6341Y30386D01*
X6348Y30386D01*
X6353Y30386D01*
X6357Y30385D01*
X6605D01*
X6360D01*
X6372Y30386D01*
X6384Y30387D01*
X6396Y30388D01*
X6407Y30390D01*
X6418Y30393D01*
X6428Y30395D01*
X6438Y30398D01*
X6447Y30401D01*
X6455Y30404D01*
X6462Y30407D01*
X6469Y30409D01*
X6474Y30412D01*
X6478Y30414D01*
X6482Y30415D01*
X6484Y30416D01*
X6484Y30417D01*
X6495Y30423D01*
X6505Y30430D01*
X6514Y30437D01*
X6523Y30444D01*
X6531Y30452D01*
X6538Y30460D01*
X6545Y30467D01*
X6551Y30475D01*
X6556Y30482D01*
X6561Y30488D01*
X6565Y30494D01*
X6568Y30500D01*
X6570Y30504D01*
X6572Y30507D01*
X6573Y30509D01*
X6573Y30510D01*
X6579Y30521D01*
X6584Y30533D01*
X6588Y30545D01*
X6592Y30557D01*
X6595Y30569D01*
X6597Y30581D01*
X6599Y30592D01*
X6601Y30602D01*
X6602Y30612D01*
X6603Y30621D01*
X6604Y30629D01*
X6605Y30636D01*
Y30641D01*
X6605Y30644D01*
Y30649D01*
X6605Y30663D01*
X6604Y30677D01*
X6602Y30690D01*
X6600Y30703D01*
X6598Y30715D01*
X6595Y30726D01*
X6593Y30737D01*
X6590Y30746D01*
X6587Y30755D01*
X6585Y30763D01*
X6582Y30770D01*
X6580Y30776D01*
X6578Y30780D01*
X6576Y30784D01*
X6575Y30786D01*
X6575Y30786D01*
X6569Y30797D01*
X6563Y30808D01*
X6556Y30817D01*
X6549Y30827D01*
X6542Y30835D01*
X6534Y30843D01*
X6527Y30850D01*
X6520Y30856D01*
X6514Y30862D01*
X6508Y30867D01*
X6502Y30871D01*
X6497Y30874D01*
X6494Y30877D01*
X6491Y30879D01*
X6489Y30880D01*
X6488Y30881D01*
X6477Y30887D01*
X6466Y30892D01*
X6455Y30897D01*
X6444Y30900D01*
X6433Y30904D01*
X6423Y30907D01*
X6412Y30909D01*
X6403Y30911D01*
X6394Y30912D01*
X6386Y30913D01*
X6378Y30914D01*
X6372Y30914D01*
X6367D01*
X6363Y30915D01*
D02*
G37*
G36*
X8763Y30906D02*
X8698D01*
Y30504D01*
X8429Y30906D01*
X8360D01*
Y30394D01*
X8763D01*
Y30906D01*
D02*
G37*
G36*
X7775Y30906D02*
X7683D01*
X7561Y30550D01*
X7557Y30540D01*
X7554Y30530D01*
X7551Y30522D01*
X7548Y30514D01*
X7546Y30506D01*
X7544Y30500D01*
X7542Y30494D01*
X7540Y30488D01*
X7538Y30483D01*
X7537Y30479D01*
X7536Y30476D01*
X7535Y30473D01*
X7534Y30470D01*
X7534Y30469D01*
X7533Y30468D01*
Y30467D01*
X7532Y30473D01*
X7530Y30478D01*
X7528Y30484D01*
X7526Y30490D01*
X7522Y30503D01*
X7518Y30515D01*
X7516Y30521D01*
X7514Y30526D01*
X7513Y30531D01*
X7511Y30535D01*
X7510Y30538D01*
X7510Y30541D01*
X7509Y30543D01*
X7509Y30543D01*
X7387Y30906D01*
X7483D01*
X7286D01*
Y30394D01*
X7351D01*
Y30830D01*
X7499Y30394D01*
X7560D01*
X7709Y30822D01*
Y30394D01*
X7627D01*
X7775D01*
Y30906D01*
D02*
G37*
G36*
X7179D02*
X7088D01*
X6965Y30550D01*
X6962Y30540D01*
X6958Y30530D01*
X6956Y30522D01*
X6953Y30514D01*
X6951Y30506D01*
X6948Y30500D01*
X6946Y30494D01*
X6944Y30488D01*
X6943Y30483D01*
X6941Y30479D01*
X6940Y30476D01*
X6939Y30473D01*
X6939Y30470D01*
X6938Y30469D01*
X6938Y30468D01*
Y30467D01*
X6936Y30473D01*
X6934Y30478D01*
X6932Y30484D01*
X6931Y30490D01*
X6926Y30503D01*
X6922Y30515D01*
X6921Y30521D01*
X6919Y30526D01*
X6917Y30531D01*
X6916Y30535D01*
X6915Y30538D01*
X6914Y30541D01*
X6913Y30543D01*
X6913Y30543D01*
X6792Y30906D01*
X6887D01*
X6690D01*
Y30394D01*
X6756D01*
Y30830D01*
X6903Y30394D01*
X6965D01*
X7114Y30822D01*
Y30394D01*
X7031D01*
X7179D01*
Y30906D01*
D02*
G37*
G36*
X9063Y30906D02*
X8877D01*
Y30394D01*
X9300D01*
D01*
X9062D01*
X9078Y30394D01*
X9087Y30395D01*
X9094Y30395D01*
X9101Y30396D01*
X9108Y30396D01*
X9114Y30397D01*
X9120Y30398D01*
X9125Y30399D01*
X9130Y30400D01*
X9134Y30400D01*
X9138Y30401D01*
X9140Y30402D01*
X9142Y30402D01*
X9143Y30402D01*
X9144D01*
X9157Y30406D01*
X9169Y30410D01*
X9174Y30412D01*
X9179Y30414D01*
X9183Y30416D01*
X9188Y30419D01*
X9192Y30420D01*
X9195Y30422D01*
X9198Y30424D01*
X9200Y30425D01*
X9202Y30426D01*
X9204Y30427D01*
X9205Y30428D01*
X9205D01*
X9214Y30435D01*
X9223Y30442D01*
X9231Y30450D01*
X9238Y30457D01*
X9243Y30464D01*
X9246Y30467D01*
X9248Y30470D01*
X9249Y30471D01*
X9250Y30473D01*
X9251Y30474D01*
X9252Y30474D01*
X9259Y30486D01*
X9266Y30498D01*
X9272Y30511D01*
X9277Y30523D01*
X9279Y30528D01*
X9281Y30533D01*
X9283Y30538D01*
X9284Y30541D01*
X9285Y30544D01*
X9286Y30547D01*
X9287Y30548D01*
Y30549D01*
X9291Y30566D01*
X9294Y30584D01*
X9297Y30601D01*
X9298Y30610D01*
X9299Y30618D01*
X9299Y30625D01*
X9300Y30632D01*
X9300Y30638D01*
Y30642D01*
X9300Y30647D01*
Y30652D01*
X9300Y30665D01*
X9300Y30677D01*
X9299Y30689D01*
X9297Y30700D01*
X9296Y30711D01*
X9294Y30721D01*
X9292Y30730D01*
X9290Y30739D01*
X9288Y30747D01*
X9286Y30754D01*
X9285Y30760D01*
X9283Y30765D01*
X9282Y30769D01*
X9281Y30772D01*
X9280Y30773D01*
X9280Y30774D01*
X9276Y30784D01*
X9272Y30793D01*
X9267Y30802D01*
X9262Y30810D01*
X9257Y30818D01*
X9252Y30825D01*
X9247Y30832D01*
X9242Y30838D01*
X9237Y30843D01*
X9233Y30848D01*
X9229Y30852D01*
X9226Y30856D01*
X9223Y30858D01*
X9221Y30860D01*
X9220Y30861D01*
X9219Y30862D01*
X9213Y30867D01*
X9207Y30871D01*
X9195Y30878D01*
X9182Y30885D01*
X9171Y30890D01*
X9165Y30892D01*
X9160Y30894D01*
X9156Y30895D01*
X9152Y30897D01*
X9149Y30897D01*
X9146Y30898D01*
X9145Y30898D01*
X9145D01*
X9138Y30900D01*
X9132Y30901D01*
X9125Y30902D01*
X9117Y30903D01*
X9102Y30904D01*
X9087Y30905D01*
X9080D01*
X9074Y30905D01*
X9068D01*
X9063Y30906D01*
D02*
G37*
G36*
X8097Y30906D02*
X8025D01*
X7828Y30394D01*
X7900D01*
X7955Y30549D01*
X8170D01*
X8230Y30394D01*
X8147D01*
X8307Y30394D01*
X8097Y30906D01*
D02*
G37*
%LPD*%
G36*
X5829Y30914D02*
X5816Y30913D01*
X5805Y30912D01*
X5793Y30910D01*
X5782Y30908D01*
X5772Y30905D01*
X5762Y30902D01*
X5754Y30899D01*
X5746Y30896D01*
X5738Y30894D01*
X5732Y30891D01*
X5727Y30888D01*
X5722Y30887D01*
X5720Y30885D01*
X5718Y30884D01*
X5717Y30884D01*
X5707Y30877D01*
X5697Y30871D01*
X5688Y30864D01*
X5680Y30856D01*
X5672Y30849D01*
X5665Y30841D01*
X5658Y30834D01*
X5653Y30827D01*
X5647Y30820D01*
X5643Y30813D01*
X5639Y30808D01*
X5636Y30803D01*
X5633Y30799D01*
X5631Y30796D01*
X5630Y30794D01*
X5630Y30793D01*
X5625Y30782D01*
X5620Y30770D01*
X5616Y30758D01*
X5613Y30746D01*
X5610Y30735D01*
X5607Y30723D01*
X5605Y30712D01*
X5603Y30701D01*
X5602Y30691D01*
X5601Y30682D01*
X5601Y30674D01*
X5600Y30667D01*
Y30661D01*
X5600Y30659D01*
Y30915D01*
X5841D01*
X5829Y30914D01*
D02*
G37*
G36*
X6370Y30856D02*
X6379Y30855D01*
X6388Y30854D01*
X6396Y30852D01*
X6404Y30850D01*
X6411Y30848D01*
X6418Y30846D01*
X6425Y30843D01*
X6431Y30841D01*
X6436Y30839D01*
X6441Y30836D01*
X6445Y30834D01*
X6448Y30833D01*
X6450Y30831D01*
X6451Y30831D01*
X6452Y30830D01*
X6459Y30825D01*
X6466Y30820D01*
X6472Y30814D01*
X6479Y30808D01*
X6484Y30802D01*
X6489Y30796D01*
X6494Y30790D01*
X6498Y30785D01*
X6502Y30779D01*
X6505Y30775D01*
X6507Y30770D01*
X6509Y30766D01*
X6511Y30763D01*
X6512Y30760D01*
X6513Y30759D01*
X6514Y30758D01*
X6517Y30749D01*
X6521Y30740D01*
X6524Y30731D01*
X6526Y30722D01*
X6528Y30712D01*
X6530Y30703D01*
X6531Y30695D01*
X6532Y30686D01*
X6533Y30679D01*
X6534Y30672D01*
X6534Y30665D01*
X6535Y30660D01*
X6535Y30655D01*
Y30652D01*
Y30650D01*
Y30649D01*
X6535Y30631D01*
X6533Y30615D01*
X6531Y30599D01*
X6527Y30584D01*
X6524Y30570D01*
X6519Y30558D01*
X6515Y30547D01*
X6510Y30536D01*
X6506Y30527D01*
X6501Y30519D01*
X6497Y30513D01*
X6493Y30507D01*
X6490Y30503D01*
X6488Y30500D01*
X6486Y30498D01*
X6485Y30497D01*
X6476Y30488D01*
X6466Y30479D01*
X6455Y30472D01*
X6445Y30466D01*
X6434Y30461D01*
X6424Y30456D01*
X6414Y30453D01*
X6404Y30450D01*
X6395Y30448D01*
X6386Y30446D01*
X6379Y30445D01*
X6372Y30444D01*
X6367Y30444D01*
X6365D01*
X6363Y30443D01*
X6360D01*
X6346Y30444D01*
X6333Y30446D01*
X6320Y30448D01*
X6309Y30451D01*
X6297Y30456D01*
X6287Y30460D01*
X6277Y30465D01*
X6269Y30470D01*
X6261Y30475D01*
X6254Y30480D01*
X6249Y30484D01*
X6243Y30488D01*
X6240Y30491D01*
X6237Y30494D01*
X6235Y30496D01*
X6235Y30496D01*
X6226Y30507D01*
X6218Y30518D01*
X6212Y30530D01*
X6206Y30541D01*
X6201Y30554D01*
X6197Y30566D01*
X6194Y30578D01*
X6191Y30589D01*
X6189Y30600D01*
X6188Y30610D01*
X6186Y30619D01*
X6186Y30627D01*
X6185Y30630D01*
Y30633D01*
Y30636D01*
X6185Y30638D01*
Y30640D01*
Y30641D01*
Y30642D01*
Y30642D01*
Y30653D01*
X6186Y30663D01*
X6186Y30673D01*
X6187Y30682D01*
X6188Y30691D01*
X6190Y30700D01*
X6193Y30716D01*
X6197Y30731D01*
X6201Y30745D01*
X6206Y30757D01*
X6211Y30768D01*
X6216Y30777D01*
X6220Y30785D01*
X6225Y30792D01*
X6229Y30797D01*
X6232Y30802D01*
X6235Y30804D01*
X6236Y30806D01*
X6237Y30807D01*
X6247Y30816D01*
X6257Y30823D01*
X6267Y30830D01*
X6278Y30836D01*
X6289Y30840D01*
X6299Y30844D01*
X6309Y30847D01*
X6318Y30850D01*
X6327Y30852D01*
X6335Y30854D01*
X6342Y30855D01*
X6349Y30856D01*
X6353Y30856D01*
X6357Y30856D01*
X6360D01*
X6370Y30856D01*
D02*
G37*
G36*
X8693Y30394D02*
X8425D01*
Y30796D01*
X8693Y30394D01*
D02*
G37*
G36*
X9073Y30845D02*
X9082Y30844D01*
X9091Y30844D01*
X9099Y30843D01*
X9106Y30842D01*
X9113Y30841D01*
X9119Y30840D01*
X9124Y30839D01*
X9128Y30838D01*
X9132Y30837D01*
X9135Y30837D01*
X9137Y30836D01*
X9139Y30835D01*
X9139Y30835D01*
X9140D01*
X9147Y30832D01*
X9153Y30828D01*
X9160Y30824D01*
X9166Y30820D01*
X9171Y30815D01*
X9177Y30810D01*
X9182Y30805D01*
X9186Y30800D01*
X9190Y30796D01*
X9193Y30791D01*
X9196Y30787D01*
X9199Y30784D01*
X9201Y30781D01*
X9203Y30779D01*
X9203Y30777D01*
X9204Y30777D01*
X9209Y30768D01*
X9213Y30759D01*
X9216Y30749D01*
X9219Y30739D01*
X9222Y30729D01*
X9224Y30719D01*
X9226Y30709D01*
X9227Y30699D01*
X9228Y30690D01*
X9229Y30681D01*
X9230Y30673D01*
X9230Y30667D01*
X9230Y30661D01*
Y30659D01*
Y30657D01*
Y30655D01*
Y30654D01*
Y30654D01*
Y30654D01*
Y30643D01*
X9230Y30632D01*
X9229Y30623D01*
X9228Y30614D01*
X9227Y30605D01*
X9226Y30597D01*
X9225Y30589D01*
X9224Y30582D01*
X9222Y30576D01*
X9221Y30571D01*
X9220Y30566D01*
X9219Y30562D01*
X9218Y30559D01*
X9217Y30557D01*
X9217Y30555D01*
Y30555D01*
X9214Y30547D01*
X9211Y30540D01*
X9208Y30534D01*
X9205Y30527D01*
X9202Y30522D01*
X9199Y30516D01*
X9196Y30511D01*
X9193Y30507D01*
X9190Y30503D01*
X9188Y30500D01*
X9185Y30497D01*
X9183Y30494D01*
X9182Y30493D01*
X9180Y30491D01*
X9180Y30490D01*
X9179Y30490D01*
X9172Y30484D01*
X9165Y30479D01*
X9157Y30474D01*
X9150Y30470D01*
X9143Y30467D01*
X9141Y30466D01*
X9138Y30465D01*
X9136Y30464D01*
X9134Y30464D01*
X9133Y30463D01*
X9133D01*
X9128Y30462D01*
X9122Y30460D01*
X9109Y30458D01*
X9095Y30456D01*
X9083Y30455D01*
X9077Y30455D01*
X9071Y30454D01*
X9067D01*
X9062Y30454D01*
X8945D01*
Y30846D01*
X9063D01*
X9073Y30845D01*
D02*
G37*
G36*
X8061Y30844D02*
X8064Y30836D01*
X8070Y30818D01*
X8076Y30800D01*
X8079Y30792D01*
X8082Y30783D01*
X8085Y30776D01*
X8087Y30768D01*
X8089Y30762D01*
X8091Y30756D01*
X8093Y30752D01*
X8094Y30749D01*
X8095Y30746D01*
X8095Y30746D01*
Y30746D01*
X8149Y30604D01*
X7975D01*
X8031Y30754D01*
X8038Y30772D01*
X8043Y30790D01*
X8046Y30799D01*
X8048Y30806D01*
X8050Y30814D01*
X8052Y30821D01*
X8053Y30828D01*
X8055Y30834D01*
X8056Y30839D01*
X8057Y30844D01*
X8058Y30847D01*
X8059Y30850D01*
X8059Y30851D01*
Y30852D01*
X8061Y30844D01*
D02*
G37*
D10*
X14060Y32336D02*
G03*
X14060Y32336I-49J0D01*
G01*
D11*
X32164Y34250D02*
G03*
X32164Y34250I-394J0D01*
G01*
X34050Y10150D02*
G03*
X34050Y9650I0J-250D01*
G01*
X20150Y3500D02*
X21250D01*
X20150Y3300D02*
Y3500D01*
Y3300D02*
X21250D01*
Y3500D01*
X10645Y33999D02*
X13391D01*
X13755Y33635D01*
Y33005D02*
Y33635D01*
X10645Y31401D02*
X13401D01*
X13755Y31755D01*
Y32395D01*
X10645Y31401D02*
Y32395D01*
Y33005D02*
Y33999D01*
X27450Y5200D02*
X30140D01*
X27450Y600D02*
Y5200D01*
Y600D02*
X33450D01*
Y5200D01*
X30890D02*
X33450D01*
X30140Y5100D02*
X30890D01*
Y5200D01*
X30140Y5100D02*
Y5200D01*
X31100Y20250D02*
X31250D01*
X31100Y19520D02*
X31250D01*
Y20250D01*
X35850Y15900D02*
Y23900D01*
X31100Y15900D02*
X35850D01*
X31100Y23900D02*
X35850D01*
X31100Y20270D02*
Y23900D01*
Y15900D02*
Y19520D01*
X31624Y35065D02*
Y37015D01*
X27640Y36110D02*
Y37000D01*
X27650Y36990D01*
X27640Y37000D02*
X28510D01*
Y36110D02*
Y37000D01*
Y36110D02*
X29410D01*
Y37010D01*
X30340D01*
Y36110D02*
Y37010D01*
Y36110D02*
X31130D01*
Y37020D01*
X32060D01*
Y35070D02*
Y37020D01*
X27187Y34844D02*
X32306D01*
X27188Y28348D02*
X32306D01*
X27187Y37324D02*
X32257D01*
X27187Y28348D02*
Y37320D01*
X32306Y28348D02*
Y37320D01*
X31240Y33700D02*
Y34844D01*
Y33700D02*
X32310D01*
X31350Y7350D02*
Y9300D01*
Y7350D02*
X34050D01*
Y9250D01*
Y10450D02*
Y12250D01*
X31350D02*
X34050D01*
X31350Y12150D02*
Y12250D01*
Y10200D02*
Y12150D01*
Y9250D02*
Y10550D01*
X34050Y9250D02*
Y9650D01*
Y10150D02*
Y10550D01*
X239Y31825D02*
X3625D01*
X239Y20675D02*
X3625D01*
X239D02*
Y31825D01*
X485Y20675D02*
Y31825D01*
X3625Y20675D02*
Y31825D01*
X289Y3625D02*
X3675D01*
X289Y12775D02*
X3675D01*
X289Y3625D02*
Y12775D01*
X525Y3625D02*
Y12775D01*
X3675Y3625D02*
Y12775D01*
X525Y13125D02*
Y20275D01*
X289Y13125D02*
Y20275D01*
X3675Y13125D02*
Y20275D01*
X289D02*
X3675D01*
X289Y13125D02*
X3675D01*
X5770Y330D02*
X10850D01*
X5710Y3290D02*
X10900D01*
X5710Y200D02*
Y3290D01*
X10900Y200D02*
Y3290D01*
X5710Y200D02*
X10900D01*
X22050Y27150D02*
Y28250D01*
X21850D02*
X22050D01*
X21850Y27150D02*
Y28250D01*
Y27150D02*
X22050D01*
X16250Y26900D02*
Y28000D01*
X16050D02*
X16250D01*
X16050Y26900D02*
Y28000D01*
Y26900D02*
X16250D01*
X16050Y19200D02*
Y20300D01*
X15850D02*
X16050D01*
X15850Y19200D02*
Y20300D01*
Y19200D02*
X16050D01*
X23950Y32500D02*
Y33600D01*
Y32500D02*
X24150D01*
Y33600D01*
X23950D02*
X24150D01*
X16250Y24550D02*
Y25650D01*
X16050D02*
X16250D01*
X16050Y24550D02*
Y25650D01*
Y24550D02*
X16250D01*
X16450Y16200D02*
Y17300D01*
X16250D02*
X16450D01*
X16250Y16200D02*
Y17300D01*
Y16200D02*
X16450D01*
X23300Y3450D02*
X24400D01*
X23300Y3250D02*
Y3450D01*
Y3250D02*
X24400D01*
Y3450D01*
X19767Y2583D02*
Y2917D01*
X19683Y3000D01*
X19517D01*
X19433Y2917D01*
Y2583D01*
X19517Y2500D01*
X19683D01*
X19600Y2667D02*
X19767Y2500D01*
X19683D02*
X19767Y2583D01*
X20183Y2500D02*
Y3000D01*
X19933Y2750D01*
X20267D01*
X18733Y34300D02*
Y33883D01*
X18817Y33800D01*
X18983D01*
X19067Y33883D01*
Y34300D01*
X19567Y33800D02*
X19233D01*
X19567Y34133D01*
Y34217D01*
X19483Y34300D01*
X19317D01*
X19233Y34217D01*
X7335Y10510D02*
Y10093D01*
X7419Y10010D01*
X7585D01*
X7669Y10093D01*
Y10510D01*
X7835Y10010D02*
X8002D01*
X7919D01*
Y10510D01*
X7835Y10427D01*
X17117Y30150D02*
Y29650D01*
X17450D01*
X17617D02*
X17783D01*
X17700D01*
Y30150D01*
X17617Y30067D01*
X14850Y15817D02*
X14350D01*
X14517D01*
X14850Y15483D01*
X14600Y15733D01*
X14350Y15483D01*
Y14983D02*
Y15317D01*
X14683Y14983D01*
X14767D01*
X14850Y15067D01*
Y15233D01*
X14767Y15317D01*
X19350Y5116D02*
X19850D01*
Y4867D01*
X19767Y4783D01*
X19600D01*
X19517Y4867D01*
Y5116D01*
Y4950D02*
X19350Y4783D01*
Y4283D02*
Y4617D01*
X19683Y4283D01*
X19767D01*
X19850Y4367D01*
Y4533D01*
X19767Y4617D01*
Y4117D02*
X19850Y4033D01*
Y3867D01*
X19767Y3784D01*
X19683D01*
X19600Y3867D01*
Y3950D01*
Y3867D01*
X19517Y3784D01*
X19433D01*
X19350Y3867D01*
Y4033D01*
X19433Y4117D01*
X12167Y34667D02*
X12083Y34750D01*
X11917D01*
X11833Y34667D01*
Y34333D01*
X11917Y34250D01*
X12083D01*
X12167Y34333D01*
X12583Y34250D02*
Y34750D01*
X12333Y34500D01*
X12667D01*
X19300Y24150D02*
Y24750D01*
X19600D01*
X19700Y24650D01*
Y24450D01*
X19600Y24350D01*
X19300D01*
X19900Y24750D02*
Y24250D01*
X20000Y24150D01*
X20200D01*
X20300Y24250D01*
Y24750D01*
X20500Y24150D02*
X20700D01*
X20600D01*
Y24750D01*
X20500Y24650D01*
X26750Y5400D02*
X26683Y5333D01*
X26550D01*
X26483Y5267D01*
X24000Y5400D02*
X23933Y5333D01*
X23800D01*
X23733Y5267D01*
X27500Y6150D02*
Y6750D01*
X27800D01*
X27900Y6650D01*
Y6450D01*
X27800Y6350D01*
X27500D01*
X28500Y6750D02*
X28100D01*
Y6450D01*
X28300Y6550D01*
X28400D01*
X28500Y6450D01*
Y6250D01*
X28400Y6150D01*
X28200D01*
X28100Y6250D01*
X31100Y5750D02*
Y5550D01*
Y5650D01*
X31700D01*
X31600Y5750D01*
X30550Y24340D02*
Y24940D01*
X30850D01*
X30950Y24840D01*
Y24640D01*
X30850Y24540D01*
X30550D01*
X31550Y24940D02*
X31350Y24840D01*
X31150Y24640D01*
Y24440D01*
X31250Y24340D01*
X31450D01*
X31550Y24440D01*
Y24540D01*
X31450Y24640D01*
X31150D01*
X30550Y21700D02*
X30750D01*
X30650D01*
Y22300D01*
X30550Y22200D01*
X13450Y3179D02*
X13117D01*
Y2929D01*
X13283D01*
X13117D01*
Y2679D01*
X13617D02*
X13783D01*
X13700D01*
Y3179D01*
X13617Y3096D01*
X24833Y35200D02*
Y34783D01*
X24917Y34700D01*
X25083D01*
X25167Y34783D01*
Y35200D01*
X25333Y35117D02*
X25417Y35200D01*
X25583D01*
X25667Y35117D01*
Y35033D01*
X25583Y34950D01*
X25500D01*
X25583D01*
X25667Y34867D01*
Y34783D01*
X25583Y34700D01*
X25417D01*
X25333Y34783D01*
X34600Y9317D02*
X34517Y9400D01*
X34350D01*
X34267Y9317D01*
Y9233D01*
X34350Y9150D01*
X34517D01*
X34600Y9067D01*
Y8983D01*
X34517Y8900D01*
X34350D01*
X34267Y8983D01*
X34767Y8900D02*
X34933D01*
X34850D01*
Y9400D01*
X34767Y9317D01*
X4750Y27217D02*
X5150D01*
Y27017D01*
X5083Y26950D01*
X4950D01*
X4883Y27017D01*
Y27217D01*
X4750Y26817D02*
Y26683D01*
Y26750D01*
X5150D01*
X5083Y26817D01*
X4159Y21080D02*
Y20947D01*
Y21013D01*
X4558D01*
X4492Y21080D01*
X5000Y6333D02*
X5400D01*
Y6133D01*
X5333Y6067D01*
X5200D01*
X5133Y6133D01*
Y6333D01*
X5333Y5933D02*
X5400Y5867D01*
Y5733D01*
X5333Y5667D01*
X5267D01*
X5200Y5733D01*
Y5800D01*
Y5733D01*
X5133Y5667D01*
X5067D01*
X5000Y5733D01*
Y5867D01*
X5067Y5933D01*
X4170Y3540D02*
Y3407D01*
Y3473D01*
X4570D01*
X4503Y3540D01*
X4600Y18167D02*
X5100D01*
Y17917D01*
X5017Y17833D01*
X4850D01*
X4767Y17917D01*
Y18167D01*
X4600Y17333D02*
Y17667D01*
X4933Y17333D01*
X5017D01*
X5100Y17417D01*
Y17583D01*
X5017Y17667D01*
X4120Y13720D02*
Y13587D01*
Y13653D01*
X4520D01*
X4453Y13720D01*
X11200Y2350D02*
X11800D01*
Y2050D01*
X11700Y1950D01*
X11500D01*
X11400Y2050D01*
Y2350D01*
X11200Y1450D02*
X11800D01*
X11500Y1750D01*
Y1350D01*
X17005Y23812D02*
X17089Y23895D01*
Y24061D01*
X17005Y24145D01*
X16672D01*
X16589Y24061D01*
Y23895D01*
X16672Y23812D01*
X16589Y23645D02*
Y23478D01*
Y23562D01*
X17089D01*
X17005Y23645D01*
Y23228D02*
X17089Y23145D01*
Y22979D01*
X17005Y22895D01*
X16672D01*
X16589Y22979D01*
Y23145D01*
X16672Y23228D01*
X17005D01*
X23200Y2117D02*
X22700D01*
Y1867D01*
X22783Y1783D01*
X23117D01*
X23200Y1867D01*
Y2117D01*
X22783Y1617D02*
X22700Y1533D01*
Y1367D01*
X22783Y1283D01*
X23117D01*
X23200Y1367D01*
Y1533D01*
X23117Y1617D01*
X23033D01*
X22950Y1533D01*
Y1283D01*
X9469Y10437D02*
X9385Y10520D01*
X9219D01*
X9135Y10437D01*
Y10103D01*
X9219Y10020D01*
X9385D01*
X9469Y10103D01*
X9635Y10020D02*
X9802D01*
X9719D01*
Y10520D01*
X9635Y10437D01*
X9495Y7767D02*
X9412Y7850D01*
X9245D01*
X9162Y7767D01*
Y7433D01*
X9245Y7350D01*
X9412D01*
X9495Y7433D01*
X9662Y7767D02*
X9745Y7850D01*
X9912D01*
X9995Y7767D01*
Y7683D01*
X9912Y7600D01*
X9829D01*
X9912D01*
X9995Y7517D01*
Y7433D01*
X9912Y7350D01*
X9745D01*
X9662Y7433D01*
X21017Y25617D02*
X20933Y25700D01*
X20767D01*
X20683Y25617D01*
Y25283D01*
X20767Y25200D01*
X20933D01*
X21017Y25283D01*
X21517Y25200D02*
X21183D01*
X21517Y25533D01*
Y25617D01*
X21433Y25700D01*
X21267D01*
X21183Y25617D01*
X25095Y25467D02*
X25012Y25550D01*
X24845D01*
X24762Y25467D01*
Y25133D01*
X24845Y25050D01*
X25012D01*
X25095Y25133D01*
X25595Y25550D02*
X25262D01*
Y25300D01*
X25429Y25383D01*
X25512D01*
X25595Y25300D01*
Y25133D01*
X25512Y25050D01*
X25345D01*
X25262Y25133D01*
X16017Y30667D02*
X15933Y30750D01*
X15767D01*
X15683Y30667D01*
Y30333D01*
X15767Y30250D01*
X15933D01*
X16017Y30333D01*
X16517Y30750D02*
X16350Y30667D01*
X16183Y30500D01*
Y30333D01*
X16267Y30250D01*
X16433D01*
X16517Y30333D01*
Y30417D01*
X16433Y30500D01*
X16183D01*
X22473Y32617D02*
X22390Y32700D01*
X22223D01*
X22140Y32617D01*
Y32283D01*
X22223Y32200D01*
X22390D01*
X22473Y32283D01*
X22640Y32700D02*
X22973D01*
Y32617D01*
X22640Y32283D01*
Y32200D01*
X23677Y30805D02*
X23593Y30889D01*
X23427D01*
X23343Y30805D01*
Y30472D01*
X23427Y30389D01*
X23593D01*
X23677Y30472D01*
X23843Y30805D02*
X23927Y30889D01*
X24093D01*
X24177Y30805D01*
Y30722D01*
X24093Y30639D01*
X24177Y30555D01*
Y30472D01*
X24093Y30389D01*
X23927D01*
X23843Y30472D01*
Y30555D01*
X23927Y30639D01*
X23843Y30722D01*
Y30805D01*
X23927Y30639D02*
X24093D01*
X23710Y29875D02*
X23627Y29959D01*
X23460D01*
X23377Y29875D01*
Y29542D01*
X23460Y29459D01*
X23627D01*
X23710Y29542D01*
X23877D02*
X23960Y29459D01*
X24127D01*
X24210Y29542D01*
Y29875D01*
X24127Y29959D01*
X23960D01*
X23877Y29875D01*
Y29792D01*
X23960Y29709D01*
X24210D01*
X21567Y28950D02*
Y28450D01*
X21817D01*
X21900Y28533D01*
Y28867D01*
X21817Y28950D01*
X21567D01*
X22067Y28450D02*
X22233D01*
X22150D01*
Y28950D01*
X22067Y28867D01*
X18936Y26400D02*
Y25900D01*
X19186D01*
X19269Y25983D01*
Y26317D01*
X19186Y26400D01*
X18936D01*
X19769Y25900D02*
X19436D01*
X19769Y26233D01*
Y26317D01*
X19686Y26400D01*
X19519D01*
X19436Y26317D01*
X16183Y28750D02*
Y28250D01*
X16433D01*
X16517Y28333D01*
Y28667D01*
X16433Y28750D01*
X16183D01*
X16683Y28667D02*
X16767Y28750D01*
X16933D01*
X17017Y28667D01*
Y28583D01*
X16933Y28500D01*
X16850D01*
X16933D01*
X17017Y28417D01*
Y28333D01*
X16933Y28250D01*
X16767D01*
X16683Y28333D01*
X18183Y20350D02*
Y19850D01*
X18433D01*
X18517Y19933D01*
Y20267D01*
X18433Y20350D01*
X18183D01*
X18933Y19850D02*
Y20350D01*
X18683Y20100D01*
X19017D01*
X15533Y21000D02*
Y20500D01*
X15783D01*
X15867Y20583D01*
Y20917D01*
X15783Y21000D01*
X15533D01*
X16367D02*
X16033D01*
Y20750D01*
X16200Y20833D01*
X16283D01*
X16367Y20750D01*
Y20583D01*
X16283Y20500D01*
X16117D01*
X16033Y20583D01*
X23350Y26167D02*
X22850D01*
Y25917D01*
X22933Y25833D01*
X23267D01*
X23350Y25917D01*
Y26167D01*
Y25333D02*
X23267Y25500D01*
X23100Y25667D01*
X22933D01*
X22850Y25583D01*
Y25417D01*
X22933Y25333D01*
X23017D01*
X23100Y25417D01*
Y25667D01*
X23633Y34300D02*
Y33800D01*
X23883D01*
X23967Y33883D01*
Y34217D01*
X23883Y34300D01*
X23633D01*
X24133D02*
X24467D01*
Y34217D01*
X24133Y33883D01*
Y33800D01*
X26450Y1967D02*
X25950D01*
Y1717D01*
X26033Y1633D01*
X26367D01*
X26450Y1717D01*
Y1967D01*
X26367Y1467D02*
X26450Y1383D01*
Y1217D01*
X26367Y1133D01*
X26283D01*
X26200Y1217D01*
X26117Y1133D01*
X26033D01*
X25950Y1217D01*
Y1383D01*
X26033Y1467D01*
X26117D01*
X26200Y1383D01*
X26283Y1467D01*
X26367D01*
X26200Y1383D02*
Y1217D01*
X14900Y24533D02*
X14400D01*
X14567D01*
X14900Y24200D01*
X14650Y24450D01*
X14400Y24200D01*
Y24033D02*
Y23867D01*
Y23950D01*
X14900D01*
X14817Y24033D01*
X15400Y25533D02*
Y25867D01*
X15317Y25950D01*
X15150D01*
X15067Y25867D01*
Y25533D01*
X15150Y25450D01*
X15317D01*
X15233Y25617D02*
X15400Y25450D01*
X15317D02*
X15400Y25533D01*
X15567Y25450D02*
X15733D01*
X15650D01*
Y25950D01*
X15567Y25867D01*
X16357Y17583D02*
Y17917D01*
X16273Y18000D01*
X16107D01*
X16023Y17917D01*
Y17583D01*
X16107Y17500D01*
X16273D01*
X16190Y17667D02*
X16357Y17500D01*
X16273D02*
X16357Y17583D01*
X16857Y17500D02*
X16523D01*
X16857Y17833D01*
Y17917D01*
X16773Y18000D01*
X16607D01*
X16523Y17917D01*
X22967Y2583D02*
Y2917D01*
X22883Y3000D01*
X22717D01*
X22633Y2917D01*
Y2583D01*
X22717Y2500D01*
X22883D01*
X22800Y2667D02*
X22967Y2500D01*
X22883D02*
X22967Y2583D01*
X23133Y2917D02*
X23217Y3000D01*
X23383D01*
X23467Y2917D01*
Y2833D01*
X23383Y2750D01*
X23300D01*
X23383D01*
X23467Y2667D01*
Y2583D01*
X23383Y2500D01*
X23217D01*
X23133Y2583D01*
X20467Y26800D02*
Y27300D01*
X20717D01*
X20800Y27217D01*
Y27050D01*
X20717Y26967D01*
X20467D01*
X20633D02*
X20800Y26800D01*
X20967D02*
X21133D01*
X21050D01*
Y27300D01*
X20967Y27217D01*
X8083Y31550D02*
Y32050D01*
X8333D01*
X8417Y31967D01*
Y31800D01*
X8333Y31717D01*
X8083D01*
X8250D02*
X8417Y31550D01*
X8917D02*
X8583D01*
X8917Y31883D01*
Y31967D01*
X8833Y32050D01*
X8667D01*
X8583Y31967D01*
X18483Y26800D02*
Y27300D01*
X18733D01*
X18817Y27217D01*
Y27050D01*
X18733Y26967D01*
X18483D01*
X18650D02*
X18817Y26800D01*
X18983Y27217D02*
X19067Y27300D01*
X19233D01*
X19317Y27217D01*
Y27133D01*
X19233Y27050D01*
X19150D01*
X19233D01*
X19317Y26967D01*
Y26883D01*
X19233Y26800D01*
X19067D01*
X18983Y26883D01*
X17950Y25467D02*
X18450D01*
Y25217D01*
X18367Y25133D01*
X18200D01*
X18117Y25217D01*
Y25467D01*
Y25300D02*
X17950Y25133D01*
Y24717D02*
X18450D01*
X18200Y24967D01*
Y24633D01*
X18183Y19050D02*
Y19550D01*
X18433D01*
X18517Y19467D01*
Y19300D01*
X18433Y19217D01*
X18183D01*
X18350D02*
X18517Y19050D01*
X19017Y19550D02*
X18683D01*
Y19300D01*
X18850Y19383D01*
X18933D01*
X19017Y19300D01*
Y19133D01*
X18933Y19050D01*
X18767D01*
X18683Y19133D01*
X18200Y17267D02*
X18700D01*
Y17017D01*
X18617Y16933D01*
X18450D01*
X18367Y17017D01*
Y17267D01*
Y17100D02*
X18200Y16933D01*
X18700Y16433D02*
X18617Y16600D01*
X18450Y16767D01*
X18283D01*
X18200Y16683D01*
Y16517D01*
X18283Y16433D01*
X18367D01*
X18450Y16517D01*
Y16767D01*
X15950Y34317D02*
X16450D01*
Y34067D01*
X16367Y33983D01*
X16200D01*
X16117Y34067D01*
Y34317D01*
Y34150D02*
X15950Y33983D01*
X16450Y33817D02*
Y33483D01*
X16367D01*
X16033Y33817D01*
X15950D01*
X22983Y27600D02*
Y28100D01*
X23233D01*
X23317Y28017D01*
Y27850D01*
X23233Y27767D01*
X22983D01*
X23150D02*
X23317Y27600D01*
X23483Y28017D02*
X23567Y28100D01*
X23733D01*
X23817Y28017D01*
Y27933D01*
X23733Y27850D01*
X23817Y27767D01*
Y27683D01*
X23733Y27600D01*
X23567D01*
X23483Y27683D01*
Y27767D01*
X23567Y27850D01*
X23483Y27933D01*
Y28017D01*
X23567Y27850D02*
X23733D01*
X15150Y34317D02*
X15650D01*
Y34067D01*
X15567Y33983D01*
X15400D01*
X15317Y34067D01*
Y34317D01*
Y34150D02*
X15150Y33983D01*
X15233Y33817D02*
X15150Y33733D01*
Y33567D01*
X15233Y33483D01*
X15567D01*
X15650Y33567D01*
Y33733D01*
X15567Y33817D01*
X15483D01*
X15400Y33733D01*
Y33483D01*
X24846Y32215D02*
X25346D01*
Y31965D01*
X25262Y31882D01*
X25096D01*
X25012Y31965D01*
Y32215D01*
Y32048D02*
X24846Y31882D01*
Y31715D02*
Y31548D01*
Y31632D01*
X25346D01*
X25262Y31715D01*
Y31298D02*
X25346Y31215D01*
Y31049D01*
X25262Y30965D01*
X24929D01*
X24846Y31049D01*
Y31215D01*
X24929Y31298D01*
X25262D01*
X18309Y22451D02*
X18809D01*
Y22202D01*
X18725Y22118D01*
X18559D01*
X18475Y22202D01*
Y22451D01*
Y22285D02*
X18309Y22118D01*
Y21952D02*
Y21785D01*
Y21868D01*
X18809D01*
X18725Y21952D01*
X18309Y21535D02*
Y21369D01*
Y21452D01*
X18809D01*
X18725Y21535D01*
X33500Y26525D02*
X34000D01*
Y26275D01*
X33917Y26192D01*
X33750D01*
X33667Y26275D01*
Y26525D01*
Y26358D02*
X33500Y26192D01*
Y26025D02*
Y25858D01*
Y25942D01*
X34000D01*
X33917Y26025D01*
X33500Y25275D02*
Y25608D01*
X33833Y25275D01*
X33917D01*
X34000Y25359D01*
Y25525D01*
X33917Y25608D01*
X23675Y1300D02*
Y1800D01*
X23925D01*
X24008Y1717D01*
Y1550D01*
X23925Y1467D01*
X23675D01*
X23842D02*
X24008Y1300D01*
X24175D02*
X24342D01*
X24258D01*
Y1800D01*
X24175Y1717D01*
X24592D02*
X24675Y1800D01*
X24841D01*
X24925Y1717D01*
Y1633D01*
X24841Y1550D01*
X24758D01*
X24841D01*
X24925Y1467D01*
Y1383D01*
X24841Y1300D01*
X24675D01*
X24592Y1383D01*
X26150Y4325D02*
X26650D01*
Y4075D01*
X26567Y3992D01*
X26400D01*
X26317Y4075D01*
Y4325D01*
Y4158D02*
X26150Y3992D01*
Y3825D02*
Y3658D01*
Y3742D01*
X26650D01*
X26567Y3825D01*
X26150Y3159D02*
X26650D01*
X26400Y3408D01*
Y3075D01*
X22675Y28550D02*
Y29050D01*
X22925D01*
X23008Y28967D01*
Y28800D01*
X22925Y28717D01*
X22675D01*
X22842D02*
X23008Y28550D01*
X23175D02*
X23342D01*
X23258D01*
Y29050D01*
X23175Y28967D01*
X23925Y29050D02*
X23592D01*
Y28800D01*
X23758Y28883D01*
X23841D01*
X23925Y28800D01*
Y28633D01*
X23841Y28550D01*
X23675D01*
X23592Y28633D01*
X14900Y22575D02*
X15400D01*
Y22325D01*
X15317Y22242D01*
X15150D01*
X15067Y22325D01*
Y22575D01*
Y22408D02*
X14900Y22242D01*
Y22075D02*
Y21908D01*
Y21992D01*
X15400D01*
X15317Y22075D01*
X15400Y21325D02*
X15317Y21492D01*
X15150Y21658D01*
X14983D01*
X14900Y21575D01*
Y21409D01*
X14983Y21325D01*
X15067D01*
X15150Y21409D01*
Y21658D01*
X24625Y4300D02*
Y4800D01*
X24875D01*
X24958Y4717D01*
Y4550D01*
X24875Y4467D01*
X24625D01*
X24792D02*
X24958Y4300D01*
X25125D02*
X25292D01*
X25208D01*
Y4800D01*
X25125Y4717D01*
X25542Y4800D02*
X25875D01*
Y4717D01*
X25542Y4383D01*
Y4300D01*
X24332Y26950D02*
Y27450D01*
X24581D01*
X24665Y27367D01*
Y27200D01*
X24581Y27117D01*
X24332D01*
X24498D02*
X24665Y26950D01*
X24831D02*
X24998D01*
X24915D01*
Y27450D01*
X24831Y27367D01*
X25248D02*
X25331Y27450D01*
X25498D01*
X25581Y27367D01*
Y27283D01*
X25498Y27200D01*
X25581Y27117D01*
Y27033D01*
X25498Y26950D01*
X25331D01*
X25248Y27033D01*
Y27117D01*
X25331Y27200D01*
X25248Y27283D01*
Y27367D01*
X25331Y27200D02*
X25498D01*
X20425Y1300D02*
Y1800D01*
X20675D01*
X20758Y1717D01*
Y1550D01*
X20675Y1467D01*
X20425D01*
X20592D02*
X20758Y1300D01*
X20925D02*
X21092D01*
X21008D01*
Y1800D01*
X20925Y1717D01*
X21342Y1383D02*
X21425Y1300D01*
X21591D01*
X21675Y1383D01*
Y1717D01*
X21591Y1800D01*
X21425D01*
X21342Y1717D01*
Y1633D01*
X21425Y1550D01*
X21675D01*
X28500Y26666D02*
X29000D01*
Y26417D01*
X28917Y26333D01*
X28750D01*
X28667Y26417D01*
Y26666D01*
Y26500D02*
X28500Y26333D01*
Y25833D02*
Y26167D01*
X28833Y25833D01*
X28917D01*
X29000Y25917D01*
Y26083D01*
X28917Y26167D01*
Y25667D02*
X29000Y25583D01*
Y25417D01*
X28917Y25334D01*
X28583D01*
X28500Y25417D01*
Y25583D01*
X28583Y25667D01*
X28917D01*
X31023Y14250D02*
Y14750D01*
X31273D01*
X31356Y14667D01*
Y14500D01*
X31273Y14417D01*
X31023D01*
X31190D02*
X31356Y14250D01*
X31856D02*
X31523D01*
X31856Y14583D01*
Y14667D01*
X31773Y14750D01*
X31606D01*
X31523Y14667D01*
X32023Y14250D02*
X32189D01*
X32106D01*
Y14750D01*
X32023Y14667D01*
X21634Y4300D02*
Y4800D01*
X21883D01*
X21967Y4717D01*
Y4550D01*
X21883Y4467D01*
X21634D01*
X21800D02*
X21967Y4300D01*
X22467D02*
X22133D01*
X22467Y4633D01*
Y4717D01*
X22383Y4800D01*
X22217D01*
X22133Y4717D01*
X22966Y4300D02*
X22633D01*
X22966Y4633D01*
Y4717D01*
X22883Y4800D01*
X22717D01*
X22633Y4717D01*
X4200Y34700D02*
Y34300D01*
X4400D01*
X4467Y34367D01*
Y34433D01*
X4400Y34500D01*
X4200D01*
X4400D01*
X4467Y34567D01*
Y34633D01*
X4400Y34700D01*
X4200D01*
X4600Y34300D02*
Y34700D01*
X4800D01*
X4866Y34633D01*
Y34500D01*
X4800Y34433D01*
X4600D01*
X4733D02*
X4866Y34300D01*
X5000D02*
Y34567D01*
X5133Y34700D01*
X5266Y34567D01*
Y34300D01*
Y34500D01*
X5000D01*
X6066Y34300D02*
X5799D01*
X6066Y34567D01*
Y34633D01*
X5999Y34700D01*
X5866D01*
X5799Y34633D01*
X6199D02*
X6266Y34700D01*
X6399D01*
X6466Y34633D01*
Y34367D01*
X6399Y34300D01*
X6266D01*
X6199Y34367D01*
Y34633D01*
X6866Y34300D02*
X6599D01*
X6866Y34567D01*
Y34633D01*
X6799Y34700D01*
X6666D01*
X6599Y34633D01*
X6999Y34300D02*
X7132D01*
X7066D01*
Y34700D01*
X6999Y34633D01*
X7732D02*
X7799Y34700D01*
X7932D01*
X7999Y34633D01*
Y34367D01*
X7932Y34300D01*
X7799D01*
X7732Y34367D01*
Y34633D01*
X8132D02*
X8199Y34700D01*
X8332D01*
X8399Y34633D01*
Y34567D01*
X8332Y34500D01*
X8265D01*
X8332D01*
X8399Y34433D01*
Y34367D01*
X8332Y34300D01*
X8199D01*
X8132Y34367D01*
X8932Y34633D02*
X8998Y34700D01*
X9132D01*
X9198Y34633D01*
Y34367D01*
X9132Y34300D01*
X8998D01*
X8932Y34367D01*
Y34633D01*
X9532Y34300D02*
Y34700D01*
X9332Y34500D01*
X9598D01*
X13050Y1750D02*
X13250D01*
X13150D01*
Y2350D01*
X13050Y2250D01*
X13550Y1750D02*
Y2150D01*
X13750Y2350D01*
X13950Y2150D01*
Y1750D01*
Y2050D01*
X13550D01*
X9690Y5163D02*
Y5430D01*
X9957Y5163D01*
X10023D01*
X10090Y5230D01*
Y5363D01*
X10023Y5430D01*
X9690Y4830D02*
X10090D01*
X9890Y5030D01*
Y4764D01*
X10023Y4630D02*
X10090Y4564D01*
Y4430D01*
X10023Y4364D01*
X9757D01*
X9690Y4430D01*
Y4564D01*
X9757Y4630D01*
X10023D01*
X10090Y4230D02*
X9823D01*
X9690Y4097D01*
X9823Y3964D01*
X10090D01*
X4503Y30453D02*
X4570Y30520D01*
Y30653D01*
X4503Y30720D01*
X4237D01*
X4170Y30653D01*
Y30520D01*
X4237Y30453D01*
X4370D01*
Y30587D01*
X4170Y30320D02*
X4570D01*
X4170Y30054D01*
X4570D01*
Y29920D02*
X4170D01*
Y29720D01*
X4237Y29654D01*
X4503D01*
X4570Y29720D01*
Y29920D01*
Y29070D02*
X4170D01*
Y28803D01*
X4570Y28404D02*
Y28670D01*
X4170D01*
Y28404D01*
X4370Y28670D02*
Y28537D01*
X4570Y28270D02*
X4303D01*
X4170Y28137D01*
X4303Y28004D01*
X4570D01*
Y27604D02*
Y27870D01*
X4170D01*
Y27604D01*
X4370Y27870D02*
Y27737D01*
X4570Y27471D02*
X4170D01*
Y27204D01*
X4503Y24403D02*
X4570Y24470D01*
Y24603D01*
X4503Y24670D01*
X4237D01*
X4170Y24603D01*
Y24470D01*
X4237Y24403D01*
X4570Y24070D02*
Y24203D01*
X4503Y24270D01*
X4237D01*
X4170Y24203D01*
Y24070D01*
X4237Y24004D01*
X4503D01*
X4570Y24070D01*
X4170Y23870D02*
X4570D01*
X4437Y23737D01*
X4570Y23604D01*
X4170D01*
X4170Y22420D02*
X4570D01*
X4170Y22153D01*
X4570D01*
X4503Y21754D02*
X4570Y21820D01*
Y21953D01*
X4503Y22020D01*
X4237D01*
X4170Y21953D01*
Y21820D01*
X4237Y21754D01*
X4200Y26400D02*
X4600D01*
X4200Y26133D01*
X4600D01*
Y25800D02*
Y25933D01*
X4533Y26000D01*
X4267D01*
X4200Y25933D01*
Y25800D01*
X4267Y25734D01*
X4533D01*
X4600Y25800D01*
X4333Y16783D02*
X4400Y16850D01*
Y16983D01*
X4333Y17050D01*
X4067D01*
X4000Y16983D01*
Y16850D01*
X4067Y16783D01*
X4400Y16450D02*
Y16583D01*
X4333Y16650D01*
X4067D01*
X4000Y16583D01*
Y16450D01*
X4067Y16384D01*
X4333D01*
X4400Y16450D01*
X4000Y16250D02*
X4400D01*
X4267Y16117D01*
X4400Y15984D01*
X4000D01*
X4140Y15000D02*
X4540D01*
X4140Y14733D01*
X4540D01*
X4473Y14334D02*
X4540Y14400D01*
Y14533D01*
X4473Y14600D01*
X4207D01*
X4140Y14533D01*
Y14400D01*
X4207Y14334D01*
X4000Y19800D02*
X4400D01*
X4000Y19533D01*
X4400D01*
Y19200D02*
Y19333D01*
X4333Y19400D01*
X4067D01*
X4000Y19333D01*
Y19200D01*
X4067Y19134D01*
X4333D01*
X4400Y19200D01*
X4530Y11350D02*
X4130D01*
Y11150D01*
X4197Y11083D01*
X4263D01*
X4330Y11150D01*
Y11350D01*
Y11150D01*
X4397Y11083D01*
X4463D01*
X4530Y11150D01*
Y11350D01*
Y10950D02*
X4197D01*
X4130Y10883D01*
Y10750D01*
X4197Y10684D01*
X4530D01*
X4463Y10284D02*
X4530Y10350D01*
Y10484D01*
X4463Y10550D01*
X4397D01*
X4330Y10484D01*
Y10350D01*
X4263Y10284D01*
X4197D01*
X4130Y10350D01*
Y10484D01*
X4197Y10550D01*
X4530Y10150D02*
X4463D01*
X4330Y10017D01*
X4463Y9884D01*
X4530D01*
X4330Y10017D02*
X4130D01*
X4530Y9351D02*
Y9217D01*
Y9284D01*
X4130D01*
Y9351D01*
Y9217D01*
Y9017D02*
X4397Y8751D01*
X4530Y8418D02*
Y8551D01*
X4463Y8618D01*
X4197D01*
X4130Y8551D01*
Y8418D01*
X4197Y8351D01*
X4463D01*
X4530Y8418D01*
Y7320D02*
X4130D01*
Y7120D01*
X4197Y7053D01*
X4263D01*
X4330Y7120D01*
Y7320D01*
Y7120D01*
X4397Y7053D01*
X4463D01*
X4530Y7120D01*
Y7320D01*
Y6920D02*
X4197D01*
X4130Y6853D01*
Y6720D01*
X4197Y6654D01*
X4530D01*
X4463Y6254D02*
X4530Y6320D01*
Y6454D01*
X4463Y6520D01*
X4397D01*
X4330Y6454D01*
Y6320D01*
X4263Y6254D01*
X4197D01*
X4130Y6320D01*
Y6454D01*
X4197Y6520D01*
X4530Y6120D02*
X4463D01*
X4330Y5987D01*
X4463Y5854D01*
X4530D01*
X4330Y5987D02*
X4130D01*
X4530Y5321D02*
Y5187D01*
Y5254D01*
X4130D01*
Y5321D01*
Y5187D01*
Y4987D02*
X4397Y4721D01*
X4530Y4388D02*
Y4521D01*
X4463Y4588D01*
X4197D01*
X4130Y4521D01*
Y4388D01*
X4197Y4321D01*
X4463D01*
X4530Y4388D01*
X6640Y5163D02*
Y5430D01*
X6907Y5163D01*
X6973D01*
X7040Y5230D01*
Y5363D01*
X6973Y5430D01*
X6640Y4830D02*
X7040D01*
X6840Y5030D01*
Y4764D01*
X6973Y4630D02*
X7040Y4564D01*
Y4430D01*
X6973Y4364D01*
X6707D01*
X6640Y4430D01*
Y4564D01*
X6707Y4630D01*
X6973D01*
X7040Y4230D02*
X6773D01*
X6640Y4097D01*
X6773Y3964D01*
X7040D01*
X5673Y32450D02*
X5406D01*
X5673Y32717D01*
Y32783D01*
X5606Y32850D01*
X5473D01*
X5406Y32783D01*
X5806D02*
X5873Y32850D01*
X6006D01*
X6073Y32783D01*
Y32517D01*
X6006Y32450D01*
X5873D01*
X5806Y32517D01*
Y32783D01*
X6473Y32450D02*
X6206D01*
X6473Y32717D01*
Y32783D01*
X6406Y32850D01*
X6273D01*
X6206Y32783D01*
X6606Y32450D02*
X6739D01*
X6673D01*
Y32850D01*
X6606Y32783D01*
X7339D02*
X7406Y32850D01*
X7539D01*
X7606Y32783D01*
Y32517D01*
X7539Y32450D01*
X7406D01*
X7339Y32517D01*
Y32783D01*
X7739Y32517D02*
X7806Y32450D01*
X7939D01*
X8005Y32517D01*
Y32783D01*
X7939Y32850D01*
X7806D01*
X7739Y32783D01*
Y32717D01*
X7806Y32650D01*
X8005D01*
D12*
X31859Y34230D02*
G03*
X31859Y34230I-79J0D01*
G01*
X18020Y28150D02*
X18786D01*
X18020D02*
Y30450D01*
X20080D01*
Y28150D02*
Y30450D01*
X18786Y28150D02*
X20080D01*
D13*
X18325Y30880D02*
X19775D01*
Y31306D01*
Y33106D02*
Y33520D01*
Y31306D02*
X20825D01*
Y33106D01*
X19775D02*
X20825D01*
X18325Y33520D02*
X19775D01*
X18325Y30880D02*
Y33520D01*
D14*
X6949Y9700D02*
Y9850D01*
X6550D02*
X6949D01*
X6550Y9700D02*
Y9850D01*
X6050Y9700D02*
X7450D01*
X6050Y7600D02*
Y9700D01*
Y7600D02*
X7450D01*
Y9700D01*
X5350Y14900D02*
Y21200D01*
X14050Y14900D02*
Y21204D01*
X5350Y14900D02*
X8350D01*
X5350Y21200D02*
X8350D01*
X12050Y21201D02*
X14050Y21204D01*
X12050Y14900D02*
X14050D01*
X12100Y23750D02*
X14100D01*
X12100Y30051D02*
X14100Y30054D01*
X5400Y30050D02*
X8400D01*
X5400Y23750D02*
X8400D01*
X14100D02*
Y30054D01*
X5400Y23750D02*
Y30050D01*
X6100Y9850D02*
X6225D01*
X6162D01*
Y10225D01*
X6100Y10162D01*
D15*
X20100Y4270D02*
X21300D01*
X20100Y4930D02*
X21300D01*
Y4270D02*
Y4930D01*
X20100Y4270D02*
Y4930D01*
X16530Y22570D02*
X17170D01*
X16520Y21340D02*
X17170D01*
X16520D02*
Y21753D01*
X17170Y21340D02*
Y21753D01*
X16530Y22147D02*
Y22570D01*
X17170Y22147D02*
Y22570D01*
X10220Y9080D02*
Y9720D01*
X8990Y9080D02*
Y9730D01*
X9403D01*
X8990Y9080D02*
X9403D01*
X9797Y9720D02*
X10220D01*
X9797Y9080D02*
X10220D01*
X8980Y8080D02*
Y8720D01*
X10210Y8070D02*
Y8720D01*
X9797Y8070D02*
X10210D01*
X9797Y8720D02*
X10210D01*
X8980Y8080D02*
X9403D01*
X8980Y8720D02*
X9403D01*
X21770Y25880D02*
Y26520D01*
X20540Y25880D02*
Y26530D01*
X20953D01*
X20540Y25880D02*
X20953D01*
X21347Y26520D02*
X21770D01*
X21347Y25880D02*
X21770D01*
X24630Y24130D02*
Y24770D01*
X25860Y24120D02*
Y24770D01*
X25447Y24120D02*
X25860D01*
X25447Y24770D02*
X25860D01*
X24630Y24130D02*
X25053D01*
X24630Y24770D02*
X25053D01*
X16720Y30980D02*
Y31620D01*
X15490Y30980D02*
Y31630D01*
X15903D01*
X15490Y30980D02*
X15903D01*
X16297Y31620D02*
X16720D01*
X16297Y30980D02*
X16720D01*
X23070Y31380D02*
Y32020D01*
X21840Y31380D02*
Y32030D01*
X22253D01*
X21840Y31380D02*
X22253D01*
X22647Y32020D02*
X23070D01*
X22647Y31380D02*
X23070D01*
X21880Y30330D02*
Y30970D01*
X23110Y30320D02*
Y30970D01*
X22697Y30320D02*
X23110D01*
X22697Y30970D02*
X23110D01*
X21880Y30330D02*
X22303D01*
X21880Y30970D02*
X22303D01*
X23120Y29330D02*
Y29970D01*
X21890Y29330D02*
Y29980D01*
X22303D01*
X21890Y29330D02*
X22303D01*
X22697Y29970D02*
X23120D01*
X22697Y29330D02*
X23120D01*
X21080Y27500D02*
Y28700D01*
X20420Y27500D02*
Y28700D01*
X21080D01*
X20420Y27500D02*
X21080D01*
X6550Y32130D02*
X7750D01*
X6550Y31470D02*
X7750D01*
X6550D02*
Y32130D01*
X7750Y31470D02*
Y32130D01*
X17000Y26720D02*
X18200D01*
X17000Y27380D02*
X18200D01*
Y26720D02*
Y27380D01*
X17000Y26720D02*
Y27380D01*
X17070Y24500D02*
Y25700D01*
X17730Y24500D02*
Y25700D01*
X17070Y24500D02*
X17730D01*
X17070Y25700D02*
X17730D01*
X16750Y19020D02*
X17950D01*
X16750Y19680D02*
X17950D01*
Y19020D02*
Y19680D01*
X16750Y19020D02*
Y19680D01*
X17270Y16150D02*
Y17350D01*
X17930Y16150D02*
Y17350D01*
X17270Y16150D02*
X17930D01*
X17270Y17350D02*
X17930D01*
X15920Y32100D02*
Y33300D01*
X16580Y32100D02*
Y33300D01*
X15920Y32100D02*
X16580D01*
X15920Y33300D02*
X16580D01*
X22850Y27380D02*
X24050D01*
X22850Y26720D02*
X24050D01*
X22850D02*
Y27380D01*
X24050Y26720D02*
Y27380D01*
X15730Y32100D02*
Y33300D01*
X15070Y32100D02*
Y33300D01*
X15730D01*
X15070Y32100D02*
X15730D01*
X23450Y32030D02*
X24650D01*
X23450Y31370D02*
X24650D01*
X23450D02*
Y32030D01*
X24650Y31370D02*
Y32030D01*
X18080Y21350D02*
Y22550D01*
X17420Y21350D02*
Y22550D01*
X18080D01*
X17420Y21350D02*
X18080D01*
X32620Y25400D02*
Y26600D01*
X33280Y25400D02*
Y26600D01*
X32620Y25400D02*
X33280D01*
X32620Y26600D02*
X33280D01*
X23650Y1970D02*
X24850D01*
X23650Y2630D02*
X24850D01*
Y1970D02*
Y2630D01*
X23650Y1970D02*
Y2630D01*
X24750Y3420D02*
X25950D01*
X24750Y4080D02*
X25950D01*
Y3420D02*
Y4080D01*
X24750Y3420D02*
Y4080D01*
X24150Y28420D02*
X25350D01*
X24150Y29080D02*
X25350D01*
Y28420D02*
Y29080D01*
X24150Y28420D02*
Y29080D01*
X15670Y21350D02*
Y22550D01*
X16330Y21350D02*
Y22550D01*
X15670Y21350D02*
X16330D01*
X15670Y22550D02*
X16330D01*
X23250Y4220D02*
X24450D01*
X23250Y4880D02*
X24450D01*
Y4220D02*
Y4880D01*
X23250Y4220D02*
Y4880D01*
X24150Y27620D02*
X25350D01*
X24150Y28280D02*
X25350D01*
Y27620D02*
Y28280D01*
X24150Y27620D02*
Y28280D01*
X20500Y1970D02*
X21700D01*
X20500Y2630D02*
X21700D01*
Y1970D02*
Y2630D01*
X20500Y1970D02*
Y2630D01*
X28330Y25400D02*
Y26600D01*
X27670Y25400D02*
Y26600D01*
X28330D01*
X27670Y25400D02*
X28330D01*
X32550Y14830D02*
X33750D01*
X32550Y14170D02*
X33750D01*
X32550D02*
Y14830D01*
X33750Y14170D02*
Y14830D01*
X21550Y3470D02*
X22750D01*
X21550Y4130D02*
X22750D01*
Y3470D02*
Y4130D01*
X21550Y3470D02*
Y4130D01*
D16*
X10645Y34049D02*
X13391D01*
X13755Y33685D01*
X10645Y31451D02*
X13401D01*
X13755Y31805D01*
X10645Y33055D02*
Y34049D01*
D17*
X11600Y3450D02*
Y13850D01*
Y3450D02*
X15600D01*
Y13850D01*
X11600D02*
X15600D01*
X7990Y3880D02*
X8290Y4180D01*
Y3880D02*
X8590Y4180D01*
Y3880D02*
X8890Y4180D01*
X8490Y4230D02*
Y4630D01*
X8090Y4180D02*
X8940D01*
D18*
X22210Y2050D02*
X22390D01*
X22300Y1960D02*
X22390Y2050D01*
X22142Y1950D02*
X22458D01*
X22210Y2050D02*
X22300Y1960D01*
X18300Y26060D02*
Y26240D01*
X18210Y26150D02*
X18300Y26060D01*
X18200Y25992D02*
Y26308D01*
X18210Y26150D02*
X18300Y26240D01*
X17400Y20060D02*
Y20240D01*
X17490Y20150D01*
X17500Y19992D02*
Y20308D01*
X17400Y20060D02*
X17490Y20150D01*
X23010Y24700D02*
X23190D01*
X23010D02*
X23100Y24790D01*
X22942Y24800D02*
X23258D01*
X23100Y24790D02*
X23190Y24700D01*
X26110Y2600D02*
X26290D01*
X26200Y2510D02*
X26290Y2600D01*
X26042Y2500D02*
X26358D01*
X26110Y2600D02*
X26200Y2510D01*
M02*
