M48
;Layer_Color=9474304
;FILE_FORMAT=2:5
INCH,LZ
;TYPE=PLATED
T1F00S00C0.03000
T2F00S00C0.04000
T3F00S00C0.05000
T4F00S00C0.05500
T5F00S00C0.06000
T6F00S00C0.14000
%
T01
X0034Y0054375
X0045Y0054875
X0129Y00215
X0157Y00205
X01705Y0047
X0198Y0017
X0254976Y0015846
X02645Y0044
X02805
X03525Y00455
X0352607Y00665
Y00835
Y0101
Y0114042
Y013
X0346Y0152
X03195Y01525
X0322041Y013584
X0327Y01295
X0339Y013
X03145
X0319Y0099
X0336
X027Y0103
X0244Y01035
X0213Y01045
Y00745
X020875Y01565
X0192
X0202005Y0168633
X021767
X0233335
X0249
X024225Y01565
X02255
X0222712Y0181321
X0209Y01795
X0200214Y0189586
X0221Y0199
X0231Y0207
X0239Y0181
X0255Y01845
X0259Y01565
X0186Y0186
X0169Y01845
X01195Y0180625
X0104125
X008875
X0073375
X0058Y01805
Y01675
X0056518Y0143
X0077035
X0036
X00365Y0116
X0045
X00535
X0054Y0105
X0045Y0099875
X00365
X00435Y0080625
Y0067
X0034Y00705
X00555Y0069
X01355Y0104
X01775
X0178Y0074
X00905Y0204
X0056
X00405
Y0187875
X00355Y02235
X0037Y02425
X0056
Y025575
Y0269
X00715
X0087
X01025
X0118
X01215Y02295
X0149Y02215
X01545Y02395
X0166
X0168Y02625
X0146Y03195
Y03405
X0169
X00925Y0334
X0071
X00495
X00385Y0292
Y0275875
X0056018Y02235
X0076535
X00905
Y02455
X0200103Y0258387
X02Y02705
X0215Y0269
X02305Y02865
X0253Y0296
X02525Y0306
X0252Y0315
X02865Y03149
Y03077
X02938
Y03149
Y03221
X03011
Y03149
Y03077
X0311Y03005
X03185Y03115
X0318Y0331
X0308945Y0339436
X0295Y034
X02795
X02865Y03221
X0279329Y0288375
X0294648Y0289056
X0295553Y0265553
X0305Y0265
X0322584Y0264
X032Y0232
X0312Y02385
X03065Y02295
X03005Y0224
X0294Y02295
X02955Y0252541
X0267Y0267
X0238Y02585
X0221Y02385
Y02225
X0238Y0217
X0262967Y0214869
X02635Y02315
X02035Y03085
X02145Y0324
X0216Y0336
X03485Y02985
X035Y0276
Y026125
Y02465
T02
X0294Y0024
X0304
X0314
Y0034
X0304
X0294
X028Y0073
X02613
X0237677
X0322Y0083
X0332
Y0113
X0322
X033Y01795
X034
Y01895
X033
Y01995
X034
Y02095
X033
X028Y0205283
X0199291
X0248504Y0224575
X028
X033Y02195
X034
T03
X0068Y002
X0083
X0098
X007547Y0157
Y020424
X01235
X013149Y018062
X01235Y0157
X0124Y02455
X013199Y026912
X0124Y029274
X007597
Y02455
T04
X00213Y00522
X0021Y0072
Y0092
Y0112
Y0147
Y0167
Y0187
X00206Y02225
Y02425
Y02625
Y02825
Y03025
T05
X0136Y004221
Y013079
T06
X00175Y00175
X0355
X00175Y03375
X0355
M30
