M48
;Layer_Color=9474304
;FILE_FORMAT=2:5
INCH,TZ
;TYPE=PLATED
T1F00S00C0.03000
T2F00S00C0.04000
T3F00S00C0.05000
T4F00S00C0.05500
T5F00S00C0.06000
T6F00S00C0.14000
%
T01
X34000Y54375
X45000Y54875
X129000Y21500
X157000Y20500
X170500Y47000
X198000Y17000
X254976Y15846
X264500Y44000
X280500
X352500Y45500
X352607Y66500
Y83500
Y101000
Y114042
Y130000
X346000Y152000
X319500Y152500
X322041Y135840
X327000Y129500
X339000Y130000
X314500
X319000Y99000
X336000
X270000Y103000
X244000Y103500
X213000Y104500
Y74500
X208750Y156500
X192000
X202005Y168633
X217670
X233335
X249000
X242250Y156500
X225500
X222712Y181321
X209000Y179500
X200214Y189586
X221000Y199000
X231000Y207000
X239000Y181000
X255000Y184500
X259000Y156500
X186000Y186000
X169000Y184500
X119500Y180625
X104125
X88750
X73375
X58000Y180500
Y167500
X56518Y143000
X77035
X36000
X36500Y116000
X45000
X53500
X54000Y105000
X45000Y99875
X36500
X43500Y80625
Y67000
X34000Y70500
X55500Y69000
X135500Y104000
X177500
X178000Y74000
X90500Y204000
X56000
X40500
Y187875
X35500Y223500
X37000Y242500
X56000
Y255750
Y269000
X71500
X87000
X102500
X118000
X121500Y229500
X149000Y221500
X154500Y239500
X166000
X168000Y262500
X146000Y319500
Y340500
X169000
X92500Y334000
X71000
X49500
X38500Y292000
Y275875
X56018Y223500
X76535
X90500
Y245500
X200103Y258387
X200000Y270500
X215000Y269000
X230500Y286500
X253000Y296000
X252500Y306000
X252000Y315000
X286500Y314900
Y322100
X293800
Y314900
Y307700
X301100
Y314900
Y322100
X295000Y340000
X308945Y339436
X318000Y331000
X318500Y311500
X311000Y300500
X294648Y289056
X279329Y288375
X286500Y307700
X279500Y340000
X216000Y336000
X214500Y324000
X203500Y308500
X238000Y258500
X221000Y238500
Y222500
X238000Y217000
X262967Y214869
X263500Y231500
X294000Y229500
X300500Y224000
X306500Y229500
X312000Y238500
X320000Y232000
X322584Y264000
X305000Y265000
X295553Y265553
X295500Y252541
X267000Y267000
X350000Y261250
Y276000
X348500Y298500
X350000Y246500
T02
X294000Y24000
Y34000
X304000
Y24000
X314000
Y34000
X322000Y83000
X332000
Y113000
X322000
X330000Y179500
Y189500
Y199500
Y209500
X340000
Y199500
Y189500
Y179500
X280000Y205283
X199291
X237677Y73000
X261300
X280000
Y224575
X248504
X330000Y219500
X340000
T03
X68000Y20000
X83000
X98000
X75470Y157000
Y204240
X123500
X131490Y180620
X123500Y157000
X124000Y245500
X131990Y269120
X124000Y292740
X75970
Y245500
T04
X21300Y52200
X21000Y72000
Y92000
Y112000
Y147000
Y167000
Y187000
X20600Y222500
Y242500
Y262500
Y282500
Y302500
T05
X136000Y42210
Y130790
T06
X17500Y17500
X355000
X17500Y337500
X355000
M30
