M48
;Layer_Color=9474304
;FILE_FORMAT=2:5
INCH,LZ
;TYPE=PLATED
T2F00S00C0.02800
T4F00S00C0.04000
T6F00S00C0.05000
T7F00S00C0.05000
T9F00S00C0.05500
T10F00S00C0.06000
T11F00S00C0.14000
%
T02
X0129Y00215
X0157Y00205
X01705Y0047
X0198Y0017
X0254976Y0015846
X02645Y0044
X02805
X0352607Y0049255
Y00665
Y00835
Y0101
X0349Y0134
X0346Y0152
X03385Y0134
X0325
X03195Y01525
X0319Y0099
X0336
X027Y0103
X0244Y01035
X0213Y01045
Y00745
X020875Y01565
X0192
X0202005Y0168633
X021767
X0233335
X0249
X024225Y01565
X02255
X0222712Y0181321
X0209Y01795
X0200214Y0189586
X0221Y0199
X0231Y0207
X0239Y0181
X0255Y01845
X0259Y01565
X01855Y01845
X01745
X0164
X01775Y0104
X0178Y0074
X01355Y0104
X0149Y02215
X01545Y02395
X0166
X0168Y02625
X0146Y03195
Y03405
X0169
X00935Y03285
X0072Y0329
X00505
X01215Y02285
X0221Y02225
Y02385
X0215Y0269
X02Y02705
X0200103Y0258387
X0238Y02585
X02305Y02865
X0253Y0296
X02525Y0306
X0252Y0315
X02865Y03149
Y03221
X02938
Y03149
Y03077
X03011
Y03149
Y03221
X0295Y034
X0308945Y0339436
X0318Y0331
X03185Y03115
X0311Y03005
X0294648Y0289056
X0279329Y0288375
X02865Y03077
X02795Y034
X0216Y0336
X02145Y0324
X02035Y03085
X0267Y0267
X0295553Y0265553
X0305Y0265
X0322584Y0264
X032Y0232
X0312Y02385
X03065Y02295
X03005Y0224
X0295Y02295
X02955Y0252541
X02635Y02315
X0262967Y0214869
X0238Y0217
X035Y02465
Y026125
Y0276
X03485Y02985
T04
X0294Y00245
X0304
Y00345
X0294
X0314Y00245
X0322Y0083
X0332
X0322Y0113
X033Y01795
X034
Y01895
Y01995
Y02095
X033
Y01995
Y01895
X028Y0205283
X0199291
X0237677Y0073
X02613
X028
Y0224575
X0248504
X034Y02195
T06
X0098Y002
T07
X0068Y002
X0083
X007547Y0157
Y020424
X01235
X013149Y018062
X01235Y0157
X0124Y02455
X013199Y026912
X0124Y029274
X007597
Y02455
T09
X00213Y00522
X0021Y0072
Y0092
Y0112
Y0147
Y0167
Y0187
X00206Y02225
Y02425
Y02625
Y02825
Y03025
T10
X0136Y004221
Y013079
T11
X00175Y00175
X0355
X00175Y03375
X0355
M30
