M48
;Layer_Color=9474304
;FILE_FORMAT=2:5
INCH,LZ
;TYPE=PLATED
T1F00S00C0.02000
T8F00S00C0.05000
%
G90
G05
T01
G00X02785Y03235
M15
G01Y03055
M16
G00X0308Y0324
M15
G01Y0306
M16
G00X0282Y033
M15
G01X0305
M16
G00X0282Y02995
M15
G01X0305
M16
T08
G00X01845Y0011
M15
G01Y0051
M16
G00X02865Y0058
M15
G01X01915
M16
G00X02905Y0069
M15
G01Y0134
M16
G00X0282Y0143
M15
G01X0117
M16
G00X014Y01705
M15
G01X0105
M16
G00X014Y01935
M15
G01X0105
M16
G00X01475Y01755
M15
G01Y01905
M16
G00X01075Y00635
M15
G01Y01385
M16
G00X00675Y0065
M15
G01Y011
M16
G00X01045Y0204
M15
G01Y0244
M16
G00X0105Y0255
M15
G01X014
M16
G00X0105Y02825
M15
G01X014
M16
G00X00955Y02855
M15
G01Y03005
M16
G00X01475Y0262
M15
G01Y0277
M16
M17
M30
